<svg id="Layer_1" data-name="Layer 1" xmlns="http://www.w3.org/2000/svg" xmlns:xlink="http://www.w3.org/1999/xlink" viewBox="0 0 1920 1080"><defs><style>.cls-1,.cls-10,.cls-15,.cls-16,.cls-18,.cls-25,.cls-29,.cls-30,.cls-32,.cls-34,.cls-35,.cls-38,.cls-5{fill:none;}.cls-2{clip-path:url(#clip-path);}.cls-22,.cls-26,.cls-3{fill:#1c1d3e;}.cls-4{fill:#505ea8;}.cls-10,.cls-16,.cls-17,.cls-18,.cls-21,.cls-22,.cls-24,.cls-25,.cls-26,.cls-27,.cls-28,.cls-29,.cls-30,.cls-31,.cls-32,.cls-33,.cls-34,.cls-35,.cls-36,.cls-37,.cls-38,.cls-5,.cls-6,.cls-9{stroke:#1c1d3e;}.cls-10,.cls-16,.cls-18,.cls-21,.cls-22,.cls-24,.cls-25,.cls-26,.cls-28,.cls-29,.cls-31,.cls-32,.cls-34,.cls-35,.cls-36,.cls-38,.cls-5,.cls-6{stroke-linecap:round;}.cls-10,.cls-16,.cls-18,.cls-21,.cls-22,.cls-24,.cls-25,.cls-26,.cls-28,.cls-29,.cls-31,.cls-32,.cls-35,.cls-36,.cls-38,.cls-5,.cls-6{stroke-linejoin:round;}.cls-5,.cls-6,.cls-9{stroke-width:1.7px;}.cls-17,.cls-21,.cls-24,.cls-27,.cls-28,.cls-31,.cls-33,.cls-36,.cls-37,.cls-6,.cls-7,.cls-9{fill:#fff;}.cls-8{fill:#634e42;}.cls-15,.cls-17,.cls-27,.cls-30,.cls-33,.cls-34,.cls-37,.cls-9{stroke-miterlimit:10;}.cls-10{stroke-width:3.4px;}.cls-11{clip-path:url(#clip-path-2);}.cls-12,.cls-13{fill:#e8e8f0;}.cls-12{opacity:0.4;}.cls-14{fill:#c5c1d2;}.cls-15{stroke:#c5c1d2;}.cls-15,.cls-18{stroke-width:2.85px;}.cls-16,.cls-17,.cls-21,.cls-22{stroke-width:2.14px;}.cls-19{fill:#00a19a;}.cls-20{fill:#f6cb40;}.cls-23{fill:#be1622;}.cls-24,.cls-25,.cls-26{stroke-width:2.13px;}.cls-27,.cls-28,.cls-29,.cls-30{stroke-width:2.13px;}.cls-31,.cls-32,.cls-33{stroke-width:2.03px;}.cls-34{stroke-width:4.05px;}.cls-35,.cls-36,.cls-37{stroke-width:1.92px;}.cls-38{stroke-width:3.85px;}</style><clipPath id="clip-path"><rect class="cls-1" x="-0.11" y="-0.15" width="1920.12" height="1080.16"/></clipPath><clipPath id="clip-path-2"><rect class="cls-1" x="418.66" y="114.56" width="1501.34" height="965.44"/></clipPath></defs><g class="cls-2"><polygon class="cls-3" points="264.9 1110.66 447.26 1110.66 435.81 847.07 265.67 855.99 264.9 1110.66"/><polygon class="cls-4" points="310.13 802.85 320.08 1120.23 150.79 1120.23 174.45 828.96 310.13 802.85"/><polyline class="cls-5" points="165.68 936.9 174.45 828.96 310.13 802.85 320.08 1120.23"/><polyline class="cls-5" points="174.45 905.72 224.68 905.72 224.68 861.72"/><polygon class="cls-4" points="391.6 786.25 391.6 1120.23 532.27 1116.31 503.27 813.34 391.6 786.25"/><polyline class="cls-5" points="515.1 936.96 503.27 813.34 391.6 786.25 391.6 1120.23"/><polyline class="cls-5" points="448.77 869.49 448.77 908.91 504.95 912.65"/><path class="cls-6" d="M310.13,767.69h85.25L399.19,519a89.11,89.11,0,0,0-37.94-12.75c-21.54-1.82-34.47,2.32-45.46,5.68-3.28,1-13.32,4.34-13.32,4.34Z"/><polygon class="cls-4" points="391.6 767.69 399.19 518.97 481.62 590.17 462.39 779.22 391.6 767.69"/><path class="cls-4" d="M302.56,519l7.57,248.72-74.5,4.71L199.72,621.59s19.08-52.49,50.13-72.82S302.56,519,302.56,519Z"/><path class="cls-4" d="M399.16,516.24c60.67,22.19,127.18,79.11,163.14,178.48,25.68,71,3.63,171.41-93.24,193.84-106.78,24.72-238.72-4-238.72-4l13.27-108.27L382.89,780,452.7,765.5l9.85-99.38-65.63-78.51Z"/><path class="cls-5" d="M550.48,830.91c-16.1,27.14-42.45,48.62-81.42,57.65-106.78,24.72-238.72-4-238.72-4l13.27-108.27L382.89,780,452.7,765.5l9.85-99.38"/><path class="cls-7" d="M550.75,772a40.89,40.89,0,0,0-3.54-6.3h0s6.52-5.41-4-17.59c-6.29-7.26-23.81-15.21-33.25-14.72-12.91.66-30.15,11.3-41.31,17.11s-64.12,21-64.12,21l7.31,53.56s43.81-.72,63.93-11.47,34.8-9.6,46.77-1.53,18.31,5.28,21.47-.45c1.26-2.29-.76-6-4.27-9.88h0c7.32,3.72,11.54-2.83,11.27-7.15-.11-1.77-1.23-4.79-3.32-8.3l.05,0C551.32,787.63,554.69,780.71,550.75,772Z"/><path class="cls-5" d="M497.9,765.18s21.64-3.47,34.21,4.94S550.74,790.27,551,794.6s-4,10.87-11.27,7.15"/><path class="cls-5" d="M496.11,751.53s22.74-5.67,33.5-.37,17.2,12.14,21.14,20.84.57,15.63-3,14.33"/><path class="cls-5" d="M547.22,765.7s6.52-5.41-4-17.59c-6.29-7.26-23.81-15.21-33.25-14.72-12.91.66-30.15,11.3-41.31,17.11s-64.12,21-64.12,21l7.31,53.56s43.81-.72,63.93-11.47,34.8-9.6,46.77-1.53,18.31,5.28,21.47-.45-14.09-20-24.37-25.88-23.24-4.49-23.24-4.49"/><path class="cls-4" d="M302.47,516.24s-48.59,9.81-107.77,69.47C146.14,634.66,84.79,744,145.62,841.22s271.85,30.12,271.85,30.12L412.7,756.47l-169.56,6.85L224.93,715l-13.51-74.54,92.83-67.29Z"/><path class="cls-3" d="M394.36,855.84a5.73,5.73,0,1,1-6.8-4.4A5.72,5.72,0,0,1,394.36,855.84Z"/><path class="cls-3" d="M372.5,860.52a5.73,5.73,0,1,1-6.8-4.4A5.73,5.73,0,0,1,372.5,860.52Z"/><path class="cls-3" d="M352,863.93a5.73,5.73,0,1,1-6.8-4.41A5.73,5.73,0,0,1,352,863.93Z"/><path class="cls-5" d="M242.4,763.27l170.3-6.8,4.77,114.87s-211,67.16-271.85-30.12"/><path class="cls-5" d="M166.48,772.37s22.53-13.29,64-11.62c0,0-34.15,27.88-44.69,51.29"/><line class="cls-5" x1="224.68" y1="710.82" x2="213.23" y2="650.7"/><path class="cls-6" d="M221.15,724.46s-15.87-15.09-11.67-22.66,17.44.29,23.06,9.2,2.48,21.63-.79,20.32S221.15,724.46,221.15,724.46Z"/><path class="cls-7" d="M257.05,754.42l-2.25-1.56c-1.92-4.64-2.11-5.17-4.44-8.14l1.14.35c.08-18.68-21-29.86-35.65-32.28s-26,1.13-23.23,12c2.18,8.46,21.62,8.91,21.62,8.91l.23.08c-11.55,1.16-24.4,4.63-25,13.14-.9,13.54,10.68,10.54,10.68,10.54-1.77,8.72.84,14,22,8.72s42.68-3.75,42.68-3.75A40.48,40.48,0,0,0,257.05,754.42Z"/><path class="cls-5" d="M264.9,762.44s-21.49-1.54-42.68,3.75-23.81,0-22-8.72,33.07-12.88,40.09-10.72S257.08,751.72,264.9,762.44Z"/><path class="cls-5" d="M200.18,757.47s-11.58,3-10.68-10.54,32.86-14.31,41.3-13.38,17,2.31,24,19.31"/><path class="cls-5" d="M214.24,733.71s-19.44-.45-21.62-8.91c-2.81-10.88,8.6-14.43,23.23-12s35.73,13.6,35.65,32.28"/><line class="cls-5" x1="302.47" y1="516.24" x2="310.13" y2="760.57"/><polyline class="cls-5" points="291.7 761.36 258.54 648.02 282.77 638.04 251.5 629.17 241.35 561.53"/><line class="cls-5" x1="399.16" y1="516.24" x2="391.6" y2="757.24"/><polyline class="cls-5" points="411.34 756.52 443.09 648.02 418.85 638.04 450.13 629.17 460.27 561.53"/><path class="cls-8" d="M313.22,487.1s-26.56-12.39-36.08-35.78-7.56-72.72,6.77-91.63,47.67-26.77,67-18.24c0,0,29.56-3.78,46.71,4.81,30.53,15.29,25.76,71.83,17.35,105.35-7.86,31.33-59.4,44.62-59.4,44.62Z"/><circle class="cls-8" cx="421.13" cy="496.23" r="44.33"/><path class="cls-8" d="M425.18,451.93s35.3-2,44.16,28.21"/><path class="cls-9" d="M350.15,536.82h0c-15.74.33-28.72-10.53-29-24.25l-.56-27.34c-.23-10.91,9.84-19.87,22.37-19.91l11.22,0c12.65,0,23.19,9,23.42,20l.54,26.12C378.42,525.12,365.89,536.5,350.15,536.82Z"/><path class="cls-9" d="M265.67,447a16.7,16.7,0,1,0,16.86-16.4A16.64,16.64,0,0,0,265.67,447Z"/><path class="cls-3" d="M290.09,449.47c0-.36,0-.71,0-1.06s0-.77-.1-1.15c0-.15,0-.42,0,0a2.14,2.14,0,0,0-.06-.35c-.05-.25-.11-.5-.17-.75a11.61,11.61,0,0,0-.5-1.51c-.14-.34.11.22-.05-.11l-.18-.35c-.15-.27-.31-.54-.49-.81a3.71,3.71,0,0,0-.23-.32c-.22-.29.14.14-.1-.13a9.78,9.78,0,0,0-.72-.72l-.33-.27c-.22-.19.17.12,0,0l-.19-.13a7.71,7.71,0,0,0-.93-.53l-.22-.1-.18-.08c.16.06.17.07,0,0l-.59-.2a9.53,9.53,0,0,0-1.31-.28s-.42-.06-.13,0l-.37,0-.77,0a16,16,0,0,0-1.83.08,1.29,1.29,0,0,1-1.32-1.26,1.32,1.32,0,0,1,1.26-1.32c3.64-.34,7.37.5,9.73,3.47a11.73,11.73,0,0,1,2.28,6.46,9.92,9.92,0,0,1,0,1.44,1.34,1.34,0,0,1-1.27,1.32,1.3,1.3,0,0,1-1.31-1.26Z"/><path class="cls-9" d="M429.47,446a16.7,16.7,0,1,1-16.54-16.73A16.63,16.63,0,0,1,429.47,446Z"/><path class="cls-3" d="M402.42,448c-.23-4.26,1.88-8.77,5.9-10.5a12.89,12.89,0,0,1,6.63-.67,1.3,1.3,0,0,1,.93,1.57,1.32,1.32,0,0,1-1.57.93,10.18,10.18,0,0,0-4.82.47c-.08,0-.55.23-.27.1l-.45.22a8.84,8.84,0,0,0-.88.57c-.3.21.09-.11-.18.14l-.33.3c-.21.22-.41.45-.61.69a1.09,1.09,0,0,0-.13.17c.19-.25.08-.12,0-.06s-.15.23-.23.35a7.59,7.59,0,0,0-.44.79c-.06.12-.12.24-.17.36s-.21.51-.06.13c-.1.25-.19.5-.27.76a13.17,13.17,0,0,0-.34,1.41c0,.2-.07.41-.1.62s-.14.41,0,0a1.36,1.36,0,0,0,0,.29,11.29,11.29,0,0,0,0,1.3c.09,1.66-2.49,1.71-2.58.06Z"/><path class="cls-9" d="M400.45,450.37a45.53,45.53,0,0,1-44.92,45.86l-14.74.16a45.53,45.53,0,0,1-45.87-44.92l-.51-49a45.53,45.53,0,0,1,44.92-45.86l14.74-.16a45.52,45.52,0,0,1,45.86,44.92Z"/><path class="cls-5" d="M360.08,457.7a10.44,10.44,0,0,1-20.72.22"/><path class="cls-3" d="M319.33,425.66a6.11,6.11,0,1,1-6-6.25A6.12,6.12,0,0,1,319.33,425.66Z"/><path class="cls-3" d="M384,424.33a6.11,6.11,0,1,1-6-6.24A6.12,6.12,0,0,1,384,424.33Z"/><path class="cls-10" d="M371.52,411s8.61-2.11,15.25,2.53"/><path class="cls-10" d="M319,412.1s-8.7-1.75-15.13,3.15"/><polyline class="cls-5" points="346.8 415.66 341.99 439.87 350.87 439.7"/><path class="cls-8" d="M290.58,425.53s36.54-8.32,48.78-25.92A37.89,37.89,0,0,1,330,411.79c-2.38,2.07-10,7.62-10,7.62s18-1.42,30.88-19.8l.87-1.84s-7.69,14-17.88,19.22c0,0,10.78-.12,25.06-13.7,18.1-17.2,14.21-51.47,14.21-51.47l-45.12-3-24.17,13.71-9.43,21.05Z"/><path class="cls-8" d="M404.32,419.41s-.54-40.6-5.56-48.43a16.24,16.24,0,0,0-4-4.43c-5.56-5.61-16.16-14.46-27.21-13.76-16.08,1,5.3,22.28,5.31,22.29C375.76,380.55,391.53,409.61,404.32,419.41Z"/><g class="cls-11"><path class="cls-12" d="M937.45,1203.88S630.22,1096.08,608,875.37,763,570.6,889.15,589.91c87.27,13.36,243.69-87.32,291.45-188.2,132.34-279.55,532.12-187.43,612.71,6C1864.69,579,1853.86,532.3,1952.4,571s109.63,354.91,41,508.37S1059.11,1211.31,937.45,1203.88Z"/><path class="cls-12" d="M1831.9,289.69s-34.2,51.88,3.67,126.34,137.41,90.53,184,26.27,28.69-158.63-6.52-172.69S1870.68,219.41,1831.9,289.69Z"/><path class="cls-12" d="M888.89,481.14c-18.58,3.41-51.76.23-65.5-50.38s45.59-76.84,83.22-71.28S992.08,462.16,888.89,481.14Z"/><path class="cls-13" d="M552.2,796.33s30.46,9.47,22.88,58.5-61.7,46.79-80.69,23.88S493.8,785.42,552.2,796.33Z"/><path class="cls-14" d="M1880.66,1078.25q23.88-14.6,48.14-28.55,29.43-17,59.33-33.11,18.42-9.95,37-19.57c1.22-.64.14-2.48-1.08-1.85q-32.4,16.77-64.28,34.53-27.6,15.36-54.78,31.43-12.76,7.55-25.41,15.28c-1.17.71-.1,2.56,1.07,1.84Z"/><path class="cls-15" d="M1886.34,1013.76a52.51,52.51,0,0,1,13.12-.65c26.77,1.45,22.35-24.92,50.5-46.66s36.88-1,54.44-6.47,30.86-42,61.9-22.62,33.8,54.61,11,80.3-43.13,3.77-49.72,26.24-9.87,32.39-38.58,38.6-49.47-1.57-64,37.49c-13,34.79-36.37,43-59.82,40.42l-49.66-29.13"/><path class="cls-15" d="M1891.6,789.61c.55-49.57,53-115.46,107.65-81.94,55,33.73,37,91.36,6.77,123.19-25.66,27-86.52,39-71.7,61s19.52,53.9-30.28,74.51,8.38,56.07-25.3,113.45c-22.58,38.46-49.66,53.08-74.34,52.13l-64.55-51.2a98.42,98.42,0,0,1-5.92-52.2c8.3-52.52,63.73-54.39,71.87-78.84s-9.09-66.8,12.83-103.75C1847.6,797.1,1891.33,814.23,1891.6,789.61Z"/><path class="cls-14" d="M1945.8,766.56q-3.88,7.14-7.73,14.28-9.72,18-19.33,36.13-12.51,23.53-24.77,47.2c-8.28,16-16.46,32.05-24.4,48.23-5.44,11.08-10.73,22.23-16,33.39q-9.48,20.15-18.78,40.37-9.7,21-19.32,42.14-8.67,19-17.3,38.1-6.53,14.43-13,28.87-3.23,7.14-6.42,14.28c-.09.2-.18.41-.28.62-.55,1.24,1.29,2.33,1.85,1.08q2.19-4.89,4.39-9.78,5.82-12.95,11.66-25.89,8.22-18.18,16.48-36.34,9.5-20.87,19.06-41.7,9.49-20.65,19.1-41.25c5.57-11.9,11.17-23.77,16.89-35.6,7-14.56,14.33-29,21.71-43.4q12.45-24.25,25.2-48.36,10.51-19.87,21.16-39.69,5.57-10.35,11.17-20.67l.51-.93c.66-1.21-1.19-2.29-1.85-1.08Z"/><path class="cls-14" d="M1849.46,839.78l1,9.46,2.27,22.59,2.76,27.45,2.38,23.65c.39,3.85.63,7.75,1.16,11.58,0,.06,0,.11,0,.17.14,1.35,2.27,1.37,2.14,0l-1-9.46-2.28-22.59-2.76-27.45-2.37-23.65c-.39-3.85-.63-7.75-1.17-11.58a1,1,0,0,1,0-.17c-.14-1.35-2.28-1.37-2.14,0Z"/><path class="cls-14" d="M1868.31,1016.75l-21.25,12-33.61,18.94-7.75,4.36a1.07,1.07,0,0,0,1.08,1.85l21.25-12,33.61-18.94,7.75-4.37c1.2-.67.12-2.52-1.08-1.84Z"/><path class="cls-14" d="M1829.48,863c-10.51,2.68-8.93,16.38,1.91,16.59C1841.9,876.93,1840.32,863.23,1829.48,863Z"/><path class="cls-15" d="M1745.15,1106.18a89,89,0,0,1-29.06-37.55c-18.21-44.46,23.73-71.88,18.55-94.59s-38.35-47.33-38.74-86.15c-.52-51.29,41.29-58.56,30-77.7-22.82-38.55-13.24-114,44.72-113.77,58.33.25,71.42,53.22,63,92-7.16,32.88-46.64,71.61-24.91,81.6"/><path class="cls-14" d="M1756.81,767q1.2,25.83,2.73,51.63c1.86,32.27,3.89,64.55,6.77,96.76,2.2,24.52,5,49,7.76,73.47q4.52,39.57,9.35,79.11,2.55,21.12,5.19,42.24c0,.22.05.43.08.64.16,1.35,2.3,1.36,2.13,0q-2.19-17.54-4.32-35.08-4.7-38.46-9.15-77c-2.93-25.43-5.82-50.88-8.25-76.37-2.94-30.93-4.94-61.95-6.79-92.95q-1.83-30.75-3.31-61.5c0-.33,0-.66,0-1-.07-1.36-2.2-1.37-2.14,0Z"/><path class="cls-14" d="M1716.74,868.73l5.14,6.83L1734.25,892l15,19.86,13,17.26c2.09,2.78,4.11,5.64,6.29,8.35l.09.11c.82,1.09,2.67,0,1.85-1.07l-5.15-6.83-12.36-16.41-15-19.86-13-17.26c-2.09-2.78-4.11-5.64-6.29-8.35l-.09-.11c-.82-1.09-2.67,0-1.84,1.07Z"/><path class="cls-14" d="M1814.3,996.46l-10.73,19.09L1786.44,1046l-4,7a1.07,1.07,0,0,0,1.85,1.08l10.73-19.09,17.13-30.47,4-7a1.07,1.07,0,0,0-1.85-1.08Z"/><path class="cls-14" d="M1763.13,845.76l12.55-21.22,20-33.79,4.57-7.72a1.07,1.07,0,0,0-1.85-1.08l-12.55,21.22-20,33.8-4.57,7.72a1.06,1.06,0,0,0,1.84,1.07Z"/><path class="cls-14" d="M1712.3,896c-6.87,7,.78,16.83,9.25,11.91C1728.41,900.93,1720.77,891.09,1712.3,896Z"/><path class="cls-15" d="M853,869.36c-38.51-27.22-61.78-103.88-6-128.59,56.17-24.86,91.55,20.41,100.12,61.29,7.27,34.69-16.21,88.85,9,89.09s52.76,13.86,42,64,48.44,23.74,75.16,81.13c17.92,38.47,14.72,67.58.63,86.39l-75,22.87A93.69,93.69,0,0,1,954.82,1122c-36.64-34.89-8.14-79.3-22.88-98.9s-57.23-29-74.32-66.13C835.05,907.86,872.1,882.88,853,869.36Z"/><path class="cls-14" d="M864.22,814.57q3.49,6.88,7,13.77,8.87,17.37,17.83,34.67,11.69,22.51,23.58,44.91c8.06,15.13,16.2,30.21,24.57,45.17,5.74,10.24,11.61,20.41,17.51,30.56q10.65,18.32,21.46,36.52,11.22,19,22.55,37.89,10.21,17.09,20.48,34.14,7.8,13,15.62,25.9l7.67,12.67.34.56c.71,1.17,2.56.1,1.84-1.08l-5.28-8.72q-7-11.55-14-23.12-9.8-16.26-19.55-32.54-11.21-18.7-22.34-37.45-11-18.59-22-37.25Q952.12,975,942.83,958.7c-7.59-13.38-15-26.88-22.23-40.43q-12.29-22.86-24.25-45.88-9.95-19.07-19.73-38.18-5.07-9.9-10.09-19.81l-.46-.91c-.62-1.23-2.47-.15-1.85,1.08Z"/><path class="cls-14" d="M869.52,929.56l7.92,4.37,18.9,10.43,23,12.67,19.88,11c3.19,1.76,6.35,3.78,9.65,5.32l.14.08c1.2.66,2.28-1.18,1.07-1.85l-7.91-4.36-18.91-10.43-23-12.67-19.88-11c-3.19-1.76-6.34-3.78-9.65-5.33l-.13-.07c-1.21-.67-2.29,1.18-1.08,1.84Z"/><path class="cls-14" d="M1018.2,1010.45l-2.11,23-3.35,36.69-.77,8.36c-.12,1.37,2,1.36,2.14,0l2.1-23,3.36-36.69.76-8.36c.13-1.37-2-1.36-2.13,0Z"/><path class="cls-14" d="M876.87,957.68c-3.58,9.67,8,15.84,14,7.47C894.48,955.48,882.9,949.31,876.87,957.68Z"/><path class="cls-14" d="M917.15,805.29c-3.66,9.86,8.14,16.14,14.28,7.61C935.08,803.05,923.29,796.77,917.15,805.29Z"/><path class="cls-14" d="M885.18,784.19c-4.73,12.77,10.55,20.91,18.51,9.86C908.42,781.28,893.14,773.14,885.18,784.19Z"/><path class="cls-15" d="M1068.88,1102.34l-47.18,52.82a84.69,84.69,0,0,1-45.1,2.45c-44.66-9.77-43.47-57.43-64.05-65.65s-57.79,4.44-88.4-16.23c-40.44-27.32-23.54-64-44.65-65.46-42.52-3-96.43-51.26-64.91-96.51,31.72-45.55,80.27-27.17,106.06.39,21.89,23.38,31,75.16,50.58,63.54"/><path class="cls-14" d="M762.41,962.75l11.92,7.39q15,9.23,30,18.37,19.62,11.94,39.36,23.69c13.29,7.89,26.62,15.7,40.07,23.31,9.25,5.23,18.57,10.34,27.9,15.42q16.83,9.16,33.75,18.18,17.52,9.36,35.07,18.63,15.93,8.41,31.87,16.79,12.07,6.33,24.15,12.64,5.94,3.11,11.89,6.2c.17.1.35.19.53.28,1.21.63,2.29-1.21,1.07-1.85l-8.19-4.27q-10.79-5.62-21.55-11.27-15.21-8-30.4-16-17.37-9.16-34.7-18.4t-34.5-18.5c-9.94-5.38-19.88-10.79-29.75-16.31-12.1-6.75-24.09-13.71-36-20.74q-20.25-11.93-40.33-24.12Q797.93,982.16,781.43,972q-8.58-5.28-17.15-10.61l-.79-.49c-1.17-.73-2.24,1.12-1.08,1.85Z"/><path class="cls-14" d="M820.49,1049.11l27.69-1.15,44.12-1.84,10.11-.42c1.37-.06,1.38-2.19,0-2.14l-27.69,1.16-44.12,1.84-10.11.42c-1.37,0-1.38,2.19,0,2.13Z"/><path class="cls-14" d="M973.16,1041.81l9.19,18.81,14.58,29.84,3.36,6.86c.6,1.23,2.44.15,1.84-1.08l-9.19-18.81-14.58-29.84-3.35-6.86c-.6-1.24-2.45-.16-1.85,1.08Z"/><path class="cls-14" d="M827.51,1000.2l-9.86-21.34L802,945l-3.59-7.76c-.57-1.25-2.41-.17-1.84,1.07l9.85,21.34,15.64,33.86,3.58,7.77c.58,1.25,2.42.16,1.85-1.08Z"/><path class="cls-14" d="M839.37,1067.28c1.77,9.15,13.6,8.49,14.33-.81C851.94,1057.32,840.1,1058,839.37,1067.28Z"/><path class="cls-3" d="M1178.35,344.29s-21.74,18.92-26.67,43.73-6.35,32.89-17.92,40.27c-33.4,21.31-47,39.48-34.56,86.4s97,65,120.85,63.54,19.27-36.38,48.22-20.42,67.54-8.13,53.16-50.5c-6.73-19.83-36-34.25-36-93.26C1285.38,369.75,1199.11,315.84,1178.35,344.29Z"/><polygon class="cls-3" points="1098.25 767.07 1077.9 1111.59 1336.66 1111.59 1343.65 745.96 1098.25 767.07"/><path class="cls-7" d="M1391.7,778.82c0-.54,0-1.08,0-1.62,0-147.74-81-267.5-180.8-267.5s-180.8,119.76-180.8,267.5c0,.54,0,1.08,0,1.62Z"/><circle class="cls-4" cx="1222.76" cy="580.08" r="5.78"/><circle class="cls-4" cx="1255.24" cy="543.68" r="5.78"/><circle class="cls-4" cx="1270.97" cy="573.97" r="5.78"/><circle class="cls-4" cx="1238.64" cy="620.72" r="5.78"/><circle class="cls-4" cx="1174.57" cy="568.51" r="5.78"/><circle class="cls-4" cx="1203.34" cy="537.9" r="5.78"/><circle class="cls-4" cx="1128.07" cy="603.04" r="5.78"/><circle class="cls-4" cx="1094.07" cy="610.75" r="5.78"/><circle class="cls-4" cx="1106.14" cy="576.83" r="5.78"/><path class="cls-16" d="M1391.7,778.82c0-.54,0-1.08,0-1.62,0-147.74-81-267.5-180.8-267.5s-180.8,119.76-180.8,267.5c0,.54,0,1.08,0,1.62Z"/><path class="cls-17" d="M1180.6,401.71a21.5,21.5,0,0,1,12.57,3.91l-.11-12.92c-.19-20.48,14.37-37.37,32.36-37.53l27.06-.25c18-.16,32.85,16.46,33,36.94l.38,41.93c.19,20.48-14.38,37.37-32.36,37.54l-15.65.14.21,22.59a16.9,16.9,0,0,1-16.69,17l-10.73.1a16.9,16.9,0,0,1-17-16.69l-.23-25.53,0-1.43L1193.2,442c0-.51,0-1,.08-1.51a21.43,21.43,0,1,1-12.68-38.76Z"/><path class="cls-3" d="M1180.06,342.46c21.75-22.35,53.57-24.4,83.35-6.89s29.4,46.65,27.68,50.82c-1,2.47-2.48,4.34-5.59,5-2.73.36-7.34-.09-15.56-1.76-23.68-4.82-38.82-25.15-38.82-25.15s2.05,3.67-5.84,20.85c-5.92,12.9-21.19,21-29,24.32-2.82-2.22-3.58-2.8-4.94-3.74,0,0-5-4.23-10.52-4.2a23,23,0,0,0-13.78,4.93C1160.94,395.06,1160,363,1180.06,342.46Z"/><path class="cls-3" d="M1143.72,309.52a32.1,32.1,0,1,0,21-40.27A32.09,32.09,0,0,0,1143.72,309.52Z"/><path class="cls-16" d="M1192.47,425.79s.81-14.52-14.07-12.77"/><line class="cls-18" x1="1227.59" y1="397.64" x2="1238.02" y2="393.36"/><line class="cls-18" x1="1272.25" y1="393.66" x2="1282.29" y2="395.05"/><polyline class="cls-16" points="1258.45 399.42 1266.95 420.64 1256.63 423.9"/><path class="cls-16" d="M1268.47,437.4a9.39,9.39,0,0,1-18.77.17"/><path class="cls-3" d="M1281.27,407.16a5.14,5.14,0,1,1-5.14-5.14A5.14,5.14,0,0,1,1281.27,407.16Z"/><path class="cls-3" d="M1242.11,408.68a5.58,5.58,0,1,1-5.58-5.58A5.58,5.58,0,0,1,1242.11,408.68Z"/><rect class="cls-4" x="1196.23" y="455.91" width="44.56" height="91.48" rx="16.34" transform="translate(686.74 1707.31) rotate(-88.58)"/><line class="cls-16" x1="1181.81" y1="522.42" x2="1252.15" y2="524.96"/><polygon class="cls-19" points="1290.05 861.91 1277.8 1154.46 1540.99 1154.46 1537.27 847.04 1290.05 861.91"/><path class="cls-7" d="M1620.26,957.22S1619.64,739.31,1612,670c-13.21-119.06-103.14-208.2-203.28-208.2s-184.09,87.37-206.69,205c0,0-38.66,218.87,76.74,274l.12,10.63Z"/><polyline class="cls-16" points="1541.66 594.76 1541.66 666.77 1544.33 955.93"/><path class="cls-20" d="M1313.2,566.79h0a6.94,6.94,0,0,1-9.71-1.45l-15.15-20.45a6.94,6.94,0,0,1,1.45-9.71h0a7,7,0,0,1,9.71,1.45l15.14,20.45A6.94,6.94,0,0,1,1313.2,566.79Z"/><path class="cls-20" d="M1326.78,620.82h0a6.94,6.94,0,0,1-1.45,9.71l-20.45,15.15a6.94,6.94,0,0,1-9.71-1.45h0a6.94,6.94,0,0,1,1.45-9.71l20.45-15.15A6.94,6.94,0,0,1,1326.78,620.82Z"/><path class="cls-20" d="M1257.24,651h0a6.93,6.93,0,0,1-1.44,9.7l-20.45,15.15a6.94,6.94,0,0,1-9.71-1.44h0a6.94,6.94,0,0,1,1.44-9.71l20.46-15.15A6.93,6.93,0,0,1,1257.24,651Z"/><path class="cls-20" d="M1345.89,656.58h0a6.94,6.94,0,0,1,8.95,4l9,23.81a6.93,6.93,0,0,1-4,8.94h0a6.94,6.94,0,0,1-9-4l-9-23.81A6.93,6.93,0,0,1,1345.89,656.58Z"/><path class="cls-20" d="M1325.11,744.1h0a6.94,6.94,0,0,1-9.81.16L1297,726.58a7,7,0,0,1-.17-9.82h0a7,7,0,0,1,9.82-.16l18.3,17.68A7,7,0,0,1,1325.11,744.1Z"/><path class="cls-20" d="M1335.23,817.87h0a6.93,6.93,0,0,1,3.43,9.19l-10.57,23.15a6.93,6.93,0,0,1-9.19,3.43h0a6.92,6.92,0,0,1-3.43-9.19L1326,821.3A6.92,6.92,0,0,1,1335.23,817.87Z"/><path class="cls-20" d="M1304.27,903.29h0a6.94,6.94,0,0,1-9.72-1.35l-15.35-20.3a6.94,6.94,0,0,1,1.36-9.72h0a6.93,6.93,0,0,1,9.72,1.35l15.35,20.3A6.94,6.94,0,0,1,1304.27,903.29Z"/><path class="cls-20" d="M1358.78,935.91h0a7,7,0,0,1-9.73-1.35l-15.34-20.3a6.94,6.94,0,0,1,1.35-9.73h0a7,7,0,0,1,9.72,1.35l15.35,20.31A7,7,0,0,1,1358.78,935.91Z"/><path class="cls-20" d="M1246.67,861.61h0a6.94,6.94,0,0,1-9.76,1l-19.69-16.13a6.94,6.94,0,0,1-1-9.76h0a6.94,6.94,0,0,1,9.77-1l19.69,16.12A6.94,6.94,0,0,1,1246.67,861.61Z"/><path class="cls-20" d="M1385.58,875.6h0a7,7,0,0,1-9.81-.35l-17.34-18.63a6.94,6.94,0,0,1,.35-9.81h0a6.94,6.94,0,0,1,9.81.35l17.34,18.63A7,7,0,0,1,1385.58,875.6Z"/><path class="cls-20" d="M1356,750.37h0a6.94,6.94,0,0,1,6.35,7.49l-2.09,25.36a6.94,6.94,0,0,1-7.48,6.35h0a7,7,0,0,1-6.35-7.49l2.09-25.36A6.94,6.94,0,0,1,1356,750.37Z"/><path class="cls-20" d="M1454.54,593.58h0a6.94,6.94,0,0,1,.88,9.78l-16.31,19.53a6.92,6.92,0,0,1-9.77.88h0a6.93,6.93,0,0,1-.88-9.77l16.31-19.54A6.93,6.93,0,0,1,1454.54,593.58Z"/><path class="cls-20" d="M1402.81,755.25h0a7,7,0,0,1-9.56-2.24l-13.41-21.64a6.94,6.94,0,0,1,2.25-9.55h0a6.93,6.93,0,0,1,9.55,2.24l13.41,21.63A7,7,0,0,1,1402.81,755.25Z"/><path class="cls-20" d="M1455.81,911.81h0a6.93,6.93,0,0,1-9.55-2.24l-13.41-21.63a6.94,6.94,0,0,1,2.24-9.56h0a7,7,0,0,1,9.56,2.25l13.41,21.63A6.94,6.94,0,0,1,1455.81,911.81Z"/><path class="cls-20" d="M1497.88,823.62h0a6.94,6.94,0,0,1-9.56-2.24l-13.4-21.63a6.94,6.94,0,0,1,2.24-9.56h0a6.94,6.94,0,0,1,9.56,2.24l13.4,21.63A6.94,6.94,0,0,1,1497.88,823.62Z"/><path class="cls-20" d="M1521.75,690.32h0a6.94,6.94,0,0,1-9.56-2.24l-13.4-21.63a6.94,6.94,0,0,1,2.24-9.56h0a6.93,6.93,0,0,1,9.55,2.25L1524,680.77A6.93,6.93,0,0,1,1521.75,690.32Z"/><path class="cls-20" d="M1462.29,736.19h0a6.94,6.94,0,0,1-9.56-2.24l-13.41-21.63a7,7,0,0,1,2.25-9.56h0a6.93,6.93,0,0,1,9.55,2.25l13.41,21.63A6.93,6.93,0,0,1,1462.29,736.19Z"/><path class="cls-20" d="M1405.25,821.55h0a6.93,6.93,0,0,1-.54-9.8l17-19a6.93,6.93,0,0,1,9.8-.54h0a6.93,6.93,0,0,1,.54,9.8l-17,19A6.93,6.93,0,0,1,1405.25,821.55Z"/><path class="cls-20" d="M1421.23,673.61h0a6.94,6.94,0,0,1-9.56-2.24l-13.41-21.63a7,7,0,0,1,2.25-9.56h0a6.94,6.94,0,0,1,9.55,2.24l13.41,21.64A6.93,6.93,0,0,1,1421.23,673.61Z"/><path class="cls-20" d="M1495.18,580h0a6.94,6.94,0,0,1,9.8.6l16.86,19.07a7,7,0,0,1-.61,9.8h0a6.94,6.94,0,0,1-9.8-.61l-16.85-19.07A6.93,6.93,0,0,1,1495.18,580Z"/><path class="cls-20" d="M1483.74,545.44h0a6.93,6.93,0,0,1,1.44-9.71l20.45-15.15a6.94,6.94,0,0,1,9.71,1.45h0a6.93,6.93,0,0,1-1.44,9.7l-20.46,15.15A6.93,6.93,0,0,1,1483.74,545.44Z"/><path class="cls-20" d="M1585,616.39h0a6.93,6.93,0,0,1-2.9,9.37l-22.51,11.87a6.94,6.94,0,0,1-9.38-2.9h0a6.93,6.93,0,0,1,2.9-9.37l22.51-11.88A7,7,0,0,1,1585,616.39Z"/><path class="cls-20" d="M1350.76,531.6h0a7,7,0,0,1-3.11-9.32L1359,499.52a6.94,6.94,0,0,1,9.31-3.11h0a6.94,6.94,0,0,1,3.1,9.32l-11.37,22.76A7,7,0,0,1,1350.76,531.6Z"/><path class="cls-20" d="M1378,611.64h0a7,7,0,0,1-9.78.88l-19.53-16.31a6.94,6.94,0,0,1-.88-9.78h0a6.94,6.94,0,0,1,9.77-.88l19.54,16.31A7,7,0,0,1,1378,611.64Z"/><path class="cls-20" d="M1391.11,570.83h0a7,7,0,0,1,0-9.82l18-18a7,7,0,0,1,9.82,0h0a7,7,0,0,1,0,9.82l-18,18A6.93,6.93,0,0,1,1391.11,570.83Z"/><path class="cls-20" d="M1423.18,500.24h0a7,7,0,0,1,9.31-3.1l22.77,11.38a6.93,6.93,0,0,1,3.1,9.31h0a6.93,6.93,0,0,1-9.31,3.1l-22.76-11.38A6.94,6.94,0,0,1,1423.18,500.24Z"/><path class="cls-20" d="M1560.45,565.72l17.75,2.44c-3.18-5.29-6.53-10.41-10-15.38l-5.87-.81a6.94,6.94,0,0,0-1.88,13.75Z"/><path class="cls-20" d="M1485,491.55l9.47-7c-4.54-2.53-9.15-4.89-13.85-7l-3.88,2.88a6.94,6.94,0,1,0,8.26,11.15Z"/><path class="cls-20" d="M1313.67,503.62a6.94,6.94,0,0,0,8.89-10.66l-5.79-4.83c-4.12,2.49-8.18,5.12-12.15,7.93Z"/><path class="cls-20" d="M1242.11,606.66a6.94,6.94,0,1,0,6.2-12.42L1229.79,585c-2.09,4.09-4.06,8.29-6,12.53Z"/><path class="cls-20" d="M1255.93,889.52a6.94,6.94,0,0,0-9.12,3.63l-7.21,16.74,10.46,10.81,9.5-22.06A7,7,0,0,0,1255.93,889.52Z"/><path class="cls-20" d="M1325.29,951.92l2.12-4.93a6.94,6.94,0,1,0-12.75-5.49l-4.48,10.42Z"/><path class="cls-20" d="M1302,801a7,7,0,0,0-9.43-2.72l-15.34,8.47.17,15.76,21.88-12.07A7,7,0,0,0,1302,801Z"/><path class="cls-16" d="M1275.68,594.76v72l3.16,284.67,341.42,5.77S1619.64,739.31,1612,670c-13.21-119.06-103.14-208.2-203.28-208.2s-184.09,87.37-206.69,205c0,0-38.66,218.87,76.74,274"/><rect class="cls-17" x="1389.62" y="414.11" width="51" height="58.87" rx="23.11"/><path class="cls-21" d="M1497.82,354.41a19.09,19.09,0,0,0-9.7-16.62,13.92,13.92,0,0,0-8-21.48,16.81,16.81,0,0,0-15.87-22.41h-.1a15.74,15.74,0,0,0-26.29-9.86,24.09,24.09,0,0,0-34.14-1.16,24.65,24.65,0,0,0-38.68,13.38,14.74,14.74,0,0,0-12,14.47,15.31,15.31,0,0,0,.29,2.89,17.56,17.56,0,0,0-9.21,25.17,19.09,19.09,0,0,0-1.31,30.24,19.08,19.08,0,0,0,6.5,23,19.08,19.08,0,0,0,16.3,26.2,19.1,19.1,0,1,0,19.12-26.2,19.06,19.06,0,0,0-6.63-8.38,19.09,19.09,0,0,0-5.41-21.79,19.07,19.07,0,0,0-1.87-18.35,17.56,17.56,0,0,0,4.94-20,24.63,24.63,0,0,0,30.51-3.29,24.14,24.14,0,0,0,36.15-10.09,15.53,15.53,0,0,0,5.06,1.18,16.82,16.82,0,0,0,15.45,16.17,14.58,14.58,0,0,0-.23,2.31,13.93,13.93,0,0,0,4,9.76,19.14,19.14,0,0,0-5.55,22.33,19.09,19.09,0,0,0-5.41,21.79,19.11,19.11,0,0,0-6.62,8.38,19.1,19.1,0,1,0,19.11,26.2,19.08,19.08,0,0,0,16.3-26.2,19.09,19.09,0,0,0,8-15.55A18.89,18.89,0,0,0,1491,369,19.05,19.05,0,0,0,1497.82,354.41Z"/><path class="cls-17" d="M1333.86,388.48a16.24,16.24,0,1,0,17-15.31A16.18,16.18,0,0,0,1333.86,388.48Z"/><path class="cls-16" d="M1359.05,389.69a9,9,0,0,0-8.54-9.33"/><path class="cls-17" d="M1493.43,391.29a16.24,16.24,0,1,1-16.45-15.9A16.18,16.18,0,0,1,1493.43,391.29Z"/><path class="cls-16" d="M1468.21,391.61a9,9,0,0,1,8.87-9"/><path class="cls-17" d="M1463,396.09a42.61,42.61,0,0,1-43.66,41.3l-13.8-.38a42.61,42.61,0,0,1-41.3-43.66l1.27-45.84a42.63,42.63,0,0,1,43.66-41.31l13.8.39a42.61,42.61,0,0,1,41.3,43.66Z"/><path class="cls-16" d="M1427.85,400.31a12.67,12.67,0,0,1-25.14-.7"/><path class="cls-3" d="M1388,370.07a5.72,5.72,0,1,1-5.37-6.06A5.72,5.72,0,0,1,1388,370.07Z"/><path class="cls-3" d="M1448.53,371.13a5.73,5.73,0,1,1-5.37-6.05A5.74,5.74,0,0,1,1448.53,371.13Z"/><path class="cls-18" d="M1437.31,358.24s8.14-1.67,14.18,2.91"/><path class="cls-18" d="M1388.11,357.37s-8.07-1.95-14.27,2.41"/><polyline class="cls-16" points="1418.62 384.36 1408.66 384.18 1414.02 361.69"/><rect class="cls-20" x="1372.41" y="444.95" width="85.75" height="30.63" rx="13.67"/><path class="cls-7" d="M1352.61,328.72s-4.06,16.76,5.18,25.4,26.31-3.58,26.31-3.58,11,5.64,23.25,3.87c17.69-2.56,20.75-17.1,21.11-17.94s1.88,11.6,12.81,13.81c7,1.42,13.33-2.21,13.33-2.21s-1.51,17.89,16.26,18.19c23.67.39,11.54-35.8,11.54-35.8s4-24.42-26.28-39.07-45.55-7.06-69.27,1.53S1352.61,328.72,1352.61,328.72Z"/><path class="cls-16" d="M1357.79,354.12c9.25,8.64,26.31-3.58,26.31-3.58s11,5.64,23.25,3.87c17.69-2.56,20.75-17.1,21.11-17.94s1.88,11.6,12.81,13.81c7,1.42,13.33-2.21,13.33-2.21s-1.51,17.89,16.26,18.19"/><path class="cls-21" d="M1167.57,887.66H916.37c-8.64,49.57-36.35,208.22-42.12,237.9h327.53S1182.9,967.7,1167.57,887.66Z"/><line class="cls-16" x1="939.05" y1="894.36" x2="922.55" y2="1067.06"/><line class="cls-16" x1="986.03" y1="893.83" x2="979.38" y2="1098.84"/><line class="cls-16" x1="1032.84" y1="890.54" x2="1032.84" y2="1012.86"/><line class="cls-16" x1="1082.21" y1="890.54" x2="1093.53" y2="1098.84"/><line class="cls-16" x1="1129.81" y1="893.83" x2="1143.7" y2="1045.05"/><path class="cls-21" d="M1111.36,540.19c-2.16-17.15-9.55-23.7-12.81-29.12a22.6,22.6,0,0,1,1.21-24.69c6.59-9.12,37.06-.46,47.08,16.92s17.32,71.42,17.32,71.42l-26.92,9.88S1114.38,564.11,1111.36,540.19Z"/><path class="cls-22" d="M1136.79,488.56l-17.7,31.66a4.8,4.8,0,0,1-8.29.15l-27.89-45.93a4.78,4.78,0,0,1-.47-4l11.43-35.22a4.8,4.8,0,0,1,8.51-1.25l34.17,49.49A4.79,4.79,0,0,1,1136.79,488.56Z"/><path class="cls-21" d="M1131.64,486.88l-14.74,26.37a3.43,3.43,0,0,1-5.92.11L1088,475.59a3.42,3.42,0,0,1-.33-2.84l9.52-29.37a3.43,3.43,0,0,1,6.08-.89l28.16,40.77A3.43,3.43,0,0,1,1131.64,486.88Z"/><path class="cls-7" d="M1124.85,447.88c9.41,1.21,17.61,17.06,17.61,17.06,9.78,8.74,14.56,23.88,14.58,24a66.75,66.75,0,0,1,8.79,14.39c4.18,10.59,0,42.41,0,42.41l9.4,27.34-17.84,5-20.15-46.54c-1-9.18,4.83-17.86,3.34-26.46-1.39-8-15.87-24.61-11.52-30.73h0c-6.07-3.63-8.92-8.61-9.15-12.39l-.66-.09C1112.41,453.23,1115.44,446.67,1124.85,447.88Z"/><path class="cls-16" d="M1137.24,531.52c-1-9.18,4.83-17.86,3.34-26.46s-18.16-27.18-10.23-31.94c11.37-6.82,31.31,19.58,35.48,30.18s0,42.41,0,42.41l9.4,27.34-17.84,5"/><path class="cls-16" d="M1157,488.91s-4.77-15.2-14.58-24-16.63-11.34-21.08-7.4c-3.32,2.94-1.39,11.37,7.66,16.78"/><path class="cls-16" d="M1142.46,464.94s-8.2-15.85-17.61-17.06-12.44,5.35-5.61,14"/><path class="cls-7" d="M1100.71,593l85.41-35.54s94.12,137.43,106.06,206.82c12.43,72.24-85.76,124.76-144.45,52.81C1080.39,734.49,1100.71,593,1100.71,593Z"/><path class="cls-3" d="M1098.08,627.34c.71-21,2.63-34.36,2.63-34.36l85.41-35.54s6.22,9.09,15.66,23.75C1178.85,591.24,1134.24,611.16,1098.08,627.34Z"/><path class="cls-16" d="M1100.71,593l85.41-35.54s94.12,137.43,106.06,206.82c12.43,72.24-85.76,124.76-144.45,52.81C1080.39,734.49,1100.71,593,1100.71,593Z"/><path class="cls-3" d="M1192.11,658.65h1.2v-1.2a7.29,7.29,0,0,1,14.58,0v1.2h1.2a7.29,7.29,0,1,1,0,14.58h-1.2v1.2a7.29,7.29,0,0,1-14.58,0v-1.2h-1.2a7.29,7.29,0,1,1,0-14.58Z"/><path class="cls-7" d="M1195.39,665.94a5.21,5.21,0,1,0,5.21-5.21A5.21,5.21,0,0,0,1195.39,665.94Z"/><path class="cls-3" d="M1161,736.29h1.2v-1.21a7.29,7.29,0,0,1,14.58,0v1.21h1.2a7.29,7.29,0,1,1,0,14.57h-1.2v1.21a7.29,7.29,0,0,1-14.58,0v-1.21H1161a7.29,7.29,0,1,1,0-14.57Z"/><path class="cls-7" d="M1164.31,743.58a5.21,5.21,0,1,0,5.21-5.21A5.2,5.2,0,0,0,1164.31,743.58Z"/><path class="cls-3" d="M1250.13,717.59h1.2v-1.2a7.29,7.29,0,0,1,14.58,0v1.2h1.2a7.29,7.29,0,1,1,0,14.58h-1.2v1.2a7.29,7.29,0,0,1-14.58,0v-1.2h-1.2a7.29,7.29,0,0,1,0-14.58Z"/><path class="cls-7" d="M1253.41,724.88a5.21,5.21,0,1,0,5.21-5.2A5.21,5.21,0,0,0,1253.41,724.88Z"/><path class="cls-3" d="M1215.55,777.72h1.2v-1.2a7.29,7.29,0,0,1,14.58,0v1.2h1.2a7.29,7.29,0,0,1,0,14.58h-1.2v1.2a7.29,7.29,0,0,1-14.58,0v-1.2h-1.2a7.29,7.29,0,0,1,0-14.58Z"/><path class="cls-7" d="M1218.83,785a5.21,5.21,0,1,0,5.21-5.21A5.21,5.21,0,0,0,1218.83,785Z"/><path class="cls-3" d="M1286.47,804.2V803a7.29,7.29,0,0,0-14.58,0v1.2h-1.2a7.29,7.29,0,0,0,0,14.58h1.2V820a7.3,7.3,0,0,0,2.2,5.21,74.52,74.52,0,0,0,13.55-21Z"/><path class="cls-7" d="M1274,811.49a5.21,5.21,0,1,0,5.21-5.21A5.21,5.21,0,0,0,1274,811.49Z"/><path class="cls-3" d="M1198.2,835.63a7.3,7.3,0,0,0-7.29,7.29v1.2h-1.2a7.26,7.26,0,0,0-4.42,1.53,78.51,78.51,0,0,0,28.69,5.74,7.29,7.29,0,0,0-7.29-7.27h-1.2v-1.2A7.29,7.29,0,0,0,1198.2,835.63Z"/><path class="cls-7" d="M1193.85,848.57a80.07,80.07,0,0,0,9.48,2,5.19,5.19,0,0,0-9.48-2Z"/><path class="cls-3" d="M1139.62,620.05h1.2v-1.2a7.29,7.29,0,0,1,14.58,0v1.2h1.2a7.29,7.29,0,1,1,0,14.58h-1.2v1.2a7.29,7.29,0,1,1-14.58,0v-1.2h-1.2a7.29,7.29,0,1,1,0-14.58Z"/><circle class="cls-7" cx="1148.11" cy="627.34" r="5.21"/><path class="cls-3" d="M1209.92,594a7.3,7.3,0,0,0-5.89,7.15v1.2h-1.2a7.29,7.29,0,0,0,0,14.58h1.2v1.2a7.29,7.29,0,0,0,14.58,0v-1.2h1.2a7.18,7.18,0,0,0,3.64-1C1218.69,608,1214.13,600.67,1209.92,594Z"/><path class="cls-7" d="M1206.12,609.62a5.21,5.21,0,1,0,5.2-5.21A5.2,5.2,0,0,0,1206.12,609.62Z"/><path class="cls-7" d="M898.45,902.48V805.43L939.05,618l109.66-75.65c103.74,59.57,128.51,255.8,134.27,360.13Z"/><path class="cls-16" d="M898.45,902.48V805.43L939.05,618l109.66-75.65c103.74,59.57,128.51,255.8,134.27,360.13Z"/><path class="cls-3" d="M1030.68,649.77h1.2v-1.21a7.29,7.29,0,0,1,14.57,0v1.21h1.21a7.29,7.29,0,1,1,0,14.57h-1.21v1.21a7.29,7.29,0,0,1-14.57,0v-1.21h-1.2a7.29,7.29,0,1,1,0-14.57Z"/><path class="cls-7" d="M1034,657.06a5.21,5.21,0,1,0,5.21-5.21A5.2,5.2,0,0,0,1034,657.06Z"/><path class="cls-3" d="M1083.14,744.67h1.2v-1.2a7.29,7.29,0,1,1,14.58,0v1.2h1.2a7.29,7.29,0,0,1,0,14.58h-1.2v1.2a7.29,7.29,0,1,1-14.58,0v-1.2h-1.2a7.29,7.29,0,0,1,0-14.58Z"/><path class="cls-7" d="M1086.42,752a5.21,5.21,0,1,0,5.21-5.21A5.2,5.2,0,0,0,1086.42,752Z"/><path class="cls-3" d="M1141.44,782.58h1.2v-1.2a7.29,7.29,0,1,1,14.58,0v1.2h1.2a7.29,7.29,0,0,1,0,14.58h-1.2v1.2a7.29,7.29,0,0,1-14.58,0v-1.2h-1.2a7.29,7.29,0,0,1,0-14.58Z"/><path class="cls-7" d="M1144.73,789.87a5.21,5.21,0,1,0,5.2-5.2A5.2,5.2,0,0,0,1144.73,789.87Z"/><path class="cls-3" d="M1048.58,811.29h1.2v-1.2a7.29,7.29,0,1,1,14.58,0v1.2h1.2a7.29,7.29,0,0,1,0,14.58h-1.2v1.2a7.29,7.29,0,0,1-14.58,0v-1.2h-1.2a7.29,7.29,0,0,1,0-14.58Z"/><path class="cls-7" d="M1051.86,818.58a5.21,5.21,0,1,0,5.21-5.2A5.21,5.21,0,0,0,1051.86,818.58Z"/><path class="cls-3" d="M1101.91,855.51h1.2v-1.2a7.29,7.29,0,1,1,14.58,0v1.2h1.2a7.29,7.29,0,1,1,0,14.58h-1.2v1.2a7.29,7.29,0,1,1-14.58,0v-1.2h-1.2a7.29,7.29,0,0,1,0-14.58Z"/><path class="cls-7" d="M1105.2,862.8a5.21,5.21,0,1,0,5.2-5.2A5.2,5.2,0,0,0,1105.2,862.8Z"/><path class="cls-3" d="M1172.48,880.13v1.2h-1.21a7.29,7.29,0,0,0,0,14.58h1.21v1.2a7.23,7.23,0,0,0,2.39,5.37H1183c-.5-9.18-1.16-19.07-2-29.52a8.13,8.13,0,0,0-1.22-.12A7.28,7.28,0,0,0,1172.48,880.13Z"/><path class="cls-7" d="M1181.8,883.83a5.1,5.1,0,0,0-2-.42,5.21,5.21,0,0,0,0,10.42,5.13,5.13,0,0,0,2.66-.76C1182.23,890.06,1182,887,1181.8,883.83Z"/><path class="cls-3" d="M1040.13,899v-1.2h1.2a7.29,7.29,0,1,0,0-14.58h-1.2v-1.2a7.29,7.29,0,0,0-14.58,0v1.2h-1.2a7.29,7.29,0,1,0,0,14.58h1.2V899a7.18,7.18,0,0,0,.91,3.45h12.76A7.18,7.18,0,0,0,1040.13,899Z"/><path class="cls-7" d="M1027.63,890.54a5.21,5.21,0,1,0,5.21-5.21A5.21,5.21,0,0,0,1027.63,890.54Z"/><path class="cls-3" d="M955.11,849.58h1.2v-1.21a7.29,7.29,0,0,1,14.57,0v1.21h1.21a7.29,7.29,0,1,1,0,14.57h-1.21v1.21a7.29,7.29,0,0,1-14.57,0v-1.21h-1.2a7.29,7.29,0,1,1,0-14.57Z"/><path class="cls-7" d="M958.39,856.87a5.21,5.21,0,1,0,5.21-5.21A5.2,5.2,0,0,0,958.39,856.87Z"/><path class="cls-3" d="M916.65,902.48v-.83h1.2a7.29,7.29,0,0,0,0-14.58h-1.2v-1.2a7.29,7.29,0,0,0-14.58,0v1.2h-1.2a7.22,7.22,0,0,0-2.42.45V901.2a7.22,7.22,0,0,0,2.42.45h1.2v.83Z"/><path class="cls-7" d="M904.16,894.36a5.21,5.21,0,1,0,5.2-5.21A5.21,5.21,0,0,0,904.16,894.36Z"/><path class="cls-3" d="M1067.36,590.42h1.2v-1.2a7.29,7.29,0,0,1,14.58,0v1.2h1.2a7.29,7.29,0,0,1,0,14.58h-1.2v1.2a7.29,7.29,0,1,1-14.58,0V605h-1.2a7.29,7.29,0,1,1,0-14.58Z"/><path class="cls-7" d="M1070.64,597.71a5.21,5.21,0,1,0,5.21-5.21A5.2,5.2,0,0,0,1070.64,597.71Z"/><path class="cls-17" d="M1148.66,637.27l3.24,98.29a6,6,0,0,1-5.41,6.21l-6.58.69L1106.29,746l-6.58.7a6,6,0,0,1-6.58-5l-17.28-96.82Z"/><path class="cls-23" d="M1074.3,625h75.05a0,0,0,0,1,0,0v7.55a5.32,5.32,0,0,1-5.32,5.32h-64.41a5.32,5.32,0,0,1-5.32-5.32V625a0,0,0,0,1,0,0Z" transform="translate(2283.61 1143.1) rotate(174)"/><path class="cls-23" d="M1073.78,650.19l78.62-8.27a4.39,4.39,0,0,0,3.91-4.83l-.09-.82a4.4,4.4,0,0,0-4.83-3.91l-78.61,8.27a4.39,4.39,0,0,0-3.92,4.83l.09.82A4.39,4.39,0,0,0,1073.78,650.19Z"/><path class="cls-7" d="M1029.78,712.3,1042,752s45-1.77,56.88-15c7.71-8.58,22.49-11.85,42.26-18.33,14.06-4.6,15.06-14.4,8.92-18.14l.71.05c2.69-1.54,5.93-4.13,6.37-7.79.51-4.28-.83-7-3.84-8h.66s2.22-5.81.14-9.15c-1.35-2.18-3.36-4.25-8.82-5l1-1.19s1.09-12.63-11.17-13.2-31.3,4.25-43.7,9.79-18.82,13.07-26.57,22.18S1029.78,712.3,1029.78,712.3Z"/><path class="cls-16" d="M1146.31,669.44s1.09-12.63-11.17-13.2-31.3,4.25-43.7,9.79-18.82,13.07-26.57,22.18-35.09,24.09-35.09,24.09L1042,752s45-1.77,56.88-15c7.71-8.58,22.49-11.85,42.26-18.33s13.79-23.29-1.71-19c0,0-17.19,4.16-26,9.1"/><path class="cls-16" d="M1099.19,683.44s18.6-10.92,34-12.6,18.92,1.41,21,4.76-.14,9.15-.14,9.15"/><path class="cls-16" d="M1107.38,697.39s13.95-8.19,38.38-12.8c8.21-1.54,12.26,1.23,11.42,8.19-.44,3.66-3.68,6.25-6.37,7.79"/><path class="cls-7" d="M843.55,662.86c71.4-90.18,187.62-122.7,187.62-122.7l28.42,7.8L1049,603l-59.08,65.6-38.3,37.33-64.3,8.93,139.21-19.32,30.59,80.59c-92.7,103.66-196.75,95.72-226,70.69S773,752,843.55,662.86Z"/><path class="cls-3" d="M998.87,699.37l27.61-3.83,30.59,80.59q-11.41,12.75-23,23.29Z"/><path class="cls-3" d="M865.76,827.07H867v-1.2a7.29,7.29,0,1,1,14.58,0v1.2h1.2a7.29,7.29,0,0,1,0,14.58h-1.2v1.2a7.29,7.29,0,0,1-14.58,0v-1.2h-1.2a7.29,7.29,0,0,1,0-14.58Z"/><path class="cls-7" d="M869,834.36a5.21,5.21,0,1,0,5.21-5.2A5.21,5.21,0,0,0,869,834.36Z"/><path class="cls-3" d="M907.63,756h1.2v-1.2a7.29,7.29,0,0,1,14.58,0V756h1.2a7.29,7.29,0,0,1,0,14.58h-1.2v1.2a7.29,7.29,0,0,1-14.58,0v-1.2h-1.2a7.29,7.29,0,1,1,0-14.58Z"/><path class="cls-7" d="M910.92,763.26a5.21,5.21,0,1,0,5.2-5.2A5.2,5.2,0,0,0,910.92,763.26Z"/><path class="cls-3" d="M828.66,728.89h1.2v-1.2a7.29,7.29,0,0,1,14.58,0v1.2h1.2a7.29,7.29,0,0,1,0,14.58h-1.2v1.2a7.29,7.29,0,0,1-14.58,0v-1.2h-1.2a7.29,7.29,0,1,1,0-14.58Z"/><path class="cls-7" d="M831.94,736.18a5.21,5.21,0,1,0,5.21-5.21A5.2,5.2,0,0,0,831.94,736.18Z"/><path class="cls-3" d="M813,792.14h-1.2v-1.21a7.29,7.29,0,0,0-7.29-7.29,7.17,7.17,0,0,0-4,1.24,107.56,107.56,0,0,0,7.67,29.32,7.26,7.26,0,0,0,3.66-6.29v-1.2H813a7.29,7.29,0,1,0,0-14.57Z"/><path class="cls-7" d="M799.31,799.42a5.21,5.21,0,1,0,5.2-5.2A5.2,5.2,0,0,0,799.31,799.42Z"/><path class="cls-3" d="M852.1,660.33h1.2v1.2a7.29,7.29,0,0,0,14.58,0v-1.2h1.2a7.29,7.29,0,1,0,0-14.57h-1.2v-1.21a7.27,7.27,0,0,0-2.94-5.81q-9.2,9.32-17.77,19.65A7.28,7.28,0,0,0,852.1,660.33Z"/><path class="cls-7" d="M855.38,653a5.21,5.21,0,1,0,5.21-5.2A5.21,5.21,0,0,0,855.38,653Z"/><path class="cls-3" d="M911.67,707.86v1.2a7,7,0,0,0,.42,2.35l14.11-2c0-.13,0-.26,0-.39v-1.2h1.21a7.29,7.29,0,0,0,0-14.58h-1.21v-1.2a7.29,7.29,0,1,0-14.57,0v1.2h-1.21a7.29,7.29,0,0,0,0,14.58Z"/><path class="cls-7" d="M913.75,700.57a5.21,5.21,0,1,0,5.2-5.21A5.2,5.2,0,0,0,913.75,700.57Z"/><path class="cls-3" d="M962.23,645.76h1.2v-1.21a7.29,7.29,0,0,1,14.58,0v1.21h1.2a7.29,7.29,0,1,1,0,14.57H978v1.21a7.29,7.29,0,0,1-14.58,0v-1.21h-1.2a7.29,7.29,0,1,1,0-14.57Z"/><path class="cls-7" d="M965.51,653a5.21,5.21,0,1,0,5.21-5.2A5.21,5.21,0,0,0,965.51,653Z"/><path class="cls-3" d="M1001.71,586.55h1.2v-1.2a7.29,7.29,0,1,1,14.58,0v1.2h1.2a7.29,7.29,0,0,1,0,14.58h-1.2v1.2a7.29,7.29,0,1,1-14.58,0v-1.2h-1.2a7.29,7.29,0,0,1,0-14.58Z"/><path class="cls-7" d="M1005,593.84a5.21,5.21,0,1,0,5.21-5.2A5.21,5.21,0,0,0,1005,593.84Z"/><path class="cls-3" d="M935.66,591.89h1.2v1.2a7.29,7.29,0,0,0,14.58,0v-1.2h1.2a7.29,7.29,0,1,0,0-14.57h-1.2v-1.21a7.41,7.41,0,0,0-.18-1.57c-7.22,4-14.66,8.36-22.19,13.13A7.26,7.26,0,0,0,935.66,591.89Z"/><path class="cls-7" d="M938.94,584.6a5.21,5.21,0,1,0,5.21-5.2A5.21,5.21,0,0,0,938.94,584.6Z"/><path class="cls-3" d="M1005,821.43a7.29,7.29,0,0,0-7.28-7.29H996.5v-1.2a7.29,7.29,0,1,0-14.57,0v1.2h-1.21a7.29,7.29,0,0,0,0,14.58h1.21v1.2a7.26,7.26,0,0,0,2.76,5.68q10-5.65,20.15-12.7A7,7,0,0,0,1005,821.43Z"/><path class="cls-7" d="M984,821.43a5.21,5.21,0,1,0,5.21-5.21A5.21,5.21,0,0,0,984,821.43Z"/><path class="cls-3" d="M969.12,720.87h1.2v1.2a7.29,7.29,0,0,0,14.58,0v-1.2h1.2a7.29,7.29,0,0,0,0-14.58h-1.2v-1.2a7.25,7.25,0,0,0-1-3.64l-13.32,1.85a7,7,0,0,0-.25,1.79v1.2h-1.2a7.29,7.29,0,0,0,0,14.58Z"/><path class="cls-7" d="M972.4,713.58a5.21,5.21,0,1,0,5.21-5.21A5.2,5.2,0,0,0,972.4,713.58Z"/><path class="cls-16" d="M1031.17,540.16S915,572.68,843.55,662.86C773,752,801.88,821.79,831.1,846.82s133.27,33,226-70.69l-30.59-80.59L887.27,714.86"/><line class="cls-16" x1="989.87" y1="668.6" x2="951.57" y2="705.93"/><path class="cls-23" d="M1011.21,539.89c6.52-1.76,13.22-3.29,19.94-2.79,10.68.8,20.87,6.69,31.5,5.4,6.55-.79,12.47-4.25,18.91-5.65,5.8-1.27,11.94-.86,17.56-2.78,11.48-3.94,17.88-17.25,16.7-29.34s-8.46-22.81-17.2-31.24a8.09,8.09,0,0,0-2.3-1.73,10.52,10.52,0,0,0-3.63-.54c-6.11-.34-11.83-3-17.22-5.93-5.85-3.14-11.66-6.68-15.89-11.8-4.87-5.88-7.26-13.35-10.19-20.39-5.14-12.35-12.47-24.13-23.14-32.19s-25.06-11.93-37.8-7.85l-9.3-6.21c-6.38,7.48-11.53,16.27-19.62,21.85-4,2.73-8.45,4.57-12.59,7a49.54,49.54,0,0,0-1.35,84.54c2.35,1.48,4.89,2.83,6.61,5,2.86,3.64,2.78,8.68,3.53,13.25a33.7,33.7,0,0,0,54.46,20.77"/><ellipse class="cls-3" cx="1032.84" cy="551.84" rx="38.42" ry="21.71"/><path class="cls-21" d="M999.36,451.83a21.06,21.06,0,0,1,12.34,3.8l-.14-12.67c-.23-20.07,14-36.66,31.65-36.86l26.52-.29c17.63-.2,32.24,16.06,32.47,36.14l.46,41.11c.22,20.08-14,36.66-31.65,36.86l-15.34.17.25,22.15a16.58,16.58,0,0,1-16.33,16.7l-10.52.11a16.56,16.56,0,0,1-16.7-16.32l-.28-25v-1.39l-.28-25a14.72,14.72,0,0,1,.07-1.49,21,21,0,1,1-12.51-38Z"/><path class="cls-16" d="M1011.05,475.41s.77-14.24-13.82-12.49"/><path class="cls-3" d="M1049.27,456a6,6,0,1,0,5.91-6A6,6,0,0,0,1049.27,456Z"/><path class="cls-3" d="M1088.4,454.66a5.11,5.11,0,1,0,5-5.16A5.11,5.11,0,0,0,1088.4,454.66Z"/><polyline class="cls-16" points="1074.06 471.94 1084.6 465.35 1075.15 449.7"/><line class="cls-18" x1="1045.42" y1="447.74" x2="1055.64" y2="443.52"/><line class="cls-18" x1="1089.19" y1="443.75" x2="1099.04" y2="445.08"/><path class="cls-16" d="M1085.58,486.63a9.2,9.2,0,1,1-18.4.2"/><path class="cls-23" d="M1109.58,399a80.1,80.1,0,0,0-130.43-12.12s-11.82,26.1-13,40.36c-.93,11.47,10.14,23.1,15.17,28.7,3.82-4.76,12.32-7,18.93-7.09,4.59-.05,6.94,2.36,10.44,4.79,0,0,5,3.57,9.63,3,5.69-.7,14.51-4.35,20.74-11.83,6.66-8,8.59-19.14,9.19-29.53l1.41.15c6.36,8.85,13.38,18.2,23.7,21.71,4.29,1.45,8.87,1.78,13.39,2.1l14.41,1a13.4,13.4,0,0,0,6.21-.56c2.49-1.07,4.08-3.55,5.12-6.05C1119.16,422.46,1115.6,409.46,1109.58,399Z"/></g><polygon class="cls-3" points="1761.93 914.33 1778.91 1080 1506.51 1080 1511.71 911.59 1761.93 914.33"/><path class="cls-24" d="M1624.25,533s-73.76,45.35-97.48,135.09-15.06,243.5-15.06,243.5,291.7,12.93,291.7,8.89,19-141.19-9.91-214.85S1688.11,564,1688.11,564Z"/><path class="cls-25" d="M1617.79,565.15s-42.86,196-42.37,298.56v50.56"/><path class="cls-4" d="M1668,705.27a22.88,22.88,0,0,0-20.22,4.76,22.63,22.63,0,0,0-8.61-8.74s-6.19,10.48-8,14.1c-3.29,6.44-10.23,23.79-10.23,23.79l-1.86,5.15a23.48,23.48,0,0,0,2.8.91,22.85,22.85,0,0,0,20.22-4.77,23.41,23.41,0,0,0,15.07,11.83c12.58,3.09,25.24-4.95,28.24-17.91S1680.56,708.36,1668,705.27Z"/><path class="cls-14" d="M1652.47,916.28c-2.89-48.52-10.29-170.72-13.33-221-.73-12-10-20.89-20.32-19.38l-149.47,22c-9.88,1.45-16.89,11.91-15.69,23.39l22.56,215c1.19,11.34,10,19.5,19.73,18.38l140.24-16C1645.93,937.5,1653.15,927.63,1652.47,916.28Z"/><path class="cls-7" d="M1448,819.56c-4,10.43,1.68,23.41,25.3,32s121.43,22,121.43,22l13-68.26s-99.07-39.65-106.63-33.33,14,26.5,14,26.5-38.29-10.83-48.46-12.89-11,4.54-9.92,8.44c0,0-9.74.91-7,11.29A14.45,14.45,0,0,0,1448,819.56Z"/><path class="cls-25" d="M1456.73,794s-9.74.91-7,11.29c3,11.46,37.24,21,37.24,21"/><path class="cls-25" d="M1449.76,805.31a14.45,14.45,0,0,0-1.78,14.25c3.63,9.48,33.84,19.73,33.84,19.73"/><path class="cls-25" d="M1448,819.56c-4,10.43,1.68,23.41,25.3,32s121.43,22,121.43,22l13-68.26s-99.07-39.65-106.63-33.33,14,26.5,14,26.5-38.29-10.83-48.46-12.89-11,4.54-9.92,8.44c1.5,5.45,11.25,12,34.44,18.43"/><path class="cls-7" d="M1580.41,885.22l6.22-98.43,169-11.73-20.16-.38-23.36-90.46-79.88-143.11s126,6.51,220.82,150.16c94,142.44,45.23,282.64-127.79,243.16C1578.62,901,1580.41,885.22,1580.41,885.22Z"/><path class="cls-25" d="M1632.28,541.11s126,6.51,220.82,150.16c94,142.44,45.23,282.64-127.79,243.16-146.69-33.46-144.9-49.21-144.9-49.21l6.22-98.43,169-11.73"/><line class="cls-25" x1="1609.86" y1="798.36" x2="1609.86" y2="889.16"/><line class="cls-25" x1="1735.52" y1="774.68" x2="1712.16" y2="684.22"/><path class="cls-4" d="M1721.74,605.64a25.34,25.34,0,0,0-16.31-12.79c-13.6-3.35-27.31,5.35-30.55,19.38s5.19,28.15,18.79,31.5a24.77,24.77,0,0,0,21.88-5.16,25.36,25.36,0,0,0,16.31,12.8c13.6,3.34,27.31-5.35,30.55-19.38s-5.19-28.16-18.79-31.5A24.73,24.73,0,0,0,1721.74,605.64Z"/><path class="cls-4" d="M1792.2,689.9a25.32,25.32,0,0,0-16.3-12.8c-13.61-3.34-27.31,5.35-30.55,19.38s5.19,28.16,18.79,31.5a24.74,24.74,0,0,0,21.88-5.15,25.35,25.35,0,0,0,16.31,12.79c13.6,3.34,27.31-5.35,30.55-19.38s-5.19-28.16-18.8-31.5A24.75,24.75,0,0,0,1792.2,689.9Z"/><path class="cls-4" d="M1809.06,793.73a25.38,25.38,0,0,0-16.31-12.79c-13.6-3.34-27.31,5.35-30.55,19.38s5.19,28.16,18.79,31.5a24.76,24.76,0,0,0,21.88-5.15,25.38,25.38,0,0,0,16.31,12.79c13.6,3.34,27.31-5.35,30.55-19.38s-5.19-28.16-18.8-31.5A24.72,24.72,0,0,0,1809.06,793.73Z"/><path class="cls-4" d="M1694.67,814.78a25.3,25.3,0,0,0-16.3-12.79c-13.61-3.34-27.31,5.35-30.55,19.38s5.19,28.15,18.79,31.5a24.75,24.75,0,0,0,21.88-5.16,25.31,25.31,0,0,0,16.31,12.8c13.6,3.34,27.3-5.35,30.54-19.38s-5.18-28.16-18.79-31.5A24.74,24.74,0,0,0,1694.67,814.78Z"/><path class="cls-4" d="M1753.91,888.52a25.36,25.36,0,0,0-16.31-12.8c-13.6-3.34-27.31,5.35-30.55,19.38s5.19,28.16,18.79,31.5a24.73,24.73,0,0,0,21.88-5.15A25.38,25.38,0,0,0,1764,934.24c13.6,3.34,27.31-5.35,30.55-19.38s-5.19-28.16-18.79-31.5A24.74,24.74,0,0,0,1753.91,888.52Z"/><path class="cls-24" d="M1589.82,397.94l29.08.36c19.34.23,34.94,18.44,34.67,40.45l-.55,45.09c0,1.27-.09,2.53-.21,3.77a18.15,18.15,0,0,1,.44,4.13l-.33,27.45,0,1.53-.33,27.44a18.17,18.17,0,0,1-18.33,17.89l-11.54-.14a18.17,18.17,0,0,1-17.89-18.33l.3-24.29-16.82-.2c-19.34-.24-34.94-18.44-34.67-40.46l.55-45.09C1554.44,415.53,1570.48,397.71,1589.82,397.94Z"/><path class="cls-3" d="M1612.19,453a6.56,6.56,0,1,1-6.47-6.63A6.56,6.56,0,0,1,1612.19,453Z"/><path class="cls-3" d="M1569.28,451.5a5.6,5.6,0,1,1-5.53-5.66A5.6,5.6,0,0,1,1569.28,451.5Z"/><path class="cls-24" d="M1575.22,478.4s3.17,9.64,10.13,10.39,12.51-6.91,13-12.93Z"/><polyline class="cls-25" points="1586 468.46 1575.42 461.84 1584.93 446.12"/><line class="cls-25" x1="1617.79" y1="441.31" x2="1605.83" y2="436.94"/><line class="cls-25" x1="1569.14" y1="438.61" x2="1558.25" y2="438.47"/><path class="cls-26" d="M1652.9,477.43a18.07,18.07,0,0,1,11.52,1.61,21.78,21.78,0,0,1,1.54-14.67,22.48,22.48,0,0,1-34.58-15.15A22.16,22.16,0,0,1,1617,426a22.37,22.37,0,0,1-4.24-3.29,22.81,22.81,0,0,1-2.8-3.46,22.4,22.4,0,0,1-29-.57,23.24,23.24,0,0,1-1.8,2.19,22.45,22.45,0,0,1-38.13-13,22.49,22.49,0,0,1-7.58-37,23.3,23.3,0,0,1,3.89-3.05,22.53,22.53,0,0,1,22.43-22.43,22.39,22.39,0,0,1,32.1-10.48,22.42,22.42,0,0,1,41.65-1.23c.34-.39.61-.82,1-1.19a20.28,20.28,0,0,1,28.68.14,20,20,0,0,1,4.25,6.39,22.39,22.39,0,0,1,31.23,19.37,17.34,17.34,0,0,1,15.85,25.39,23,23,0,0,1,1.48,45,19.22,19.22,0,0,1-13.59,31.3,21.72,21.72,0,0,1-28.35,32.15,17.91,17.91,0,0,1-21.34,20.28Z"/><path class="cls-7" d="M1689.83,470.44A23.16,23.16,0,1,1,1667,447.19,23.07,23.07,0,0,1,1689.83,470.44Z"/><path class="cls-25" d="M1654.11,473s-.83-15.61,15.17-13.69"/><path class="cls-25" d="M1643.52,469.88a22.82,22.82,0,0,1,7.18-16.36"/><path class="cls-25" d="M1650.7,453.52a23,23,0,1,1,4.81,36.77,35.62,35.62,0,0,1-5.21-3.71"/><polygon class="cls-24" points="1669.28 548.36 1655.99 528.2 1617.79 555.51 1640.44 595 1669.28 548.36"/><polygon class="cls-24" points="1617.79 555.51 1595.14 591.4 1592.88 556.62 1604.94 536.68 1617.79 555.51"/><path class="cls-4" d="M1580.1,617.92a22.88,22.88,0,0,0-20.22,4.76,22.69,22.69,0,0,0-8.62-8.74s-6.19,10.48-8,14.1c-3.29,6.44-10.23,23.79-10.23,23.79l-1.86,5.15a21.28,21.28,0,0,0,2.8.9,22.83,22.83,0,0,0,20.22-4.76A23.41,23.41,0,0,0,1569.23,665c12.57,3.09,25.24-5,28.24-17.91S1592.67,621,1580.1,617.92Z"/><path class="cls-27" d="M1930.44,633.2a50.38,50.38,0,0,0,2-22c-2-16.2-10.56-30.91-20.05-43.85-5-6.84-10.39-13.51-14.4-21-4.13-7.75-6.17-16.15-7.21-24.81-1.93-15.9-1.15-32.15-6.73-47.42a45.89,45.89,0,0,0-11.09-17.46,2.68,2.68,0,0,0-4.52,1.86c-7.41,4-15.28,6.8-21.31,2.45-6.66-4.81-13-9.34-21.2-10.9-15.84-3-32.55,3.53-46.35,10.81-12.8,6.75-24.86,16-32.35,28.6-8.28,13.91-9.13,30.24-14.28,45.27-2.82,8.24-7.36,15-13.24,21.33-5.5,6-11,11.77-15,18.89a71.65,71.65,0,0,0-8.1,46.35c1.28,8.5,3.5,16.86,4.32,25.44.88,9.07-.71,17.86-3,26.6-2.25,8.48-5,16.87-6.18,25.59a70.16,70.16,0,0,0,.66,22.72c5.8,30.22,30.07,59.08,60.74,65.51,8.51,1.78,17.15,1.82,25.74,2.9s17.29,2.89,25.92,4.38,17.13,2.69,25.79,2.56c8.25-.14,16-1.93,23.94-4.11,7.21-2,14.4-4.32,20.93-8,6.08-3.45,11.37-8.11,16.61-12.68,9.52-8.29,19.46-17.07,23.4-29.44,4-12.64,4.76-26.34,5-39.51a117.2,117.2,0,0,0-2.15-22.65c-1.54-8.92-1.33-16.85,2.16-25.29C1923.54,647.82,1927.9,640.91,1930.44,633.2Z"/><path class="cls-28" d="M1836.7,1090,1839,629.9l-35.46-4.18c-15.4-1.14-23.09-.16-37,4l-8,10.84-53.94,439.62Z"/><path class="cls-29" d="M1768.78,639.5c2.53,16.56,44,25.07,62.86,5.37"/><path class="cls-23" d="M1710.55,1080.57l56.59-451.9s-66.65,4.18-123.27,128.47c-43.23,94.9-55.94,237.7-60.88,313.71Z"/><path class="cls-23" d="M1840.43,628.68l-2.92-.22-5.64,461.36,86.76,6.61L1945,750.5A113.51,113.51,0,0,0,1840.43,628.68Z"/><path class="cls-23" d="M1758.24,630.33a113.53,113.53,0,0,0-79.77,99.86l-26.36,345.93,60.76,4.63Z"/><polyline class="cls-30" points="1674.81 778.27 1652.11 1076.12 1918.63 1096.43 1939.97 816.4"/><polyline class="cls-29" points="1749.08 634.34 1720.34 724.67 1735.95 729.96 1715.06 741.29 1716.72 852.69"/><polyline class="cls-29" points="1850.79 630.62 1873.29 731.33 1850.72 734.04 1877.47 750.07 1854.26 868.73"/><path class="cls-27" d="M1848.3,529.1a23.24,23.24,0,0,0-13.92,3.15l1.22-14c1.93-22.11-12.38-41.59-31.8-43.29l-29.21-2.55c-19.42-1.7-36.89,15-38.82,37.11l-4,45.28c-1.94,22.11,12.37,41.59,31.79,43.29l16.89,1.48L1778.35,624a18.33,18.33,0,0,0,16.6,19.78l11.59,1a18.3,18.3,0,0,0,19.77-16.6l2.41-27.56.14-1.54,2.41-27.56a15.15,15.15,0,0,0,0-1.65,23.22,23.22,0,1,0,17-40.79Z"/><path class="cls-29" d="M1833.43,554.11s.35-15.76,16.29-12.61"/><path class="cls-3" d="M1792.93,529.48a6.61,6.61,0,1,1-6-7.16A6.61,6.61,0,0,1,1792.93,529.48Z"/><path class="cls-3" d="M1749.9,524.74a5.64,5.64,0,1,1-5.12-6.11A5.64,5.64,0,0,1,1749.9,524.74Z"/><polyline class="cls-29" points="1764.26 544.99 1753.2 536.85 1764.93 520.39"/><line class="cls-29" x1="1797.87" y1="520.72" x2="1786.96" y2="515.21"/><line class="cls-29" x1="1749.95" y1="512.64" x2="1738.99" y2="513.29"/><path class="cls-29" d="M1750.33,560.21A10.17,10.17,0,0,0,1770.6,562"/><path class="cls-7" d="M1731.24,461.57a88.56,88.56,0,0,1,144.79-2.4s10.84,29.76,10.92,45.58c.06,12.73-15.35,28.69-21.36,34.44a23.43,23.43,0,0,0-31.21-6.94s-1.94,1.91-4.21,4.58c-1.83-1.25-3.41-3.15-5.4-4.23-2.72-1.46-6-1.24-9-2-6-1.62-10.07-7.18-12.89-12.73a71.15,71.15,0,0,1-7.65-33.33l-1.56,0c-7.76,9.22-16.28,18.94-28,21.94-4.86,1.25-9.93,1.23-14.94,1.2l-16-.1c-2.32,0-4.75-.06-6.8-1.14-2.65-1.39-4.2-4.25-5.13-7.09C1718.7,486.66,1723.72,472.63,1731.24,461.57Z"/><path class="cls-29" d="M1865.59,539.19a23.43,23.43,0,0,0-31.21-6.94s-1.94,1.91-4.21,4.58c-1.83-1.25-3.41-3.15-5.4-4.23-2.72-1.46-6-1.24-9-2-6-1.62-10.07-7.18-12.89-12.73a71.15,71.15,0,0,1-7.65-33.33s-17.84,19-29.51,22c-4.86,1.25-9.93,1.23-14.94,1.2l-16-.1c-2.32,0-4.75-.06-6.8-1.14-2.65-1.39-4.2-4.25-5.13-7.09-4.2-12.69.82-26.72,8.34-37.78a88.56,88.56,0,0,1,144.79-2.4s6.62,7.47,10.62,23.79"/><path class="cls-23" d="M1897.21,886.36c1.86,133.95,4.91,253.71,4.91,253.71s131.75,61.49,136.85-21.34-.52-254.3-56.56-375.91c-23-49.93-56-78.48-87-95Z"/><path class="cls-29" d="M1902.12,1140.07s-3-119.76-4.91-253.71"/><path class="cls-31" d="M978.61,1000.12s-.13.93-.39,2.58c-1.82,11.56-10.08,58.51-26,70.51C934.12,1086.93,909.5,1010,909.5,1010s17.28-60,31.1-59.52S971.46,965.42,978.61,1000.12Z"/><path class="cls-3" d="M906,982.39s43.63,62.2,54.86,84.48-30.23,31.23-33.47,28S882.72,991.94,886,978.24,896.54,973.32,906,982.39Z"/><path class="cls-19" d="M983.8,1036.51S1037.36,995.67,1040,872s-30.24-191.52-72.57-251.32S821.4,527.14,808,525.43s-8.75,319.67-4.16,342.14S983.8,1036.51,983.8,1036.51Z"/><path class="cls-32" d="M803.84,867.57c4.58,22.46,180,168.94,180,168.94"/><path class="cls-32" d="M938.87,815.92s37.35-1.32,69.12,10.46"/><path class="cls-32" d="M953.34,801.63a105.54,105.54,0,0,1,46.11-1.28"/><path class="cls-31" d="M626,1000.12s.12.93.38,2.58c1.82,11.56,10.09,58.51,26,70.51,18.15,13.72,42.77-63.23,42.77-63.23s-17.28-60-31.1-59.52S633.13,965.42,626,1000.12Z"/><path class="cls-3" d="M698.54,982.39s-43.62,62.2-54.85,84.48,30.23,31.23,33.47,28,44.71-102.88,41.47-116.58S708.05,973.32,698.54,982.39Z"/><path class="cls-19" d="M620.79,1036.51S567.23,995.67,564.64,872s30.23-191.52,72.57-251.32,146-93.55,159.38-95.26,8.75,319.67,4.16,342.14S620.79,1036.51,620.79,1036.51Z"/><path class="cls-32" d="M800.75,867.57c-4.59,22.46-180,168.94-180,168.94"/><path class="cls-32" d="M665.72,815.92s-37.35-1.32-69.12,10.46"/><path class="cls-32" d="M651.24,801.63a105.49,105.49,0,0,0-46.1-1.28"/><polygon class="cls-3" points="674.18 928.58 676.9 1030.25 638.23 1086.93 953.34 1086.93 909.5 930.84 674.18 928.58"/><path class="cls-31" d="M698.92,939.22H888.55s11.08-373.88-42.11-401S706,531.4,680.11,670.7,698.92,939.22,698.92,939.22Z"/><line class="cls-32" x1="805.03" y1="545.63" x2="799.17" y2="936.74"/><polygon class="cls-31" points="853.48 543.03 835.59 519.84 809.04 519.84 800.38 519.84 773.83 519.84 751.06 542.32 769.15 594.69 804.71 564.46 840.28 594.69 853.48 543.03"/><path class="cls-3" d="M747.76,467.93c-3.2.55-17.91-29.3-19-54s8.68-79.67,75.68-73.53c22.84,2.1,73.68,2.43,73.49,61.71-.2,59.78-26.76,93.95-32.73,97.22S796.73,459.47,747.76,467.93Z"/><rect class="cls-33" x="772.74" y="479.17" width="62.2" height="75.83" rx="25.13"/><ellipse class="cls-33" cx="868.55" cy="463.77" rx="16.32" ry="16.96" transform="translate(-2.08 3.92) rotate(-0.26)"/><path class="cls-32" d="M859.68,465.81s-.48-11.54,10.78-10"/><path class="cls-33" d="M722.81,463.24c-.2,9.37,7,17.12,16,17.33s16.47-7.23,16.66-16.59-6.95-17.13-16-17.33S723,453.87,722.81,463.24Z"/><path class="cls-32" d="M747.9,466.05s1-11.51-10.36-10.48"/><path class="cls-33" d="M855.35,476.78c0,20.9-16.36,38-36.3,38l-30.59,0c-19.94,0-36.24-17.14-36.22-38.05l.08-67.12c0-20.9,16.36-38,36.3-38l30.59,0c19.94,0,36.24,17.14,36.22,38Z"/><path class="cls-31" d="M791.85,475.1a12,12,0,0,0,23.93,0Z"/><path class="cls-32" d="M803.38,435.41q-2.52,11.41-4.85,22.88c3.22.14,6.44.3,9.65.46"/><path class="cls-3" d="M776.69,442.27a4.8,4.8,0,1,1-4.88-4.93A4.92,4.92,0,0,1,776.69,442.27Z"/><path class="cls-3" d="M841.49,442.18a4.8,4.8,0,1,1-4.88-4.93A4.92,4.92,0,0,1,841.49,442.18Z"/><path class="cls-34" d="M765,432.14l13.45-.86"/><path class="cls-34" d="M829.79,430.2l14.52,3.87"/><path class="cls-3" d="M880.24,387.82c-4.48-27.76-26.14-50.2-47.17-48.72-7.09.5-9.12,3.2-9.12,3.2-3.69-4.31-9.89-7.64-18.93-7.61-15.63.05-62.84,3.28-74.62,40.19S735,443.07,735,443.07l.06-9.14c4.7,5.57,16.35,16.41,16.35,16.41l4.05-25.43s66,2.33,69.19-33.25c.1-1.2-1.92,30.91,20.45,38.55,0,0-6.35-17.29-3.59-28.07,0,0,.55,26.8,15,32.19l2.2,16.88s6.9-7.34,9.61-22.65l1,14.67S886.27,425.26,880.24,387.82Z"/><path class="cls-19" d="M661.2,691.15l12.29,123.27-22.25,214.26s65.45,3.6,92.66-86.38c15.89-52.56,19.63-105.25,18.07-140.67-5.36-121.46-12.53-259.32-12.53-259.32s-41,17.71-54.35,37.57S661.2,691.15,661.2,691.15Z"/><path class="cls-32" d="M749.4,541.41S756.61,680.17,762,801.63c1.56,35.42-2.18,88.11-18.07,140.67-27.21,90-92.66,86.38-92.66,86.38l22.25-214.26L661.2,691.15"/><path class="cls-32" d="M747.24,819.4c-2-2.59-32.5-137.36-32.5-137.36L731,678.8,712.15,575.13"/><path class="cls-19" d="M943.39,691.15,931.1,814.42l22.24,214.26s-65.44,3.6-92.65-86.38c-15.89-52.56-19.63-105.25-18.07-140.67,5.35-121.46,12.53-259.32,12.53-259.32s41,17.71,54.35,37.57S943.39,691.15,943.39,691.15Z"/><path class="cls-32" d="M855.19,541.41S848,680.17,842.62,801.63c-1.56,35.42,2.18,88.11,18.07,140.67,27.21,90,92.65,86.38,92.65,86.38L931.1,814.42l12.29-123.27"/><path class="cls-32" d="M857.35,819.4c2-2.59,32.5-137.36,32.5-137.36L873.6,678.8l18.84-103.67"/><path class="cls-20" d="M606.65,556.34s50.15,10.3,78.61,72,59.48,417.08,76.41,492.33l-347.31-11.13L555.45,576.12Z"/><path class="cls-14" d="M731.3,786.84,846.13,651.3a1.79,1.79,0,0,1,.78-.52l67.6-22.35a1.73,1.73,0,0,1,1.89,2.73L770.26,811.76Z"/><path class="cls-7" d="M764.41,751.35h0c-27.48-1.48-61,30.6-61,30.6-31.85,11.3-140.8,28.54-140.8,28.54l3.21,72.35S730.14,852.38,750,841.48c15.27-8.37,21.91-27.6,24.45-40.38l-.07-.34a80.16,80.16,0,0,0,6.31-14.65l0,0c4.73-4.72,8.7-9.18,10.61-12.22,8.1-12.88,5.77-18.92,5.77-18.92a23.05,23.05,0,0,0,4.21-5.85C805.7,738.9,798.56,732,764.41,751.35Z"/><path class="cls-35" d="M774.47,801.1c-2.54,12.78-9.18,32-24.45,40.38-19.88,10.9-184.24,41.35-184.24,41.35l-3.21-72.35s108.95-17.24,140.8-28.54c0,0,33.56-32.08,61-30.6"/><path class="cls-35" d="M753.77,824.47s18.49-11.7,26.94-38.36"/><path class="cls-35" d="M748.1,790.81s47.57-28.71,53.17-41.67-7.29-20.56-70.1,23.59"/><path class="cls-35" d="M797.06,755s2.33,6-5.77,18.92c-5.51,8.77-28.06,29.36-37,33.84"/><path class="cls-3" d="M660.3,864.2c5.05-1.06,10.09-2.13,15.08-3.2l-16.22-68c-5,1.05-10.14,2.08-15.33,3.1Z"/><path class="cls-14" d="M677.05,832.4a17.56,17.56,0,1,1-17-18.13A17.56,17.56,0,0,1,677.05,832.4Z"/><path class="cls-36" d="M673,832.27a13.5,13.5,0,1,1-13-13.94A13.51,13.51,0,0,1,673,832.27Z"/><polyline class="cls-35" points="656.68 825.2 657.82 833.01 667.81 832.1"/><path class="cls-20" d="M625.4,787.74,489,776l34.53,2.9,13.56-50.56,49.08-175.16s-67.27,18.14-121.38,69.47c-38.1,36.14-66.7,91.64-73.61,156.25-9.69,90.58,45.1,133.81,95.45,141.29,69.57,10.34,152.46-29,152.46-29Z"/><path class="cls-35" d="M392.93,831.83c11.54,56,54.17,82.44,93.68,88.31,69.57,10.34,152.46-29,152.46-29L625.4,787.74,489,776"/><line class="cls-35" x1="537.07" y1="728.29" x2="523.51" y2="778.85"/><line class="cls-35" x1="596.21" y1="798.74" x2="607.92" y2="889.46"/><path class="cls-35" d="M656.7,586.54a22.73,22.73,0,0,1-1.86,6.36c-11.31,24.9-43.86-2.56-43.86-2.56s-1.39,36.38-31.51,31.87c-21.35-3.2-41.46-26-29.31-56.57"/><path class="cls-3" d="M576.36,560.47c6.81-1.84,8.31-7.87,15.35-7.34,11.18.83,21.85,7,33,5.65,6.85-.83,13-4.45,19.79-5.92,6.08-1.32,12.51-.89,18.39-2.91,12-4.12,18.72-18.07,17.49-30.72s-8.86-23.89-18-32.72a8.31,8.31,0,0,0-2.41-1.8,10.75,10.75,0,0,0-3.8-.57c-6.4-.36-12.39-3.18-18-6.21-6.12-3.29-12.2-7-16.64-12.36-5.09-6.15-7.59-14-10.66-21.35-5.38-12.93-13.07-25.27-24.24-33.71S560.33,398,547,402.29l-9.74-6.51c-6.68,7.84-12.08,17.05-20.55,22.89-4.14,2.86-8.85,4.78-13.18,7.34a51.86,51.86,0,0,0-1.41,88.52c2.46,1.56,5.12,3,6.91,5.26,3,3.82,2,10.37,2.74,15.16,2,12.12,5.85,24.66,20.69,30.69,15.12,6.15,34.34,2.56,43.9-5.17"/><path class="cls-37" d="M558.42,463.83a22,22,0,0,1,12.92,4l-.15-13.26c-.24-21,14.68-38.39,33.14-38.6l27.77-.31c18.47-.21,33.77,16.82,34,37.84l.49,43.06c.23,21-14.68,38.39-33.15,38.59l-16.06.18.26,23.2A17.33,17.33,0,0,1,600.55,576l-11,.12A17.33,17.33,0,0,1,572.05,559l-.3-26.21v-1.46l-.3-26.21c0-.53,0-1,.08-1.56a22,22,0,1,1-13.1-39.75Z"/><path class="cls-35" d="M570.65,488.52s.81-14.91-14.47-13.08"/><path class="cls-3" d="M610.68,468.17a6.27,6.27,0,1,0,6.2-6.33A6.27,6.27,0,0,0,610.68,468.17Z"/><path class="cls-3" d="M651.66,466.8a5.35,5.35,0,1,0,5.28-5.41A5.34,5.34,0,0,0,651.66,466.8Z"/><polyline class="cls-35" points="636.64 484.88 647.67 477.99 637.78 461.61"/><line class="cls-38" x1="606.65" y1="459.55" x2="617.35" y2="455.13"/><line class="cls-38" x1="652.49" y1="455.37" x2="662.79" y2="456.77"/><path class="cls-35" d="M648.7,500.27a9.64,9.64,0,0,1-19.27.22"/><path class="cls-3" d="M673.84,408.48a83.89,83.89,0,0,0-136.58-12.7s-12.38,27.34-13.6,42.27c-1,12,12.43,28.21,17.7,34.07a22.19,22.19,0,0,1,30-4.31s1.68,1.94,3.64,4.63c1.82-1.05,3.45-2.74,5.41-3.6,2.67-1.19,5.76-.74,8.63-1.29,5.79-1.1,10-6.06,13.08-11.1a67.37,67.37,0,0,0,9.63-30.93l1.47.16c6.66,9.27,14,19.06,24.82,22.73,4.49,1.53,9.29,1.87,14,2.2l15.09,1.06c2.2.15,4.49.29,6.51-.58,2.6-1.12,4.27-3.71,5.36-6.33C683.87,433.07,680.14,419.46,673.84,408.48Z"/><path class="cls-21" d="M341.28,961.94s48.25,80.73,0,128-87.22-3.71-95.57-39,7.42-149.39,7.42-149.39S336.43,952.73,341.28,961.94Z"/><path class="cls-7" d="M162.28,509s47.55,1.43,105.4,60.19C299.92,601.89,331.43,652,352,722.68c27.68,95,41.44,175,40,240-.42,19.23-11.75,34.58-31.17,42.42-18.86,7.61-46,3-63.76-.77-43-9.21-69.43-36.17-69.43-36.17Z"/><path class="cls-4" d="M286.64,773.42c-19,5-27.6,29.87-9.49,46.49a13.88,13.88,0,0,0,4.14,2.61c14.91,6,29.13,0,35.22-11.75a26.07,26.07,0,0,0,22.68,4.59c19-5,27.61-29.87,9.48-46.49a13.75,13.75,0,0,0-4.14-2.61c-14.9-6-29.12,0-35.21,11.75A26.13,26.13,0,0,0,286.64,773.42Z"/><path class="cls-4" d="M385.93,939.51a26.15,26.15,0,1,1-7.19-32.76,25.92,25.92,0,0,1,10.2-10.6c.93,16,1.6,31.5,2.05,46.42A26.23,26.23,0,0,1,385.93,939.51Z"/><path class="cls-4" d="M300,971.85a26.11,26.11,0,0,1,29.86,37.33l-24.59-1.6s-27.69-6.28-34.46-17.25c-1.76-2.84-.62-6.41,2.4-10.09a26.11,26.11,0,0,1,10.3,4.82A26,26,0,0,1,300,971.85Z"/><path class="cls-4" d="M277,609.89a26.15,26.15,0,0,1,22.69,4.59,24.93,24.93,0,0,1,1.38-2.35c5.33,7.93,17.56,26.73,23.36,40.5a26.12,26.12,0,0,1-17.55-5.39A26.15,26.15,0,1,1,277,609.89Z"/><path class="cls-16" d="M162.28,509s119.62,4.6,188.28,209.27c27.37,81.59,39.83,166,41.39,238.47,1.9,88-133.23,39.2-133.23,39.2Z"/><path class="cls-23" d="M-4,1026s-96.72-2.65-114.25-71,67.73-200,67.73-200l74.1,86.21Z"/><path class="cls-7" d="M90.89,513.55S-2.55,521.92-55.71,637-88.59,813-73.44,840.87c11.95,22,41.88,60.76,117.81,25.66C64.85,857.07,107.9,735.12,119.61,712s3-171.67,3-171.67Z"/><path class="cls-4" d="M-20,667.83a26,26,0,0,0-16.81,12.8,26.1,26.1,0,0,0-22.56-5.15,26.08,26.08,0,0,0-16.23,11.78c-1.4,4.31-2.64,8.49-3.82,12.6a26.25,26.25,0,0,0,.67,7.12,26.19,26.19,0,0,0,31.5,19.38,26,26,0,0,0,16.82-12.8,26.1,26.1,0,0,0,22.56,5.15,26.19,26.19,0,0,0,19.38-31.5A26.2,26.2,0,0,0-20,667.83Z"/><path class="cls-4" d="M-53.74,633a25.88,25.88,0,0,0,12,0,26,26,0,0,0,16.82-12.79,26.13,26.13,0,0,0,22.56,5.15A26.19,26.19,0,0,0,17,593.82a26.19,26.19,0,0,0-31.51-19.38c-.36.09-.68.26-1,.36-.8.89-1.58,1.83-2.37,2.75l-.1,0-.51.68c-.18.2-.35.39-.52.6l.09,0c-3.81,5-18.26,24.19-21.32,29.31C-43.18,613-50,626-52.37,630.54l-.18,0C-52.95,631.32-53.34,632.14-53.74,633Z"/><path class="cls-16" d="M90.89,513.55S-2.55,521.92-55.71,637-88.59,813-73.44,840.87c11.95,22,41.88,60.76,117.81,25.66C64.85,857.07,107.9,735.12,119.61,712s3-171.67,3-171.67Z"/><path class="cls-3" d="M292.31,915.36-.33,955l-5.22,146.39c4.05,1.57,286.86,78,322.87,74.06Z"/><polygon class="cls-7" points="-18.97 783.45 -18.97 1025.97 307.17 986.84 292.22 683.48 243.37 652.66 248.07 606.54 201.16 524.79 66.72 526.44 35.94 579.55 35.81 755.02 -18.97 783.45"/><path class="cls-4" d="M148.93,786.49c-13.61,3.35-22,17.48-18.8,31.5s17,22.73,30.55,19.38A25.3,25.3,0,0,0,177,824.58a24.74,24.74,0,0,0,21.88,5.15c13.6-3.34,22-17.47,18.79-31.5s-16.94-22.72-30.55-19.38a25.32,25.32,0,0,0-16.3,12.8A24.75,24.75,0,0,0,148.93,786.49Z"/><path class="cls-4" d="M109.54,653.79c-13.6,3.34-22,17.47-18.79,31.5S107.69,708,121.3,704.67a25.32,25.32,0,0,0,16.3-12.8A24.75,24.75,0,0,0,159.48,697c13.61-3.34,22-17.48,18.8-31.5s-16.95-22.72-30.55-19.38a25.33,25.33,0,0,0-16.31,12.79A24.74,24.74,0,0,0,109.54,653.79Z"/><path class="cls-4" d="M181.31,555c-13.6,3.34-22,17.47-18.79,31.5s16.94,22.72,30.55,19.38a25.32,25.32,0,0,0,16.3-12.8,24.75,24.75,0,0,0,21.88,5.16c13.6-3.35,22-17.48,18.8-31.5s-17-22.73-30.56-19.38a25.3,25.3,0,0,0-16.3,12.79A24.74,24.74,0,0,0,181.31,555Z"/><path class="cls-4" d="M163.59,941.24c-13.61,3.35-22,17.48-18.8,31.5s17,22.73,30.55,19.38a25.32,25.32,0,0,0,16.31-12.79,24.74,24.74,0,0,0,21.88,5.15c13.6-3.34,22-17.47,18.79-31.5s-16.94-22.72-30.55-19.38a25.32,25.32,0,0,0-16.3,12.8A24.75,24.75,0,0,0,163.59,941.24Z"/><path class="cls-4" d="M52.89,889c-13.6,3.35-22,17.48-18.79,31.5S51,943.19,64.65,939.84A25.3,25.3,0,0,0,81,927.05a24.74,24.74,0,0,0,21.88,5.15c13.61-3.34,22-17.47,18.8-31.5S104.68,878,91.08,881.32a25.31,25.31,0,0,0-16.31,12.8A24.78,24.78,0,0,0,52.89,889Z"/><path class="cls-4" d="M40.72,554.24h0l3,49.46a25.63,25.63,0,0,0,2.56-.49,25.34,25.34,0,0,0,16.31-12.79,24.74,24.74,0,0,0,21.88,5.15c13.6-3.34,22-17.47,18.79-31.5s-17-22.72-30.55-19.38a25.36,25.36,0,0,0-16.31,12.8,25.17,25.17,0,0,0-5.63-3.58h0a24.82,24.82,0,0,0-10.24-2.28Z"/><path class="cls-4" d="M-19,951.76v47.36a24.66,24.66,0,0,0,16.61,1.77c13.6-3.35,22-17.48,18.79-31.5S-.52,946.67-14.12,950A24.59,24.59,0,0,0-19,951.76Z"/><path class="cls-4" d="M223.43,733.08c3.24,14,16.95,22.73,30.55,19.38a25.34,25.34,0,0,0,16.31-12.79,24.73,24.73,0,0,0,21.88,5.15,24.33,24.33,0,0,0,3-1l-.14-2.81h0L292.89,697l-.14-2.86a24.52,24.52,0,0,0-12.34-.16,25.36,25.36,0,0,0-16.31,12.8,24.74,24.74,0,0,0-21.88-5.16C228.62,704.92,220.19,719.06,223.43,733.08Z"/><path class="cls-4" d="M235.89,870.12c3.25,14,17,22.72,30.55,19.38a25.31,25.31,0,0,0,16.31-12.8A24.75,24.75,0,0,0,302,882.33l-.13-2.63L299.59,833l-.13-2.69a24.39,24.39,0,0,0-6.59.68,25.3,25.3,0,0,0-16.3,12.79,24.74,24.74,0,0,0-21.88-5.15C241.08,842,232.65,856.09,235.89,870.12Z"/><polyline class="cls-16" points="-18.97 783.45 -18.97 1025.97 307.17 986.84 292.22 683.48"/><path class="cls-21" d="M-19,1044.9l326.14-58.06L305.6,955C234.69,967.66,51.5,1002.44-19,1015Z"/><path class="cls-23" d="M80.17,677.93C74.3,600.73,63.43,551.58,54.4,522.61c-11.49,3.17-24.06,7.83-37,20.6C34,618.87,55.5,796.13-50.49,877.06c4,11.68,10.15,29.05,31.52,26.69C21.12,863.46,87.27,771.35,80.17,677.93Z"/><path class="cls-7" d="M-45.51,773.54S-26,742.25,9,745.05,95,791.52,61.9,847.53C45.31,875.58,4,888.88-29.76,878.18a45,45,0,0,1-17.83-9.89c-3.32-3.11-7.77-6-10.75-10.51-5.89-8.84-8.31-22.46-8.23-37C-66.44,794.76-45.51,773.54-45.51,773.54Z"/><path class="cls-4" d="M-16.15,763.38a26.18,26.18,0,0,0-19.38,31.5A26.19,26.19,0,0,0-4,814.26a26,26,0,0,0,16.81-12.8,26.17,26.17,0,1,0-6.37-32.93A26.1,26.1,0,0,0-16.15,763.38Z"/><path class="cls-4" d="M71.12,824.62c.18-.85.39-1.7.54-2.54a26.09,26.09,0,0,0-32.19,31.29,25.86,25.86,0,0,0,6.4,11.83c.72-.54,1.39-1.13,2.09-1.7-2.07-2.16,11.59-4.93,19-25.5C68.45,833.75,70.14,824.35,71.12,824.62Z"/><path class="cls-16" d="M-45.43,773.69S-25.91,742.39,9,745.2,95.08,791.67,62,847.68C42.25,881-12.82,893.77-48.11,869.88"/><path class="cls-7" d="M13.23,773.86c5,6.83,14.65,17.1,25.72,20.43,16.4,4.94,42.59-9.73,59.93-29.23s25.94-44.8,20.21-59.68c0,0-2.29-6.93-6.59-9.84h0c-.09-12.4-8.55-20.76-13.16-23.18h0c-2.56-7.12-6.13-10.27-9.85-10.92l-.09-1c-1.91-7.33-10.14-7.78-10.14-7.78C72,673.9,48.33,690.77,38.83,696.86l-.82,0s-1.25-45.07-19.3-35.31c-11.5,6.22-4.41,73.15-4.41,73.15a157.35,157.35,0,0,1-4.21,21.78C8.57,762.61,10.84,770.57,13.23,773.86Z"/><path class="cls-16" d="M38,696.88s-1.25-45.07-19.3-35.31c-11.5,6.22-4.41,73.15-4.41,73.15a157.35,157.35,0,0,1-4.21,21.78c-1.52,6.11.75,14.07,3.14,17.36,5,6.83,14.65,17.1,25.72,20.43,16.4,4.94,42.59-9.73,59.93-29.23s25.94-44.8,20.21-59.68c0,0-2.29-6.93-6.59-9.84"/><path class="cls-16" d="M34.81,699.32s35.27-19.87,44.43-46.61c0,0,11-1.88,11.47,17.61s-12.54,35.06-12.54,35.06"/><path class="cls-16" d="M95.54,710.82s5.53-15.18,5.69-26.87-3.8-21.61-11.76-22.5"/><path class="cls-16" d="M105.8,725.11s5.86-14.33,6.65-27.74-7.71-22.14-12.54-24.68"/><path class="cls-3" d="M116.54,305.51c-24.46,12.15-38.86,41.1-35.81,71.87,4.21,42.44,41.18,74,41.18,74l2.58-70.63,4.07-2.16Z"/><path class="cls-21" d="M107,391.15a24.52,24.52,0,0,1,14.34,4.54l0-14.76c-.09-23.39,16.65-42.59,37.19-42.66l30.9-.12c20.54-.07,37.42,19,37.51,42.39l.18,47.9c.08,23.39-16.65,42.59-37.2,42.66l-17.86.07.09,25.8a19.29,19.29,0,0,1-19.16,19.31l-12.26.05a19.3,19.3,0,0,1-19.31-19.17L121.24,468v-1.62l-.11-29.16c0-.59.05-1.16.1-1.73A24.47,24.47,0,1,1,107,391.15Z"/><path class="cls-16" d="M118.78,418.8s1-16.58-16-14.68"/><path class="cls-3" d="M106.73,323.47c1-1.06,2.16-2,3.26-3l-3.81-8.34a58.16,58.16,0,0,1,42.14-12.38c78.73-27.66,108,47.15,80.09,67.39-8.24,6-49.17,9-65.19-7a115.41,115.41,0,0,1-5.11,12.6c-5.28,11.33-16.88,19.34-26,24.15L138.71,428s38.17-9.26,61.62-9.08,26.72,9.49,26.72,9.49-.2,32.1-24.43,40c-20.54,6.73-30.63,2.7-30.63,2.7s-25.94-6.7-38.4-20.33a59.81,59.81,0,0,1-10.86-15.49l-1.09-37.57c-.92-.7-1.58-1.19-2.41-1.77,0,0-5.71-4.86-12-4.86a26.39,26.39,0,0,0-15.77,5.54C84.58,383.43,83.74,346.84,106.73,323.47Z"/><polyline class="cls-16" points="193.83 415.23 206.16 407.65 195.29 389.34"/><line class="cls-18" x1="160.68" y1="386.79" x2="172.61" y2="381.96"/><line class="cls-18" x1="211.71" y1="382.52" x2="223.16" y2="384.17"/><path class="cls-3" d="M166.2,397.22a5.51,5.51,0,1,0,5.51-5.51A5.51,5.51,0,0,0,166.2,397.22Z"/><path class="cls-3" d="M212.37,395.57a4.72,4.72,0,1,0,4.72-4.72A4.72,4.72,0,0,0,212.37,395.57Z"/><path class="cls-7" d="M207.12,432.44a10.72,10.72,0,0,1-21.44.08Z"/><path class="cls-4" d="M109.55,533.49l73.33-1.6c11.9-.26,21.34-9.87,21.07-21.46l-.31-13.25c-.26-11.59-10.13-20.77-22-20.51l-73.33,1.6c-11.9.26-21.34,9.86-21.07,21.45L87.52,513C87.78,524.56,97.65,533.75,109.55,533.49Z"/><polygon class="cls-7" points="115.97 533.35 110.9 533.46 110.9 478.21 115.97 478.1 115.97 533.35"/><polygon class="cls-7" points="132.14 533 127.07 533.11 127.07 477.86 132.14 477.75 132.14 533"/><path class="cls-7" d="M99.8,531.36a21.64,21.64,0,0,1-5.07-3.26V483.45a21.71,21.71,0,0,1,5.07-3.28Z"/><polygon class="cls-7" points="180.65 531.94 175.58 532.05 175.58 476.8 180.65 476.69 180.65 531.94"/><polygon class="cls-7" points="148.31 532.64 143.24 532.75 143.24 477.51 148.31 477.4 148.31 532.64"/><path class="cls-7" d="M196.82,526.39a21.56,21.56,0,0,1-5.07,3.38V479a22,22,0,0,1,5.07,3.36Z"/><polygon class="cls-7" points="164.48 532.29 159.41 532.4 159.41 477.15 164.48 477.04 164.48 532.29"/><line class="cls-16" x1="100.16" y1="532.95" x2="189.76" y2="531.97"/></g></svg>