<?xml version="1.0" encoding="utf-8"?>
<!-- Generator: Adobe Illustrator 25.3.1, SVG Export Plug-In . SVG Version: 6.00 Build 0)  -->
<svg version="1.1" id="Layer_1" xmlns="http://www.w3.org/2000/svg" xmlns:xlink="http://www.w3.org/1999/xlink" x="0px" y="0px"
	 viewBox="0 0 800 800" style="enable-background:new 0 0 800 800;" xml:space="preserve">
<style type="text/css">
	.st0{fill:#4F7CAD;}
	.st1{fill:#88BD24;}
	.st2{fill:#5059A4;}
	.st3{fill:#08909F;}
	.st4{fill:#46B593;}
	.st5{fill:#0FA0C0;}
	.st6{fill:#1B232E;}
	.st7{clip-path:url(#SVGID_2_);}
	.st8{fill:#E8E8F0;}
	.st9{fill:#C5C1D2;}
	.st10{fill:none;stroke:#C5C1D2;stroke-width:2.8481;stroke-miterlimit:10;}
	.st11{fill:#1C1D3E;}
	.st12{fill:#FFFFFF;}
	.st13{fill:#505EA8;}
	.st14{fill:none;stroke:#1C1D3E;stroke-width:2.1361;stroke-linecap:round;stroke-linejoin:round;stroke-miterlimit:10;}
	.st15{fill:#FFFFFF;stroke:#1C1D3E;stroke-width:2.1361;stroke-miterlimit:10;}
	.st16{fill:none;stroke:#1C1D3E;stroke-width:2.8481;stroke-linecap:round;stroke-linejoin:round;stroke-miterlimit:10;}
	.st17{fill:#F6CB40;}
	.st18{fill:#FFFFFF;stroke:#1C1D3E;stroke-width:2.1361;stroke-linecap:round;stroke-linejoin:round;stroke-miterlimit:10;}
	.st19{fill:#1C1D3E;stroke:#1C1D3E;stroke-width:2.1361;stroke-linecap:round;stroke-linejoin:round;stroke-miterlimit:10;}
	.st20{clip-path:url(#SVGID_4_);}
	.st21{clip-path:url(#SVGID_6_);}
	.st22{fill-rule:evenodd;clip-rule:evenodd;fill:none;}
	.st23{fill:none;stroke:#1C1D3E;stroke-width:1.9248;stroke-linecap:round;stroke-linejoin:round;stroke-miterlimit:10;}
	.st24{fill:#FFFFFF;stroke:#1C1D3E;stroke-width:1.9248;stroke-linecap:round;stroke-linejoin:round;stroke-miterlimit:10;}
	.st25{fill:#FFFFFF;stroke:#1C1D3E;stroke-width:1.9248;stroke-miterlimit:10;}
	.st26{fill:none;stroke:#1C1D3E;stroke-width:3.8495;stroke-linecap:round;stroke-linejoin:round;stroke-miterlimit:10;}
	.st27{fill:none;stroke:#1C1D3E;stroke-width:1.7019;stroke-linecap:round;stroke-linejoin:round;stroke-miterlimit:10;}
	.st28{fill:#FFFFFF;stroke:#1C1D3E;stroke-width:1.7019;stroke-linecap:round;stroke-linejoin:round;stroke-miterlimit:10;}
	.st29{fill:#1C1D3E;stroke:#1C1D3E;stroke-width:1.7019;stroke-linecap:round;stroke-linejoin:round;stroke-miterlimit:10;}
	.st30{fill:#1C1D3E;stroke:#1C1D3E;stroke-width:1.7019;stroke-miterlimit:10;}
	.st31{fill:#FFFFFF;stroke:#1C1D3E;stroke-width:1.7019;stroke-miterlimit:10;}
	.st32{fill:none;stroke:#1C1D3E;stroke-width:3.4037;stroke-linecap:round;stroke-linejoin:round;stroke-miterlimit:10;}
	.st33{fill:#FFFFFF;stroke:#1C1D3E;stroke-width:2.1261;stroke-linecap:round;stroke-linejoin:round;stroke-miterlimit:10;}
	.st34{fill:none;stroke:#1C1D3E;stroke-width:2.1261;stroke-linecap:round;stroke-linejoin:round;stroke-miterlimit:10;}
	.st35{fill:#1C1D3E;stroke:#1C1D3E;stroke-width:2.1261;stroke-linecap:round;stroke-linejoin:round;stroke-miterlimit:10;}
	.st36{fill:#FFFFFF;stroke:#1C1D3E;stroke-width:1.3878;stroke-linecap:round;stroke-linejoin:round;stroke-miterlimit:10;}
	.st37{fill:none;stroke:#1C1D3E;stroke-width:1.3878;stroke-linecap:round;stroke-linejoin:round;stroke-miterlimit:10;}
	.st38{fill:#1C1D3E;stroke:#1C1D3E;stroke-width:1.3878;stroke-linecap:round;stroke-linejoin:round;stroke-miterlimit:10;}
	.st39{fill:#FFFFFF;stroke:#1C1D3E;stroke-width:1.3878;stroke-miterlimit:10;}
	.st40{fill:none;stroke:#1C1D3E;stroke-width:1.8504;stroke-linecap:round;stroke-linejoin:round;stroke-miterlimit:10;}
	.st41{fill:#C6C3E3;}
	.st42{fill:#898DC5;}
	.st43{fill:#936037;}
	.st44{fill:#662483;}
	.st45{fill:none;stroke:#1C1D3E;stroke-width:1.4923;stroke-linecap:round;stroke-linejoin:round;stroke-miterlimit:10;}
	.st46{fill:#95C11F;}
	.st47{fill:#FFFFFF;stroke:#1C1D3E;stroke-width:1.4923;stroke-miterlimit:10;}
	.st48{fill:none;stroke:#1C1D3E;stroke-width:1.9897;stroke-linecap:round;stroke-linejoin:round;stroke-miterlimit:10;}
	.st49{fill:#D60B52;}
	.st50{fill:#FFFFFF;stroke:#1C1D3E;stroke-width:1.2709;stroke-linecap:round;stroke-linejoin:round;stroke-miterlimit:10;}
	.st51{fill:none;stroke:#1C1D3E;stroke-width:1.2709;stroke-linecap:round;stroke-linejoin:round;stroke-miterlimit:10;}
	.st52{fill:#FFFFFF;stroke:#1C1D3E;stroke-width:1.2709;stroke-miterlimit:10;}
	.st53{fill:none;stroke:#1C1D3E;stroke-width:2.5417;stroke-linecap:round;stroke-linejoin:round;stroke-miterlimit:10;}
	.st54{clip-path:url(#SVGID_8_);}
	.st55{opacity:0.4;fill:#E8E8F0;}
	.st56{clip-path:url(#SVGID_8_);fill-rule:evenodd;clip-rule:evenodd;fill:none;}
	.st57{clip-path:url(#SVGID_10_);}
	.st58{fill:#634E42;}
	.st59{clip-path:url(#SVGID_12_);}
	.st60{fill:#00A19A;}
	.st61{fill:#BE1622;}
	.st62{fill:#FFFFFF;stroke:#1C1D3E;stroke-width:2.1323;stroke-miterlimit:10;}
	.st63{fill:#FFFFFF;stroke:#1C1D3E;stroke-width:2.1323;stroke-linecap:round;stroke-linejoin:round;stroke-miterlimit:10;}
	.st64{fill:none;stroke:#1C1D3E;stroke-width:2.1323;stroke-linecap:round;stroke-linejoin:round;stroke-miterlimit:10;}
	.st65{fill:none;stroke:#1C1D3E;stroke-width:2.1323;stroke-miterlimit:10;}
	.st66{fill:#FFFFFF;stroke:#1C1D3E;stroke-width:2.0273;stroke-linecap:round;stroke-linejoin:round;stroke-miterlimit:10;}
	.st67{fill:none;stroke:#1C1D3E;stroke-width:2.0273;stroke-linecap:round;stroke-linejoin:round;stroke-miterlimit:10;}
	.st68{fill:#FFFFFF;stroke:#1C1D3E;stroke-width:2.0273;stroke-miterlimit:10;}
	.st69{fill:none;stroke:#1C1D3E;stroke-width:4.0546;stroke-linecap:round;stroke-miterlimit:10;}
	.st70{clip-path:url(#SVGID_14_);}
	.st71{clip-path:url(#SVGID_14_);fill-rule:evenodd;clip-rule:evenodd;fill:none;}
	.st72{fill:#FFFFFF;stroke:#1C1D3E;stroke-width:2.4986;stroke-linecap:round;stroke-linejoin:round;stroke-miterlimit:10;}
	.st73{fill:none;stroke:#1C1D3E;stroke-width:2.4986;stroke-linecap:round;stroke-linejoin:round;stroke-miterlimit:10;}
	.st74{fill:#E71D73;}
	.st75{fill:none;stroke:#1C1D3E;stroke-width:2.4986;stroke-miterlimit:10;}
	.st76{opacity:0.4;clip-path:url(#SVGID_16_);}
	.st77{clip-path:url(#SVGID_16_);}
	.st78{clip-path:url(#SVGID_16_);fill-rule:evenodd;clip-rule:evenodd;fill:none;}
	.st79{fill:#951B81;}
	.st80{fill:none;stroke:#1C1D3E;stroke-width:2.3285;stroke-linecap:round;stroke-linejoin:round;stroke-miterlimit:10;}
	.st81{fill:#FFFFFF;stroke:#1C1D3E;stroke-width:2.3285;stroke-miterlimit:10;}
	.st82{fill:#FFFFFF;stroke:#1C1D3E;stroke-width:2.3285;stroke-linecap:round;stroke-linejoin:round;stroke-miterlimit:10;}
	.st83{fill:none;stroke:#1C1D3E;stroke-width:3.1046;stroke-linecap:round;stroke-linejoin:round;stroke-miterlimit:10;}
	
		.st84{clip-path:url(#SVGID_16_);fill:#FFFFFF;stroke:#1C1D3E;stroke-width:2.1361;stroke-linecap:round;stroke-linejoin:round;stroke-miterlimit:10;}
	.st85{fill:none;stroke:#1C1D3E;stroke-width:4.0546;stroke-linecap:round;stroke-linejoin:round;stroke-miterlimit:10;}
	.st86{clip-path:url(#SVGID_18_);}
	.st87{clip-path:url(#SVGID_18_);fill-rule:evenodd;clip-rule:evenodd;fill:none;}
	.st88{clip-path:url(#SVGID_20_);}
	.st89{clip-path:url(#SVGID_20_);fill-rule:evenodd;clip-rule:evenodd;fill:none;}
	.st90{fill:#FFFFFF;stroke:#1C1D3E;stroke-width:1.9392;stroke-linecap:round;stroke-linejoin:round;stroke-miterlimit:10;}
	.st91{fill:none;stroke:#1C1D3E;stroke-width:1.9392;stroke-linecap:round;stroke-linejoin:round;stroke-miterlimit:10;}
	.st92{fill:#82368C;}
	.st93{fill:none;stroke:#C5C1D2;stroke-width:11.6354;stroke-linecap:round;stroke-linejoin:round;stroke-miterlimit:10;}
	.st94{fill:#FFFFFF;stroke:#1C1D3E;stroke-width:1.9392;stroke-miterlimit:10;}
	.st95{opacity:0.4;clip-path:url(#SVGID_22_);}
	.st96{clip-path:url(#SVGID_22_);}
	.st97{clip-path:url(#SVGID_22_);fill-rule:evenodd;clip-rule:evenodd;fill:none;}
	.st98{opacity:0.4;clip-path:url(#SVGID_24_);}
	.st99{clip-path:url(#SVGID_24_);}
	.st100{fill:#FFDE00;}
	.st101{fill:#FFFFFF;stroke:#1C1D3E;stroke-width:2.4881;stroke-linecap:round;stroke-linejoin:round;stroke-miterlimit:10;}
	.st102{fill:#1C1D3E;stroke:#1C1D3E;stroke-width:2.047;stroke-linecap:round;stroke-linejoin:round;stroke-miterlimit:10;}
	.st103{clip-path:url(#SVGID_26_);fill:#505EA8;}
	.st104{clip-path:url(#SVGID_28_);fill:#505EA8;}
	.st105{clip-path:url(#SVGID_30_);fill:#505EA8;}
	.st106{clip-path:url(#SVGID_32_);fill:#505EA8;}
	.st107{clip-path:url(#SVGID_34_);fill:#505EA8;}
	.st108{clip-path:url(#SVGID_36_);fill:#505EA8;}
	.st109{clip-path:url(#SVGID_38_);fill:#505EA8;}
	.st110{fill:#FFFFFF;stroke:#1C1D3E;stroke-width:1.8385;stroke-linecap:round;stroke-linejoin:round;stroke-miterlimit:10;}
	.st111{fill:none;stroke:#1C1D3E;stroke-width:1.8385;stroke-linecap:round;stroke-linejoin:round;stroke-miterlimit:10;}
	.st112{fill:#FFFFFF;stroke:#1C1D3E;stroke-width:2.1779;stroke-miterlimit:10;}
	.st113{fill:#FFFFFF;stroke:#1C1D3E;stroke-width:2.1779;stroke-linecap:round;stroke-linejoin:round;stroke-miterlimit:10;}
	.st114{fill:none;stroke:#1C1D3E;stroke-width:2.1779;stroke-linecap:round;stroke-linejoin:round;stroke-miterlimit:10;}
	.st115{fill:none;stroke:#1C1D3E;stroke-width:2.1779;stroke-miterlimit:10;}
	.st116{fill:#00A19A;stroke:#1C1D3E;stroke-width:2.1799;stroke-linecap:round;stroke-linejoin:round;stroke-miterlimit:10;}
	.st117{opacity:0.4;clip-path:url(#SVGID_40_);}
	.st118{clip-path:url(#SVGID_40_);}
	.st119{clip-path:url(#SVGID_40_);fill-rule:evenodd;clip-rule:evenodd;fill:none;}
	.st120{fill:#00A19A;stroke:#1C1D3E;stroke-width:1.3063;stroke-linecap:round;stroke-linejoin:round;stroke-miterlimit:10;}
	.st121{fill:#F6CB40;stroke:#000000;stroke-width:0.8783;stroke-miterlimit:10;}
	.st122{fill:#E17A5F;stroke:#1C1D3E;stroke-width:1.3063;stroke-linecap:round;stroke-linejoin:round;stroke-miterlimit:10;}
	.st123{fill:#E17A5F;stroke:#1C1D3E;stroke-width:1.4249;stroke-linecap:round;stroke-linejoin:round;stroke-miterlimit:10;}
	.st124{fill:#E17A5F;stroke:#1C1D3E;stroke-width:1.0713;stroke-linecap:round;stroke-linejoin:round;stroke-miterlimit:10;}
	.st125{fill:#00A19A;stroke:#1C1D3E;stroke-width:0.7125;stroke-linecap:round;stroke-linejoin:round;stroke-miterlimit:10;}
	.st126{fill:#E17A5F;stroke:#1C1D3E;stroke-width:0.8783;stroke-linecap:round;stroke-linejoin:round;stroke-miterlimit:10;}
	
		.st127{clip-path:url(#SVGID_40_);fill:#E6007E;stroke:#1C1D3E;stroke-width:0.8709;stroke-linecap:round;stroke-linejoin:round;stroke-miterlimit:10;}
	.st128{fill:#0381A7;}
	.st129{fill:#F2CC8E;}
	.st130{clip-path:url(#SVGID_40_);fill:#F39200;}
	.st131{clip-path:url(#SVGID_40_);fill:#2A9D8F;}
	.st132{clip-path:url(#SVGID_40_);fill:#662483;}
	.st133{fill:#263239;}
	.st134{opacity:0.3;}
	.st135{fill:#010202;}
	.st136{fill:#EBEBEB;}
	.st137{fill:#F5F4F5;}
	.st138{fill:#EE7160;}
	.st139{fill:#FBFBFB;}
	.st140{fill:none;}
	.st141{fill:#263239;stroke:#1D1E1B;stroke-miterlimit:10;}
	.st142{fill:#F6F6F6;stroke:#1D1E1B;stroke-miterlimit:10;}
	.st143{clip-path:url(#SVGID_42_);}
	.st144{opacity:0.4;}
	.st145{fill:#F5A261;}
	.st146{fill:none;stroke:#1C1D3E;stroke-width:1.0921;stroke-linecap:round;stroke-linejoin:round;stroke-miterlimit:10;}
	.st147{fill:#FFFFFF;stroke:#1C1D3E;stroke-width:1.0921;stroke-miterlimit:10;}
	.st148{fill:none;stroke:#1C1D3E;stroke-width:1.4562;stroke-linecap:round;stroke-linejoin:round;stroke-miterlimit:10;}
	.st149{fill:#FFFFFF;stroke:#1C1D3E;stroke-width:1.0405;stroke-linecap:round;stroke-linejoin:round;stroke-miterlimit:10;}
	.st150{fill:none;stroke:#1C1D3E;stroke-width:1.0405;stroke-linecap:round;stroke-linejoin:round;stroke-miterlimit:10;}
	.st151{fill:#FFFFFF;stroke:#1C1D3E;stroke-width:1.2228;stroke-linecap:round;stroke-linejoin:round;stroke-miterlimit:10;}
	.st152{fill:none;stroke:#1C1D3E;stroke-width:1.2228;stroke-linecap:round;stroke-linejoin:round;stroke-miterlimit:10;}
	.st153{fill:none;stroke:#1C1D3E;stroke-width:1.2228;stroke-miterlimit:10;}
	.st154{fill:#FFFFFF;stroke:#1C1D3E;stroke-width:0.9301;stroke-linecap:round;stroke-linejoin:round;stroke-miterlimit:10;}
	.st155{fill:none;stroke:#1C1D3E;stroke-width:0.9301;stroke-linecap:round;stroke-linejoin:round;stroke-miterlimit:10;}
	.st156{fill:#FFFFFF;stroke:#1C1D3E;stroke-width:0.9301;stroke-miterlimit:10;}
	.st157{fill:none;stroke:#1C1D3E;stroke-width:1.8602;stroke-linecap:round;stroke-linejoin:round;stroke-miterlimit:10;}
	.st158{clip-path:url(#SVGID_42_);fill-rule:evenodd;clip-rule:evenodd;fill:none;}
	.st159{fill:#FFFFFF;stroke:#1C1D3E;stroke-width:0.9016;stroke-linecap:round;stroke-linejoin:round;stroke-miterlimit:10;}
	.st160{fill:none;stroke:#1C1D3E;stroke-width:0.9016;stroke-linecap:round;stroke-linejoin:round;stroke-miterlimit:10;}
	.st161{fill:none;stroke:#C5C1D2;stroke-width:5.4093;stroke-linecap:round;stroke-linejoin:round;stroke-miterlimit:10;}
	.st162{fill:#FFFFFF;stroke:#1C1D3E;stroke-width:0.9016;stroke-miterlimit:10;}
	.st163{fill:none;stroke:#1C1D3E;stroke-width:0.7255;stroke-linecap:round;stroke-linejoin:round;stroke-miterlimit:10;}
	.st164{fill:#FFFFFF;stroke:#1C1D3E;stroke-width:0.7255;stroke-linecap:round;stroke-linejoin:round;stroke-miterlimit:10;}
	.st165{fill:#FFFFFF;stroke:#1C1D3E;stroke-width:0.7255;stroke-miterlimit:10;}
	.st166{fill:none;stroke:#1C1D3E;stroke-width:1.4509;stroke-linecap:round;stroke-linejoin:round;stroke-miterlimit:10;}
	.st167{clip-path:url(#SVGID_44_);}
	.st168{fill:none;stroke:#1C1D3E;stroke-width:0.9105;stroke-linecap:round;stroke-linejoin:round;stroke-miterlimit:10;}
	.st169{fill:#FFFFFF;stroke:#1C1D3E;stroke-width:0.9105;stroke-miterlimit:10;}
	.st170{fill:none;stroke:#1C1D3E;stroke-width:1.2141;stroke-linecap:round;stroke-linejoin:round;stroke-miterlimit:10;}
	.st171{fill:#FFFFFF;stroke:#1C1D3E;stroke-width:0.9105;stroke-linecap:round;stroke-linejoin:round;stroke-miterlimit:10;}
	.st172{fill:#1C1D3E;stroke:#1C1D3E;stroke-width:0.9105;stroke-linecap:round;stroke-linejoin:round;stroke-miterlimit:10;}
	.st173{fill:#FFFFFF;stroke:#1C1D3E;stroke-width:0.9063;stroke-linecap:round;stroke-linejoin:round;stroke-miterlimit:10;}
	.st174{fill:none;stroke:#1C1D3E;stroke-width:0.9063;stroke-linecap:round;stroke-linejoin:round;stroke-miterlimit:10;}
	.st175{fill:#1C1D3E;stroke:#1C1D3E;stroke-width:0.9063;stroke-linecap:round;stroke-linejoin:round;stroke-miterlimit:10;}
	.st176{fill:#FFFFFF;stroke:#1C1D3E;stroke-width:0.9089;stroke-miterlimit:10;}
	.st177{fill:#FFFFFF;stroke:#1C1D3E;stroke-width:0.9089;stroke-linecap:round;stroke-linejoin:round;stroke-miterlimit:10;}
	.st178{fill:none;stroke:#1C1D3E;stroke-width:0.9089;stroke-linecap:round;stroke-linejoin:round;stroke-miterlimit:10;}
	.st179{fill:none;stroke:#1C1D3E;stroke-width:0.9089;stroke-miterlimit:10;}
	.st180{fill:#FFFFFF;stroke:#1C1D3E;stroke-width:0.8642;stroke-linecap:round;stroke-linejoin:round;stroke-miterlimit:10;}
	.st181{fill:none;stroke:#1C1D3E;stroke-width:0.8642;stroke-linecap:round;stroke-linejoin:round;stroke-miterlimit:10;}
	.st182{fill:#FFFFFF;stroke:#1C1D3E;stroke-width:0.8642;stroke-miterlimit:10;}
	.st183{fill:none;stroke:#1C1D3E;stroke-width:1.7284;stroke-linecap:round;stroke-miterlimit:10;}
	.st184{fill:none;stroke:#1C1D3E;stroke-width:0.8205;stroke-linecap:round;stroke-linejoin:round;stroke-miterlimit:10;}
	.st185{fill:#FFFFFF;stroke:#1C1D3E;stroke-width:0.8205;stroke-linecap:round;stroke-linejoin:round;stroke-miterlimit:10;}
	.st186{fill:#FFFFFF;stroke:#1C1D3E;stroke-width:0.8205;stroke-miterlimit:10;}
	.st187{fill:none;stroke:#1C1D3E;stroke-width:1.641;stroke-linecap:round;stroke-linejoin:round;stroke-miterlimit:10;}
	.st188{opacity:0.4;clip-path:url(#SVGID_46_);}
	.st189{clip-path:url(#SVGID_46_);}
	.st190{clip-path:url(#SVGID_46_);fill-rule:evenodd;clip-rule:evenodd;fill:none;}
	.st191{fill:#F39200;}
	.st192{fill:#D2CFE9;}
	.st193{clip-path:url(#SVGID_46_);fill:none;stroke:#000000;stroke-width:2;stroke-miterlimit:10;}
	.st194{opacity:0.4;clip-path:url(#SVGID_48_);}
	.st195{clip-path:url(#SVGID_48_);}
	.st196{clip-path:url(#SVGID_48_);fill-rule:evenodd;clip-rule:evenodd;fill:none;}
	.st197{fill:#FFFFFF;stroke:#1C1D3E;stroke-width:2.0557;stroke-linecap:round;stroke-linejoin:round;stroke-miterlimit:10;}
	.st198{fill:none;stroke:#1C1D3E;stroke-width:2.0557;stroke-linecap:round;stroke-linejoin:round;stroke-miterlimit:10;}
	.st199{fill:none;stroke:#C5C1D2;stroke-width:12.3343;stroke-linecap:round;stroke-linejoin:round;stroke-miterlimit:10;}
	.st200{fill:#FFFFFF;stroke:#1C1D3E;stroke-width:2.0557;stroke-miterlimit:10;}
	.st201{opacity:0.4;clip-path:url(#SVGID_50_);}
	.st202{clip-path:url(#SVGID_50_);}
	.st203{clip-path:url(#SVGID_50_);fill-rule:evenodd;clip-rule:evenodd;fill:none;}
	.st204{fill:none;stroke:#1C1D3E;stroke-width:1.0785;stroke-linecap:round;stroke-linejoin:round;stroke-miterlimit:10;}
	.st205{fill:#FFFFFF;stroke:#1C1D3E;stroke-width:1.0785;stroke-linecap:round;stroke-linejoin:round;stroke-miterlimit:10;}
	.st206{fill:#1C1D3E;stroke:#1C1D3E;stroke-width:1.0785;stroke-linecap:round;stroke-linejoin:round;stroke-miterlimit:10;}
	.st207{fill:#1C1D3E;stroke:#1C1D3E;stroke-width:1.0785;stroke-miterlimit:10;}
	.st208{fill:#FFFFFF;stroke:#1C1D3E;stroke-width:1.0785;stroke-miterlimit:10;}
	.st209{fill:none;stroke:#1C1D3E;stroke-width:2.157;stroke-linecap:round;stroke-linejoin:round;stroke-miterlimit:10;}
	.st210{fill:#FFFFFF;stroke:#1C1D3E;stroke-width:1.3474;stroke-linecap:round;stroke-linejoin:round;stroke-miterlimit:10;}
	.st211{fill:none;stroke:#1C1D3E;stroke-width:1.3474;stroke-linecap:round;stroke-linejoin:round;stroke-miterlimit:10;}
	.st212{fill:#1C1D3E;stroke:#1C1D3E;stroke-width:1.3474;stroke-linecap:round;stroke-linejoin:round;stroke-miterlimit:10;}
	.st213{fill:none;stroke:#1C1D3E;stroke-width:1.5045;stroke-linecap:round;stroke-linejoin:round;stroke-miterlimit:10;}
	.st214{fill:#FFFFFF;stroke:#1C1D3E;stroke-width:1.5045;stroke-miterlimit:10;}
	.st215{fill:#FFFFFF;stroke:#1C1D3E;stroke-width:1.5045;stroke-linecap:round;stroke-linejoin:round;stroke-miterlimit:10;}
	.st216{fill:none;stroke:#1C1D3E;stroke-width:2.0061;stroke-linecap:round;stroke-linejoin:round;stroke-miterlimit:10;}
	.st217{fill:#FFFFFF;stroke:#1C1D3E;stroke-width:1.3027;stroke-linecap:round;stroke-linejoin:round;stroke-miterlimit:10;}
	.st218{fill:none;stroke:#1C1D3E;stroke-width:1.3027;stroke-linecap:round;stroke-linejoin:round;stroke-miterlimit:10;}
	.st219{fill:none;stroke:#C5C1D2;stroke-width:7.8165;stroke-linecap:round;stroke-linejoin:round;stroke-miterlimit:10;}
	.st220{fill:#FFFFFF;stroke:#1C1D3E;stroke-width:1.3027;stroke-miterlimit:10;}
	.st221{clip-path:url(#SVGID_50_);fill:#E8E8F0;}
	.st222{clip-path:url(#SVGID_50_);fill:none;stroke:#000000;stroke-width:1.076;stroke-miterlimit:10;}
	.st223{clip-path:url(#SVGID_52_);}
	.st224{clip-path:url(#SVGID_52_);fill-rule:evenodd;clip-rule:evenodd;fill:none;}
	.st225{fill:#FFFFFF;stroke:#1C1D3E;stroke-width:1.2999;stroke-linecap:round;stroke-linejoin:round;stroke-miterlimit:10;}
	.st226{fill:none;stroke:#1C1D3E;stroke-width:1.2999;stroke-linecap:round;stroke-linejoin:round;stroke-miterlimit:10;}
	.st227{fill:#FFFFFF;stroke:#1C1D3E;stroke-width:1.2999;stroke-miterlimit:10;}
	.st228{fill:none;stroke:#1C1D3E;stroke-width:2.5998;stroke-linecap:round;stroke-miterlimit:10;}
	.st229{fill:#FFFFFF;stroke:#1C1D3E;stroke-width:1.3909;stroke-miterlimit:10;}
	.st230{fill:#FFFFFF;stroke:#1C1D3E;stroke-width:1.3909;stroke-linecap:round;stroke-linejoin:round;stroke-miterlimit:10;}
	.st231{fill:none;stroke:#1C1D3E;stroke-width:1.3909;stroke-linecap:round;stroke-linejoin:round;stroke-miterlimit:10;}
	.st232{fill:none;stroke:#1C1D3E;stroke-width:1.3909;stroke-miterlimit:10;}
	.st233{fill:#00A19A;stroke:#1C1D3E;stroke-width:1.3922;stroke-linecap:round;stroke-linejoin:round;stroke-miterlimit:10;}
	.st234{fill:none;stroke:#1C1D3E;stroke-width:1.2955;stroke-linecap:round;stroke-linejoin:round;stroke-miterlimit:10;}
	.st235{fill:#FFFFFF;stroke:#1C1D3E;stroke-width:1.2955;stroke-linecap:round;stroke-linejoin:round;stroke-miterlimit:10;}
	.st236{fill:#FFFFFF;stroke:#1C1D3E;stroke-width:1.2955;stroke-miterlimit:10;}
	.st237{fill:none;stroke:#1C1D3E;stroke-width:2.591;stroke-linecap:round;stroke-linejoin:round;stroke-miterlimit:10;}
	.st238{fill:#ADC4E7;}
	.st239{fill:#00B0B9;}
	.st240{fill:#8AC6C4;}
	.st241{fill:#F8AA26;}
	.st242{fill:#11448E;}
	.st243{fill:#F09B1E;}
	.st244{fill:#78A9DB;}
	.st245{fill:#1D3F81;}
	.st246{fill:none;stroke:#000000;stroke-width:1.8782;stroke-miterlimit:10;}
	.st247{clip-path:url(#SVGID_54_);}
	.st248{fill:#FFFFFF;stroke:#1C1D3E;stroke-width:0.9238;stroke-linecap:round;stroke-linejoin:round;stroke-miterlimit:10;}
	.st249{fill:none;stroke:#1C1D3E;stroke-width:0.9238;stroke-linecap:round;stroke-linejoin:round;stroke-miterlimit:10;}
	.st250{fill:#FFFFFF;stroke:#1C1D3E;stroke-width:0.9238;stroke-miterlimit:10;}
	.st251{fill:#FFFFFF;stroke:#1C1D3E;stroke-width:1.1337;stroke-linecap:round;stroke-linejoin:round;stroke-miterlimit:10;}
	.st252{fill:none;stroke:#1C1D3E;stroke-width:1.8475;stroke-linecap:round;stroke-miterlimit:10;}
	.st253{fill:#1C1D3E;stroke:#1C1D3E;stroke-width:0.9327;stroke-linecap:round;stroke-linejoin:round;stroke-miterlimit:10;}
	.st254{clip-path:url(#SVGID_56_);fill:#505EA8;}
	.st255{clip-path:url(#SVGID_58_);fill:#505EA8;}
	.st256{clip-path:url(#SVGID_60_);fill:#505EA8;}
	.st257{clip-path:url(#SVGID_62_);fill:#505EA8;}
	.st258{clip-path:url(#SVGID_64_);fill:#505EA8;}
	.st259{clip-path:url(#SVGID_66_);fill:#505EA8;}
	.st260{clip-path:url(#SVGID_68_);fill:#505EA8;}
	.st261{fill:none;stroke:#000000;stroke-width:1.6007;stroke-miterlimit:10;}
	.st262{clip-path:url(#SVGID_70_);}
	.st263{fill:#FFFFFF;stroke:#1C1D3E;stroke-width:0.7873;stroke-linecap:round;stroke-linejoin:round;stroke-miterlimit:10;}
	.st264{fill:none;stroke:#1C1D3E;stroke-width:0.7873;stroke-linecap:round;stroke-linejoin:round;stroke-miterlimit:10;}
	.st265{fill:#FFFFFF;stroke:#1C1D3E;stroke-width:0.7873;stroke-miterlimit:10;}
	.st266{fill:#FFFFFF;stroke:#1C1D3E;stroke-width:0.9662;stroke-linecap:round;stroke-linejoin:round;stroke-miterlimit:10;}
	.st267{fill:none;stroke:#1C1D3E;stroke-width:1.5745;stroke-linecap:round;stroke-miterlimit:10;}
	.st268{fill:#1C1D3E;stroke:#1C1D3E;stroke-width:0.7949;stroke-linecap:round;stroke-linejoin:round;stroke-miterlimit:10;}
	.st269{clip-path:url(#SVGID_72_);fill:#505EA8;}
	.st270{clip-path:url(#SVGID_74_);fill:#505EA8;}
	.st271{clip-path:url(#SVGID_76_);fill:#505EA8;}
	.st272{clip-path:url(#SVGID_78_);fill:#505EA8;}
	.st273{clip-path:url(#SVGID_80_);fill:#505EA8;}
	.st274{clip-path:url(#SVGID_82_);fill:#505EA8;}
	.st275{clip-path:url(#SVGID_84_);fill:#505EA8;}
	.st276{fill:none;stroke:#000000;stroke-width:2.3468;stroke-miterlimit:10;}
	.st277{clip-path:url(#SVGID_86_);}
	.st278{fill:#FFFFFF;stroke:#1C1D3E;stroke-width:1.1144;stroke-linecap:round;stroke-linejoin:round;stroke-miterlimit:10;}
	.st279{fill:none;stroke:#1C1D3E;stroke-width:1.1144;stroke-linecap:round;stroke-linejoin:round;stroke-miterlimit:10;}
	.st280{fill:none;stroke:#C5C1D2;stroke-width:6.6864;stroke-linecap:round;stroke-linejoin:round;stroke-miterlimit:10;}
	.st281{fill:#FFFFFF;stroke:#1C1D3E;stroke-width:1.1144;stroke-miterlimit:10;}
	.st282{fill:none;stroke:#000000;stroke-width:1.8805;stroke-miterlimit:10;}
	.st283{clip-path:url(#SVGID_88_);}
	.st284{fill:none;stroke:#1C1D3E;stroke-width:1.3222;stroke-linecap:round;stroke-linejoin:round;stroke-miterlimit:10;}
	.st285{fill:#FFFFFF;stroke:#1C1D3E;stroke-width:1.3222;stroke-linecap:round;stroke-linejoin:round;stroke-miterlimit:10;}
	.st286{fill:#1C1D3E;stroke:#1C1D3E;stroke-width:1.3222;stroke-linecap:round;stroke-linejoin:round;stroke-miterlimit:10;}
	.st287{fill:#1C1D3E;stroke:#1C1D3E;stroke-width:1.3222;stroke-miterlimit:10;}
	.st288{fill:#FFFFFF;stroke:#1C1D3E;stroke-width:1.3222;stroke-miterlimit:10;}
	.st289{fill:none;stroke:#1C1D3E;stroke-width:2.6444;stroke-linecap:round;stroke-linejoin:round;stroke-miterlimit:10;}
	.st290{fill:none;stroke:#000000;stroke-width:2.6193;stroke-miterlimit:10;}
	.st291{fill:none;stroke:#606060;stroke-width:1.8782;stroke-miterlimit:10;}
	.st292{clip-path:url(#SVGID_90_);}
	.st293{clip-path:url(#SVGID_92_);fill:#505EA8;}
	.st294{clip-path:url(#SVGID_94_);fill:#505EA8;}
	.st295{clip-path:url(#SVGID_96_);fill:#505EA8;}
	.st296{clip-path:url(#SVGID_98_);fill:#505EA8;}
	.st297{clip-path:url(#SVGID_100_);fill:#505EA8;}
	.st298{clip-path:url(#SVGID_102_);fill:#505EA8;}
	.st299{clip-path:url(#SVGID_104_);fill:#505EA8;}
	.st300{fill:none;stroke:#606060;stroke-width:2.3468;stroke-miterlimit:10;}
	.st301{clip-path:url(#SVGID_106_);}
	.st302{fill:#5C5C5C;}
	.st303{fill:none;stroke:#606060;stroke-width:1.8805;stroke-miterlimit:10;}
	.st304{clip-path:url(#SVGID_108_);}
	.st305{fill:none;stroke:#606060;stroke-width:2.6193;stroke-miterlimit:10;}
	.st306{clip-path:url(#SVGID_110_);}
	.st307{fill:#A3195B;}
	.st308{clip-path:url(#SVGID_112_);fill:#505EA8;}
	.st309{clip-path:url(#SVGID_114_);fill:#505EA8;}
	.st310{clip-path:url(#SVGID_116_);fill:#505EA8;}
	.st311{clip-path:url(#SVGID_118_);fill:#505EA8;}
	.st312{clip-path:url(#SVGID_120_);fill:#505EA8;}
	.st313{clip-path:url(#SVGID_122_);fill:#505EA8;}
	.st314{clip-path:url(#SVGID_124_);fill:#505EA8;}
	.st315{clip-path:url(#SVGID_126_);}
	.st316{clip-path:url(#SVGID_128_);}
	.st317{opacity:0.75;}
	.st318{opacity:0.7;}
	.st319{fill:#B2B2B2;}
	.st320{fill:#FFFFFF;stroke:#1C1D3E;stroke-width:1.4496;stroke-linecap:round;stroke-linejoin:round;stroke-miterlimit:10;}
	.st321{fill:none;stroke:#1C1D3E;stroke-width:1.4496;stroke-linecap:round;stroke-linejoin:round;stroke-miterlimit:10;}
	.st322{fill:#1C1D3E;stroke:#FFFFFF;stroke-width:1.4496;stroke-linecap:round;stroke-linejoin:round;stroke-miterlimit:10;}
	.st323{fill:#E6007E;}
	.st324{fill:#FFFFFF;stroke:#1C1D3E;stroke-width:1.5842;stroke-linecap:round;stroke-linejoin:round;stroke-miterlimit:10;}
	.st325{fill:none;stroke:#1C1D3E;stroke-width:1.5842;stroke-linecap:round;stroke-linejoin:round;stroke-miterlimit:10;}
	.st326{fill:#FFFFFF;stroke:#1C1D3E;stroke-width:1.5842;stroke-miterlimit:10;}
	.st327{fill:none;stroke:#1C1D3E;stroke-width:3.1684;stroke-linecap:round;stroke-linejoin:round;stroke-miterlimit:10;}
	.st328{fill:#FFFFFF;stroke:#1C1D3E;stroke-width:1.5556;stroke-linecap:round;stroke-linejoin:round;stroke-miterlimit:10;}
	.st329{fill:none;stroke:#1C1D3E;stroke-width:1.5556;stroke-linecap:round;stroke-linejoin:round;stroke-miterlimit:10;}
	.st330{fill:#1C1D3E;stroke:#1C1D3E;stroke-width:1.5556;stroke-linecap:round;stroke-linejoin:round;stroke-miterlimit:10;}
	.st331{fill:#FFFFFF;stroke:#1C1D3E;stroke-width:1.5556;stroke-miterlimit:10;}
	.st332{fill:none;stroke:#1C1D3E;stroke-width:2.0742;stroke-linecap:round;stroke-linejoin:round;stroke-miterlimit:10;}
	.st333{clip-path:url(#SVGID_130_);}
	.st334{fill:#CD4577;}
	.st335{fill:#FFFFFF;stroke:#1C1D3E;stroke-width:2.0537;stroke-linecap:round;stroke-linejoin:round;stroke-miterlimit:10;}
	.st336{fill:none;stroke:#1C1D3E;stroke-width:2.0537;stroke-linecap:round;stroke-linejoin:round;stroke-miterlimit:10;}
	.st337{fill:#1C1D3E;stroke:#FFFFFF;stroke-width:2.0537;stroke-linecap:round;stroke-linejoin:round;stroke-miterlimit:10;}
	.st338{fill:#477EC0;}
	.st339{fill:#4BAFE4;}
	.st340{fill:none;stroke:#1D6DAB;stroke-width:9.0471;stroke-miterlimit:10;}
	.st341{fill:#8093CA;}
	.st342{clip-path:url(#SVGID_132_);}
	.st343{fill:#FFFFFF;stroke:#1C1D3E;stroke-width:1.5832;stroke-linecap:round;stroke-linejoin:round;stroke-miterlimit:10;}
	.st344{fill:none;stroke:#1C1D3E;stroke-width:1.5832;stroke-linecap:round;stroke-linejoin:round;stroke-miterlimit:10;}
	.st345{fill:#FFFFFF;stroke:#1C1D3E;stroke-width:1.8309;stroke-linecap:round;stroke-linejoin:round;stroke-miterlimit:10;}
	.st346{fill:none;stroke:#1C1D3E;stroke-width:1.8309;stroke-linecap:round;stroke-linejoin:round;stroke-miterlimit:10;}
	.st347{fill:#1C1D3E;stroke:#FFFFFF;stroke-width:1.8309;stroke-linecap:round;stroke-linejoin:round;stroke-miterlimit:10;}
	.st348{fill:#95B0DD;}
	.st349{fill:url(#SVGID_133_);}
	.st350{opacity:0.56;fill:#FFFFFF;}
	.st351{fill:url(#SVGID_134_);}
	.st352{fill:#FFFFFF;stroke:#1C1D3E;stroke-width:1.8531;stroke-linecap:round;stroke-linejoin:round;stroke-miterlimit:10;}
	.st353{fill:none;stroke:#1C1D3E;stroke-width:1.8531;stroke-linecap:round;stroke-linejoin:round;stroke-miterlimit:10;}
	.st354{fill:#FFFFFF;stroke:#1C1D3E;stroke-width:1.8531;stroke-miterlimit:10;}
	.st355{fill:#FFFFFF;stroke:#1C1D3E;stroke-width:2.2743;stroke-linecap:round;stroke-linejoin:round;stroke-miterlimit:10;}
	.st356{fill:none;stroke:#1C1D3E;stroke-width:3.7062;stroke-linecap:round;stroke-miterlimit:10;}
	.st357{fill:#1C1D3E;stroke:#1C1D3E;stroke-width:1.8711;stroke-linecap:round;stroke-linejoin:round;stroke-miterlimit:10;}
	.st358{clip-path:url(#SVGID_136_);fill:#505EA8;}
	.st359{clip-path:url(#SVGID_138_);fill:#505EA8;}
	.st360{clip-path:url(#SVGID_140_);fill:#505EA8;}
	.st361{clip-path:url(#SVGID_142_);fill:#505EA8;}
	.st362{clip-path:url(#SVGID_144_);fill:#505EA8;}
	.st363{clip-path:url(#SVGID_146_);fill:#505EA8;}
	.st364{clip-path:url(#SVGID_148_);fill:#505EA8;}
	.st365{fill:#FFFFFF;stroke:#1C1D3E;stroke-width:1.9908;stroke-miterlimit:10;}
	.st366{fill:#FFFFFF;stroke:#1C1D3E;stroke-width:1.9908;stroke-linecap:round;stroke-linejoin:round;stroke-miterlimit:10;}
	.st367{fill:none;stroke:#1C1D3E;stroke-width:1.9908;stroke-linecap:round;stroke-linejoin:round;stroke-miterlimit:10;}
	.st368{fill:none;stroke:#1C1D3E;stroke-width:1.9908;stroke-miterlimit:10;}
	.st369{fill:#00A19A;stroke:#1C1D3E;stroke-width:1.9926;stroke-linecap:round;stroke-linejoin:round;stroke-miterlimit:10;}
	.st370{clip-path:url(#SVGID_150_);fill:#505EA8;}
	.st371{clip-path:url(#SVGID_152_);fill:#505EA8;}
	.st372{clip-path:url(#SVGID_154_);fill:#505EA8;}
	.st373{clip-path:url(#SVGID_156_);fill:#505EA8;}
	.st374{clip-path:url(#SVGID_158_);fill:#505EA8;}
	.st375{clip-path:url(#SVGID_160_);fill:#505EA8;}
	.st376{clip-path:url(#SVGID_162_);fill:#505EA8;}
	.st377{clip-path:url(#SVGID_164_);}
	.st378{fill:#FFFFFF;stroke:#1C1D3E;stroke-width:1.6731;stroke-linecap:round;stroke-linejoin:round;stroke-miterlimit:10;}
	.st379{fill:none;stroke:#1C1D3E;stroke-width:1.6731;stroke-linecap:round;stroke-linejoin:round;stroke-miterlimit:10;}
	.st380{fill:#FFFFFF;stroke:#1C1D3E;stroke-width:1.6821;stroke-linecap:round;stroke-linejoin:round;stroke-miterlimit:10;}
	.st381{fill:#FFFFFF;stroke:#1C1D3E;stroke-width:1.6821;stroke-miterlimit:10;}
	.st382{fill:none;stroke:#1C1D3E;stroke-width:1.6821;stroke-linecap:round;stroke-linejoin:round;stroke-miterlimit:10;}
	.st383{fill:#FFFFFF;stroke:#1C1D3E;stroke-width:2.0644;stroke-linecap:round;stroke-linejoin:round;stroke-miterlimit:10;}
	.st384{fill:none;stroke:#1C1D3E;stroke-width:3.3641;stroke-linecap:round;stroke-miterlimit:10;}
	
		.st385{clip-path:url(#SVGID_164_);fill:#1C1D3E;stroke:#1C1D3E;stroke-width:0.9973;stroke-linecap:round;stroke-linejoin:round;stroke-miterlimit:10;}
	.st386{fill:#AF144C;}
	.st387{fill:#9B1649;}
	.st388{fill:#E52521;}
	.st389{fill:#D51116;}
	.st390{fill:#E41B17;}
	.st391{fill:#B81357;}
	.st392{fill:url(#SVGID_165_);}
	.st393{fill:url(#SVGID_166_);}
	.st394{clip-path:url(#SVGID_168_);}
	
		.st395{clip-path:url(#SVGID_168_);fill:#1C1D3E;stroke:#1C1D3E;stroke-width:0.9973;stroke-linecap:round;stroke-linejoin:round;stroke-miterlimit:10;}
	.st396{fill:url(#SVGID_169_);}
	.st397{fill:url(#SVGID_170_);}
</style>
<g>
	<g>
		<path class="st341" d="M730.7,359.8l-28.9-8c-7.8-2.2-14-8.1-16.7-15.7c-6.8-19.2-15.8-37.4-26.6-54.2c-4.4-6.8-5.3-15.3-2.2-22.9
			l11.4-27.8c4.8-11.7,1.7-25.2-7.8-33.5l-28.3-25c-9.5-8.4-23.3-9.8-34.3-3.6L571.2,184c-7.1,4-15.6,4.2-23,0.7
			c-18.1-8.6-37.2-15.2-57.1-19.6c-7.9-1.7-14.5-7.1-17.7-14.6l-11.5-27.7c-4.9-11.7-16.6-19-29.2-18.2L395,107
			c-12.6,0.8-23.4,9.5-26.7,21.7l-8,28.9c-2.2,7.8-8.1,14-15.7,16.7c-19.2,6.8-37.4,15.8-54.2,26.6c-6.8,4.4-15.3,5.3-22.9,2.2
			l-27.8-11.4c-11.7-4.8-25.2-1.7-33.5,7.8l-25,28.3c-8.4,9.5-9.8,23.2-3.6,34.3l14.8,26.1c4,7.1,4.2,15.6,0.7,23
			c-8.6,18.1-15.2,37.2-19.6,57.1c-1.7,7.9-7.1,14.5-14.6,17.7l-27.7,11.5c-11.7,4.9-19,16.6-18.2,29.2l2.4,37.7
			c0.8,12.6,9.5,23.4,21.7,26.7l28.9,8c7.8,2.2,14,8,16.7,15.7c6.8,19.2,15.8,37.4,26.6,54.2c4.4,6.8,5.3,15.3,2.2,22.9l-11.4,27.8
			c-4.8,11.7-1.7,25.2,7.8,33.5l28.3,25c9.5,8.4,23.2,9.8,34.3,3.6l26.1-14.8c7.1-4,15.6-4.2,23-0.7c18.1,8.6,37.2,15.2,57.1,19.6
			c7.9,1.7,14.5,7.1,17.7,14.6l11.5,27.7c4.9,11.7,16.6,19,29.2,18.2l37.7-2.4c12.6-0.8,23.4-9.5,26.7-21.7l8-28.9
			c2.2-7.8,8.1-14,15.7-16.7c19.2-6.8,37.4-15.8,54.2-26.6c6.8-4.4,15.3-5.3,22.9-2.2l27.8,11.4c11.7,4.8,25.2,1.7,33.5-7.8l25-28.3
			c8.4-9.5,9.8-23.2,3.6-34.3l-14.8-26.1c-4-7.1-4.2-15.6-0.7-23c8.6-18.1,15.2-37.2,19.6-57.1c1.7-7.9,7.1-14.5,14.6-17.7
			l27.7-11.5c11.7-4.9,19-16.6,18.2-29.2l-2.4-37.7C751.6,373.9,742.9,363.2,730.7,359.8z M469.7,642.4
			c-119.8,19.8-233-61.3-252.8-181.1c-19.8-119.8,61.3-233,181.1-252.8c119.8-19.8,233,61.3,252.8,181.1
			C670.6,509.5,589.5,622.6,469.7,642.4z"/>
	</g>
</g>
<g>
	<defs>
		<path id="SVGID_167_" d="M568,245.5c14.2-19.1,22.4-41.5,22.4-65.4c0-69.8-69.4-126.4-154.9-126.4s-154.9,56.6-154.9,126.4
			c0,21.7,6.7,42.2,18.6,60.1c-56.8,40.8-93.8,107.4-93.8,182.6c0,124.1,100.6,224.7,224.7,224.7s224.7-100.6,224.7-224.7
			C654.6,350.8,620.7,286.7,568,245.5z"/>
	</defs>
	<clipPath id="SVGID_2_">
		<use xlink:href="#SVGID_167_"  style="overflow:visible;"/>
	</clipPath>
	<g class="st7">
		<g>
			<path class="st378" d="M269.7,681.5c0,0-37.8,63.2,0,100.3c37.8,37.1,68.3-2.9,74.9-30.5c6.5-27.6-5.8-117-5.8-117
				S273.5,674.3,269.7,681.5z"/>
			<g>
				<path class="st12" d="M409.9,326.7c0,0-37.2,1.1-82.6,47.1c-25.3,25.7-49.9,64.9-66.1,120.3c-21.7,74.4-32.5,137.1-31.4,188
					c0.3,15.1,9.2,27.1,24.4,33.2c14.8,6,36,2.4,49.9-0.6c33.7-7.2,54.4-28.3,54.4-28.3L409.9,326.7z"/>
				<g>
					<path class="st13" d="M294.7,537.4c-4.8-9.2-15.9-13.9-27.6-9.2c-1.2,0.5-2.3,1.2-3.2,2c-14.2,13-7.5,32.5,7.4,36.4
						c6.2,1.6,12.7,0.3,17.8-3.6c4.8,9.2,15.9,13.9,27.6,9.2c1.2-0.5,2.3-1.2,3.2-2c14.2-13,7.5-32.5-7.4-36.4
						C306.3,532.2,299.8,533.5,294.7,537.4z"/>
					<path class="st13" d="M234.7,663.9c2.7,5.1,7.3,8.9,12.9,10.3c10.9,2.9,22.2-3.6,25-14.6c2.9-10.9-3.6-22.2-14.6-25
						c-6.2-1.6-12.7-0.3-17.8,3.6c-1.8-3.5-4.6-6.4-8-8.3c-0.7,12.5-1.3,24.7-1.6,36.4C232.2,665.7,233.5,664.9,234.7,663.9z"/>
					<path class="st13" d="M302,689.3c-10.9-2.9-22.2,3.6-25,14.6c-1.4,5.1-0.6,10.3,1.7,14.7l19.3-1.3c0,0,21.7-4.9,27-13.5
						c1.4-2.2,0.5-5-1.9-7.9c-2.9,0.6-5.7,1.9-8.1,3.8C312.3,694.5,307.7,690.7,302,689.3z"/>
					<path class="st13" d="M320,405.7c-6.2-1.6-12.7-0.3-17.8,3.6c-0.3-0.6-0.7-1.3-1.1-1.8c-4.2,6.2-13.8,20.9-18.3,31.7
						c4.9,0.3,9.8-1.2,13.7-4.2c2.7,5.1,7.3,8.9,12.9,10.3c10.9,2.9,22.2-3.6,25-14.6C337.5,419.9,331,408.6,320,405.7z"/>
				</g>
				<path class="st379" d="M409.9,326.7c0,0-93.7,3.6-147.5,163.9C241,554.5,231.2,620.6,230,677.4c-1.5,69,104.4,30.7,104.4,30.7
					L409.9,326.7z"/>
			</g>
			<g>
				<path class="st49" d="M568.8,590.6c0,0,71.9-23.9,69.5-79.2C636,456.3,542.2,377,542.2,377l-36,81.4L568.8,590.6z"/>
				<g>
					<path class="st12" d="M465.8,330.3c0,0,73.2,6.6,114.8,96.7c41.6,90.2,25.8,137.9,13.9,159.7c-9.4,17.2-32.8,47.6-92.3,20.1
						c-16-7.4-49.8-102.9-58.9-121c-9.2-18.1-2.4-134.5-2.4-134.5L465.8,330.3z"/>
					<g>
						<path class="st13" d="M528,466.3c-2.6,11,4.2,22.1,15.2,24.7c6.2,1.5,12.7,0,17.7-4c2.8,5.1,7.5,8.7,13.2,10
							c11,2.6,22.1-4.2,24.7-15.2c0.4-1.9,0.6-3.7,0.5-5.6c-0.9-3.2-1.9-6.5-3-9.9c-2.7-4.5-7.2-7.9-12.7-9.2
							c-6.2-1.5-12.7,0-17.7,4c-2.8-5.1-7.5-8.7-13.2-10C541.7,448.5,530.6,455.3,528,466.3z"/>
						<path class="st13" d="M583.1,529.8c2.5-10.7,13-17.4,23.7-15.4c0,0.4,1.1,12,0.8,22.5c-0.3,9.2-1.9,17.6-1.9,17.9
							c-2.4,0.3-4.9,0.2-7.3-0.4C587.3,551.8,580.5,540.8,583.1,529.8z"/>
						<path class="st13" d="M578.2,421.9c0,0-0.1,0-0.1,0c-1.8-3.5-7.2-13.7-9.5-17.5c-2.4-4-13.7-19-16.7-23c0,0,0,0,0.1,0
							c-0.1-0.2-0.3-0.3-0.4-0.5c-0.2-0.3-0.4-0.5-0.4-0.5l-0.1,0c-0.6-0.7-1.2-1.5-1.9-2.2c-0.3-0.1-0.5-0.2-0.8-0.3
							c-11-2.6-22.1,4.2-24.7,15.2c-2.6,11,4.2,22.1,15.2,24.7c6.2,1.5,12.7,0,17.7-4c2.8,5.1,7.5,8.7,13.2,10
							c3.2,0.8,6.4,0.7,9.4,0C578.8,423.2,578.5,422.5,578.2,421.9z"/>
						<path class="st13" d="M593.2,587.1c-1,0.6-2,1.1-3,1.9c-2.8-5.1-7.5-8.7-13.2-10c-11-2.6-22.1,4.2-24.7,15.2
							c-2,8.6,1.7,17.2,8.6,21.8c0.6-0.2,1.3-0.5,2-0.7l0,0c0,0,0,0,0,0c0.2-0.1,0.3-0.1,0.5-0.2c0,0-0.1,0-0.1-0.1
							c2-1.1,10.2-5.6,13.8-7.4c4.1-2,14.5-16.3,14.5-16.3L593.2,587.1z"/>
					</g>
					<path class="st379" d="M465.8,330.3c0,0,73.2,6.6,114.8,96.7c41.6,90.2,25.8,137.9,13.9,159.7c-9.4,17.2-32.8,47.6-92.3,20.1
						c-16-7.4-49.8-102.9-58.9-121c-9.2-18.1-2.4-134.5-2.4-134.5L465.8,330.3z"/>
				</g>
			</g>
			<g>
				<path class="st11" d="M308.1,645l229.2,31l4.1,114.7c-3.2,1.2-224.7,61.1-252.9,58L308.1,645z"/>
				<g>
					<g>
						<polygon class="st12" points="551.9,541.7 551.9,731.6 296.4,701 308.1,463.4 346.4,439.2 342.7,403.1 379.5,339.1 
							484.8,340.4 508.9,382 509,519.4 						"/>
						<g>
							<path class="st13" d="M403.2,548.1c-2.7-5.1-7.3-8.7-12.8-10c-10.7-2.6-21.4,4.2-23.9,15.2c-2.5,11,4.1,22.1,14.7,24.7
								c6,1.5,12.4,0,17.1-4c2.7,5.1,7.3,8.7,12.8,10c10.7,2.6,21.4-4.2,23.9-15.2c2.5-11-4.1-22.1-14.7-24.7
								C414.3,542.6,408,544.1,403.2,548.1z"/>
							<path class="st13" d="M434.1,444.2c-2.7-5.1-7.3-8.7-12.8-10c-10.7-2.6-21.4,4.2-23.9,15.2c-2.5,11,4.1,22.1,14.7,24.7
								c6,1.5,12.4,0,17.1-4c2.7,5.1,7.3,8.7,12.8,10c10.7,2.6,21.4-4.2,23.9-15.2c2.5-11-4.1-22.1-14.7-24.7
								C445.2,438.6,438.9,440.1,434.1,444.2z"/>
							<path class="st13" d="M377.9,366.7c-2.7-5.1-7.3-8.7-12.8-10c-10.7-2.6-21.4,4.2-23.9,15.2c-2.5,11,4.1,22.1,14.7,24.7
								c6,1.5,12.4,0,17.1-4c2.7,5.1,7.3,8.7,12.8,10c10.7,2.6,21.4-4.2,23.9-15.2c2.5-11-4.1-22.1-14.7-24.7
								C389,361.2,382.7,362.7,377.9,366.7z"/>
							<path class="st13" d="M391.7,669.3c-2.7-5.1-7.3-8.7-12.8-10c-10.7-2.6-21.4,4.2-23.9,15.2c-2.5,11,4.1,22.1,14.7,24.7
								c6,1.5,12.4,0,17.1-4c2.7,5.1,7.3,8.7,12.8,10c10.7,2.6,21.4-4.2,23.9-15.2c2.5-11-4.1-22.1-14.7-24.7
								C402.8,663.8,396.5,665.3,391.7,669.3z"/>
							<path class="st13" d="M478.5,628.4c-2.7-5.1-7.3-8.7-12.8-10c-10.7-2.6-21.4,4.2-23.9,15.2c-2.5,11,4.1,22.1,14.7,24.7
								c6,1.5,12.4,0,17.1-4c2.7,5.1,7.3,8.7,12.8,10c10.7,2.6,21.4-4.2,23.9-15.2c2.5-11-4.1-22.1-14.7-24.7
								C489.5,622.8,483.2,624.4,478.5,628.4z"/>
							<path class="st13" d="M505.2,360.1c-2.8,0-5.5,0.6-8,1.8l0,0v0c-1.6,0.7-3.1,1.7-4.4,2.8c-2.7-5.1-7.3-8.7-12.8-10
								c-10.7-2.6-21.4,4.2-23.9,15.2c-2.5,11,4.1,22.1,14.7,24.7c6,1.5,12.4,0,17.1-4c2.7,5.1,7.3,8.7,12.8,10
								c0.7,0.2,1.3,0.3,2,0.4l2.4-38.7c0,0,0,0,0,0L505.2,360.1z"/>
							<path class="st13" d="M548.1,672.1c-10.7-2.6-21.4,4.2-23.9,15.2c-2.5,11,4.1,22.1,14.7,24.7c4.4,1.1,9,0.6,13-1.4v-1.4v-0.9
								v-32.5v-2.3C550.7,672.9,549.4,672.5,548.1,672.1z"/>
							<path class="st13" d="M347.3,477.6c-6-1.5-12.4,0-17.1,4c-2.7-5.1-7.3-8.7-12.8-10c-3.3-0.8-6.6-0.7-9.7,0.1l-0.1,2.2
								l-1.7,34.5l0,0l-0.1,2.2c0.8,0.3,1.6,0.6,2.4,0.8c6,1.5,12.4,0,17.1-4c2.7,5.1,7.3,8.7,12.8,10c10.7,2.6,21.4-4.2,23.9-15.2
								C364.5,491.2,357.9,480.2,347.3,477.6z"/>
							<path class="st13" d="M337.5,584.9c-6-1.5-12.4,0-17.1,4c-2.7-5.1-7.3-8.7-12.8-10c-1.7-0.4-3.5-0.6-5.2-0.5l-0.1,2.1
								l-1.8,36.6l-0.1,2.1c5.4,0.7,10.8-0.8,15.1-4.4c2.7,5.1,7.3,8.7,12.8,10c10.7,2.6,21.4-4.2,23.9-15.2
								C354.8,598.6,348.2,587.5,337.5,584.9z"/>
						</g>
						<polyline class="st379" points="551.9,541.7 551.9,731.6 296.4,701 308.1,463.4 						"/>
					</g>
					<path class="st378" d="M551.9,746.5L296.4,701l1.2-25c55.5,9.9,199,37.2,254.2,47V746.5z"/>
				</g>
			</g>
			<g>
				<path class="st49" d="M474.2,459c4.6-60.5,13.1-99,20.2-121.7c9,2.5,18.8,6.1,29,16.1c-13.1,59.3-29.9,198.1,53.1,261.5
					c-3.1,9.2-8,22.8-24.7,20.9C520.5,604.4,468.7,532.2,474.2,459z"/>
				<g>
					<path class="st12" d="M572.7,533.9c0,0-15.3-24.5-42.7-22.3c-27.4,2.2-67.4,36.4-41.5,80.3c13,22,45.4,32.4,71.8,24
						c2.4-0.8,8.5-2.6,14-7.7c2.6-2.4,6.1-4.7,8.4-8.2c4.6-6.9,6.5-17.6,6.5-29C589.1,550.5,572.7,533.9,572.7,533.9z"/>
					<g>
						<path class="st13" d="M532,530c-2.8-5.1-7.5-8.7-13.2-10c-11-2.6-22.1,4.2-24.7,15.2c-2.6,11,4.2,22.1,15.2,24.7
							c6.2,1.5,12.7,0,17.7-4c2.8,5.1,7.5,8.7,13.2,10c11,2.6,22.1-4.2,24.7-15.2c2.6-11-4.2-22.1-15.2-24.7
							C543.4,524.5,536.9,526,532,530z"/>
						<path class="st13" d="M481.3,573.9c-0.1-0.7-0.3-1.3-0.4-2c3.2-0.9,6.7-1,10-0.2c11,2.6,17.8,13.7,15.2,24.7
							c-0.9,3.6-2.6,6.7-5,9.3c-0.6-0.4-1.1-0.9-1.6-1.3c1.6-1.7-9.1-3.9-14.9-20C483.4,581.1,482.1,573.7,481.3,573.9z"/>
						<path class="st13" d="M573.7,609.4l-8.8-29.6c-6,2.4-10.9,7.5-12.5,14.3c-2,8.6,1.7,17.2,8.6,21.8c0.6-0.2,1.3-0.5,2-0.7l0,0
							c0,0,0,0,0,0c0.2-0.1,0.3-0.1,0.5-0.2c0,0-0.1,0-0.1-0.1C565,614.1,569.8,611.4,573.7,609.4z"/>
						<path class="st13" d="M593.2,587.1c-1,0.6-2,1.1-3,1.9c-2.8-5.1-7.5-8.7-13.2-10c-11-2.6-22.1,4.2-24.7,15.2
							c-2,8.6,1.7,17.2,8.6,21.8c0.6-0.2,1.3-0.5,2-0.7l0,0c0,0,0,0,0,0c0.2-0.1,0.3-0.1,0.5-0.2c0,0-0.1,0-0.1-0.1
							c2-1.1,7.3-4.6,10.9-6.4c4.1-2,16.4-17.6,16.4-17.6L593.2,587.1z"/>
					</g>
					<path class="st379" d="M572.6,534c0,0-15.3-24.5-42.7-22.3c-27.4,2.2-67.4,36.4-41.5,80.3c15.4,26.1,58.6,36.1,86.2,17.4"/>
				</g>
				<g>
					<path class="st12" d="M529.1,520.6c-1-4-2.2-8.3-3.3-17.1c0,0,5.6-52.4-3.5-57.3c-14.1-7.6-15.1,27.7-15.1,27.7l-0.6,0
						c-7.4-4.8-26-18-31.7-34.6c0,0-6.4,0.4-7.9,6.1l-0.1,0.8c-2.9,0.5-5.7,3-7.7,8.6l0,0c-3.6,1.9-10.2,8.4-10.3,18.2l0,0
						c-3.4,2.3-5.2,7.7-5.2,7.7c-4.5,11.7,2.3,31.5,15.8,46.7c13.6,15.3,34.1,26.8,46.9,22.9c8.7-2.6,16.3-10.7,20.1-16
						C528.5,531.6,530.3,525.4,529.1,520.6z"/>
					<g>
						<path class="st379" d="M507.2,473.9c0,0,1-35.3,15.1-27.7c9,4.9,3.5,57.3,3.5,57.3c1.1,8.8,2.3,13,3.3,17.1
							c1.2,4.8-0.6,11-2.5,13.6c-3.9,5.3-11.5,13.4-20.1,16c-12.8,3.9-33.4-7.6-46.9-22.9c-13.6-15.3-20.3-35.1-15.8-46.7
							c0,0,1.8-5.4,5.2-7.7"/>
					</g>
					<path class="st379" d="M509.8,475.8c0,0-27.6-15.6-34.8-36.5c0,0-8.6-1.5-9,13.8c-0.4,15.3,9.8,27.5,9.8,27.5"/>
					<path class="st379" d="M462.2,484.8c0,0-4.3-11.9-4.5-21.1c-0.1-9.2,3-16.9,9.2-17.6"/>
					<path class="st379" d="M454.1,496c0,0-4.6-11.2-5.2-21.7c-0.6-10.5,6-17.3,9.8-19.3"/>
				</g>
			</g>
		</g>
	</g>
	<g class="st7">
		<g>
			<g>
				<polygon class="st380" points="478.7,331.6 463.8,312.4 441.8,312.4 434.6,312.4 412.6,312.4 393.7,331 408.7,374.5 
					438.2,349.4 467.7,374.5 				"/>
			</g>
		</g>
		<g>
			<g>
				<path class="st11" d="M391,269.3c-2.7,0.5-5.2-26-6-46.5c-0.9-20.5-2.5-64.4,53.1-59.3c19,1.7,48.2,3.8,48,52.9
					c-0.2,49.6-9.2,76.2-14.2,78.9C466.9,298.1,431.6,262.3,391,269.3z"/>
				<path class="st381" d="M442.4,341.6h-9.9c-11.5,0-20.8-9.3-20.8-20.8v-21.2c0-11.5,9.3-20.8,20.8-20.8h9.9
					c11.5,0,20.8,9.3,20.8,20.8v21.2C463.3,332.2,454,341.6,442.4,341.6z"/>
				<g>
					<g>
						
							<ellipse transform="matrix(1 -4.506592e-03 4.506592e-03 1 -1.1932 2.2163)" class="st381" cx="491.2" cy="265.9" rx="13.5" ry="14.1"/>
						<path class="st382" d="M483.8,267.6c0,0-0.4-9.6,8.9-8.3"/>
					</g>
					<g>
						<path class="st381" d="M370.3,265.4c-0.2,7.8,5.8,14.2,13.2,14.4c7.5,0.2,13.7-6,13.8-13.8s-5.8-14.2-13.2-14.4
							C376.6,251.5,370.4,257.7,370.3,265.4z"/>
						<path class="st382" d="M391.1,267.8c0,0,0.8-9.5-8.6-8.7"/>
					</g>
				</g>
				<g>
					<path class="st381" d="M480.2,276.7c0,17.3-13.6,31.5-30.1,31.5l-25.4,0c-16.5,0-30.1-14.2-30-31.6l0.1-55.7
						c0-17.3,13.6-31.5,30.1-31.5l25.4,0c16.5,0,30.1,14.2,30,31.6L480.2,276.7z"/>
				</g>
				<g>
					<path class="st383" d="M422.6,275.2c0.9,5.2,7.2,9.3,14.9,9.3c7.7,0,13.9-4,14.9-9.3L422.6,275.2z"/>
					<path class="st382" d="M437.1,242.3c-1.4,6.3-2.7,12.6-4,19c2.7,0.1,5.3,0.2,8,0.4"/>
					<path class="st11" d="M415,248c0,2.3-1.7,4.2-3.9,4.2c-2.2,0-4-1.8-4-4.1c0-2.3,1.7-4.2,3.9-4.2
						C413.1,243.9,414.9,245.7,415,248z"/>
					<path class="st11" d="M468.7,248c0,2.3-1.7,4.2-3.9,4.2c-2.2,0-4-1.8-4-4.1c0-2.3,1.7-4.2,3.9-4.2
						C466.9,243.8,468.7,245.7,468.7,248z"/>
					<path class="st384" d="M405.3,239.6c3.7-0.2,7.4-0.5,11.2-0.7"/>
					<path class="st384" d="M459,238c4,1.1,8,2.1,12,3.2"/>
				</g>
			</g>
		</g>
	</g>
	
		<path style="clip-path:url(#SVGID_2_);fill:#1C1D3E;stroke:#1C1D3E;stroke-width:0.9973;stroke-linecap:round;stroke-linejoin:round;stroke-miterlimit:10;" d="
		M437.4,222.1c0.1,0.3-49.2,18.5-49.2,18.8c-0.2,3.9,12.1,8.3,3.2,7.9c-3.6-0.1,0.3,2.9-2.4,1.9c-2,0.3-4.2,0.4-6.4,0.3
		c-8.8-0.4-15.9-3.8-15.7-7.6c0-0.5,0.2-1,0.5-1.5c-2.8-1.4-4.6-3.2-4.5-5.1c0.1-1.9,1.9-3.5,4.8-4.7c-0.7-0.8-1.1-1.7-1.1-2.7
		c0.1-3.2,5.3-5.7,12.2-6.2c-0.9-0.9-1.4-1.9-1.4-3c0.2-3.9,7.4-6.7,16.3-6.3c2,0.1,3.9,0.3,5.7,0.7c0-0.2-0.1-0.3-0.1-0.5
		c0.1-3.5,6.7-6,14.7-5.7c1.9,0.1,3.7,0.3,5.3,0.7c2.5-2.5,8.3-4.1,15-3.8c4,0.2,7.7,1,10.4,2.2c2.3-1,5.5-1.5,9.1-1.3
		c5.5,0.2,10.1,2,11.6,4.2c2.7-0.7,5.9-1,9.4-0.9c9.1,0.4,16.3,3.9,16.1,7.8c-0.1,1.3-1,2.5-2.5,3.5c6.9,0.6,12.2,3.3,12.1,6.4
		c-0.1,1.5-1.4,2.8-3.5,3.7c7.8,0.7,13.8,3.7,13.7,7.2c-0.1,3.2-5.3,5.6-12.2,6.1c3.1,1.1,5.2,2.8,5.1,4.7c-0.1,1.9-2.4,3.5-5.9,4.4
		l-17.3-8.4c1.6-0.9,3.9-1.6,6.7-1.9c-3-0.9-5.3-2.3-6.5-3.8"/>
	
		<path style="clip-path:url(#SVGID_2_);fill:#1C1D3E;stroke:#1C1D3E;stroke-width:0.9973;stroke-linecap:round;stroke-linejoin:round;stroke-miterlimit:10;" d="
		M436.6,239.8c-1.2,0.1-2.5,0.1-3.8,0.1"/>
	<g class="st7">
		<g>
			<path class="st386" d="M477.6,166.7c-16.5-13.4-40.3-13.4-40.3-13.4s-23.8,0-40.3,13.4c-11.2,9.1-14.1,59-14.1,59l2.7,1.5
				l51.7-7.7l51.7,7.7l2.7-1.5C491.7,225.7,488.8,175.8,477.6,166.7z"/>
			<path class="st49" d="M477.6,166.7c-16.5-13.4-40.3-13.4-40.3-13.4s10.3,4.3,18.4,13.7c6.3,7.2,8.1,38.4,8.7,49.9
				c0.1,1.6,19.2,9.5,19.2,9.5l5.3,0.8l2.7-1.5C491.7,225.7,488.8,175.8,477.6,166.7z"/>
			<path class="st387" d="M409.8,211.2c0.6-11.5,2.7-37,9-44.2c8.2-9.4,18.4-13.7,18.4-13.7s-23.8,0-40.3,13.4
				c-11.2,9.1-14.1,59-14.1,59l2.7,1.5l5.3-0.8l98.1,0.8c0,0-19.5-13.8-41.3-17.9C430.5,206.1,409.8,212.7,409.8,211.2z"/>
			<path class="st388" d="M437.3,213.3c0,0-21.9-0.7-51.7,15.8c0,0-2.9,14.7,0,16.1c2.9,1.3,23.6-16.1,51.7-16.1
				c28.1,0,48.8,17.4,51.7,16.1c2.9-1.3,0-16.1,0-16.1C459.2,212.7,437.3,213.3,437.3,213.3z"/>
			<path class="st49" d="M437.3,211.4c0,0-21.9-0.7-51.7,15.8c0,0-2.9,14.7,0,16.1c2.9,1.3,23.6-16.1,51.7-16.1
				c28.1,0,48.8,17.4,51.7,16.1c2.9-1.3,0-16.1,0-16.1C459.2,210.7,437.3,211.4,437.3,211.4z"/>
			<path class="st389" d="M441.2,149.3h-7.9c-1.5,0-2.7,1.2-2.7,2.7v1.2c0,1.5,1.2,2.7,2.7,2.7h7.9c1.5,0,2.7-1.2,2.7-2.7V152
				C443.9,150.5,442.7,149.3,441.2,149.3z"/>
			<path class="st390" d="M440.2,150.4c-1.6,0-2.9,1-2.9,2.3c0,1.3,1.3,2.3,2.9,2.3c1.6,0,2.9-1,2.9-2.3
				C443.1,151.5,441.8,150.4,440.2,150.4z"/>
			<path class="st391" d="M385.5,243.2c0.4,0,0.7,0,1,0h0c3.8-0.9,15.5-9.2,31.9-13.5c0.6-0.3,0.9-0.4,0.9-0.4s-1-9.6,2.7-12.7
				c3.7-3,13.8-5.3,13.9-5.3c-5.2,0.2-24.9,1.7-50.3,15.8C385.6,227.2,382.7,241.7,385.5,243.2z"/>
		</g>
	</g>
</g>
<g>
	<g>
		<g>
			<path class="st348" d="M294.9,424.2c-1.8-0.1-3.3-1.6-3.2-3.5c0.1-3.6,0.1-7.2,0-10.8c-0.1-1.8,1.3-3.4,3.1-3.5c0,0,0,0,0.1,0
				c1.8-0.1,3.4,1.3,3.5,3.2c0.2,3.8,0.2,7.6,0,11.4c-0.1,1.7-1.4,3.1-3.1,3.2C295.1,424.2,295,424.2,294.9,424.2z M289.7,392.5
				c-0.6-3.5-1.5-7.1-2.4-10.5c-0.5-1.8,0.6-3.6,2.3-4.1c1.8-0.5,3.6,0.6,4.1,2.3c1,3.6,1.8,7.4,2.5,11.1c0.3,1.8-0.9,3.5-2.7,3.9
				c-0.1,0-0.3,0-0.4,0C291.5,395.3,290,394.2,289.7,392.5z M281.5,365.4c-1.4-3.3-3-6.6-4.7-9.7c-0.9-1.6-0.3-3.6,1.4-4.5
				c1.6-0.9,3.6-0.3,4.5,1.4c1.8,3.3,3.4,6.8,4.9,10.2c0.7,1.7-0.1,3.7-1.7,4.4c-0.4,0.2-0.7,0.2-1.1,0.3
				C283.4,367.5,282.1,366.8,281.5,365.4z M267.5,340.9c-2.1-2.9-4.4-5.7-6.7-8.4c-1.2-1.4-1.1-3.5,0.3-4.7c1.4-1.2,3.5-1.1,4.7,0.3
				c2.5,2.8,4.9,5.8,7.1,8.9c1.1,1.5,0.8,3.6-0.7,4.7c-0.5,0.4-1.1,0.6-1.8,0.6C269.3,342.3,268.2,341.8,267.5,340.9z M248.4,320
				c-2.7-2.3-5.5-4.6-8.4-6.7c-1.5-1.1-1.8-3.2-0.7-4.7c1.1-1.5,3.2-1.8,4.7-0.7c3.1,2.2,6,4.6,8.9,7.1c1.4,1.2,1.5,3.3,0.3,4.7
				c-0.6,0.7-1.4,1.1-2.3,1.1C249.9,320.9,249.1,320.6,248.4,320z M225.1,303.9c-3.2-1.7-6.4-3.3-9.7-4.7c-1.7-0.7-2.5-2.7-1.7-4.4
				c0.7-1.7,2.7-2.5,4.4-1.7c3.5,1.5,6.9,3.2,10.2,4.9c1.6,0.9,2.2,2.9,1.4,4.5c-0.6,1.1-1.6,1.7-2.7,1.7
				C226.3,304.4,225.7,304.2,225.1,303.9z M101.3,302.4c-0.9-1.6-0.3-3.6,1.4-4.5c3.3-1.8,6.8-3.4,10.3-4.9c1.7-0.7,3.7,0.1,4.4,1.8
				c0.7,1.7-0.1,3.7-1.8,4.4c-3.3,1.4-6.6,3-9.7,4.7c-0.4,0.2-0.9,0.4-1.4,0.4C103.2,304.2,102,303.6,101.3,302.4z M198.8,293.4
				c-3.5-1-7-1.8-10.5-2.4c-1.8-0.3-3-2.1-2.7-3.9c0.3-1.8,2.1-3,3.9-2.7c3.7,0.7,7.4,1.5,11.1,2.5c1.8,0.5,2.8,2.3,2.3,4.1
				c-0.4,1.4-1.6,2.4-3,2.4C199.6,293.6,199.2,293.5,198.8,293.4z M128,291c-0.5-1.8,0.6-3.6,2.3-4.1c3.6-1,7.4-1.8,11.1-2.5
				c1.8-0.3,3.5,0.9,3.9,2.7c0.3,1.8-0.9,3.5-2.7,3.9c-3.5,0.6-7.1,1.4-10.5,2.4c-0.2,0.1-0.4,0.1-0.7,0.1
				C129.9,293.5,128.5,292.5,128,291z M170.9,289c-3.6-0.2-7.2-0.2-10.8,0c-1.8,0.1-3.4-1.3-3.5-3.2c-0.1-1.8,1.3-3.4,3.1-3.5
				c0,0,0,0,0.1,0c3.8-0.2,7.6-0.2,11.4,0c1.8,0.1,3.3,1.6,3.2,3.5c-0.1,1.7-1.4,3.1-3.1,3.2C171.1,289,171,289,170.9,289z"/>
			<path class="st348" d="M84.9,317c0.7,0,1.3-0.3,1.9-0.7c1.3-1.1,2.7-2.1,4.1-3.1c1.5-1.1,1.8-3.2,0.7-4.7
				c-1.1-1.5-3.2-1.8-4.7-0.7c-1.5,1.1-2.9,2.2-4.3,3.3c-1.4,1.1-1.7,3.2-0.5,4.7C82.8,316.6,83.8,317,84.9,317z"/>
		</g>
		<g>
			<path class="st348" d="M36.3,406.2c1.6-0.1,2.9-1.4,3.1-3c0.2-1.7,0.4-3.4,0.6-5.2c0.3-1.8-1-3.5-2.8-3.8c-1.8-0.3-3.5,1-3.8,2.8
				c-0.2,1.8-0.5,3.6-0.6,5.4c-0.2,1.8,1.2,3.5,3,3.6C35.9,406.2,36.1,406.2,36.3,406.2z"/>
			<path class="st348" d="M167.1,548.5c-1.8,0-3.4-1.4-3.4-3.3c0-1.8,1.4-3.4,3.3-3.4c3.5-0.1,7.1-0.3,10.6-0.6
				c1.8-0.2,3.5,1.2,3.6,3c0.2,1.8-1.2,3.5-3,3.6c-1.5,0.1-3.1,0.3-4.6,0.4C171.4,548.4,169.2,548.5,167.1,548.5z M192.1,542.5
				c-0.4-1.8,0.7-3.6,2.5-4c3.4-0.8,6.9-1.8,10.2-2.9c1.7-0.6,3.6,0.4,4.2,2.1c0.6,1.7-0.4,3.6-2.1,4.2c-3.5,1.2-7.1,2.2-10.8,3
				c-0.2,0-0.4,0.1-0.6,0.1C194,545.1,192.5,544.1,192.1,542.5z M148.9,547.6c-3.7-0.5-7.4-1.1-11-1.8c-1.8-0.4-3-2.1-2.6-3.9
				c0.4-1.8,2.1-3,3.9-2.6c3.5,0.7,7,1.3,10.5,1.7c1.8,0.2,3.1,1.9,2.9,3.7c-0.2,1.6-1.5,2.8-3.1,2.9
				C149.3,547.6,149.1,547.6,148.9,547.6z M219.3,533.5c-0.8-1.7-0.1-3.7,1.5-4.5c3.2-1.5,6.3-3.3,9.3-5.1c1.6-0.9,3.6-0.4,4.6,1.2
				c0.9,1.6,0.4,3.6-1.2,4.6c-3.2,1.9-6.5,3.7-9.8,5.3c-0.4,0.2-0.8,0.3-1.2,0.3C221.2,535.5,219.9,534.8,219.3,533.5z M120.4,540.8
				c-3.5-1.3-7-2.7-10.4-4.2c-1.7-0.8-2.4-2.7-1.6-4.4c0.8-1.7,2.7-2.4,4.4-1.6c3.2,1.5,6.5,2.8,9.8,4c1.7,0.6,2.6,2.5,2,4.3
				c-0.5,1.3-1.6,2.1-2.9,2.2C121.3,541,120.9,540.9,120.4,540.8z M94.1,527.9c-3.1-2-6.2-4.1-9.2-6.4c-1.5-1.1-1.8-3.2-0.6-4.7
				c1.1-1.5,3.2-1.8,4.7-0.6c2.8,2.1,5.7,4.2,8.7,6.1c1.6,1,2,3,1,4.6c-0.6,0.9-1.6,1.5-2.6,1.5C95.4,528.5,94.7,528.3,94.1,527.9z
				 M71.2,509.6c-2.6-2.6-5.2-5.4-7.6-8.2c-1.2-1.4-1-3.5,0.4-4.7c1.4-1.2,3.5-1,4.7,0.4c2.3,2.7,4.7,5.3,7.2,7.8
				c1.3,1.3,1.3,3.4,0,4.7c-0.6,0.6-1.4,0.9-2.1,1C72.9,510.6,71.9,510.3,71.2,509.6z M52.9,486.7c-2-3.1-3.9-6.4-5.6-9.7
				c-0.9-1.6-0.2-3.6,1.4-4.5c1.6-0.9,3.6-0.2,4.5,1.4c1.6,3.1,3.4,6.2,5.3,9.2c1,1.6,0.5,3.6-1,4.6c-0.5,0.3-1,0.5-1.6,0.5
				C54.7,488.4,53.5,487.8,52.9,486.7z M40,460.4c-1.3-3.5-2.4-7.1-3.3-10.7c-0.5-1.8,0.6-3.6,2.4-4.1c1.8-0.5,3.6,0.6,4.1,2.4
				c0.9,3.4,2,6.8,3.2,10.1c0.6,1.7-0.3,3.6-2,4.3c-0.3,0.1-0.6,0.2-0.9,0.2C41.9,462.7,40.5,461.8,40,460.4z M33.2,431.9
				c-0.3-2.7-0.6-5.5-0.8-8.2c-0.1-1-0.1-2-0.2-3c-0.1-1.8,1.3-3.4,3.2-3.5c1.8-0.1,3.4,1.4,3.5,3.2c0,0.9,0.1,1.9,0.1,2.8
				c0.2,2.6,0.4,5.2,0.7,7.8c0.2,1.8-1.1,3.5-2.9,3.7c-0.1,0-0.1,0-0.2,0C35,434.9,33.4,433.7,33.2,431.9z"/>
			<path class="st348" d="M246.7,520c0.7,0,1.3-0.3,1.9-0.7c1.4-1.1,2.8-2.3,4.2-3.5c1.4-1.2,1.5-3.3,0.3-4.7
				c-1.2-1.4-3.3-1.5-4.7-0.3c-1.3,1.1-2.6,2.3-4,3.3c-1.4,1.2-1.7,3.2-0.5,4.7C244.6,519.7,245.7,520.1,246.7,520z"/>
		</g>
		<g>
			<linearGradient id="SVGID_4_" gradientUnits="userSpaceOnUse" x1="-151.7975" y1="-12.0385" x2="576.916" y2="968.3168">
				<stop  offset="0" style="stop-color:#F2908F"/>
				<stop  offset="1" style="stop-color:#EE7065"/>
			</linearGradient>
			<path style="fill:url(#SVGID_4_);" d="M253,463.2c0.4-0.5,0.4-1.3,0-1.8L242,446c3.4-8.2,5.5-17,6.1-26.1l16.7-9
				c0.6-0.3,0.9-1,0.8-1.6l-3.7-22.4c-0.1-0.7-0.6-1.2-1.3-1.3l-18.7-3.2c-3.5-8.4-8.3-16.1-14.2-22.7l5.4-18.2
				c0.2-0.6,0-1.3-0.6-1.7L214,326.5c-0.5-0.4-1.3-0.4-1.8,0l-15.5,11c-8.2-3.4-17-5.5-26.1-6.1l-9-16.7c-0.3-0.6-1-0.9-1.6-0.8
				l-22.4,3.7c-0.7,0.1-1.2,0.6-1.3,1.3l-3.2,18.7c-8.4,3.5-16.1,8.3-22.7,14.2l-18.2-5.4c-0.6-0.2-1.3,0-1.7,0.6l-13.2,18.5
				c-0.4,0.5-0.4,1.3,0,1.8l11,15.5c-3.4,8.2-5.5,17-6.1,26.1l-16.7,9c-0.6,0.3-0.9,1-0.8,1.6l3.7,22.4c0.1,0.7,0.6,1.2,1.3,1.3
				l18.7,3.2c3.5,8.4,8.3,16.1,14.2,22.7l-5.4,18.2c-0.2,0.6,0,1.3,0.6,1.7l18.5,13.2c0.5,0.4,1.3,0.4,1.8,0l15.5-11
				c8.2,3.4,17,5.5,26.1,6.1l9,16.7c0.3,0.6,1,0.9,1.6,0.8l22.4-3.7c0.7-0.1,1.2-0.6,1.3-1.3l3.2-18.7c8.4-3.5,16.1-8.3,22.7-14.2
				l18.2,5.4c0.6,0.2,1.3,0,1.7-0.6L253,463.2z"/>
			<path class="st350" d="M163.3,437.2c-12.6-1-21.9-12.1-20.9-24.7c0.5-6.1,3.4-11.6,8-15.6c4.7-3.9,10.6-5.8,16.7-5.3
				c12.6,1,21.9,12.1,20.9,24.7c-1,11.4-10.2,20.2-21.3,20.9C165.5,437.3,164.4,437.3,163.3,437.2z M153.8,401
				c-3.6,3-5.8,7.3-6.1,11.9c-0.8,9.6,6.4,18.1,16,18.9c9.6,0.8,18.1-6.4,18.9-16c0.8-9.6-6.4-18.1-16-18.9c-0.9-0.1-1.7-0.1-2.6,0
				C160.3,397.1,156.7,398.5,153.8,401z"/>
			<path class="st350" d="M168.3,470.2c1.9-0.1,3.8-0.3,5.7-0.7l0,0c0.6-0.1,1.2-0.2,1.8-0.3c3-0.6,5.9-1.4,8.7-2.5c0,0,0.1,0,0.1,0
				c0.1,0,0.2-0.1,0.3-0.1c0.2-0.1,0.4-0.2,0.6-0.2c0.6-0.2,0.9-0.8,0.8-1.3c0-0.1,0-0.3-0.1-0.4c-0.3-0.7-1-1-1.7-0.7
				c-3.5,1.4-7.2,2.4-11,3c-18.7,3.1-36.8-3.9-48.6-17.1c-6.6-7.3-11.2-16.5-12.9-27c-0.3-1.8-0.5-3.7-0.6-5.5
				c-0.8-12.3,2.7-24.3,9.9-34.4c8.3-11.6,20.7-19.3,34.8-21.7c29.1-4.8,56.8,14.9,61.6,44.1c0.3,1.8,0.5,3.6,0.6,5.4
				c0.5,7.8-0.7,15.7-3.6,23c-0.1,0.2-0.1,0.4-0.1,0.6c0,0.5,0.3,1,0.8,1.2c0.7,0.3,1.5-0.1,1.7-0.8c3-7.7,4.3-15.9,3.8-24.1
				c-0.1-1.9-0.3-3.8-0.6-5.7c-5.1-30.6-34.1-51.3-64.7-46.3c-14.8,2.5-27.8,10.5-36.5,22.7c-7.6,10.6-11.2,23.3-10.4,36.2
				c0.1,1.9,0.3,3.8,0.7,5.7c2.5,14.8,10.5,27.8,22.7,36.5C142.7,467.4,155.4,471,168.3,470.2z"/>
		</g>
	</g>
	<g>
		<g>
			<path class="st348" d="M414.3,504.7c0.9-0.1,1.7-0.7,1.9-1.6c0.4-1.7,0.7-3.4,1-5.2c0.2-1.1-0.6-2.2-1.7-2.4
				c-1.1-0.2-2.2,0.6-2.4,1.7c-0.3,1.6-0.6,3.3-1,4.9c-0.3,1.1,0.4,2.2,1.6,2.5C413.9,504.7,414.1,504.7,414.3,504.7z"/>
			<path class="st348" d="M416.2,489c-1.1,0-2-1-2-2.1c0.1-2.9,0.1-5.8-0.1-8.6c0-0.6-0.1-1.2-0.1-1.8c-0.1-1.1,0.7-2.1,1.9-2.2
				c1.1,0,2.1,0.7,2.2,1.9c0.1,0.6,0.1,1.3,0.1,1.9c0.2,3,0.2,6,0.1,9.1c0,1.1-0.9,1.9-1.9,2C416.3,489,416.3,489,416.2,489z
				 M412.4,466c-0.7-3.4-1.6-6.8-2.8-10.1c-0.4-1.1,0.2-2.2,1.3-2.6c1.1-0.4,2.2,0.2,2.6,1.3c1.2,3.4,2.2,7,2.9,10.6
				c0.2,1.1-0.5,2.2-1.6,2.4c-0.1,0-0.2,0-0.3,0C413.6,467.7,412.7,467,412.4,466z M405.7,446.3c-1.5-3.1-3.3-6.2-5.2-9.1
				c-0.6-1-0.4-2.2,0.6-2.8c1-0.6,2.2-0.4,2.8,0.6c2,3.1,3.8,6.3,5.4,9.5c0.5,1,0.1,2.3-0.9,2.8c-0.2,0.1-0.5,0.2-0.8,0.2
				C406.9,447.5,406.1,447.1,405.7,446.3z M394.3,428.8c-2.2-2.7-4.7-5.2-7.2-7.6c-0.8-0.8-0.9-2.1-0.1-2.9c0.8-0.8,2.1-0.9,2.9-0.1
				c2.7,2.5,5.2,5.1,7.6,7.9c0.7,0.9,0.6,2.2-0.2,2.9c-0.4,0.3-0.8,0.5-1.2,0.5C395.4,429.6,394.7,429.3,394.3,428.8z M379,414.6
				c-2.8-2-5.8-3.9-8.8-5.6c-1-0.5-1.4-1.8-0.8-2.8c0.5-1,1.8-1.4,2.8-0.8c3.2,1.7,6.3,3.7,9.3,5.8c0.9,0.7,1.1,2,0.5,2.9
				c-0.4,0.5-0.9,0.8-1.5,0.9C379.8,415,379.4,414.9,379,414.6z M360.7,404.6c-3.2-1.3-6.6-2.4-9.9-3.2c-1.1-0.3-1.8-1.4-1.5-2.5
				c0.3-1.1,1.4-1.8,2.5-1.5c3.5,0.9,7,2.1,10.4,3.4c1.1,0.4,1.6,1.6,1.2,2.7c-0.3,0.8-1,1.2-1.8,1.3
				C361.3,404.8,361,404.7,360.7,404.6z M340.5,399.4c-3.4-0.4-6.9-0.7-10.4-0.7c-1.1,0-2.1-0.9-2-2.1c0-1.1,0.9-2,2.1-2
				c3.7,0,7.3,0.3,10.9,0.7c1.1,0.1,1.9,1.2,1.8,2.3c-0.1,1-0.9,1.7-1.9,1.8C340.7,399.4,340.6,399.4,340.5,399.4z M306.8,399.6
				c-0.3-1.1,0.4-2.2,1.5-2.5c3.1-0.7,6.2-1.3,9.4-1.8c0.5-0.1,1-0.1,1.4-0.2c1.1-0.2,2.2,0.7,2.3,1.8c0.1,1.1-0.7,2.2-1.8,2.3
				c-0.4,0.1-0.9,0.1-1.4,0.2c-3,0.4-6,1-8.9,1.7c-0.1,0-0.2,0-0.4,0.1C308,401.2,307.1,400.6,306.8,399.6z"/>
		</g>
		<g>
			<path class="st348" d="M333.8,572.3c-3.6,0.2-7.2,0.1-10.8-0.1c-1.1-0.1-2-1.1-1.9-2.2c0.1-1.1,1.1-2,2.2-1.9
				c3.4,0.2,6.9,0.3,10.3,0.1c1.1-0.1,2.1,0.8,2.2,2C335.9,571.3,335,572.2,333.8,572.3C333.9,572.3,333.9,572.3,333.8,572.3z
				 M342.2,569.4c-0.2-1.1,0.6-2.2,1.7-2.4c3.4-0.6,6.7-1.4,10-2.4c1.1-0.3,2.2,0.3,2.6,1.4c0.3,1.1-0.3,2.2-1.4,2.6
				c-3.4,1-7,1.9-10.5,2.5c-0.1,0-0.1,0-0.2,0C343.3,571.2,342.4,570.5,342.2,569.4z M312.4,570.8c-3.5-0.7-7-1.6-10.4-2.7
				c-1.1-0.4-1.7-1.5-1.3-2.6c0.4-1.1,1.5-1.7,2.6-1.3c3.2,1.1,6.6,1.9,10,2.6c1.1,0.2,1.8,1.3,1.6,2.4c-0.2,0.9-1,1.6-1.9,1.7
				C312.7,570.8,312.6,570.8,312.4,570.8z M362.5,563.9c-0.5-1,0-2.3,1.1-2.7c3.1-1.4,6.2-3,9.1-4.7c1-0.6,2.2-0.3,2.8,0.7
				c0.6,1,0.3,2.2-0.7,2.8c-3.1,1.8-6.3,3.5-9.6,4.9c-0.2,0.1-0.5,0.2-0.7,0.2C363.7,565.1,362.8,564.7,362.5,563.9z M291.9,564.1
				c-3.2-1.5-6.4-3.2-9.5-5.1c-1-0.6-1.3-1.9-0.7-2.8c0.6-1,1.9-1.3,2.8-0.7c2.9,1.8,5.9,3.5,9,4.9c1,0.5,1.5,1.7,1,2.7
				c-0.3,0.7-1,1.1-1.7,1.2C292.6,564.3,292.2,564.2,291.9,564.1z M273.7,552.7c-2.8-2.3-5.5-4.7-8-7.3c-0.8-0.8-0.8-2.1,0-2.9
				c0.8-0.8,2.1-0.8,2.9,0c2.4,2.4,4.9,4.8,7.6,6.9c0.9,0.7,1,2,0.3,2.9c-0.4,0.5-0.9,0.7-1.5,0.8
				C274.6,553.2,274.1,553.1,273.7,552.7z M258.6,537.3c-2.2-2.9-4.2-5.9-6-9c-0.6-1-0.2-2.2,0.7-2.8c1-0.6,2.2-0.2,2.8,0.7
				c1.7,2.9,3.6,5.8,5.7,8.5c0.7,0.9,0.5,2.2-0.4,2.9c-0.3,0.3-0.7,0.4-1.1,0.4C259.8,538.1,259.1,537.9,258.6,537.3z"/>
			<path class="st348" d="M382.7,554.3c0.4,0,0.8-0.2,1.1-0.4c1.4-1.1,2.8-2.2,4.1-3.3c0.9-0.7,0.9-2,0.2-2.9
				c-0.7-0.9-2-0.9-2.9-0.2c-1.2,1.1-2.6,2.2-3.9,3.2c-0.9,0.7-1.1,2-0.4,2.9C381.3,554.1,382,554.3,382.7,554.3z"/>
		</g>
		<g>
			<linearGradient id="SVGID_6_" gradientUnits="userSpaceOnUse" x1="-78.8002" y1="-66.2985" x2="649.9136" y2="914.0573">
				<stop  offset="0" style="stop-color:#F2908F"/>
				<stop  offset="1" style="stop-color:#EE7065"/>
			</linearGradient>
			<path style="fill:url(#SVGID_6_);" d="M388.1,515.5c0.3-0.4,0.3-0.8,0-1.2l-7.3-10.3c2.3-5.5,3.7-11.4,4.1-17.4l11.1-6
				c0.4-0.2,0.6-0.6,0.5-1.1l-2.5-15c-0.1-0.4-0.4-0.8-0.9-0.9l-12.5-2.1c-2.3-5.6-5.6-10.7-9.5-15.2l3.6-12.2
				c0.1-0.4,0-0.9-0.4-1.1L362,424c-0.4-0.3-0.8-0.3-1.2,0l-10.3,7.3c-5.5-2.3-11.4-3.7-17.4-4.1l-6-11.1c-0.2-0.4-0.6-0.6-1.1-0.5
				l-15,2.5c-0.4,0.1-0.8,0.4-0.9,0.9l-2.1,12.5c-5.6,2.3-10.7,5.6-15.2,9.5l-12.2-3.6c-0.4-0.1-0.9,0-1.1,0.4l-8.9,12.4
				c-0.3,0.4-0.3,0.8,0,1.2l7.3,10.3c-2.3,5.5-3.7,11.4-4.1,17.4l-11.1,6c-0.4,0.2-0.6,0.6-0.5,1.1l2.5,15c0.1,0.4,0.4,0.8,0.9,0.9
				l12.5,2.1c2.3,5.6,5.6,10.7,9.5,15.2l-3.6,12.2c-0.1,0.4,0,0.9,0.4,1.1l12.4,8.9c0.4,0.3,0.8,0.3,1.2,0l10.3-7.3
				c5.5,2.3,11.4,3.7,17.4,4.1l6,11.1c0.2,0.4,0.6,0.6,1.1,0.5l15-2.5c0.4-0.1,0.8-0.4,0.9-0.9l2.1-12.5c5.6-2.3,10.7-5.6,15.2-9.5
				l12.2,3.6c0.4,0.1,0.9,0,1.1-0.4L388.1,515.5z"/>
			<path class="st350" d="M328.1,498.3c-4.1-0.3-7.9-2.3-10.6-5.5c-2.7-3.2-4-7.2-3.6-11.4c0.7-8.6,8.2-14.9,16.8-14.2
				c8.6,0.7,14.9,8.3,14.2,16.8c-0.3,4.1-2.3,7.9-5.5,10.6c-2.6,2.2-5.7,3.4-9,3.7C329.6,498.4,328.8,498.4,328.1,498.3z
				 M317.9,481.8c-0.3,3.1,0.7,6,2.7,8.4c2,2.3,4.7,3.8,7.8,4l0,0c3,0.2,6-0.7,8.4-2.7c2.3-2,3.8-4.7,4-7.8
				c0.5-6.3-4.2-11.8-10.5-12.4c-0.6,0-1.1-0.1-1.7,0C323,471.7,318.4,476.1,317.9,481.8z"/>
			<path class="st350" d="M331.5,521.3c1.3-0.1,2.6-0.2,3.9-0.4c2.6-0.4,5.2-1.1,7.6-2.1c0.1,0,0.2-0.1,0.3-0.1
				c0.9-0.3,1.4-1.2,1.3-2c0-0.2-0.1-0.4-0.1-0.6c-0.4-1.1-1.6-1.6-2.7-1.2c-2.3,0.9-4.7,1.6-7.1,2h0c-0.1,0-0.3,0-0.4,0.1
				c-5.8,0.9-11.5,0.3-16.9-1.6c-2.9-1-5.7-2.5-8.3-4.3c0,0,0,0-0.1,0c-0.1,0-0.1-0.1-0.2-0.1c-7.5-5.4-12.5-13.4-14-22.5
				c-0.2-1.2-0.3-2.4-0.4-3.5c-0.5-7.9,1.7-15.7,6.4-22.3c5.4-7.5,13.4-12.5,22.5-14c9.1-1.5,18.3,0.6,25.8,6
				c7.5,5.4,12.5,13.4,14,22.5c0.2,1.2,0.3,2.3,0.4,3.5c0.3,5.1-0.5,10.1-2.3,14.9c-0.1,0.3-0.2,0.6-0.1,0.9c0,0.8,0.5,1.5,1.3,1.8
				c1.1,0.4,2.3-0.1,2.7-1.2c2.1-5.3,3-11,2.6-16.6c-0.1-1.3-0.2-2.6-0.4-3.9c-1.7-10.2-7.3-19.2-15.7-25.2
				c-8.4-6-18.7-8.4-28.9-6.7c-10.2,1.7-19.2,7.3-25.2,15.7c-5.2,7.3-7.7,16.1-7.2,24.9c0.1,1.3,0.2,2.6,0.5,4
				C294.1,508.7,311.9,522.5,331.5,521.3z"/>
		</g>
	</g>
</g>
</svg>
