<?xml version="1.0" encoding="utf-8"?>
<!-- Generator: Adobe Illustrator 27.5.0, SVG Export Plug-In . SVG Version: 6.00 Build 0)  -->
<svg version="1.1" xmlns="http://www.w3.org/2000/svg" xmlns:xlink="http://www.w3.org/1999/xlink" x="0px" y="0px"
	 viewBox="0 0 500 500" style="enable-background:new 0 0 500 500;" xml:space="preserve">
<g id="BACKGROUND">
	<rect style="fill:#FFFFFF;" width="500" height="500"/>
</g>
<g id="OBJECTS">
	<g>
		<g>
			<rect x="20.958" y="245.048" style="fill:#DFDEDB;" width="18.03" height="6.287"/>
			<rect x="336.148" y="303.188" style="fill:#DFDEDB;" width="18.03" height="6.287"/>
			<rect x="442.918" y="256.736" style="fill:#DFDEDB;" width="18.03" height="6.287"/>
			<rect x="267.997" y="58.302" style="fill:#DFDEDB;" width="18.03" height="6.287"/>
			<rect x="27.821" y="213.151" style="fill:#DFDEDB;" width="9.5" height="3.313"/>
			<circle style="fill:#DFDEDB;" cx="111.123" cy="184.877" r="5.17"/>
			<circle style="fill:#DFDEDB;" cx="477.301" cy="211.293" r="5.17"/>
			<path style="fill:#DFDEDB;" d="M298.496,308.982c0,1.505-1.22,2.724-2.724,2.724s-2.724-1.22-2.724-2.724s1.22-2.724,2.724-2.724
				S298.496,307.477,298.496,308.982z"/>
			<polygon style="fill:#DFDEDB;" points="29.973,176.948 31.941,183.005 38.31,183.005 33.158,186.749 35.126,192.806 
				29.973,189.063 24.82,192.806 26.788,186.749 21.636,183.005 28.005,183.005 			"/>
			<polygon style="fill:#DFDEDB;" points="459.514,224.795 460.551,227.987 463.907,227.987 461.192,229.96 462.229,233.151 
				459.514,231.179 456.799,233.151 457.836,229.96 455.121,227.987 458.477,227.987 			"/>
			<polygon style="fill:#DFDEDB;" points="122.866,430.123 124.834,436.181 131.203,436.181 126.051,439.924 128.019,445.982 
				122.866,442.238 117.713,445.982 119.681,439.924 114.529,436.181 120.898,436.181 			"/>
			<polygon style="fill:#DFDEDB;" points="304.066,335.044 306.034,341.101 312.404,341.101 307.251,344.845 309.219,350.902 
				304.066,347.159 298.913,350.902 300.882,344.845 295.729,341.101 302.098,341.101 			"/>
			<polygon style="fill:#DFDEDB;" points="477.301,321.434 479.269,327.492 485.638,327.492 480.485,331.235 482.453,337.293 
				477.301,333.549 472.148,337.293 474.116,331.235 468.963,327.492 475.332,327.492 			"/>
			<polygon style="fill:#DFDEDB;" points="216.16,276.417 218.128,282.474 224.497,282.474 219.345,286.218 221.313,292.275 
				216.16,288.531 211.007,292.275 212.975,286.218 207.823,282.474 214.192,282.474 			"/>
			<polygon style="fill:#DFDEDB;" points="216.16,276.417 218.128,282.474 224.497,282.474 219.345,286.218 221.313,292.275 
				216.16,288.531 211.007,292.275 212.975,286.218 207.823,282.474 214.192,282.474 			"/>
			<polygon style="fill:#DFDEDB;" points="237.981,434.254 239.949,440.312 246.318,440.312 241.165,444.056 243.133,450.113 
				237.981,446.369 232.828,450.113 234.796,444.056 229.643,440.312 236.012,440.312 			"/>
			<polygon style="fill:#DFDEDB;" points="293.174,81.897 295.142,87.955 301.511,87.955 296.358,91.698 298.326,97.756 
				293.174,94.012 288.021,97.756 289.989,91.698 284.836,87.955 291.206,87.955 			"/>
			<polygon style="fill:#DFDEDB;" points="385.717,141.461 387.685,147.519 394.054,147.519 388.901,151.262 390.87,157.32 
				385.717,153.576 380.564,157.32 382.532,151.262 377.38,147.519 383.749,147.519 			"/>
			
				<rect x="109.45" y="37.554" transform="matrix(0.7071 0.7071 -0.7071 0.7071 63.2171 -68.3009)" style="fill:#DFDEDB;" width="9.212" height="9.212"/>
			<polygon style="fill:#DFDEDB;" points="109.721,76.477 121.694,75.305 122.866,87.278 			"/>
			<polygon style="fill:#DFDEDB;" points="125.864,331.321 132.173,330.703 132.79,337.012 			"/>
			<polygon style="fill:#DFDEDB;" points="34.564,329.363 34.308,319.251 44.891,322.342 			"/>
			<polygon style="fill:#DFDEDB;" points="222.605,399.255 222.348,389.143 232.931,392.234 			"/>
			<polygon style="fill:#DFDEDB;" points="327.255,132.516 326.998,122.404 337.581,125.495 			"/>
			<polygon style="fill:#DFDEDB;" points="367.604,355.323 367.469,349.995 373.045,351.624 			"/>
			<polygon style="fill:#DFDEDB;" points="454.348,182.004 454.091,171.891 464.674,174.983 			"/>
			<path style="fill:#DFDEDB;" d="M127.863,141.791c-2.044-1.27-5.075-0.503-6.269,1.587c-0.587,1.028-0.767,2.283-1.524,3.194
				c-1.098,1.32-3.015,1.504-4.724,1.675c-1.792,0.18-3.627,0.471-5.174,1.395c-1.546,0.924-2.753,2.615-2.621,4.411
				c0.972-0.089,1.769-0.102,2.741-0.191c0.061,1.233,0.172,2.513,0.233,3.746c0.98-1.832,2.689-3.294,4.646-3.99
				c2.371-0.843,5.254-0.708,7.014-2.507c1.246-1.273,1.638-3.286,3.1-4.303c1.144-0.796,2.662-0.773,4.041-0.568
				c-0.812-0.719-1.635-1.43-2.448-2.149C127.327,143.236,127.237,142.525,127.863,141.791z"/>
			<path style="fill:#DFDEDB;" d="M212.542,423.738c-1.077-0.669-2.674-0.265-3.303,0.836c-0.309,0.542-0.404,1.203-0.803,1.683
				c-0.578,0.696-1.589,0.792-2.489,0.883c-0.944,0.095-1.911,0.248-2.726,0.735c-0.815,0.487-1.451,1.378-1.381,2.324
				c0.512-0.047,0.932-0.054,1.445-0.1c0.032,0.65,0.09,1.324,0.122,1.974c0.516-0.965,1.417-1.735,2.448-2.102
				c1.249-0.444,2.768-0.373,3.696-1.321c0.656-0.671,0.863-1.731,1.633-2.267c0.603-0.42,1.403-0.407,2.129-0.299
				c-0.428-0.379-0.862-0.754-1.29-1.132C212.26,424.5,212.212,424.125,212.542,423.738z"/>
			<path style="fill:#DFDEDB;" d="M479.835,416.749c-2.044-1.27-5.075-0.503-6.269,1.587c-0.587,1.028-0.767,2.283-1.524,3.194
				c-1.098,1.32-3.015,1.504-4.724,1.675c-1.792,0.18-3.627,0.471-5.174,1.395c-1.546,0.924-2.753,2.615-2.621,4.411
				c0.972-0.089,1.769-0.102,2.741-0.191c0.061,1.233,0.172,2.513,0.233,3.746c0.98-1.832,2.689-3.294,4.646-3.99
				c2.372-0.843,5.254-0.708,7.014-2.507c1.246-1.273,1.638-3.286,3.1-4.303c1.144-0.796,2.662-0.773,4.041-0.568
				c-0.812-0.719-1.635-1.43-2.448-2.149C479.299,418.194,479.209,417.483,479.835,416.749z"/>
			<path style="fill:#DFDEDB;" d="M323.338,275.349c-1.1-0.683-2.731-0.27-3.373,0.854c-0.316,0.553-0.413,1.229-0.82,1.719
				c-0.591,0.71-1.623,0.809-2.542,0.901c-0.964,0.097-1.952,0.254-2.784,0.751c-0.832,0.497-1.482,1.407-1.41,2.374
				c0.523-0.048,0.952-0.055,1.475-0.103c0.033,0.664,0.092,1.352,0.125,2.016c0.527-0.986,1.447-1.772,2.5-2.147
				c1.276-0.454,2.827-0.381,3.774-1.349c0.67-0.685,0.882-1.768,1.668-2.316c0.616-0.429,1.432-0.416,2.174-0.306
				c-0.437-0.387-0.88-0.77-1.317-1.156C323.05,276.127,323.002,275.744,323.338,275.349z"/>
			<path style="fill:#DFDEDB;" d="M313.495,164.587c-2.044-1.27-5.075-0.503-6.269,1.587c-0.587,1.028-0.767,2.283-1.524,3.194
				c-1.098,1.32-3.015,1.504-4.724,1.675c-1.792,0.18-3.628,0.471-5.174,1.395c-1.546,0.924-2.753,2.615-2.621,4.411
				c0.972-0.089,1.769-0.102,2.741-0.191c0.061,1.233,0.172,2.513,0.233,3.746c0.98-1.832,2.689-3.294,4.646-3.99
				c2.371-0.843,5.254-0.708,7.014-2.507c1.246-1.273,1.638-3.286,3.1-4.303c1.144-0.796,2.662-0.773,4.041-0.568
				c-0.812-0.719-1.635-1.43-2.448-2.149C312.959,166.033,312.869,165.321,313.495,164.587z"/>
			<path style="fill:#DFDEDB;" d="M313.495,395.439c-2.044-1.27-5.075-0.503-6.269,1.587c-0.587,1.028-0.767,2.283-1.524,3.194
				c-1.098,1.32-3.015,1.504-4.724,1.675c-1.792,0.18-3.628,0.471-5.174,1.395c-1.546,0.924-2.753,2.615-2.621,4.411
				c0.972-0.089,1.769-0.102,2.741-0.191c0.061,1.233,0.172,2.513,0.233,3.746c0.98-1.832,2.689-3.294,4.646-3.99
				c2.371-0.843,5.254-0.708,7.014-2.507c1.246-1.273,1.638-3.286,3.1-4.303c1.144-0.796,2.662-0.773,4.041-0.568
				c-0.812-0.719-1.635-1.43-2.448-2.149C312.959,396.885,312.869,396.173,313.495,395.439z"/>
			<path style="fill:#DFDEDB;" d="M141.128,286.009c-2.044-1.27-5.075-0.503-6.269,1.587c-0.587,1.028-0.767,2.283-1.524,3.194
				c-1.098,1.32-3.015,1.504-4.724,1.675c-1.792,0.18-3.627,0.471-5.174,1.395c-1.546,0.924-2.753,2.615-2.62,4.411
				c0.972-0.089,1.769-0.102,2.741-0.191c0.061,1.234,0.172,2.513,0.232,3.746c0.98-1.832,2.689-3.294,4.646-3.99
				c2.371-0.843,5.254-0.708,7.014-2.507c1.246-1.273,1.638-3.286,3.1-4.303c1.144-0.796,2.662-0.773,4.041-0.568
				c-0.812-0.719-1.635-1.43-2.447-2.149C140.592,287.454,140.502,286.743,141.128,286.009z"/>
			<path style="fill:#DFDEDB;" d="M395.145,444.38c-2.044-1.27-5.075-0.503-6.269,1.587c-0.587,1.028-0.767,2.283-1.524,3.194
				c-1.098,1.32-3.015,1.504-4.724,1.675c-1.792,0.18-3.628,0.471-5.174,1.395c-1.546,0.924-2.753,2.615-2.62,4.411
				c0.972-0.089,1.769-0.102,2.741-0.191c0.061,1.233,0.172,2.513,0.232,3.746c0.98-1.832,2.689-3.294,4.646-3.99
				c2.372-0.843,5.254-0.708,7.014-2.507c1.246-1.273,1.638-3.286,3.1-4.303c1.144-0.796,2.662-0.773,4.041-0.568
				c-0.812-0.719-1.635-1.43-2.447-2.149C394.61,445.825,394.52,445.114,395.145,444.38z"/>
			<path style="fill:#DFDEDB;" d="M403.483,76.06c-2.044-1.27-5.075-0.502-6.269,1.587c-0.587,1.028-0.767,2.283-1.524,3.194
				c-1.098,1.32-3.015,1.504-4.724,1.675c-1.792,0.18-3.628,0.471-5.174,1.395c-1.546,0.924-2.753,2.615-2.621,4.411
				c0.972-0.089,1.769-0.102,2.741-0.191c0.061,1.233,0.172,2.513,0.233,3.746c0.98-1.832,2.689-3.294,4.646-3.99
				c2.371-0.843,5.254-0.708,7.014-2.507c1.246-1.273,1.638-3.286,3.1-4.303c1.144-0.796,2.662-0.773,4.041-0.568
				c-0.812-0.719-1.635-1.43-2.447-2.149C402.947,77.506,402.857,76.794,403.483,76.06z"/>
			<polygon style="fill:#DFDEDB;" points="38.407,71.41 26.937,82.88 25.933,78.486 21.539,77.482 33.009,66.012 34.578,69.841 			
				"/>
			<polygon style="fill:#DFDEDB;" points="69.491,366.462 58.021,377.932 57.017,373.538 52.623,372.535 64.093,361.065 
				65.662,364.894 			"/>
			<path style="fill:#DFDEDB;" d="M39.702,417.577c2.635,0.46,5.341,0.745,7.979,0.3c2.637-0.445,5.222-1.693,6.835-3.827
				c0.287,0.047,0.496,0.242,0.699,0.45c0.783,0.804,1.565,1.607,2.348,2.411c-0.981,2.287-3.332,3.726-5.749,4.319
				c-2.417,0.593-4.948,0.428-7.431,0.259c-1.525-0.104-3.051-0.207-4.576-0.311C39.587,420.072,39.526,418.691,39.702,417.577z"/>
			<path style="fill:#DFDEDB;" d="M209.779,85.758c2.635,0.46,5.341,0.745,7.979,0.3c2.637-0.446,5.222-1.693,6.835-3.827
				c0.286,0.047,0.496,0.242,0.699,0.45c0.783,0.804,1.566,1.607,2.348,2.411c-0.981,2.287-3.331,3.726-5.749,4.318
				c-2.417,0.593-4.948,0.428-7.431,0.259c-1.525-0.104-3.051-0.207-4.576-0.311C209.664,88.253,209.603,86.871,209.779,85.758z"/>
			<path style="fill:#DFDEDB;" d="M220.12,356.186c2.635,0.46,5.342,0.745,7.979,0.3c2.637-0.446,5.222-1.693,6.835-3.827
				c0.286,0.047,0.496,0.242,0.699,0.45c0.783,0.804,1.566,1.607,2.348,2.411c-0.981,2.287-3.331,3.726-5.749,4.319
				c-2.417,0.593-4.948,0.428-7.431,0.259c-1.526-0.104-3.051-0.207-4.577-0.311C220.005,358.681,219.944,357.3,220.12,356.186z"/>
			<path style="fill:#DFDEDB;" d="M387.006,382.871c2.635,0.46,5.341,0.745,7.979,0.299c2.637-0.445,5.222-1.693,6.835-3.827
				c0.287,0.047,0.496,0.242,0.699,0.45c0.783,0.804,1.565,1.607,2.348,2.411c-0.981,2.287-3.332,3.726-5.749,4.318
				c-2.417,0.593-4.948,0.428-7.431,0.259c-1.525-0.104-3.051-0.208-4.576-0.311C386.891,385.366,386.83,383.985,387.006,382.871z"
				/>
			<path style="fill:#DFDEDB;" d="M306.079,437.782c2.635,0.46,5.341,0.745,7.979,0.3c2.637-0.445,5.222-1.693,6.835-3.827
				c0.287,0.047,0.496,0.242,0.699,0.451c0.783,0.804,1.565,1.607,2.348,2.411c-0.981,2.287-3.331,3.726-5.749,4.318
				c-2.417,0.593-4.948,0.428-7.431,0.259c-1.525-0.104-3.051-0.207-4.576-0.311C305.965,440.276,305.903,438.895,306.079,437.782z"
				/>
			
				<rect x="114.895" y="253.94" transform="matrix(0.8069 0.5907 -0.5907 0.8069 174.273 -20.4631)" style="fill:#DFDEDB;" width="7.078" height="4.752"/>
			
				<rect x="300.527" y="217.626" transform="matrix(0.8069 0.5907 -0.5907 0.8069 188.6686 -137.126)" style="fill:#DFDEDB;" width="7.078" height="4.752"/>
			
				<rect x="370.983" y="242.671" transform="matrix(0.8069 0.5907 -0.5907 0.8069 217.063 -173.9055)" style="fill:#DFDEDB;" width="7.078" height="4.752"/>
			
				<rect x="362.841" y="174.278" transform="matrix(0.8069 0.5907 -0.5907 0.8069 175.0962 -182.3049)" style="fill:#DFDEDB;" width="7.078" height="4.752"/>
			<polygon style="fill:#DFDEDB;" points="141.106,121.442 136.742,108.563 146.691,108.563 143.693,121.442 			"/>
			<polygon style="fill:#DFDEDB;" points="289.852,153.941 285.488,141.062 295.437,141.062 292.44,153.941 			"/>
			<polygon style="fill:#DFDEDB;" points="460.339,88.67 455.974,75.791 465.923,75.791 462.926,88.67 			"/>
			<polygon style="fill:#DFDEDB;" points="390.362,185.397 388.062,178.611 393.305,178.611 391.725,185.397 			"/>
			<rect x="449.34" y="467.008" style="fill:#DFDEDB;" width="9.5" height="3.313"/>
			<circle style="fill:#DFDEDB;" cx="424.563" cy="52.973" r="2.724"/>
			<polygon style="fill:#DFDEDB;" points="24.686,365.32 25.723,368.512 29.079,368.512 26.364,370.485 27.401,373.677 
				24.686,371.704 21.971,373.677 23.008,370.485 20.293,368.512 23.649,368.512 			"/>
			<polygon style="fill:#DFDEDB;" points="41.428,27.737 47.736,27.119 48.354,33.428 			"/>
			<polygon style="fill:#DFDEDB;" points="165.256,414.849 165.121,409.52 170.697,411.149 			"/>
			<path style="fill:#DFDEDB;" d="M43.278,122.727c-1.077-0.669-2.674-0.265-3.303,0.836c-0.309,0.542-0.404,1.203-0.803,1.683
				c-0.578,0.696-1.589,0.792-2.489,0.883c-0.944,0.095-1.911,0.248-2.726,0.735c-0.815,0.487-1.451,1.378-1.381,2.324
				c0.512-0.047,0.932-0.054,1.444-0.101c0.032,0.65,0.09,1.324,0.123,1.974c0.516-0.965,1.417-1.735,2.448-2.102
				c1.25-0.444,2.768-0.373,3.696-1.321c0.656-0.671,0.863-1.731,1.633-2.267c0.603-0.42,1.403-0.407,2.129-0.299
				c-0.428-0.379-0.861-0.754-1.289-1.132C42.996,123.489,42.949,123.114,43.278,122.727z"/>
			<polygon style="fill:#DFDEDB;" points="37,162.778 34.7,155.992 39.942,155.992 38.363,162.778 			"/>
			<rect x="60.186" y="258.223" style="fill:#DFDEDB;" width="9.5" height="3.313"/>
			<path style="fill:#DFDEDB;" d="M477.301,394.691c0,1.505-1.22,2.724-2.724,2.724s-2.724-1.22-2.724-2.724s1.22-2.724,2.724-2.724
				S477.301,393.186,477.301,394.691z"/>
			<polygon style="fill:#DFDEDB;" points="204.875,115.584 205.912,118.776 209.268,118.776 206.553,120.749 207.59,123.94 
				204.875,121.968 202.16,123.94 203.197,120.749 200.482,118.776 203.838,118.776 			"/>
			<polygon style="fill:#DFDEDB;" points="366.794,55.765 373.103,55.147 373.72,61.456 			"/>
			<polygon style="fill:#DFDEDB;" points="149.873,171.772 149.738,166.444 155.314,168.072 			"/>
			<path style="fill:#DFDEDB;" d="M422.739,268.5c-1.077-0.669-2.674-0.265-3.303,0.836c-0.309,0.542-0.404,1.203-0.803,1.683
				c-0.578,0.696-1.589,0.792-2.489,0.883c-0.944,0.095-1.911,0.248-2.726,0.735c-0.815,0.487-1.451,1.378-1.381,2.324
				c0.512-0.047,0.932-0.054,1.445-0.1c0.032,0.65,0.09,1.324,0.122,1.974c0.516-0.965,1.417-1.736,2.448-2.102
				c1.249-0.444,2.768-0.373,3.696-1.321c0.656-0.671,0.863-1.731,1.634-2.267c0.603-0.42,1.402-0.407,2.129-0.299
				c-0.428-0.379-0.862-0.754-1.29-1.132C422.457,269.262,422.41,268.887,422.739,268.5z"/>
			<polygon style="fill:#DFDEDB;" points="237.403,263.272 235.104,256.486 240.346,256.486 238.767,263.272 			"/>
			<polygon style="fill:#DFDEDB;" points="24.365,412.913 22.065,406.127 27.308,406.127 25.728,412.913 			"/>
			<rect x="202.824" y="322.651" style="fill:#DFDEDB;" width="9.5" height="3.313"/>
			<path style="fill:#DFDEDB;" d="M484.023,280.746c0,1.504-1.22,2.724-2.724,2.724s-2.724-1.22-2.724-2.724
				c0-1.505,1.22-2.724,2.724-2.724S484.023,279.242,484.023,280.746z"/>
			<polygon style="fill:#DFDEDB;" points="24.686,282.837 25.723,286.028 29.079,286.028 26.364,288.001 27.401,291.193 
				24.686,289.22 21.971,291.193 23.008,288.001 20.293,286.028 23.649,286.028 			"/>
			<polygon style="fill:#DFDEDB;" points="370.257,322.85 376.566,322.233 377.184,328.542 			"/>
			<polygon style="fill:#DFDEDB;" points="347.001,485.744 346.865,480.415 352.442,482.044 			"/>
			<path style="fill:#DFDEDB;" d="M479.544,27.669c-1.077-0.669-2.674-0.265-3.303,0.836c-0.31,0.542-0.404,1.203-0.803,1.683
				c-0.578,0.696-1.589,0.792-2.489,0.883c-0.944,0.095-1.911,0.248-2.726,0.735c-0.815,0.487-1.451,1.378-1.381,2.324
				c0.512-0.047,0.932-0.054,1.444-0.101c0.032,0.65,0.091,1.324,0.122,1.974c0.516-0.965,1.417-1.735,2.448-2.102
				c1.25-0.444,2.768-0.373,3.696-1.321c0.656-0.671,0.863-1.731,1.634-2.267c0.603-0.42,1.402-0.407,2.129-0.3
				c-0.428-0.379-0.861-0.753-1.29-1.132C479.262,28.431,479.214,28.056,479.544,27.669z"/>
			<polygon style="fill:#DFDEDB;" points="298.373,383.309 296.073,376.523 301.316,376.523 299.736,383.309 			"/>
			<polygon style="fill:#DFDEDB;" points="106.248,368.831 103.948,362.045 109.191,362.045 107.611,368.831 			"/>
			<rect x="97.069" y="479.767" style="fill:#DFDEDB;" width="9.5" height="3.313"/>
			<circle style="fill:#DFDEDB;" cx="41.428" cy="472.234" r="2.724"/>
			<polygon style="fill:#DFDEDB;" points="209.625,476.715 210.662,479.907 214.018,479.907 211.303,481.879 212.34,485.071 
				209.625,483.099 206.91,485.071 207.947,481.879 205.232,479.907 208.588,479.907 			"/>
			<polygon style="fill:#DFDEDB;" points="261.276,480.543 267.585,479.925 268.203,486.234 			"/>
			<polygon style="fill:#DFDEDB;" points="321.473,37.492 321.338,32.164 326.914,33.792 			"/>
			<path style="fill:#DFDEDB;" d="M253.358,272.412c-1.077-0.669-2.674-0.265-3.303,0.836c-0.31,0.542-0.404,1.203-0.803,1.683
				c-0.578,0.696-1.589,0.792-2.489,0.883c-0.944,0.095-1.911,0.248-2.726,0.735c-0.815,0.487-1.451,1.378-1.381,2.324
				c0.512-0.047,0.932-0.054,1.444-0.1c0.032,0.65,0.09,1.324,0.122,1.974c0.516-0.965,1.417-1.736,2.448-2.102
				c1.25-0.444,2.768-0.373,3.696-1.321c0.656-0.671,0.863-1.731,1.633-2.268c0.603-0.42,1.403-0.407,2.129-0.299
				c-0.428-0.379-0.862-0.754-1.29-1.132C253.075,273.174,253.028,272.799,253.358,272.412z"/>
			<polygon style="fill:#DFDEDB;" points="479.703,365.438 477.404,358.652 482.646,358.652 481.067,365.438 			"/>
			<polygon style="fill:#DFDEDB;" points="411.711,351.62 409.411,344.835 414.653,344.835 413.074,351.62 			"/>
			<rect x="385.933" y="25.893" style="fill:#DFDEDB;" width="9.5" height="3.313"/>
			<path style="fill:#DFDEDB;" d="M279.19,30.274c0,1.504-1.22,2.724-2.724,2.724c-1.505,0-2.724-1.22-2.724-2.724
				c0-1.505,1.22-2.724,2.724-2.724C277.97,27.549,279.19,28.769,279.19,30.274z"/>
			<polygon style="fill:#DFDEDB;" points="89.417,13.343 90.454,16.535 93.81,16.535 91.095,18.507 92.132,21.699 89.417,19.726 
				86.702,21.699 87.739,18.507 85.024,16.535 88.38,16.535 			"/>
			<polygon style="fill:#DFDEDB;" points="439.455,32.291 445.764,31.673 446.382,37.982 			"/>
			<polygon style="fill:#DFDEDB;" points="205.17,202.041 205.035,196.713 210.611,198.342 			"/>
			<path style="fill:#DFDEDB;" d="M240.638,17.695c-1.077-0.669-2.674-0.265-3.303,0.836c-0.309,0.542-0.404,1.203-0.803,1.683
				c-0.578,0.696-1.589,0.792-2.489,0.883c-0.944,0.095-1.911,0.248-2.726,0.735c-0.815,0.487-1.451,1.378-1.381,2.324
				c0.512-0.047,0.932-0.054,1.444-0.101c0.032,0.65,0.09,1.324,0.123,1.974c0.516-0.965,1.417-1.735,2.448-2.102
				c1.249-0.444,2.768-0.373,3.696-1.321c0.656-0.671,0.863-1.731,1.633-2.267c0.603-0.42,1.403-0.407,2.129-0.299
				c-0.428-0.379-0.861-0.753-1.289-1.132C240.355,18.456,240.308,18.081,240.638,17.695z"/>
			<polygon style="fill:#DFDEDB;" points="382.84,419.524 380.541,412.738 385.783,412.738 384.204,419.524 			"/>
			<polygon style="fill:#DFDEDB;" points="480.978,483.318 478.678,476.532 483.92,476.532 482.341,483.318 			"/>
			<rect x="230.919" y="465.351" style="fill:#DFDEDB;" width="9.5" height="3.313"/>
			<path style="fill:#DFDEDB;" d="M423.436,478.699c0,1.505-1.22,2.724-2.724,2.724s-2.724-1.22-2.724-2.724s1.22-2.724,2.724-2.724
				S423.436,477.194,423.436,478.699z"/>
			<polygon style="fill:#DFDEDB;" points="24.686,450.865 25.723,454.057 29.079,454.057 26.364,456.03 27.401,459.221 
				24.686,457.249 21.971,459.221 23.008,456.03 20.293,454.057 23.649,454.057 			"/>
			<polygon style="fill:#DFDEDB;" points="191.743,35.445 198.052,34.828 198.67,41.137 			"/>
			<polygon style="fill:#DFDEDB;" points="324.513,77.11 324.378,71.782 329.954,73.411 			"/>
			<path style="fill:#DFDEDB;" d="M306.479,472.559c-1.077-0.669-2.674-0.265-3.303,0.836c-0.309,0.542-0.404,1.203-0.803,1.683
				c-0.579,0.696-1.589,0.792-2.489,0.883c-0.944,0.095-1.911,0.248-2.726,0.735c-0.815,0.487-1.451,1.378-1.381,2.324
				c0.512-0.047,0.932-0.054,1.445-0.1c0.032,0.65,0.09,1.324,0.122,1.974c0.516-0.965,1.417-1.735,2.448-2.102
				c1.25-0.444,2.768-0.373,3.696-1.321c0.656-0.671,0.863-1.731,1.634-2.267c0.603-0.42,1.402-0.407,2.129-0.299
				c-0.428-0.379-0.862-0.754-1.29-1.132C306.197,473.321,306.149,472.946,306.479,472.559z"/>
			<polygon style="fill:#DFDEDB;" points="344.841,445.577 342.542,438.791 347.784,438.791 346.205,445.577 			"/>
			<rect x="380.845" y="214.807" style="fill:#DFDEDB;" width="9.5" height="3.313"/>
			<circle style="fill:#DFDEDB;" cx="477.301" cy="132.516" r="2.724"/>
			<polygon style="fill:#DFDEDB;" points="152.526,33.804 153.563,36.996 156.919,36.996 154.204,38.968 155.241,42.16 
				152.526,40.188 149.811,42.16 150.848,38.968 148.133,36.996 151.489,36.996 			"/>
			<polygon style="fill:#DFDEDB;" points="54.293,281.323 60.602,280.706 61.219,287.015 			"/>
			<polygon style="fill:#DFDEDB;" points="225.564,58.302 225.429,52.973 231.005,54.602 			"/>
			<path style="fill:#DFDEDB;" d="M221.128,148.57c-1.077-0.669-2.674-0.265-3.303,0.836c-0.309,0.542-0.404,1.203-0.803,1.683
				c-0.578,0.696-1.589,0.792-2.489,0.883c-0.944,0.095-1.911,0.248-2.726,0.735c-0.815,0.487-1.451,1.378-1.381,2.324
				c0.512-0.047,0.932-0.054,1.445-0.1c0.032,0.65,0.09,1.324,0.122,1.974c0.516-0.965,1.417-1.736,2.448-2.102
				c1.25-0.444,2.768-0.373,3.696-1.321c0.656-0.671,0.863-1.731,1.633-2.268c0.603-0.42,1.402-0.407,2.129-0.299
				c-0.428-0.379-0.861-0.753-1.29-1.132C220.846,149.332,220.798,148.957,221.128,148.57z"/>
			<polygon style="fill:#DFDEDB;" points="131.378,231.529 129.078,224.743 134.32,224.743 132.741,231.529 			"/>
			<polygon style="fill:#DFDEDB;" points="141.981,398.89 137.617,386.011 147.566,386.011 144.569,398.89 			"/>
			<path style="fill:#DFDEDB;" d="M94.951,236.452c-0.054,2.393-0.511,4.802-1.572,6.948c-1.061,2.146-2.753,4.016-4.901,5.071
				c0.519,0.532,1.081,1.071,1.6,1.602c3.795-2.337,7.324-5.094,10.264-8.444c0.691-0.788,1.385-1.67,1.477-2.714
				C99.491,238.096,97.379,236.899,94.951,236.452z"/>
			<path style="fill:#DFDEDB;" d="M290.875,258.523c-0.054,2.393-0.511,4.802-1.572,6.948c-1.061,2.146-2.753,4.016-4.901,5.071
				c0.519,0.532,1.081,1.071,1.6,1.602c3.795-2.336,7.324-5.094,10.264-8.444c0.691-0.788,1.385-1.67,1.477-2.714
				C295.415,260.167,293.303,258.969,290.875,258.523z"/>
			<path style="fill:#DFDEDB;" d="M228.802,221.326c-0.054,2.393-0.511,4.802-1.572,6.948c-1.061,2.146-2.753,4.016-4.901,5.071
				c0.519,0.532,1.081,1.071,1.6,1.602c3.795-2.336,7.324-5.094,10.264-8.444c0.691-0.788,1.385-1.67,1.477-2.714
				C233.341,222.969,231.23,221.772,228.802,221.326z"/>
			<path style="fill:#DFDEDB;" d="M161.041,453.386c-0.054,2.393-0.511,4.802-1.572,6.948c-1.061,2.146-2.753,4.016-4.901,5.071
				c0.519,0.532,1.081,1.071,1.6,1.603c3.795-2.336,7.324-5.094,10.265-8.444c0.691-0.788,1.385-1.67,1.476-2.714
				C165.581,455.03,163.469,453.832,161.041,453.386z"/>
			<path style="fill:#DFDEDB;" d="M62.623,453.386c-0.054,2.393-0.511,4.802-1.572,6.948c-1.061,2.146-2.753,4.016-4.901,5.071
				c0.519,0.532,1.081,1.071,1.6,1.603c3.795-2.336,7.324-5.094,10.264-8.444c0.691-0.788,1.385-1.67,1.477-2.714
				C67.162,455.03,65.051,453.832,62.623,453.386z"/>
			<path style="fill:#DFDEDB;" d="M151.88,345.849c-0.054,2.393-0.511,4.802-1.572,6.948c-1.061,2.146-2.753,4.016-4.901,5.071
				c0.519,0.532,1.081,1.071,1.6,1.602c3.795-2.336,7.324-5.094,10.264-8.444c0.691-0.788,1.385-1.67,1.476-2.714
				C156.419,347.492,154.308,346.295,151.88,345.849z"/>
			<path style="fill:#DFDEDB;" d="M181.421,152.575c-0.054,2.393-0.511,4.802-1.572,6.948c-1.061,2.146-2.753,4.016-4.901,5.071
				c0.519,0.532,1.081,1.071,1.6,1.602c3.795-2.337,7.324-5.094,10.264-8.444c0.691-0.788,1.385-1.67,1.477-2.714
				C185.961,154.218,183.849,153.021,181.421,152.575z"/>
			<g>
				<polygon style="fill:#DFDEDB;" points="97.756,102.692 64.936,119.356 64.936,102.692 97.756,86.029 				"/>
				<polygon style="fill:#DFDEDB;" points="91.357,134.814 67.642,159.385 67.642,142.722 91.357,119.356 				"/>
				<polygon style="fill:#DFDEDB;" points="86.121,170.595 68.131,199.377 68.131,182.713 86.121,153.931 				"/>
				<polygon style="fill:#DFDEDB;" points="61.057,64.628 85.642,42.16 85.642,53.394 61.057,81.291 				"/>
				<polygon style="fill:#DFDEDB;" points="97.756,102.692 61.057,81.291 61.057,64.628 97.756,86.029 				"/>
				<polygon style="fill:#DFDEDB;" points="91.357,134.814 64.936,119.356 64.936,102.692 91.357,118.15 				"/>
				<polygon style="fill:#DFDEDB;" points="86.121,170.595 67.642,159.385 67.642,142.722 86.121,153.931 				"/>
				<polygon style="fill:#DFDEDB;" points="83.665,208.741 63.598,233.825 57.756,227.343 83.665,192.077 				"/>
				<polygon style="fill:#DFDEDB;" points="86.121,170.595 67.642,159.385 67.642,142.722 86.121,153.931 				"/>
				<polygon style="fill:#DFDEDB;" points="83.665,208.741 68.131,199.377 68.131,182.713 83.665,192.077 				"/>
			</g>
			<g>
				<path style="fill:#DFDEDB;" d="M92.572,451.979c-5.129-12.26-7.762-25.177-7.616-37.354c0.069-5.682,0.816-10.174,2.324-13.834
					c-3.489-10.874-5.498-23.043-6.139-37.174c-0.386-8.496-0.2-18.253,4.104-26.201c0.517-0.954,1.109-1.865,1.763-2.72
					c-0.788-2.582-1.306-5.536-1.568-8.92c-0.529-6.843,0.04-13.693,0.595-18.897c0.113-1.062,0.237-2.132,0.391-3.198
					c-3.343-2.827-5.896-6.824-6.726-10.272c-2.016-8.363,1.945-17.918,8.83-21.299l1.832,3.732
					c-5.148,2.528-8.18,10.126-6.621,16.593c0.496,2.06,1.862,4.438,3.665,6.434c0.653-2.306,1.605-4.478,3.074-6.354
					c1.821-2.326,5.021-3.452,8.343-2.945c3.221,0.494,5.824,2.397,6.793,4.967c0.709,1.882,0.89,4.919-2.278,8.697
					c-2.85,3.398-6.609,4.753-10.582,3.824c-0.836-0.197-1.66-0.489-2.464-0.864c-0.043,0.375-0.084,0.751-0.124,1.124
					c-0.536,5.027-1.087,11.631-0.584,18.136c0.163,2.109,0.43,4.019,0.806,5.746c2.137-1.743,4.564-2.994,7.038-3.561
					c3.63-0.831,7.059-0.185,9.915,1.872c1.512,1.087,2.583,2.395,3.183,3.886c0.67,1.667,0.777,3.682,0.303,5.675
					c-1.215,5.105-6.083,8.761-11.103,8.314c-4.226-0.372-8.257-3.377-10.8-8.044c-0.009,0.017-0.019,0.034-0.028,0.052
					c-3.819,7.054-3.966,16.108-3.606,24.033c0.553,12.198,2.145,22.868,4.851,32.462c3.73-4.523,9.361-6.274,13.818-4.054
					c4.928,2.453,7.389,9.57,5.267,15.228c-1.109,2.958-3.399,5.299-6.283,6.42c-2.543,0.991-5.199,0.898-7.48-0.261
					c-2.542-1.29-4.345-3.603-5.688-6.162c-0.413,2.214-0.631,4.732-0.665,7.613c-0.14,11.613,2.382,23.958,7.294,35.7
					L92.572,451.979z M91.74,401.035c1.16,3.354,2.842,7.078,5.609,8.483c1.211,0.614,2.664,0.648,4.091,0.093
					c1.756-0.683,3.214-2.181,3.898-4.006c1.371-3.656-0.197-8.539-3.228-10.048c-3.381-1.68-7.606,0.89-9.736,4.35
					C92.151,400.27,91.94,400.646,91.74,401.035z M91.732,335.577c0.251,0.604,0.523,1.176,0.815,1.718
					c1.846,3.424,4.738,5.704,7.546,5.952c2.586,0.229,5.869-1.672,6.693-5.137c0.273-1.147,0.231-2.299-0.115-3.16
					c-0.301-0.748-0.892-1.443-1.755-2.063c-2.347-1.69-4.861-1.583-6.559-1.194C95.988,332.236,93.657,333.63,91.732,335.577z
					 M90.96,301.854c0.895,0.537,1.821,0.94,2.748,1.157c2.472,0.582,4.58-0.221,6.446-2.448c1.036-1.236,2.15-3.03,1.573-4.56
					c-0.433-1.149-1.82-2.061-3.533-2.324c-1.442-0.222-3.369,0.03-4.441,1.399C92.314,296.916,91.491,299.292,90.96,301.854z"/>
				<path style="fill:#DFDEDB;" d="M86.426,303.681c-0.137,0.948-0.245,1.899-0.348,2.845c1.153,1.12,2.86,1.985,3.921,2.455
					c0.056-0.568,0.113-1.128,0.17-1.662c0.04-0.373,0.081-0.749,0.124-1.124C87.83,305.331,86.426,303.681,86.426,303.681z"/>
				<path style="fill:#DFDEDB;" d="M88.896,339.405c-0.941-2.271-1.888-4.709-1.888-4.709c-0.654,0.855-1.246,1.766-1.763,2.72
					c-0.028,0.051-0.05,0.103-0.078,0.154c0.527,2.266,1.407,4.118,2.161,5.403C87.767,341.742,88.279,340.545,88.896,339.405z"/>
				<path style="fill:#DFDEDB;" d="M89.226,411.804c0.107-1.715,0.284-3.3,0.553-4.741c-1.444-3.19-2.499-6.272-2.499-6.272
					c-0.818,1.987-1.405,4.23-1.788,6.764C86.607,409.632,88.069,410.984,89.226,411.804z"/>
				<path style="fill:#DFDEDB;" d="M91.732,335.577c0.453-0.458,0.93-0.883,1.424-1.276c-0.372-1.043-0.841-2.624-1.036-4.358
					c-0.593,0.384-1.171,0.803-1.728,1.258C90.392,331.202,90.868,335.188,91.732,335.577z"/>
				<path style="fill:#DFDEDB;" d="M90.96,301.854c0.135-0.651,0.289-1.289,0.467-1.909c-1.108-0.543-2.456-1.529-3.265-3.271
					c-0.283,0.716-0.542,1.445-0.755,2.195C87.407,298.869,89.137,301.433,90.96,301.854z"/>
				<path style="fill:#DFDEDB;" d="M93.085,398.895c-0.618-1.049-1.168-2.561-1.308-4.696c-0.573,0.512-1.122,1.073-1.632,1.692
					c0,0,0.001,3.102,1.595,5.145c0.2-0.39,0.411-0.765,0.634-1.128C92.589,399.559,92.83,399.222,93.085,398.895z"/>
			</g>
			<g>
				<path style="fill:#DFDEDB;" d="M183.417,206.351c0,0-21.594,1.448-36.597-13.71l2.939,12.064l-8.043,0.464
					c0,0,25.52,19.179,46.864,13.92"/>
				<path style="fill:#DFDEDB;" d="M162.804,231.655l-0.758,8.642c0,0,9.887,9.831,29.501,7.55l1.059-7.721
					C192.605,240.127,169.487,239.79,162.804,231.655z"/>
				<path style="fill:#DFDEDB;" d="M162.804,231.655c5.248,0.993,10.875-0.924,14.687-4.665c5.298-5.199,6.909-13.282,5.927-20.639
					c2.622,2.561,5.032,4.917,7.225,7.854c-0.978,4.908-1.682,9.978-3.872,14.478c-2.19,4.5-5.742,8.553-10.445,10.265
					c-3.007,1.095-6.273,1.176-9.472,1.245c-1.603,0.035-3.205,0.069-4.807,0.104C161.906,236.936,162.589,235.013,162.804,231.655z
					"/>
				<path style="fill:#DFDEDB;" d="M192.605,240.127c-4.974,11.217-16.593,19.173-28.85,19.752
					c-0.547,4.083-0.811,8.512-0.591,12.626c3.174-0.079,6.164-1.361,8.973-2.842c9.678-5.102,17.808-13.098,23.07-22.69
					C194.92,244.229,194.086,242.455,192.605,240.127z"/>
				<path style="fill:#DFDEDB;" d="M163.755,259.879c0,0-1.197,9.075-0.668,14.293c0.529,5.217,12.048,17.559,26.574,24.826
					l1.963-6.335C163.036,266.203,163.755,259.879,163.755,259.879z"/>
				<path style="fill:#DFDEDB;" d="M161.238,310.766l1.614,3.43c22.593,1.794,28.771-11.558,28.771-11.558v-9.975
					C191.623,292.663,187.361,308.634,161.238,310.766z"/>
				<path style="fill:#DFDEDB;" d="M161.238,310.693l1.222,6.723c0,0,14.321,7.525,24.809,7.971v-1.86
					C175.304,320.775,161.238,310.693,161.238,310.693z"/>
			</g>
			<g>
				<path style="fill:#DFDEDB;" d="M351.314,265.334c-0.727-5.231-9.413-12.372-16.478-21.423
					c-9.523-12.2,10.735-22.718,10.735-22.718s3.422,3.355-0.243,6.944c-2.843,2.783-9.718,4.664-5.151,12.291
					c4.567,7.627,11.801,10.835,12.237,23.948"/>
				<path style="fill:#DFDEDB;" d="M345.327,228.137c0,0,2.919-11.047-11.968-22.289c-14.887-11.242-2.021-33.661-2.021-33.661
					l2.978,5.799c0,0-7.135,17.166,1.685,23.301C348.652,210.088,354.175,218.694,345.327,228.137z"/>
				<path style="fill:#DFDEDB;" d="M348.153,250.785c0,0,1.5,20.416-9.86,25.863l-0.379,7.697
					C362.742,267.566,348.153,250.785,348.153,250.785z"/>
			</g>
			<g>
				<path style="fill:#DFDEDB;" d="M337.634,346.476c0.727,3.69,9.413,8.728,16.478,15.112c9.524,8.607-10.735,16.026-10.735,16.026
					s-3.422-2.367,0.243-4.898c2.843-1.963,9.718-3.29,5.151-8.67c-4.567-5.38-11.801-7.643-12.237-16.894"/>
				<path style="fill:#DFDEDB;" d="M343.62,372.716c0,0-2.919,7.793,11.968,15.723c14.888,7.93,2.021,23.745,2.021,23.745
					l-2.978-4.091c0,0,7.135-12.11-1.685-16.438C340.295,385.448,334.772,379.377,343.62,372.716z"/>
				<path style="fill:#DFDEDB;" d="M340.794,356.739c0,0-1.5-14.402,9.86-18.245l0.379-5.43
					C326.206,344.901,340.794,356.739,340.794,356.739z"/>
			</g>
			<g>
				<path style="fill:#DFDEDB;" d="M257.521,82.08c-0.612-1.362-0.777,2.949-1.44,4.287c-1.289-0.546-2.865-0.485-4.264-0.54
					c2.087,1.326,2.959,3.909,3.456,6.332c1.304,6.353,1.042,12.897,0.132,19.345c-29.739-0.709-25.977,26.423-14.947,27.7
					C267.321,142.312,265.752,100.409,257.521,82.08z M254.559,116.634c-0.283,1.511-0.592,3.031-1.2,4.443
					c-0.826,1.917-2.167,3.558-3.496,5.168c-1.183,1.433-2.526,2.958-4.357,3.281c-0.506,0.089-1.046,0.075-1.51-0.147
					c-0.526-0.251-0.899-0.739-1.197-1.24c-1.877-3.157-1.279-7.574,1.37-10.118c2.649-2.544,7.175-2.684,10.254-0.681l0.975-5.787
					C255.157,113.255,254.873,114.951,254.559,116.634z"/>
				<path style="fill:#DFDEDB;" d="M276.465,246.946c-3.164-1.598-13.262-14.398-13.328-28.982
					c-0.015-3.385,0.881-6.695,1.568-10.009c1.641-7.918,2.014-16.097,1.099-24.132c-0.608-5.343-2.019-11.005-5.806-14.715
					c-1.451,4.951-3.193,9.448-5.173,13.098c9.633,12.456,0.888,23.092-0.44,44.278c-1.358,21.663,15.048,28.155,15.048,28.155
					c-1.814-2.927-3.189-9.917-3.189-9.917C270.539,247.19,276.465,246.946,276.465,246.946z"/>
				<path style="fill:#DFDEDB;" d="M262.306,117.604c-0.617,4.58-1.811,8.832-3.713,12.343c2.515,4.65-3.767,52.259-14.649,52.708
					c-10.064,0.416-0.634-15.71,9.079-11.705l1.898-6.865c-15.817-5.186-29.663,16.751-15.691,26.012
					C257.361,202.115,270.394,140.599,262.306,117.604z"/>
			</g>
			<g>
				<path style="fill:#DFDEDB;" d="M446.524,314.239c-7.449,7.285-16.869,12.62-27.268,13.264c1.502-2.375,2.715-5.087,3.318-7.831
					c9.584-0.184,23.534-10.039,24.73-12.907C446.814,308.503,446.61,312.436,446.524,314.239z"/>
				<path style="fill:#DFDEDB;" d="M422.25,370.729v8.115c23.347-5.896,29.388-30.753,29.388-30.753l-0.684-8.492
					C450.955,339.6,442.06,363.182,422.25,370.729z"/>
				<path style="fill:#DFDEDB;" d="M420.738,421.061l-0.027,8.732c17.583-9.431,27.899-26.754,27.899-26.754l0.624-6.694
					C449.234,396.345,439.919,410.672,420.738,421.061z"/>
				<path style="fill:#DFDEDB;" d="M422.871,319.488c1.12,2.378,2.644,4.56,4.459,6.461c6.221,6.518,15.28,9.319,23.921,11.871
					c0,3.345,0.388,7.062,0.388,10.408c-5.299-0.319-10.745-2.318-15.268-5.095c-4.524-2.777-8.558-6.27-12.57-9.746
					c-2.095-1.815-4.273-3.749-5.207-6.358C419.628,324.546,421.267,321.645,422.871,319.488z"/>
				<path style="fill:#DFDEDB;" d="M425.175,283.954c6.279,1.841,12.627,4.546,16.767,9.613c2.97,3.634,4.551,8.176,6.076,12.615
					c0.901,2.623-0.62,5.426-1.494,8.058c-1.983-4.598-4.682-8.905-8.45-12.204c-3.769-3.298-8.519-5.565-13.511-5.966
					c0.783-2.03,2.279-3.6,3.882-5.07C428.547,288.117,427.44,285.741,425.175,283.954z"/>
				<path style="fill:#DFDEDB;" d="M422.25,370.729v9.394c0,0,13.386,20.819,26.36,22.916l0.624-6.694
					C431.251,386.162,422.25,370.729,422.25,370.729z"/>
				<path style="fill:#DFDEDB;" d="M420.738,421.061l-0.027,8.732c0,0,7.458,20.677,24.415,25.25l-0.851-3.211l2.375-1.361
					C430.646,442.659,420.738,421.061,420.738,421.061z"/>
			</g>
			<g>
				<path style="fill:#DFDEDB;" d="M434.504,74.729c-2.844,14.097-13.543,26.34-27.133,31.047c0.853,4.024,1.797,8.136,2.651,12.159
					c12.484-7.457,25.478-15.417,31.734-28.545C440.341,84.314,437.592,79,434.504,74.729z"/>
				<path style="fill:#DFDEDB;" d="M439.555,111.769c-17.007,4.239-32.184-5.993-32.184-5.993l2.651,12.159
					c5.662,4.533,28.849,6.293,28.849,6.293L439.555,111.769z"/>
				<path style="fill:#DFDEDB;" d="M441.02,130.655c-8.381,9.943-19.054,14.809-31.927,16.646c0.762-4.381,1.103-8.965,1.413-13.401
					c12.598-1.765,24.003-10.453,29.049-22.13c0.931,0.839,1.149,1.923,1.161,3.177C440.764,120.198,440.971,125.403,441.02,130.655
					z"/>
				<path style="fill:#DFDEDB;" d="M441.488,148.327c-18.301,1.313-30.983-14.428-30.983-14.428s-0.255,9.911-1.413,13.401
					c0,0,14.763,13.719,31.803,15.413L441.488,148.327z"/>
				<path style="fill:#DFDEDB;" d="M441.488,148.327c-4.844,10.249-16.219,17.027-27.538,16.408
					c-0.634,4.052-1.765,8.116-2.973,12.036c4.8-0.45,9.207-2.312,13.45-4.6c6.183-3.334,11.262-4.742,16.468-9.458
					C441.688,156.787,440.804,152.408,441.488,148.327z"/>
				<path style="fill:#DFDEDB;" d="M413.95,164.736c0,0,9.984,16.491,23.171,18.042l-1.691,12.646c0,0-22.035-17.27-24.453-18.652
					C410.978,176.771,414.314,167.836,413.95,164.736z"/>
				<path style="fill:#DFDEDB;" d="M437.122,182.777c-6.05,7.365-14.706,12.545-24.056,14.393
					c-0.668,4.476-1.673,9.646-2.341,14.122c9.733-3.539,18.641-8.844,26.512-15.574
					C437.442,191.315,437.628,187.156,437.122,182.777z"/>
				<path style="fill:#DFDEDB;" d="M435.711,219.469c-4.243-1.626-8.595-3.318-11.944-6.387c-2.353-2.156-4.09-4.885-5.799-7.581
					c-1.752-2.763-3.504-5.527-5.256-8.29l-1.988,14.082c1.332,1.883,3.109,3.661,4.382,5.584
					c4.739,7.164,11.404,10.481,19.724,12.617C435.033,225.587,436.034,223.368,435.711,219.469z"/>
				<path style="fill:#DFDEDB;" d="M435.771,219.36c-5.353,4.788-12.476,7.548-19.658,7.618c-0.647,3.881-1.26,7.729-1.907,11.61
					c8.05-0.429,15.975-3.686,22.12-8.904C435.448,226.038,435.687,223.108,435.771,219.36z"/>
			</g>
			<g>
				<path style="fill:#DFDEDB;" d="M269.026,456.514c-0.656-6.965-1.322-13.986-3.35-20.682
					c-2.028-6.696-5.785-12.967-11.243-17.345c3.74-8.042,7.549-15.983,11.745-23.796c-1.75-9.709-7.004-18.587-14.435-25.076
					c4.753-7.908,10.078-15.491,15.746-22.771c-3.326-8.904-10.97-16.47-20.012-19.399c7.632-6.971,16.025-12.927,25.144-17.796
					c-7.907-5.959-18.068-8.848-27.928-7.939c1.426-2.17,2.49-4.715,3.916-6.885c13.105,1.088,26.06,6.355,35.703,15.296
					c-9.837,3.253-20.344,6.735-27.542,14.187c2.133,0.542,3.96,1.908,5.558,3.421c5.78,5.472,10.087,12.487,12.35,20.119
					c-6.542,6.45-12.341,13.664-16.879,21.652c2.251,0.712,4.148,2.384,5.751,4.117c5.472,5.919,9.794,12.898,12.654,20.435
					c-5.065,6.168-9.603,12.909-13.342,19.961c7.341,7.733,12.429,17.699,13.814,28.272c0.986,7.529,0.276,15.165-0.435,22.725
					C275.086,460.855,272.897,458.41,269.026,456.514z"/>
				<path style="fill:#DFDEDB;" d="M252.467,323.137c2.249,0.444,4.303,1.171,4.303,1.171c0.406-0.421,0.827-0.825,1.253-1.221
					c0.128-0.118,0.258-0.234,0.387-0.35c0.317-0.285,0.638-0.564,0.965-0.836c0.136-0.113,0.271-0.227,0.408-0.338
					c0.415-0.336,0.837-0.664,1.267-0.982c0.036-0.027,0.072-0.056,0.108-0.083c0.465-0.341,0.94-0.669,1.421-0.991
					c0.148-0.099,0.299-0.196,0.449-0.293c0.349-0.227,0.702-0.45,1.059-0.668c0.162-0.099,0.324-0.198,0.487-0.296
					c0.423-0.251,0.85-0.496,1.281-0.735c0.081-0.045,0.16-0.092,0.241-0.136c0.503-0.275,1.012-0.541,1.526-0.801
					c0.175-0.089,0.351-0.174,0.527-0.262c0.358-0.177,0.719-0.352,1.081-0.522c0.194-0.091,0.389-0.183,0.584-0.273
					c0.396-0.182,0.794-0.359,1.194-0.534c0.142-0.062,0.283-0.126,0.425-0.188c0.514-0.221,1.032-0.436,1.551-0.647
					c0.217-0.088,0.435-0.174,0.653-0.261c0.334-0.133,0.668-0.264,1.004-0.393c0.237-0.091,0.475-0.183,0.713-0.272
					c0.34-0.128,0.68-0.254,1.021-0.379c0.213-0.078,0.425-0.158,0.638-0.235c-2.381-1.53-4.392-2.963-4.392-2.963
					C265.445,313.48,258.727,317.994,252.467,323.137z"/>
				<path style="fill:#DFDEDB;" d="M257.799,369.499c3.118-5.488,6.842-10.602,10.982-15.363c-0.224-4.58-1.293-7.292-1.293-7.292
					c-5.42,6.962-10.522,14.205-15.114,21.741C255.224,368.877,257.799,369.499,257.799,369.499z"/>
				<path style="fill:#DFDEDB;" d="M262.864,414.009c1.376-2.595,2.862-5.147,4.441-7.645c1.957-7.073-1.127-11.673-1.127-11.673
					c-0.902,1.68-1.779,3.368-2.648,5.059c-0.326,0.634-0.65,1.269-0.972,1.905c-0.489,0.965-0.97,1.933-1.451,2.902
					c-0.96,1.937-1.909,3.879-2.845,5.829c-0.001,0.001-0.001,0.003-0.002,0.004C259.242,410.69,262.206,412.905,262.864,414.009z"
					/>
			</g>
			<path style="fill:#DFDEDB;" d="M187.039,476.564c-6.97-3.788-8.852-12.411-8.345-18.645c0.433-5.325,2.256-10.419,4.019-15.345
				c0.556-1.554,1.13-3.159,1.65-4.742c0.847-2.579,1.701-5.57,1.104-8.426c-0.18-0.863-0.552-1.735-1.069-2.506
				c-0.955,0.941-2.048,1.627-3.272,2.045c-1.586,0.541-3.722,0.419-4.669-1.128c-0.51-0.831-0.508-1.84,0.004-2.767
				c0.706-1.279,2.212-2.185,3.663-2.202c1.684-0.007,3.129,0.678,4.275,1.74c1.81-2.559,2.61-6.162,2.952-9.236
				c0.914-8.207,0.679-16.496-0.698-24.637c-0.31-1.826-0.728-3.653-1.582-5.102c-1.27,1.124-3.064,1.771-4.749,1.685
				c-1.425-0.068-2.67-0.649-3.505-1.636l-0.21-0.248l0.038-0.323c0.155-1.323,1.025-2.418,2.388-3.004
				c1.766-0.759,3.932-0.534,5.391,0.557c0.256,0.191,0.494,0.397,0.716,0.615c1.174-1.726,1.687-3.957,2.028-5.992
				c0.997-5.938,1.142-11.98,0.433-17.957l1.489-0.178c0.727,6.12,0.578,12.305-0.442,18.383c-0.393,2.342-1.005,4.936-2.523,6.946
				c1.135,1.71,1.646,3.862,2.009,6.004c1.4,8.278,1.64,16.707,0.711,25.053c-0.492,4.418-1.654,7.859-3.425,10.214
				c0.753,1.023,1.277,2.207,1.52,3.367c0.641,3.064-0.172,6.233-1.147,9.201c-0.525,1.601-1.104,3.216-1.663,4.778
				c-1.73,4.835-3.519,9.834-3.936,14.961c-0.47,5.784,1.229,13.762,7.565,17.205L187.039,476.564z M180.188,424.349
				c-0.016,0-0.032,0-0.048,0c-0.906,0.011-1.924,0.624-2.367,1.427c-0.254,0.461-0.267,0.884-0.037,1.259
				c0.493,0.805,1.833,0.856,2.905,0.491c1.09-0.372,2.011-0.988,2.789-1.775C182.536,424.904,181.419,424.349,180.188,424.349z
				 M178.196,384.942c0.692,0.648,1.56,0.828,2.196,0.858c1.337,0.075,2.783-0.466,3.771-1.39c-0.197-0.204-0.411-0.393-0.641-0.565
				c-1.027-0.77-2.631-0.926-3.9-0.38C179.172,383.659,178.436,384.096,178.196,384.942z"/>
			<path style="fill:#DFDEDB;" d="M356.049,149.391l-1.068-1.053c2.103-2.134,1.545-5.324,0.954-8.702
				c-0.429-2.446-0.871-4.975-0.373-7.351c0.34-1.616,1.111-3.17,1.857-4.673c1.234-2.486,2.4-4.834,1.351-6.984
				c-0.499-1.022-1.451-1.832-2.459-2.689c-1.456-1.239-2.962-2.52-3.102-4.561c-0.133-1.917,1.03-3.358,2.155-4.753
				c0.625-0.775,1.215-1.507,1.585-2.302c1.873-4.029-2.157-8.401-5.869-11.36l-0.545-0.434l0.394-0.575
				c1.367-2.001,3.618-2.885,5.795-3.739c0.389-0.153,0.775-0.304,1.153-0.461c1.351-0.562,4.492-2.149,4.498-4.752
				c0.007-2.641-3.215-4.281-6.233-4.935l-0.123-0.027c-3.186-0.69-7.151-1.549-8.505-4.844l-0.26-0.631l15.976-8.406
				c0.494-0.26,0.871-0.567,1.036-0.824l-10.092-1.909l0.279-1.474l11.126,2.104l0.153,0.379c0.439,1.085-0.235,2.226-1.805,3.05
				l-14.717,7.744c1.306,2.084,4.383,2.75,7.125,3.344l0.124,0.027c1.742,0.377,7.427,1.955,7.415,6.404
				c-0.006,2.467-1.981,4.702-5.422,6.133c-0.388,0.161-0.783,0.317-1.182,0.473c-1.734,0.681-3.52,1.382-4.677,2.65
				c5.487,4.556,7.463,8.935,5.714,12.694c-0.446,0.962-1.123,1.8-1.777,2.611c-0.986,1.223-1.918,2.378-1.826,3.708
				c0.098,1.412,1.247,2.39,2.578,3.522c1.081,0.92,2.198,1.87,2.835,3.174c1.374,2.814-0.014,5.607-1.354,8.31
				c-0.705,1.419-1.433,2.886-1.732,4.314c-0.44,2.093-0.023,4.479,0.382,6.785C358.042,142.98,358.694,146.706,356.049,149.391z"/>
			<path style="fill:#DFDEDB;" d="M175.401,137.508c-3.969-3.551-4.345-9.545-3.373-13.97c0.654-2.98,1.852-5.81,3.009-8.547
				c0.679-1.604,1.38-3.263,1.957-4.919c2.852-8.191,2.981-17.031,3.105-25.579c0.044-3.017,0.089-6.137-0.921-8.981
				c-0.389-1.095-0.943-2.083-1.613-2.918c-1.22,1.466-2.738,2.683-4.482,3.513l-0.554,0.263l-0.368-0.49
				c-1.626-2.164-1.283-5.502,0.748-7.29l0.266-0.234l0.35,0.057c1.507,0.245,2.795,0.923,3.859,1.829
				c1.505-2.412,2.228-5.324,1.833-8.11l1.485-0.211c0.468,3.302-0.396,6.681-2.213,9.429c0.963,1.129,1.666,2.434,2.102,3.66
				c1.101,3.098,1.052,6.501,1.008,9.504c-0.127,8.668-0.257,17.63-3.189,26.051c-0.593,1.703-1.305,3.384-1.992,5.01
				c-1.131,2.674-2.301,5.439-2.926,8.284c-0.881,4.012-0.58,9.41,2.908,12.53L175.401,137.508z M173.648,69.965
				c-1.072,1.167-1.318,3.063-0.614,4.481c1.334-0.74,2.509-1.761,3.472-2.962C175.643,70.731,174.666,70.202,173.648,69.965z"/>
			<path style="fill:#DFDEDB;" d="M393.575,338.454c-0.323-1.6-0.708-3.214-1.081-4.775c-0.991-4.153-2.017-8.448-1.915-12.721
				c0.079-3.368,0.861-6.762,1.618-10.043c0.832-3.605,1.691-7.333,1.66-11.122c-0.039-4.665-1.419-9.177-2.754-13.541
				c-0.396-1.291-0.79-2.581-1.15-3.874c-1.266-4.537-2.646-11.215-0.02-16.813l-1.357-0.637
				c-2.838,6.049-1.398,13.085-0.068,17.852c0.364,1.306,0.763,2.607,1.161,3.911c1.304,4.261,2.651,8.667,2.689,13.113
				c0.03,3.613-0.81,7.253-1.621,10.773c-0.774,3.354-1.574,6.824-1.657,10.345c-0.105,4.467,0.942,8.858,1.956,13.104
				c0.369,1.549,0.752,3.15,1.069,4.724c1.474,7.29,0.974,12.826-1.528,16.925l1.281,0.781
				C394.565,352.021,395.127,346.132,393.575,338.454z"/>
		</g>
		<g>
			<rect x="18.958" y="243.048" style="fill:#FF42AF;" width="18.03" height="6.287"/>
			<rect x="334.148" y="301.188" style="fill:#FF42AF;" width="18.03" height="6.287"/>
			<rect x="440.918" y="254.736" style="fill:#FFBE17;" width="18.03" height="6.287"/>
			<rect x="265.997" y="56.302" style="fill:#1EC6FF;" width="18.03" height="6.287"/>
			<rect x="25.821" y="211.151" style="fill:#1EC6FF;" width="9.5" height="3.313"/>
			<circle style="fill:#1ED7FF;" cx="109.123" cy="182.877" r="5.17"/>
			<circle style="fill:#FF4072;" cx="475.301" cy="209.293" r="5.17"/>
			<path style="fill:#FF4072;" d="M296.496,306.982c0,1.505-1.22,2.724-2.724,2.724s-2.724-1.22-2.724-2.724s1.22-2.724,2.724-2.724
				S296.496,305.477,296.496,306.982z"/>
			<polygon style="fill:#FF42AF;" points="27.973,174.948 29.941,181.005 36.31,181.005 31.157,184.749 33.126,190.806 
				27.973,187.063 22.82,190.806 24.788,184.749 19.636,181.005 26.005,181.005 			"/>
			<polygon style="fill:#FF42AF;" points="457.514,222.795 458.551,225.987 461.907,225.987 459.192,227.96 460.229,231.151 
				457.514,229.179 454.799,231.151 455.836,227.96 453.121,225.987 456.477,225.987 			"/>
			<polygon style="fill:#FF42AF;" points="120.866,428.123 122.834,434.181 129.203,434.181 124.051,437.924 126.019,443.982 
				120.866,440.238 115.713,443.982 117.681,437.924 112.529,434.181 118.898,434.181 			"/>
			<polygon style="fill:#1EC6FF;" points="302.066,333.044 304.034,339.101 310.404,339.101 305.251,342.845 307.219,348.902 
				302.066,345.159 296.913,348.902 298.882,342.845 293.729,339.101 300.098,339.101 			"/>
			<polygon style="fill:#1ED7FF;" points="475.301,319.434 477.269,325.492 483.638,325.492 478.485,329.235 480.453,335.293 
				475.301,331.549 470.148,335.293 472.116,329.235 466.963,325.492 473.332,325.492 			"/>
			<polygon style="fill:#FF42AF;" points="214.16,274.417 216.128,280.474 222.497,280.474 217.345,284.218 219.313,290.275 
				214.16,286.531 209.007,290.275 210.975,284.218 205.823,280.474 212.192,280.474 			"/>
			<polygon style="fill:#FF42AF;" points="214.16,274.417 216.128,280.474 222.497,280.474 217.345,284.218 219.313,290.275 
				214.16,286.531 209.007,290.275 210.975,284.218 205.823,280.474 212.192,280.474 			"/>
			<polygon style="fill:#00E668;" points="235.981,432.254 237.949,438.312 244.318,438.312 239.165,442.056 241.133,448.113 
				235.981,444.369 230.828,448.113 232.796,442.056 227.643,438.312 234.012,438.312 			"/>
			<polygon style="fill:#FFBE17;" points="291.174,79.897 293.142,85.955 299.511,85.955 294.358,89.698 296.326,95.756 
				291.174,92.012 286.021,95.756 287.989,89.698 282.836,85.955 289.206,85.955 			"/>
			<polygon style="fill:#9936AF;" points="383.717,139.461 385.685,145.519 392.054,145.519 386.901,149.262 388.87,155.32 
				383.717,151.576 378.564,155.32 380.532,149.262 375.38,145.519 381.749,145.519 			"/>
			
				<rect x="107.45" y="35.554" transform="matrix(0.7071 0.7071 -0.7071 0.7071 61.2171 -67.4724)" style="fill:#1EA0FF;" width="9.212" height="9.212"/>
			<polygon style="fill:#9936AF;" points="107.721,74.477 119.694,73.305 120.866,85.278 			"/>
			<polygon style="fill:#9936AF;" points="123.864,329.321 130.173,328.703 130.79,335.012 			"/>
			<polygon style="fill:#FFBE17;" points="32.564,327.363 32.308,317.251 42.891,320.342 			"/>
			<polygon style="fill:#FF42AF;" points="220.605,397.255 220.348,387.143 230.931,390.234 			"/>
			<polygon style="fill:#FF42AF;" points="325.255,130.516 324.998,120.404 335.581,123.495 			"/>
			<polygon style="fill:#FF42AF;" points="365.604,353.323 365.469,347.995 371.045,349.624 			"/>
			<polygon style="fill:#9936AF;" points="452.348,180.004 452.091,169.891 462.674,172.983 			"/>
			<path style="fill:#FF4072;" d="M125.863,139.791c-2.044-1.27-5.075-0.503-6.269,1.587c-0.587,1.028-0.767,2.283-1.524,3.194
				c-1.098,1.32-3.015,1.504-4.724,1.675c-1.792,0.18-3.627,0.471-5.174,1.395c-1.546,0.924-2.753,2.615-2.621,4.411
				c0.972-0.089,1.769-0.102,2.741-0.191c0.061,1.233,0.172,2.513,0.233,3.746c0.98-1.832,2.689-3.294,4.646-3.99
				c2.371-0.843,5.254-0.708,7.014-2.507c1.246-1.273,1.638-3.286,3.1-4.303c1.144-0.796,2.662-0.773,4.041-0.568
				c-0.812-0.719-1.635-1.43-2.448-2.149C125.327,141.236,125.237,140.525,125.863,139.791z"/>
			<path style="fill:#FF4072;" d="M210.542,421.738c-1.077-0.669-2.674-0.265-3.303,0.836c-0.309,0.542-0.404,1.203-0.803,1.683
				c-0.578,0.696-1.589,0.792-2.489,0.883c-0.944,0.095-1.911,0.248-2.726,0.735c-0.815,0.487-1.451,1.378-1.381,2.324
				c0.512-0.047,0.932-0.054,1.445-0.1c0.032,0.65,0.09,1.324,0.122,1.974c0.516-0.965,1.417-1.735,2.448-2.102
				c1.249-0.444,2.768-0.373,3.696-1.321c0.656-0.671,0.863-1.731,1.633-2.267c0.603-0.42,1.403-0.407,2.129-0.299
				c-0.428-0.379-0.862-0.754-1.29-1.132C210.26,422.5,210.212,422.125,210.542,421.738z"/>
			<path style="fill:#FF4072;" d="M477.835,414.749c-2.044-1.27-5.075-0.503-6.269,1.587c-0.587,1.028-0.767,2.283-1.524,3.194
				c-1.098,1.32-3.015,1.504-4.724,1.675c-1.792,0.18-3.627,0.471-5.174,1.395c-1.546,0.924-2.753,2.615-2.621,4.411
				c0.972-0.089,1.769-0.102,2.741-0.191c0.061,1.233,0.172,2.513,0.233,3.746c0.98-1.832,2.689-3.294,4.646-3.99
				c2.372-0.843,5.254-0.708,7.014-2.507c1.246-1.273,1.638-3.286,3.1-4.303c1.144-0.796,2.662-0.773,4.041-0.568
				c-0.812-0.719-1.635-1.43-2.448-2.149C477.299,416.194,477.21,415.483,477.835,414.749z"/>
			<path style="fill:#1EC6FF;" d="M321.338,273.349c-1.1-0.683-2.731-0.27-3.373,0.854c-0.316,0.553-0.413,1.229-0.82,1.719
				c-0.591,0.71-1.623,0.809-2.542,0.901c-0.964,0.097-1.952,0.254-2.784,0.751c-0.832,0.497-1.482,1.407-1.41,2.374
				c0.523-0.048,0.952-0.055,1.475-0.103c0.033,0.664,0.092,1.352,0.125,2.016c0.527-0.986,1.447-1.772,2.5-2.147
				c1.276-0.454,2.827-0.381,3.774-1.349c0.67-0.685,0.882-1.768,1.668-2.316c0.616-0.429,1.432-0.416,2.174-0.306
				c-0.437-0.387-0.88-0.77-1.317-1.156C321.05,274.127,321.002,273.744,321.338,273.349z"/>
			<path style="fill:#1EA0FF;" d="M311.495,162.587c-2.044-1.27-5.075-0.503-6.269,1.587c-0.587,1.028-0.767,2.283-1.524,3.194
				c-1.098,1.32-3.015,1.504-4.724,1.675c-1.792,0.18-3.628,0.471-5.174,1.395c-1.546,0.924-2.753,2.615-2.621,4.411
				c0.972-0.089,1.769-0.102,2.741-0.191c0.061,1.233,0.172,2.513,0.233,3.746c0.98-1.832,2.689-3.294,4.646-3.99
				c2.371-0.843,5.254-0.708,7.014-2.507c1.246-1.273,1.638-3.286,3.1-4.303c1.144-0.796,2.662-0.773,4.041-0.568
				c-0.812-0.719-1.635-1.43-2.448-2.149C310.959,164.033,310.869,163.321,311.495,162.587z"/>
			<path style="fill:#1EC6FF;" d="M311.495,393.439c-2.044-1.27-5.075-0.503-6.269,1.587c-0.587,1.028-0.767,2.283-1.524,3.194
				c-1.098,1.32-3.015,1.504-4.724,1.675c-1.792,0.18-3.628,0.471-5.174,1.395c-1.546,0.924-2.753,2.615-2.621,4.411
				c0.972-0.089,1.769-0.102,2.741-0.191c0.061,1.233,0.172,2.513,0.233,3.746c0.98-1.832,2.689-3.294,4.646-3.99
				c2.371-0.843,5.254-0.708,7.014-2.507c1.246-1.273,1.638-3.286,3.1-4.303c1.144-0.796,2.662-0.773,4.041-0.568
				c-0.812-0.719-1.635-1.43-2.448-2.149C310.959,394.885,310.869,394.173,311.495,393.439z"/>
			<path style="fill:#FF4072;" d="M139.128,284.009c-2.044-1.27-5.075-0.503-6.269,1.587c-0.587,1.028-0.767,2.283-1.524,3.194
				c-1.098,1.32-3.015,1.504-4.724,1.675c-1.792,0.18-3.628,0.471-5.174,1.395c-1.546,0.924-2.753,2.615-2.62,4.411
				c0.972-0.089,1.769-0.102,2.741-0.191c0.061,1.234,0.172,2.513,0.232,3.746c0.98-1.832,2.689-3.294,4.646-3.99
				c2.371-0.843,5.254-0.708,7.014-2.507c1.246-1.273,1.638-3.286,3.1-4.303c1.144-0.796,2.662-0.773,4.041-0.568
				c-0.812-0.719-1.635-1.43-2.447-2.149C138.592,285.454,138.502,284.743,139.128,284.009z"/>
			<path style="fill:#9936AF;" d="M393.145,442.38c-2.044-1.27-5.075-0.503-6.269,1.587c-0.587,1.028-0.767,2.283-1.524,3.194
				c-1.098,1.32-3.015,1.504-4.724,1.675c-1.792,0.18-3.628,0.471-5.174,1.395c-1.546,0.924-2.753,2.615-2.62,4.411
				c0.972-0.089,1.769-0.102,2.741-0.191c0.061,1.233,0.172,2.513,0.232,3.746c0.98-1.832,2.689-3.294,4.646-3.99
				c2.372-0.843,5.254-0.708,7.014-2.507c1.246-1.273,1.638-3.286,3.1-4.303c1.144-0.796,2.662-0.773,4.041-0.568
				c-0.812-0.719-1.635-1.43-2.447-2.149C392.61,443.825,392.52,443.114,393.145,442.38z"/>
			<path style="fill:#9936AF;" d="M401.483,74.06c-2.044-1.27-5.075-0.502-6.269,1.587c-0.587,1.028-0.767,2.283-1.524,3.194
				c-1.098,1.32-3.015,1.504-4.724,1.675c-1.792,0.18-3.628,0.471-5.174,1.395c-1.546,0.924-2.753,2.615-2.621,4.411
				c0.972-0.089,1.769-0.102,2.741-0.191c0.061,1.233,0.172,2.513,0.233,3.746c0.98-1.832,2.689-3.294,4.646-3.99
				c2.371-0.843,5.254-0.708,7.014-2.507c1.246-1.273,1.638-3.286,3.1-4.303c1.144-0.796,2.662-0.773,4.041-0.568
				c-0.812-0.719-1.635-1.43-2.447-2.149C400.947,75.506,400.857,74.794,401.483,74.06z"/>
			<polygon style="fill:#FFBE17;" points="36.407,69.41 24.937,80.88 23.933,76.486 19.539,75.482 31.009,64.012 32.578,67.841 			
				"/>
			<polygon style="fill:#1ED7FF;" points="67.491,364.462 56.021,375.932 55.017,371.538 50.623,370.535 62.093,359.065 
				63.662,362.894 			"/>
			<path style="fill:#9936AF;" d="M37.702,415.577c2.635,0.46,5.341,0.745,7.979,0.3c2.637-0.445,5.222-1.693,6.835-3.827
				c0.287,0.047,0.496,0.242,0.699,0.45c0.783,0.804,1.565,1.607,2.348,2.411c-0.981,2.287-3.332,3.726-5.749,4.319
				c-2.417,0.593-4.948,0.428-7.431,0.259c-1.525-0.104-3.051-0.207-4.576-0.311C37.587,418.072,37.526,416.691,37.702,415.577z"/>
			<path style="fill:#FF4072;" d="M207.779,83.758c2.635,0.46,5.341,0.745,7.979,0.3c2.637-0.446,5.222-1.693,6.835-3.827
				c0.286,0.047,0.496,0.242,0.699,0.45c0.783,0.804,1.566,1.607,2.348,2.411c-0.981,2.287-3.331,3.726-5.749,4.318
				c-2.417,0.593-4.948,0.428-7.431,0.259c-1.525-0.104-3.051-0.207-4.576-0.311C207.664,86.253,207.603,84.871,207.779,83.758z"/>
			<path style="fill:#9936AF;" d="M218.12,354.186c2.635,0.46,5.342,0.745,7.979,0.3c2.637-0.446,5.222-1.693,6.835-3.827
				c0.286,0.047,0.496,0.242,0.699,0.45c0.783,0.804,1.566,1.607,2.348,2.411c-0.981,2.287-3.331,3.726-5.749,4.319
				c-2.417,0.593-4.948,0.428-7.431,0.259c-1.526-0.104-3.051-0.207-4.577-0.311C218.005,356.681,217.944,355.3,218.12,354.186z"/>
			<path style="fill:#FF42AF;" d="M385.006,380.871c2.635,0.46,5.341,0.745,7.979,0.299c2.637-0.445,5.222-1.693,6.835-3.827
				c0.287,0.047,0.496,0.242,0.699,0.45c0.783,0.804,1.565,1.607,2.348,2.411c-0.981,2.287-3.332,3.726-5.749,4.318
				c-2.417,0.593-4.948,0.428-7.431,0.259c-1.525-0.104-3.051-0.208-4.576-0.311C384.891,383.366,384.83,381.985,385.006,380.871z"
				/>
			<path style="fill:#FF9717;" d="M304.079,435.782c2.635,0.46,5.341,0.745,7.979,0.3c2.637-0.445,5.222-1.693,6.835-3.827
				c0.287,0.047,0.496,0.242,0.699,0.451c0.783,0.804,1.565,1.607,2.348,2.411c-0.981,2.287-3.331,3.726-5.749,4.318
				c-2.417,0.593-4.948,0.428-7.431,0.259c-1.525-0.104-3.051-0.207-4.576-0.311C303.965,438.276,303.903,436.895,304.079,435.782z"
				/>
			
				<rect x="112.895" y="251.94" transform="matrix(0.8069 0.5907 -0.5907 0.8069 172.7054 -19.6679)" style="fill:#FF4072;" width="7.078" height="4.752"/>
			
				<rect x="298.527" y="215.626" transform="matrix(0.8069 0.5907 -0.5907 0.8069 187.1011 -136.3308)" style="fill:#FF4072;" width="7.078" height="4.752"/>
			
				<rect x="368.983" y="240.671" transform="matrix(0.8069 0.5907 -0.5907 0.8069 215.4955 -173.1103)" style="fill:#FF4072;" width="7.078" height="4.752"/>
			
				<rect x="360.841" y="172.278" transform="matrix(0.8069 0.5907 -0.5907 0.8069 173.5287 -181.5098)" style="fill:#1EC6FF;" width="7.078" height="4.752"/>
			<polygon style="fill:#00E668;" points="139.106,119.442 134.742,106.563 144.691,106.563 141.693,119.442 			"/>
			<polygon style="fill:#FF4072;" points="287.852,151.941 283.488,139.062 293.437,139.062 290.44,151.941 			"/>
			<polygon style="fill:#FFA317;" points="458.339,86.67 453.974,73.791 463.923,73.791 460.926,86.67 			"/>
			<polygon style="fill:#FFA317;" points="388.362,183.397 386.062,176.611 391.305,176.611 389.725,183.397 			"/>
			<rect x="447.34" y="465.008" style="fill:#1EC6FF;" width="9.5" height="3.313"/>
			<circle style="fill:#FF4072;" cx="422.563" cy="50.973" r="2.724"/>
			<polygon style="fill:#FF42AF;" points="22.686,363.32 23.723,366.512 27.079,366.512 24.364,368.485 25.401,371.677 
				22.686,369.704 19.971,371.677 21.008,368.485 18.293,366.512 21.649,366.512 			"/>
			<polygon style="fill:#9936AF;" points="39.428,25.737 45.736,25.119 46.354,31.428 			"/>
			<polygon style="fill:#FF42AF;" points="163.256,412.849 163.121,407.52 168.697,409.149 			"/>
			<path style="fill:#FF4072;" d="M41.278,120.727c-1.077-0.669-2.674-0.265-3.303,0.836c-0.309,0.542-0.404,1.203-0.803,1.683
				c-0.578,0.696-1.589,0.792-2.489,0.883c-0.944,0.095-1.911,0.248-2.726,0.735c-0.815,0.487-1.451,1.378-1.381,2.324
				c0.512-0.047,0.932-0.054,1.444-0.101c0.032,0.65,0.09,1.324,0.123,1.974c0.516-0.965,1.417-1.735,2.448-2.102
				c1.25-0.444,2.768-0.373,3.696-1.321c0.656-0.671,0.863-1.731,1.633-2.267c0.603-0.42,1.403-0.407,2.129-0.299
				c-0.428-0.379-0.861-0.754-1.289-1.132C40.996,121.489,40.949,121.114,41.278,120.727z"/>
			<polygon style="fill:#FFA317;" points="35,160.778 32.7,153.992 37.942,153.992 36.363,160.778 			"/>
			<rect x="58.186" y="256.223" style="fill:#1EC6FF;" width="9.5" height="3.313"/>
			<path style="fill:#FF4072;" d="M475.301,392.691c0,1.505-1.22,2.724-2.724,2.724s-2.724-1.22-2.724-2.724s1.22-2.724,2.724-2.724
				S475.301,391.186,475.301,392.691z"/>
			<polygon style="fill:#FF42AF;" points="202.875,113.584 203.912,116.776 207.268,116.776 204.553,118.749 205.59,121.94 
				202.875,119.968 200.16,121.94 201.197,118.749 198.482,116.776 201.838,116.776 			"/>
			<polygon style="fill:#9936AF;" points="364.794,53.765 371.103,53.147 371.72,59.456 			"/>
			<polygon style="fill:#FF42AF;" points="147.873,169.772 147.738,164.444 153.314,166.072 			"/>
			<path style="fill:#FF4072;" d="M420.739,266.5c-1.077-0.669-2.674-0.265-3.303,0.836c-0.309,0.542-0.404,1.203-0.803,1.683
				c-0.578,0.696-1.589,0.792-2.489,0.883c-0.944,0.095-1.911,0.248-2.726,0.735c-0.815,0.487-1.451,1.378-1.381,2.324
				c0.512-0.047,0.932-0.054,1.445-0.1c0.032,0.65,0.09,1.324,0.122,1.974c0.516-0.965,1.417-1.736,2.448-2.102
				c1.249-0.444,2.768-0.373,3.696-1.321c0.656-0.671,0.863-1.731,1.634-2.267c0.603-0.42,1.402-0.407,2.129-0.299
				c-0.428-0.379-0.862-0.754-1.29-1.132C420.457,267.262,420.41,266.887,420.739,266.5z"/>
			<polygon style="fill:#FFA317;" points="235.403,261.272 233.104,254.486 238.346,254.486 236.767,261.272 			"/>
			<polygon style="fill:#FFA317;" points="22.365,410.913 20.065,404.127 25.308,404.127 23.728,410.913 			"/>
			<rect x="200.824" y="320.651" style="fill:#1EC6FF;" width="9.5" height="3.313"/>
			<path style="fill:#FF4072;" d="M482.023,278.746c0,1.504-1.22,2.724-2.724,2.724s-2.724-1.22-2.724-2.724
				c0-1.505,1.22-2.724,2.724-2.724S482.023,277.242,482.023,278.746z"/>
			<polygon style="fill:#FF42AF;" points="22.686,280.837 23.723,284.028 27.079,284.028 24.364,286.001 25.401,289.193 
				22.686,287.22 19.971,289.193 21.008,286.001 18.293,284.028 21.649,284.028 			"/>
			<polygon style="fill:#9936AF;" points="368.257,320.85 374.566,320.233 375.184,326.542 			"/>
			<polygon style="fill:#FF42AF;" points="345.001,483.744 344.865,478.415 350.442,480.044 			"/>
			<path style="fill:#FF4072;" d="M477.544,25.669c-1.077-0.669-2.674-0.265-3.303,0.836c-0.31,0.542-0.404,1.203-0.803,1.683
				c-0.578,0.696-1.589,0.792-2.489,0.883c-0.944,0.095-1.911,0.248-2.726,0.735c-0.815,0.487-1.451,1.378-1.381,2.324
				c0.512-0.047,0.932-0.054,1.444-0.101c0.032,0.65,0.091,1.324,0.122,1.974c0.516-0.965,1.417-1.735,2.448-2.102
				c1.25-0.444,2.768-0.373,3.696-1.321c0.656-0.671,0.863-1.731,1.634-2.267c0.603-0.42,1.402-0.407,2.129-0.3
				c-0.428-0.379-0.861-0.753-1.29-1.132C477.262,26.431,477.214,26.056,477.544,25.669z"/>
			<polygon style="fill:#FFA317;" points="296.373,381.309 294.073,374.523 299.316,374.523 297.736,381.309 			"/>
			<polygon style="fill:#FFA317;" points="104.248,366.831 101.948,360.045 107.191,360.045 105.611,366.831 			"/>
			<rect x="95.069" y="477.767" style="fill:#1EC6FF;" width="9.5" height="3.313"/>
			<circle style="fill:#FF4072;" cx="39.428" cy="470.234" r="2.724"/>
			<polygon style="fill:#FF42AF;" points="207.625,474.715 208.662,477.907 212.018,477.907 209.303,479.879 210.34,483.071 
				207.625,481.099 204.91,483.071 205.947,479.879 203.232,477.907 206.588,477.907 			"/>
			<polygon style="fill:#9936AF;" points="259.276,478.543 265.585,477.925 266.203,484.234 			"/>
			<polygon style="fill:#FF42AF;" points="319.473,35.492 319.338,30.164 324.914,31.792 			"/>
			<path style="fill:#FF4072;" d="M251.358,270.412c-1.077-0.669-2.674-0.265-3.303,0.836c-0.31,0.542-0.404,1.203-0.803,1.683
				c-0.578,0.696-1.589,0.792-2.489,0.883c-0.944,0.095-1.911,0.248-2.726,0.735c-0.815,0.487-1.451,1.378-1.381,2.324
				c0.512-0.047,0.932-0.054,1.444-0.1c0.032,0.65,0.09,1.324,0.122,1.974c0.516-0.965,1.417-1.736,2.448-2.102
				c1.25-0.444,2.768-0.373,3.696-1.321c0.656-0.671,0.863-1.731,1.633-2.268c0.603-0.42,1.403-0.407,2.129-0.299
				c-0.428-0.379-0.862-0.754-1.29-1.132C251.075,271.174,251.028,270.799,251.358,270.412z"/>
			<polygon style="fill:#FFA317;" points="477.703,363.438 475.404,356.652 480.646,356.652 479.067,363.438 			"/>
			<polygon style="fill:#FFA317;" points="409.711,349.62 407.411,342.835 412.653,342.835 411.074,349.62 			"/>
			<rect x="383.933" y="23.893" style="fill:#1EC6FF;" width="9.5" height="3.313"/>
			<path style="fill:#FF4072;" d="M277.19,28.274c0,1.504-1.22,2.724-2.724,2.724c-1.505,0-2.724-1.22-2.724-2.724
				c0-1.505,1.22-2.724,2.724-2.724C275.97,25.549,277.19,26.769,277.19,28.274z"/>
			<polygon style="fill:#FF42AF;" points="87.417,11.343 88.454,14.535 91.81,14.535 89.095,16.507 90.132,19.699 87.417,17.726 
				84.702,19.699 85.739,16.507 83.024,14.535 86.38,14.535 			"/>
			<polygon style="fill:#9936AF;" points="437.455,30.291 443.764,29.673 444.382,35.982 			"/>
			<polygon style="fill:#FF42AF;" points="203.17,200.041 203.035,194.713 208.611,196.342 			"/>
			<path style="fill:#FF4072;" d="M238.638,15.695c-1.077-0.669-2.674-0.265-3.303,0.836c-0.309,0.542-0.404,1.203-0.803,1.683
				c-0.578,0.696-1.589,0.792-2.489,0.883c-0.944,0.095-1.911,0.248-2.726,0.735c-0.815,0.487-1.451,1.378-1.381,2.324
				c0.512-0.047,0.932-0.054,1.444-0.101c0.032,0.65,0.09,1.324,0.123,1.974c0.516-0.965,1.417-1.735,2.448-2.102
				c1.249-0.444,2.768-0.373,3.696-1.321c0.656-0.671,0.863-1.731,1.633-2.267c0.603-0.42,1.403-0.407,2.129-0.299
				c-0.428-0.379-0.861-0.753-1.289-1.132C238.355,16.456,238.308,16.081,238.638,15.695z"/>
			<polygon style="fill:#FFA317;" points="380.84,417.524 378.541,410.738 383.783,410.738 382.204,417.524 			"/>
			<polygon style="fill:#FFA317;" points="478.978,481.318 476.678,474.532 481.92,474.532 480.341,481.318 			"/>
			<rect x="228.919" y="463.351" style="fill:#1EC6FF;" width="9.5" height="3.313"/>
			<path style="fill:#FF4072;" d="M421.436,476.699c0,1.505-1.22,2.724-2.724,2.724s-2.724-1.22-2.724-2.724s1.22-2.724,2.724-2.724
				S421.436,475.194,421.436,476.699z"/>
			<polygon style="fill:#FF42AF;" points="22.686,448.865 23.723,452.057 27.079,452.057 24.364,454.03 25.401,457.221 
				22.686,455.249 19.971,457.221 21.008,454.03 18.293,452.057 21.649,452.057 			"/>
			<polygon style="fill:#9936AF;" points="189.743,33.445 196.052,32.828 196.67,39.137 			"/>
			<polygon style="fill:#FF42AF;" points="322.513,75.11 322.378,69.782 327.954,71.411 			"/>
			<path style="fill:#FF4072;" d="M304.479,470.559c-1.077-0.669-2.674-0.265-3.303,0.836c-0.309,0.542-0.404,1.203-0.803,1.683
				c-0.579,0.696-1.589,0.792-2.489,0.883c-0.944,0.095-1.911,0.248-2.726,0.735c-0.815,0.487-1.451,1.378-1.381,2.324
				c0.512-0.047,0.932-0.054,1.445-0.1c0.032,0.65,0.09,1.324,0.122,1.974c0.516-0.965,1.417-1.735,2.448-2.102
				c1.25-0.444,2.768-0.373,3.696-1.321c0.656-0.671,0.863-1.731,1.634-2.267c0.603-0.42,1.402-0.407,2.129-0.299
				c-0.428-0.379-0.862-0.754-1.29-1.132C304.197,471.321,304.149,470.946,304.479,470.559z"/>
			<polygon style="fill:#FFA317;" points="342.841,443.577 340.542,436.791 345.784,436.791 344.205,443.577 			"/>
			<rect x="378.845" y="212.807" style="fill:#1EC6FF;" width="9.5" height="3.313"/>
			<rect x="480.273" y="158.729" style="fill:#DFDEDB;" width="9.5" height="3.313"/>
			<rect x="478.273" y="156.729" style="fill:#1EC6FF;" width="9.5" height="3.313"/>
			<circle style="fill:#FF4072;" cx="475.301" cy="130.516" r="2.724"/>
			<polygon style="fill:#FF42AF;" points="150.526,31.804 151.563,34.996 154.919,34.996 152.204,36.968 153.241,40.16 
				150.526,38.188 147.811,40.16 148.848,36.968 146.133,34.996 149.489,34.996 			"/>
			<polygon style="fill:#9936AF;" points="52.293,279.323 58.602,278.706 59.219,285.015 			"/>
			<polygon style="fill:#FF42AF;" points="223.564,56.302 223.429,50.973 229.005,52.602 			"/>
			<path style="fill:#FF4072;" d="M219.128,146.57c-1.077-0.669-2.674-0.265-3.303,0.836c-0.309,0.542-0.404,1.203-0.803,1.683
				c-0.578,0.696-1.589,0.792-2.489,0.883c-0.944,0.095-1.911,0.248-2.726,0.735c-0.815,0.487-1.451,1.378-1.381,2.324
				c0.512-0.047,0.932-0.054,1.445-0.1c0.032,0.65,0.09,1.324,0.122,1.974c0.516-0.965,1.417-1.736,2.448-2.102
				c1.25-0.444,2.768-0.373,3.696-1.321c0.656-0.671,0.863-1.731,1.633-2.268c0.603-0.42,1.402-0.407,2.129-0.299
				c-0.428-0.379-0.861-0.753-1.29-1.132C218.846,147.332,218.798,146.957,219.128,146.57z"/>
			<polygon style="fill:#FFA317;" points="129.378,229.529 127.078,222.743 132.32,222.743 130.741,229.529 			"/>
			<polygon style="fill:#FFBE17;" points="139.981,396.89 135.617,384.011 145.566,384.011 142.569,396.89 			"/>
			<path style="fill:#7436AF;" d="M92.951,234.452c-0.054,2.393-0.511,4.802-1.572,6.948c-1.061,2.146-2.753,4.016-4.901,5.071
				c0.519,0.532,1.081,1.071,1.6,1.602c3.795-2.337,7.324-5.094,10.264-8.444c0.692-0.788,1.385-1.67,1.477-2.714
				C97.491,236.096,95.379,234.899,92.951,234.452z"/>
			<path style="fill:#00E668;" d="M288.875,256.523c-0.054,2.393-0.511,4.802-1.572,6.948c-1.061,2.146-2.753,4.016-4.901,5.071
				c0.519,0.532,1.081,1.071,1.6,1.602c3.795-2.336,7.324-5.094,10.264-8.444c0.691-0.788,1.385-1.67,1.477-2.714
				C293.415,258.167,291.303,256.969,288.875,256.523z"/>
			<path style="fill:#7436AF;" d="M226.802,219.326c-0.054,2.393-0.511,4.802-1.572,6.948c-1.061,2.146-2.753,4.016-4.901,5.071
				c0.519,0.532,1.081,1.071,1.6,1.602c3.795-2.336,7.324-5.094,10.264-8.444c0.691-0.788,1.385-1.67,1.477-2.714
				C231.341,220.969,229.23,219.772,226.802,219.326z"/>
			<path style="fill:#1EDEFF;" d="M159.041,451.386c-0.054,2.393-0.511,4.802-1.572,6.948c-1.061,2.146-2.753,4.016-4.901,5.071
				c0.519,0.532,1.081,1.071,1.6,1.603c3.795-2.336,7.324-5.094,10.265-8.444c0.691-0.788,1.385-1.67,1.477-2.714
				C163.581,453.03,161.469,451.832,159.041,451.386z"/>
			<path style="fill:#FF4072;" d="M60.623,451.386c-0.054,2.393-0.511,4.802-1.572,6.948c-1.061,2.146-2.753,4.016-4.901,5.071
				c0.519,0.532,1.081,1.071,1.6,1.603c3.795-2.336,7.324-5.094,10.264-8.444c0.691-0.788,1.385-1.67,1.477-2.714
				C65.162,453.03,63.051,451.832,60.623,451.386z"/>
			<path style="fill:#9936AF;" d="M149.88,343.849c-0.054,2.393-0.511,4.802-1.572,6.948c-1.061,2.146-2.753,4.016-4.901,5.071
				c0.519,0.532,1.081,1.071,1.6,1.602c3.795-2.336,7.324-5.094,10.264-8.444c0.691-0.788,1.385-1.67,1.476-2.714
				C154.419,345.492,152.308,344.295,149.88,343.849z"/>
			<path style="fill:#FFBE17;" d="M179.421,150.575c-0.054,2.393-0.511,4.802-1.572,6.948c-1.061,2.146-2.753,4.016-4.901,5.071
				c0.519,0.532,1.081,1.071,1.6,1.602c3.795-2.337,7.324-5.094,10.264-8.444c0.691-0.788,1.385-1.67,1.477-2.714
				C183.961,152.218,181.849,151.021,179.421,150.575z"/>
			<g>
				<polygon style="fill:#AA4072;" points="95.756,100.692 62.936,117.356 62.936,100.692 95.756,84.029 				"/>
				<polygon style="fill:#AA4072;" points="89.357,132.814 65.642,157.385 65.642,140.722 89.357,117.356 				"/>
				<polygon style="fill:#AA4072;" points="84.121,168.595 66.131,197.377 66.131,180.713 84.121,151.931 				"/>
				<polygon style="fill:#AA4072;" points="59.057,62.628 83.642,40.16 83.642,51.394 59.057,79.291 				"/>
				<polygon style="fill:#FF4072;" points="95.756,100.692 59.057,79.291 59.057,62.628 95.756,84.029 				"/>
				<polygon style="fill:#FF4072;" points="89.357,132.814 62.936,117.356 62.936,100.692 89.357,116.15 				"/>
				<polygon style="fill:#FF4072;" points="84.121,168.595 65.642,157.385 65.642,140.722 84.121,151.931 				"/>
				<polygon style="fill:#AA4072;" points="81.665,206.741 61.598,231.825 55.756,225.343 81.665,190.077 				"/>
				<polygon style="fill:#FF4072;" points="84.121,168.595 65.642,157.385 65.642,140.722 84.121,151.931 				"/>
				<polygon style="fill:#FF4072;" points="81.665,206.741 66.131,197.377 66.131,180.713 81.665,190.077 				"/>
			</g>
			<g>
				<path style="fill:#00E668;" d="M90.572,449.979c-5.129-12.26-7.762-25.177-7.616-37.354c0.069-5.682,0.816-10.174,2.324-13.834
					c-3.489-10.874-5.498-23.043-6.139-37.174c-0.386-8.496-0.2-18.253,4.104-26.201c0.517-0.954,1.109-1.865,1.763-2.72
					c-0.788-2.582-1.306-5.536-1.568-8.92c-0.529-6.843,0.04-13.693,0.595-18.897c0.113-1.062,0.237-2.132,0.391-3.198
					c-3.343-2.827-5.896-6.824-6.726-10.272c-2.016-8.363,1.945-17.918,8.83-21.299l1.832,3.732
					c-5.148,2.528-8.18,10.126-6.621,16.593c0.496,2.06,1.862,4.438,3.665,6.434c0.653-2.306,1.605-4.478,3.074-6.354
					c1.821-2.326,5.021-3.452,8.343-2.945c3.221,0.494,5.824,2.397,6.793,4.967c0.709,1.882,0.89,4.919-2.278,8.697
					c-2.85,3.398-6.609,4.753-10.582,3.824c-0.836-0.197-1.66-0.489-2.464-0.864c-0.043,0.375-0.084,0.751-0.124,1.124
					c-0.536,5.027-1.087,11.631-0.584,18.136c0.163,2.109,0.43,4.019,0.806,5.746c2.137-1.743,4.564-2.994,7.038-3.561
					c3.63-0.831,7.059-0.185,9.915,1.872c1.512,1.087,2.583,2.395,3.183,3.886c0.67,1.667,0.777,3.682,0.303,5.675
					c-1.215,5.105-6.083,8.761-11.103,8.314c-4.226-0.372-8.257-3.377-10.8-8.044c-0.009,0.017-0.019,0.034-0.028,0.052
					c-3.819,7.054-3.966,16.108-3.606,24.033c0.553,12.198,2.145,22.868,4.851,32.462c3.73-4.523,9.361-6.274,13.818-4.054
					c4.928,2.453,7.389,9.57,5.267,15.228c-1.109,2.958-3.399,5.299-6.283,6.42c-2.543,0.991-5.199,0.898-7.48-0.261
					c-2.542-1.29-4.345-3.603-5.688-6.162c-0.413,2.214-0.631,4.732-0.665,7.613c-0.14,11.613,2.382,23.958,7.294,35.7
					L90.572,449.979z M89.74,399.035c1.16,3.354,2.842,7.078,5.609,8.483c1.211,0.614,2.664,0.648,4.091,0.093
					c1.756-0.683,3.214-2.181,3.898-4.006c1.371-3.656-0.197-8.539-3.228-10.048c-3.381-1.68-7.606,0.89-9.736,4.35
					C90.151,398.27,89.94,398.646,89.74,399.035z M89.732,333.577c0.251,0.604,0.523,1.176,0.815,1.718
					c1.846,3.424,4.738,5.704,7.546,5.952c2.586,0.229,5.869-1.672,6.693-5.137c0.273-1.147,0.231-2.299-0.115-3.16
					c-0.301-0.748-0.892-1.443-1.755-2.063c-2.347-1.69-4.861-1.583-6.559-1.194C93.988,330.236,91.657,331.63,89.732,333.577z
					 M88.96,299.854c0.895,0.537,1.821,0.94,2.748,1.157c2.472,0.582,4.58-0.221,6.446-2.448c1.036-1.236,2.15-3.03,1.573-4.56
					c-0.433-1.149-1.82-2.061-3.533-2.324c-1.442-0.222-3.369,0.03-4.441,1.399C90.314,294.916,89.491,297.292,88.96,299.854z"/>
				<path style="fill:#00BC68;" d="M84.426,301.681c-0.137,0.948-0.245,1.899-0.348,2.845c1.153,1.12,2.86,1.985,3.921,2.455
					c0.056-0.568,0.113-1.128,0.17-1.662c0.04-0.373,0.081-0.749,0.124-1.124C85.83,303.331,84.426,301.681,84.426,301.681z"/>
				<path style="fill:#00BC68;" d="M86.896,337.405c-0.941-2.271-1.888-4.709-1.888-4.709c-0.654,0.855-1.246,1.766-1.763,2.72
					c-0.028,0.051-0.05,0.103-0.078,0.154c0.527,2.266,1.407,4.118,2.161,5.403C85.767,339.742,86.279,338.545,86.896,337.405z"/>
				<path style="fill:#00BC68;" d="M87.226,409.804c0.107-1.715,0.284-3.3,0.553-4.741c-1.444-3.19-2.499-6.272-2.499-6.272
					c-0.818,1.987-1.405,4.23-1.788,6.764C84.607,407.632,86.069,408.984,87.226,409.804z"/>
				<path style="fill:#00BC68;" d="M89.732,333.577c0.453-0.458,0.93-0.883,1.424-1.276c-0.372-1.043-0.841-2.624-1.036-4.358
					c-0.593,0.384-1.171,0.803-1.728,1.258C88.392,329.202,88.868,333.188,89.732,333.577z"/>
				<path style="fill:#00BC68;" d="M88.96,299.854c0.135-0.651,0.289-1.289,0.467-1.909c-1.108-0.543-2.456-1.529-3.265-3.271
					c-0.283,0.716-0.542,1.445-0.755,2.195C85.407,296.869,87.137,299.433,88.96,299.854z"/>
				<path style="fill:#00BC68;" d="M91.085,396.895c-0.618-1.049-1.168-2.561-1.308-4.696c-0.573,0.512-1.122,1.073-1.632,1.692
					c0,0,0.001,3.102,1.595,5.145c0.2-0.39,0.411-0.765,0.634-1.128C90.589,397.559,90.83,397.222,91.085,396.895z"/>
			</g>
			<g>
				<path style="fill:#1E96FF;" d="M181.417,204.351c0,0-21.594,1.448-36.597-13.71l2.939,12.064l-8.043,0.464
					c0,0,25.52,19.179,46.864,13.92"/>
				<path style="fill:#1E96FF;" d="M160.804,229.655l-0.758,8.642c0,0,9.887,9.831,29.501,7.55l1.059-7.721
					C190.605,238.127,167.487,237.79,160.804,229.655z"/>
				<path style="fill:#1ED7FF;" d="M160.804,229.655c5.248,0.993,10.875-0.924,14.687-4.665c5.298-5.199,6.909-13.282,5.927-20.639
					c2.622,2.561,5.032,4.917,7.225,7.854c-0.978,4.908-1.682,9.978-3.872,14.478c-2.19,4.5-5.742,8.553-10.445,10.265
					c-3.007,1.095-6.273,1.176-9.472,1.245c-1.603,0.035-3.205,0.069-4.807,0.104C159.906,234.936,160.589,233.013,160.804,229.655z
					"/>
				<path style="fill:#1EC6FF;" d="M190.605,238.127c-4.974,11.217-16.593,19.173-28.85,19.752
					c-0.547,4.083-0.811,8.512-0.591,12.626c3.174-0.079,6.164-1.361,8.973-2.842c9.678-5.102,17.808-13.098,23.07-22.69
					C192.92,242.229,192.086,240.455,190.605,238.127z"/>
				<path style="fill:#1EDEFF;" d="M161.755,257.879c0,0-1.197,9.075-0.668,14.293c0.529,5.217,12.048,17.559,26.574,24.826
					l1.963-6.335C161.036,264.203,161.755,257.879,161.755,257.879z"/>
				<path style="fill:#AAF1FF;" d="M159.238,308.766l1.614,3.43c22.593,1.794,28.771-11.558,28.771-11.558v-9.975
					C189.623,290.663,185.361,306.634,159.238,308.766z"/>
				<path style="fill:#1EDEFF;" d="M159.238,308.693l1.222,6.723c0,0,14.321,7.525,24.809,7.971v-1.86
					C173.304,318.775,159.238,308.693,159.238,308.693z"/>
			</g>
			<g>
				<path style="fill:#FF9717;" d="M349.314,263.334c-0.727-5.231-9.413-12.372-16.478-21.423
					c-9.523-12.2,10.735-22.718,10.735-22.718s3.422,3.355-0.243,6.944c-2.843,2.783-9.718,4.664-5.151,12.291
					c4.567,7.627,11.801,10.835,12.237,23.948"/>
				<path style="fill:#FFBE17;" d="M343.327,226.137c0,0,2.919-11.047-11.968-22.289c-14.887-11.242-2.021-33.661-2.021-33.661
					l2.978,5.799c0,0-7.135,17.166,1.685,23.301C346.652,208.088,352.175,216.694,343.327,226.137z"/>
				<path style="fill:#FFBE17;" d="M346.153,248.785c0,0,1.5,20.416-9.86,25.863l-0.379,7.697
					C360.742,265.566,346.153,248.785,346.153,248.785z"/>
			</g>
			<g>
				<path style="fill:#AA4072;" d="M335.634,344.476c0.727,3.69,9.413,8.728,16.478,15.112c9.524,8.607-10.735,16.026-10.735,16.026
					s-3.422-2.367,0.243-4.898c2.843-1.963,9.718-3.29,5.151-8.67c-4.567-5.38-11.801-7.643-12.237-16.894"/>
				<path style="fill:#FF4072;" d="M341.62,370.716c0,0-2.919,7.793,11.968,15.723c14.888,7.93,2.021,23.745,2.021,23.745
					l-2.978-4.091c0,0,7.135-12.11-1.685-16.438C338.295,383.448,332.772,377.377,341.62,370.716z"/>
				<path style="fill:#FF4072;" d="M338.794,354.739c0,0-1.5-14.402,9.86-18.245l0.379-5.43
					C324.206,342.901,338.794,354.739,338.794,354.739z"/>
			</g>
			<g>
				<path style="fill:#FF42AF;" d="M255.521,80.08c-0.612-1.362-0.777,2.949-1.44,4.287c-1.289-0.546-2.865-0.485-4.264-0.54
					c2.087,1.326,2.959,3.909,3.456,6.332c1.305,6.353,1.042,12.897,0.132,19.345c-29.739-0.709-25.977,26.423-14.947,27.7
					C265.321,140.312,263.752,98.409,255.521,80.08z M252.559,114.634c-0.283,1.511-0.592,3.031-1.2,4.443
					c-0.826,1.917-2.167,3.558-3.496,5.168c-1.183,1.433-2.526,2.958-4.357,3.28c-0.506,0.089-1.046,0.075-1.51-0.147
					c-0.526-0.251-0.899-0.739-1.197-1.24c-1.877-3.157-1.279-7.574,1.37-10.118c2.649-2.544,7.175-2.684,10.254-0.681l0.975-5.787
					C253.157,111.255,252.873,112.951,252.559,114.634z"/>
				<path style="fill:#9936AF;" d="M274.465,244.946c-3.164-1.598-13.262-14.398-13.328-28.982
					c-0.015-3.385,0.881-6.695,1.568-10.009c1.641-7.918,2.014-16.097,1.099-24.132c-0.608-5.343-2.019-11.005-5.806-14.715
					c-1.451,4.951-3.193,9.448-5.173,13.098c9.633,12.456,0.888,23.092-0.44,44.278c-1.358,21.663,15.048,28.155,15.048,28.155
					c-1.814-2.927-3.189-9.917-3.189-9.917C268.539,245.19,274.465,244.946,274.465,244.946z"/>
				<path style="fill:#BC36AF;" d="M260.306,115.604c-0.617,4.58-1.811,8.832-3.713,12.343c2.515,4.649-3.767,52.259-14.649,52.708
					c-10.064,0.416-0.634-15.71,9.079-11.705l1.898-6.865c-15.817-5.186-29.663,16.751-15.691,26.012
					C255.361,200.115,268.394,138.599,260.306,115.604z"/>
			</g>
			<g>
				<path style="fill:#7436AF;" d="M444.524,312.239c-7.449,7.285-16.869,12.62-27.268,13.264c1.502-2.375,2.715-5.087,3.318-7.831
					c9.584-0.184,23.534-10.039,24.73-12.907C444.814,306.503,444.61,310.436,444.524,312.239z"/>
				<path style="fill:#7436AF;" d="M420.25,368.729v8.115c23.347-5.896,29.388-30.753,29.388-30.753l-0.684-8.492
					C448.955,337.6,440.06,361.182,420.25,368.729z"/>
				<path style="fill:#7436AF;" d="M418.738,419.061l-0.027,8.732c17.583-9.431,27.899-26.754,27.899-26.754l0.624-6.694
					C447.234,394.345,437.919,408.672,418.738,419.061z"/>
				<path style="fill:#9936AF;" d="M420.871,317.488c1.12,2.378,2.644,4.56,4.459,6.461c6.221,6.518,15.28,9.319,23.921,11.871
					c0,3.345,0.388,7.062,0.388,10.408c-5.299-0.319-10.745-2.318-15.268-5.095c-4.524-2.777-8.558-6.27-12.57-9.746
					c-2.095-1.815-4.273-3.749-5.207-6.358C417.628,322.546,419.267,319.645,420.871,317.488z"/>
				<path style="fill:#9936AF;" d="M423.175,281.954c6.279,1.841,12.627,4.546,16.767,9.613c2.97,3.634,4.551,8.176,6.076,12.615
					c0.901,2.623-0.62,5.426-1.494,8.058c-1.983-4.598-4.682-8.905-8.45-12.204c-3.769-3.298-8.519-5.565-13.511-5.966
					c0.783-2.03,2.279-3.6,3.882-5.07C426.547,286.117,425.44,283.741,423.175,281.954z"/>
				<path style="fill:#9936AF;" d="M420.25,368.729v9.394c0,0,13.386,20.819,26.36,22.916l0.624-6.694
					C429.251,384.162,420.25,368.729,420.25,368.729z"/>
				<path style="fill:#9936AF;" d="M418.738,419.061l-0.027,8.732c0,0,7.458,20.677,24.415,25.25l-0.851-3.211l2.375-1.361
					C428.646,440.659,418.738,419.061,418.738,419.061z"/>
			</g>
			<g>
				<path style="fill:#1EC6FF;" d="M432.504,72.729c-2.844,14.097-13.543,26.34-27.133,31.047c0.853,4.024,1.797,8.136,2.651,12.159
					c12.484-7.457,25.478-15.417,31.734-28.545C438.341,82.314,435.592,77,432.504,72.729z"/>
				<path style="fill:#1EA0FF;" d="M437.555,109.769c-17.007,4.239-32.184-5.993-32.184-5.993l2.651,12.159
					c5.662,4.533,28.849,6.293,28.849,6.293L437.555,109.769z"/>
				<path style="fill:#1EC6FF;" d="M439.02,128.655c-8.381,9.943-19.054,14.809-31.927,16.646c0.762-4.381,1.103-8.965,1.413-13.401
					c12.598-1.765,24.003-10.453,29.049-22.13c0.931,0.839,1.149,1.923,1.161,3.177C438.764,118.198,438.971,123.403,439.02,128.655
					z"/>
				<path style="fill:#1EA0FF;" d="M439.488,146.327c-18.301,1.313-30.983-14.428-30.983-14.428s-0.255,9.911-1.413,13.401
					c0,0,14.763,13.719,31.803,15.413L439.488,146.327z"/>
				<path style="fill:#1EC6FF;" d="M439.488,146.327c-4.844,10.249-16.219,17.027-27.538,16.408
					c-0.634,4.052-1.765,8.116-2.973,12.036c4.8-0.45,9.207-2.312,13.45-4.6c6.183-3.334,11.262-4.742,16.468-9.458
					C439.688,154.787,438.804,150.408,439.488,146.327z"/>
				<path style="fill:#1EA0FF;" d="M411.95,162.736c0,0,9.984,16.491,23.171,18.042l-1.691,12.646c0,0-22.035-17.27-24.453-18.652
					C408.978,174.771,412.314,165.836,411.95,162.736z"/>
				<path style="fill:#1EC6FF;" d="M435.122,180.777c-6.05,7.365-14.706,12.545-24.056,14.393
					c-0.668,4.476-1.673,9.646-2.341,14.122c9.733-3.539,18.641-8.844,26.512-15.574
					C435.442,189.315,435.628,185.156,435.122,180.777z"/>
				<path style="fill:#1EA0FF;" d="M433.711,217.469c-4.243-1.626-8.595-3.318-11.944-6.387c-2.353-2.156-4.09-4.885-5.799-7.581
					c-1.752-2.763-3.504-5.527-5.256-8.29l-1.988,14.082c1.332,1.883,3.109,3.661,4.382,5.584
					c4.739,7.164,11.404,10.481,19.724,12.617C433.033,223.587,434.034,221.368,433.711,217.469z"/>
				<path style="fill:#1EC6FF;" d="M433.771,217.36c-5.353,4.788-12.476,7.548-19.658,7.618c-0.647,3.881-1.26,7.729-1.907,11.61
					c8.05-0.429,15.975-3.686,22.12-8.904C433.448,224.038,433.687,221.108,433.771,217.36z"/>
			</g>
			<g>
				<path style="fill:#FFBE17;" d="M267.026,454.514c-0.656-6.965-1.322-13.986-3.35-20.682
					c-2.028-6.696-5.785-12.967-11.243-17.345c3.74-8.042,7.549-15.983,11.745-23.796c-1.75-9.709-7.004-18.587-14.435-25.076
					c4.753-7.908,10.078-15.491,15.746-22.771c-3.326-8.904-10.97-16.47-20.012-19.399c7.632-6.971,16.025-12.927,25.144-17.796
					c-7.907-5.959-18.068-8.848-27.928-7.939c1.426-2.17,2.49-4.715,3.916-6.885c13.105,1.088,26.06,6.355,35.703,15.296
					c-9.837,3.253-20.344,6.735-27.542,14.187c2.133,0.542,3.959,1.908,5.558,3.421c5.78,5.472,10.087,12.487,12.35,20.119
					c-6.542,6.45-12.341,13.664-16.879,21.652c2.251,0.712,4.149,2.384,5.751,4.117c5.472,5.919,9.794,12.898,12.654,20.435
					c-5.065,6.168-9.603,12.909-13.342,19.961c7.341,7.733,12.429,17.699,13.814,28.272c0.986,7.529,0.276,15.165-0.435,22.725
					C273.086,458.855,270.897,456.41,267.026,454.514z"/>
				<path style="fill:#FFA317;" d="M250.467,321.137c2.249,0.444,4.303,1.171,4.303,1.171c0.406-0.421,0.826-0.825,1.253-1.221
					c0.128-0.118,0.258-0.234,0.387-0.35c0.317-0.285,0.638-0.564,0.965-0.836c0.136-0.113,0.271-0.227,0.408-0.338
					c0.415-0.336,0.837-0.664,1.267-0.982c0.036-0.027,0.072-0.056,0.108-0.083c0.465-0.341,0.94-0.669,1.421-0.991
					c0.148-0.099,0.299-0.196,0.449-0.293c0.349-0.227,0.702-0.45,1.059-0.668c0.162-0.099,0.324-0.198,0.487-0.296
					c0.423-0.251,0.85-0.496,1.281-0.735c0.081-0.045,0.16-0.092,0.241-0.136c0.503-0.275,1.012-0.541,1.526-0.801
					c0.175-0.089,0.351-0.174,0.527-0.262c0.358-0.177,0.719-0.352,1.081-0.522c0.194-0.091,0.389-0.183,0.584-0.273
					c0.396-0.182,0.794-0.359,1.194-0.534c0.142-0.062,0.283-0.126,0.425-0.188c0.514-0.221,1.032-0.436,1.551-0.647
					c0.217-0.088,0.435-0.174,0.653-0.261c0.334-0.133,0.668-0.264,1.004-0.393c0.237-0.091,0.475-0.183,0.713-0.272
					c0.34-0.128,0.68-0.254,1.021-0.379c0.213-0.078,0.425-0.158,0.638-0.235c-2.381-1.53-4.392-2.963-4.392-2.963
					C263.445,311.48,256.727,315.994,250.467,321.137z"/>
				<path style="fill:#FFA317;" d="M255.799,367.499c3.118-5.488,6.842-10.602,10.982-15.363c-0.224-4.58-1.293-7.292-1.293-7.292
					c-5.42,6.962-10.522,14.205-15.114,21.741C253.224,366.877,255.799,367.499,255.799,367.499z"/>
				<path style="fill:#FFA317;" d="M260.864,412.009c1.376-2.595,2.862-5.147,4.441-7.645c1.957-7.073-1.127-11.673-1.127-11.673
					c-0.902,1.68-1.779,3.368-2.648,5.059c-0.326,0.634-0.65,1.269-0.972,1.905c-0.489,0.965-0.97,1.933-1.451,2.902
					c-0.96,1.937-1.909,3.879-2.845,5.829c-0.001,0.001-0.001,0.003-0.002,0.004C257.242,408.69,260.206,410.905,260.864,412.009z"
					/>
			</g>
			<path style="fill:#FF42AF;" d="M185.039,474.564c-6.97-3.788-8.852-12.411-8.345-18.645c0.433-5.325,2.256-10.419,4.019-15.345
				c0.556-1.554,1.13-3.159,1.65-4.742c0.847-2.579,1.701-5.57,1.104-8.426c-0.18-0.863-0.552-1.735-1.069-2.506
				c-0.955,0.941-2.048,1.627-3.272,2.045c-1.586,0.541-3.722,0.419-4.669-1.128c-0.51-0.831-0.508-1.84,0.004-2.767
				c0.706-1.279,2.212-2.185,3.663-2.202c1.684-0.007,3.129,0.678,4.275,1.74c1.81-2.559,2.61-6.162,2.952-9.236
				c0.914-8.207,0.679-16.496-0.698-24.637c-0.31-1.826-0.728-3.653-1.582-5.102c-1.27,1.124-3.064,1.771-4.749,1.685
				c-1.425-0.068-2.67-0.649-3.505-1.636l-0.21-0.248l0.038-0.323c0.155-1.323,1.025-2.418,2.388-3.004
				c1.766-0.759,3.932-0.534,5.391,0.557c0.256,0.191,0.494,0.397,0.716,0.615c1.174-1.726,1.687-3.957,2.028-5.992
				c0.997-5.938,1.142-11.98,0.433-17.957l1.489-0.178c0.727,6.12,0.578,12.305-0.442,18.383c-0.393,2.342-1.005,4.936-2.523,6.946
				c1.135,1.71,1.646,3.862,2.009,6.004c1.4,8.278,1.64,16.707,0.711,25.053c-0.492,4.418-1.654,7.859-3.425,10.214
				c0.753,1.023,1.277,2.207,1.52,3.367c0.641,3.064-0.172,6.233-1.147,9.201c-0.525,1.601-1.104,3.216-1.663,4.778
				c-1.73,4.835-3.519,9.834-3.936,14.961c-0.47,5.784,1.229,13.762,7.565,17.205L185.039,474.564z M178.188,422.349
				c-0.016,0-0.032,0-0.048,0c-0.906,0.011-1.924,0.624-2.367,1.427c-0.254,0.461-0.267,0.884-0.037,1.259
				c0.493,0.805,1.833,0.856,2.905,0.491c1.09-0.372,2.011-0.988,2.789-1.775C180.536,422.904,179.419,422.349,178.188,422.349z
				 M176.196,382.942c0.692,0.648,1.56,0.828,2.196,0.858c1.337,0.075,2.783-0.466,3.771-1.39c-0.197-0.204-0.411-0.393-0.641-0.565
				c-1.027-0.77-2.631-0.926-3.9-0.38C177.172,381.659,176.436,382.096,176.196,382.942z"/>
			<path style="fill:#FF4072;" d="M354.049,147.391l-1.068-1.053c2.103-2.134,1.545-5.324,0.954-8.702
				c-0.429-2.446-0.871-4.975-0.373-7.351c0.34-1.616,1.111-3.17,1.857-4.673c1.234-2.486,2.4-4.834,1.351-6.984
				c-0.499-1.022-1.451-1.832-2.459-2.689c-1.456-1.239-2.962-2.52-3.102-4.561c-0.133-1.917,1.03-3.358,2.155-4.753
				c0.625-0.775,1.215-1.507,1.585-2.302c1.873-4.029-2.157-8.401-5.869-11.36l-0.545-0.434l0.394-0.575
				c1.367-2.001,3.618-2.885,5.795-3.739c0.389-0.153,0.775-0.304,1.153-0.461c1.351-0.562,4.492-2.149,4.498-4.752
				c0.007-2.641-3.215-4.281-6.233-4.935l-0.123-0.027c-3.186-0.69-7.151-1.549-8.505-4.844l-0.26-0.631l15.976-8.406
				c0.494-0.26,0.871-0.567,1.036-0.824l-10.092-1.909l0.279-1.474l11.126,2.104l0.153,0.379c0.439,1.085-0.235,2.225-1.805,3.05
				l-14.717,7.744c1.306,2.084,4.383,2.75,7.125,3.344l0.124,0.027c1.742,0.377,7.427,1.955,7.415,6.404
				c-0.006,2.467-1.981,4.702-5.422,6.133c-0.388,0.161-0.783,0.317-1.182,0.473c-1.734,0.681-3.52,1.382-4.677,2.65
				c5.487,4.556,7.463,8.935,5.714,12.694c-0.446,0.962-1.123,1.8-1.777,2.611c-0.986,1.223-1.918,2.378-1.826,3.708
				c0.098,1.412,1.247,2.39,2.578,3.522c1.081,0.92,2.198,1.87,2.835,3.174c1.374,2.814-0.014,5.607-1.354,8.309
				c-0.705,1.419-1.433,2.886-1.732,4.314c-0.44,2.093-0.023,4.479,0.382,6.785C356.042,140.98,356.694,144.706,354.049,147.391z"/>
			<path style="fill:#00E668;" d="M173.401,135.508c-3.969-3.551-4.345-9.545-3.373-13.97c0.654-2.98,1.852-5.81,3.009-8.547
				c0.679-1.604,1.38-3.263,1.957-4.919c2.852-8.191,2.981-17.031,3.105-25.579c0.044-3.017,0.089-6.137-0.921-8.981
				c-0.389-1.095-0.943-2.083-1.613-2.918c-1.22,1.466-2.738,2.683-4.482,3.513l-0.554,0.263l-0.368-0.49
				c-1.626-2.164-1.283-5.502,0.748-7.29l0.266-0.234l0.35,0.057c1.507,0.245,2.795,0.923,3.859,1.829
				c1.505-2.412,2.228-5.324,1.833-8.11l1.485-0.211c0.468,3.302-0.396,6.681-2.213,9.429c0.963,1.129,1.666,2.434,2.102,3.66
				c1.101,3.098,1.052,6.501,1.008,9.504c-0.127,8.668-0.257,17.63-3.189,26.051c-0.593,1.703-1.305,3.384-1.992,5.01
				c-1.131,2.674-2.301,5.439-2.926,8.284c-0.881,4.012-0.58,9.41,2.908,12.53L173.401,135.508z M171.648,67.965
				c-1.072,1.167-1.318,3.063-0.614,4.481c1.334-0.74,2.509-1.761,3.472-2.962C173.643,68.731,172.666,68.202,171.648,67.965z"/>
			<path style="fill:#1EC6FF;" d="M391.575,336.454c-0.323-1.6-0.708-3.214-1.081-4.775c-0.991-4.153-2.017-8.448-1.915-12.721
				c0.079-3.368,0.861-6.762,1.618-10.043c0.832-3.605,1.691-7.333,1.66-11.122c-0.039-4.665-1.419-9.177-2.754-13.541
				c-0.396-1.291-0.79-2.581-1.15-3.874c-1.266-4.537-2.646-11.215-0.02-16.813l-1.357-0.637
				c-2.838,6.049-1.398,13.085-0.068,17.852c0.364,1.306,0.763,2.607,1.161,3.911c1.304,4.261,2.651,8.667,2.689,13.113
				c0.03,3.613-0.81,7.253-1.621,10.773c-0.774,3.354-1.574,6.824-1.657,10.345c-0.105,4.467,0.942,8.858,1.956,13.104
				c0.369,1.549,0.752,3.15,1.069,4.724c1.474,7.29,0.974,12.826-1.528,16.925l1.281,0.781
				C392.565,350.021,393.127,344.132,391.575,336.454z"/>
		</g>
	</g>
</g>
</svg>
