<svg id="Layer_1" data-name="Layer 1" xmlns="http://www.w3.org/2000/svg" xmlns:xlink="http://www.w3.org/1999/xlink" viewBox="0 0 830.3 240.9"><defs><style>.cls-1{fill:none;}.cls-2{fill:#183c6c;}.cls-3{fill:#646363;}.cls-4{clip-path:url(#clip-path);}.cls-5{fill:#a8182f;}.cls-6{fill:#fff;}</style><clipPath id="clip-path"><path class="cls-1" d="M681.85,197.55a25.13,25.13,0,1,0-25.13,25.13,25.13,25.13,0,0,0,25.13-25.13"/></clipPath></defs><path class="cls-2" d="M733.67,140.86H652a20.56,20.56,0,0,1,0-41.12h81.72a20.42,20.42,0,1,0,0-40.84H652a20.56,20.56,0,1,1,0-41.11h81.72a61.54,61.54,0,1,1,0,123.07"/><path class="cls-3" d="M199.7,132.59v18.6a1.26,1.26,0,0,1-1.42,1.42h-6.11a17.71,17.71,0,0,1-10.79-3.13,45.31,45.31,0,0,1-16.55,20.38,43.76,43.76,0,0,1-25.34,7.74,44.27,44.27,0,0,1-22.86-6.18,46.18,46.18,0,0,1-16.69-16.68,44.32,44.32,0,0,1-6.18-22.86V105.32h20.45v25.42a24.62,24.62,0,0,0,3.41,12.64,25.37,25.37,0,0,0,9.23,9.23A24.59,24.59,0,0,0,139.49,156a25.56,25.56,0,0,0,22.15-12.64,24.62,24.62,0,0,0,3.41-12.64V56.9h20.59v67.59a6.48,6.48,0,0,0,1.91,4.76,6.3,6.3,0,0,0,4.62,1.92h6.11A1.26,1.26,0,0,1,199.7,132.59Z"/><path class="cls-3" d="M196.86,151.19v-18.6a1.25,1.25,0,0,1,1.42-1.42h19.17a1.25,1.25,0,0,1,1.41,1.42v18.6a1.25,1.25,0,0,1-1.41,1.42H198.28A1.25,1.25,0,0,1,196.86,151.19Z"/><path class="cls-3" d="M216,151.19v-18.6a1.26,1.26,0,0,1,1.42-1.42h19.17a1.25,1.25,0,0,1,1.42,1.42v18.6a1.25,1.25,0,0,1-1.42,1.42H217.44A1.26,1.26,0,0,1,216,151.19Z"/><path class="cls-3" d="M235.19,151.19v-18.6a1.26,1.26,0,0,1,1.42-1.42h19.17a1.25,1.25,0,0,1,1.42,1.42v18.6a1.25,1.25,0,0,1-1.42,1.42H236.61A1.26,1.26,0,0,1,235.19,151.19Z"/><path class="cls-3" d="M254.36,151.19v-18.6a1.26,1.26,0,0,1,1.42-1.42H275a1.25,1.25,0,0,1,1.42,1.42v18.6a1.25,1.25,0,0,1-1.42,1.42H255.78A1.26,1.26,0,0,1,254.36,151.19Z"/><path class="cls-3" d="M273.53,151.19v-18.6a1.26,1.26,0,0,1,1.42-1.42h19.17a1.25,1.25,0,0,1,1.42,1.42v18.6a1.25,1.25,0,0,1-1.42,1.42H275A1.26,1.26,0,0,1,273.53,151.19Z"/><path class="cls-3" d="M292.7,151.19v-18.6a1.26,1.26,0,0,1,1.42-1.42h19.17a1.25,1.25,0,0,1,1.42,1.42v18.6a1.25,1.25,0,0,1-1.42,1.42H294.12A1.26,1.26,0,0,1,292.7,151.19Z"/><path class="cls-3" d="M313.29,131.17h9.23a6.25,6.25,0,0,0,4.69-1.92,6.59,6.59,0,0,0,1.84-4.76V99.64H349.5v24.85a6.55,6.55,0,0,0,1.85,4.76,6.21,6.21,0,0,0,4.68,1.92h9.23a1.25,1.25,0,0,1,1.42,1.42v18.6a1.25,1.25,0,0,1-1.42,1.42H356q-10.5,0-16.75-7a22,22,0,0,1-16.76,7h-9.23a1.25,1.25,0,0,1-1.42-1.42v-18.6A1.25,1.25,0,0,1,313.29,131.17Zm4,33.65h18.17V183H317.27Zm25.56,0h18.31V183H342.83Z"/><path class="cls-3" d="M455.72,132.59v18.6a1.26,1.26,0,0,1-1.42,1.42h-6q-10.65,0-16.9-7.67a30.81,30.81,0,0,1-20.73,7.95,28.29,28.29,0,0,1-10.65-2,30.14,30.14,0,0,1-8.94-5.53q-6.12,7.23-16.48,7.24h-9.37a1.26,1.26,0,0,1-1.42-1.42v-18.6a1.26,1.26,0,0,1,1.42-1.42h9.37a6.3,6.3,0,0,0,4.62-1.92,6.45,6.45,0,0,0,1.92-4.76V112.56h-8.81V92.26H410.7a32.4,32.4,0,0,1,15.62,3.83,29.69,29.69,0,0,1,11.29,10.58,28.12,28.12,0,0,1,4.19,15.12v2.7a6.55,6.55,0,0,0,1.85,4.76,6.21,6.21,0,0,0,4.68,1.92h6A1.26,1.26,0,0,1,455.72,132.59Zm-38.2-3.91a9.46,9.46,0,0,0,2.7-6.89,8.84,8.84,0,0,0-2.7-6.6,9.38,9.38,0,0,0-6.82-2.63h-9.37v9.23a9.57,9.57,0,0,0,2.63,6.89,8.87,8.87,0,0,0,6.74,2.77A9.1,9.1,0,0,0,417.52,128.68Z"/><path class="cls-3" d="M452.88,151.19v-18.6a1.25,1.25,0,0,1,1.42-1.42h15.33a6.18,6.18,0,0,0,4.62-2,6.57,6.57,0,0,0,1.91-4.69V95.38h20.31v30.39A26.9,26.9,0,0,1,483.26,149a26,26,0,0,1-13.49,3.62H454.3A1.25,1.25,0,0,1,452.88,151.19Zm1.56,13.63h18.17V183H454.44Zm25.56,0h18.32V183H480Z"/><path class="cls-3" d="M508.26,56.9H528.7v95.71H508.26Z"/><g class="cls-4"><path class="cls-5" d="M681.85,197.55a25.13,25.13,0,1,0-25.13,25.13,25.13,25.13,0,0,0,25.13-25.13"/><path class="cls-6" d="M676,223a5.33,5.33,0,0,1-.53,1,1.93,1.93,0,0,1-1.64.65H640a2.15,2.15,0,0,1-1.5-.46,2,2,0,0,1-.71-1.61c0-2.49,0-5,0-7.46V201.44a2,2,0,0,1,2.25-2.26h33.53A2.1,2.1,0,0,1,676,200.8Zm-35.57.09h33.12c-.1-.13-.16-.22-.23-.3m1.28.33V201.57l-.39.28-15,11.26a3.47,3.47,0,0,1-4.4,0l-15.07-11.3-.34-.24v21.55m1.23-22.5.23.2q7.47,5.59,14.92,11.18a2,2,0,0,0,2.45,0q7.45-5.56,14.89-11.15a1.12,1.12,0,0,1,.24-.13l-.08-.09Z"/></g></svg>