<?xml version="1.0" encoding="utf-8"?>
<!-- Generator: Adobe Illustrator 25.3.1, SVG Export Plug-In . SVG Version: 6.00 Build 0)  -->
<svg version="1.1" id="Layer_1" xmlns="http://www.w3.org/2000/svg" xmlns:xlink="http://www.w3.org/1999/xlink" x="0px" y="0px"
	 viewBox="0 0 800 800" style="enable-background:new 0 0 800 800;" xml:space="preserve">
<style type="text/css">
	.st0{fill:#4F7CAD;}
	.st1{fill:#88BD24;}
	.st2{fill:#5059A4;}
	.st3{fill:#08909F;}
	.st4{fill:#46B593;}
	.st5{fill:#0FA0C0;}
	.st6{clip-path:url(#SVGID_2_);}
	.st7{fill:#E8E8F0;}
	.st8{fill:#C5C1D2;}
	.st9{fill:none;stroke:#C5C1D2;stroke-width:2.8481;stroke-miterlimit:10;}
	.st10{fill:#1C1D3E;}
	.st11{fill:#FFFFFF;}
	.st12{fill:#505EA8;}
	.st13{fill:none;stroke:#1C1D3E;stroke-width:2.1361;stroke-linecap:round;stroke-linejoin:round;stroke-miterlimit:10;}
	.st14{fill:#FFFFFF;stroke:#1C1D3E;stroke-width:2.1361;stroke-miterlimit:10;}
	.st15{fill:none;stroke:#1C1D3E;stroke-width:2.8481;stroke-linecap:round;stroke-linejoin:round;stroke-miterlimit:10;}
	.st16{fill:#F6CB40;}
	.st17{fill:#FFFFFF;stroke:#1C1D3E;stroke-width:2.1361;stroke-linecap:round;stroke-linejoin:round;stroke-miterlimit:10;}
	.st18{fill:#1C1D3E;stroke:#1C1D3E;stroke-width:2.1361;stroke-linecap:round;stroke-linejoin:round;stroke-miterlimit:10;}
	.st19{clip-path:url(#SVGID_4_);}
	.st20{clip-path:url(#SVGID_6_);}
	.st21{fill-rule:evenodd;clip-rule:evenodd;fill:none;}
	.st22{fill:none;stroke:#1C1D3E;stroke-width:1.9248;stroke-linecap:round;stroke-linejoin:round;stroke-miterlimit:10;}
	.st23{fill:#FFFFFF;stroke:#1C1D3E;stroke-width:1.9248;stroke-linecap:round;stroke-linejoin:round;stroke-miterlimit:10;}
	.st24{fill:#FFFFFF;stroke:#1C1D3E;stroke-width:1.9248;stroke-miterlimit:10;}
	.st25{fill:none;stroke:#1C1D3E;stroke-width:3.8495;stroke-linecap:round;stroke-linejoin:round;stroke-miterlimit:10;}
	.st26{fill:none;stroke:#1C1D3E;stroke-width:1.7019;stroke-linecap:round;stroke-linejoin:round;stroke-miterlimit:10;}
	.st27{fill:#FFFFFF;stroke:#1C1D3E;stroke-width:1.7019;stroke-linecap:round;stroke-linejoin:round;stroke-miterlimit:10;}
	.st28{fill:#1C1D3E;stroke:#1C1D3E;stroke-width:1.7019;stroke-linecap:round;stroke-linejoin:round;stroke-miterlimit:10;}
	.st29{fill:#1C1D3E;stroke:#1C1D3E;stroke-width:1.7019;stroke-miterlimit:10;}
	.st30{fill:#FFFFFF;stroke:#1C1D3E;stroke-width:1.7019;stroke-miterlimit:10;}
	.st31{fill:none;stroke:#1C1D3E;stroke-width:3.4037;stroke-linecap:round;stroke-linejoin:round;stroke-miterlimit:10;}
	.st32{fill:#FFFFFF;stroke:#1C1D3E;stroke-width:2.1261;stroke-linecap:round;stroke-linejoin:round;stroke-miterlimit:10;}
	.st33{fill:none;stroke:#1C1D3E;stroke-width:2.1261;stroke-linecap:round;stroke-linejoin:round;stroke-miterlimit:10;}
	.st34{fill:#1C1D3E;stroke:#1C1D3E;stroke-width:2.1261;stroke-linecap:round;stroke-linejoin:round;stroke-miterlimit:10;}
	.st35{fill:#FFFFFF;stroke:#1C1D3E;stroke-width:1.3878;stroke-linecap:round;stroke-linejoin:round;stroke-miterlimit:10;}
	.st36{fill:none;stroke:#1C1D3E;stroke-width:1.3878;stroke-linecap:round;stroke-linejoin:round;stroke-miterlimit:10;}
	.st37{fill:#1C1D3E;stroke:#1C1D3E;stroke-width:1.3878;stroke-linecap:round;stroke-linejoin:round;stroke-miterlimit:10;}
	.st38{fill:#FFFFFF;stroke:#1C1D3E;stroke-width:1.3878;stroke-miterlimit:10;}
	.st39{fill:none;stroke:#1C1D3E;stroke-width:1.8504;stroke-linecap:round;stroke-linejoin:round;stroke-miterlimit:10;}
	.st40{fill:#C6C3E3;}
	.st41{fill:#898DC5;}
	.st42{fill:#936037;}
	.st43{fill:#662483;}
	.st44{fill:none;stroke:#1C1D3E;stroke-width:1.4923;stroke-linecap:round;stroke-linejoin:round;stroke-miterlimit:10;}
	.st45{fill:#95C11F;}
	.st46{fill:#FFFFFF;stroke:#1C1D3E;stroke-width:1.4923;stroke-miterlimit:10;}
	.st47{fill:none;stroke:#1C1D3E;stroke-width:1.9897;stroke-linecap:round;stroke-linejoin:round;stroke-miterlimit:10;}
	.st48{fill:#D60B52;}
	.st49{fill:#FFFFFF;stroke:#1C1D3E;stroke-width:1.2709;stroke-linecap:round;stroke-linejoin:round;stroke-miterlimit:10;}
	.st50{fill:none;stroke:#1C1D3E;stroke-width:1.2709;stroke-linecap:round;stroke-linejoin:round;stroke-miterlimit:10;}
	.st51{fill:#FFFFFF;stroke:#1C1D3E;stroke-width:1.2709;stroke-miterlimit:10;}
	.st52{fill:none;stroke:#1C1D3E;stroke-width:2.5417;stroke-linecap:round;stroke-linejoin:round;stroke-miterlimit:10;}
	.st53{clip-path:url(#SVGID_8_);}
	.st54{opacity:0.4;fill:#E8E8F0;}
	.st55{clip-path:url(#SVGID_8_);fill-rule:evenodd;clip-rule:evenodd;fill:none;}
	.st56{clip-path:url(#SVGID_10_);}
	.st57{fill:#634E42;}
	.st58{clip-path:url(#SVGID_12_);}
	.st59{fill:#00A19A;}
	.st60{fill:#BE1622;}
	.st61{fill:#FFFFFF;stroke:#1C1D3E;stroke-width:2.1323;stroke-miterlimit:10;}
	.st62{fill:#FFFFFF;stroke:#1C1D3E;stroke-width:2.1323;stroke-linecap:round;stroke-linejoin:round;stroke-miterlimit:10;}
	.st63{fill:none;stroke:#1C1D3E;stroke-width:2.1323;stroke-linecap:round;stroke-linejoin:round;stroke-miterlimit:10;}
	.st64{fill:none;stroke:#1C1D3E;stroke-width:2.1323;stroke-miterlimit:10;}
	.st65{fill:#FFFFFF;stroke:#1C1D3E;stroke-width:2.0273;stroke-linecap:round;stroke-linejoin:round;stroke-miterlimit:10;}
	.st66{fill:none;stroke:#1C1D3E;stroke-width:2.0273;stroke-linecap:round;stroke-linejoin:round;stroke-miterlimit:10;}
	.st67{fill:#FFFFFF;stroke:#1C1D3E;stroke-width:2.0273;stroke-miterlimit:10;}
	.st68{fill:none;stroke:#1C1D3E;stroke-width:4.0546;stroke-linecap:round;stroke-miterlimit:10;}
	.st69{clip-path:url(#SVGID_14_);}
	.st70{clip-path:url(#SVGID_14_);fill-rule:evenodd;clip-rule:evenodd;fill:none;}
	.st71{fill:#FFFFFF;stroke:#1C1D3E;stroke-width:2.4986;stroke-linecap:round;stroke-linejoin:round;stroke-miterlimit:10;}
	.st72{fill:none;stroke:#1C1D3E;stroke-width:2.4986;stroke-linecap:round;stroke-linejoin:round;stroke-miterlimit:10;}
	.st73{fill:#E71D73;}
	.st74{fill:none;stroke:#1C1D3E;stroke-width:2.4986;stroke-miterlimit:10;}
	.st75{opacity:0.4;clip-path:url(#SVGID_16_);}
	.st76{clip-path:url(#SVGID_16_);}
	.st77{clip-path:url(#SVGID_16_);fill-rule:evenodd;clip-rule:evenodd;fill:none;}
	.st78{fill:#951B81;}
	.st79{fill:none;stroke:#1C1D3E;stroke-width:2.3285;stroke-linecap:round;stroke-linejoin:round;stroke-miterlimit:10;}
	.st80{fill:#FFFFFF;stroke:#1C1D3E;stroke-width:2.3285;stroke-miterlimit:10;}
	.st81{fill:#FFFFFF;stroke:#1C1D3E;stroke-width:2.3285;stroke-linecap:round;stroke-linejoin:round;stroke-miterlimit:10;}
	.st82{fill:none;stroke:#1C1D3E;stroke-width:3.1046;stroke-linecap:round;stroke-linejoin:round;stroke-miterlimit:10;}
	
		.st83{clip-path:url(#SVGID_16_);fill:#FFFFFF;stroke:#1C1D3E;stroke-width:2.1361;stroke-linecap:round;stroke-linejoin:round;stroke-miterlimit:10;}
	.st84{fill:none;stroke:#1C1D3E;stroke-width:4.0546;stroke-linecap:round;stroke-linejoin:round;stroke-miterlimit:10;}
	.st85{clip-path:url(#SVGID_18_);}
	.st86{clip-path:url(#SVGID_18_);fill-rule:evenodd;clip-rule:evenodd;fill:none;}
	.st87{clip-path:url(#SVGID_20_);}
	.st88{clip-path:url(#SVGID_20_);fill-rule:evenodd;clip-rule:evenodd;fill:none;}
	.st89{fill:#FFFFFF;stroke:#1C1D3E;stroke-width:1.9392;stroke-linecap:round;stroke-linejoin:round;stroke-miterlimit:10;}
	.st90{fill:none;stroke:#1C1D3E;stroke-width:1.9392;stroke-linecap:round;stroke-linejoin:round;stroke-miterlimit:10;}
	.st91{fill:#82368C;}
	.st92{fill:none;stroke:#C5C1D2;stroke-width:11.6354;stroke-linecap:round;stroke-linejoin:round;stroke-miterlimit:10;}
	.st93{fill:#FFFFFF;stroke:#1C1D3E;stroke-width:1.9392;stroke-miterlimit:10;}
	.st94{opacity:0.4;clip-path:url(#SVGID_22_);}
	.st95{clip-path:url(#SVGID_22_);}
	.st96{clip-path:url(#SVGID_22_);fill-rule:evenodd;clip-rule:evenodd;fill:none;}
	.st97{opacity:0.4;clip-path:url(#SVGID_24_);}
	.st98{clip-path:url(#SVGID_24_);}
	.st99{fill:#FFDE00;}
	.st100{fill:#FFFFFF;stroke:#1C1D3E;stroke-width:2.4881;stroke-linecap:round;stroke-linejoin:round;stroke-miterlimit:10;}
	.st101{fill:#1C1D3E;stroke:#1C1D3E;stroke-width:2.047;stroke-linecap:round;stroke-linejoin:round;stroke-miterlimit:10;}
	.st102{clip-path:url(#SVGID_26_);fill:#505EA8;}
	.st103{clip-path:url(#SVGID_28_);fill:#505EA8;}
	.st104{clip-path:url(#SVGID_30_);fill:#505EA8;}
	.st105{clip-path:url(#SVGID_32_);fill:#505EA8;}
	.st106{clip-path:url(#SVGID_34_);fill:#505EA8;}
	.st107{clip-path:url(#SVGID_36_);fill:#505EA8;}
	.st108{clip-path:url(#SVGID_38_);fill:#505EA8;}
	.st109{fill:#FFFFFF;stroke:#1C1D3E;stroke-width:1.8385;stroke-linecap:round;stroke-linejoin:round;stroke-miterlimit:10;}
	.st110{fill:none;stroke:#1C1D3E;stroke-width:1.8385;stroke-linecap:round;stroke-linejoin:round;stroke-miterlimit:10;}
	.st111{fill:#FFFFFF;stroke:#1C1D3E;stroke-width:2.1779;stroke-miterlimit:10;}
	.st112{fill:#FFFFFF;stroke:#1C1D3E;stroke-width:2.1779;stroke-linecap:round;stroke-linejoin:round;stroke-miterlimit:10;}
	.st113{fill:none;stroke:#1C1D3E;stroke-width:2.1779;stroke-linecap:round;stroke-linejoin:round;stroke-miterlimit:10;}
	.st114{fill:none;stroke:#1C1D3E;stroke-width:2.1779;stroke-miterlimit:10;}
	.st115{fill:#00A19A;stroke:#1C1D3E;stroke-width:2.1799;stroke-linecap:round;stroke-linejoin:round;stroke-miterlimit:10;}
	.st116{opacity:0.4;clip-path:url(#SVGID_40_);}
	.st117{clip-path:url(#SVGID_40_);}
	.st118{clip-path:url(#SVGID_40_);fill-rule:evenodd;clip-rule:evenodd;fill:none;}
	.st119{fill:#00A19A;stroke:#1C1D3E;stroke-width:1.3063;stroke-linecap:round;stroke-linejoin:round;stroke-miterlimit:10;}
	.st120{fill:#F6CB40;stroke:#000000;stroke-width:0.8783;stroke-miterlimit:10;}
	.st121{fill:#E17A5F;stroke:#1C1D3E;stroke-width:1.3063;stroke-linecap:round;stroke-linejoin:round;stroke-miterlimit:10;}
	.st122{fill:#E17A5F;stroke:#1C1D3E;stroke-width:1.4249;stroke-linecap:round;stroke-linejoin:round;stroke-miterlimit:10;}
	.st123{fill:#E17A5F;stroke:#1C1D3E;stroke-width:1.0713;stroke-linecap:round;stroke-linejoin:round;stroke-miterlimit:10;}
	.st124{fill:#00A19A;stroke:#1C1D3E;stroke-width:0.7125;stroke-linecap:round;stroke-linejoin:round;stroke-miterlimit:10;}
	.st125{fill:#E17A5F;stroke:#1C1D3E;stroke-width:0.8783;stroke-linecap:round;stroke-linejoin:round;stroke-miterlimit:10;}
	
		.st126{clip-path:url(#SVGID_40_);fill:#E6007E;stroke:#1C1D3E;stroke-width:0.8709;stroke-linecap:round;stroke-linejoin:round;stroke-miterlimit:10;}
	.st127{fill:#0381A7;}
	.st128{fill:#F2CC8E;}
	.st129{clip-path:url(#SVGID_40_);fill:#F39200;}
	.st130{clip-path:url(#SVGID_40_);fill:#2A9D8F;}
	.st131{clip-path:url(#SVGID_40_);fill:#662483;}
	.st132{fill:#263239;}
	.st133{opacity:0.3;}
	.st134{fill:#010202;}
	.st135{fill:#EBEBEB;}
	.st136{fill:#F5F4F5;}
	.st137{fill:#EE7160;}
	.st138{fill:#FBFBFB;}
	.st139{fill:none;}
	.st140{fill:#263239;stroke:#1D1E1B;stroke-miterlimit:10;}
	.st141{fill:#F6F6F6;stroke:#1D1E1B;stroke-miterlimit:10;}
	.st142{clip-path:url(#SVGID_42_);}
	.st143{opacity:0.4;}
	.st144{fill:#F5A261;}
	.st145{fill:none;stroke:#1C1D3E;stroke-width:1.0921;stroke-linecap:round;stroke-linejoin:round;stroke-miterlimit:10;}
	.st146{fill:#FFFFFF;stroke:#1C1D3E;stroke-width:1.0921;stroke-miterlimit:10;}
	.st147{fill:none;stroke:#1C1D3E;stroke-width:1.4562;stroke-linecap:round;stroke-linejoin:round;stroke-miterlimit:10;}
	.st148{fill:#FFFFFF;stroke:#1C1D3E;stroke-width:1.0405;stroke-linecap:round;stroke-linejoin:round;stroke-miterlimit:10;}
	.st149{fill:none;stroke:#1C1D3E;stroke-width:1.0405;stroke-linecap:round;stroke-linejoin:round;stroke-miterlimit:10;}
	.st150{fill:#FFFFFF;stroke:#1C1D3E;stroke-width:1.2228;stroke-linecap:round;stroke-linejoin:round;stroke-miterlimit:10;}
	.st151{fill:none;stroke:#1C1D3E;stroke-width:1.2228;stroke-linecap:round;stroke-linejoin:round;stroke-miterlimit:10;}
	.st152{fill:none;stroke:#1C1D3E;stroke-width:1.2228;stroke-miterlimit:10;}
	.st153{fill:#FFFFFF;stroke:#1C1D3E;stroke-width:0.9301;stroke-linecap:round;stroke-linejoin:round;stroke-miterlimit:10;}
	.st154{fill:none;stroke:#1C1D3E;stroke-width:0.9301;stroke-linecap:round;stroke-linejoin:round;stroke-miterlimit:10;}
	.st155{fill:#FFFFFF;stroke:#1C1D3E;stroke-width:0.9301;stroke-miterlimit:10;}
	.st156{fill:none;stroke:#1C1D3E;stroke-width:1.8602;stroke-linecap:round;stroke-linejoin:round;stroke-miterlimit:10;}
	.st157{clip-path:url(#SVGID_42_);fill-rule:evenodd;clip-rule:evenodd;fill:none;}
	.st158{fill:#FFFFFF;stroke:#1C1D3E;stroke-width:0.9016;stroke-linecap:round;stroke-linejoin:round;stroke-miterlimit:10;}
	.st159{fill:none;stroke:#1C1D3E;stroke-width:0.9016;stroke-linecap:round;stroke-linejoin:round;stroke-miterlimit:10;}
	.st160{fill:none;stroke:#C5C1D2;stroke-width:5.4093;stroke-linecap:round;stroke-linejoin:round;stroke-miterlimit:10;}
	.st161{fill:#FFFFFF;stroke:#1C1D3E;stroke-width:0.9016;stroke-miterlimit:10;}
	.st162{fill:none;stroke:#1C1D3E;stroke-width:0.7255;stroke-linecap:round;stroke-linejoin:round;stroke-miterlimit:10;}
	.st163{fill:#FFFFFF;stroke:#1C1D3E;stroke-width:0.7255;stroke-linecap:round;stroke-linejoin:round;stroke-miterlimit:10;}
	.st164{fill:#FFFFFF;stroke:#1C1D3E;stroke-width:0.7255;stroke-miterlimit:10;}
	.st165{fill:none;stroke:#1C1D3E;stroke-width:1.4509;stroke-linecap:round;stroke-linejoin:round;stroke-miterlimit:10;}
	.st166{clip-path:url(#SVGID_44_);}
	.st167{fill:none;stroke:#1C1D3E;stroke-width:0.9105;stroke-linecap:round;stroke-linejoin:round;stroke-miterlimit:10;}
	.st168{fill:#FFFFFF;stroke:#1C1D3E;stroke-width:0.9105;stroke-miterlimit:10;}
	.st169{fill:none;stroke:#1C1D3E;stroke-width:1.2141;stroke-linecap:round;stroke-linejoin:round;stroke-miterlimit:10;}
	.st170{fill:#FFFFFF;stroke:#1C1D3E;stroke-width:0.9105;stroke-linecap:round;stroke-linejoin:round;stroke-miterlimit:10;}
	.st171{fill:#1C1D3E;stroke:#1C1D3E;stroke-width:0.9105;stroke-linecap:round;stroke-linejoin:round;stroke-miterlimit:10;}
	.st172{fill:#FFFFFF;stroke:#1C1D3E;stroke-width:0.9063;stroke-linecap:round;stroke-linejoin:round;stroke-miterlimit:10;}
	.st173{fill:none;stroke:#1C1D3E;stroke-width:0.9063;stroke-linecap:round;stroke-linejoin:round;stroke-miterlimit:10;}
	.st174{fill:#1C1D3E;stroke:#1C1D3E;stroke-width:0.9063;stroke-linecap:round;stroke-linejoin:round;stroke-miterlimit:10;}
	.st175{fill:#FFFFFF;stroke:#1C1D3E;stroke-width:0.9089;stroke-miterlimit:10;}
	.st176{fill:#FFFFFF;stroke:#1C1D3E;stroke-width:0.9089;stroke-linecap:round;stroke-linejoin:round;stroke-miterlimit:10;}
	.st177{fill:none;stroke:#1C1D3E;stroke-width:0.9089;stroke-linecap:round;stroke-linejoin:round;stroke-miterlimit:10;}
	.st178{fill:none;stroke:#1C1D3E;stroke-width:0.9089;stroke-miterlimit:10;}
	.st179{fill:#FFFFFF;stroke:#1C1D3E;stroke-width:0.8642;stroke-linecap:round;stroke-linejoin:round;stroke-miterlimit:10;}
	.st180{fill:none;stroke:#1C1D3E;stroke-width:0.8642;stroke-linecap:round;stroke-linejoin:round;stroke-miterlimit:10;}
	.st181{fill:#FFFFFF;stroke:#1C1D3E;stroke-width:0.8642;stroke-miterlimit:10;}
	.st182{fill:none;stroke:#1C1D3E;stroke-width:1.7284;stroke-linecap:round;stroke-miterlimit:10;}
	.st183{fill:none;stroke:#1C1D3E;stroke-width:0.8205;stroke-linecap:round;stroke-linejoin:round;stroke-miterlimit:10;}
	.st184{fill:#FFFFFF;stroke:#1C1D3E;stroke-width:0.8205;stroke-linecap:round;stroke-linejoin:round;stroke-miterlimit:10;}
	.st185{fill:#FFFFFF;stroke:#1C1D3E;stroke-width:0.8205;stroke-miterlimit:10;}
	.st186{fill:none;stroke:#1C1D3E;stroke-width:1.641;stroke-linecap:round;stroke-linejoin:round;stroke-miterlimit:10;}
	.st187{opacity:0.4;clip-path:url(#SVGID_46_);}
	.st188{clip-path:url(#SVGID_46_);}
	.st189{clip-path:url(#SVGID_46_);fill-rule:evenodd;clip-rule:evenodd;fill:none;}
	.st190{fill:#F39200;}
	.st191{fill:#D2CFE9;}
	.st192{clip-path:url(#SVGID_46_);fill:none;stroke:#000000;stroke-width:2;stroke-miterlimit:10;}
	.st193{opacity:0.4;clip-path:url(#SVGID_48_);}
	.st194{clip-path:url(#SVGID_48_);}
	.st195{clip-path:url(#SVGID_48_);fill-rule:evenodd;clip-rule:evenodd;fill:none;}
	.st196{fill:#FFFFFF;stroke:#1C1D3E;stroke-width:2.0557;stroke-linecap:round;stroke-linejoin:round;stroke-miterlimit:10;}
	.st197{fill:none;stroke:#1C1D3E;stroke-width:2.0557;stroke-linecap:round;stroke-linejoin:round;stroke-miterlimit:10;}
	.st198{fill:none;stroke:#C5C1D2;stroke-width:12.3343;stroke-linecap:round;stroke-linejoin:round;stroke-miterlimit:10;}
	.st199{fill:#FFFFFF;stroke:#1C1D3E;stroke-width:2.0557;stroke-miterlimit:10;}
	.st200{opacity:0.4;clip-path:url(#SVGID_50_);}
	.st201{clip-path:url(#SVGID_50_);}
	.st202{clip-path:url(#SVGID_50_);fill-rule:evenodd;clip-rule:evenodd;fill:none;}
	.st203{fill:none;stroke:#1C1D3E;stroke-width:1.0785;stroke-linecap:round;stroke-linejoin:round;stroke-miterlimit:10;}
	.st204{fill:#FFFFFF;stroke:#1C1D3E;stroke-width:1.0785;stroke-linecap:round;stroke-linejoin:round;stroke-miterlimit:10;}
	.st205{fill:#1C1D3E;stroke:#1C1D3E;stroke-width:1.0785;stroke-linecap:round;stroke-linejoin:round;stroke-miterlimit:10;}
	.st206{fill:#1C1D3E;stroke:#1C1D3E;stroke-width:1.0785;stroke-miterlimit:10;}
	.st207{fill:#FFFFFF;stroke:#1C1D3E;stroke-width:1.0785;stroke-miterlimit:10;}
	.st208{fill:none;stroke:#1C1D3E;stroke-width:2.157;stroke-linecap:round;stroke-linejoin:round;stroke-miterlimit:10;}
	.st209{fill:#FFFFFF;stroke:#1C1D3E;stroke-width:1.3474;stroke-linecap:round;stroke-linejoin:round;stroke-miterlimit:10;}
	.st210{fill:none;stroke:#1C1D3E;stroke-width:1.3474;stroke-linecap:round;stroke-linejoin:round;stroke-miterlimit:10;}
	.st211{fill:#1C1D3E;stroke:#1C1D3E;stroke-width:1.3474;stroke-linecap:round;stroke-linejoin:round;stroke-miterlimit:10;}
	.st212{fill:none;stroke:#1C1D3E;stroke-width:1.5045;stroke-linecap:round;stroke-linejoin:round;stroke-miterlimit:10;}
	.st213{fill:#FFFFFF;stroke:#1C1D3E;stroke-width:1.5045;stroke-miterlimit:10;}
	.st214{fill:#FFFFFF;stroke:#1C1D3E;stroke-width:1.5045;stroke-linecap:round;stroke-linejoin:round;stroke-miterlimit:10;}
	.st215{fill:none;stroke:#1C1D3E;stroke-width:2.0061;stroke-linecap:round;stroke-linejoin:round;stroke-miterlimit:10;}
	.st216{fill:#FFFFFF;stroke:#1C1D3E;stroke-width:1.3027;stroke-linecap:round;stroke-linejoin:round;stroke-miterlimit:10;}
	.st217{fill:none;stroke:#1C1D3E;stroke-width:1.3027;stroke-linecap:round;stroke-linejoin:round;stroke-miterlimit:10;}
	.st218{fill:none;stroke:#C5C1D2;stroke-width:7.8165;stroke-linecap:round;stroke-linejoin:round;stroke-miterlimit:10;}
	.st219{fill:#FFFFFF;stroke:#1C1D3E;stroke-width:1.3027;stroke-miterlimit:10;}
	.st220{clip-path:url(#SVGID_50_);fill:#E8E8F0;}
	.st221{clip-path:url(#SVGID_50_);fill:none;stroke:#000000;stroke-width:1.076;stroke-miterlimit:10;}
	.st222{clip-path:url(#SVGID_52_);}
	.st223{clip-path:url(#SVGID_52_);fill-rule:evenodd;clip-rule:evenodd;fill:none;}
	.st224{fill:#FFFFFF;stroke:#1C1D3E;stroke-width:1.2999;stroke-linecap:round;stroke-linejoin:round;stroke-miterlimit:10;}
	.st225{fill:none;stroke:#1C1D3E;stroke-width:1.2999;stroke-linecap:round;stroke-linejoin:round;stroke-miterlimit:10;}
	.st226{fill:#FFFFFF;stroke:#1C1D3E;stroke-width:1.2999;stroke-miterlimit:10;}
	.st227{fill:none;stroke:#1C1D3E;stroke-width:2.5998;stroke-linecap:round;stroke-miterlimit:10;}
	.st228{fill:#FFFFFF;stroke:#1C1D3E;stroke-width:1.3909;stroke-miterlimit:10;}
	.st229{fill:#FFFFFF;stroke:#1C1D3E;stroke-width:1.3909;stroke-linecap:round;stroke-linejoin:round;stroke-miterlimit:10;}
	.st230{fill:none;stroke:#1C1D3E;stroke-width:1.3909;stroke-linecap:round;stroke-linejoin:round;stroke-miterlimit:10;}
	.st231{fill:none;stroke:#1C1D3E;stroke-width:1.3909;stroke-miterlimit:10;}
	.st232{fill:#00A19A;stroke:#1C1D3E;stroke-width:1.3922;stroke-linecap:round;stroke-linejoin:round;stroke-miterlimit:10;}
	.st233{fill:none;stroke:#1C1D3E;stroke-width:1.2955;stroke-linecap:round;stroke-linejoin:round;stroke-miterlimit:10;}
	.st234{fill:#FFFFFF;stroke:#1C1D3E;stroke-width:1.2955;stroke-linecap:round;stroke-linejoin:round;stroke-miterlimit:10;}
	.st235{fill:#FFFFFF;stroke:#1C1D3E;stroke-width:1.2955;stroke-miterlimit:10;}
	.st236{fill:none;stroke:#1C1D3E;stroke-width:2.591;stroke-linecap:round;stroke-linejoin:round;stroke-miterlimit:10;}
	.st237{fill:#ADC4E7;}
	.st238{fill:#00B0B9;}
	.st239{fill:#8AC6C4;}
	.st240{fill:#F8AA26;}
	.st241{fill:#11448E;}
	.st242{fill:#F09B1E;}
	.st243{fill:#78A9DB;}
	.st244{fill:#1D3F81;}
	.st245{fill:none;stroke:#000000;stroke-width:1.8782;stroke-miterlimit:10;}
	.st246{clip-path:url(#SVGID_54_);}
	.st247{fill:#FFFFFF;stroke:#1C1D3E;stroke-width:0.9238;stroke-linecap:round;stroke-linejoin:round;stroke-miterlimit:10;}
	.st248{fill:none;stroke:#1C1D3E;stroke-width:0.9238;stroke-linecap:round;stroke-linejoin:round;stroke-miterlimit:10;}
	.st249{fill:#FFFFFF;stroke:#1C1D3E;stroke-width:0.9238;stroke-miterlimit:10;}
	.st250{fill:#FFFFFF;stroke:#1C1D3E;stroke-width:1.1337;stroke-linecap:round;stroke-linejoin:round;stroke-miterlimit:10;}
	.st251{fill:none;stroke:#1C1D3E;stroke-width:1.8475;stroke-linecap:round;stroke-miterlimit:10;}
	.st252{fill:#1C1D3E;stroke:#1C1D3E;stroke-width:0.9327;stroke-linecap:round;stroke-linejoin:round;stroke-miterlimit:10;}
	.st253{clip-path:url(#SVGID_56_);fill:#505EA8;}
	.st254{clip-path:url(#SVGID_58_);fill:#505EA8;}
	.st255{clip-path:url(#SVGID_60_);fill:#505EA8;}
	.st256{clip-path:url(#SVGID_62_);fill:#505EA8;}
	.st257{clip-path:url(#SVGID_64_);fill:#505EA8;}
	.st258{clip-path:url(#SVGID_66_);fill:#505EA8;}
	.st259{clip-path:url(#SVGID_68_);fill:#505EA8;}
	.st260{fill:none;stroke:#000000;stroke-width:1.6007;stroke-miterlimit:10;}
	.st261{clip-path:url(#SVGID_70_);}
	.st262{fill:#FFFFFF;stroke:#1C1D3E;stroke-width:0.7873;stroke-linecap:round;stroke-linejoin:round;stroke-miterlimit:10;}
	.st263{fill:none;stroke:#1C1D3E;stroke-width:0.7873;stroke-linecap:round;stroke-linejoin:round;stroke-miterlimit:10;}
	.st264{fill:#FFFFFF;stroke:#1C1D3E;stroke-width:0.7873;stroke-miterlimit:10;}
	.st265{fill:#FFFFFF;stroke:#1C1D3E;stroke-width:0.9662;stroke-linecap:round;stroke-linejoin:round;stroke-miterlimit:10;}
	.st266{fill:none;stroke:#1C1D3E;stroke-width:1.5745;stroke-linecap:round;stroke-miterlimit:10;}
	.st267{fill:#1C1D3E;stroke:#1C1D3E;stroke-width:0.7949;stroke-linecap:round;stroke-linejoin:round;stroke-miterlimit:10;}
	.st268{clip-path:url(#SVGID_72_);fill:#505EA8;}
	.st269{clip-path:url(#SVGID_74_);fill:#505EA8;}
	.st270{clip-path:url(#SVGID_76_);fill:#505EA8;}
	.st271{clip-path:url(#SVGID_78_);fill:#505EA8;}
	.st272{clip-path:url(#SVGID_80_);fill:#505EA8;}
	.st273{clip-path:url(#SVGID_82_);fill:#505EA8;}
	.st274{clip-path:url(#SVGID_84_);fill:#505EA8;}
	.st275{fill:none;stroke:#000000;stroke-width:2.3468;stroke-miterlimit:10;}
	.st276{clip-path:url(#SVGID_86_);}
	.st277{fill:#FFFFFF;stroke:#1C1D3E;stroke-width:1.1144;stroke-linecap:round;stroke-linejoin:round;stroke-miterlimit:10;}
	.st278{fill:none;stroke:#1C1D3E;stroke-width:1.1144;stroke-linecap:round;stroke-linejoin:round;stroke-miterlimit:10;}
	.st279{fill:none;stroke:#C5C1D2;stroke-width:6.6864;stroke-linecap:round;stroke-linejoin:round;stroke-miterlimit:10;}
	.st280{fill:#FFFFFF;stroke:#1C1D3E;stroke-width:1.1144;stroke-miterlimit:10;}
	.st281{fill:none;stroke:#000000;stroke-width:1.8805;stroke-miterlimit:10;}
	.st282{clip-path:url(#SVGID_88_);}
	.st283{fill:none;stroke:#1C1D3E;stroke-width:1.3222;stroke-linecap:round;stroke-linejoin:round;stroke-miterlimit:10;}
	.st284{fill:#FFFFFF;stroke:#1C1D3E;stroke-width:1.3222;stroke-linecap:round;stroke-linejoin:round;stroke-miterlimit:10;}
	.st285{fill:#1C1D3E;stroke:#1C1D3E;stroke-width:1.3222;stroke-linecap:round;stroke-linejoin:round;stroke-miterlimit:10;}
	.st286{fill:#1C1D3E;stroke:#1C1D3E;stroke-width:1.3222;stroke-miterlimit:10;}
	.st287{fill:#FFFFFF;stroke:#1C1D3E;stroke-width:1.3222;stroke-miterlimit:10;}
	.st288{fill:none;stroke:#1C1D3E;stroke-width:2.6444;stroke-linecap:round;stroke-linejoin:round;stroke-miterlimit:10;}
	.st289{fill:none;stroke:#000000;stroke-width:2.6193;stroke-miterlimit:10;}
	.st290{fill:#FFFFFF;stroke:#1C1D3E;stroke-width:0.9645;stroke-linecap:round;stroke-linejoin:round;stroke-miterlimit:10;}
	.st291{fill:none;stroke:#1C1D3E;stroke-width:0.9645;stroke-linecap:round;stroke-linejoin:round;stroke-miterlimit:10;}
	.st292{fill:none;stroke:#C5C1D2;stroke-width:5.7872;stroke-linecap:round;stroke-linejoin:round;stroke-miterlimit:10;}
	.st293{fill:#FFFFFF;stroke:#1C1D3E;stroke-width:0.9645;stroke-miterlimit:10;}
	.st294{fill:#5C5C5C;}
	.st295{fill:#FFFFFF;stroke:#1C1D3E;stroke-width:1.7479;stroke-linecap:round;stroke-linejoin:round;stroke-miterlimit:10;}
	.st296{fill:none;stroke:#1C1D3E;stroke-width:1.7479;stroke-linecap:round;stroke-linejoin:round;stroke-miterlimit:10;}
	.st297{fill:#FFFFFF;stroke:#1C1D3E;stroke-width:2.0471;stroke-linecap:round;stroke-linejoin:round;stroke-miterlimit:10;}
	.st298{fill:#A48A7B;}
	.st299{fill:#FFFFFF;stroke:#1C1D3E;stroke-width:1.7479;stroke-miterlimit:10;}
	.st300{fill:none;stroke:#1C1D3E;stroke-width:3.4957;stroke-linecap:round;stroke-linejoin:round;stroke-miterlimit:10;}
	.st301{fill:none;stroke:#606060;stroke-width:1.8782;stroke-miterlimit:10;}
	.st302{clip-path:url(#SVGID_90_);}
	.st303{clip-path:url(#SVGID_92_);fill:#505EA8;}
	.st304{clip-path:url(#SVGID_94_);fill:#505EA8;}
	.st305{clip-path:url(#SVGID_96_);fill:#505EA8;}
	.st306{clip-path:url(#SVGID_98_);fill:#505EA8;}
	.st307{clip-path:url(#SVGID_100_);fill:#505EA8;}
	.st308{clip-path:url(#SVGID_102_);fill:#505EA8;}
	.st309{clip-path:url(#SVGID_104_);fill:#505EA8;}
	.st310{fill:none;stroke:#606060;stroke-width:2.3468;stroke-miterlimit:10;}
	.st311{clip-path:url(#SVGID_106_);}
	.st312{fill:none;stroke:#606060;stroke-width:1.8805;stroke-miterlimit:10;}
	.st313{clip-path:url(#SVGID_108_);}
	.st314{fill:none;stroke:#606060;stroke-width:2.6193;stroke-miterlimit:10;}
	.st315{clip-path:url(#SVGID_110_);}
	.st316{fill:#A3195B;}
	.st317{clip-path:url(#SVGID_112_);fill:#505EA8;}
	.st318{clip-path:url(#SVGID_114_);fill:#505EA8;}
	.st319{clip-path:url(#SVGID_116_);fill:#505EA8;}
	.st320{clip-path:url(#SVGID_118_);fill:#505EA8;}
	.st321{clip-path:url(#SVGID_120_);fill:#505EA8;}
	.st322{clip-path:url(#SVGID_122_);fill:#505EA8;}
	.st323{clip-path:url(#SVGID_124_);fill:#505EA8;}
	.st324{clip-path:url(#SVGID_126_);}
	.st325{clip-path:url(#SVGID_128_);}
	.st326{opacity:0.75;}
	.st327{opacity:0.7;}
	.st328{fill:#B2B2B2;}
	.st329{fill:#FFFFFF;stroke:#1C1D3E;stroke-width:1.4496;stroke-linecap:round;stroke-linejoin:round;stroke-miterlimit:10;}
	.st330{fill:none;stroke:#1C1D3E;stroke-width:1.4496;stroke-linecap:round;stroke-linejoin:round;stroke-miterlimit:10;}
	.st331{fill:#1C1D3E;stroke:#FFFFFF;stroke-width:1.4496;stroke-linecap:round;stroke-linejoin:round;stroke-miterlimit:10;}
	.st332{fill:#E6007E;}
	.st333{fill:#FFFFFF;stroke:#1C1D3E;stroke-width:1.5842;stroke-linecap:round;stroke-linejoin:round;stroke-miterlimit:10;}
	.st334{fill:none;stroke:#1C1D3E;stroke-width:1.5842;stroke-linecap:round;stroke-linejoin:round;stroke-miterlimit:10;}
	.st335{fill:#FFFFFF;stroke:#1C1D3E;stroke-width:1.5842;stroke-miterlimit:10;}
	.st336{fill:none;stroke:#1C1D3E;stroke-width:3.1684;stroke-linecap:round;stroke-linejoin:round;stroke-miterlimit:10;}
	.st337{fill:#FFFFFF;stroke:#1C1D3E;stroke-width:1.5556;stroke-linecap:round;stroke-linejoin:round;stroke-miterlimit:10;}
	.st338{fill:none;stroke:#1C1D3E;stroke-width:1.5556;stroke-linecap:round;stroke-linejoin:round;stroke-miterlimit:10;}
	.st339{fill:#1C1D3E;stroke:#1C1D3E;stroke-width:1.5556;stroke-linecap:round;stroke-linejoin:round;stroke-miterlimit:10;}
	.st340{fill:#FFFFFF;stroke:#1C1D3E;stroke-width:1.5556;stroke-miterlimit:10;}
	.st341{fill:none;stroke:#1C1D3E;stroke-width:2.0742;stroke-linecap:round;stroke-linejoin:round;stroke-miterlimit:10;}
	.st342{clip-path:url(#SVGID_130_);}
	.st343{fill:#CD4577;}
	.st344{fill:#FFFFFF;stroke:#1C1D3E;stroke-width:2.0537;stroke-linecap:round;stroke-linejoin:round;stroke-miterlimit:10;}
	.st345{fill:none;stroke:#1C1D3E;stroke-width:2.0537;stroke-linecap:round;stroke-linejoin:round;stroke-miterlimit:10;}
	.st346{fill:#1C1D3E;stroke:#FFFFFF;stroke-width:2.0537;stroke-linecap:round;stroke-linejoin:round;stroke-miterlimit:10;}
	.st347{fill:#477EC0;}
	.st348{fill:#4BAFE4;}
	.st349{fill:none;stroke:#1D6DAB;stroke-width:9.0471;stroke-miterlimit:10;}
	.st350{fill:#8093CA;}
	.st351{clip-path:url(#SVGID_132_);}
	.st352{fill:#FFFFFF;stroke:#1C1D3E;stroke-width:1.5832;stroke-linecap:round;stroke-linejoin:round;stroke-miterlimit:10;}
	.st353{fill:none;stroke:#1C1D3E;stroke-width:1.5832;stroke-linecap:round;stroke-linejoin:round;stroke-miterlimit:10;}
	.st354{fill:#FFFFFF;stroke:#1C1D3E;stroke-width:1.8309;stroke-linecap:round;stroke-linejoin:round;stroke-miterlimit:10;}
	.st355{fill:none;stroke:#1C1D3E;stroke-width:1.8309;stroke-linecap:round;stroke-linejoin:round;stroke-miterlimit:10;}
	.st356{fill:#1C1D3E;stroke:#FFFFFF;stroke-width:1.8309;stroke-linecap:round;stroke-linejoin:round;stroke-miterlimit:10;}
	.st357{fill:#95B0DD;}
	.st358{fill:url(#SVGID_133_);}
	.st359{opacity:0.56;fill:#FFFFFF;}
	.st360{fill:url(#SVGID_134_);}
	.st361{fill:#FFFFFF;stroke:#1C1D3E;stroke-width:1.8531;stroke-linecap:round;stroke-linejoin:round;stroke-miterlimit:10;}
	.st362{fill:none;stroke:#1C1D3E;stroke-width:1.8531;stroke-linecap:round;stroke-linejoin:round;stroke-miterlimit:10;}
	.st363{fill:#FFFFFF;stroke:#1C1D3E;stroke-width:1.8531;stroke-miterlimit:10;}
	.st364{fill:#FFFFFF;stroke:#1C1D3E;stroke-width:2.2743;stroke-linecap:round;stroke-linejoin:round;stroke-miterlimit:10;}
	.st365{fill:none;stroke:#1C1D3E;stroke-width:3.7062;stroke-linecap:round;stroke-miterlimit:10;}
	.st366{fill:#1C1D3E;stroke:#1C1D3E;stroke-width:1.8711;stroke-linecap:round;stroke-linejoin:round;stroke-miterlimit:10;}
	.st367{clip-path:url(#SVGID_136_);fill:#505EA8;}
	.st368{clip-path:url(#SVGID_138_);fill:#505EA8;}
	.st369{clip-path:url(#SVGID_140_);fill:#505EA8;}
	.st370{clip-path:url(#SVGID_142_);fill:#505EA8;}
	.st371{clip-path:url(#SVGID_144_);fill:#505EA8;}
	.st372{clip-path:url(#SVGID_146_);fill:#505EA8;}
	.st373{clip-path:url(#SVGID_148_);fill:#505EA8;}
	.st374{fill:#FFFFFF;stroke:#1C1D3E;stroke-width:1.9908;stroke-miterlimit:10;}
	.st375{fill:#FFFFFF;stroke:#1C1D3E;stroke-width:1.9908;stroke-linecap:round;stroke-linejoin:round;stroke-miterlimit:10;}
	.st376{fill:none;stroke:#1C1D3E;stroke-width:1.9908;stroke-linecap:round;stroke-linejoin:round;stroke-miterlimit:10;}
	.st377{fill:none;stroke:#1C1D3E;stroke-width:1.9908;stroke-miterlimit:10;}
	.st378{fill:#00A19A;stroke:#1C1D3E;stroke-width:1.9926;stroke-linecap:round;stroke-linejoin:round;stroke-miterlimit:10;}
	.st379{clip-path:url(#SVGID_150_);fill:#505EA8;}
	.st380{clip-path:url(#SVGID_152_);fill:#505EA8;}
	.st381{clip-path:url(#SVGID_154_);fill:#505EA8;}
	.st382{clip-path:url(#SVGID_156_);fill:#505EA8;}
	.st383{clip-path:url(#SVGID_158_);fill:#505EA8;}
	.st384{clip-path:url(#SVGID_160_);fill:#505EA8;}
	.st385{clip-path:url(#SVGID_162_);fill:#505EA8;}
	.st386{clip-path:url(#SVGID_164_);}
	.st387{fill:#FFFFFF;stroke:#1C1D3E;stroke-width:1.6731;stroke-linecap:round;stroke-linejoin:round;stroke-miterlimit:10;}
	.st388{fill:none;stroke:#1C1D3E;stroke-width:1.6731;stroke-linecap:round;stroke-linejoin:round;stroke-miterlimit:10;}
	.st389{fill:#FFFFFF;stroke:#1C1D3E;stroke-width:1.6821;stroke-linecap:round;stroke-linejoin:round;stroke-miterlimit:10;}
	.st390{fill:#FFFFFF;stroke:#1C1D3E;stroke-width:1.6821;stroke-miterlimit:10;}
	.st391{fill:none;stroke:#1C1D3E;stroke-width:1.6821;stroke-linecap:round;stroke-linejoin:round;stroke-miterlimit:10;}
	.st392{fill:#FFFFFF;stroke:#1C1D3E;stroke-width:2.0644;stroke-linecap:round;stroke-linejoin:round;stroke-miterlimit:10;}
	.st393{fill:none;stroke:#1C1D3E;stroke-width:3.3641;stroke-linecap:round;stroke-miterlimit:10;}
	
		.st394{clip-path:url(#SVGID_164_);fill:#1C1D3E;stroke:#1C1D3E;stroke-width:0.9973;stroke-linecap:round;stroke-linejoin:round;stroke-miterlimit:10;}
	.st395{fill:#AF144C;}
	.st396{fill:#9B1649;}
	.st397{fill:#E52521;}
	.st398{fill:#D51116;}
	.st399{fill:#E41B17;}
	.st400{fill:#B81357;}
	.st401{fill:url(#SVGID_165_);}
	.st402{fill:url(#SVGID_166_);}
	.st403{clip-path:url(#SVGID_168_);}
	
		.st404{clip-path:url(#SVGID_168_);fill:#1C1D3E;stroke:#1C1D3E;stroke-width:0.9973;stroke-linecap:round;stroke-linejoin:round;stroke-miterlimit:10;}
	.st405{fill:url(#SVGID_169_);}
	.st406{fill:url(#SVGID_170_);}
	.st407{opacity:0.75;clip-path:url(#SVGID_172_);}
	.st408{opacity:0.7;clip-path:url(#SVGID_172_);}
	.st409{clip-path:url(#SVGID_176_);}
	.st410{fill:#00A19A;stroke:#1C1D3E;stroke-width:1.9323;stroke-linecap:round;stroke-linejoin:round;stroke-miterlimit:10;}
	.st411{fill:none;stroke:#1C1D3E;stroke-width:1.9323;stroke-linecap:round;stroke-linejoin:round;stroke-miterlimit:10;}
	.st412{fill:#FFFFFF;stroke:#1C1D3E;stroke-width:1.9323;stroke-linecap:round;stroke-linejoin:round;stroke-miterlimit:10;}
	.st413{fill:#FFFFFF;stroke:#1C1D3E;stroke-width:1.9323;stroke-miterlimit:10;}
	.st414{fill:#FFFFFF;stroke:#1C1D3E;stroke-width:2.3715;stroke-linecap:round;stroke-linejoin:round;stroke-miterlimit:10;}
	.st415{fill:none;stroke:#1C1D3E;stroke-width:3.8645;stroke-linecap:round;stroke-miterlimit:10;}
	.st416{clip-path:url(#SVGID_178_);}
	.st417{fill:#00A19A;stroke:#1C1D3E;stroke-width:1.9359;stroke-linecap:round;stroke-linejoin:round;stroke-miterlimit:10;}
	.st418{fill:none;stroke:#1C1D3E;stroke-width:1.9359;stroke-linecap:round;stroke-linejoin:round;stroke-miterlimit:10;}
	.st419{fill:#FFFFFF;stroke:#1C1D3E;stroke-width:1.9359;stroke-linecap:round;stroke-linejoin:round;stroke-miterlimit:10;}
	.st420{fill:#FFFFFF;stroke:#1C1D3E;stroke-width:1.9359;stroke-miterlimit:10;}
	.st421{fill:#FFFFFF;stroke:#1C1D3E;stroke-width:2.3759;stroke-linecap:round;stroke-linejoin:round;stroke-miterlimit:10;}
	.st422{fill:none;stroke:#1C1D3E;stroke-width:3.8718;stroke-linecap:round;stroke-miterlimit:10;}
</style>
<g>
	<g>
		<g>
			<path class="st295" d="M365.2,577h87.6l3.9-255.4c0,0-16.8-11.2-39-13.1c-22.1-1.9-35.4,2.4-46.7,5.8c-3.4,1-13.7,4.5-13.7,4.5
				L365.2,577z"/>
			<polygon class="st73" points="448.9,577 456.7,321.6 541.4,394.7 521.6,588.8 			"/>
			<path class="st73" d="M356.1,321.6l7.8,255.4l-76.5,4.8l-36.9-154.9c0,0,19.6-53.9,51.5-74.8
				C333.9,331.3,356.1,321.6,356.1,321.6z"/>
		</g>
	</g>
	<g>
		<g>
			<path class="st73" d="M456.7,318.7C519,341.5,587.3,400,624.2,502c26.4,72.9,3.7,176-95.8,199.1c-109.7,25.4-245.2-4.1-245.2-4.1
				l13.6-111.2l143.1,3.9l71.7-14.9l10.1-102.1L454.4,392L456.7,318.7z"/>
			<path class="st296" d="M612.1,641.9c-16.5,27.9-43.6,49.9-83.6,59.2c-109.7,25.4-245.2-4.1-245.2-4.1l13.6-111.2l143.1,3.9
				l71.7-14.9l10.1-102.1"/>
		</g>
		<g>
			<g>
				<g>
					<path class="st11" d="M612.4,581.4c-1-2.3-2.2-4.4-3.6-6.5l0,0c0,0,6.7-5.6-4.1-18.1c-6.5-7.5-24.5-15.6-34.2-15.1
						c-13.3,0.7-31,11.6-42.4,17.6c-11.5,6-65.9,21.6-65.9,21.6l7.5,55c0,0,45-0.7,65.6-11.8c20.7-11,35.7-9.9,48-1.6
						c12.3,8.3,18.8,5.4,22.1-0.5c1.3-2.4-0.8-6.1-4.4-10.1l0,0c7.5,3.8,11.8-2.9,11.6-7.4c-0.1-1.8-1.3-4.9-3.4-8.5l0,0
						C613,597.5,616.4,590.4,612.4,581.4z"/>
					<g>
						<path class="st296" d="M558.1,574.4c0,0,22.2-3.6,35.1,5.1c12.9,8.6,19.1,20.7,19.4,25.1c0.3,4.4-4.1,11.2-11.6,7.4"/>
						<path class="st296" d="M556.3,560.4c0,0,23.4-5.8,34.4-0.4c11.1,5.4,17.7,12.5,21.7,21.4c4,8.9,0.6,16-3.1,14.7"/>
						<path class="st296" d="M608.7,574.9c0,0,6.7-5.6-4.1-18.1c-6.5-7.5-24.5-15.6-34.2-15.1c-13.3,0.7-31,11.6-42.4,17.6
							c-11.5,6-65.9,21.6-65.9,21.6l7.5,55c0,0,45-0.7,65.6-11.8c20.7-11,35.7-9.9,48-1.6c12.3,8.3,18.8,5.4,22.1-0.5
							c3.2-5.9-14.5-20.5-25-26.6c-10.6-6.1-23.9-4.6-23.9-4.6"/>
					</g>
				</g>
				<g>
					<path class="st73" d="M356,318.7c0,0-49.9,10.1-110.7,71.3c-49.9,50.3-112.9,162.5-50.4,262.4c62.5,99.9,279.2,30.9,279.2,30.9
						l-4.9-118l-174.1,7l-18.7-49.6l-13.9-76.6l95.3-69.1L356,318.7z"/>
					<g>
						<path class="st10" d="M451.8,667.5c0.7,3.2-1.3,6.3-4.5,7c-3.2,0.7-6.3-1.3-7-4.5c-0.7-3.2,1.3-6.3,4.5-7
							C447.9,662.3,451.1,664.3,451.8,667.5z"/>
						<path class="st10" d="M429.3,672.3c0.7,3.2-1.3,6.3-4.5,7c-3.2,0.7-6.3-1.3-7-4.5c-0.7-3.2,1.3-6.3,4.5-7
							C425.5,667.1,428.6,669.2,429.3,672.3z"/>
						<path class="st10" d="M408.2,675.8c0.7,3.2-1.3,6.3-4.5,7c-3.2,0.7-6.3-1.3-7-4.5c-0.7-3.2,1.3-6.3,4.5-7
							C404.4,670.6,407.5,672.6,408.2,675.8z"/>
					</g>
					<path class="st296" d="M295.7,572.5l174.9-7l4.9,118c0,0-216.7,69-279.2-30.9"/>
				</g>
			</g>
			<g>
				<g>
					<path class="st296" d="M217.7,581.8c0,0,23.1-13.7,65.7-11.9c0,0-35.1,28.6-45.9,52.7"/>
					<line class="st296" x1="277.5" y1="518.6" x2="265.7" y2="456.8"/>
				</g>
				<g>
					<path class="st295" d="M273.9,532.6c0,0-16.3-15.5-12-23.3c4.3-7.8,17.9,0.3,23.7,9.4c5.8,9.2,2.5,22.2-0.8,20.9
						C281.4,538.3,273.9,532.6,273.9,532.6z"/>
					<path class="st11" d="M310.7,563.4l-2.3-1.6c-2-4.8-2.2-5.3-4.6-8.4l1.2,0.4c0.1-19.2-21.6-30.7-36.6-33.2s-26.7,1.2-23.9,12.3
						c2.2,8.7,22.2,9.2,22.2,9.2l0.2,0.1c-11.9,1.2-25.1,4.8-25.6,13.5c-0.9,13.9,11,10.8,11,10.8c-1.8,8.9,0.9,14.4,22.6,9
						c21.8-5.4,43.8-3.9,43.8-3.9C316,567.8,313.9,566,310.7,563.4z"/>
					<g>
						<path class="st296" d="M318.8,571.6c0,0-22.1-1.6-43.8,3.9c-21.8,5.4-24.5,0-22.6-9c1.8-8.9,34-13.2,41.2-11
							C300.7,557.7,310.8,560.6,318.8,571.6z"/>
						<path class="st296" d="M252.3,566.5c0,0-11.9,3.1-11-10.8s33.7-14.7,42.4-13.7c8.7,1,17.4,2.4,24.7,19.8"/>
						<path class="st296" d="M266.8,542.1c0,0-20-0.5-22.2-9.2c-2.9-11.2,8.8-14.8,23.9-12.3s36.7,14,36.6,33.2"/>
					</g>
				</g>
			</g>
		</g>
		<g>
			<g>
				<line class="st296" x1="357.4" y1="318.7" x2="365.2" y2="569.7"/>
				<polyline class="st296" points="346.3,570.5 312.3,454.1 337.1,443.8 305,434.7 294.6,365.3 				"/>
			</g>
			<g>
				<line class="st296" x1="456.7" y1="318.7" x2="448.9" y2="566.3"/>
				<polyline class="st296" points="469.2,565.5 501.8,454.1 476.9,443.8 509,434.7 519.4,365.3 				"/>
			</g>
		</g>
	</g>
	<g>
		<g>
			<polygon class="st297" points="458.7,319.6 437.4,295.1 411.5,295.1 403.1,295.1 377.2,295.1 355.9,319.6 372.6,368.1 
				407.3,338.6 442,368.1 			"/>
		</g>
		<path class="st298" d="M368.4,288.8c0,0-27.3-12.7-37.1-36.7c-9.8-24-7.8-74.7,7-94.1c14.7-19.4,49-27.5,68.8-18.7
			c0,0,30.4-3.9,48,4.9c31.4,15.7,26.5,73.8,17.8,108.2c-8.1,32.2-61,45.8-61,45.8L368.4,288.8z"/>
		<g>
			<circle class="st298" cx="479.2" cy="298.2" r="45.5"/>
			<path class="st296" d="M483.4,252.7c0,0,36.3-2,45.4,29"/>
		</g>
		<g>
			<g>
				<g>
					<g>
						<path class="st299" d="M406.3,339.9L406.3,339.9c-16.2,0.3-29.5-10.8-29.8-24.9l-0.6-28.1c-0.2-11.2,10.1-20.4,23-20.4l11.5,0
							c13,0,23.8,9.2,24.1,20.5l0.6,26.8C435.4,327.9,422.5,339.6,406.3,339.9z"/>
						<g>
							<g>
								<g>
									<path class="st299" d="M319.6,247.6c-0.1,9.4,7.5,17.1,17,17.2c9.5,0.1,17.2-7.4,17.3-16.8c0.1-9.4-7.5-17.1-17-17.2
										C327.4,230.7,319.7,238.2,319.6,247.6z"/>
									<g>
										<path class="st10" d="M344.7,250.2c0-0.4,0-0.7,0-1.1c0-0.4-0.1-0.8-0.1-1.2c0-0.2,0-0.4,0,0c0-0.1,0-0.2-0.1-0.4
											c0-0.3-0.1-0.5-0.2-0.8c-0.1-0.5-0.3-1-0.5-1.6c-0.1-0.3,0.1,0.2-0.1-0.1c-0.1-0.1-0.1-0.2-0.2-0.4
											c-0.2-0.3-0.3-0.6-0.5-0.8c-0.1-0.1-0.2-0.2-0.2-0.3c-0.2-0.3,0.1,0.1-0.1-0.1c-0.2-0.3-0.5-0.5-0.7-0.7
											c-0.1-0.1-0.2-0.2-0.3-0.3c-0.2-0.2,0.2,0.1,0,0c-0.1,0-0.1-0.1-0.2-0.1c-0.3-0.2-0.6-0.4-1-0.5c-0.1,0-0.2-0.1-0.2-0.1
											c-0.1,0-0.1-0.1-0.2-0.1c0.2,0.1,0.2,0.1,0,0c-0.2-0.1-0.4-0.1-0.6-0.2c-0.4-0.1-0.9-0.2-1.3-0.3c0,0-0.4-0.1-0.1,0
											c-0.1,0-0.3,0-0.4,0c-0.3,0-0.5,0-0.8,0c-0.6,0-1.3,0-1.9,0.1c-0.7,0.1-1.3-0.6-1.4-1.3c0-0.8,0.6-1.3,1.3-1.4
											c3.7-0.4,7.6,0.5,10,3.6c1.5,1.9,2.2,4.3,2.3,6.6c0,0.5,0.1,1,0,1.5c-0.1,0.7-0.5,1.3-1.3,1.4
											C345.3,251.5,344.6,250.9,344.7,250.2L344.7,250.2z"/>
									</g>
								</g>
								<g>
									<path class="st299" d="M487.8,246.6c-0.1,9.4-7.8,16.9-17.3,16.8c-9.5-0.1-17.1-7.8-17-17.2c0.1-9.4,7.8-16.9,17.3-16.8
										C480.3,229.5,487.9,237.2,487.8,246.6z"/>
									<g>
										<path class="st10" d="M460,248.6c-0.2-4.4,1.9-9,6.1-10.8c2.1-0.9,4.5-1,6.8-0.7c0.7,0.1,1.1,1,1,1.6
											c-0.2,0.8-0.9,1-1.6,1c-1.7-0.2-3.4-0.1-5,0.5c-0.1,0-0.6,0.2-0.3,0.1c-0.2,0.1-0.3,0.1-0.5,0.2c-0.3,0.2-0.6,0.4-0.9,0.6
											c-0.3,0.2,0.1-0.1-0.2,0.1c-0.1,0.1-0.2,0.2-0.3,0.3c-0.2,0.2-0.4,0.5-0.6,0.7c0,0.1-0.1,0.1-0.1,0.2
											c0.2-0.3,0.1-0.1,0-0.1c-0.1,0.1-0.2,0.2-0.2,0.4c-0.2,0.3-0.3,0.5-0.5,0.8c-0.1,0.1-0.1,0.2-0.2,0.4
											c0,0.1-0.2,0.5-0.1,0.1c-0.1,0.3-0.2,0.5-0.3,0.8c-0.1,0.5-0.3,1-0.4,1.4c0,0.2-0.1,0.4-0.1,0.6c0,0.1-0.1,0.4,0,0
											c0,0.1,0,0.2,0,0.3c0,0.4-0.1,0.9,0,1.3C462.8,250.3,460.1,250.3,460,248.6L460,248.6z"/>
									</g>
								</g>
							</g>
							<path class="st299" d="M458,251.1c0.3,25.6-20.5,46.8-46.1,47.1l-15.1,0.2c-25.6,0.3-46.8-20.5-47.1-46.1l-0.5-50.3
								c-0.3-25.6,20.5-46.8,46.1-47.1l15.1-0.2c25.6-0.3,46.8,20.5,47.1,46.1L458,251.1z"/>
							<g>
								<path class="st296" d="M416.5,258.6c-0.6,5.3-5.1,9.5-10.5,9.5c-5.5,0.1-10-4-10.7-9.3"/>
								<g>
									<path class="st10" d="M374.7,225.7c-0.1,3.5-2.9,6.2-6.4,6.1c-3.5-0.1-6.2-2.9-6.1-6.4c0.1-3.5,2.9-6.2,6.4-6.1
										C372,219.4,374.8,222.2,374.7,225.7z"/>
									<path class="st10" d="M441.1,224.3c-0.1,3.5-2.9,6.2-6.4,6.1c-3.5-0.1-6.2-2.9-6.1-6.4c0.1-3.5,2.9-6.2,6.4-6.1
										C438.4,218,441.2,220.9,441.1,224.3z"/>
								</g>
								<g>
									<path class="st300" d="M428.3,210.7c0,0,8.9-2.2,15.7,2.6"/>
									<path class="st300" d="M374.3,211.8c0,0-8.9-1.8-15.5,3.2"/>
								</g>
								<polyline class="st296" points="402.9,215.4 398,240.3 407.1,240.1 								"/>
							</g>
						</g>
						<g>
							<path class="st298" d="M345.2,225.6c0,0,37.5-8.5,50.1-26.6c0,0-2.8,6.6-9.6,12.5c-2.4,2.1-10.3,7.8-10.3,7.8
								s18.5-1.5,31.7-20.3l0.9-1.9c0,0-7.9,14.4-18.4,19.7c0,0,11.1-0.1,25.7-14.1c18.6-17.7,14.6-52.9,14.6-52.9l-46.3-3.1
								l-24.8,14.1l-9.7,21.6L345.2,225.6z"/>
							<path class="st298" d="M462,219.3c0,0-0.6-41.7-5.7-49.7c-1.3-2-2.7-3.5-4.1-4.6c-5.7-5.8-16.6-14.9-27.9-14.1
								c-16.5,1,5.4,22.9,5.4,22.9C432.6,179.4,448.8,209.2,462,219.3z"/>
						</g>
					</g>
				</g>
			</g>
		</g>
	</g>
</g>
</svg>
