<svg id="Layer_1" data-name="Layer 1" xmlns="http://www.w3.org/2000/svg" xmlns:xlink="http://www.w3.org/1999/xlink" viewBox="0 0 1920 1080"><defs><style>.cls-1,.cls-15,.cls-17,.cls-6,.cls-9{fill:none;}.cls-2{clip-path:url(#clip-path);}.cls-3,.cls-4{fill:#e8e8f0;}.cls-3{opacity:0.4;}.cls-5{fill:#c5c1d2;}.cls-17,.cls-6{stroke:#c5c1d2;}.cls-18,.cls-6{stroke-miterlimit:10;}.cls-6{stroke-width:2.85px;}.cls-12,.cls-7{fill:#1c1d3e;}.cls-11,.cls-14,.cls-18,.cls-8{fill:#fff;}.cls-12,.cls-14,.cls-15,.cls-18,.cls-8,.cls-9{stroke:#1c1d3e;}.cls-12,.cls-14,.cls-15,.cls-17,.cls-8,.cls-9{stroke-linecap:round;stroke-linejoin:round;}.cls-12,.cls-8,.cls-9{stroke-width:2.13px;}.cls-10{fill:#505ea8;}.cls-13{fill:#00a19a;}.cls-14,.cls-15,.cls-18{stroke-width:1.94px;}.cls-16{fill:#82368c;}.cls-17{stroke-width:11.64px;}</style><clipPath id="clip-path"><rect class="cls-1" x="-0.11" y="-0.15" width="1920.12" height="1080.16"/></clipPath></defs><g class="cls-2"><path class="cls-3" d="M937.45,1201.16S630.22,1093.35,608,872.64s155-304.77,281.2-285.46c87.27,13.36,243.69-87.32,291.45-188.19,132.34-279.56,532.12-187.44,612.71,6,71.38,171.33,60.55,124.59,159.09,163.25s109.63,354.92,41,508.37S1059.11,1208.58,937.45,1201.16Z"/><path class="cls-3" d="M1831.9,287s-34.2,51.89,3.67,126.35,137.41,90.52,184,26.27,28.69-158.64-6.52-172.7S1870.68,216.68,1831.9,287Z"/><path class="cls-3" d="M888.89,478.41c-18.58,3.42-51.76.23-65.5-50.38s45.59-76.84,83.22-71.28S992.08,459.43,888.89,478.41Z"/><path class="cls-4" d="M552.2,793.61s30.46,9.46,22.88,58.49-61.7,46.8-80.69,23.89S493.8,782.69,552.2,793.61Z"/><path class="cls-5" d="M1880.66,1078.25q23.88-14.6,48.14-28.55,29.43-17,59.33-33.11,18.42-9.95,37-19.57c1.22-.64.14-2.48-1.08-1.85q-32.4,16.77-64.28,34.53-27.6,15.36-54.78,31.43-12.76,7.55-25.41,15.28c-1.17.71-.1,2.56,1.07,1.84Z"/><path class="cls-6" d="M1886.34,1013.76a52.51,52.51,0,0,1,13.12-.65c26.77,1.45,22.35-24.92,50.5-46.66s36.88-1,54.44-6.47,30.86-42,61.9-22.62,33.8,54.61,11,80.3-43.13,3.77-49.72,26.24-9.87,32.39-38.58,38.6-49.47-1.57-64,37.49c-13,34.79-36.37,43-59.82,40.42l-49.66-29.13"/><path class="cls-6" d="M1891.6,789.61c.55-49.57,53-115.46,107.65-81.94,55,33.73,37,91.36,6.77,123.19-25.66,27-86.52,39-71.7,61s19.52,53.9-30.28,74.51,8.38,56.07-25.3,113.45c-22.58,38.46-49.66,53.08-74.34,52.13l-64.55-51.2a98.42,98.42,0,0,1-5.92-52.2c8.3-52.52,63.73-54.39,71.87-78.84s-9.09-66.8,12.83-103.75C1847.6,797.1,1891.33,814.23,1891.6,789.61Z"/><path class="cls-5" d="M1945.8,766.56q-3.88,7.14-7.73,14.28-9.72,18-19.33,36.13-12.51,23.53-24.77,47.2c-8.28,16-16.46,32.05-24.4,48.23-5.44,11.08-10.73,22.23-16,33.39q-9.48,20.15-18.78,40.37-9.7,21-19.32,42.14-8.67,19-17.3,38.1-6.53,14.43-13,28.87-3.23,7.14-6.42,14.28c-.09.2-.18.41-.28.62-.55,1.24,1.29,2.33,1.85,1.08q2.19-4.89,4.39-9.78,5.82-12.95,11.66-25.89,8.22-18.18,16.48-36.34,9.5-20.87,19.06-41.7,9.49-20.65,19.1-41.25c5.57-11.9,11.17-23.77,16.89-35.6,7-14.56,14.33-29,21.71-43.4q12.45-24.25,25.2-48.36,10.51-19.87,21.16-39.69,5.57-10.35,11.17-20.67l.51-.93c.66-1.21-1.19-2.29-1.85-1.08Z"/><path class="cls-5" d="M1849.46,839.78l1,9.46,2.27,22.59,2.76,27.45,2.38,23.65c.39,3.85.63,7.75,1.16,11.58,0,.06,0,.11,0,.17.14,1.35,2.27,1.37,2.14,0l-1-9.46-2.28-22.59-2.76-27.45-2.37-23.65c-.39-3.85-.63-7.75-1.17-11.58a1,1,0,0,1,0-.17c-.14-1.35-2.28-1.37-2.14,0Z"/><path class="cls-5" d="M1868.31,1016.75l-21.25,12-33.61,18.94-7.75,4.36a1.07,1.07,0,0,0,1.08,1.85l21.25-12,33.61-18.94,7.75-4.37c1.2-.67.12-2.52-1.08-1.84Z"/><path class="cls-5" d="M1829.48,863c-10.51,2.68-8.93,16.38,1.91,16.59C1841.9,876.93,1840.32,863.23,1829.48,863Z"/><path class="cls-6" d="M1745.15,1106.18a89,89,0,0,1-29.06-37.55c-18.21-44.46,23.73-71.88,18.55-94.59s-38.35-47.33-38.74-86.15c-.52-51.29,41.29-58.56,30-77.7-22.82-38.55-13.24-114,44.72-113.77,58.33.25,71.42,53.22,63,92-7.16,32.88-46.64,71.61-24.91,81.6"/><path class="cls-5" d="M1756.81,767q1.2,25.83,2.73,51.63c1.86,32.27,3.89,64.55,6.77,96.76,2.2,24.52,5,49,7.76,73.47q4.52,39.57,9.35,79.11,2.55,21.12,5.19,42.24c0,.22.05.43.08.64.16,1.35,2.3,1.36,2.13,0q-2.19-17.54-4.32-35.08-4.7-38.46-9.15-77c-2.93-25.43-5.82-50.88-8.25-76.37-2.94-30.93-4.94-61.95-6.79-92.95q-1.83-30.75-3.31-61.5c0-.33,0-.66,0-1-.07-1.36-2.2-1.37-2.14,0Z"/><path class="cls-5" d="M1716.74,868.73l5.14,6.83L1734.25,892l15,19.86,13,17.26c2.09,2.78,4.11,5.64,6.29,8.35l.09.11c.82,1.09,2.67,0,1.85-1.07l-5.15-6.83-12.36-16.41-15-19.86-13-17.26c-2.09-2.78-4.11-5.64-6.29-8.35l-.09-.11c-.82-1.09-2.67,0-1.84,1.07Z"/><path class="cls-5" d="M1814.3,996.46l-10.73,19.09L1786.44,1046l-4,7a1.07,1.07,0,0,0,1.85,1.08l10.73-19.09,17.13-30.47,4-7a1.07,1.07,0,0,0-1.85-1.08Z"/><path class="cls-5" d="M1763.13,845.76l12.55-21.22,20-33.79,4.57-7.72a1.07,1.07,0,0,0-1.85-1.08l-12.55,21.22-20,33.8-4.57,7.72a1.06,1.06,0,0,0,1.84,1.07Z"/><path class="cls-5" d="M1712.3,896c-6.87,7,.78,16.83,9.25,11.91C1728.41,900.93,1720.77,891.09,1712.3,896Z"/><path class="cls-6" d="M853,869.36c-38.51-27.22-61.78-103.88-6-128.59,56.17-24.86,91.55,20.41,100.12,61.29,7.27,34.69-16.21,88.85,9,89.09s52.76,13.86,42,64,48.44,23.74,75.16,81.13c17.92,38.47,14.72,67.58.63,86.39l-75,22.87A93.69,93.69,0,0,1,954.82,1122c-36.64-34.89-8.14-79.3-22.88-98.9s-57.23-29-74.32-66.13C835.05,907.86,872.1,882.88,853,869.36Z"/><path class="cls-5" d="M864.22,814.57q3.49,6.88,7,13.77,8.87,17.37,17.83,34.67,11.69,22.51,23.58,44.91c8.06,15.13,16.2,30.21,24.57,45.17,5.74,10.24,11.61,20.41,17.51,30.56q10.65,18.32,21.46,36.52,11.22,19,22.55,37.89,10.21,17.09,20.48,34.14,7.8,13,15.62,25.9l7.67,12.67.34.56c.71,1.17,2.56.1,1.84-1.08l-5.28-8.72q-7-11.55-14-23.12-9.8-16.26-19.55-32.54-11.21-18.7-22.34-37.45-11-18.59-22-37.25Q952.12,975,942.83,958.7c-7.59-13.38-15-26.88-22.23-40.43q-12.29-22.86-24.25-45.88-9.95-19.07-19.73-38.18-5.07-9.9-10.09-19.81l-.46-.91c-.62-1.23-2.47-.15-1.85,1.08Z"/><path class="cls-5" d="M869.52,929.56l7.92,4.37,18.9,10.43,23,12.67,19.88,11c3.19,1.76,6.35,3.78,9.65,5.32l.14.08c1.2.66,2.28-1.18,1.07-1.85l-7.91-4.36-18.91-10.43-23-12.67-19.88-11c-3.19-1.76-6.34-3.78-9.65-5.33l-.13-.07c-1.21-.67-2.29,1.18-1.08,1.84Z"/><path class="cls-5" d="M1018.2,1010.45l-2.11,23-3.35,36.69-.77,8.36c-.12,1.37,2,1.36,2.14,0l2.1-23,3.36-36.69.76-8.36c.13-1.37-2-1.36-2.13,0Z"/><path class="cls-5" d="M876.87,957.68c-3.58,9.67,8,15.84,14,7.47C894.48,955.48,882.9,949.31,876.87,957.68Z"/><path class="cls-5" d="M917.15,805.29c-3.66,9.86,8.14,16.14,14.28,7.61C935.08,803.05,923.29,796.77,917.15,805.29Z"/><path class="cls-5" d="M885.18,784.19c-4.73,12.77,10.55,20.91,18.51,9.86C908.42,781.28,893.14,773.14,885.18,784.19Z"/><path class="cls-6" d="M1068.88,1102.34l-47.18,52.82a84.69,84.69,0,0,1-45.1,2.45c-44.66-9.77-43.47-57.43-64.05-65.65s-57.79,4.44-88.4-16.23c-40.44-27.32-23.54-64-44.65-65.46-42.52-3-96.43-51.26-64.91-96.51,31.72-45.55,80.27-27.17,106.06.39,21.89,23.38,31,75.16,50.58,63.54"/><path class="cls-5" d="M762.41,962.75l11.92,7.39q15,9.23,30,18.37,19.62,11.94,39.36,23.69c13.29,7.89,26.62,15.7,40.07,23.31,9.25,5.23,18.57,10.34,27.9,15.42q16.83,9.16,33.75,18.18,17.52,9.36,35.07,18.63,15.93,8.41,31.87,16.79,12.07,6.33,24.15,12.64,5.94,3.11,11.89,6.2c.17.1.35.19.53.28,1.21.63,2.29-1.21,1.07-1.85l-8.19-4.27q-10.79-5.62-21.55-11.27-15.21-8-30.4-16-17.37-9.16-34.7-18.4t-34.5-18.5c-9.94-5.38-19.88-10.79-29.75-16.31-12.1-6.75-24.09-13.71-36-20.74q-20.25-11.93-40.33-24.12Q797.93,982.16,781.43,972q-8.58-5.28-17.15-10.61l-.79-.49c-1.17-.73-2.24,1.12-1.08,1.85Z"/><path class="cls-5" d="M820.49,1049.11l27.69-1.15,44.12-1.84,10.11-.42c1.37-.06,1.38-2.19,0-2.14l-27.69,1.16-44.12,1.84-10.11.42c-1.37,0-1.38,2.19,0,2.13Z"/><path class="cls-5" d="M973.16,1041.81l9.19,18.81,14.58,29.84,3.36,6.86c.6,1.23,2.44.15,1.84-1.08l-9.19-18.81-14.58-29.84-3.35-6.86c-.6-1.24-2.45-.16-1.85,1.08Z"/><path class="cls-5" d="M827.51,1000.2l-9.86-21.34L802,945l-3.59-7.76c-.57-1.25-2.41-.17-1.84,1.07l9.85,21.34,15.64,33.86,3.58,7.77c.58,1.25,2.42.16,1.85-1.08Z"/><path class="cls-5" d="M839.37,1067.28c1.77,9.15,13.6,8.49,14.33-.81C851.94,1057.32,840.1,1058,839.37,1067.28Z"/><rect class="cls-1" x="418.66" y="114.56" width="1501.34" height="965.44"/><polygon class="cls-7" points="1761.93 914.33 1778.91 1080 1506.51 1080 1511.71 911.59 1761.93 914.33"/><path class="cls-8" d="M1624.25,533s-73.76,45.35-97.48,135.09-15.06,243.5-15.06,243.5,291.7,12.93,291.7,8.89,19-141.19-9.91-214.85S1688.11,564,1688.11,564Z"/><path class="cls-9" d="M1617.79,565.15s-42.86,196-42.37,298.56v50.56"/><path class="cls-10" d="M1668,705.27a22.88,22.88,0,0,0-20.22,4.76,22.63,22.63,0,0,0-8.61-8.74s-6.19,10.48-8,14.1c-3.29,6.44-10.23,23.79-10.23,23.79l-1.86,5.15a23.48,23.48,0,0,0,2.8.91,22.85,22.85,0,0,0,20.22-4.77,23.41,23.41,0,0,0,15.07,11.83c12.58,3.09,25.24-4.95,28.24-17.91S1680.56,708.36,1668,705.27Z"/><path class="cls-5" d="M1652.47,916.28c-2.89-48.52-10.29-170.72-13.33-221-.73-12-10-20.89-20.32-19.38l-149.47,22c-9.88,1.45-16.89,11.91-15.69,23.39l22.56,215c1.19,11.34,10,19.5,19.73,18.38l140.24-16C1645.93,937.5,1653.15,927.63,1652.47,916.28Z"/><path class="cls-11" d="M1448,819.56c-4,10.43,1.68,23.41,25.3,32s121.43,22,121.43,22l13-68.26s-99.07-39.65-106.63-33.33,14,26.5,14,26.5-38.29-10.83-48.46-12.89-11,4.54-9.92,8.44c0,0-9.74.91-7,11.29A14.45,14.45,0,0,0,1448,819.56Z"/><path class="cls-9" d="M1456.73,794s-9.74.91-7,11.29c3,11.46,37.24,21,37.24,21"/><path class="cls-9" d="M1449.76,805.31a14.45,14.45,0,0,0-1.78,14.25c3.63,9.48,33.84,19.73,33.84,19.73"/><path class="cls-9" d="M1448,819.56c-4,10.43,1.68,23.41,25.3,32s121.43,22,121.43,22l13-68.26s-99.07-39.65-106.63-33.33,14,26.5,14,26.5-38.29-10.83-48.46-12.89-11,4.54-9.92,8.44c1.5,5.45,11.25,12,34.44,18.43"/><path class="cls-11" d="M1580.41,885.22l6.22-98.43,169-11.73-20.16-.38-23.36-90.46-79.88-143.11s126,6.51,220.82,150.16c94,142.44,45.23,282.64-127.79,243.16C1578.62,901,1580.41,885.22,1580.41,885.22Z"/><path class="cls-9" d="M1632.28,541.11s126,6.51,220.82,150.16c94,142.44,45.23,282.64-127.79,243.16-146.69-33.46-144.9-49.21-144.9-49.21l6.22-98.43,169-11.73"/><line class="cls-9" x1="1609.86" y1="798.36" x2="1609.86" y2="889.16"/><line class="cls-9" x1="1735.52" y1="774.68" x2="1712.16" y2="684.22"/><path class="cls-10" d="M1721.74,605.64a25.34,25.34,0,0,0-16.31-12.79c-13.6-3.35-27.31,5.35-30.55,19.38s5.19,28.15,18.79,31.5a24.77,24.77,0,0,0,21.88-5.16,25.36,25.36,0,0,0,16.31,12.8c13.6,3.34,27.31-5.35,30.55-19.38s-5.19-28.16-18.79-31.5A24.73,24.73,0,0,0,1721.74,605.64Z"/><path class="cls-10" d="M1792.2,689.9a25.32,25.32,0,0,0-16.3-12.8c-13.61-3.34-27.31,5.35-30.55,19.38s5.19,28.16,18.79,31.5a24.74,24.74,0,0,0,21.88-5.15,25.35,25.35,0,0,0,16.31,12.79c13.6,3.34,27.31-5.35,30.55-19.38s-5.19-28.16-18.8-31.5A24.75,24.75,0,0,0,1792.2,689.9Z"/><path class="cls-10" d="M1809.06,793.73a25.38,25.38,0,0,0-16.31-12.79c-13.6-3.34-27.31,5.35-30.55,19.38s5.19,28.16,18.79,31.5a24.76,24.76,0,0,0,21.88-5.15,25.38,25.38,0,0,0,16.31,12.79c13.6,3.34,27.31-5.35,30.55-19.38s-5.19-28.16-18.8-31.5A24.72,24.72,0,0,0,1809.06,793.73Z"/><path class="cls-10" d="M1694.67,814.78a25.3,25.3,0,0,0-16.3-12.79c-13.61-3.34-27.31,5.35-30.55,19.38s5.19,28.15,18.79,31.5a24.75,24.75,0,0,0,21.88-5.16,25.31,25.31,0,0,0,16.31,12.8c13.6,3.34,27.3-5.35,30.54-19.38s-5.18-28.16-18.79-31.5A24.74,24.74,0,0,0,1694.67,814.78Z"/><path class="cls-10" d="M1753.91,888.52a25.36,25.36,0,0,0-16.31-12.8c-13.6-3.34-27.31,5.35-30.55,19.38s5.19,28.16,18.79,31.5a24.73,24.73,0,0,0,21.88-5.15A25.38,25.38,0,0,0,1764,934.24c13.6,3.34,27.31-5.35,30.55-19.38s-5.19-28.16-18.79-31.5A24.74,24.74,0,0,0,1753.91,888.52Z"/><path class="cls-8" d="M1589.82,397.94l29.08.36c19.34.23,34.94,18.44,34.67,40.45l-.55,45.09c0,1.27-.09,2.53-.21,3.77a18.15,18.15,0,0,1,.44,4.13l-.33,27.45,0,1.53-.33,27.44a18.17,18.17,0,0,1-18.33,17.89l-11.54-.14a18.17,18.17,0,0,1-17.89-18.33l.3-24.29-16.82-.2c-19.34-.24-34.94-18.44-34.67-40.46l.55-45.09C1554.44,415.53,1570.48,397.71,1589.82,397.94Z"/><path class="cls-7" d="M1612.19,453a6.56,6.56,0,1,1-6.47-6.63A6.56,6.56,0,0,1,1612.19,453Z"/><path class="cls-7" d="M1569.28,451.5a5.6,5.6,0,1,1-5.53-5.66A5.6,5.6,0,0,1,1569.28,451.5Z"/><path class="cls-8" d="M1575.22,478.4s3.17,9.64,10.13,10.39,12.51-6.91,13-12.93Z"/><polyline class="cls-9" points="1586 468.46 1575.42 461.84 1584.93 446.12"/><line class="cls-9" x1="1617.79" y1="441.31" x2="1605.83" y2="436.94"/><line class="cls-9" x1="1569.14" y1="438.61" x2="1558.25" y2="438.47"/><path class="cls-12" d="M1652.9,477.43a18.07,18.07,0,0,1,11.52,1.61,21.78,21.78,0,0,1,1.54-14.67,22.48,22.48,0,0,1-34.58-15.15A22.16,22.16,0,0,1,1617,426a22.37,22.37,0,0,1-4.24-3.29,22.81,22.81,0,0,1-2.8-3.46,22.4,22.4,0,0,1-29-.57,23.24,23.24,0,0,1-1.8,2.19,22.45,22.45,0,0,1-38.13-13,22.49,22.49,0,0,1-7.58-37,23.3,23.3,0,0,1,3.89-3.05,22.53,22.53,0,0,1,22.43-22.43,22.39,22.39,0,0,1,32.1-10.48,22.42,22.42,0,0,1,41.65-1.23c.34-.39.61-.82,1-1.19a20.28,20.28,0,0,1,28.68.14,20,20,0,0,1,4.25,6.39,22.39,22.39,0,0,1,31.23,19.37,17.34,17.34,0,0,1,15.85,25.39,23,23,0,0,1,1.48,45,19.22,19.22,0,0,1-13.59,31.3,21.72,21.72,0,0,1-28.35,32.15,17.91,17.91,0,0,1-21.34,20.28Z"/><path class="cls-11" d="M1689.83,470.44A23.16,23.16,0,1,1,1667,447.19,23.07,23.07,0,0,1,1689.83,470.44Z"/><path class="cls-9" d="M1654.11,473s-.83-15.61,15.17-13.69"/><path class="cls-9" d="M1643.52,469.88a22.82,22.82,0,0,1,7.18-16.36"/><path class="cls-9" d="M1650.7,453.52a23,23,0,1,1,4.81,36.77,35.62,35.62,0,0,1-5.21-3.71"/><polygon class="cls-8" points="1669.28 548.36 1655.99 528.2 1617.79 555.51 1640.44 595 1669.28 548.36"/><polygon class="cls-8" points="1617.79 555.51 1595.14 591.4 1592.88 556.62 1604.94 536.68 1617.79 555.51"/><path class="cls-10" d="M1580.1,617.92a22.88,22.88,0,0,0-20.22,4.76,22.69,22.69,0,0,0-8.62-8.74s-6.19,10.48-8,14.1c-3.29,6.44-10.23,23.79-10.23,23.79l-1.86,5.15a21.28,21.28,0,0,0,2.8.9,22.83,22.83,0,0,0,20.22-4.76A23.41,23.41,0,0,0,1569.23,665c12.57,3.09,25.24-5,28.24-17.91S1592.67,621,1580.1,617.92Z"/><polygon class="cls-13" points="858.18 915.8 839.03 1081.47 1146.33 1081.47 1140.46 913.06 858.18 915.8"/><path class="cls-14" d="M1228.54,840.7l19.14,61.48S1105.4,978.44,1104,975.75s-39-121.16-39-121.16Z"/><line class="cls-15" x1="1203.41" y1="855.45" x2="1218.98" y2="907.7"/><path class="cls-14" d="M1011.35,524.8s87.06,38.85,120.56,93.19c56.85,92.18,64.27,225.1,64.27,225.1l-49.92,3.69s8.33,112.62,6.69,124.47-303,19.81-303,19.81-18.67-249.5-7.11-295.51S907.33,526.57,1011.35,524.8Z"/><line class="cls-15" x1="1124.99" y1="689.06" x2="1140.6" y2="846.78"/><path class="cls-16" d="M1020.37,550.5a6.72,6.72,0,0,0-5.57-2.62l-18.11.68-18.12-.68A6.72,6.72,0,0,0,973,550.5a6.63,6.63,0,0,0-1.14,5.71L979.68,586a6.67,6.67,0,0,0,6.46,5h21.09a6.67,6.67,0,0,0,6.46-5l7.82-29.78A6.63,6.63,0,0,0,1020.37,550.5Z"/><polygon class="cls-16" points="985.78 583.3 966.23 795.13 1000.27 843.07 1027.27 790.48 1006.47 578.78 985.78 583.3"/><line class="cls-15" x1="983.95" y1="590.59" x2="1008.57" y2="590.59"/><path class="cls-14" d="M1336.35,845.27a64.86,64.86,0,0,0,17.81-4.35c9.93-3.88,15.42-11.69,14.18-18.55s-24.64,2.49-28.9,7.26S1329,842,1336.35,845.27Z"/><line class="cls-17" x1="1071.26" y1="851.86" x2="1215.99" y2="841.7"/><path class="cls-5" d="M1222.66,847.31l161.41-18.64a11,11,0,0,0,9.09-7.26l56.91-163.94A10.91,10.91,0,0,0,1439.41,643l-164.31,4.73a10.94,10.94,0,0,0-10.17,7.74l-54,177.85A10.91,10.91,0,0,0,1222.66,847.31Z"/><path class="cls-15" d="M1363.78,750c-5.73,9.86-17.13,14-25.48,9.18s-10.46-16.68-4.74-26.54,17.13-14,25.47-9.19S1369.5,740.12,1363.78,750Z"/><polyline class="cls-15" points="1390.91 827.88 1212.46 848.49 1069.57 857.75"/><path class="cls-11" d="M1349.4,790c-9.31-2.91-9.78,11-9.78,11v0c-1.73-5.86-5.5-6.41-8.11-5.84-6.3,1.38-9,12-9,12l-.37,1.18c-.82-3.65-3.05-5.55-7.34-5.15-11.17,1.06-23.4,36.69-23.4,36.69l.53-2.5-60.17,8.85c-.93,4.4,3.48,14.57,5.43,17.51.89,1.34,13.51-2.47,14.22-1.22,4.75,8.41,19,9.62,26.43,9,10.23-.93,23.3-10.55,29.09-15.43h0c6.14,1.68,12.92-1.77,12.92-1.77a25.87,25.87,0,0,0,5.27-4h0c16.16-3.16,27.18-17.47,28.51-24.35C1353.66,826,1358.71,792.88,1349.4,790Z"/><path class="cls-15" d="M1291.93,838.48l-61.4,7.92,6.16,17.66,13.36-2.2s3.66,2.89,4.82,3.86c6.22,5.2,16.66,6.33,23,5.76,11.7-1.06,27.12-13.5,31.11-17.2s8.51-16.94,8.51-16.94c5.85-20.64,8.51-35.2-2.66-34.14s-23.4,36.69-23.4,36.69"/><path class="cls-15" d="M1322.54,807.17s2.66-10.58,9-12c4.38-1,12,1.11,7.8,26.3s-19.42,32.77-19.42,32.77-6.78,3.45-12.92,1.77"/><path class="cls-15" d="M1339.62,801s.47-13.94,9.78-11,4.26,36,4.26,36c-1.33,6.88-12.35,21.19-28.51,24.35"/><path class="cls-14" d="M1146.71,769s22.28-7.29,30-2.44.41,12.11-8.1,14.12S1143.62,774.45,1146.71,769Z"/><path class="cls-11" d="M1187.86,784.51c-15.18-13.3-53.45-32.64-75.93-24.33s-91.72,39.44-97.8,50-4.25,61.4,26.49,52.53,67.06-44.33,72.53-43.73,44.48,4.08,44.94-8h0c8.5,4.43,20.33,4.09,22.76,0a7.15,7.15,0,0,0,1-2.6l0,0c5.65,2,9.55-.66,10-4.79l.63,0C1197.27,801.84,1203.05,797.81,1187.86,784.51Z"/><path class="cls-15" d="M1105.86,796.8s51,.33,52.24,13.36-39.49,9.41-44.95,8.81-41.79,34.86-72.53,43.72-32.56-42-26.49-52.53,75.33-41.66,97.8-50,60.75,11,75.93,24.33,9.41,17.33,4.68,19.14"/><path class="cls-15" d="M1110.72,783.6s29.46,1.39,51,10.52,21.57,12.74,19.14,16.83-14.26,4.43-22.76,0"/><path class="cls-15" d="M1125,767.57s46.48,15.66,59.23,24,8.21,20.4-2.27,16.78"/><path class="cls-11" d="M1024,766.79,842.37,804.93l30.87-6.48,8.86-92.9,72.32-165.1s-134.72,28.79-197,214.64C693.72,945.46,801,970.18,857,975.66s205.39-88.74,205.39-88.74Z"/><path class="cls-15" d="M954.42,540.45s-134.72,28.79-197,214.64C693.72,945.46,801,970.18,857,975.66s205.39-88.74,205.39-88.74L1024,766.79,842.37,804.93"/><line class="cls-15" x1="998.26" y1="784.73" x2="1030.55" y2="892.23"/><line class="cls-15" x1="873.24" y1="798.45" x2="882.1" y2="705.55"/><polygon class="cls-14" points="1043.88 541.5 1023.7 518.24 999.17 518.24 991.17 518.24 966.64 518.24 946.47 541.5 962.32 587.38 995.17 559.46 1028.03 587.38 1043.88 541.5"/><path class="cls-18" d="M967.77,498.05h54.81a0,0,0,0,1,0,0v30a17.43,17.43,0,0,1-17.43,17.43H985.2a17.43,17.43,0,0,1-17.43-17.43v-30A0,0,0,0,1,967.77,498.05Z"/><path class="cls-7" d="M933,454.63s-13.11-22.11-9.58-53.84c5.79-52.2,64.23-56.33,71.41-56.33,5.29,0,16.06,4.61,16.06,4.61s9.54-1,18,1.5c18.77,5.46,33.15,19.23,35.78,39.2,4.09,31-7.3,73.56-8.33,78.52S952.52,489.1,933,454.63Z"/><path class="cls-18" d="M911.8,463.28A16.74,16.74,0,1,0,929,447.19,16.66,16.66,0,0,0,911.8,463.28Z"/><path class="cls-7" d="M936.22,466.25a9.38,9.38,0,0,0,0-1.06c0-.38,0-.76-.08-1.15,0-.15,0-.42,0,0a1.41,1.41,0,0,0,0-.35q-.06-.37-.15-.75a11.79,11.79,0,0,0-.48-1.53c-.13-.34.11.22-.05-.11,0-.12-.1-.23-.16-.35a8.28,8.28,0,0,0-.47-.82c-.08-.12-.16-.22-.23-.34-.21-.29.13.15-.1-.12a8.1,8.1,0,0,0-.7-.73l-.33-.29c-.22-.19.17.12,0,0l-.19-.13a7.71,7.71,0,0,0-.92-.55l-.22-.1-.18-.09c.16.07.17.07,0,0l-.58-.21a10,10,0,0,0-1.31-.31s-.42-.07-.13,0l-.37,0c-.25,0-.51,0-.77,0a14.13,14.13,0,0,0-1.84,0,1.3,1.3,0,0,1-1.29-1.29,1.32,1.32,0,0,1,1.29-1.3c3.65-.27,7.37.65,9.67,3.67a11.9,11.9,0,0,1,2.16,6.53,9.88,9.88,0,0,1,0,1.44,1.33,1.33,0,0,1-1.29,1.3,1.3,1.3,0,0,1-1.29-1.3Z"/><path class="cls-18" d="M1075.94,465.64a16.74,16.74,0,1,1-16.22-17.11A16.67,16.67,0,0,1,1075.94,465.64Z"/><path class="cls-7" d="M1048.81,467c-.15-4.26,2-8.74,6.12-10.39a13,13,0,0,1,6.65-.54,1.3,1.3,0,0,1,.91,1.59,1.33,1.33,0,0,1-1.59.9,10.12,10.12,0,0,0-4.84.37c-.09,0-.56.22-.28.1l-.45.21a10.3,10.3,0,0,0-.9.55c-.3.21.1-.1-.18.14-.11.1-.22.19-.33.3a7.94,7.94,0,0,0-.63.67c0,.05-.09.11-.14.17.2-.25.09-.12,0-.06l-.24.34a9,9,0,0,0-.46.79,3,3,0,0,0-.18.36c0,.09-.22.51-.07.13l-.28.75a13.74,13.74,0,0,0-.37,1.4c0,.21-.07.42-.11.62s-.14.42,0,0a1.53,1.53,0,0,0,0,.3,9.44,9.44,0,0,0-.07,1.3c.06,1.67-2.53,1.66-2.58,0Z"/><path class="cls-18" d="M1046.77,469.43a45.62,45.62,0,0,1-45.94,45l-14.78-.15a45.63,45.63,0,0,1-45-45.95l.5-49.08a45.63,45.63,0,0,1,46-45l14.77.15a45.63,45.63,0,0,1,45,46Z"/><path class="cls-7" d="M966,443a6.13,6.13,0,1,1-5.87-6.38A6.13,6.13,0,0,1,966,443Z"/><path class="cls-7" d="M1030.84,443a6.13,6.13,0,1,1-5.86-6.38A6.13,6.13,0,0,1,1030.84,443Z"/><path class="cls-7" d="M954.1,434.52a29.17,29.17,0,0,1,2.64-1.28l-.93.39a27.64,27.64,0,0,1,6.42-1.81,3.88,3.88,0,0,0,.93-7.09l-.93-.39a3.79,3.79,0,0,0-2.06,0,30.87,30.87,0,0,0-10,3.48,4,4,0,0,0-1.78,2.32,3.88,3.88,0,0,0,5.7,4.38Z"/><path class="cls-7" d="M1035.06,427.82a30.87,30.87,0,0,0-10-3.48,4.21,4.21,0,0,0-3,.39,4,4,0,0,0-1.78,2.31,3.9,3.9,0,0,0,.39,3,3.75,3.75,0,0,0,2.32,1.79,27.51,27.51,0,0,1,6.42,1.81l-.93-.39a28.11,28.11,0,0,1,2.65,1.28,4,4,0,0,0,3,.39,3.88,3.88,0,0,0,.93-7.09Z"/><polyline class="cls-15" points="991.5 431.17 987.23 458.52 997.77 458.52"/><path class="cls-15" d="M975.89,471.42c2.27,8.77,9.54,15.22,18.26,15.22s16-6.45,18.25-15.22Z"/><path class="cls-7" d="M1016.8,366.2s-61-9.22-74.6,22.07c-2.13,4.87-8.9,31.21-3.37,29.67,10.65-3,21.61-17.46,27.59-30.35,10,8.1,23.17,17.29,25.82,15.16,4.41-3.55-6.8-19.67-6.8-19.67s30,28.59,34.72,25.38-13.63-27.68-13.63-27.68,39.75,41.05,42.64,28.48S1016.8,366.2,1016.8,366.2Z"/></g></svg>