<svg id="Layer_1" data-name="Layer 1" xmlns="http://www.w3.org/2000/svg" xmlns:xlink="http://www.w3.org/1999/xlink" viewBox="0 0 830.3 240.9"><defs><style>.cls-1{fill:none;}.cls-2{fill:#183c6c;}.cls-3{fill:#646363;}.cls-4{clip-path:url(#clip-path);}.cls-5{fill:#a8182f;}.cls-6{fill:#fff;}</style><clipPath id="clip-path"><path class="cls-1" d="M681.85,197.55a25.13,25.13,0,1,0-25.13,25.13,25.13,25.13,0,0,0,25.13-25.13"/></clipPath></defs><path class="cls-2" d="M733.67,140.86H652a20.56,20.56,0,0,1,0-41.12h81.72a20.42,20.42,0,1,0,0-40.84H652a20.56,20.56,0,1,1,0-41.11h81.72a61.54,61.54,0,1,1,0,123.07"/><path class="cls-3" d="M4.29,106.9A29.59,29.59,0,0,1,14.87,96.25a27.8,27.8,0,0,1,14.48-4H61.87a32.29,32.29,0,0,1,15.62,3.83,29.62,29.62,0,0,1,11.29,10.58A28.12,28.12,0,0,1,93,121.81a30.31,30.31,0,0,1-4.19,15.55,31.1,31.1,0,0,1-11.36,11.36,30.31,30.31,0,0,1-15.55,4.19,28.09,28.09,0,0,1-15.12-4.19,29.54,29.54,0,0,1-10.58-11.29,32.29,32.29,0,0,1-3.83-15.62v-9.23H29.5a8.23,8.23,0,0,0-6.11,2.63,8.59,8.59,0,0,0-2.56,6.18v66.88H.39V121.39A28.22,28.22,0,0,1,4.29,106.9Zm64.47,21.8a9.34,9.34,0,0,0,2.77-6.89,8.93,8.93,0,0,0-2.77-6.67,9.48,9.48,0,0,0-6.89-2.7H52.5v9.37a9.48,9.48,0,0,0,2.7,6.89,9,9,0,0,0,6.67,2.77A9.38,9.38,0,0,0,68.76,128.7Z"/><path class="cls-3" d="M103.9,56.92h20.45v95.71H103.9Z"/><path class="cls-3" d="M171.92,132.6v18.61a1.26,1.26,0,0,1-1.42,1.42h-6a24.25,24.25,0,0,1-6.68-.86A45.18,45.18,0,0,1,154,168.6a35.39,35.39,0,0,1-10.37,12.5q-7.09,5.61-19.88,11.85l-7.66-17.18a110.51,110.51,0,0,0,14.34-9.37,17.66,17.66,0,0,0,5.68-7.67q1.41-4.11,1.42-11.93V99.66H158v24.85a6.59,6.59,0,0,0,1.84,4.76,6.25,6.25,0,0,0,4.69,1.91h6A1.26,1.26,0,0,1,171.92,132.6Z"/><path class="cls-3" d="M169.08,151.21V132.6a1.26,1.26,0,0,1,1.42-1.42h45.16a9.17,9.17,0,0,0,6.53-2.55,9,9,0,0,0,2.7-6.82q0-5.11-4.83-8.09L187.82,92.56V77.08L216.22,47l13.92,13.2-21,22L232.7,97.67A26.51,26.51,0,0,1,242,108a30.68,30.68,0,0,1,3.33,14.27,29.65,29.65,0,0,1-4,15.19,30.87,30.87,0,0,1-10.87,11.08,28.59,28.59,0,0,1-15,4.12H170.5A1.26,1.26,0,0,1,169.08,151.21Zm3.55-86.48,25-26.41,9.8,9.94-25,26.41Z"/><path class="cls-3" d="M269.47,149a26.89,26.89,0,0,1-13.2-23.21V56.92h20.45v67.59a6.59,6.59,0,0,0,1.84,4.76,6.09,6.09,0,0,0,4.55,1.91h7.81a1.26,1.26,0,0,1,1.42,1.42v18.61a1.26,1.26,0,0,1-1.42,1.42h-8A25.91,25.91,0,0,1,269.47,149Z"/><path class="cls-3" d="M290.92,131.18h9.23a6.24,6.24,0,0,0,4.68-1.91,6.6,6.6,0,0,0,1.85-4.76V99.66h20.45v24.85a6.59,6.59,0,0,0,1.84,4.76,6.25,6.25,0,0,0,4.69,1.91h9.23a1.26,1.26,0,0,1,1.42,1.42v18.61a1.26,1.26,0,0,1-1.42,1.42h-9.23q-10.52,0-16.76-7a22,22,0,0,1-16.75,7h-9.23a1.26,1.26,0,0,1-1.42-1.42V132.6A1.26,1.26,0,0,1,290.92,131.18ZM295,69.13h18.18V87.31H295Zm25.56,0h18.32V87.31H320.59Z"/><path class="cls-3" d="M456.77,132.6v18.61a1.26,1.26,0,0,1-1.42,1.42h-6.1q-10.51,0-16.62-7.25-6.11,7.53-16.75,7.53t-16.76-7.38q-6.25,7.38-16.76,7.38t-16.75-7.53q-6.11,7.25-16.76,7.25h-6a1.26,1.26,0,0,1-1.42-1.42V132.6a1.26,1.26,0,0,1,1.42-1.42h6a6.54,6.54,0,0,0,6.68-6.67V99.66h20.3v25.13a6.6,6.6,0,0,0,1.85,4.76,6.68,6.68,0,0,0,9.37,0,6.6,6.6,0,0,0,1.85-4.76V99.66h20.44v25.13a6.6,6.6,0,0,0,1.85,4.76,6.22,6.22,0,0,0,4.69,1.92,6.29,6.29,0,0,0,4.61-1.92,6.45,6.45,0,0,0,1.92-4.76V95.4h20.3v29.11a6.6,6.6,0,0,0,1.85,4.76,6.25,6.25,0,0,0,4.69,1.91h6.1A1.26,1.26,0,0,1,456.77,132.6Z"/><path class="cls-3" d="M455.35,131.18h7.1a6.28,6.28,0,0,0,4.69-1.91,6.59,6.59,0,0,0,1.84-4.76V99.66h20.45v24.85a6.6,6.6,0,0,0,1.85,4.76,6.24,6.24,0,0,0,4.68,1.91h7.1a1.26,1.26,0,0,1,1.42,1.42v18.61a1.26,1.26,0,0,1-1.42,1.42H496q-10.5,0-16.75-7a22,22,0,0,1-16.76,7h-7.1a1.26,1.26,0,0,1-1.42-1.42V132.6A1.26,1.26,0,0,1,455.35,131.18Zm14.77-61.91h18.17V87.45H470.12Z"/><path class="cls-3" d="M501.64,151.21V132.6a1.26,1.26,0,0,1,1.42-1.42H518.4a6.18,6.18,0,0,0,4.61-2,6.54,6.54,0,0,0,1.92-4.69V95.4h20.31v30.39A26.87,26.87,0,0,1,532,149a25.91,25.91,0,0,1-13.49,3.63H503.06A1.26,1.26,0,0,1,501.64,151.21Zm1.56,13.63h18.18V183H503.2Zm25.56,0h18.32V183H528.76Z"/><path class="cls-3" d="M557,56.92h20.45v95.71H557Z"/><g class="cls-4"><path class="cls-5" d="M681.85,197.55a25.13,25.13,0,1,0-25.13,25.13,25.13,25.13,0,0,0,25.13-25.13"/><path class="cls-6" d="M672.85,203.4v15.77l-.06.3a16.21,16.21,0,0,1-.36,1.71,8.76,8.76,0,0,1-8.4,6.12c-4.8,0-9.59,0-14.39,0a8.33,8.33,0,0,1-4.28-1.1,8.66,8.66,0,0,1-4.54-7.82c0-4.73,0-9.46,0-14.2a8.78,8.78,0,0,1,.17-1.77,8.64,8.64,0,0,1,6.52-6.88,14,14,0,0,1,1.44-.26h15.77c.32,0,.66.08,1,.16a8.69,8.69,0,0,1,6.89,6.53A14,14,0,0,1,672.85,203.4ZM671,211.32c0-2.36,0-4.72,0-7.07a8.32,8.32,0,0,0-.17-1.65,6.85,6.85,0,0,0-6.83-5.44H649.7a6.52,6.52,0,0,0-2.92.61,6.78,6.78,0,0,0-4.07,6.46c0,4.7,0,9.4,0,14.11a7.85,7.85,0,0,0,.16,1.61,6.86,6.86,0,0,0,6.82,5.46q7.15,0,14.3,0a6.74,6.74,0,0,0,5.69-2.92,6.82,6.82,0,0,0,1.28-4.14Z"/><path class="cls-6" d="M665.61,211.3a8.78,8.78,0,1,1-8.75-8.8A8.78,8.78,0,0,1,665.61,211.3Zm-8.79,6.87a6.89,6.89,0,1,0-6.87-6.92A6.88,6.88,0,0,0,656.82,218.17Z"/><path class="cls-6" d="M668.81,202a2.67,2.67,0,1,1-2.66-2.66A2.69,2.69,0,0,1,668.81,202Zm-1.9,0a.77.77,0,0,0-.78-.76.78.78,0,0,0,0,1.55A.78.78,0,0,0,666.91,202Z"/></g></svg>