<svg id="Layer_1" data-name="Layer 1" xmlns="http://www.w3.org/2000/svg" xmlns:xlink="http://www.w3.org/1999/xlink" viewBox="0 0 1920 1080"><defs><style>.cls-1,.cls-13,.cls-17,.cls-5,.cls-8{fill:none;}.cls-2{clip-path:url(#clip-path);}.cls-3{fill:#e8e8f0;opacity:0.4;}.cls-4{fill:#c5c1d2;}.cls-5{stroke:#c5c1d2;stroke-width:2.85px;}.cls-17,.cls-5{stroke-miterlimit:10;}.cls-11,.cls-6{fill:#1c1d3e;}.cls-10,.cls-12,.cls-7{fill:#fff;}.cls-11,.cls-12,.cls-13,.cls-17,.cls-7,.cls-8{stroke:#1c1d3e;}.cls-11,.cls-12,.cls-13,.cls-7,.cls-8{stroke-linecap:round;stroke-linejoin:round;}.cls-11,.cls-7,.cls-8{stroke-width:2.13px;}.cls-9{fill:#505ea8;}.cls-12,.cls-13,.cls-17{stroke-width:2.5px;}.cls-14{fill:#f6cb40;}.cls-15{fill:#e71d73;}.cls-16{fill:#00a19a;}</style><clipPath id="clip-path"><rect class="cls-1" x="-0.11" y="-0.15" width="1920.12" height="1080.16"/></clipPath></defs><g class="cls-2"><path class="cls-3" d="M937.45,1201.16S630.22,1093.35,608,872.64s155-304.77,281.2-285.46c87.27,13.36,243.69-87.32,291.45-188.19,132.34-279.56,532.12-187.44,612.71,6,71.38,171.33,60.55,124.59,159.09,163.25s109.63,354.92,41,508.37S1059.11,1208.58,937.45,1201.16Z"/><path class="cls-3" d="M1831.9,287s-34.2,51.89,3.67,126.35,137.41,90.52,184,26.27,28.69-158.64-6.52-172.7S1870.68,216.68,1831.9,287Z"/><path class="cls-3" d="M888.89,478.41c-18.58,3.42-51.76.23-65.5-50.38s45.59-76.84,83.22-71.28S992.08,459.43,888.89,478.41Z"/><path class="cls-3" d="M552.2,793.61s30.46,9.46,22.88,58.49-61.7,46.8-80.69,23.89S493.8,782.69,552.2,793.61Z"/><path class="cls-4" d="M1880.66,1078.25q23.88-14.6,48.14-28.55,29.43-17,59.33-33.11,18.42-9.95,37-19.57c1.22-.64.14-2.48-1.08-1.85q-32.4,16.77-64.28,34.53-27.6,15.36-54.78,31.43-12.76,7.55-25.41,15.28c-1.17.71-.1,2.56,1.07,1.84Z"/><path class="cls-5" d="M1886.34,1013.76a52.51,52.51,0,0,1,13.12-.65c26.77,1.45,22.35-24.92,50.5-46.66s36.88-1,54.44-6.47,30.86-42,61.9-22.62,33.8,54.61,11,80.3-43.13,3.77-49.72,26.24-9.87,32.39-38.58,38.6-49.47-1.57-64,37.49c-13,34.79-36.37,43-59.82,40.42l-49.66-29.13"/><path class="cls-5" d="M1891.6,789.61c.55-49.57,53-115.46,107.65-81.94,55,33.73,37,91.36,6.77,123.19-25.66,27-86.52,39-71.7,61s19.52,53.9-30.28,74.51,8.38,56.07-25.3,113.45c-22.58,38.46-49.66,53.08-74.34,52.13l-64.55-51.2a98.42,98.42,0,0,1-5.92-52.2c8.3-52.52,63.73-54.39,71.87-78.84s-9.09-66.8,12.83-103.75C1847.6,797.1,1891.33,814.23,1891.6,789.61Z"/><path class="cls-4" d="M1945.8,766.56q-3.88,7.14-7.73,14.28-9.72,18-19.33,36.13-12.51,23.53-24.77,47.2c-8.28,16-16.46,32.05-24.4,48.23-5.44,11.08-10.73,22.23-16,33.39q-9.48,20.15-18.78,40.37-9.7,21-19.32,42.14-8.67,19-17.3,38.1-6.53,14.43-13,28.87-3.23,7.14-6.42,14.28c-.09.2-.18.41-.28.62-.55,1.24,1.29,2.33,1.85,1.08q2.19-4.89,4.39-9.78,5.82-12.95,11.66-25.89,8.22-18.18,16.48-36.34,9.5-20.87,19.06-41.7,9.49-20.65,19.1-41.25c5.57-11.9,11.17-23.77,16.89-35.6,7-14.56,14.33-29,21.71-43.4q12.45-24.25,25.2-48.36,10.51-19.87,21.16-39.69,5.57-10.35,11.17-20.67l.51-.93c.66-1.21-1.19-2.29-1.85-1.08Z"/><path class="cls-4" d="M1849.46,839.78l1,9.46,2.27,22.59,2.76,27.45,2.38,23.65c.39,3.85.63,7.75,1.16,11.58,0,.06,0,.11,0,.17.14,1.35,2.27,1.37,2.14,0l-1-9.46-2.28-22.59-2.76-27.45-2.37-23.65c-.39-3.85-.63-7.75-1.17-11.58a1,1,0,0,1,0-.17c-.14-1.35-2.28-1.37-2.14,0Z"/><path class="cls-4" d="M1868.31,1016.75l-21.25,12-33.61,18.94-7.75,4.36a1.07,1.07,0,0,0,1.08,1.85l21.25-12,33.61-18.94,7.75-4.37c1.2-.67.12-2.52-1.08-1.84Z"/><path class="cls-4" d="M1829.48,863c-10.51,2.68-8.93,16.38,1.91,16.59C1841.9,876.93,1840.32,863.23,1829.48,863Z"/><path class="cls-5" d="M1745.15,1106.18a89,89,0,0,1-29.06-37.55c-18.21-44.46,23.73-71.88,18.55-94.59s-38.35-47.33-38.74-86.15c-.52-51.29,41.29-58.56,30-77.7-22.82-38.55-13.24-114,44.72-113.77,58.33.25,71.42,53.22,63,92-7.16,32.88-46.64,71.61-24.91,81.6"/><path class="cls-4" d="M1756.81,767q1.2,25.83,2.73,51.63c1.86,32.27,3.89,64.55,6.77,96.76,2.2,24.52,5,49,7.76,73.47q4.52,39.57,9.35,79.11,2.55,21.12,5.19,42.24c0,.22.05.43.08.64.16,1.35,2.3,1.36,2.13,0q-2.19-17.54-4.32-35.08-4.7-38.46-9.15-77c-2.93-25.43-5.82-50.88-8.25-76.37-2.94-30.93-4.94-61.95-6.79-92.95q-1.83-30.75-3.31-61.5c0-.33,0-.66,0-1-.07-1.36-2.2-1.37-2.14,0Z"/><path class="cls-4" d="M1716.74,868.73l5.14,6.83L1734.25,892l15,19.86,13,17.26c2.09,2.78,4.11,5.64,6.29,8.35l.09.11c.82,1.09,2.67,0,1.85-1.07l-5.15-6.83-12.36-16.41-15-19.86-13-17.26c-2.09-2.78-4.11-5.64-6.29-8.35l-.09-.11c-.82-1.09-2.67,0-1.84,1.07Z"/><path class="cls-4" d="M1814.3,996.46l-10.73,19.09L1786.44,1046l-4,7a1.07,1.07,0,0,0,1.85,1.08l10.73-19.09,17.13-30.47,4-7a1.07,1.07,0,0,0-1.85-1.08Z"/><path class="cls-4" d="M1763.13,845.76l12.55-21.22,20-33.79,4.57-7.72a1.07,1.07,0,0,0-1.85-1.08l-12.55,21.22-20,33.8-4.57,7.72a1.06,1.06,0,0,0,1.84,1.07Z"/><path class="cls-4" d="M1712.3,896c-6.87,7,.78,16.83,9.25,11.91C1728.41,900.93,1720.77,891.09,1712.3,896Z"/><path class="cls-5" d="M853,869.36c-38.51-27.22-61.78-103.88-6-128.59,56.17-24.86,91.55,20.41,100.12,61.29,7.27,34.69-16.21,88.85,9,89.09s52.76,13.86,42,64,48.44,23.74,75.16,81.13c17.92,38.47,14.72,67.58.63,86.39l-75,22.87A93.69,93.69,0,0,1,954.82,1122c-36.64-34.89-8.14-79.3-22.88-98.9s-57.23-29-74.32-66.13C835.05,907.86,872.1,882.88,853,869.36Z"/><path class="cls-4" d="M864.22,814.57q3.49,6.88,7,13.77,8.87,17.37,17.83,34.67,11.69,22.51,23.58,44.91c8.06,15.13,16.2,30.21,24.57,45.17,5.74,10.24,11.61,20.41,17.51,30.56q10.65,18.32,21.46,36.52,11.22,19,22.55,37.89,10.21,17.09,20.48,34.14,7.8,13,15.62,25.9l7.67,12.67.34.56c.71,1.17,2.56.1,1.84-1.08l-5.28-8.72q-7-11.55-14-23.12-9.8-16.26-19.55-32.54-11.21-18.7-22.34-37.45-11-18.59-22-37.25Q952.12,975,942.83,958.7c-7.59-13.38-15-26.88-22.23-40.43q-12.29-22.86-24.25-45.88-9.95-19.07-19.73-38.18-5.07-9.9-10.09-19.81l-.46-.91c-.62-1.23-2.47-.15-1.85,1.08Z"/><path class="cls-4" d="M869.52,929.56l7.92,4.37,18.9,10.43,23,12.67,19.88,11c3.19,1.76,6.35,3.78,9.65,5.32l.14.08c1.2.66,2.28-1.18,1.07-1.85l-7.91-4.36-18.91-10.43-23-12.67-19.88-11c-3.19-1.76-6.34-3.78-9.65-5.33l-.13-.07c-1.21-.67-2.29,1.18-1.08,1.84Z"/><path class="cls-4" d="M1018.2,1010.45l-2.11,23-3.35,36.69-.77,8.36c-.12,1.37,2,1.36,2.14,0l2.1-23,3.36-36.69.76-8.36c.13-1.37-2-1.36-2.13,0Z"/><path class="cls-4" d="M876.87,957.68c-3.58,9.67,8,15.84,14,7.47C894.48,955.48,882.9,949.31,876.87,957.68Z"/><path class="cls-4" d="M917.15,805.29c-3.66,9.86,8.14,16.14,14.28,7.61C935.08,803.05,923.29,796.77,917.15,805.29Z"/><path class="cls-4" d="M885.18,784.19c-4.73,12.77,10.55,20.91,18.51,9.86C908.42,781.28,893.14,773.14,885.18,784.19Z"/><path class="cls-5" d="M1068.88,1102.34l-47.18,52.82a84.69,84.69,0,0,1-45.1,2.45c-44.66-9.77-43.47-57.43-64.05-65.65s-57.79,4.44-88.4-16.23c-40.44-27.32-23.54-64-44.65-65.46-42.52-3-96.43-51.26-64.91-96.51,31.72-45.55,80.27-27.17,106.06.39,21.89,23.38,31,75.16,50.58,63.54"/><path class="cls-4" d="M762.41,962.75l11.92,7.39q15,9.23,30,18.37,19.62,11.94,39.36,23.69c13.29,7.89,26.62,15.7,40.07,23.31,9.25,5.23,18.57,10.34,27.9,15.42q16.83,9.16,33.75,18.18,17.52,9.36,35.07,18.63,15.93,8.41,31.87,16.79,12.07,6.33,24.15,12.64,5.94,3.11,11.89,6.2c.17.1.35.19.53.28,1.21.63,2.29-1.21,1.07-1.85l-8.19-4.27q-10.79-5.62-21.55-11.27-15.21-8-30.4-16-17.37-9.16-34.7-18.4t-34.5-18.5c-9.94-5.38-19.88-10.79-29.75-16.31-12.1-6.75-24.09-13.71-36-20.74q-20.25-11.93-40.33-24.12Q797.93,982.16,781.43,972q-8.58-5.28-17.15-10.61l-.79-.49c-1.17-.73-2.24,1.12-1.08,1.85Z"/><path class="cls-4" d="M820.49,1049.11l27.69-1.15,44.12-1.84,10.11-.42c1.37-.06,1.38-2.19,0-2.14l-27.69,1.16-44.12,1.84-10.11.42c-1.37,0-1.38,2.19,0,2.13Z"/><path class="cls-4" d="M973.16,1041.81l9.19,18.81,14.58,29.84,3.36,6.86c.6,1.23,2.44.15,1.84-1.08l-9.19-18.81-14.58-29.84-3.35-6.86c-.6-1.24-2.45-.16-1.85,1.08Z"/><path class="cls-4" d="M827.51,1000.2l-9.86-21.34L802,945l-3.59-7.76c-.57-1.25-2.41-.17-1.84,1.07l9.85,21.34,15.64,33.86,3.58,7.77c.58,1.25,2.42.16,1.85-1.08Z"/><path class="cls-4" d="M839.37,1067.28c1.77,9.15,13.6,8.49,14.33-.81C851.94,1057.32,840.1,1058,839.37,1067.28Z"/><rect class="cls-1" x="418.66" y="114.56" width="1501.34" height="965.44"/><polygon class="cls-6" points="1761.93 914.33 1778.91 1080 1506.51 1080 1511.71 911.59 1761.93 914.33"/><path class="cls-7" d="M1624.25,533s-73.76,45.35-97.48,135.09-15.06,243.5-15.06,243.5,291.7,12.93,291.7,8.89,19-141.19-9.91-214.85S1688.11,564,1688.11,564Z"/><path class="cls-8" d="M1617.79,565.15s-42.86,196-42.37,298.56v50.56"/><path class="cls-9" d="M1668,705.27a22.88,22.88,0,0,0-20.22,4.76,22.63,22.63,0,0,0-8.61-8.74s-6.19,10.48-8,14.1c-3.29,6.44-10.23,23.79-10.23,23.79l-1.86,5.15a23.48,23.48,0,0,0,2.8.91,22.85,22.85,0,0,0,20.22-4.77,23.41,23.41,0,0,0,15.07,11.83c12.58,3.09,25.24-4.95,28.24-17.91S1680.56,708.36,1668,705.27Z"/><path class="cls-4" d="M1652.47,916.28c-2.89-48.52-10.29-170.72-13.33-221-.73-12-10-20.89-20.32-19.38l-149.47,22c-9.88,1.45-16.89,11.91-15.69,23.39l22.56,215c1.19,11.34,10,19.5,19.73,18.38l140.24-16C1645.93,937.5,1653.15,927.63,1652.47,916.28Z"/><path class="cls-10" d="M1448,819.56c-4,10.43,1.68,23.41,25.3,32s121.43,22,121.43,22l13-68.26s-99.07-39.65-106.63-33.33,14,26.5,14,26.5-38.29-10.83-48.46-12.89-11,4.54-9.92,8.44c0,0-9.74.91-7,11.29A14.45,14.45,0,0,0,1448,819.56Z"/><path class="cls-8" d="M1456.73,794s-9.74.91-7,11.29c3,11.46,37.24,21,37.24,21"/><path class="cls-8" d="M1449.76,805.31a14.45,14.45,0,0,0-1.78,14.25c3.63,9.48,33.84,19.73,33.84,19.73"/><path class="cls-8" d="M1448,819.56c-4,10.43,1.68,23.41,25.3,32s121.43,22,121.43,22l13-68.26s-99.07-39.65-106.63-33.33,14,26.5,14,26.5-38.29-10.83-48.46-12.89-11,4.54-9.92,8.44c1.5,5.45,11.25,12,34.44,18.43"/><path class="cls-10" d="M1580.41,885.22l6.22-98.43,169-11.73-20.16-.38-23.36-90.46-79.88-143.11s126,6.51,220.82,150.16c94,142.44,45.23,282.64-127.79,243.16C1578.62,901,1580.41,885.22,1580.41,885.22Z"/><path class="cls-8" d="M1632.28,541.11s126,6.51,220.82,150.16c94,142.44,45.23,282.64-127.79,243.16-146.69-33.46-144.9-49.21-144.9-49.21l6.22-98.43,169-11.73"/><line class="cls-8" x1="1609.86" y1="798.36" x2="1609.86" y2="889.16"/><line class="cls-8" x1="1735.52" y1="774.68" x2="1712.16" y2="684.22"/><path class="cls-9" d="M1721.74,605.64a25.34,25.34,0,0,0-16.31-12.79c-13.6-3.35-27.31,5.35-30.55,19.38s5.19,28.15,18.79,31.5a24.77,24.77,0,0,0,21.88-5.16,25.36,25.36,0,0,0,16.31,12.8c13.6,3.34,27.31-5.35,30.55-19.38s-5.19-28.16-18.79-31.5A24.73,24.73,0,0,0,1721.74,605.64Z"/><path class="cls-9" d="M1792.2,689.9a25.32,25.32,0,0,0-16.3-12.8c-13.61-3.34-27.31,5.35-30.55,19.38s5.19,28.16,18.79,31.5a24.74,24.74,0,0,0,21.88-5.15,25.35,25.35,0,0,0,16.31,12.79c13.6,3.34,27.31-5.35,30.55-19.38s-5.19-28.16-18.8-31.5A24.75,24.75,0,0,0,1792.2,689.9Z"/><path class="cls-9" d="M1809.06,793.73a25.38,25.38,0,0,0-16.31-12.79c-13.6-3.34-27.31,5.35-30.55,19.38s5.19,28.16,18.79,31.5a24.76,24.76,0,0,0,21.88-5.15,25.38,25.38,0,0,0,16.31,12.79c13.6,3.34,27.31-5.35,30.55-19.38s-5.19-28.16-18.8-31.5A24.72,24.72,0,0,0,1809.06,793.73Z"/><path class="cls-9" d="M1694.67,814.78a25.3,25.3,0,0,0-16.3-12.79c-13.61-3.34-27.31,5.35-30.55,19.38s5.19,28.15,18.79,31.5a24.75,24.75,0,0,0,21.88-5.16,25.31,25.31,0,0,0,16.31,12.8c13.6,3.34,27.3-5.35,30.54-19.38s-5.18-28.16-18.79-31.5A24.74,24.74,0,0,0,1694.67,814.78Z"/><path class="cls-9" d="M1753.91,888.52a25.36,25.36,0,0,0-16.31-12.8c-13.6-3.34-27.31,5.35-30.55,19.38s5.19,28.16,18.79,31.5a24.73,24.73,0,0,0,21.88-5.15A25.38,25.38,0,0,0,1764,934.24c13.6,3.34,27.31-5.35,30.55-19.38s-5.19-28.16-18.79-31.5A24.74,24.74,0,0,0,1753.91,888.52Z"/><path class="cls-7" d="M1589.82,397.94l29.08.36c19.34.23,34.94,18.44,34.67,40.45l-.55,45.09c0,1.27-.09,2.53-.21,3.77a18.15,18.15,0,0,1,.44,4.13l-.33,27.45,0,1.53-.33,27.44a18.17,18.17,0,0,1-18.33,17.89l-11.54-.14a18.17,18.17,0,0,1-17.89-18.33l.3-24.29-16.82-.2c-19.34-.24-34.94-18.44-34.67-40.46l.55-45.09C1554.44,415.53,1570.48,397.71,1589.82,397.94Z"/><path class="cls-6" d="M1612.19,453a6.56,6.56,0,1,1-6.47-6.63A6.56,6.56,0,0,1,1612.19,453Z"/><path class="cls-6" d="M1569.28,451.5a5.6,5.6,0,1,1-5.53-5.66A5.6,5.6,0,0,1,1569.28,451.5Z"/><path class="cls-7" d="M1575.22,478.4s3.17,9.64,10.13,10.39,12.51-6.91,13-12.93Z"/><polyline class="cls-8" points="1586 468.46 1575.42 461.84 1584.93 446.12"/><line class="cls-8" x1="1617.79" y1="441.31" x2="1605.83" y2="436.94"/><line class="cls-8" x1="1569.14" y1="438.61" x2="1558.25" y2="438.47"/><path class="cls-11" d="M1652.9,477.43a18.07,18.07,0,0,1,11.52,1.61,21.78,21.78,0,0,1,1.54-14.67,22.48,22.48,0,0,1-34.58-15.15A22.16,22.16,0,0,1,1617,426a22.37,22.37,0,0,1-4.24-3.29,22.81,22.81,0,0,1-2.8-3.46,22.4,22.4,0,0,1-29-.57,23.24,23.24,0,0,1-1.8,2.19,22.45,22.45,0,0,1-38.13-13,22.49,22.49,0,0,1-7.58-37,23.3,23.3,0,0,1,3.89-3.05,22.53,22.53,0,0,1,22.43-22.43,22.39,22.39,0,0,1,32.1-10.48,22.42,22.42,0,0,1,41.65-1.23c.34-.39.61-.82,1-1.19a20.28,20.28,0,0,1,28.68.14,20,20,0,0,1,4.25,6.39,22.39,22.39,0,0,1,31.23,19.37,17.34,17.34,0,0,1,15.85,25.39,23,23,0,0,1,1.48,45,19.22,19.22,0,0,1-13.59,31.3,21.72,21.72,0,0,1-28.35,32.15,17.91,17.91,0,0,1-21.34,20.28Z"/><path class="cls-10" d="M1689.83,470.44A23.16,23.16,0,1,1,1667,447.19,23.07,23.07,0,0,1,1689.83,470.44Z"/><path class="cls-8" d="M1654.11,473s-.83-15.61,15.17-13.69"/><path class="cls-8" d="M1643.52,469.88a22.82,22.82,0,0,1,7.18-16.36"/><path class="cls-8" d="M1650.7,453.52a23,23,0,1,1,4.81,36.77,35.62,35.62,0,0,1-5.21-3.71"/><polygon class="cls-7" points="1669.28 548.36 1655.99 528.2 1617.79 555.51 1640.44 595 1669.28 548.36"/><polygon class="cls-7" points="1617.79 555.51 1595.14 591.4 1592.88 556.62 1604.94 536.68 1617.79 555.51"/><path class="cls-9" d="M1580.1,617.92a22.88,22.88,0,0,0-20.22,4.76,22.69,22.69,0,0,0-8.62-8.74s-6.19,10.48-8,14.1c-3.29,6.44-10.23,23.79-10.23,23.79l-1.86,5.15a21.28,21.28,0,0,0,2.8.9,22.83,22.83,0,0,0,20.22-4.76A23.41,23.41,0,0,0,1569.23,665c12.57,3.09,25.24-5,28.24-17.91S1592.67,621,1580.1,617.92Z"/><path class="cls-6" d="M1163.83,440.76c-2.89.47-16.18-25.26-17.13-46.57s7.63-61.46,68.38-63.38c21.26-.67,66.57,2.1,66.39,53.19-.18,51.53-24.17,81-29.56,83.8S1208.07,433.47,1163.83,440.76Z"/><path class="cls-7" d="M1236.05,366.33l-29.09.35c-19.33.24-34.93,18.44-34.67,40.46l.55,45.09c0,1.27.1,2.52.22,3.76a17.63,17.63,0,0,0-.45,4.14l.34,27.44v1.53l.34,27.45a18.17,18.17,0,0,0,18.33,17.89l11.54-.14A18.16,18.16,0,0,0,1221.05,516l-.29-24.29,16.82-.21c19.33-.23,34.93-18.44,34.67-40.45l-.55-45.09C1271.43,383.91,1255.39,366.09,1236.05,366.33Z"/><path class="cls-6" d="M1213.67,421.37a6.56,6.56,0,1,0,6.48-6.64A6.56,6.56,0,0,0,1213.67,421.37Z"/><path class="cls-6" d="M1256.58,419.88a5.6,5.6,0,1,0,5.53-5.66A5.6,5.6,0,0,0,1256.58,419.88Z"/><path class="cls-7" d="M1250.65,446.79s-3.18,9.64-10.14,10.38-12.51-6.91-13-12.93Z"/><polyline class="cls-8" points="1239.87 436.85 1250.45 430.23 1240.94 414.51"/><line class="cls-8" x1="1208.08" y1="409.69" x2="1220.03" y2="405.33"/><line class="cls-8" x1="1256.73" y1="406.99" x2="1267.62" y2="406.86"/><path class="cls-10" d="M1136,438.83a23.16,23.16,0,1,0,22.87-23.25A23.05,23.05,0,0,0,1136,438.83Z"/><path class="cls-8" d="M1171.75,441.42s.83-15.61-15.17-13.68"/><path class="cls-8" d="M1182.35,438.26a22.84,22.84,0,0,0-7.19-16.36"/><path class="cls-8" d="M1175.16,421.9a23,23,0,1,0-4.81,36.77,33.69,33.69,0,0,0,5.21-3.71"/><path class="cls-12" d="M1401.89,880.47s.09,74.45.16,99.34c.09,28.59-29.75,82.75-49.79,87.75s-14.49-172.34-14.49-172.34Z"/><path class="cls-13" d="M1390.13,985.63s-11,35.24-20.57,28.79,0-40.35,0-40.35-5.33-10.45-4.24-19.43"/><path class="cls-10" d="M1020.59,792.59c15.27-3,30.69-11,44.36-25.63,43.76-46.73,60-93.22,60-93.22l48.9-145.68c-92.42,7.26-139.25,94.78-139.25,94.78l-38.13,71.22Z"/><path class="cls-10" d="M1217.2,528.06s100.8-.26,152.68,135.08,61.8,230.12,61.8,230.12l-121.55,25Z"/><path class="cls-14" d="M1323.55,709.51c0,13.41-7.07,16.49-15.79,16.49s-15.8-3.08-15.8-16.49,15.8-32.08,15.8-32.08S1323.55,696.1,1323.55,709.51Z"/><path class="cls-15" d="M1389.44,766c0,13.41-7.07,16.49-15.8,16.49s-15.79-3.08-15.79-16.49,15.79-32.08,15.79-32.08S1389.44,752.54,1389.44,766Z"/><path class="cls-14" d="M1337.06,823c0,13.41-7.07,16.49-15.79,16.49s-15.8-3.08-15.8-16.49,15.8-32.08,15.8-32.08S1337.06,809.53,1337.06,823Z"/><path class="cls-15" d="M1403.43,859.31c0,13.42-7.07,16.49-15.8,16.49s-15.79-3.07-15.79-16.49,15.79-32.08,15.79-32.08S1403.43,845.9,1403.43,859.31Z"/><path class="cls-15" d="M1325.58,587.35h.62a192.46,192.46,0,0,0-16.38-17c0,.18,0,.37,0,.54C1309.79,584.28,1316.86,587.35,1325.58,587.35Z"/><path class="cls-15" d="M1377.82,690.46c.73,0,1.44,0,2.13-.08q-4.76-13.33-10.07-27.24c-.79-2-1.58-4.06-2.39-6-3,5.47-5.46,11.58-5.46,16.88C1362,687.38,1369.1,690.46,1377.82,690.46Z"/><path class="cls-13" d="M1219.48,528.06s98.52-.26,150.4,135.08,61.8,230.12,61.8,230.12l-121.55,25Z"/><path class="cls-15" d="M1040.58,786.26l23.25-17.3c-1.37-13.2-15.66-30.12-15.66-30.12s-15.79,18.67-15.79,32.08C1032.38,780.1,1035.69,784.44,1040.58,786.26Z"/><path class="cls-15" d="M1062,585.93a218.89,218.89,0,0,0-22.73,29.13c2.86,3.92,7.55,5.07,12.86,5.07,8.72,0,15.79-3.07,15.79-16.48C1068,598.07,1065.23,591.61,1062,585.93Z"/><path class="cls-15" d="M1121.43,541.84a173.92,173.92,0,0,0-27.91,16.23c1.08,10.68,7.65,13.28,15.63,13.28,8.72,0,15.79-3.08,15.79-16.49C1124.94,550.78,1123.47,546.22,1121.43,541.84Z"/><path class="cls-13" d="M1020.59,792.59c15.27-3,30.69-11,44.36-25.63,43.76-46.73,60-93.22,60-93.22l48.9-145.68c-92.42,7.26-139.25,94.78-139.25,94.78l-38.13,71.22Z"/><polygon class="cls-16" points="1075.58 815.15 1008.8 1301.58 1381.43 1309.92 1329.37 815.15 1075.58 815.15"/><line class="cls-17" x1="1204.39" y1="823.79" x2="1203.51" y2="1305.94"/><path class="cls-17" d="M1202.36,820.2h20.57v80a16.35,16.35,0,0,1-16.35,16.35"/><path class="cls-17" d="M1063,907.15s32.37-7.14,41.75-42.21"/><path class="cls-17" d="M1338.28,907.15s-32.37-7.14-41.76-42.21"/><path class="cls-10" d="M1330.73,662.07c12.11,68.17,20.64,181.46,23.28,219.5h-303.3c1.39-27.7,7.93-146.52,21-219.5,0,0,29.31-127.14,124-126.54S1330.73,662.07,1330.73,662.07Z"/><path class="cls-15" d="M1050.71,881.57H1354c-.56-8.07-1.39-19.56-2.46-33.26h-299C1051.66,863.29,1051,875,1050.71,881.57Z"/><rect class="cls-10" x="1122.98" y="848.31" width="6.71" height="33.26"/><polygon class="cls-10" points="1156.19 848.31 1149.47 848.31 1150.42 881.57 1157.13 881.57 1156.19 848.31"/><rect class="cls-10" x="1178.19" y="848.31" width="6.71" height="33.26"/><rect class="cls-10" x="1093.99" y="848.31" width="6.71" height="33.26"/><polygon class="cls-10" points="1067.08 881.57 1073.81 881.57 1076.35 848.31 1069.61 848.31 1067.08 881.57"/><polygon class="cls-10" points="1304.92 848.31 1298.21 848.31 1298.16 881.57 1304.87 881.57 1304.92 848.31"/><rect class="cls-10" x="1211.02" y="848.31" width="6.71" height="33.26"/><polygon class="cls-10" points="1333.63 848.31 1326.91 848.31 1325.71 881.57 1332.42 881.57 1333.63 848.31"/><polygon class="cls-10" points="1273.19 848.31 1266.46 848.31 1268.48 881.57 1275.21 881.57 1273.19 848.31"/><rect class="cls-10" x="1240" y="848.31" width="6.71" height="33.26"/><path class="cls-13" d="M1071.75,662.07c-13.11,73-19.65,191.8-21,219.5H1354c-2.64-38-11.17-151.33-23.28-219.5"/><path class="cls-15" d="M1110,798.26c0,13.41-7.08,16.49-15.8,16.49s-15.79-3.08-15.79-16.49,15.79-32.08,15.79-32.08S1110,784.85,1110,798.26Z"/><path class="cls-15" d="M1169.72,725c0,13.42-7.07,16.49-15.79,16.49s-15.79-3.07-15.79-16.49,15.79-32.08,15.79-32.08S1169.72,711.57,1169.72,725Z"/><path class="cls-15" d="M1214.25,795.21c0,13.41-7.07,16.49-15.79,16.49s-15.79-3.08-15.79-16.49,15.79-32.08,15.79-32.08S1214.25,781.8,1214.25,795.21Z"/><path class="cls-15" d="M1115.53,653.12c0,13.41-7.07,16.49-15.79,16.49S1084,666.53,1084,653.12,1099.74,621,1099.74,621,1115.53,639.71,1115.53,653.12Z"/><path class="cls-15" d="M1232.07,653.12c0,13.41-7.07,16.49-15.79,16.49s-15.8-3.08-15.8-16.49,15.8-32.08,15.8-32.08S1232.07,639.71,1232.07,653.12Z"/><path class="cls-15" d="M1280.8,727.55c0,13.41-7.07,16.49-15.79,16.49s-15.8-3.08-15.8-16.49,15.8-32.08,15.8-32.08S1280.8,714.13,1280.8,727.55Z"/><path class="cls-15" d="M1321.27,649.73c0,13.41-7.07,16.49-15.8,16.49s-15.79-3.08-15.79-16.49,15.79-32.08,15.79-32.08S1321.27,636.32,1321.27,649.73Z"/><path class="cls-15" d="M1320.11,795.86c0,13.41-7.07,16.49-15.79,16.49s-15.8-3.08-15.8-16.49,15.8-32.08,15.8-32.08S1320.11,782.44,1320.11,795.86Z"/><path class="cls-15" d="M1169.72,596.55c0,13.42-7.07,16.49-15.79,16.49s-15.79-3.07-15.79-16.49,15.79-32.08,15.79-32.08S1169.72,583.14,1169.72,596.55Z"/><path class="cls-15" d="M1281,592.83c0,13.41-7.07,16.49-15.79,16.49s-15.8-3.08-15.8-16.49,15.8-32.08,15.8-32.08S1281,579.41,1281,592.83Z"/><path class="cls-15" d="M1226.12,553.07l-62.84-1.41a18.46,18.46,0,0,1-18.06-18.88l.26-11.67a18.48,18.48,0,0,1,18.89-18.06l62.84,1.41a18.48,18.48,0,0,1,18.06,18.89L1245,535A18.48,18.48,0,0,1,1226.12,553.07Z"/><polygon class="cls-10" points="1220.62 552.95 1224.97 553.05 1224.97 504.41 1220.62 504.31 1220.62 552.95"/><polygon class="cls-10" points="1206.76 552.64 1211.11 552.74 1211.11 504.1 1206.76 504 1206.76 552.64"/><path class="cls-10" d="M1234.48,551.2a18.64,18.64,0,0,0,4.35-2.87V509a18.37,18.37,0,0,0-4.35-2.88Z"/><polygon class="cls-10" points="1165.19 551.71 1169.54 551.8 1169.54 503.17 1165.19 503.07 1165.19 551.71"/><polygon class="cls-10" points="1192.9 552.33 1197.25 552.43 1197.25 503.79 1192.9 503.69 1192.9 552.33"/><path class="cls-10" d="M1151.33,546.82a18.44,18.44,0,0,0,4.35,3V505.1a18.57,18.57,0,0,0-4.35,3Z"/><polygon class="cls-10" points="1179.05 552.02 1183.39 552.12 1183.39 503.48 1179.05 503.38 1179.05 552.02"/><line class="cls-13" x1="1234.17" y1="552.6" x2="1157.38" y2="551.74"/><path class="cls-10" d="M1017.27,654.88s-29.09-91-27.5-111.88,12.2-58.24,3.87-60.3c-8.66-2.15-15.67,25-15.67,25s-.17-44.61-11.2-46.51c-11.75-2-8.23,35.83-8.23,35.83s.33-35.91-8.48-35.92c-10.64,0-7.67,37.09-7.67,37.09s-1.09-36.72-9.71-35.75c-11.67,1.32-6,38.3-6,38.3s-2.21-34.43-9.6-33.67-9.86,16.73-8.62,63.11c.4,15.11,4,36,7.69,55.1,7.33,38.33,16.2,76.9,17.09,86.55.17,1.76,2.48-1,17.84-4.08C978.87,662.2,1017.27,654.88,1017.27,654.88Z"/><path class="cls-13" d="M966.8,521.13A19.44,19.44,0,0,1,978,507.7s6.17-26.15,14.26-25.32,3.84,14.46,2.09,26.49-5,32.3-4.45,41c1.15,18.67,27.41,105,27.4,105l-84.07,17s-18.91-92.65-22.29-116.22c-3.44-23.92-5.55-57.15-2.35-73,1.61-7.94,2-16.29,9-15.48,9.22,1.08,9.33,42.44,9.33,42.44"/><path class="cls-13" d="M925.52,487.59s-2.85-24.15,6.34-25c10.31-1,8.52,14.3,11.51,46"/><path class="cls-13" d="M942,491.26s-2.1-30.62,8.06-30.16c8.82.41,9.11,28.28,9.07,47.32"/><path class="cls-13" d="M958.72,487s-2-24.55,6.36-25.53c10.8-1.26,11.76,27.6,12.72,44.43"/><path class="cls-10" d="M1044.41,784.09c-46.33,33.42-100.31,7.78-113.71-26.25C916.54,721.88,919,623.15,919,623.15l90.69-13.83,30.14,78.79,11.49,84.56S1047,782.21,1044.41,784.09Z"/><path class="cls-15" d="M1009.67,609.32,919,623.15s-.28,11.18-.1,27.37l100.2-16.6Z"/><polygon class="cls-10" points="933.86 648.04 940.18 646.99 936.81 620.43 930.48 621.39 933.86 648.04"/><polygon class="cls-10" points="958.51 617.12 952.18 618.08 955.62 644.43 961.94 643.39 958.51 617.12"/><polygon class="cls-10" points="978.33 614.1 972 615.06 976.66 640.95 982.97 639.91 978.33 614.1"/><polygon class="cls-10" points="991.95 612.02 998.52 637.33 1004.86 636.28 998.31 611.05 991.95 612.02"/><path class="cls-15" d="M1001.29,735.22c0,13.41-7.07,16.49-15.8,16.49s-15.79-3.08-15.79-16.49,15.79-32.08,15.79-32.08S1001.29,721.81,1001.29,735.22Z"/><path class="cls-15" d="M1043.22,674c0,13.41-7.07,16.49-15.8,16.49s-15.79-3.08-15.79-16.49,15.79-32.08,15.79-32.08S1043.22,660.56,1043.22,674Z"/><path class="cls-15" d="M967.7,793.5c-2-13-15.52-29-15.52-29A106.19,106.19,0,0,0,943.41,777,74.75,74.75,0,0,0,967.7,793.5Z"/><path class="cls-15" d="M919.35,672.09c.44,13,1.23,27.21,2.57,40.68a30,30,0,0,0,3.19.16c8.72,0,15.79-3.08,15.79-16.49s-15.79-32.08-15.79-32.08S922.47,667.49,919.35,672.09Z"/><path class="cls-15" d="M1051.3,772.67l-4.39-32.27c-3.71,4.72-14.53,19.41-14.53,30.52,0,9.18,3.31,13.52,8.2,15.34l5.61-4.17A70.69,70.69,0,0,0,1051.3,772.67Z"/><path class="cls-13" d="M1052.17,777.87c-47.87,42.5-107.32,15.92-121.47-20S919,623.15,919,623.15l90.69-13.83,29.06,76.87"/><path class="cls-6" d="M1244.13,327.4a76.31,76.31,0,0,0-18.63-3.47c-14.12-.35-61,2.54-71.68,34.38s4.14,58.82,4.14,58.82l.06-7.88c4.25,4.81,18.62,13.84,18.62,13.84l1.83-15.41s57.71-.12,60.59-30.81c.1-1-2.34,24.27,17.89,30.85,0,0-5-11.92-2.46-21.22,0,0,.29,18.45,13.4,23.1l2,14.56s6.24-6.34,8.69-19.54l.91,12.66s15.3-15.51,9.84-47.81c-4-23.94-27-36.57-45.19-42.07"/></g></svg>