<?xml version="1.0" standalone="no"?>
<!DOCTYPE svg PUBLIC "-//W3C//DTD SVG 20010904//EN"
 "http://www.w3.org/TR/2001/REC-SVG-20010904/DTD/svg10.dtd">
<svg version="1.0" xmlns="http://www.w3.org/2000/svg"
 width="200.000000pt" height="200.000000pt" viewBox="0 0 200.000000 200.000000"
 preserveAspectRatio="xMidYMid meet">

<g transform="translate(0.000000,200.000000) scale(0.100000,-0.100000)"
fill="#000000" stroke="none">
<path d="M972 1908 c-9 -9 -12 -113 -12 -407 l0 -395 -133 132 c-74 73 -137
132 -141 132 -19 0 -46 -22 -46 -38 0 -9 81 -98 180 -197 l180 -180 180 180
c99 99 180 187 180 195 0 20 -19 40 -39 40 -8 0 -74 -59 -148 -132 l-133 -132
0 395 c0 408 -1 419 -40 419 -9 0 -21 -5 -28 -12z"/>
<path d="M639 1845 c-392 -168 -621 -594 -543 -1005 31 -164 101 -315 200
-430 406 -474 1135 -428 1475 94 199 305 196 693 -6 1001 -95 145 -248 274
-402 339 -74 31 -109 33 -118 7 -10 -33 5 -48 74 -75 99 -39 209 -115 290
-202 257 -275 303 -663 118 -994 -57 -102 -205 -250 -307 -307 -267 -149 -573
-149 -840 0 -51 29 -105 72 -170 137 -65 65 -108 119 -137 170 -253 452 -60
1005 419 1200 58 24 74 43 62 74 -9 23 -49 20 -115 -9z"/>
</g>
</svg>
