<svg xmlns="http://www.w3.org/2000/svg" xmlns:xlink="http://www.w3.org/1999/xlink" viewBox="0 0 800 800"><defs><style>.cls-1,.cls-11,.cls-14,.cls-26,.cls-28{fill:none;}.cls-2{isolation:isolate;}.cls-3{fill:#4f7cad;}.cls-4{fill:#88bd24;}.cls-5{fill:#5059a4;}.cls-6{fill:#08909f;}.cls-7{fill:#46b593;}.cls-8{fill:#0fa0c0;}.cls-12,.cls-13,.cls-24,.cls-25,.cls-29,.cls-9{fill:#fff;}.cls-11,.cls-12,.cls-13,.cls-14,.cls-15,.cls-24,.cls-25,.cls-26,.cls-28,.cls-30,.cls-9{stroke:#1c1d3e;}.cls-11,.cls-13,.cls-14,.cls-15,.cls-25,.cls-26,.cls-30,.cls-9{stroke-linecap:round;}.cls-11,.cls-13,.cls-15,.cls-25,.cls-26,.cls-30,.cls-9{stroke-linejoin:round;}.cls-11,.cls-12,.cls-9{stroke-width:1.85px;}.cls-10,.cls-15{fill:#1c1d3e;}.cls-12,.cls-14,.cls-24,.cls-28{stroke-miterlimit:10;}.cls-13{stroke-width:2.27px;}.cls-14{stroke-width:3.71px;}.cls-15{stroke-width:1.87px;}.cls-16{fill:#505ea8;}.cls-17{clip-path:url(#clip-path);}.cls-18{clip-path:url(#clip-path-2);}.cls-19{clip-path:url(#clip-path-3);}.cls-20{clip-path:url(#clip-path-4);}.cls-21{clip-path:url(#clip-path-5);}.cls-22{clip-path:url(#clip-path-6);}.cls-23{clip-path:url(#clip-path-7);}.cls-24,.cls-25,.cls-26,.cls-28{stroke-width:1.99px;}.cls-27{fill:#e71d73;}.cls-30{fill:#00a19a;stroke-width:1.99px;}.cls-31{mix-blend-mode:multiply;opacity:0.75;}.cls-32{opacity:0.7;}.cls-33{fill:#b2b2b2;}</style><clipPath id="clip-path"><path class="cls-1" d="M563.9,652.11s1.19,44.49,7.12,70.94c42.67,5.29,71-23.65,71-23.65s-6.35-42.74-7.69-42.53-60.77-17.21-60.77-17.21Z"/></clipPath><clipPath id="clip-path-2"><path class="cls-1" d="M647.73,619.08l6.7-67.28s54.24,12.17,54.24,14.27,22.87,31,18.91,44.34-40.85,23.83-42.48,23.82S647.73,619.08,647.73,619.08Z"/></clipPath><clipPath id="clip-path-3"><path class="cls-1" d="M653.94,746.26l8.37,80.6s-46.37-20.26-46.38-23.37-10-43.25-9-43.56,30.5-13.67,30.5-13.67Z"/></clipPath><clipPath id="clip-path-4"><path class="cls-1" d="M449.55,534.88c.12,1.24,16.41,77.41,16.41,77.41s-47.3-20.26-47.31-23.37-10-43.25-9-43.56,30.49-13.67,30.49-13.67Z"/></clipPath><clipPath id="clip-path-5"><path class="cls-1" d="M455.51,802.71s23.83-45.64,26.47-71.48c.19-.86-61.92-9-61.92-9l-8,53.67Z"/></clipPath><clipPath id="clip-path-6"><path class="cls-1" d="M399.84,548.24l7.54,75.58-52.59-14.4s-22.72-10.53-22.72-13,2.75-31.74,4.65-34.23S356,542.57,356,542.57Z"/></clipPath><clipPath id="clip-path-7"><path class="cls-1" d="M744.68,709.52S738.16,764,737.07,768s16.79,15.87-9,6.69-65.19-21.32-64.26-27.7,15.56-44.81,17.9-47.76,31.89-7.94,35.94-5.6S744.68,709.52,744.68,709.52Z"/></clipPath></defs><g class="cls-2"><g id="Layer_1" data-name="Layer 1"><path class="cls-3" d="M139.52,280c-19.27,0-16.74-16-31.6-16a16,16,0,0,0-16,16v59.7a19.83,19.83,0,0,0,19.78,19.77h59.69a16,16,0,0,1,16,16c0,14.93-16,12.22-16,31.59a23.81,23.81,0,0,0,47.61,0c0-19.27-16-16.73-16-31.59a16,16,0,0,1,16-16h59.7a19.83,19.83,0,0,0,19.77-19.77V280a16,16,0,0,0-16-16c-14.93,0-12.22,16-31.59,16a23.8,23.8,0,1,1,0-47.6c19.27,0,16.73,16,31.59,16a16,16,0,0,0,16-16v-59.7a19.83,19.83,0,0,0-19.77-19.78H219a16,16,0,0,1-16-16c0-14.93,16-12.22,16-31.59a23.81,23.81,0,1,0-47.61,0c0,19.26,16,16.73,16,31.59a16,16,0,0,1-16,16H111.69a19.84,19.84,0,0,0-19.78,19.78v59.7a16,16,0,0,0,16,16c14.93,0,12.21-16,31.6-16a23.8,23.8,0,0,1,0,47.6Z"/><path class="cls-4" d="M44.27,486.53c19.27,0,16.74-16,31.6-16a16,16,0,0,1,16,16v59.7A19.84,19.84,0,0,0,111.66,566h59.7a16,16,0,0,0,16-16c0-14.92-16-12.21-16-31.59a23.81,23.81,0,0,1,47.61,0c0,19.26-16,16.74-16,31.59a16,16,0,0,0,16,16h59.7a19.83,19.83,0,0,0,19.77-19.78v-59.7a16,16,0,0,1,16-16c14.93,0,12.22,16,31.59,16a23.8,23.8,0,0,0,0-47.6c-19.27,0-16.74,16-31.59,16a16,16,0,0,1-16-16v-59.7a19.83,19.83,0,0,0-19.77-19.78H219a16,16,0,0,0-16,16c0,14.93,16,12.21,16,31.59a23.81,23.81,0,0,1-47.61,0c0-19.27,16-16.74,16-31.59a16,16,0,0,0-16-16h-59.7a19.84,19.84,0,0,0-19.78,19.78v59.7a16,16,0,0,1-16,16c-14.91,0-12.24-16-31.6-16a23.8,23.8,0,0,0,0,47.6Z"/><path class="cls-5" d="M552.62,280c-19.27,0-16.73-16-31.59-16a16,16,0,0,0-16,16v59.7a19.83,19.83,0,0,0,19.77,19.77h59.7a16,16,0,0,1,16,16c0,14.82-16,12.68-16,31.59a23.81,23.81,0,0,0,47.61,0c0-18.84-16-16.82-16-31.59a16,16,0,0,1,16-16h59.69a19.83,19.83,0,0,0,19.78-19.77V280a16,16,0,0,0-16-16C680.73,264,683,280,664,280a23.81,23.81,0,1,1,0-47.61c19,0,16.76,16,31.59,16a16,16,0,0,0,16-16v-59.7a19.84,19.84,0,0,0-19.78-19.78H632.1a16,16,0,0,1-16-16c0-14.93,16-12.6,16-31.6a23.81,23.81,0,0,0-47.61,0c0,18.84,16,16.82,16,31.6a16,16,0,0,1-16,16h-59.7A19.83,19.83,0,0,0,505,172.68v59.69a16,16,0,0,0,16,16c14.93,0,12.22-16,31.59-16a23.81,23.81,0,1,1,0,47.61Z"/><path class="cls-6" d="M250.86,280c19.26,0,16.73-16,31.59-16a16,16,0,0,1,16,16v59.7a19.83,19.83,0,0,0,19.78,19.77h59.7a16,16,0,0,0,16-16c0-14.93-16-12.22-16-31.59a23.8,23.8,0,1,1,47.6,0c0,19.27-16,16.73-16,31.59a16,16,0,0,0,16,16h59.7A19.83,19.83,0,0,0,505,339.68V280a16,16,0,0,1,16-16c14.93,0,12.22,16,31.59,16a23.81,23.81,0,1,0,0-47.61c-19.27,0-16.73,16-31.59,16a16,16,0,0,1-16-16V172.68a19.84,19.84,0,0,0-19.78-19.78h-59.7a16,16,0,0,0-16,16c0,14.93,16,12.22,16,31.6a23.8,23.8,0,0,1-47.6,0c0-19.27,16-16.74,16-31.6a16,16,0,0,0-16-16h-59.7a19.84,19.84,0,0,0-19.78,19.78v59.69a16,16,0,0,1-16,16c-14.93,0-12.21-16-31.59-16a23.81,23.81,0,1,0,0,47.61Z"/><path class="cls-7" d="M346.07,486.53c-19.27,0-16.74-16-31.59-16a16,16,0,0,0-16,16v59.7A19.84,19.84,0,0,0,318.24,566h59.7a16,16,0,0,1,16,16c0,14.94-16,12.21-16,31.59a23.8,23.8,0,1,0,47.6,0c0-19.27-16-16.73-16-31.59a16,16,0,0,1,16-16h59.7A19.84,19.84,0,0,0,505,546.23v-59.7a16,16,0,0,0-16-16c-14.93,0-12.21,16-31.59,16a23.8,23.8,0,0,1,0-47.6c19.27,0,16.74,16,31.59,16a16,16,0,0,0,16-16v-59.7a19.84,19.84,0,0,0-19.78-19.78h-59.7a16,16,0,0,1-16-16c0-14.93,16-12.22,16-31.59a23.8,23.8,0,0,0-47.6,0c0,19.27,16,16.73,16,31.59a16,16,0,0,1-16,16h-59.7a19.84,19.84,0,0,0-19.78,19.78v59.7a16,16,0,0,0,16,16c14.9,0,12.23-16,31.59-16a23.8,23.8,0,1,1,0,47.6Z"/><path class="cls-8" d="M457.41,486.53c19.27,0,16.74-16,31.59-16a16,16,0,0,1,16,16v59.7A19.83,19.83,0,0,0,524.79,566h59.7a16,16,0,0,0,16-16c0-14.85-16-12.64-16-31.59a23.81,23.81,0,0,1,47.61,0c0,18.86-16,16.82-16,31.59a16,16,0,0,0,16,16h59.69a19.84,19.84,0,0,0,19.78-19.78v-59.7a16,16,0,0,1,16-16c14.93,0,12.22,16,31.6,16a23.8,23.8,0,1,0,0-47.6c-19.27,0-16.74,16-31.6,16a16,16,0,0,1-16-16v-59.7a19.84,19.84,0,0,0-19.78-19.78H632.1a16,16,0,0,0-16,16c0,14.93,16,12.59,16,31.59a23.81,23.81,0,0,1-47.61,0c0-18.92,16-16.79,16-31.59a16,16,0,0,0-16-16h-59.7A19.83,19.83,0,0,0,505,379.23v59.7a16,16,0,0,1-16,16c-14.93,0-12.21-16-31.59-16a23.8,23.8,0,0,0,0,47.6Z"/><path class="cls-9" d="M688.48,815.67s-.11.84-.35,2.35c-1.67,10.57-9.22,53.48-23.73,64.46-16.58,12.54-39.09-57.8-39.09-57.8s15.79-54.84,28.43-54.41S681.94,784,688.48,815.67Z"/><path class="cls-9" d="M622.15,799.45s39.88,56.87,50.14,77.23-27.63,28.54-30.59,25.54-40.87-94-37.91-106.56S613.46,791.17,622.15,799.45Z"/><path class="cls-9" d="M693.22,848.93s49-37.33,51.33-150.37S716.91,523.5,678.22,468.84s-133.44-85.51-145.69-87.07-8,292.2-3.81,312.73S693.22,848.93,693.22,848.93Z"/><path class="cls-9" d="M528.72,694.5c4.2,20.53,164.5,154.43,164.5,154.43"/><path class="cls-9" d="M652.16,647.29s34.14-1.21,63.17,9.57"/><path class="cls-9" d="M665.39,634.23a96.42,96.42,0,0,1,42.14-1.17"/><path class="cls-9" d="M366.15,815.67s.12.84.35,2.35c1.67,10.57,9.22,53.48,23.73,64.46,16.59,12.54,39.09-57.8,39.09-57.8s-15.79-54.84-28.43-54.41S372.69,784,366.15,815.67Z"/><path class="cls-9" d="M432.48,799.45s-39.88,56.87-50.14,77.23,27.63,28.54,30.6,25.54,40.86-94,37.9-106.56S441.17,791.17,432.48,799.45Z"/><path class="cls-9" d="M361.41,848.93s-49-37.33-51.33-150.37,27.64-175.06,66.33-229.72,133.44-85.51,145.69-87.07,8,292.2,3.81,312.73S361.41,848.93,361.41,848.93Z"/><path class="cls-9" d="M525.91,694.5c-4.2,20.53-164.5,154.43-164.5,154.43"/><path class="cls-9" d="M402.47,647.29s-34.14-1.21-63.17,9.57"/><path class="cls-9" d="M389.25,634.23a96.48,96.48,0,0,0-42.15-1.17"/><polygon class="cls-10" points="410.21 750.27 412.7 843.2 377.35 895.02 665.38 895.02 625.31 752.34 410.21 750.27"/><path class="cls-9" d="M432.83,760H606.16s10.13-341.75-38.5-366.56-128.34-6.22-152,121.12S432.83,760,432.83,760Z"/><line class="cls-11" x1="529.82" y1="400.23" x2="524.46" y2="757.73"/><polygon class="cls-9" points="573.94 397.13 557.59 375.94 533.32 375.94 525.4 375.94 501.13 375.94 480.32 396.48 496.85 444.35 529.36 416.72 561.87 444.35 573.94 397.13"/><path class="cls-10" d="M477.3,328.48c-2.92.51-16.36-26.78-17.32-49.38s7.94-72.83,69.18-67.21c20.88,1.92,67.35,2.22,67.17,56.41-.18,54.64-24.46,85.88-29.91,88.86S522.07,320.75,477.3,328.48Z"/><rect class="cls-12" x="500.13" y="338.76" width="56.85" height="69.32" rx="22.97"/><ellipse class="cls-12" cx="587.72" cy="324.68" rx="14.91" ry="15.51" transform="translate(-1.46 2.65) rotate(-0.26)"/><path class="cls-11" d="M579.61,326.55s-.44-10.55,9.85-9.15"/><path class="cls-12" d="M454.49,324.2c-.17,8.56,6.36,15.65,14.6,15.84s15.05-6.61,15.23-15.17S478,309.22,469.72,309,454.67,315.64,454.49,324.2Z"/><path class="cls-11" d="M477.43,326.76s.87-10.51-9.47-9.57"/><path class="cls-12" d="M575.65,336.58c0,19.1-14.95,34.72-33.18,34.69l-28,0c-18.23,0-33.13-15.67-33.11-34.78l.07-61.36c0-19.1,14.95-34.72,33.18-34.7l28,0c18.22,0,33.12,15.67,33.1,34.78Z"/><path class="cls-13" d="M512.17,335c1,5.76,7.92,10.24,16.36,10.25s15.35-4.45,16.39-10.21Z"/><path class="cls-11" d="M528.15,298.76q-2.31,10.44-4.44,20.92,4.41.19,8.82.42"/><path class="cls-10" d="M503.75,305a4.39,4.39,0,1,1-4.46-4.51A4.51,4.51,0,0,1,503.75,305Z"/><path class="cls-10" d="M563,305a4.39,4.39,0,1,1-4.46-4.51A4.49,4.49,0,0,1,563,305Z"/><path class="cls-14" d="M493.08,295.77l12.29-.79"/><path class="cls-14" d="M552.29,294l13.27,3.54"/><path class="cls-9" d="M398.35,533.24l11.23,112.68L389.25,841.77s59.81,3.3,84.69-79c14.53-48,17.94-96.2,16.51-128.58-4.89-111-11.44-237-11.44-237s-37.45,16.18-49.69,34.34S398.35,533.24,398.35,533.24Z"/><path class="cls-11" d="M479,396.37s6.6,126.84,11.49,237.86c1.43,32.38-2,80.54-16.51,128.58-24.88,82.26-84.69,79-84.69,79l20.33-195.85L398.35,533.24"/><path class="cls-11" d="M477,650.48c-1.87-2.37-29.7-125.56-29.7-125.56l14.85-3L444.92,427.2"/><path class="cls-9" d="M656.28,533.24,645.05,645.92l20.34,195.85s-59.82,3.3-84.7-79c-14.53-48-17.94-96.2-16.51-128.58,4.89-111,11.44-237,11.44-237s37.45,16.18,49.69,34.34S656.28,533.24,656.28,533.24Z"/><path class="cls-11" d="M575.67,396.37s-6.6,126.84-11.49,237.86c-1.43,32.38,2,80.54,16.51,128.58,24.88,82.26,84.7,79,84.7,79L645.05,645.92l11.23-112.68"/><path class="cls-11" d="M577.64,650.48c1.87-2.37,29.7-125.56,29.7-125.56l-14.85-3,17.22-94.76"/><path class="cls-15" d="M578.76,285a16.61,16.61,0,0,1,9.78-3.55A18.74,18.74,0,0,1,582.59,270c-4,7.86-13.83,12-23.62,9.47a22.21,22.21,0,0,1-10.76-6.42,22.43,22.43,0,0,1-8.85-.49,21.62,21.62,0,0,1-13.71-10.64,22.64,22.64,0,0,1-4.91-.67,24,24,0,0,1-3.87-1.4C513.6,268.42,504,273.29,494,271.34a17.06,17.06,0,0,1-.34,2.35c-2.64,10.08-13.81,15.9-25,13a22.14,22.14,0,0,1-11.12-6.87,22.69,22.69,0,0,1-8.51-.56c-11.15-2.92-18.06-13.45-15.43-23.53a17.25,17.25,0,0,1,1.55-3.84,17.58,17.58,0,0,1,6.56-25.71,17.28,17.28,0,0,1,.29-7.25c2.21-8.47,10.46-13.85,19.65-13.66a17.25,17.25,0,0,1,.08-8.14c2.64-10.09,13.81-15.9,25-13a22.71,22.71,0,0,1,6.86,3.12c.08-.42.08-.85.19-1.28,2.37-9.07,12.42-14.3,22.45-11.68a20.4,20.4,0,0,1,6.44,3c4.72-6,13.22-8.85,21.74-6.63a22,22,0,0,1,12.06,8A16.94,16.94,0,0,1,569,177.18c6.95,1.82,11.69,7.46,12.25,13.66a22.77,22.77,0,0,1,12.65-.27c11.43,3,18.51,13.78,15.82,24.11a17.84,17.84,0,0,1-5.38,8.66c8.5,3.12,13.59,11.49,11.47,19.59a15.24,15.24,0,0,1-6.81,9c9.63,3.47,15.43,12.93,13,22.08-2.17,8.34-10.39,13.61-19.47,13.23a14.2,14.2,0,0,1-6.76,23.68Z"/><path class="cls-16" d="M364.24,692.69A23.18,23.18,0,0,0,349.33,681c-12.43-3-25,4.89-27.92,17.72s4.74,25.74,17.18,28.79a22.62,22.62,0,0,0,20-4.71,23.21,23.21,0,0,0,14.91,11.7c12.43,3,25-4.9,27.92-17.72S396.67,691,384.24,688A22.63,22.63,0,0,0,364.24,692.69Z"/><g class="cls-17"><path class="cls-16" d="M596.5,669.22a23.14,23.14,0,0,0-14.9-11.7c-12.44-3-25,4.9-27.93,17.72S558.42,701,570.85,704a22.64,22.64,0,0,0,20-4.71,23.16,23.16,0,0,0,14.9,11.7c12.44,3.05,25-4.89,27.93-17.72s-4.74-25.74-17.18-28.79A22.64,22.64,0,0,0,596.5,669.22Z"/></g><g class="cls-18"><path class="cls-16" d="M673.36,576.63a23.13,23.13,0,0,0-14.9-11.69c-12.44-3.06-25,4.89-27.93,17.71s4.75,25.74,17.18,28.79a22.63,22.63,0,0,0,20-4.71,23.16,23.16,0,0,0,14.91,11.7c12.43,3.05,25-4.89,27.92-17.72S705.8,575,693.36,571.92A22.64,22.64,0,0,0,673.36,576.63Z"/></g><g class="cls-19"><path class="cls-16" d="M664.8,768.71A23.16,23.16,0,0,0,649.89,757c-12.43-3-25,4.89-27.92,17.72s4.74,25.74,17.18,28.79a22.64,22.64,0,0,0,20-4.71,23.17,23.17,0,0,0,14.9,11.7c12.44,3,25-4.9,27.93-17.72S697.23,767.05,684.8,764A22.6,22.6,0,0,0,664.8,768.71Z"/></g><g class="cls-20"><path class="cls-16" d="M472.6,565.34a23.15,23.15,0,0,0-14.9-11.69c-12.44-3.06-25,4.89-27.93,17.71s4.74,25.74,17.18,28.79a22.58,22.58,0,0,0,20-4.71,23.14,23.14,0,0,0,14.9,11.7c12.44,3.05,25-4.89,27.93-17.72S505,563.69,492.6,560.63A22.63,22.63,0,0,0,472.6,565.34Z"/></g><g class="cls-21"><path class="cls-16" d="M468.47,751.13a23.17,23.17,0,0,0-14.91-11.69c-12.43-3.06-25,4.89-27.92,17.71s4.74,25.74,17.18,28.8a22.64,22.64,0,0,0,20-4.71,23.13,23.13,0,0,0,14.9,11.69c12.44,3.06,25-4.89,27.93-17.71s-4.75-25.74-17.18-28.8A22.63,22.63,0,0,0,468.47,751.13Z"/></g><g class="cls-22"><path class="cls-16" d="M380.18,567a23.16,23.16,0,0,0-14.91-11.7c-12.43-3-25,4.89-27.92,17.72s4.74,25.73,17.18,28.79a22.64,22.64,0,0,0,20-4.71,23.13,23.13,0,0,0,14.9,11.69c12.44,3.06,25-4.89,27.93-17.71s-4.75-25.74-17.18-28.79A22.57,22.57,0,0,0,380.18,567Z"/></g><g class="cls-23"><path class="cls-16" d="M730.86,720.67A23.14,23.14,0,0,0,716,709c-12.44-3.05-25,4.89-27.93,17.71s4.75,25.74,17.18,28.8a22.63,22.63,0,0,0,20-4.71,23.17,23.17,0,0,0,14.91,11.69c12.43,3.06,25-4.89,27.92-17.71S763.3,719,750.86,716A22.61,22.61,0,0,0,730.86,720.67Z"/></g><path class="cls-24" d="M161.68,421.32c3.26,7.88,3.45,15.28,2,23.62a108.78,108.78,0,0,0-2,21.14c.25,12.29.94,25.09,4.7,36.88,3.68,11.55,13,19.75,21.84,27.5,4.9,4.26,9.84,8.61,15.51,11.83,6.1,3.46,12.81,5.63,19.54,7.49,7.39,2,14.65,3.71,22.35,3.83,8.09.13,16.13-1,24.08-2.39s16.08-3.06,24.21-4.08,16.08-1,24-2.71c28.64-6,51.3-32.95,56.71-61.16a65.17,65.17,0,0,0,.62-21.22c-1.13-8.13-3.66-16-5.77-23.89-2.16-8.16-3.65-16.37-2.83-24.84.77-8,2.84-15.8,4-23.75a67,67,0,0,0-7.57-43.27c-3.74-6.65-8.87-12.08-14-17.64a55.23,55.23,0,0,1-12.36-19.91c-4.81-14-5.61-29.28-13.33-42.26-7-11.76-18.26-20.41-30.21-26.71C280.35,233,264.75,226.9,250,229.69c-7.7,1.45-13.58,5.69-19.79,10.17-5.63,4.06-13,1.45-19.9-2.28a2.51,2.51,0,0,0-4.23-1.74,42.79,42.79,0,0,0-10.34,16.31c-5.22,14.25-4.49,29.42-6.29,44.26-1,8.1-2.87,15.94-6.73,23.17-3.75,7-8.76,13.24-13.44,19.63-8.87,12.08-16.84,25.81-18.72,40.93a46.85,46.85,0,0,0,1.83,20.57C154.71,407.9,158.79,414.35,161.68,421.32Z"/><path class="cls-25" d="M239.86,827.15l-2.18-429.52,33.11-3.91c14.37-1.07,21.55-.15,34.52,3.7l7.47,10.12L363.14,818Z"/><path class="cls-26" d="M303.28,406.59c-2.37,15.45-41,23.4-58.7,5"/><path class="cls-27" d="M357.64,818.4,304.8,396.47s62.23,3.9,115.1,119.95c40.36,88.61,52.23,221.93,56.84,292.9Z"/><path class="cls-27" d="M236.39,396.48l2.72-.2L244.37,827l-81,6.17-24.61-323A106,106,0,0,1,236.39,396.48Z"/><path class="cls-27" d="M313.12,398a106,106,0,0,1,74.47,93.24l24.62,323-56.73,4.32Z"/><polyline class="cls-28" points="391.01 536.15 412.21 814.24 163.37 833.2 143.45 571.75"/><polyline class="cls-26" points="321.67 401.76 348.5 486.11 333.93 491.05 353.44 501.63 351.89 605.63"/><polyline class="cls-26" points="226.71 398.3 205.7 492.32 226.78 494.86 201.79 509.82 223.47 620.61"/><path class="cls-24" d="M229,303.51a21.69,21.69,0,0,1,13,2.94l-1.13-13c-1.81-20.64,11.55-38.83,29.68-40.42l27.27-2.38c18.13-1.59,34.44,14,36.25,34.64l3.7,42.28c1.8,20.64-11.55,38.83-29.68,40.42l-15.77,1.38,2,22.77a17.1,17.1,0,0,1-15.49,18.47l-10.82.94A17.09,17.09,0,0,1,249.56,396l-2.25-25.74-.12-1.43-2.26-25.73c0-.52,0-1,0-1.54A21.68,21.68,0,1,1,229,303.51Z"/><path class="cls-26" d="M242.91,326.86s-.32-14.71-15.2-11.77"/><path class="cls-10" d="M280.73,303.86a6.17,6.17,0,1,0,5.61-6.68A6.17,6.17,0,0,0,280.73,303.86Z"/><path class="cls-10" d="M320.9,299.44a5.27,5.27,0,1,0,4.79-5.71A5.27,5.27,0,0,0,320.9,299.44Z"/><polyline class="cls-26" points="307.5 318.34 317.82 310.74 306.87 295.38"/><line class="cls-26" x1="276.12" y1="295.69" x2="286.3" y2="290.54"/><line class="cls-26" x1="320.86" y1="288.15" x2="331.09" y2="288.75"/><path class="cls-26" d="M320.5,332.56a9.5,9.5,0,0,1-18.92,1.66"/><path class="cls-29" d="M338.33,240.46a82.68,82.68,0,0,0-135.18-2.24S193,266,193,280.77c-.06,11.89,14.33,26.8,19.94,32.16A21.88,21.88,0,0,1,242,306.45s1.81,1.78,3.93,4.28c1.71-1.17,3.19-3,5-4,2.53-1.36,5.6-1.16,8.38-1.91,5.61-1.51,9.4-6.7,12-11.88a66.43,66.43,0,0,0,7.14-31.12l1.46,0c7.24,8.61,15.2,17.69,26.1,20.49,4.53,1.16,9.27,1.14,13.95,1.11l14.9-.1c2.17,0,4.44-.05,6.36-1.05,2.47-1.3,3.91-4,4.79-6.63C350,263.88,345.35,250.78,338.33,240.46Z"/><path class="cls-26" d="M212.89,312.93A21.88,21.88,0,0,1,242,306.45s1.81,1.78,3.93,4.28c1.71-1.17,3.19-3,5-4,2.53-1.36,5.6-1.16,8.38-1.91,5.61-1.51,9.4-6.7,12-11.88a66.43,66.43,0,0,0,7.14-31.12s16.66,17.73,27.56,20.53c4.53,1.16,9.27,1.14,13.95,1.11l14.9-.1c2.17,0,4.44-.05,6.36-1.05,2.47-1.3,3.91-4,4.79-6.63,3.91-11.85-.77-25-7.79-35.27a82.68,82.68,0,0,0-135.18-2.24s-6.19,7-9.92,22.21"/><path class="cls-27" d="M183.37,637.06C181.63,762.13,178.79,874,178.79,874S55.78,931.36,51,854s.49-237.43,52.81-351c21.49-46.62,52.29-73.27,81.24-88.7Z"/><path class="cls-30" d="M178.79,827.15l233.85-12.91,5.77,56.15L178.79,874s2.85-111.82,4.59-236.89"/><rect class="cls-31" x="-0.85" y="-0.94" width="801.7" height="801.87"/><g class="cls-32"><path class="cls-33" d="M586,487.11q-.25,13.78-.52,27.56c0,1.54,0,3.09,0,5.08h-4.64c-38.16,0-76.31-.18-114.46.18-16.24.15-32.34,2.21-47.32,9.29-3.36,1.59-6.58,3.5-9.85,5.25-3.9-12.74,4.22-27.62,18-32.76,12.6-4.69,25.82-5,39-5.07,29.19-.16,58.38-.05,87.57-.05,8.77,0,11.41-2.67,11.41-11.55V303.14H586Z"/><path class="cls-33" d="M391,493.08c-2.92-1.22-5.6-2-7.94-3.39-6.75-4-14.45-4.12-21.7-4.55-17.14-1-34.36-.88-51.54-1-17.93-.13-35.86,0-53.8,0h-4.23V264.94c1-.07,2.06-.2,3.11-.2,26.17,0,52.34-.09,78.51,0,25.6.1,46.59,14.77,54.64,38.44A52.4,52.4,0,0,1,391,319.51c.22,57.32.15,114.63.15,172C391.13,491.94,391.05,492.41,391,493.08Z"/><path class="cls-33" d="M548.07,480h-4.54c-31.5,0-63-.26-94.49.16-9.11.12-18.27,1.82-27.25,3.57-4.21.82-8.05,3.49-12.43,5.49v-2.68q-.36-82.33-.7-164.67c-.07-24.9,14.84-46,38.3-53.88a61.48,61.48,0,0,1,18.49-3.1c26.77-.33,53.55-.15,80.32-.14.7,0,1.4.11,2.3.18Z"/><path class="cls-33" d="M391.39,535.32c-11.67-8.71-24.31-12.43-37.45-13.9a368.57,368.57,0,0,0-38-2.13c-32.46-.29-64.93-.1-97.39-.1H214V303.37h20.34c.07,1.45.2,3,.2,4.46q0,87.78,0,175.56c0,1.09,0,2.18,0,3.27.13,7.13,3.6,10.57,10.84,10.58,28.83,0,57.67-.11,86.5.08A222,222,0,0,1,358.68,499a65.79,65.79,0,0,1,16.61,4.76c9.1,3.78,14.19,11,15.3,20.83C391,527.78,391.08,531,391.39,535.32Z"/></g></g></g></svg>