<svg id="Layer_1" data-name="Layer 1" xmlns="http://www.w3.org/2000/svg" xmlns:xlink="http://www.w3.org/1999/xlink" viewBox="0 0 800 800"><defs><style>.cls-1,.cls-11,.cls-5{fill:none;}.cls-2{clip-path:url(#clip-path);}.cls-3{fill:#1d1d1b;}.cls-4{fill:#00a19a;}.cls-11,.cls-4,.cls-5,.cls-6,.cls-8,.cls-9{stroke:#1c1d3e;}.cls-11,.cls-4,.cls-5,.cls-6,.cls-9{stroke-linecap:round;}.cls-4,.cls-5,.cls-6,.cls-9{stroke-linejoin:round;}.cls-4,.cls-5,.cls-6,.cls-8{stroke-width:1.94px;}.cls-6,.cls-8,.cls-9{fill:#fff;}.cls-7{fill:#82368c;}.cls-11,.cls-8{stroke-miterlimit:10;}.cls-9{stroke-width:2.38px;}.cls-10{fill:#1c1d3e;}.cls-11{stroke-width:3.87px;}</style><clipPath id="clip-path"><path class="cls-1" d="M159.25,608.6s-21.09,109,266.92,102.86S677.66,591.63,677.66,591.63L696.17,69.11,206.56,150.36l-82.8,601.21Z"/></clipPath></defs><g class="cls-2"><path class="cls-3" d="M345.44,234.56S333.83,215,337,186.88c5.13-46.23,56.89-49.89,63.24-49.89,4.69,0,14.23,4.08,14.23,4.08a48.34,48.34,0,0,1,15.94,1.33c16.62,4.84,29.36,17,31.69,34.72,3.62,27.48-6.47,65.15-7.38,69.54S362.75,265.09,345.44,234.56Z"/><path class="cls-4" d="M628,645.67C625.56,763.76,586.8,720,586.8,720s-16.63,12-42.86,4.46c-62.61-18-138.31-68-141.38-83-4.38-21.45-8.82-328.34,4-326.71s111.77,33.85,152.19,90.95S630.51,527.59,628,645.67Z"/><path class="cls-5" d="M402.56,641.43c3.09,15.14,93.05,41.09,142.41,83.4"/><path class="cls-5" d="M531.51,592.12s35.67-1.27,66,10"/><path class="cls-5" d="M545.33,578.47a100.64,100.64,0,0,1,44-1.22"/><path class="cls-4" d="M399.62,641.44c-2.88,14.08-58.23,30.77-111.54,71.73-27.87,21.42-71.75,12.18-71.75,12.18s-39.7,38.41-42.18-79.68,28.87-182.87,69.29-240,139.41-89.32,152.2-90.95S404,620,399.62,641.44Z"/><path class="cls-6" d="M434.21,614.42c-4.38,21.45-171.85,91-171.85,91"/><path class="cls-5" d="M270.67,592.12s-35.67-1.27-66,10"/><path class="cls-5" d="M256.85,578.47a100.64,100.64,0,0,0-44-1.22"/><path class="cls-6" d="M302.38,710.08H519.2s-25.16-357.24-76-383.16-134.07-6.5-158.82,126.53S302.38,710.08,302.38,710.08Z"/><line class="cls-5" x1="403.7" y1="334.01" x2="398.11" y2="707.49"/><path class="cls-7" d="M421,353.27a5.11,5.11,0,0,0-4.29-2l-13.93.52-13.94-.52a5.11,5.11,0,0,0-5.16,6.4l6,22.91a5.14,5.14,0,0,0,5,3.82h16.22a5.13,5.13,0,0,0,5-3.82l6-22.91A5.08,5.08,0,0,0,421,353.27Z"/><polygon class="cls-7" points="394.35 378.51 377.27 622.17 398.91 661.06 425.19 622.46 410.27 375.03 394.35 378.51"/><polygon class="cls-6" points="449.79 330.77 432.71 308.63 407.36 308.63 399.09 308.63 373.74 308.63 352 330.1 369.26 380.11 403.23 351.24 437.19 380.11 449.79 330.77"/><rect class="cls-8" x="372.7" y="269.79" width="59.39" height="72.41" rx="23.99"/><ellipse class="cls-8" cx="464.19" cy="255.09" rx="15.58" ry="16.2" transform="translate(-1.14 2.09) rotate(-0.26)"/><path class="cls-5" d="M455.72,257s-.46-11,10.29-9.55"/><path class="cls-8" d="M325,254.58c-.19,8.95,6.64,16.36,15.24,16.55s15.73-6.9,15.91-15.84-6.64-16.36-15.25-16.55S325.2,245.64,325,254.58Z"/><path class="cls-5" d="M349,257.27s.92-11-9.89-10"/><path class="cls-8" d="M451.58,267.52c0,20-15.62,36.27-34.66,36.24l-29.21,0c-19,0-34.61-16.38-34.58-36.34l.07-64.09c0-20,15.62-36.28,34.66-36.25l29.21,0c19.05,0,34.61,16.38,34.59,36.34Z"/><path class="cls-9" d="M385.27,265.87c1.07,6,8.27,10.69,17.09,10.7s16-4.64,17.12-10.66Z"/><path class="cls-5" d="M402,228q-2.41,10.91-4.64,21.85c3.08.14,6.15.28,9.22.44"/><path class="cls-10" d="M376.47,234.56a4.58,4.58,0,1,1-4.66-4.71A4.71,4.71,0,0,1,376.47,234.56Z"/><path class="cls-10" d="M438.35,234.48a4.59,4.59,0,1,1-4.66-4.71A4.71,4.71,0,0,1,438.35,234.48Z"/><path class="cls-11" d="M365.32,224.89l12.84-.82"/><path class="cls-11" d="M427.18,223,441,226.73"/><path class="cls-4" d="M345.32,712.8c-26,85.92-88.46,12.19-88.46,12.19L278.1,590.68,266.36,473s19.57-87.27,32.35-106.25,51.91-35.87,51.91-35.87,6.85,131.64,12,247.62C364.07,612.29,360.51,662.61,345.32,712.8Z"/><path class="cls-5" d="M350.58,330s6.89,132.51,12,248.49c1.49,33.82-2.07,84.14-17.25,134.33-26,85.92-88.48,12.2-88.48,12.2l21.24-134.32L266.36,473"/><path class="cls-5" d="M348.52,595.44c-1.95-2.47-31-131.17-31-131.17L333,461.18l-18-99"/><path class="cls-4" d="M545.33,725s-62.49,73.73-88.48-12.19c-15.17-50.19-18.74-100.51-17.25-134.33,5.11-116,12-247.62,12-247.62s39.12,16.9,51.9,35.87S535.81,473,535.81,473L524.09,590.68Z"/><path class="cls-5" d="M451.6,330s-6.89,132.51-12,248.49c-1.49,33.82,2.07,84.14,17.25,134.33,26,85.92,88.48,12.2,88.48,12.2L524.09,590.68,535.82,473"/><path class="cls-5" d="M453.66,595.44c2-2.47,31-131.17,31-131.17l-15.51-3.09,18-99"/><path class="cls-3" d="M427.75,155.82s-61-9.23-74.61,22.07c-2.12,4.87-8.9,31.2-3.37,29.67,10.65-3,21.62-17.46,27.6-30.35,10,8.1,23.16,17.29,25.82,15.16,4.41-3.55-6.8-19.67-6.8-19.67s30,28.59,34.72,25.38-13.64-27.68-13.64-27.68,39.76,41,42.65,28.47S427.75,155.82,427.75,155.82Z"/></g><path class="cls-5" d="M174,650.26s36,58.29,199.55,59.66"/><path class="cls-5" d="M626.23,673.4s-61.72,34.37-172.29,36.43"/></svg>