<?xml version="1.0" encoding="utf-8"?>
<!-- Generator: Adobe Illustrator 25.3.1, SVG Export Plug-In . SVG Version: 6.00 Build 0)  -->
<svg version="1.1" id="Layer_1" xmlns="http://www.w3.org/2000/svg" xmlns:xlink="http://www.w3.org/1999/xlink" x="0px" y="0px"
	 viewBox="0 0 800 800" style="enable-background:new 0 0 800 800;" xml:space="preserve">
<style type="text/css">
	.st0{fill:#4F7CAD;}
	.st1{fill:#88BD24;}
	.st2{fill:#5059A4;}
	.st3{fill:#08909F;}
	.st4{fill:#46B593;}
	.st5{fill:#0FA0C0;}
	.st6{clip-path:url(#SVGID_2_);}
	.st7{fill:#E8E8F0;}
	.st8{fill:#C5C1D2;}
	.st9{fill:none;stroke:#C5C1D2;stroke-width:2.8481;stroke-miterlimit:10;}
	.st10{fill:#1C1D3E;}
	.st11{fill:#FFFFFF;}
	.st12{fill:#505EA8;}
	.st13{fill:none;stroke:#1C1D3E;stroke-width:2.1361;stroke-linecap:round;stroke-linejoin:round;stroke-miterlimit:10;}
	.st14{fill:#FFFFFF;stroke:#1C1D3E;stroke-width:2.1361;stroke-miterlimit:10;}
	.st15{fill:none;stroke:#1C1D3E;stroke-width:2.8481;stroke-linecap:round;stroke-linejoin:round;stroke-miterlimit:10;}
	.st16{fill:#F6CB40;}
	.st17{fill:#FFFFFF;stroke:#1C1D3E;stroke-width:2.1361;stroke-linecap:round;stroke-linejoin:round;stroke-miterlimit:10;}
	.st18{fill:#1C1D3E;stroke:#1C1D3E;stroke-width:2.1361;stroke-linecap:round;stroke-linejoin:round;stroke-miterlimit:10;}
	.st19{clip-path:url(#SVGID_4_);}
	.st20{clip-path:url(#SVGID_6_);}
	.st21{fill-rule:evenodd;clip-rule:evenodd;fill:none;}
	.st22{fill:none;stroke:#1C1D3E;stroke-width:1.9248;stroke-linecap:round;stroke-linejoin:round;stroke-miterlimit:10;}
	.st23{fill:#FFFFFF;stroke:#1C1D3E;stroke-width:1.9248;stroke-linecap:round;stroke-linejoin:round;stroke-miterlimit:10;}
	.st24{fill:#FFFFFF;stroke:#1C1D3E;stroke-width:1.9248;stroke-miterlimit:10;}
	.st25{fill:none;stroke:#1C1D3E;stroke-width:3.8495;stroke-linecap:round;stroke-linejoin:round;stroke-miterlimit:10;}
	.st26{fill:none;stroke:#1C1D3E;stroke-width:1.7019;stroke-linecap:round;stroke-linejoin:round;stroke-miterlimit:10;}
	.st27{fill:#FFFFFF;stroke:#1C1D3E;stroke-width:1.7019;stroke-linecap:round;stroke-linejoin:round;stroke-miterlimit:10;}
	.st28{fill:#1C1D3E;stroke:#1C1D3E;stroke-width:1.7019;stroke-linecap:round;stroke-linejoin:round;stroke-miterlimit:10;}
	.st29{fill:#1C1D3E;stroke:#1C1D3E;stroke-width:1.7019;stroke-miterlimit:10;}
	.st30{fill:#FFFFFF;stroke:#1C1D3E;stroke-width:1.7019;stroke-miterlimit:10;}
	.st31{fill:none;stroke:#1C1D3E;stroke-width:3.4037;stroke-linecap:round;stroke-linejoin:round;stroke-miterlimit:10;}
	.st32{fill:#FFFFFF;stroke:#1C1D3E;stroke-width:2.1261;stroke-linecap:round;stroke-linejoin:round;stroke-miterlimit:10;}
	.st33{fill:none;stroke:#1C1D3E;stroke-width:2.1261;stroke-linecap:round;stroke-linejoin:round;stroke-miterlimit:10;}
	.st34{fill:#1C1D3E;stroke:#1C1D3E;stroke-width:2.1261;stroke-linecap:round;stroke-linejoin:round;stroke-miterlimit:10;}
	.st35{fill:#FFFFFF;stroke:#1C1D3E;stroke-width:1.3878;stroke-linecap:round;stroke-linejoin:round;stroke-miterlimit:10;}
	.st36{fill:none;stroke:#1C1D3E;stroke-width:1.3878;stroke-linecap:round;stroke-linejoin:round;stroke-miterlimit:10;}
	.st37{fill:#1C1D3E;stroke:#1C1D3E;stroke-width:1.3878;stroke-linecap:round;stroke-linejoin:round;stroke-miterlimit:10;}
	.st38{fill:#FFFFFF;stroke:#1C1D3E;stroke-width:1.3878;stroke-miterlimit:10;}
	.st39{fill:none;stroke:#1C1D3E;stroke-width:1.8504;stroke-linecap:round;stroke-linejoin:round;stroke-miterlimit:10;}
	.st40{fill:#C6C3E3;}
	.st41{fill:#898DC5;}
	.st42{fill:#936037;}
	.st43{fill:#662483;}
	.st44{fill:none;stroke:#1C1D3E;stroke-width:1.4923;stroke-linecap:round;stroke-linejoin:round;stroke-miterlimit:10;}
	.st45{fill:#95C11F;}
	.st46{fill:#FFFFFF;stroke:#1C1D3E;stroke-width:1.4923;stroke-miterlimit:10;}
	.st47{fill:none;stroke:#1C1D3E;stroke-width:1.9897;stroke-linecap:round;stroke-linejoin:round;stroke-miterlimit:10;}
	.st48{fill:#D60B52;}
	.st49{fill:#FFFFFF;stroke:#1C1D3E;stroke-width:1.2709;stroke-linecap:round;stroke-linejoin:round;stroke-miterlimit:10;}
	.st50{fill:none;stroke:#1C1D3E;stroke-width:1.2709;stroke-linecap:round;stroke-linejoin:round;stroke-miterlimit:10;}
	.st51{fill:#FFFFFF;stroke:#1C1D3E;stroke-width:1.2709;stroke-miterlimit:10;}
	.st52{fill:none;stroke:#1C1D3E;stroke-width:2.5417;stroke-linecap:round;stroke-linejoin:round;stroke-miterlimit:10;}
	.st53{clip-path:url(#SVGID_8_);}
	.st54{opacity:0.4;fill:#E8E8F0;}
	.st55{clip-path:url(#SVGID_8_);fill-rule:evenodd;clip-rule:evenodd;fill:none;}
	.st56{clip-path:url(#SVGID_10_);}
	.st57{fill:#634E42;}
	.st58{clip-path:url(#SVGID_12_);}
	.st59{fill:#00A19A;}
	.st60{fill:#BE1622;}
	.st61{fill:#FFFFFF;stroke:#1C1D3E;stroke-width:2.1323;stroke-miterlimit:10;}
	.st62{fill:#FFFFFF;stroke:#1C1D3E;stroke-width:2.1323;stroke-linecap:round;stroke-linejoin:round;stroke-miterlimit:10;}
	.st63{fill:none;stroke:#1C1D3E;stroke-width:2.1323;stroke-linecap:round;stroke-linejoin:round;stroke-miterlimit:10;}
	.st64{fill:none;stroke:#1C1D3E;stroke-width:2.1323;stroke-miterlimit:10;}
	.st65{fill:#FFFFFF;stroke:#1C1D3E;stroke-width:2.0273;stroke-linecap:round;stroke-linejoin:round;stroke-miterlimit:10;}
	.st66{fill:none;stroke:#1C1D3E;stroke-width:2.0273;stroke-linecap:round;stroke-linejoin:round;stroke-miterlimit:10;}
	.st67{fill:#FFFFFF;stroke:#1C1D3E;stroke-width:2.0273;stroke-miterlimit:10;}
	.st68{fill:none;stroke:#1C1D3E;stroke-width:4.0546;stroke-linecap:round;stroke-miterlimit:10;}
	.st69{clip-path:url(#SVGID_14_);}
	.st70{clip-path:url(#SVGID_14_);fill-rule:evenodd;clip-rule:evenodd;fill:none;}
	.st71{fill:#FFFFFF;stroke:#1C1D3E;stroke-width:2.4986;stroke-linecap:round;stroke-linejoin:round;stroke-miterlimit:10;}
	.st72{fill:none;stroke:#1C1D3E;stroke-width:2.4986;stroke-linecap:round;stroke-linejoin:round;stroke-miterlimit:10;}
	.st73{fill:#E71D73;}
	.st74{fill:none;stroke:#1C1D3E;stroke-width:2.4986;stroke-miterlimit:10;}
	.st75{opacity:0.4;clip-path:url(#SVGID_16_);}
	.st76{clip-path:url(#SVGID_16_);}
	.st77{clip-path:url(#SVGID_16_);fill-rule:evenodd;clip-rule:evenodd;fill:none;}
	.st78{fill:#951B81;}
	.st79{fill:none;stroke:#1C1D3E;stroke-width:2.3285;stroke-linecap:round;stroke-linejoin:round;stroke-miterlimit:10;}
	.st80{fill:#FFFFFF;stroke:#1C1D3E;stroke-width:2.3285;stroke-miterlimit:10;}
	.st81{fill:#FFFFFF;stroke:#1C1D3E;stroke-width:2.3285;stroke-linecap:round;stroke-linejoin:round;stroke-miterlimit:10;}
	.st82{fill:none;stroke:#1C1D3E;stroke-width:3.1046;stroke-linecap:round;stroke-linejoin:round;stroke-miterlimit:10;}
	
		.st83{clip-path:url(#SVGID_16_);fill:#FFFFFF;stroke:#1C1D3E;stroke-width:2.1361;stroke-linecap:round;stroke-linejoin:round;stroke-miterlimit:10;}
	.st84{fill:none;stroke:#1C1D3E;stroke-width:4.0546;stroke-linecap:round;stroke-linejoin:round;stroke-miterlimit:10;}
	.st85{clip-path:url(#SVGID_18_);}
	.st86{clip-path:url(#SVGID_18_);fill-rule:evenodd;clip-rule:evenodd;fill:none;}
	.st87{clip-path:url(#SVGID_20_);}
	.st88{clip-path:url(#SVGID_20_);fill-rule:evenodd;clip-rule:evenodd;fill:none;}
	.st89{fill:#FFFFFF;stroke:#1C1D3E;stroke-width:1.9392;stroke-linecap:round;stroke-linejoin:round;stroke-miterlimit:10;}
	.st90{fill:none;stroke:#1C1D3E;stroke-width:1.9392;stroke-linecap:round;stroke-linejoin:round;stroke-miterlimit:10;}
	.st91{fill:#82368C;}
	.st92{fill:none;stroke:#C5C1D2;stroke-width:11.6354;stroke-linecap:round;stroke-linejoin:round;stroke-miterlimit:10;}
	.st93{fill:#FFFFFF;stroke:#1C1D3E;stroke-width:1.9392;stroke-miterlimit:10;}
	.st94{opacity:0.4;clip-path:url(#SVGID_22_);}
	.st95{clip-path:url(#SVGID_22_);}
	.st96{clip-path:url(#SVGID_22_);fill-rule:evenodd;clip-rule:evenodd;fill:none;}
	.st97{opacity:0.4;clip-path:url(#SVGID_24_);}
	.st98{clip-path:url(#SVGID_24_);}
	.st99{fill:#FFDE00;}
	.st100{fill:#FFFFFF;stroke:#1C1D3E;stroke-width:2.4881;stroke-linecap:round;stroke-linejoin:round;stroke-miterlimit:10;}
	.st101{fill:#1C1D3E;stroke:#1C1D3E;stroke-width:2.047;stroke-linecap:round;stroke-linejoin:round;stroke-miterlimit:10;}
	.st102{clip-path:url(#SVGID_26_);fill:#505EA8;}
	.st103{clip-path:url(#SVGID_28_);fill:#505EA8;}
	.st104{clip-path:url(#SVGID_30_);fill:#505EA8;}
	.st105{clip-path:url(#SVGID_32_);fill:#505EA8;}
	.st106{clip-path:url(#SVGID_34_);fill:#505EA8;}
	.st107{clip-path:url(#SVGID_36_);fill:#505EA8;}
	.st108{clip-path:url(#SVGID_38_);fill:#505EA8;}
	.st109{fill:#FFFFFF;stroke:#1C1D3E;stroke-width:1.8385;stroke-linecap:round;stroke-linejoin:round;stroke-miterlimit:10;}
	.st110{fill:none;stroke:#1C1D3E;stroke-width:1.8385;stroke-linecap:round;stroke-linejoin:round;stroke-miterlimit:10;}
	.st111{fill:#FFFFFF;stroke:#1C1D3E;stroke-width:2.1779;stroke-miterlimit:10;}
	.st112{fill:#FFFFFF;stroke:#1C1D3E;stroke-width:2.1779;stroke-linecap:round;stroke-linejoin:round;stroke-miterlimit:10;}
	.st113{fill:none;stroke:#1C1D3E;stroke-width:2.1779;stroke-linecap:round;stroke-linejoin:round;stroke-miterlimit:10;}
	.st114{fill:none;stroke:#1C1D3E;stroke-width:2.1779;stroke-miterlimit:10;}
	.st115{fill:#00A19A;stroke:#1C1D3E;stroke-width:2.1799;stroke-linecap:round;stroke-linejoin:round;stroke-miterlimit:10;}
	.st116{opacity:0.4;clip-path:url(#SVGID_40_);}
	.st117{clip-path:url(#SVGID_40_);}
	.st118{clip-path:url(#SVGID_40_);fill-rule:evenodd;clip-rule:evenodd;fill:none;}
	.st119{fill:#00A19A;stroke:#1C1D3E;stroke-width:1.3063;stroke-linecap:round;stroke-linejoin:round;stroke-miterlimit:10;}
	.st120{fill:#F6CB40;stroke:#000000;stroke-width:0.8783;stroke-miterlimit:10;}
	.st121{fill:#E17A5F;stroke:#1C1D3E;stroke-width:1.3063;stroke-linecap:round;stroke-linejoin:round;stroke-miterlimit:10;}
	.st122{fill:#E17A5F;stroke:#1C1D3E;stroke-width:1.4249;stroke-linecap:round;stroke-linejoin:round;stroke-miterlimit:10;}
	.st123{fill:#E17A5F;stroke:#1C1D3E;stroke-width:1.0713;stroke-linecap:round;stroke-linejoin:round;stroke-miterlimit:10;}
	.st124{fill:#00A19A;stroke:#1C1D3E;stroke-width:0.7125;stroke-linecap:round;stroke-linejoin:round;stroke-miterlimit:10;}
	.st125{fill:#E17A5F;stroke:#1C1D3E;stroke-width:0.8783;stroke-linecap:round;stroke-linejoin:round;stroke-miterlimit:10;}
	
		.st126{clip-path:url(#SVGID_40_);fill:#E6007E;stroke:#1C1D3E;stroke-width:0.8709;stroke-linecap:round;stroke-linejoin:round;stroke-miterlimit:10;}
	.st127{fill:#0381A7;}
	.st128{fill:#F2CC8E;}
	.st129{clip-path:url(#SVGID_40_);fill:#F39200;}
	.st130{clip-path:url(#SVGID_40_);fill:#2A9D8F;}
	.st131{clip-path:url(#SVGID_40_);fill:#662483;}
	.st132{fill:#263239;}
	.st133{opacity:0.3;}
	.st134{fill:#010202;}
	.st135{fill:#EBEBEB;}
	.st136{fill:#F5F4F5;}
	.st137{fill:#EE7160;}
	.st138{fill:#FBFBFB;}
	.st139{fill:none;}
	.st140{fill:#263239;stroke:#1D1E1B;stroke-miterlimit:10;}
	.st141{fill:#F6F6F6;stroke:#1D1E1B;stroke-miterlimit:10;}
	.st142{clip-path:url(#SVGID_42_);}
	.st143{opacity:0.4;}
	.st144{fill:#F5A261;}
	.st145{fill:none;stroke:#1C1D3E;stroke-width:1.0921;stroke-linecap:round;stroke-linejoin:round;stroke-miterlimit:10;}
	.st146{fill:#FFFFFF;stroke:#1C1D3E;stroke-width:1.0921;stroke-miterlimit:10;}
	.st147{fill:none;stroke:#1C1D3E;stroke-width:1.4562;stroke-linecap:round;stroke-linejoin:round;stroke-miterlimit:10;}
	.st148{fill:#FFFFFF;stroke:#1C1D3E;stroke-width:1.0405;stroke-linecap:round;stroke-linejoin:round;stroke-miterlimit:10;}
	.st149{fill:none;stroke:#1C1D3E;stroke-width:1.0405;stroke-linecap:round;stroke-linejoin:round;stroke-miterlimit:10;}
	.st150{fill:#FFFFFF;stroke:#1C1D3E;stroke-width:1.2228;stroke-linecap:round;stroke-linejoin:round;stroke-miterlimit:10;}
	.st151{fill:none;stroke:#1C1D3E;stroke-width:1.2228;stroke-linecap:round;stroke-linejoin:round;stroke-miterlimit:10;}
	.st152{fill:none;stroke:#1C1D3E;stroke-width:1.2228;stroke-miterlimit:10;}
	.st153{fill:#FFFFFF;stroke:#1C1D3E;stroke-width:0.9301;stroke-linecap:round;stroke-linejoin:round;stroke-miterlimit:10;}
	.st154{fill:none;stroke:#1C1D3E;stroke-width:0.9301;stroke-linecap:round;stroke-linejoin:round;stroke-miterlimit:10;}
	.st155{fill:#FFFFFF;stroke:#1C1D3E;stroke-width:0.9301;stroke-miterlimit:10;}
	.st156{fill:none;stroke:#1C1D3E;stroke-width:1.8602;stroke-linecap:round;stroke-linejoin:round;stroke-miterlimit:10;}
	.st157{clip-path:url(#SVGID_42_);fill-rule:evenodd;clip-rule:evenodd;fill:none;}
	.st158{fill:#FFFFFF;stroke:#1C1D3E;stroke-width:0.9016;stroke-linecap:round;stroke-linejoin:round;stroke-miterlimit:10;}
	.st159{fill:none;stroke:#1C1D3E;stroke-width:0.9016;stroke-linecap:round;stroke-linejoin:round;stroke-miterlimit:10;}
	.st160{fill:none;stroke:#C5C1D2;stroke-width:5.4093;stroke-linecap:round;stroke-linejoin:round;stroke-miterlimit:10;}
	.st161{fill:#FFFFFF;stroke:#1C1D3E;stroke-width:0.9016;stroke-miterlimit:10;}
	.st162{fill:none;stroke:#1C1D3E;stroke-width:0.7255;stroke-linecap:round;stroke-linejoin:round;stroke-miterlimit:10;}
	.st163{fill:#FFFFFF;stroke:#1C1D3E;stroke-width:0.7255;stroke-linecap:round;stroke-linejoin:round;stroke-miterlimit:10;}
	.st164{fill:#FFFFFF;stroke:#1C1D3E;stroke-width:0.7255;stroke-miterlimit:10;}
	.st165{fill:none;stroke:#1C1D3E;stroke-width:1.4509;stroke-linecap:round;stroke-linejoin:round;stroke-miterlimit:10;}
	.st166{clip-path:url(#SVGID_44_);}
	.st167{fill:none;stroke:#1C1D3E;stroke-width:0.9105;stroke-linecap:round;stroke-linejoin:round;stroke-miterlimit:10;}
	.st168{fill:#FFFFFF;stroke:#1C1D3E;stroke-width:0.9105;stroke-miterlimit:10;}
	.st169{fill:none;stroke:#1C1D3E;stroke-width:1.2141;stroke-linecap:round;stroke-linejoin:round;stroke-miterlimit:10;}
	.st170{fill:#FFFFFF;stroke:#1C1D3E;stroke-width:0.9105;stroke-linecap:round;stroke-linejoin:round;stroke-miterlimit:10;}
	.st171{fill:#1C1D3E;stroke:#1C1D3E;stroke-width:0.9105;stroke-linecap:round;stroke-linejoin:round;stroke-miterlimit:10;}
	.st172{fill:#FFFFFF;stroke:#1C1D3E;stroke-width:0.9063;stroke-linecap:round;stroke-linejoin:round;stroke-miterlimit:10;}
	.st173{fill:none;stroke:#1C1D3E;stroke-width:0.9063;stroke-linecap:round;stroke-linejoin:round;stroke-miterlimit:10;}
	.st174{fill:#1C1D3E;stroke:#1C1D3E;stroke-width:0.9063;stroke-linecap:round;stroke-linejoin:round;stroke-miterlimit:10;}
	.st175{fill:#FFFFFF;stroke:#1C1D3E;stroke-width:0.9089;stroke-miterlimit:10;}
	.st176{fill:#FFFFFF;stroke:#1C1D3E;stroke-width:0.9089;stroke-linecap:round;stroke-linejoin:round;stroke-miterlimit:10;}
	.st177{fill:none;stroke:#1C1D3E;stroke-width:0.9089;stroke-linecap:round;stroke-linejoin:round;stroke-miterlimit:10;}
	.st178{fill:none;stroke:#1C1D3E;stroke-width:0.9089;stroke-miterlimit:10;}
	.st179{fill:#FFFFFF;stroke:#1C1D3E;stroke-width:0.8642;stroke-linecap:round;stroke-linejoin:round;stroke-miterlimit:10;}
	.st180{fill:none;stroke:#1C1D3E;stroke-width:0.8642;stroke-linecap:round;stroke-linejoin:round;stroke-miterlimit:10;}
	.st181{fill:#FFFFFF;stroke:#1C1D3E;stroke-width:0.8642;stroke-miterlimit:10;}
	.st182{fill:none;stroke:#1C1D3E;stroke-width:1.7284;stroke-linecap:round;stroke-miterlimit:10;}
	.st183{fill:none;stroke:#1C1D3E;stroke-width:0.8205;stroke-linecap:round;stroke-linejoin:round;stroke-miterlimit:10;}
	.st184{fill:#FFFFFF;stroke:#1C1D3E;stroke-width:0.8205;stroke-linecap:round;stroke-linejoin:round;stroke-miterlimit:10;}
	.st185{fill:#FFFFFF;stroke:#1C1D3E;stroke-width:0.8205;stroke-miterlimit:10;}
	.st186{fill:none;stroke:#1C1D3E;stroke-width:1.641;stroke-linecap:round;stroke-linejoin:round;stroke-miterlimit:10;}
	.st187{opacity:0.4;clip-path:url(#SVGID_46_);}
	.st188{clip-path:url(#SVGID_46_);}
	.st189{clip-path:url(#SVGID_46_);fill-rule:evenodd;clip-rule:evenodd;fill:none;}
	.st190{fill:#F39200;}
	.st191{fill:#D2CFE9;}
	.st192{clip-path:url(#SVGID_46_);fill:none;stroke:#000000;stroke-width:2;stroke-miterlimit:10;}
	.st193{opacity:0.4;clip-path:url(#SVGID_48_);}
	.st194{clip-path:url(#SVGID_48_);}
	.st195{clip-path:url(#SVGID_48_);fill-rule:evenodd;clip-rule:evenodd;fill:none;}
	.st196{fill:#FFFFFF;stroke:#1C1D3E;stroke-width:2.0557;stroke-linecap:round;stroke-linejoin:round;stroke-miterlimit:10;}
	.st197{fill:none;stroke:#1C1D3E;stroke-width:2.0557;stroke-linecap:round;stroke-linejoin:round;stroke-miterlimit:10;}
	.st198{fill:none;stroke:#C5C1D2;stroke-width:12.3343;stroke-linecap:round;stroke-linejoin:round;stroke-miterlimit:10;}
	.st199{fill:#FFFFFF;stroke:#1C1D3E;stroke-width:2.0557;stroke-miterlimit:10;}
	.st200{opacity:0.4;clip-path:url(#SVGID_50_);}
	.st201{clip-path:url(#SVGID_50_);}
	.st202{clip-path:url(#SVGID_50_);fill-rule:evenodd;clip-rule:evenodd;fill:none;}
	.st203{fill:none;stroke:#1C1D3E;stroke-width:1.0785;stroke-linecap:round;stroke-linejoin:round;stroke-miterlimit:10;}
	.st204{fill:#FFFFFF;stroke:#1C1D3E;stroke-width:1.0785;stroke-linecap:round;stroke-linejoin:round;stroke-miterlimit:10;}
	.st205{fill:#1C1D3E;stroke:#1C1D3E;stroke-width:1.0785;stroke-linecap:round;stroke-linejoin:round;stroke-miterlimit:10;}
	.st206{fill:#1C1D3E;stroke:#1C1D3E;stroke-width:1.0785;stroke-miterlimit:10;}
	.st207{fill:#FFFFFF;stroke:#1C1D3E;stroke-width:1.0785;stroke-miterlimit:10;}
	.st208{fill:none;stroke:#1C1D3E;stroke-width:2.157;stroke-linecap:round;stroke-linejoin:round;stroke-miterlimit:10;}
	.st209{fill:#FFFFFF;stroke:#1C1D3E;stroke-width:1.3474;stroke-linecap:round;stroke-linejoin:round;stroke-miterlimit:10;}
	.st210{fill:none;stroke:#1C1D3E;stroke-width:1.3474;stroke-linecap:round;stroke-linejoin:round;stroke-miterlimit:10;}
	.st211{fill:#1C1D3E;stroke:#1C1D3E;stroke-width:1.3474;stroke-linecap:round;stroke-linejoin:round;stroke-miterlimit:10;}
	.st212{fill:none;stroke:#1C1D3E;stroke-width:1.5045;stroke-linecap:round;stroke-linejoin:round;stroke-miterlimit:10;}
	.st213{fill:#FFFFFF;stroke:#1C1D3E;stroke-width:1.5045;stroke-miterlimit:10;}
	.st214{fill:#FFFFFF;stroke:#1C1D3E;stroke-width:1.5045;stroke-linecap:round;stroke-linejoin:round;stroke-miterlimit:10;}
	.st215{fill:none;stroke:#1C1D3E;stroke-width:2.0061;stroke-linecap:round;stroke-linejoin:round;stroke-miterlimit:10;}
	.st216{fill:#FFFFFF;stroke:#1C1D3E;stroke-width:1.3027;stroke-linecap:round;stroke-linejoin:round;stroke-miterlimit:10;}
	.st217{fill:none;stroke:#1C1D3E;stroke-width:1.3027;stroke-linecap:round;stroke-linejoin:round;stroke-miterlimit:10;}
	.st218{fill:none;stroke:#C5C1D2;stroke-width:7.8165;stroke-linecap:round;stroke-linejoin:round;stroke-miterlimit:10;}
	.st219{fill:#FFFFFF;stroke:#1C1D3E;stroke-width:1.3027;stroke-miterlimit:10;}
	.st220{clip-path:url(#SVGID_50_);fill:#E8E8F0;}
	.st221{clip-path:url(#SVGID_50_);fill:none;stroke:#000000;stroke-width:1.076;stroke-miterlimit:10;}
	.st222{clip-path:url(#SVGID_52_);}
	.st223{clip-path:url(#SVGID_52_);fill-rule:evenodd;clip-rule:evenodd;fill:none;}
	.st224{fill:#FFFFFF;stroke:#1C1D3E;stroke-width:1.2999;stroke-linecap:round;stroke-linejoin:round;stroke-miterlimit:10;}
	.st225{fill:none;stroke:#1C1D3E;stroke-width:1.2999;stroke-linecap:round;stroke-linejoin:round;stroke-miterlimit:10;}
	.st226{fill:#FFFFFF;stroke:#1C1D3E;stroke-width:1.2999;stroke-miterlimit:10;}
	.st227{fill:none;stroke:#1C1D3E;stroke-width:2.5998;stroke-linecap:round;stroke-miterlimit:10;}
	.st228{fill:#FFFFFF;stroke:#1C1D3E;stroke-width:1.3909;stroke-miterlimit:10;}
	.st229{fill:#FFFFFF;stroke:#1C1D3E;stroke-width:1.3909;stroke-linecap:round;stroke-linejoin:round;stroke-miterlimit:10;}
	.st230{fill:none;stroke:#1C1D3E;stroke-width:1.3909;stroke-linecap:round;stroke-linejoin:round;stroke-miterlimit:10;}
	.st231{fill:none;stroke:#1C1D3E;stroke-width:1.3909;stroke-miterlimit:10;}
	.st232{fill:#00A19A;stroke:#1C1D3E;stroke-width:1.3922;stroke-linecap:round;stroke-linejoin:round;stroke-miterlimit:10;}
	.st233{fill:none;stroke:#1C1D3E;stroke-width:1.2955;stroke-linecap:round;stroke-linejoin:round;stroke-miterlimit:10;}
	.st234{fill:#FFFFFF;stroke:#1C1D3E;stroke-width:1.2955;stroke-linecap:round;stroke-linejoin:round;stroke-miterlimit:10;}
	.st235{fill:#FFFFFF;stroke:#1C1D3E;stroke-width:1.2955;stroke-miterlimit:10;}
	.st236{fill:none;stroke:#1C1D3E;stroke-width:2.591;stroke-linecap:round;stroke-linejoin:round;stroke-miterlimit:10;}
	.st237{fill:#ADC4E7;}
	.st238{fill:#00B0B9;}
	.st239{fill:#8AC6C4;}
	.st240{fill:#F8AA26;}
	.st241{fill:#11448E;}
	.st242{fill:#F09B1E;}
	.st243{fill:#78A9DB;}
	.st244{fill:#1D3F81;}
	.st245{fill:none;stroke:#000000;stroke-width:1.8782;stroke-miterlimit:10;}
	.st246{clip-path:url(#SVGID_54_);}
	.st247{fill:#FFFFFF;stroke:#1C1D3E;stroke-width:0.9238;stroke-linecap:round;stroke-linejoin:round;stroke-miterlimit:10;}
	.st248{fill:none;stroke:#1C1D3E;stroke-width:0.9238;stroke-linecap:round;stroke-linejoin:round;stroke-miterlimit:10;}
	.st249{fill:#FFFFFF;stroke:#1C1D3E;stroke-width:0.9238;stroke-miterlimit:10;}
	.st250{fill:#FFFFFF;stroke:#1C1D3E;stroke-width:1.1337;stroke-linecap:round;stroke-linejoin:round;stroke-miterlimit:10;}
	.st251{fill:none;stroke:#1C1D3E;stroke-width:1.8475;stroke-linecap:round;stroke-miterlimit:10;}
	.st252{fill:#1C1D3E;stroke:#1C1D3E;stroke-width:0.9327;stroke-linecap:round;stroke-linejoin:round;stroke-miterlimit:10;}
	.st253{clip-path:url(#SVGID_56_);fill:#505EA8;}
	.st254{clip-path:url(#SVGID_58_);fill:#505EA8;}
	.st255{clip-path:url(#SVGID_60_);fill:#505EA8;}
	.st256{clip-path:url(#SVGID_62_);fill:#505EA8;}
	.st257{clip-path:url(#SVGID_64_);fill:#505EA8;}
	.st258{clip-path:url(#SVGID_66_);fill:#505EA8;}
	.st259{clip-path:url(#SVGID_68_);fill:#505EA8;}
	.st260{fill:none;stroke:#000000;stroke-width:1.6007;stroke-miterlimit:10;}
	.st261{clip-path:url(#SVGID_70_);}
	.st262{fill:#FFFFFF;stroke:#1C1D3E;stroke-width:0.7873;stroke-linecap:round;stroke-linejoin:round;stroke-miterlimit:10;}
	.st263{fill:none;stroke:#1C1D3E;stroke-width:0.7873;stroke-linecap:round;stroke-linejoin:round;stroke-miterlimit:10;}
	.st264{fill:#FFFFFF;stroke:#1C1D3E;stroke-width:0.7873;stroke-miterlimit:10;}
	.st265{fill:#FFFFFF;stroke:#1C1D3E;stroke-width:0.9662;stroke-linecap:round;stroke-linejoin:round;stroke-miterlimit:10;}
	.st266{fill:none;stroke:#1C1D3E;stroke-width:1.5745;stroke-linecap:round;stroke-miterlimit:10;}
	.st267{fill:#1C1D3E;stroke:#1C1D3E;stroke-width:0.7949;stroke-linecap:round;stroke-linejoin:round;stroke-miterlimit:10;}
	.st268{clip-path:url(#SVGID_72_);fill:#505EA8;}
	.st269{clip-path:url(#SVGID_74_);fill:#505EA8;}
	.st270{clip-path:url(#SVGID_76_);fill:#505EA8;}
	.st271{clip-path:url(#SVGID_78_);fill:#505EA8;}
	.st272{clip-path:url(#SVGID_80_);fill:#505EA8;}
	.st273{clip-path:url(#SVGID_82_);fill:#505EA8;}
	.st274{clip-path:url(#SVGID_84_);fill:#505EA8;}
	.st275{fill:none;stroke:#000000;stroke-width:2.3468;stroke-miterlimit:10;}
	.st276{clip-path:url(#SVGID_86_);}
	.st277{fill:#FFFFFF;stroke:#1C1D3E;stroke-width:1.1144;stroke-linecap:round;stroke-linejoin:round;stroke-miterlimit:10;}
	.st278{fill:none;stroke:#1C1D3E;stroke-width:1.1144;stroke-linecap:round;stroke-linejoin:round;stroke-miterlimit:10;}
	.st279{fill:none;stroke:#C5C1D2;stroke-width:6.6864;stroke-linecap:round;stroke-linejoin:round;stroke-miterlimit:10;}
	.st280{fill:#FFFFFF;stroke:#1C1D3E;stroke-width:1.1144;stroke-miterlimit:10;}
	.st281{fill:none;stroke:#000000;stroke-width:1.8805;stroke-miterlimit:10;}
	.st282{clip-path:url(#SVGID_88_);}
	.st283{fill:none;stroke:#1C1D3E;stroke-width:1.3222;stroke-linecap:round;stroke-linejoin:round;stroke-miterlimit:10;}
	.st284{fill:#FFFFFF;stroke:#1C1D3E;stroke-width:1.3222;stroke-linecap:round;stroke-linejoin:round;stroke-miterlimit:10;}
	.st285{fill:#1C1D3E;stroke:#1C1D3E;stroke-width:1.3222;stroke-linecap:round;stroke-linejoin:round;stroke-miterlimit:10;}
	.st286{fill:#1C1D3E;stroke:#1C1D3E;stroke-width:1.3222;stroke-miterlimit:10;}
	.st287{fill:#FFFFFF;stroke:#1C1D3E;stroke-width:1.3222;stroke-miterlimit:10;}
	.st288{fill:none;stroke:#1C1D3E;stroke-width:2.6444;stroke-linecap:round;stroke-linejoin:round;stroke-miterlimit:10;}
	.st289{fill:none;stroke:#000000;stroke-width:2.6193;stroke-miterlimit:10;}
	.st290{fill:#FFFFFF;stroke:#1C1D3E;stroke-width:0.9645;stroke-linecap:round;stroke-linejoin:round;stroke-miterlimit:10;}
	.st291{fill:none;stroke:#1C1D3E;stroke-width:0.9645;stroke-linecap:round;stroke-linejoin:round;stroke-miterlimit:10;}
	.st292{fill:none;stroke:#C5C1D2;stroke-width:5.7872;stroke-linecap:round;stroke-linejoin:round;stroke-miterlimit:10;}
	.st293{fill:#FFFFFF;stroke:#1C1D3E;stroke-width:0.9645;stroke-miterlimit:10;}
	.st294{fill:#5C5C5C;}
	.st295{fill:#FFFFFF;stroke:#1C1D3E;stroke-width:1.7479;stroke-linecap:round;stroke-linejoin:round;stroke-miterlimit:10;}
	.st296{fill:none;stroke:#1C1D3E;stroke-width:1.7479;stroke-linecap:round;stroke-linejoin:round;stroke-miterlimit:10;}
	.st297{fill:#FFFFFF;stroke:#1C1D3E;stroke-width:2.0471;stroke-linecap:round;stroke-linejoin:round;stroke-miterlimit:10;}
	.st298{fill:#A48A7B;}
	.st299{fill:#FFFFFF;stroke:#1C1D3E;stroke-width:1.7479;stroke-miterlimit:10;}
	.st300{fill:none;stroke:#1C1D3E;stroke-width:3.4957;stroke-linecap:round;stroke-linejoin:round;stroke-miterlimit:10;}
	.st301{fill:none;stroke:#606060;stroke-width:1.8782;stroke-miterlimit:10;}
	.st302{clip-path:url(#SVGID_90_);}
	.st303{clip-path:url(#SVGID_92_);fill:#505EA8;}
	.st304{clip-path:url(#SVGID_94_);fill:#505EA8;}
	.st305{clip-path:url(#SVGID_96_);fill:#505EA8;}
	.st306{clip-path:url(#SVGID_98_);fill:#505EA8;}
	.st307{clip-path:url(#SVGID_100_);fill:#505EA8;}
	.st308{clip-path:url(#SVGID_102_);fill:#505EA8;}
	.st309{clip-path:url(#SVGID_104_);fill:#505EA8;}
	.st310{fill:none;stroke:#606060;stroke-width:2.3468;stroke-miterlimit:10;}
	.st311{clip-path:url(#SVGID_106_);}
	.st312{fill:none;stroke:#606060;stroke-width:1.8805;stroke-miterlimit:10;}
	.st313{clip-path:url(#SVGID_108_);}
	.st314{fill:none;stroke:#606060;stroke-width:2.6193;stroke-miterlimit:10;}
	.st315{clip-path:url(#SVGID_110_);}
	.st316{fill:#A3195B;}
	.st317{clip-path:url(#SVGID_112_);fill:#505EA8;}
	.st318{clip-path:url(#SVGID_114_);fill:#505EA8;}
	.st319{clip-path:url(#SVGID_116_);fill:#505EA8;}
	.st320{clip-path:url(#SVGID_118_);fill:#505EA8;}
	.st321{clip-path:url(#SVGID_120_);fill:#505EA8;}
	.st322{clip-path:url(#SVGID_122_);fill:#505EA8;}
	.st323{clip-path:url(#SVGID_124_);fill:#505EA8;}
	.st324{clip-path:url(#SVGID_126_);}
	.st325{clip-path:url(#SVGID_128_);}
	.st326{opacity:0.75;}
	.st327{opacity:0.7;}
	.st328{fill:#B2B2B2;}
	.st329{fill:#FFFFFF;stroke:#1C1D3E;stroke-width:1.4496;stroke-linecap:round;stroke-linejoin:round;stroke-miterlimit:10;}
	.st330{fill:none;stroke:#1C1D3E;stroke-width:1.4496;stroke-linecap:round;stroke-linejoin:round;stroke-miterlimit:10;}
	.st331{fill:#1C1D3E;stroke:#FFFFFF;stroke-width:1.4496;stroke-linecap:round;stroke-linejoin:round;stroke-miterlimit:10;}
	.st332{fill:#E6007E;}
	.st333{fill:#FFFFFF;stroke:#1C1D3E;stroke-width:1.5842;stroke-linecap:round;stroke-linejoin:round;stroke-miterlimit:10;}
	.st334{fill:none;stroke:#1C1D3E;stroke-width:1.5842;stroke-linecap:round;stroke-linejoin:round;stroke-miterlimit:10;}
	.st335{fill:#FFFFFF;stroke:#1C1D3E;stroke-width:1.5842;stroke-miterlimit:10;}
	.st336{fill:none;stroke:#1C1D3E;stroke-width:3.1684;stroke-linecap:round;stroke-linejoin:round;stroke-miterlimit:10;}
	.st337{fill:#FFFFFF;stroke:#1C1D3E;stroke-width:1.5556;stroke-linecap:round;stroke-linejoin:round;stroke-miterlimit:10;}
	.st338{fill:none;stroke:#1C1D3E;stroke-width:1.5556;stroke-linecap:round;stroke-linejoin:round;stroke-miterlimit:10;}
	.st339{fill:#1C1D3E;stroke:#1C1D3E;stroke-width:1.5556;stroke-linecap:round;stroke-linejoin:round;stroke-miterlimit:10;}
	.st340{fill:#FFFFFF;stroke:#1C1D3E;stroke-width:1.5556;stroke-miterlimit:10;}
	.st341{fill:none;stroke:#1C1D3E;stroke-width:2.0742;stroke-linecap:round;stroke-linejoin:round;stroke-miterlimit:10;}
	.st342{clip-path:url(#SVGID_130_);}
	.st343{fill:#CD4577;}
	.st344{fill:#FFFFFF;stroke:#1C1D3E;stroke-width:2.0537;stroke-linecap:round;stroke-linejoin:round;stroke-miterlimit:10;}
	.st345{fill:none;stroke:#1C1D3E;stroke-width:2.0537;stroke-linecap:round;stroke-linejoin:round;stroke-miterlimit:10;}
	.st346{fill:#1C1D3E;stroke:#FFFFFF;stroke-width:2.0537;stroke-linecap:round;stroke-linejoin:round;stroke-miterlimit:10;}
	.st347{fill:#477EC0;}
	.st348{fill:#4BAFE4;}
	.st349{fill:none;stroke:#1D6DAB;stroke-width:9.0471;stroke-miterlimit:10;}
	.st350{fill:#8093CA;}
	.st351{clip-path:url(#SVGID_132_);}
	.st352{fill:#FFFFFF;stroke:#1C1D3E;stroke-width:1.5832;stroke-linecap:round;stroke-linejoin:round;stroke-miterlimit:10;}
	.st353{fill:none;stroke:#1C1D3E;stroke-width:1.5832;stroke-linecap:round;stroke-linejoin:round;stroke-miterlimit:10;}
	.st354{fill:#FFFFFF;stroke:#1C1D3E;stroke-width:1.8309;stroke-linecap:round;stroke-linejoin:round;stroke-miterlimit:10;}
	.st355{fill:none;stroke:#1C1D3E;stroke-width:1.8309;stroke-linecap:round;stroke-linejoin:round;stroke-miterlimit:10;}
	.st356{fill:#1C1D3E;stroke:#FFFFFF;stroke-width:1.8309;stroke-linecap:round;stroke-linejoin:round;stroke-miterlimit:10;}
	.st357{fill:#95B0DD;}
	.st358{fill:url(#SVGID_133_);}
	.st359{opacity:0.56;fill:#FFFFFF;}
	.st360{fill:url(#SVGID_134_);}
	.st361{fill:#FFFFFF;stroke:#1C1D3E;stroke-width:1.8531;stroke-linecap:round;stroke-linejoin:round;stroke-miterlimit:10;}
	.st362{fill:none;stroke:#1C1D3E;stroke-width:1.8531;stroke-linecap:round;stroke-linejoin:round;stroke-miterlimit:10;}
	.st363{fill:#FFFFFF;stroke:#1C1D3E;stroke-width:1.8531;stroke-miterlimit:10;}
	.st364{fill:#FFFFFF;stroke:#1C1D3E;stroke-width:2.2743;stroke-linecap:round;stroke-linejoin:round;stroke-miterlimit:10;}
	.st365{fill:none;stroke:#1C1D3E;stroke-width:3.7062;stroke-linecap:round;stroke-miterlimit:10;}
	.st366{fill:#1C1D3E;stroke:#1C1D3E;stroke-width:1.8711;stroke-linecap:round;stroke-linejoin:round;stroke-miterlimit:10;}
	.st367{clip-path:url(#SVGID_136_);fill:#505EA8;}
	.st368{clip-path:url(#SVGID_138_);fill:#505EA8;}
	.st369{clip-path:url(#SVGID_140_);fill:#505EA8;}
	.st370{clip-path:url(#SVGID_142_);fill:#505EA8;}
	.st371{clip-path:url(#SVGID_144_);fill:#505EA8;}
	.st372{clip-path:url(#SVGID_146_);fill:#505EA8;}
	.st373{clip-path:url(#SVGID_148_);fill:#505EA8;}
	.st374{fill:#FFFFFF;stroke:#1C1D3E;stroke-width:1.9908;stroke-miterlimit:10;}
	.st375{fill:#FFFFFF;stroke:#1C1D3E;stroke-width:1.9908;stroke-linecap:round;stroke-linejoin:round;stroke-miterlimit:10;}
	.st376{fill:none;stroke:#1C1D3E;stroke-width:1.9908;stroke-linecap:round;stroke-linejoin:round;stroke-miterlimit:10;}
	.st377{fill:none;stroke:#1C1D3E;stroke-width:1.9908;stroke-miterlimit:10;}
	.st378{fill:#00A19A;stroke:#1C1D3E;stroke-width:1.9926;stroke-linecap:round;stroke-linejoin:round;stroke-miterlimit:10;}
	.st379{clip-path:url(#SVGID_150_);fill:#505EA8;}
	.st380{clip-path:url(#SVGID_152_);fill:#505EA8;}
	.st381{clip-path:url(#SVGID_154_);fill:#505EA8;}
	.st382{clip-path:url(#SVGID_156_);fill:#505EA8;}
	.st383{clip-path:url(#SVGID_158_);fill:#505EA8;}
	.st384{clip-path:url(#SVGID_160_);fill:#505EA8;}
	.st385{clip-path:url(#SVGID_162_);fill:#505EA8;}
	.st386{clip-path:url(#SVGID_164_);}
	.st387{fill:#FFFFFF;stroke:#1C1D3E;stroke-width:1.6731;stroke-linecap:round;stroke-linejoin:round;stroke-miterlimit:10;}
	.st388{fill:none;stroke:#1C1D3E;stroke-width:1.6731;stroke-linecap:round;stroke-linejoin:round;stroke-miterlimit:10;}
	.st389{fill:#FFFFFF;stroke:#1C1D3E;stroke-width:1.6821;stroke-linecap:round;stroke-linejoin:round;stroke-miterlimit:10;}
	.st390{fill:#FFFFFF;stroke:#1C1D3E;stroke-width:1.6821;stroke-miterlimit:10;}
	.st391{fill:none;stroke:#1C1D3E;stroke-width:1.6821;stroke-linecap:round;stroke-linejoin:round;stroke-miterlimit:10;}
	.st392{fill:#FFFFFF;stroke:#1C1D3E;stroke-width:2.0644;stroke-linecap:round;stroke-linejoin:round;stroke-miterlimit:10;}
	.st393{fill:none;stroke:#1C1D3E;stroke-width:3.3641;stroke-linecap:round;stroke-miterlimit:10;}
	
		.st394{clip-path:url(#SVGID_164_);fill:#1C1D3E;stroke:#1C1D3E;stroke-width:0.9973;stroke-linecap:round;stroke-linejoin:round;stroke-miterlimit:10;}
	.st395{fill:#AF144C;}
	.st396{fill:#9B1649;}
	.st397{fill:#E52521;}
	.st398{fill:#D51116;}
	.st399{fill:#E41B17;}
	.st400{fill:#B81357;}
	.st401{fill:url(#SVGID_165_);}
	.st402{fill:url(#SVGID_166_);}
	.st403{clip-path:url(#SVGID_168_);}
	
		.st404{clip-path:url(#SVGID_168_);fill:#1C1D3E;stroke:#1C1D3E;stroke-width:0.9973;stroke-linecap:round;stroke-linejoin:round;stroke-miterlimit:10;}
	.st405{fill:url(#SVGID_169_);}
	.st406{fill:url(#SVGID_170_);}
	.st407{opacity:0.75;clip-path:url(#SVGID_172_);}
	.st408{opacity:0.7;clip-path:url(#SVGID_172_);}
	.st409{clip-path:url(#SVGID_176_);}
	.st410{fill:#00A19A;stroke:#1C1D3E;stroke-width:1.9323;stroke-linecap:round;stroke-linejoin:round;stroke-miterlimit:10;}
	.st411{fill:none;stroke:#1C1D3E;stroke-width:1.9323;stroke-linecap:round;stroke-linejoin:round;stroke-miterlimit:10;}
	.st412{fill:#FFFFFF;stroke:#1C1D3E;stroke-width:1.9323;stroke-linecap:round;stroke-linejoin:round;stroke-miterlimit:10;}
	.st413{fill:#FFFFFF;stroke:#1C1D3E;stroke-width:1.9323;stroke-miterlimit:10;}
	.st414{fill:#FFFFFF;stroke:#1C1D3E;stroke-width:2.3715;stroke-linecap:round;stroke-linejoin:round;stroke-miterlimit:10;}
	.st415{fill:none;stroke:#1C1D3E;stroke-width:3.8645;stroke-linecap:round;stroke-miterlimit:10;}
	.st416{clip-path:url(#SVGID_178_);}
	.st417{fill:#00A19A;stroke:#1C1D3E;stroke-width:1.9359;stroke-linecap:round;stroke-linejoin:round;stroke-miterlimit:10;}
	.st418{fill:none;stroke:#1C1D3E;stroke-width:1.9359;stroke-linecap:round;stroke-linejoin:round;stroke-miterlimit:10;}
	.st419{fill:#FFFFFF;stroke:#1C1D3E;stroke-width:1.9359;stroke-linecap:round;stroke-linejoin:round;stroke-miterlimit:10;}
	.st420{fill:#FFFFFF;stroke:#1C1D3E;stroke-width:1.9359;stroke-miterlimit:10;}
	.st421{fill:#FFFFFF;stroke:#1C1D3E;stroke-width:2.3759;stroke-linecap:round;stroke-linejoin:round;stroke-miterlimit:10;}
	.st422{fill:none;stroke:#1C1D3E;stroke-width:3.8718;stroke-linecap:round;stroke-miterlimit:10;}
</style>
<g>
	<g>
		<defs>
			<path id="SVGID_175_" d="M26.9,607.6c0,0-21,108.8,266.4,102.7s251-119.6,251-119.6l18.5-521.5L74.1,150.2L-8.5,750.3L26.9,607.6
				z"/>
		</defs>
		<clipPath id="SVGID_2_">
			<use xlink:href="#SVGID_175_"  style="overflow:visible;"/>
		</clipPath>
		<path class="st6" d="M212.7,234.3c0,0-11.6-19.5-8.5-47.6c5.1-46.1,56.8-49.8,63.1-49.8c4.7,0,14.2,4.1,14.2,4.1s8.4-0.9,15.9,1.3
			c16.6,4.8,29.3,17,31.6,34.7c3.6,27.4-6.5,65-7.4,69.4C320.9,250.7,230,264.7,212.7,234.3z"/>
		<g class="st6">
			<g>
				<g>
					<g>
						<g>
							<g>
								<path class="st410" d="M494.8,644.6c-2.5,117.9-41.2,74.2-41.2,74.2s-16.6,12-42.8,4.4c-62.5-18-138-67.9-141.1-82.9
									c-4.4-21.4-8.8-327.7,4-326.1c12.8,1.6,111.6,33.8,151.9,90.8C466,462.1,497.3,526.7,494.8,644.6z"/>
								<path class="st411" d="M269.8,640.4c3.1,15.1,92.9,41,142.1,83.2"/>
								<g>
									<path class="st411" d="M398.5,591.1c0,0,35.6-1.3,65.9,10"/>
									<path class="st411" d="M412.3,577.5c0,0,20.1-6,43.9-1.2"/>
								</g>
							</g>
						</g>
						<g>
							<g>
								<path class="st410" d="M266.8,640.4c-2.9,14.1-58.1,30.7-111.3,71.6c-27.8,21.4-71.6,12.1-71.6,12.1s-39.6,38.3-42.1-79.5
									c-2.5-117.9,28.8-182.5,69.2-239.5c40.3-57,139.1-89.2,151.9-90.8C275.6,312.6,271.2,619,266.8,640.4z"/>
								<path class="st412" d="M301.3,613.4c-4.4,21.4-171.5,90.9-171.5,90.9"/>
								<g>
									<path class="st411" d="M138.1,591.1c0,0-35.6-1.3-65.9,10"/>
									<path class="st411" d="M124.3,577.5c0,0-20.1-6-43.9-1.2"/>
								</g>
							</g>
						</g>
					</g>
					<g>
						<path class="st412" d="M169.8,708.9h216.4c0,0-25.1-356.6-75.8-382.4c-50.7-25.9-133.8-6.5-158.5,126.3
							S169.8,708.9,169.8,708.9z"/>
						<line class="st411" x1="270.9" y1="333.5" x2="265.3" y2="706.3"/>
					</g>
					<path class="st91" d="M288.1,352.7c-1-1.3-2.6-2.1-4.3-2l-13.9,0.5l-13.9-0.5c-1.7-0.1-3.3,0.7-4.3,2c-1,1.2-1.3,2.9-0.9,4.4
						l6,22.9c0.6,2.2,2.6,3.8,5,3.8h6.8h2.6h6.8c2.3,0,4.4-1.6,5-3.8l6-22.9C289.4,355.6,289.1,354,288.1,352.7z"/>
					<polygon class="st91" points="261.6,377.9 244.5,621.1 266.1,660 292.3,621.4 277.4,374.5 					"/>
					<g>
						<g>
							<g>
								<polygon class="st412" points="316.9,330.3 299.8,308.2 274.5,308.2 266.3,308.2 241,308.2 219.3,329.6 236.5,379.5 
									270.4,350.7 304.3,379.5 								"/>
							</g>
						</g>
						<g>
							<g>
								<path class="st413" d="M275.3,341.7h-11.4c-13.2,0-23.9-10.7-23.9-23.9v-24.4c0-13.2,10.7-23.9,23.9-23.9h11.4
									c13.2,0,23.9,10.7,23.9,23.9v24.4C299.2,331,288.5,341.7,275.3,341.7z"/>
								<g>
									<g>
										
											<ellipse transform="matrix(1 -4.506592e-03 4.506592e-03 1 -1.1446 1.4955)" class="st413" cx="331.3" cy="254.7" rx="15.6" ry="16.2"/>
										<path class="st411" d="M322.8,256.7c0,0-0.5-11,10.3-9.5"/>
									</g>
									<g>
										<path class="st413" d="M192.4,254.2c-0.2,8.9,6.6,16.3,15.2,16.5c8.6,0.2,15.7-6.9,15.9-15.8c0.2-8.9-6.6-16.3-15.2-16.5
											C199.6,238.2,192.5,245.3,192.4,254.2z"/>
										<path class="st411" d="M216.3,256.9c0,0,0.9-11-9.9-10"/>
									</g>
								</g>
								<g>
									<path class="st413" d="M318.7,267.1c0,19.9-15.6,36.2-34.6,36.2l-29.2,0c-19,0-34.5-16.3-34.5-36.3l0.1-64
										c0-19.9,15.6-36.2,34.6-36.2l29.2,0c19,0,34.5,16.3,34.5,36.3L318.7,267.1z"/>
								</g>
								<g>
									<path class="st414" d="M252.5,265.5c1.1,6,8.3,10.7,17.1,10.7c8.8,0,16-4.6,17.1-10.6L252.5,265.5z"/>
									<path class="st411" d="M269.2,227.7c-1.6,7.3-3.2,14.5-4.6,21.8c3.1,0.1,6.1,0.3,9.2,0.4"/>
									<path class="st10" d="M243.7,234.3c0,2.6-2,4.8-4.5,4.9c-2.5,0-4.6-2.1-4.6-4.7c0-2.6,2-4.8,4.5-4.9
										C241.6,229.5,243.7,231.6,243.7,234.3z"/>
									<path class="st10" d="M305.5,234.2c0,2.6-2,4.8-4.5,4.9c-2.5,0-4.6-2.1-4.6-4.7c0-2.6,2-4.8,4.5-4.9
										C303.3,229.4,305.4,231.5,305.5,234.2z"/>
									<path class="st415" d="M232.6,224.6c4.3-0.3,8.5-0.5,12.8-0.8"/>
									<path class="st415" d="M294.3,222.8c4.6,1.2,9.2,2.5,13.8,3.7"/>
								</g>
							</g>
						</g>
					</g>
					<g>
						<g>
							<path class="st410" d="M212.6,711.6c-25.9,85.8-88.3,12.2-88.3,12.2l21.2-134.1l-11.7-117.5c0,0,19.5-87.1,32.3-106
								c12.8-18.9,51.8-35.8,51.8-35.8s6.8,131.4,11.9,247.2C231.3,611.3,227.8,661.5,212.6,711.6z"/>
							<path class="st411" d="M217.9,329.5c0,0,6.9,132.3,12,248c1.5,33.8-2.1,84-17.2,134.1c-25.9,85.8-88.3,12.2-88.3,12.2
								l21.2-134.1l-11.7-117.5"/>
							<path class="st411" d="M215.8,594.5c-2-2.5-31-130.9-31-130.9l15.5-3.1l-18-98.8"/>
						</g>
						<g>
							<path class="st410" d="M412.3,723.8c0,0-62.4,73.6-88.3-12.2c-15.1-50.1-18.7-100.3-17.2-134.1
								c5.1-115.8,11.9-247.2,11.9-247.2s39,16.9,51.8,35.8c12.8,18.9,32.3,106,32.3,106l-11.7,117.5L412.3,723.8z"/>
							<path class="st411" d="M318.7,329.5c0,0-6.9,132.3-12,248c-1.5,33.8,2.1,84,17.2,134.1c25.9,85.8,88.3,12.2,88.3,12.2
								l-21.2-134.1l11.7-117.5"/>
							<path class="st411" d="M320.8,594.5c2-2.5,31-130.9,31-130.9l-15.5-3.1l18-98.8"/>
						</g>
					</g>
				</g>
			</g>
		</g>
		<path class="st6" d="M294.9,155.7c0,0-60.9-9.2-74.5,22c-2.1,4.9-8.9,31.1-3.4,29.6c10.6-3,21.6-17.4,27.5-30.3
			c10,8.1,23.1,17.3,25.8,15.1c4.4-3.5-6.8-19.6-6.8-19.6s30,28.5,34.7,25.3c4.7-3.2-13.6-27.6-13.6-27.6s39.7,41,42.6,28.4
			C330.1,186.1,294.9,155.7,294.9,155.7z"/>
	</g>
	<path class="st411" d="M41.6,649.2c0,0,35.9,58.2,199.2,59.5"/>
	<path class="st411" d="M493,672.3c0,0-61.6,34.3-172,36.4"/>
</g>
<g>
	<g>
		<g>
			<path class="st295" d="M502.6,577h87.6l3.9-255.4c0,0-16.8-11.2-39-13.1c-22.1-1.9-35.4,2.4-46.7,5.8c-3.4,1-13.7,4.5-13.7,4.5
				L502.6,577z"/>
			<polygon class="st73" points="586.3,577 594.1,321.6 678.7,394.7 659,588.8 			"/>
			<path class="st73" d="M493.5,321.6l7.8,255.4l-76.5,4.8l-36.9-154.9c0,0,19.6-53.9,51.5-74.8
				C471.2,331.3,493.5,321.6,493.5,321.6z"/>
		</g>
	</g>
	<g>
		<g>
			<path class="st73" d="M594,318.7C656.3,341.5,724.6,400,761.6,502c26.4,72.9,3.7,176-95.8,199.1c-109.7,25.4-245.2-4.1-245.2-4.1
				l13.6-111.2l143.1,3.9l71.7-14.9l10.1-102.1L591.7,392L594,318.7z"/>
			<path class="st296" d="M749.4,641.9c-16.5,27.9-43.6,49.9-83.6,59.2c-109.7,25.4-245.2-4.1-245.2-4.1l13.6-111.2l143.1,3.9
				l71.7-14.9l10.1-102.1"/>
		</g>
		<g>
			<g>
				<g>
					<path class="st11" d="M749.7,581.4c-1-2.3-2.2-4.4-3.6-6.5l0,0c0,0,6.7-5.6-4.1-18.1c-6.5-7.5-24.5-15.6-34.2-15.1
						c-13.3,0.7-31,11.6-42.4,17.6c-11.5,6-65.9,21.6-65.9,21.6l7.5,55c0,0,45-0.7,65.6-11.8c20.7-11,35.7-9.9,48-1.6
						c12.3,8.3,18.8,5.4,22.1-0.5c1.3-2.4-0.8-6.1-4.4-10.1l0,0c7.5,3.8,11.8-2.9,11.6-7.4c-0.1-1.8-1.3-4.9-3.4-8.5l0,0
						C750.3,597.5,753.8,590.4,749.7,581.4z"/>
					<g>
						<path class="st296" d="M695.4,574.4c0,0,22.2-3.6,35.1,5.1c12.9,8.6,19.1,20.7,19.4,25.1c0.3,4.4-4.1,11.2-11.6,7.4"/>
						<path class="st296" d="M693.6,560.4c0,0,23.4-5.8,34.4-0.4c11.1,5.4,17.7,12.5,21.7,21.4c4,8.9,0.6,16-3.1,14.7"/>
						<path class="st296" d="M746.1,574.9c0,0,6.7-5.6-4.1-18.1c-6.5-7.5-24.5-15.6-34.2-15.1c-13.3,0.7-31,11.6-42.4,17.6
							c-11.5,6-65.9,21.6-65.9,21.6l7.5,55c0,0,45-0.7,65.6-11.8c20.7-11,35.7-9.9,48-1.6c12.3,8.3,18.8,5.4,22.1-0.5
							c3.2-5.9-14.5-20.5-25-26.6c-10.6-6.1-23.9-4.6-23.9-4.6"/>
					</g>
				</g>
				<g>
					<path class="st73" d="M493.4,318.7c0,0-49.9,10.1-110.7,71.3c-49.9,50.3-112.9,162.5-50.4,262.4
						c62.5,99.9,279.2,30.9,279.2,30.9l-4.9-118l-174.1,7l-18.7-49.6l-13.9-76.6l95.3-69.1L493.4,318.7z"/>
					<g>
						<path class="st10" d="M589.1,667.5c0.7,3.2-1.3,6.3-4.5,7c-3.2,0.7-6.3-1.3-7-4.5c-0.7-3.2,1.3-6.3,4.5-7
							C585.3,662.3,588.4,664.3,589.1,667.5z"/>
						<path class="st10" d="M566.6,672.3c0.7,3.2-1.3,6.3-4.5,7c-3.2,0.7-6.3-1.3-7-4.5c-0.7-3.2,1.3-6.3,4.5-7
							C562.8,667.1,566,669.2,566.6,672.3z"/>
						<path class="st10" d="M545.6,675.8c0.7,3.2-1.3,6.3-4.5,7c-3.2,0.7-6.3-1.3-7-4.5c-0.7-3.2,1.3-6.3,4.5-7
							C541.8,670.6,544.9,672.6,545.6,675.8z"/>
					</g>
					<path class="st296" d="M433,572.5l174.9-7l4.9,118c0,0-216.7,69-279.2-30.9"/>
				</g>
			</g>
			<g>
				<g>
					<path class="st296" d="M355.1,581.8c0,0,23.1-13.7,65.7-11.9c0,0-35.1,28.6-45.9,52.7"/>
					<line class="st296" x1="414.8" y1="518.6" x2="403.1" y2="456.8"/>
				</g>
				<g>
					<path class="st295" d="M411.2,532.6c0,0-16.3-15.5-12-23.3c4.3-7.8,17.9,0.3,23.7,9.4c5.8,9.2,2.5,22.2-0.8,20.9
						C418.7,538.3,411.2,532.6,411.2,532.6z"/>
					<path class="st11" d="M448.1,563.4l-2.3-1.6c-2-4.8-2.2-5.3-4.6-8.4l1.2,0.4c0.1-19.2-21.6-30.7-36.6-33.2
						c-15-2.5-26.7,1.2-23.9,12.3c2.2,8.7,22.2,9.2,22.2,9.2l0.2,0.1c-11.9,1.2-25.1,4.8-25.6,13.5c-0.9,13.9,11,10.8,11,10.8
						c-1.8,8.9,0.9,14.4,22.6,9c21.8-5.4,43.8-3.9,43.8-3.9C453.4,567.8,451.2,566,448.1,563.4z"/>
					<g>
						<path class="st296" d="M456.1,571.6c0,0-22.1-1.6-43.8,3.9c-21.8,5.4-24.5,0-22.6-9c1.8-8.9,34-13.2,41.2-11
							C438,557.7,448.1,560.6,456.1,571.6z"/>
						<path class="st296" d="M389.7,566.5c0,0-11.9,3.1-11-10.8s33.7-14.7,42.4-13.7c8.7,1,17.4,2.4,24.7,19.8"/>
						<path class="st296" d="M404.1,542.1c0,0-20-0.5-22.2-9.2c-2.9-11.2,8.8-14.8,23.9-12.3c15,2.5,36.7,14,36.6,33.2"/>
					</g>
				</g>
			</g>
		</g>
		<g>
			<g>
				<line class="st296" x1="494.7" y1="318.7" x2="502.6" y2="569.7"/>
				<polyline class="st296" points="483.7,570.5 449.6,454.1 474.5,443.8 442.4,434.7 432,365.3 				"/>
			</g>
			<g>
				<line class="st296" x1="594" y1="318.7" x2="586.3" y2="566.3"/>
				<polyline class="st296" points="606.5,565.5 639.1,454.1 614.3,443.8 646.4,434.7 656.8,365.3 				"/>
			</g>
		</g>
	</g>
	<g>
		<g>
			<polygon class="st297" points="596,319.6 574.7,295.1 548.8,295.1 540.4,295.1 514.5,295.1 493.2,319.6 509.9,368.1 544.6,338.6 
				579.3,368.1 			"/>
		</g>
		<path class="st298" d="M505.8,288.8c0,0-27.3-12.7-37.1-36.7c-9.8-24-7.8-74.7,7-94.1c14.7-19.4,49-27.5,68.8-18.7
			c0,0,30.4-3.9,48,4.9c31.4,15.7,26.5,73.8,17.8,108.2c-8.1,32.2-61,45.8-61,45.8L505.8,288.8z"/>
		<g>
			<circle class="st298" cx="616.6" cy="298.2" r="45.5"/>
			<path class="st296" d="M620.8,252.7c0,0,36.3-2,45.4,29"/>
		</g>
		<g>
			<g>
				<g>
					<g>
						<path class="st299" d="M543.7,339.9L543.7,339.9c-16.2,0.3-29.5-10.8-29.8-24.9l-0.6-28.1c-0.2-11.2,10.1-20.4,23-20.4l11.5,0
							c13,0,23.8,9.2,24.1,20.5l0.6,26.8C572.7,327.9,559.9,339.6,543.7,339.9z"/>
						<g>
							<g>
								<g>
									<path class="st299" d="M456.9,247.6c-0.1,9.4,7.5,17.1,17,17.2c9.5,0.1,17.2-7.4,17.3-16.8c0.1-9.4-7.5-17.1-17-17.2
										C464.8,230.7,457,238.2,456.9,247.6z"/>
									<g>
										<path class="st10" d="M482,250.2c0-0.4,0-0.7,0-1.1c0-0.4-0.1-0.8-0.1-1.2c0-0.2,0-0.4,0,0c0-0.1,0-0.2-0.1-0.4
											c0-0.3-0.1-0.5-0.2-0.8c-0.1-0.5-0.3-1-0.5-1.6c-0.1-0.3,0.1,0.2-0.1-0.1c-0.1-0.1-0.1-0.2-0.2-0.4
											c-0.2-0.3-0.3-0.6-0.5-0.8c-0.1-0.1-0.2-0.2-0.2-0.3c-0.2-0.3,0.1,0.1-0.1-0.1c-0.2-0.3-0.5-0.5-0.7-0.7
											c-0.1-0.1-0.2-0.2-0.3-0.3c-0.2-0.2,0.2,0.1,0,0c-0.1,0-0.1-0.1-0.2-0.1c-0.3-0.2-0.6-0.4-1-0.5c-0.1,0-0.2-0.1-0.2-0.1
											c-0.1,0-0.1-0.1-0.2-0.1c0.2,0.1,0.2,0.1,0,0c-0.2-0.1-0.4-0.1-0.6-0.2c-0.4-0.1-0.9-0.2-1.3-0.3c0,0-0.4-0.1-0.1,0
											c-0.1,0-0.3,0-0.4,0c-0.3,0-0.5,0-0.8,0c-0.6,0-1.3,0-1.9,0.1c-0.7,0.1-1.3-0.6-1.4-1.3c0-0.8,0.6-1.3,1.3-1.4
											c3.7-0.4,7.6,0.5,10,3.6c1.5,1.9,2.2,4.3,2.3,6.6c0,0.5,0.1,1,0,1.5c-0.1,0.7-0.5,1.3-1.3,1.4
											C482.7,251.5,482,250.9,482,250.2L482,250.2z"/>
									</g>
								</g>
								<g>
									<path class="st299" d="M625.2,246.6c-0.1,9.4-7.8,16.9-17.3,16.8c-9.5-0.1-17.1-7.8-17-17.2c0.1-9.4,7.8-16.9,17.3-16.8
										C617.6,229.5,625.2,237.2,625.2,246.6z"/>
									<g>
										<path class="st10" d="M597.4,248.6c-0.2-4.4,1.9-9,6.1-10.8c2.1-0.9,4.5-1,6.8-0.7c0.7,0.1,1.1,1,1,1.6
											c-0.2,0.8-0.9,1-1.6,1c-1.7-0.2-3.4-0.1-5,0.5c-0.1,0-0.6,0.2-0.3,0.1c-0.2,0.1-0.3,0.1-0.5,0.2c-0.3,0.2-0.6,0.4-0.9,0.6
											c-0.3,0.2,0.1-0.1-0.2,0.1c-0.1,0.1-0.2,0.2-0.3,0.3c-0.2,0.2-0.4,0.5-0.6,0.7c0,0.1-0.1,0.1-0.1,0.2
											c0.2-0.3,0.1-0.1,0-0.1c-0.1,0.1-0.2,0.2-0.2,0.4c-0.2,0.3-0.3,0.5-0.5,0.8c-0.1,0.1-0.1,0.2-0.2,0.4
											c0,0.1-0.2,0.5-0.1,0.1c-0.1,0.3-0.2,0.5-0.3,0.8c-0.1,0.5-0.3,1-0.4,1.4c0,0.2-0.1,0.4-0.1,0.6c0,0.1-0.1,0.4,0,0
											c0,0.1,0,0.2,0,0.3c0,0.4-0.1,0.9,0,1.3C600.1,250.3,597.5,250.3,597.4,248.6L597.4,248.6z"/>
									</g>
								</g>
							</g>
							<path class="st299" d="M595.3,251.1c0.3,25.6-20.5,46.8-46.1,47.1l-15.1,0.2c-25.6,0.3-46.8-20.5-47.1-46.1l-0.5-50.3
								c-0.3-25.6,20.5-46.8,46.1-47.1l15.1-0.2c25.6-0.3,46.8,20.5,47.1,46.1L595.3,251.1z"/>
							<g>
								<path class="st296" d="M553.9,258.6c-0.6,5.3-5.1,9.5-10.5,9.5c-5.5,0.1-10-4-10.7-9.3"/>
								<g>
									<path class="st10" d="M512,225.7c-0.1,3.5-2.9,6.2-6.4,6.1c-3.5-0.1-6.2-2.9-6.1-6.4c0.1-3.5,2.9-6.2,6.4-6.1
										C509.4,219.4,512.1,222.2,512,225.7z"/>
									<path class="st10" d="M578.5,224.3c-0.1,3.5-2.9,6.2-6.4,6.1c-3.5-0.1-6.2-2.9-6.1-6.4c0.1-3.5,2.9-6.2,6.4-6.1
										C575.8,218,578.5,220.9,578.5,224.3z"/>
								</g>
								<g>
									<path class="st300" d="M565.6,210.7c0,0,8.9-2.2,15.7,2.6"/>
									<path class="st300" d="M511.7,211.8c0,0-8.9-1.8-15.5,3.2"/>
								</g>
								<polyline class="st296" points="540.3,215.4 535.3,240.3 544.4,240.1 								"/>
							</g>
						</g>
						<g>
							<path class="st298" d="M482.5,225.6c0,0,37.5-8.5,50.1-26.6c0,0-2.8,6.6-9.6,12.5c-2.4,2.1-10.3,7.8-10.3,7.8
								s18.5-1.5,31.7-20.3l0.9-1.9c0,0-7.9,14.4-18.4,19.7c0,0,11.1-0.1,25.7-14.1c18.6-17.7,14.6-52.9,14.6-52.9l-46.3-3.1
								l-24.8,14.1l-9.7,21.6L482.5,225.6z"/>
							<path class="st298" d="M599.3,219.3c0,0-0.6-41.7-5.7-49.7c-1.3-2-2.7-3.5-4.1-4.6c-5.7-5.8-16.6-14.9-27.9-14.1
								c-16.5,1,5.4,22.9,5.4,22.9C570,179.4,586.2,209.2,599.3,219.3z"/>
						</g>
					</g>
				</g>
			</g>
		</g>
	</g>
</g>
</svg>
