<svg xmlns="http://www.w3.org/2000/svg" xmlns:xlink="http://www.w3.org/1999/xlink" viewBox="0 0 800 800"><defs><style>.cls-1,.cls-11,.cls-17,.cls-20,.cls-26,.cls-29,.cls-3,.cls-32,.cls-33,.cls-6{fill:none;}.cls-2{isolation:isolate;}.cls-17,.cls-26,.cls-3,.cls-33{stroke:#606060;}.cls-11,.cls-17,.cls-24,.cls-26,.cls-3,.cls-31,.cls-33,.cls-8{stroke-miterlimit:10;}.cls-3{stroke-width:1.88px;}.cls-4{clip-path:url(#clip-path);}.cls-19,.cls-23,.cls-24,.cls-30,.cls-31,.cls-5,.cls-8,.cls-9{fill:#fff;}.cls-11,.cls-19,.cls-20,.cls-24,.cls-29,.cls-30,.cls-31,.cls-32,.cls-5,.cls-6,.cls-8,.cls-9{stroke:#1c1d3e;}.cls-11,.cls-19,.cls-20,.cls-29,.cls-30,.cls-32,.cls-5,.cls-6,.cls-9{stroke-linecap:round;}.cls-19,.cls-20,.cls-29,.cls-30,.cls-32,.cls-5,.cls-6,.cls-9{stroke-linejoin:round;}.cls-5,.cls-6,.cls-8{stroke-width:0.92px;}.cls-7{fill:#a3195b;}.cls-9{stroke-width:1.13px;}.cls-10{fill:#1c1d3e;}.cls-11{stroke-width:1.85px;}.cls-12{fill:#505ea8;}.cls-13{clip-path:url(#clip-path-2);}.cls-14{clip-path:url(#clip-path-3);}.cls-15{clip-path:url(#clip-path-4);}.cls-16{clip-path:url(#clip-path-5);}.cls-17{stroke-width:2.35px;}.cls-18{clip-path:url(#clip-path-6);}.cls-19,.cls-20,.cls-24{stroke-width:1.11px;}.cls-21{fill:#82368c;}.cls-22{fill:#c5c1d2;}.cls-25{fill:#5c5c5c;}.cls-26{stroke-width:1.88px;}.cls-27{clip-path:url(#clip-path-7);}.cls-28{fill:#ffde00;}.cls-29,.cls-30,.cls-31{stroke-width:1.32px;}.cls-32{stroke-width:2.64px;}.cls-33{stroke-width:2.62px;}.cls-34{mix-blend-mode:multiply;opacity:0.75;}.cls-35{fill:#b2b2b2;}</style><clipPath id="clip-path"><circle class="cls-1" cx="199.03" cy="606.44" r="110.05"/></clipPath><clipPath id="clip-path-2"><path class="cls-1" d="M215.17,773.62s.59,22.18,3.55,35.37C240,811.62,254.1,797.2,254.1,797.2s-3.17-21.31-3.83-21.21S220,767.41,220,767.41Z"/></clipPath><clipPath id="clip-path-3"><path class="cls-1" d="M257,757.16l3.34-33.54s27,6.06,27,7.11,11.4,15.47,9.42,22.1-20.36,11.88-21.17,11.88S257,757.16,257,757.16Z"/></clipPath><clipPath id="clip-path-4"><path class="cls-1" d="M158.16,715.18c.07.62,8.19,38.59,8.19,38.59s-23.58-10.1-23.59-11.65-5-21.56-4.5-21.72,15.2-6.81,15.2-6.81Z"/></clipPath><clipPath id="clip-path-5"><path class="cls-1" d="M133.39,721.84l3.75,37.68-26.21-7.18s-11.32-5.25-11.32-6.49S101,730,101.92,728.79s9.63-9.77,9.63-9.77Z"/></clipPath><clipPath id="clip-path-6"><circle class="cls-1" cx="600.84" cy="601.73" r="110.19"/></clipPath><clipPath id="clip-path-7"><circle class="cls-1" cx="399.25" cy="237.55" r="155.49"/></clipPath></defs><g class="cls-2"><g id="Layer_1" data-name="Layer 1"><circle class="cls-3" cx="199.03" cy="606.44" r="111.49"/><g class="cls-4"><path class="cls-5" d="M279.64,871.73s24.4-18.61,25.58-75-13.78-87.27-33.06-114.52-66.52-42.63-72.63-43.4-4,145.66-1.9,155.89S279.64,871.73,279.64,871.73Z"/><path class="cls-5" d="M197.63,794.75c2.1,10.24,82,77,82,77"/><path class="cls-5" d="M259.17,771.22s17-.6,31.49,4.77"/><path class="cls-5" d="M265.76,764.71a48,48,0,0,1,21-.58"/><path class="cls-5" d="M114.23,871.73s-24.41-18.61-25.59-75,13.78-87.27,33.07-114.52,66.52-42.63,72.62-43.4,4,145.66,1.9,155.89S114.23,871.73,114.23,871.73Z"/><path class="cls-5" d="M196.23,794.75c-2.09,10.24-82,77-82,77"/><path class="cls-5" d="M134.7,771.22s-17-.6-31.49,4.77"/><path class="cls-5" d="M128.11,764.71a48,48,0,0,0-21-.58"/><path class="cls-5" d="M149.83,827.4h86.41s5-170.36-19.19-182.73-64-3.1-75.79,60.38S149.83,827.4,149.83,827.4Z"/><line class="cls-6" x1="198.18" y1="648.06" x2="195.51" y2="826.27"/><polygon class="cls-5" points="220.17 646.51 212.02 635.95 199.93 635.95 195.98 635.95 183.88 635.95 173.51 646.19 181.75 670.05 197.95 656.28 214.16 670.05 220.17 646.51"/><path class="cls-7" d="M172,612.29c-1.46.26-8.16-13.35-8.63-24.61s3.95-36.31,34.48-33.51c10.41,1,33.58,1.11,33.49,28.12-.1,27.24-12.2,42.81-14.91,44.3S194.32,608.44,172,612.29Z"/><rect class="cls-8" x="183.38" y="617.42" width="28.34" height="34.55" rx="11.45"/><ellipse class="cls-8" cx="227.04" cy="610.4" rx="7.43" ry="7.73" transform="translate(-2.75 1.03) rotate(-0.26)"/><path class="cls-6" d="M223,611.33s-.22-5.26,4.91-4.56"/><path class="cls-8" d="M160.63,610.16a7.44,7.44,0,1,0,7.59-7.56A7.6,7.6,0,0,0,160.63,610.16Z"/><path class="cls-6" d="M172.06,611.44s.44-5.24-4.72-4.78"/><path class="cls-8" d="M221,616.33c0,9.52-7.46,17.31-16.54,17.3l-13.94,0c-9.09,0-16.52-7.81-16.51-17.34l0-30.59c0-9.52,7.45-17.3,16.54-17.29h13.94c9.09,0,16.51,7.82,16.5,17.34Z"/><path class="cls-9" d="M189.38,615.54c.52,2.87,4,5.11,8.16,5.11s7.65-2.22,8.17-5.09Z"/><path class="cls-6" d="M197.35,597.48q-1.15,5.21-2.22,10.42l4.4.21"/><path class="cls-10" d="M185.18,600.6a2.18,2.18,0,1,1-2.22-2.24A2.23,2.23,0,0,1,185.18,600.6Z"/><path class="cls-10" d="M214.71,600.56a2.19,2.19,0,1,1-2.22-2.24A2.24,2.24,0,0,1,214.71,600.56Z"/><path class="cls-11" d="M179.87,596l6.12-.39"/><path class="cls-11" d="M209.38,595.11l6.62,1.76"/><path class="cls-5" d="M132.64,714.37l5.6,56.16-10.13,97.64s29.81,1.64,42.21-39.36a201,201,0,0,0,8.24-64.1c-2.44-55.34-5.71-118.16-5.71-118.16s-18.67,8.06-24.77,17.12S132.64,714.37,132.64,714.37Z"/><path class="cls-6" d="M172.83,646.14s3.29,63.23,5.73,118.57a201,201,0,0,1-8.24,64.1c-12.4,41-42.21,39.36-42.21,39.36l10.13-97.64-5.6-56.16"/><path class="cls-6" d="M171.85,772.81c-.94-1.18-14.81-62.59-14.81-62.59l7.4-1.48-8.58-47.24"/><path class="cls-5" d="M261.22,714.37l-5.6,56.16,10.14,97.64s-29.82,1.64-42.22-39.36a201.27,201.27,0,0,1-8.23-64.1c2.44-55.34,5.7-118.16,5.7-118.16s18.67,8.06,24.77,17.12S261.22,714.37,261.22,714.37Z"/><path class="cls-6" d="M221,646.14s-3.29,63.23-5.73,118.57a201.27,201.27,0,0,0,8.23,64.1c12.4,41,42.22,39.36,42.22,39.36l-10.14-97.64,5.6-56.16"/><path class="cls-6" d="M222,772.81c.93-1.18,14.81-62.59,14.81-62.59l-7.41-1.48L238,661.5"/><path class="cls-7" d="M222.58,590.61a8.31,8.31,0,0,1,4.87-1.77,9.34,9.34,0,0,1-3-5.69c-2,3.92-6.9,6-11.78,4.72a11.09,11.09,0,0,1-5.36-3.2,11.22,11.22,0,0,1-4.41-.24,10.81,10.81,0,0,1-6.84-5.31,11.45,11.45,0,0,1-2.44-.33,12.05,12.05,0,0,1-1.94-.7c-1.62,4.26-6.42,6.69-11.4,5.72a6.74,6.74,0,0,1-.17,1.17c-1.31,5-6.88,7.93-12.44,6.47a11,11,0,0,1-5.54-3.42,11.16,11.16,0,0,1-4.24-.28c-5.56-1.45-9-6.7-7.69-11.73a8,8,0,0,1,.77-1.91,8.77,8.77,0,0,1,3.27-12.82,8.65,8.65,0,0,1,.14-3.61c1.11-4.23,5.22-6.91,9.8-6.81a8.58,8.58,0,0,1,0-4.06c1.31-5,6.88-7.92,12.44-6.47a11.34,11.34,0,0,1,3.42,1.55c0-.21,0-.42.1-.64,1.18-4.52,6.19-7.12,11.19-5.82a10,10,0,0,1,3.2,1.47,10.44,10.44,0,0,1,10.84-3.3,10.94,10.94,0,0,1,6,4,8.48,8.48,0,0,1,6.23-.74,8,8,0,0,1,6.11,6.81,11.42,11.42,0,0,1,6.31-.14c5.69,1.49,9.22,6.87,7.88,12a8.9,8.9,0,0,1-2.68,4.32c4.23,1.56,6.77,5.73,5.72,9.77a7.59,7.59,0,0,1-3.4,4.49c4.8,1.73,7.69,6.45,6.5,11-1.09,4.16-5.18,6.79-9.71,6.59a7.08,7.08,0,0,1-3.37,11.81Z"/><path class="cls-12" d="M115.64,793.85a11.44,11.44,0,0,0-21.35,3,11.94,11.94,0,0,0,8.56,14.35,11.23,11.23,0,0,0,10-2.35,11.44,11.44,0,0,0,21.35-3,11.94,11.94,0,0,0-8.56-14.35A11.26,11.26,0,0,0,115.64,793.85Z"/><g class="cls-13"><path class="cls-12" d="M231.42,782.15a11.44,11.44,0,0,0-21.35,3,12,12,0,0,0,8.56,14.35,11.26,11.26,0,0,0,10-2.34,11.43,11.43,0,0,0,21.35-3,11.94,11.94,0,0,0-8.56-14.35A11.31,11.31,0,0,0,231.42,782.15Z"/></g><g class="cls-14"><path class="cls-12" d="M269.74,736a11.43,11.43,0,0,0-21.35,3A11.94,11.94,0,0,0,257,753.35a11.31,11.31,0,0,0,10-2.35,11.44,11.44,0,0,0,21.35-3,12,12,0,0,0-8.56-14.35A11.26,11.26,0,0,0,269.74,736Z"/></g><g class="cls-15"><path class="cls-12" d="M169.66,730.37a11.44,11.44,0,0,0-21.35,3,11.94,11.94,0,0,0,8.56,14.35,11.27,11.27,0,0,0,10-2.35,11.44,11.44,0,0,0,21.35-3A11.94,11.94,0,0,0,179.63,728,11.26,11.26,0,0,0,169.66,730.37Z"/></g><g class="cls-16"><path class="cls-12" d="M123.59,731.18a11.44,11.44,0,0,0-21.35,3,11.94,11.94,0,0,0,8.56,14.35,11.28,11.28,0,0,0,10-2.35,11.44,11.44,0,0,0,21.35-3,12,12,0,0,0-8.56-14.35A11.26,11.26,0,0,0,123.59,731.18Z"/></g></g><line class="cls-17" x1="399.15" y1="394.06" x2="399.15" y2="428.98"/><path class="cls-17" d="M197.87,494.29V477.52a47.93,47.93,0,0,1,47.93-47.94H552.88a47.93,47.93,0,0,1,47.93,47.94V490.1"/><g class="cls-18"><path class="cls-19" d="M611.78,623.61s50,22.33,69.29,53.55c32.66,53,36.93,129.36,36.93,129.36l-28.69,2.12s4.79,64.72,3.85,71.53S519,891.55,519,891.55s-10.73-143.38-4.09-169.82S552,624.63,611.78,623.61Z"/><line class="cls-20" x1="677.09" y1="718" x2="686.06" y2="808.64"/><path class="cls-21" d="M617,638.38a3.86,3.86,0,0,0-3.21-1.5l-10.4.39L593,636.88a3.82,3.82,0,0,0-3.2,1.5,3.78,3.78,0,0,0-.66,3.28l4.49,17.11a3.85,3.85,0,0,0,3.72,2.86h12.11a3.84,3.84,0,0,0,3.72-2.86l4.49-17.11A3.81,3.81,0,0,0,617,638.38Z"/><polygon class="cls-21" points="597.09 657.23 585.86 778.96 605.41 806.51 620.93 776.28 608.98 654.63 597.09 657.23"/><line class="cls-20" x1="596.04" y1="661.41" x2="610.18" y2="661.41"/><path class="cls-19" d="M798.55,807.77a37.2,37.2,0,0,0,10.23-2.5c5.71-2.23,8.87-6.71,8.15-10.66s-14.16,1.43-16.6,4.17S794.32,805.91,798.55,807.77Z"/><path class="cls-22" d="M733.21,808.94,826,798.23a6.29,6.29,0,0,0,5.22-4.17l32.71-94.21a6.26,6.26,0,0,0-6.13-8.3l-94.42,2.71a6.28,6.28,0,0,0-5.84,4.45l-31,102.2A6.27,6.27,0,0,0,733.21,808.94Z"/><path class="cls-20" d="M814.31,753c-3.29,5.67-9.84,8-14.64,5.27s-6-9.58-2.72-15.25,9.84-8,14.63-5.28S817.6,747.35,814.31,753Z"/><polyline class="cls-20" points="829.9 797.78 727.36 809.62 645.24 814.94"/><path class="cls-23" d="M806.05,776c-5.35-1.67-5.62,6.34-5.62,6.34v0c-1-3.37-3.16-3.68-4.66-3.36-3.62.8-5.15,6.88-5.15,6.88l-.21.68c-.47-2.1-1.76-3.2-4.22-3-6.42.61-13.45,21.08-13.45,21.08l.31-1.44-34.58,5.09c-.53,2.53,2,8.37,3.12,10.06.51.77,7.77-1.42,8.17-.7,2.73,4.83,10.93,5.53,15.19,5.14,5.88-.53,13.39-6.06,16.72-8.86h0c3.53,1,7.43-1,7.43-1a15,15,0,0,0,3-2.28h0c9.29-1.82,15.62-10,16.38-14C808.49,796.68,811.4,777.67,806.05,776Z"/><path class="cls-20" d="M773,803.87l-35.28,4.55,3.54,10.15L749,817.3s2.1,1.66,2.77,2.22c3.57,3,9.57,3.64,13.21,3.31,6.73-.61,15.59-7.75,17.88-9.88s4.89-9.74,4.89-9.74c3.36-11.86,4.89-20.22-1.53-19.61s-13.45,21.08-13.45,21.08"/><path class="cls-20" d="M790.61,785.88s1.53-6.08,5.15-6.88c2.52-.55,6.93.64,4.48,15.12S789.09,813,789.09,813s-3.9,2-7.43,1"/><path class="cls-20" d="M800.43,782.33s.27-8,5.62-6.34,2.44,20.69,2.44,20.69c-.76,4-7.09,12.17-16.38,14"/><path class="cls-19" d="M689.57,763.91s12.8-4.18,17.22-1.4.24,7-4.65,8.12S687.79,767.07,689.57,763.91Z"/><path class="cls-23" d="M713.22,772.85c-8.73-7.64-30.72-18.75-43.64-14s-52.71,22.67-56.2,28.73-2.44,35.28,15.22,30.18,38.54-25.47,41.68-25.13S695.85,795,696.11,788h0c4.89,2.55,11.69,2.35,13.08,0a4,4,0,0,0,.59-1.5l0,0c3.25,1.12,5.49-.38,5.72-2.75l.37,0C718.62,782.81,722,780.5,713.22,772.85Z"/><path class="cls-20" d="M666.09,779.92s29.33.19,30,7.68-22.69,5.4-25.83,5.06-24,20-41.68,25.12-18.71-24.12-15.22-30.18,43.29-24,56.2-28.73,34.91,6.34,43.64,14,5.4,10,2.69,11"/><path class="cls-20" d="M668.89,772.33s16.93.8,29.32,6,12.39,7.32,11,9.67-8.19,2.55-13.08,0"/><path class="cls-20" d="M677.09,763.12s26.71,9,34,13.82,4.72,11.72-1.3,9.64"/><path class="cls-23" d="M619.06,762.67,514.68,784.59l17.74-3.72,5.09-53.39,41.56-94.87S501.65,649.15,465.88,756c-36.63,109.4,25,123.6,57.23,126.75s118-51,118-51Z"/><path class="cls-20" d="M579.07,632.61S501.65,649.15,465.88,756c-36.63,109.4,25,123.6,57.23,126.75s118-51,118-51l-22.07-69L514.68,784.59"/><line class="cls-20" x1="604.26" y1="772.98" x2="622.82" y2="834.76"/><line class="cls-20" x1="532.42" y1="780.87" x2="537.51" y2="727.48"/><polygon class="cls-19" points="630.47 633.21 618.88 619.84 604.78 619.84 600.19 619.84 586.09 619.84 574.5 633.21 583.61 659.57 602.49 643.53 621.37 659.57 630.47 633.21"/><path class="cls-24" d="M586.74,608.24h31.5a0,0,0,0,1,0,0v17.24a10,10,0,0,1-10,10H596.75a10,10,0,0,1-10-10V608.24A0,0,0,0,1,586.74,608.24Z"/><path class="cls-25" d="M566.74,583.29s-7.54-12.71-5.51-30.94c3.33-30,36.91-32.37,41-32.37,3,0,9.23,2.64,9.23,2.64a31.29,31.29,0,0,1,10.34.87c10.79,3.14,19,11,20.56,22.52,2.35,17.84-4.19,42.28-4.78,45.13S578,603.09,566.74,583.29Z"/><path class="cls-24" d="M554.58,588.26a9.61,9.61,0,1,0,9.9-9.25A9.57,9.57,0,0,0,554.58,588.26Z"/><path class="cls-10" d="M568.61,590a4.28,4.28,0,0,0,0-.62c0-.22,0-.44,0-.65s0-.25,0,0a1.2,1.2,0,0,0,0-.2l-.09-.44a6.28,6.28,0,0,0-.27-.87c-.08-.2.06.12,0-.07s-.06-.13-.1-.2a4.39,4.39,0,0,0-.27-.47c0-.07-.09-.13-.13-.19s.08.08-.06-.07-.26-.29-.4-.43l-.19-.16c-.12-.11.1.07,0,0l-.1-.08a4.07,4.07,0,0,0-.53-.31l-.13-.06-.1,0h0l-.34-.12a5.11,5.11,0,0,0-.75-.18s-.24,0-.08,0l-.21,0a3.25,3.25,0,0,0-.44,0,9.33,9.33,0,0,0-1.06,0,.74.74,0,0,1,0-1.48,6.13,6.13,0,0,1,5.56,2.11,6.86,6.86,0,0,1,1.24,3.75,5.77,5.77,0,0,1,0,.83.76.76,0,0,1-.74.74.74.74,0,0,1-.74-.74Z"/><path class="cls-24" d="M648.9,589.61a9.61,9.61,0,1,1-9.32-9.83A9.57,9.57,0,0,1,648.9,589.61Z"/><path class="cls-10" d="M633.31,590.42a6.17,6.17,0,0,1,3.52-6,7.39,7.39,0,0,1,3.82-.3.74.74,0,0,1,.52.91.77.77,0,0,1-.91.52,6,6,0,0,0-2.79.21l-.15.06-.26.12a4,4,0,0,0-.52.32c-.17.12.06-.06-.1.07l-.19.18c-.13.12-.25.25-.37.38l-.07.1c.11-.14.05-.07,0,0a1.43,1.43,0,0,1-.14.2c-.09.15-.18.3-.26.45a2,2,0,0,0-.1.21s-.13.29,0,.07c-.06.15-.11.29-.16.44a5.54,5.54,0,0,0-.21.8c0,.12,0,.24-.07.36s-.08.24,0,0a1,1,0,0,0,0,.17c0,.25,0,.5,0,.75,0,1-1.45,1-1.48,0Z"/><rect class="cls-24" x="561.65" y="547" width="80.49" height="60.77" rx="26.14" transform="translate(18.45 1173.4) rotate(-89.42)"/><path class="cls-10" d="M585.73,576.6a3.52,3.52,0,1,1-3.37-3.66A3.53,3.53,0,0,1,585.73,576.6Z"/><path class="cls-10" d="M623,576.6a3.52,3.52,0,1,1-3.36-3.66A3.52,3.52,0,0,1,623,576.6Z"/><path class="cls-10" d="M578.88,571.73c.5-.27,1-.52,1.52-.74l-.53.23a16.2,16.2,0,0,1,3.69-1,2.28,2.28,0,0,0,1.33-1,2.25,2.25,0,0,0,.22-1.72,2.2,2.2,0,0,0-1-1.33l-.53-.22a2.19,2.19,0,0,0-1.19,0,17.52,17.52,0,0,0-5.74,2,2.24,2.24,0,0,0-.8,3,2.28,2.28,0,0,0,3,.8Z"/><path class="cls-10" d="M625.41,567.88a17.52,17.52,0,0,0-5.74-2,2.45,2.45,0,0,0-1.72.22,2.27,2.27,0,0,0-1,1.33,2.29,2.29,0,0,0,.22,1.72,2.17,2.17,0,0,0,1.33,1,16.2,16.2,0,0,1,3.69,1l-.53-.23a16.41,16.41,0,0,1,1.52.74,2.39,2.39,0,0,0,1.72.23,2.36,2.36,0,0,0,1.33-1,2.27,2.27,0,0,0-.8-3Z"/><polyline class="cls-20" points="600.38 569.81 597.92 585.52 603.98 585.52"/><path class="cls-20" d="M591.41,592.94c1.3,5,5.48,8.74,10.49,8.74s9.18-3.71,10.49-8.74Z"/><path class="cls-25" d="M614.92,532.47s-35-5.3-42.88,12.68c-1.22,2.8-5.11,17.93-1.93,17.05,6.12-1.7,12.42-10,15.86-17.44,5.75,4.66,13.31,9.94,14.83,8.71,2.54-2-3.9-11.3-3.9-11.3s17.25,16.43,20,14.58-7.84-15.9-7.84-15.9,22.85,23.58,24.51,16.36S614.92,532.47,614.92,532.47Z"/></g><circle class="cls-26" cx="600.84" cy="601.73" r="111.63"/><g class="cls-27"><polygon class="cls-10" points="332.18 732.54 473.86 732.54 464.96 527.76 332.77 534.68 332.18 732.54"/><polygon class="cls-28" points="367.32 493.4 375.05 739.98 243.53 739.98 261.91 513.68 367.32 493.4"/><polyline class="cls-29" points="255.09 597.54 261.91 513.68 367.32 493.4 375.05 739.98"/><polyline class="cls-29" points="261.91 573.32 300.94 573.32 300.94 539.14"/><polygon class="cls-28" points="430.62 480.5 430.62 739.98 539.9 736.93 517.37 501.55 430.62 480.5"/><polyline class="cls-29" points="526.57 597.6 517.37 501.55 430.62 480.5 430.62 739.98"/><polyline class="cls-29" points="475.03 545.17 475.03 575.8 518.68 578.7"/><path class="cls-30" d="M367.32,466.09h66.23l3-193.24A69.27,69.27,0,0,0,407,262.94c-16.74-1.41-26.79,1.81-35.33,4.42-2.55.78-10.34,3.37-10.34,3.37Z"/><polygon class="cls-28" points="430.62 466.09 436.51 272.85 500.55 328.17 485.62 475.04 430.62 466.09"/><path class="cls-28" d="M360.41,272.85l5.89,193.24-57.88,3.66-27.9-117.17s14.83-40.78,39-56.58S360.41,272.85,360.41,272.85Z"/><path class="cls-28" d="M436.49,270.73C483.63,288,535.3,332.19,563.23,409.39c19.95,55.15,2.82,133.17-72.44,150.6-83,19.21-185.46-3.13-185.46-3.13l10.31-84.12,108.21,2.92,54.23-11.28,7.66-77.21-51-61Z"/><path class="cls-29" d="M554.05,515.2c-12.51,21.09-33,37.77-63.26,44.79-83,19.21-185.46-3.13-185.46-3.13l10.31-84.12,108.21,2.92,54.23-11.28,7.66-77.21"/><path class="cls-23" d="M554.26,469.44a31.28,31.28,0,0,0-2.75-4.9h0s5.07-4.21-3.13-13.67c-4.89-5.64-18.5-11.81-25.83-11.44-10,.52-23.43,8.79-32.1,13.3s-49.82,16.32-49.82,16.32l5.69,41.62s34-.57,49.66-8.92,27-7.45,36.34-1.19,14.22,4.1,16.68-.35c1-1.78-.59-4.62-3.32-7.67h0c5.68,2.88,9-2.2,8.76-5.56a17,17,0,0,0-2.59-6.45l0,0C554.7,481.58,557.32,476.2,554.26,469.44Z"/><path class="cls-29" d="M513.2,464.14s16.81-2.7,26.58,3.83,14.47,15.66,14.68,19-3.08,8.44-8.76,5.56"/><path class="cls-29" d="M511.81,453.53s17.67-4.41,26-.29,13.36,9.43,16.42,16.2.44,12.14-2.35,11.13"/><path class="cls-29" d="M551.52,464.54s5.07-4.21-3.13-13.67c-4.89-5.64-18.5-11.81-25.83-11.44-10,.52-23.43,8.79-32.1,13.3s-49.82,16.32-49.82,16.32l5.69,41.62s34-.57,49.66-8.92,27-7.45,36.34-1.19,14.22,4.1,16.68-.35-11-15.5-18.94-20.1S512,476.62,512,476.62"/><path class="cls-28" d="M360.35,270.73s-37.75,7.62-83.73,54c-37.73,38-85.4,122.94-38.13,198.51s211.2,23.4,211.2,23.4L446,457.36l-131.74,5.33-14.14-37.55-10.5-57.91L361.73,315Z"/><path class="cls-10" d="M432.76,534.57a4.45,4.45,0,1,1-5.28-3.42A4.44,4.44,0,0,1,432.76,534.57Z"/><path class="cls-10" d="M415.77,538.21a4.45,4.45,0,1,1-5.28-3.43A4.44,4.44,0,0,1,415.77,538.21Z"/><path class="cls-10" d="M399.83,540.85a4.45,4.45,0,1,1-5.29-3.42A4.47,4.47,0,0,1,399.83,540.85Z"/><path class="cls-29" d="M314.7,462.65,447,457.36l3.7,89.25s-163.94,52.18-211.2-23.4"/><path class="cls-29" d="M255.71,469.72s17.51-10.33,49.74-9c0,0-26.54,21.66-34.72,39.85"/><line class="cls-29" x1="300.94" y1="421.9" x2="292.04" y2="375.19"/><path class="cls-30" d="M298.19,432.5s-12.33-11.73-9.07-17.61,13.55.23,17.92,7.15,1.92,16.81-.62,15.79S298.19,432.5,298.19,432.5Z"/><path class="cls-23" d="M326.08,455.78l-1.74-1.21c-1.5-3.61-1.65-4-3.46-6.33l.89.27c.06-14.51-16.33-23.2-27.7-25.08s-20.23.88-18.05,9.33c1.7,6.57,16.8,6.93,16.8,6.93l.18.05c-9,.91-18.95,3.6-19.4,10.21-.7,10.52,8.3,8.2,8.3,8.2-1.38,6.77.65,10.88,17.12,6.77S332.18,462,332.18,462A31.18,31.18,0,0,0,326.08,455.78Z"/><path class="cls-29" d="M332.18,462s-16.69-1.2-33.16,2.91-18.5,0-17.12-6.77,25.69-10,31.14-8.34S326.11,453.68,332.18,462Z"/><path class="cls-29" d="M281.9,458.15s-9,2.32-8.3-8.2,25.53-11.11,32.09-10.39,13.17,1.8,18.65,15"/><path class="cls-29" d="M292.82,439.69s-15.1-.36-16.8-6.93c-2.18-8.45,6.69-11.21,18.05-9.33s27.76,10.57,27.7,25.08"/><line class="cls-29" x1="361.37" y1="270.73" x2="367.32" y2="460.55"/><polyline class="cls-29" points="353 461.17 327.24 373.11 346.06 365.36 321.77 358.46 313.88 305.91"/><line class="cls-29" x1="436.49" y1="270.73" x2="430.62" y2="457.97"/><polyline class="cls-29" points="445.95 457.41 470.62 373.11 451.79 365.36 476.09 358.46 483.97 305.91"/><path class="cls-21" d="M369.72,248.09s-20.63-9.63-28-27.8S335.81,163.8,347,149.1s37-20.8,52-14.17c0,0,23-2.93,36.29,3.74,23.72,11.88,20,55.8,13.48,81.85-6.11,24.34-46.15,34.66-46.15,34.66Z"/><circle class="cls-21" cx="453.56" cy="255.18" r="34.44"/><path class="cls-29" d="M456.7,220.76s27.43-1.53,34.31,21.92"/><path class="cls-31" d="M398.41,286.72h0c-12.22.25-22.31-8.19-22.53-18.84l-.44-21.24c-.17-8.48,7.65-15.44,17.38-15.47l8.72,0c9.83,0,18,7,18.2,15.53l.41,20.29C420.37,277.63,410.64,286.47,398.41,286.72Z"/><path class="cls-31" d="M332.78,216.93a13,13,0,1,0,13.1-12.74A12.92,12.92,0,0,0,332.78,216.93Z"/><path class="cls-10" d="M351.75,218.85a7.48,7.48,0,0,0,0-.82c0-.3,0-.6-.08-.89,0-.12,0-.33,0,0a1.17,1.17,0,0,0-.05-.27,5.43,5.43,0,0,0-.13-.58,7.77,7.77,0,0,0-.39-1.18c-.1-.26.09.17,0-.08,0-.09-.08-.18-.13-.27a6.58,6.58,0,0,0-.38-.63l-.18-.26c-.17-.22.1.11-.08-.09a5.92,5.92,0,0,0-.56-.56l-.26-.22c-.17-.14.14.1,0,0l-.15-.1a6.37,6.37,0,0,0-.72-.41l-.17-.08-.14-.06c.12.05.13.05,0,0l-.46-.15a7,7,0,0,0-1-.22s-.33,0-.1,0l-.29,0-.6,0a11.4,11.4,0,0,0-1.43.06,1,1,0,0,1,0-2c2.83-.27,5.73.38,7.56,2.69a9.16,9.16,0,0,1,1.77,5,7,7,0,0,1,0,1.12,1,1,0,0,1-1,1,1,1,0,0,1-1-1Z"/><path class="cls-31" d="M460,216.15a13,13,0,1,1-12.84-13A12.92,12.92,0,0,1,460,216.15Z"/><path class="cls-10" d="M439,217.67c-.17-3.3,1.46-6.81,4.58-8.15a10.14,10.14,0,0,1,5.15-.53,1,1,0,0,1,.73,1.22,1,1,0,0,1-1.22.73,7.9,7.9,0,0,0-3.75.36c-.06,0-.42.18-.21.08l-.34.17a6.2,6.2,0,0,0-.69.44c-.23.17.07-.08-.14.11l-.25.24c-.17.17-.33.35-.48.53l-.1.13c.15-.19.06-.09,0,0s-.12.17-.18.27-.24.4-.34.61-.09.19-.14.28-.15.4,0,.1c-.08.2-.15.39-.21.59a8.37,8.37,0,0,0-.26,1.1c0,.16-.06.32-.08.48s-.11.32,0,0a.9.9,0,0,0,0,.23,6.78,6.78,0,0,0,0,1c.07,1.29-1.94,1.33-2,0Z"/><path class="cls-31" d="M437.49,219.55a35.37,35.37,0,0,1-34.9,35.63l-11.45.12a35.36,35.36,0,0,1-35.63-34.89l-.4-38A35.37,35.37,0,0,1,390,146.73l11.45-.12a35.37,35.37,0,0,1,35.63,34.9Z"/><path class="cls-29" d="M406.12,225.25a8.1,8.1,0,0,1-16.09.17"/><path class="cls-10" d="M374.47,200.35a4.75,4.75,0,1,1-4.65-4.85A4.76,4.76,0,0,1,374.47,200.35Z"/><path class="cls-10" d="M424.72,199.32a4.75,4.75,0,1,1-4.65-4.85A4.76,4.76,0,0,1,424.72,199.32Z"/><path class="cls-32" d="M415,189s6.7-1.63,11.85,2"/><path class="cls-32" d="M374.19,189.82s-6.76-1.36-11.76,2.45"/><polyline class="cls-29" points="395.81 192.58 392.07 211.4 398.97 211.26"/><path class="cls-21" d="M352.13,200.25s28.39-6.46,37.9-20.13a29.34,29.34,0,0,1-7.26,9.46c-1.85,1.61-7.79,5.92-7.79,5.92s14-1.1,24-15.38l.68-1.43s-6,10.89-13.9,14.93c0,0,8.38-.1,19.48-10.65,14.06-13.35,11-40,11-40l-35.05-2.34L362.43,151.3l-7.32,16.36Z"/><path class="cls-21" d="M440.5,195.5s-.42-31.55-4.32-37.62a12.51,12.51,0,0,0-3.11-3.45c-4.32-4.35-12.55-11.23-21.14-10.69-12.49.8,4.11,17.31,4.12,17.32C418.31,165.31,430.56,187.89,440.5,195.5Z"/></g><circle class="cls-33" cx="399.25" cy="238.15" r="155.49"/><rect class="cls-34" x="-0.85" y="-0.94" width="801.7" height="801.87"/><path class="cls-35" d="M609.7,405.74c-4.82,14.07-16,23.46-25.65,33.74-27.2,28.83-57.6,53.67-92.86,72.16-21.37,11.21-43.85,19.15-67.81,22.37-31.17,4.2-61.34-.16-90.52-11.62-37.47-14.72-69.65-37.62-98.58-65.15C221.56,445.14,209.75,432.05,198,419c-9.92-11-10.2-25.72-.87-37,29.31-35.33,62.89-65.76,103-88.57,24.34-13.84,50.13-23.76,78-27.56,30.64-4.18,60.21.59,88.87,11.71,34.75,13.48,65.26,33.86,92.46,59,15,13.85,28.7,29.09,42.56,44.1,3.44,3.73,5.21,9,7.74,13.56ZM400,490.16a90,90,0,0,0,90.26-90c.06-49.74-40-90.15-89.59-90.27A90.13,90.13,0,1,0,400,490.16Z"/><path class="cls-35" d="M400,464.64a64.64,64.64,0,0,1-64.49-64.95c.06-35.4,29.2-64.33,64.76-64.3a64.73,64.73,0,0,1,64.49,65C464.7,435.83,435.64,464.67,400,464.64Z"/></g></g></svg>