<svg xmlns="http://www.w3.org/2000/svg" viewBox="0 0 800 800"><defs><style>.cls-1{isolation:isolate;}.cls-2{fill:#cd4577;}.cls-3,.cls-5{fill:#fff;}.cls-15,.cls-4{fill:#1c1d3e;}.cls-5,.cls-6{stroke:#1c1d3e;}.cls-15,.cls-5,.cls-6{stroke-linecap:round;stroke-linejoin:round;stroke-width:2.05px;}.cls-18,.cls-6{fill:none;}.cls-7{fill:#505ea8;}.cls-8{fill:#adc4e7;}.cls-9{fill:#00b0b9;}.cls-10{fill:#8ac6c4;}.cls-11{fill:#f8aa26;}.cls-12{fill:#11448e;}.cls-13{fill:#f09b1e;}.cls-14{fill:#78a9db;}.cls-15{stroke:#fff;}.cls-16{fill:#477ec0;}.cls-17{fill:#4bafe4;}.cls-18{stroke:#1d6dab;stroke-miterlimit:10;stroke-width:9.05px;}.cls-19{mix-blend-mode:multiply;opacity:0.75;}.cls-20{opacity:0.7;}.cls-21{fill:#b2b2b2;}</style></defs><g class="cls-1"><g id="Layer_1" data-name="Layer 1"><circle class="cls-2" cx="318.85" cy="440.89" r="266.6"/><circle class="cls-3" cx="318.85" cy="440.89" r="185.07"/><circle class="cls-2" cx="318.85" cy="440.89" r="153.39"/><circle class="cls-3" cx="318.85" cy="440.89" r="106.48"/><circle class="cls-2" cx="318.85" cy="440.89" r="63.13"/><circle class="cls-3" cx="318.85" cy="440.89" r="20.11"/><polygon class="cls-4" points="644.67 735.82 661.06 895.85 397.94 895.85 402.97 733.17 644.67 735.82"/><path class="cls-5" d="M511.68,367.48S440.42,411.28,417.52,498,403,733.17,403,733.17s281.76,12.49,281.76,8.59,18.36-136.39-9.57-207.54-101.8-136.75-101.8-136.75Z"/><path class="cls-6" d="M505.43,398.54S464,587.81,464.51,686.93v48.84"/><path class="cls-7" d="M553.93,533.89a22.09,22.09,0,0,0-19.54,4.6,21.87,21.87,0,0,0-8.32-8.45s-6,10.13-7.76,13.62c-3.18,6.22-9.88,23-9.88,23l-1.8,5a21.86,21.86,0,0,0,22.24-3.73,22.61,22.61,0,0,0,14.56,11.42c12.14,3,24.38-4.78,27.27-17.3S566.07,536.87,553.93,533.89Z"/><path class="cls-8" d="M575.57,503a20,20,0,0,0-7.6,12.43,20.08,20.08,0,0,0-12.67-7.21,19.91,19.91,0,0,0,7.6-12.43A19.91,19.91,0,0,0,575.57,503Z"/><path class="cls-8" d="M419.41,424.18a20.1,20.1,0,0,0-7.61,12.44,20,20,0,0,0-12.66-7.21,19.94,19.94,0,0,0,7.6-12.44A19.86,19.86,0,0,0,419.41,424.18Z"/><path class="cls-8" d="M317.11,569.62a20.08,20.08,0,0,0-7.61,12.43,20,20,0,0,0-12.67-7.21,19.88,19.88,0,0,0,7.61-12.44A19.92,19.92,0,0,0,317.11,569.62Z"/><rect class="cls-9" x="348.04" y="459.66" width="193.29" height="252.5" transform="translate(-132.13 129.49) rotate(-14.45)"/><polygon class="cls-8" points="583.11 692.38 395.92 740.62 382.61 732.29 569.77 684.06 583.11 692.38"/><polygon class="cls-10" points="520.11 447.89 583.11 692.38 569.77 684.06 506.76 439.53 520.11 447.89"/><path class="cls-11" d="M465.64,561.73h75.68a0,0,0,0,1,0,0v35.38a0,0,0,0,1,0,0H465.64a15.55,15.55,0,0,1-15.55-15.55v-4.28a15.55,15.55,0,0,1,15.55-15.55Z" transform="translate(-128.9 142.02) rotate(-14.45)"/><path class="cls-12" d="M481.32,585.66a8.9,8.9,0,1,1-10.84-6.39A8.9,8.9,0,0,1,481.32,585.66Z"/><polygon class="cls-13" points="547.67 554.87 556.09 587.55 544.29 585.17 535.46 550.91 547.67 554.87"/><rect class="cls-11" x="350.9" y="482.2" width="12.67" height="252.5" transform="translate(-140.52 108.38) rotate(-14.45)"/><polygon class="cls-13" points="404.7 738.36 395.92 740.62 382.61 732.29 394.85 729.13 404.7 738.36"/><polygon class="cls-11" points="411.34 730.76 440.03 723.37 448.92 757.87 430.13 744.32 420.23 765.27 411.34 730.76"/><path class="cls-14" d="M442.69,722.69l-34,8.76c-.63.16-1.21,0-1.29-.27s.37-.7,1-.87l34-8.76c.64-.16,1.22,0,1.3.27S443.32,722.52,442.69,722.69Z"/><path class="cls-3" d="M341.4,644.28c-3.81,10.08,1.63,22.61,24.44,30.91s117.3,21.25,117.3,21.25l12.59-65.93s-95.69-38.3-103-32.19,13.52,25.59,13.52,25.59-37-10.46-46.81-12.45-10.62,4.38-9.58,8.15c0,0-9.41.88-6.74,10.91A14,14,0,0,0,341.4,644.28Z"/><path class="cls-6" d="M349.86,619.61s-9.41.88-6.74,10.91c2.95,11.06,36,20.26,36,20.26"/><path class="cls-6" d="M343.12,630.52a14,14,0,0,0-1.72,13.76c3.51,9.16,32.69,19.06,32.69,19.06"/><path class="cls-6" d="M341.4,644.28c-3.81,10.08,1.63,22.61,24.44,30.91s117.3,21.25,117.3,21.25l12.59-65.93s-95.69-38.3-103-32.19,13.52,25.59,13.52,25.59-37-10.46-46.81-12.45-10.62,4.38-9.58,8.15c1.45,5.27,10.87,11.62,33.26,17.8"/><path class="cls-3" d="M469.33,707.71l6-95.08L638.63,601.3l-19.48-.37-22.56-87.37L519.43,375.32s121.69,6.28,213.3,145c90.84,137.59,43.7,273-123.43,234.88C467.6,722.92,469.33,707.71,469.33,707.71Z"/><path class="cls-6" d="M519.43,375.32s121.69,6.28,213.3,145c90.84,137.59,43.7,273-123.43,234.88-141.7-32.32-140-47.53-140-47.53l6-95.08L638.63,601.3"/><line class="cls-6" x1="497.77" y1="623.8" x2="497.77" y2="711.51"/><line class="cls-6" x1="619.15" y1="600.93" x2="596.59" y2="513.56"/><path class="cls-7" d="M605.84,437.65a24.43,24.43,0,0,0-15.75-12.36c-13.14-3.23-26.38,5.17-29.51,18.72s5,27.2,18.16,30.43a23.9,23.9,0,0,0,21.13-5,24.48,24.48,0,0,0,15.75,12.36c13.14,3.23,26.38-5.17,29.51-18.72s-5-27.2-18.15-30.43A23.91,23.91,0,0,0,605.84,437.65Z"/><path class="cls-7" d="M673.91,519a24.44,24.44,0,0,0-15.75-12.35c-13.14-3.23-26.38,5.17-29.51,18.72s5,27.19,18.15,30.42a23.94,23.94,0,0,0,21.14-5,24.44,24.44,0,0,0,15.75,12.35c13.14,3.23,26.38-5.17,29.51-18.72s-5-27.2-18.16-30.42A23.92,23.92,0,0,0,673.91,519Z"/><path class="cls-7" d="M690.19,619.34A24.48,24.48,0,0,0,674.44,607c-13.14-3.23-26.38,5.17-29.51,18.72s5,27.19,18.15,30.42a23.92,23.92,0,0,0,21.13-5A24.46,24.46,0,0,0,700,663.5c13.14,3.23,26.37-5.16,29.5-18.72s-5-27.2-18.15-30.42A23.89,23.89,0,0,0,690.19,619.34Z"/><path class="cls-7" d="M579.7,639.67A24.48,24.48,0,0,0,564,627.31c-13.14-3.23-26.38,5.17-29.51,18.72s5,27.2,18.15,30.43a23.91,23.91,0,0,0,21.14-5,24.46,24.46,0,0,0,15.75,12.36c13.14,3.23,26.38-5.17,29.51-18.72s-5-27.2-18.16-30.43A23.89,23.89,0,0,0,579.7,639.67Z"/><path class="cls-7" d="M636.92,710.89a24.51,24.51,0,0,0-15.75-12.36c-13.14-3.23-26.38,5.17-29.51,18.72s5,27.2,18.15,30.43a23.89,23.89,0,0,0,21.13-5,24.48,24.48,0,0,0,15.75,12.36c13.15,3.23,26.38-5.17,29.51-18.72s-5-27.2-18.15-30.43A23.89,23.89,0,0,0,636.92,710.89Z"/><path class="cls-5" d="M478.41,237l28.1.35c18.68.22,33.75,17.81,33.49,39.08L539.47,320c0,1.22-.1,2.44-.21,3.63a17,17,0,0,1,.43,4l-.32,26.51,0,1.48L539,382.13a17.56,17.56,0,0,1-17.71,17.28l-11.14-.14a17.54,17.54,0,0,1-17.28-17.7l.29-23.46-16.25-.2c-18.68-.23-33.75-17.82-33.49-39.08l.53-43.55C444.24,254,459.74,236.8,478.41,237Z"/><path class="cls-4" d="M500,290.19a6.34,6.34,0,1,1-6.26-6.41A6.33,6.33,0,0,1,500,290.19Z"/><path class="cls-4" d="M458.58,288.76a5.41,5.41,0,1,1-5.34-5.47A5.42,5.42,0,0,1,458.58,288.76Z"/><path class="cls-5" d="M464.31,314.74s3.07,9.32,9.79,10,12.09-6.67,12.52-12.48Z"/><polyline class="cls-6" points="474.73 305.14 464.51 298.75 473.69 283.56"/><line class="cls-6" x1="505.43" y1="278.91" x2="493.88" y2="274.7"/><line class="cls-6" x1="458.44" y1="276.3" x2="447.92" y2="276.17"/><path class="cls-15" d="M539.35,313.81a17.41,17.41,0,0,1,11.13,1.55A21.05,21.05,0,0,1,552,301.19a21.71,21.71,0,0,1-33.4-14.63,21.44,21.44,0,0,1-13.94-22.39,22.06,22.06,0,0,1-4.09-3.18,21.31,21.31,0,0,1-2.7-3.35,21.64,21.64,0,0,1-28-.54,22.9,22.9,0,0,1-1.74,2.11,21.78,21.78,0,0,1-30.8-.15,21.54,21.54,0,0,1-6-12.38A21.74,21.74,0,0,1,424,211a21.35,21.35,0,0,1,3.76-2.94,21.73,21.73,0,0,1,21.66-21.67,21.64,21.64,0,0,1,31-10.13,21.65,21.65,0,0,1,40.23-1.18c.33-.38.59-.79,1-1.15a19.59,19.59,0,0,1,27.71.13,19.25,19.25,0,0,1,4.11,6.18,21.62,21.62,0,0,1,30.16,18.7,16.75,16.75,0,0,1,15.31,24.53,22.23,22.23,0,0,1,1.43,43.46,18.57,18.57,0,0,1-13.13,30.23,21,21,0,0,1-27.38,31.06,17.31,17.31,0,0,1-20.61,19.59Z"/><path class="cls-3" d="M575,307.05a22.37,22.37,0,1,1-22.09-22.46A22.28,22.28,0,0,1,575,307.05Z"/><path class="cls-6" d="M540.52,309.56s-.8-15.08,14.65-13.21"/><path class="cls-6" d="M530.29,306.51a22,22,0,0,1,6.94-15.8"/><path class="cls-6" d="M537.23,290.71a22.21,22.21,0,1,1,4.64,35.51,33.2,33.2,0,0,1-5-3.58"/><polygon class="cls-5" points="555.17 382.32 542.34 362.84 505.43 389.23 527.31 427.37 555.17 382.32"/><polygon class="cls-5" points="505.43 389.23 483.56 423.89 481.37 390.29 493.03 371.04 505.43 389.23"/><polygon class="cls-16" points="235.66 368.83 195.26 333.32 201.88 306.01 240.38 339.86 235.66 368.83"/><polygon class="cls-17" points="235.66 368.83 195.26 333.32 169.02 343.38 207.53 377.23 235.66 368.83"/><line class="cls-18" x1="193.19" y1="331.5" x2="319.52" y2="442.56"/><rect class="cls-19" x="-0.85" y="-0.94" width="801.7" height="801.87"/><g class="cls-20"><path class="cls-21" d="M586,487.11q-.25,13.78-.52,27.56c0,1.54,0,3.09,0,5.08h-4.64c-38.16,0-76.31-.18-114.46.18-16.24.15-32.34,2.21-47.32,9.29-3.36,1.59-6.58,3.5-9.85,5.25-3.9-12.74,4.22-27.62,18-32.76,12.6-4.69,25.82-5,39-5.07,29.19-.16,58.38-.05,87.57-.05,8.77,0,11.41-2.67,11.41-11.55V303.14H586Z"/><path class="cls-21" d="M391,493.08c-2.92-1.22-5.6-2-7.94-3.39-6.75-4-14.45-4.12-21.7-4.55-17.14-1-34.36-.88-51.54-1-17.93-.13-35.86,0-53.8,0h-4.23V264.94c1-.07,2.06-.2,3.11-.2,26.17,0,52.34-.09,78.51,0,25.6.1,46.59,14.77,54.64,38.44A52.4,52.4,0,0,1,391,319.51c.22,57.32.15,114.63.15,172C391.13,491.94,391.05,492.41,391,493.08Z"/><path class="cls-21" d="M548.07,480h-4.54c-31.5,0-63-.26-94.49.16-9.11.12-18.27,1.82-27.25,3.57-4.21.82-8.05,3.49-12.43,5.49v-2.68q-.36-82.33-.7-164.67c-.07-24.9,14.84-46,38.3-53.88a61.48,61.48,0,0,1,18.49-3.1c26.77-.33,53.55-.15,80.32-.14.7,0,1.4.11,2.3.18Z"/><path class="cls-21" d="M391.39,535.32c-11.67-8.71-24.31-12.43-37.45-13.9a368.57,368.57,0,0,0-38-2.13c-32.46-.29-64.93-.1-97.39-.1H214V303.37h20.34c.07,1.45.2,3,.2,4.46q0,87.78,0,175.56c0,1.09,0,2.18,0,3.27.13,7.13,3.6,10.57,10.84,10.58,28.83,0,57.67-.11,86.5.08A222,222,0,0,1,358.68,499a65.79,65.79,0,0,1,16.61,4.76c9.1,3.78,14.19,11,15.3,20.83C391,527.78,391.08,531,391.39,535.32Z"/></g></g></g></svg>