<svg id="Layer_1" data-name="Layer 1" xmlns="http://www.w3.org/2000/svg" xmlns:xlink="http://www.w3.org/1999/xlink" viewBox="0 0 830.3 240.9"><defs><style>.cls-1{fill:none;}.cls-2{fill:#183c6c;}.cls-3{fill:#646363;}.cls-4{clip-path:url(#clip-path);}.cls-5{fill:#a8182f;}.cls-6{fill:#fff;}</style><clipPath id="clip-path"><path class="cls-1" d="M681.85,197.55a25.13,25.13,0,1,0-25.13,25.13,25.13,25.13,0,0,0,25.13-25.13"/></clipPath></defs><path class="cls-2" d="M733.67,140.86H652a20.56,20.56,0,0,1,0-41.12h81.72a20.42,20.42,0,1,0,0-40.84H652a20.56,20.56,0,1,1,0-41.11h81.72a61.54,61.54,0,1,1,0,123.07"/><path class="cls-3" d="M19.74,147.78A36,36,0,0,1,6.67,134.72a35,35,0,0,1-4.83-18v-17H22.29v15.91a15.08,15.08,0,0,0,4.55,11,14.76,14.76,0,0,0,10.93,4.62H82.93a8.9,8.9,0,0,0,6.74-2.77,9.63,9.63,0,0,0,2.63-6.89V99.64h20.45v21.87a31.9,31.9,0,0,1-3.91,15.62,29.9,29.9,0,0,1-10.72,11.29,28.46,28.46,0,0,1-15.19,4.19H37.77A35,35,0,0,1,19.74,147.78Zm15.9-66.46H53.82V99.64H35.64Zm25.56,0H79.38V99.64H61.2Z"/><path class="cls-3" d="M162.59,131.17a6.56,6.56,0,0,0,6.53-6.53V58.32h20.3v67.45A26.92,26.92,0,0,1,176.22,149a26,26,0,0,1-13.49,3.62H123.82V131.17ZM124,63.86l19.74-5.11L159,121.65l-19.74,5.12Z"/><path class="cls-3" d="M268.94,132.59v18.6a1.25,1.25,0,0,1-1.42,1.42h-6.39a35.72,35.72,0,0,1-5.75,16.47,43.76,43.76,0,0,1-13.2,12,184.9,184.9,0,0,1-23.93,11.86l-6.39-18q12.63-5.4,18.81-8.8t8.45-6.39a11.36,11.36,0,0,0,2.27-7.1h-9.23a32.32,32.32,0,0,1-15.62-3.84,29.56,29.56,0,0,1-11.28-10.57,28,28,0,0,1-4.19-15.13,30.12,30.12,0,0,1,4.19-15.62,31.54,31.54,0,0,1,11.28-11.29A30.22,30.22,0,0,1,232.16,92a28.26,28.26,0,0,1,15.06,4.19,29.56,29.56,0,0,1,10.65,11.29,32.43,32.43,0,0,1,3.83,15.62v8.1h5.82A1.25,1.25,0,0,1,268.94,132.59Zm-27.55-9.66a9.39,9.39,0,0,0-2.62-6.82,8.89,8.89,0,0,0-6.61-2.69,9.49,9.49,0,0,0-6.88,2.69,9.78,9.78,0,0,0,0,13.64,9.45,9.45,0,0,0,6.88,2.69h9.23Z"/><path class="cls-3" d="M394.9,132.59v18.6a1.26,1.26,0,0,1-1.42,1.42h-6q-10.93,0-17.18-8a32.78,32.78,0,0,1-9.73,5.89,30.67,30.67,0,0,1-11.14,2.06h-33.8q-14.49,0-23.15-10.65a20.17,20.17,0,0,1-7.66,7.88,22.42,22.42,0,0,1-11.36,2.77h-6a1.26,1.26,0,0,1-1.42-1.42v-18.6a1.26,1.26,0,0,1,1.42-1.42h6a6.56,6.56,0,0,0,6.67-6.68V99.64h20.31V113.7L330,96.09A63.16,63.16,0,0,1,339.94,91a26.8,26.8,0,0,1,9.52-1.56,30.53,30.53,0,0,1,15.76,4.26,31.74,31.74,0,0,1,11.5,11.57A30.92,30.92,0,0,1,381,121.08v3.41a6.55,6.55,0,0,0,1.85,4.76,6.2,6.2,0,0,0,4.68,1.92h6A1.26,1.26,0,0,1,394.9,132.59Zm-38-4.55a10.18,10.18,0,0,0,3-7.38,10.91,10.91,0,0,0-3.12-7.81,10.36,10.36,0,0,0-7.81-3.27,11.78,11.78,0,0,0-4.33.93,39.35,39.35,0,0,0-6.32,3.47l-28.26,16.9a17.22,17.22,0,0,0,2.42.29h36.92A10,10,0,0,0,356.91,128Z"/><path class="cls-3" d="M392.05,151.19v-18.6a1.26,1.26,0,0,1,1.42-1.42H423q11.07,0,18.46-6.82l13.77-12.5-19.73-9.51a12.87,12.87,0,0,0-4.26-1.13,8.24,8.24,0,0,0-3.62.85,9.59,9.59,0,0,0-3.06,2.27l-13.06,14.48-14.2-12.49,13.06-15.91a26.78,26.78,0,0,1,9.59-7A28.06,28.06,0,0,1,431.1,81a21.72,21.72,0,0,1,6.75.92,43.29,43.29,0,0,1,5.61,2.35L474,98.51a5.17,5.17,0,0,0,2.27.42h15.19v19.88H475.12l-2.55,2.27v3.41a6.56,6.56,0,0,0,6.67,6.68h16.33a1.25,1.25,0,0,1,1.42,1.42v18.6a1.25,1.25,0,0,1-1.42,1.42H479.24a21,21,0,0,1-14-4.69,23.09,23.09,0,0,1-7.6-12.35l-5,4.69a44,44,0,0,1-15.05,9.22A50.6,50.6,0,0,1,420,152.61H393.47A1.26,1.26,0,0,1,392.05,151.19Z"/><path class="cls-3" d="M556.63,96.09a29.69,29.69,0,0,1,11.29,10.58,28.12,28.12,0,0,1,4.19,15.12,30.31,30.31,0,0,1-4.19,15.55,31,31,0,0,1-11.36,11.36A30.21,30.21,0,0,1,541,152.89a28.29,28.29,0,0,1-10.65-2,30.14,30.14,0,0,1-8.94-5.53q-6.12,7.23-16.48,7.24h-9.37a1.26,1.26,0,0,1-1.42-1.42v-18.6a1.26,1.26,0,0,1,1.42-1.42h9.37a6.3,6.3,0,0,0,4.62-1.92,6.45,6.45,0,0,0,1.92-4.76V112.56h-8.81V92.26H541A32.4,32.4,0,0,1,556.63,96.09Zm-8.8,32.59a9.46,9.46,0,0,0,2.7-6.89,8.84,8.84,0,0,0-2.7-6.6,9.38,9.38,0,0,0-6.82-2.63h-9.37v9.23a9.57,9.57,0,0,0,2.63,6.89,8.87,8.87,0,0,0,6.74,2.77A9.1,9.1,0,0,0,547.83,128.68Z"/><g class="cls-4"><path class="cls-5" d="M681.85,197.55a25.13,25.13,0,1,0-25.13,25.13,25.13,25.13,0,0,0,25.13-25.13"/><path class="cls-6" d="M651.76,230c-.12-.09-.22-.18-.34-.26l-12-7.58a1.1,1.1,0,0,1-.58-1.06q0-10.1,0-20.21a1.05,1.05,0,0,1,.55-1c1-.62,2-1.28,2.94-1.92.41-.26.72-.23.93.1s.12.63-.27.89l-2.42,1.59c.1.07.17.14.25.19l10.88,6.89a.41.41,0,0,0,.53,0l9.16-6,.15-.13-.54-.34c-3.51-2.23-7-4.45-10.54-6.69a.53.53,0,0,0-.69,0c-1.31.87-2.62,1.72-3.94,2.58-.41.27-.79.18-.94-.22a.56.56,0,0,1,.23-.73l4.62-3a.69.69,0,0,1,.81.05c1.14.72,2.28,1.43,3.4,2.16a.81.81,0,0,0,.74.11c1.36-.42,2.73-.82,4.17-1.25-.16-.11-.26-.19-.37-.25l-5.17-3.28c-.39-.25-.49-.53-.31-.86a.6.6,0,0,1,.71-.28l8.71,1.74c1.23.25,2.46.49,3.68.75a2.07,2.07,0,0,1,.62.25l12.12,7.67a3.82,3.82,0,0,1,.51.48V221.7a4.44,4.44,0,0,1-.73.42c-.53.19-1.08.33-1.62.49s-.72,0-.83-.36.06-.65.51-.78l1.46-.43V201.39l-2.09.62L653,208.84a.49.49,0,0,0-.43.56q0,9.38,0,18.75v.47l2.4-.71,18.36-5.45c.55-.16.85,0,.94.37s-.08.61-.52.74l-4.35,1.3-16.92,5a2.39,2.39,0,0,0-.28.13Zm-.37-1.68c0-.2,0-.32,0-.43q0-9.35,0-18.67a.6.6,0,0,0-.35-.59l-10.65-6.74-.36-.2c0,.12,0,.19,0,.27q0,9.43,0,18.87a.51.51,0,0,0,.3.49l7.88,5Zm24.76-27.58v-.07l-.31-.08-9.56-1.92a2.34,2.34,0,0,1-.76-.29c-1.67-1-3.34-2.12-5-3.16a.81.81,0,0,0-.61-.08c-1.31.36-2.6.76-3.9,1.15a2.69,2.69,0,0,0-.31.12l.44.28,6.57,4.17c.77.48.77.87,0,1.37l-6.35,4.15-.32.23.05.08Zm-19.52-9.43a3.54,3.54,0,0,0,.3.23l9.18,5.8a1.31,1.31,0,0,0,.51.19l8.47,1.7.43.07a.4.4,0,0,0-.17-.19l-9.15-5.79a1.35,1.35,0,0,0-.47-.18l-5-1Z"/></g></svg>