<svg id="Layer_1" data-name="Layer 1" xmlns="http://www.w3.org/2000/svg" viewBox="0 0 141.73 141.73"><path d="M50.75,126.27c-.3-.23-.59-.49-.91-.7Q33.44,115.19,17,104.82a3,3,0,0,1-1.59-2.89q.06-27.65,0-55.3a2.87,2.87,0,0,1,1.5-2.73c2.72-1.7,5.38-3.5,8.06-5.25,1.12-.73,1.95-.63,2.53.26s.34,1.74-.73,2.45c-2.16,1.43-4.34,2.84-6.62,4.33.27.21.46.39.68.53L50.64,65.08a1.1,1.1,0,0,0,1.44.08q12.51-8.23,25-16.42c.12-.08.22-.18.43-.34l-1.48-.94Q61.65,38.31,47.23,29.15a1.47,1.47,0,0,0-1.89.05c-3.57,2.38-7.17,4.72-10.76,7.06-1.14.73-2.18.49-2.59-.6a1.51,1.51,0,0,1,.62-2l12.67-8.3a1.86,1.86,0,0,1,2.21.12c3.1,2,6.22,3.92,9.3,5.92a2.18,2.18,0,0,0,2,.3c3.73-1.16,7.49-2.24,11.42-3.41-.45-.31-.72-.52-1-.7q-7.07-4.48-14.16-9C54,18,53.71,17.19,54.21,16.3a1.63,1.63,0,0,1,1.95-.78L80,20.3c3.36.67,6.72,1.34,10.06,2a5.38,5.38,0,0,1,1.69.67q16.59,10.47,33.16,21a10.05,10.05,0,0,1,1.39,1.31v58.22a12,12,0,0,1-2,1.14c-1.46.52-3,.92-4.44,1.35-1.21.34-2,0-2.25-1s.14-1.76,1.38-2.14l4-1.18V48l-5.71,1.68Q85.74,59,54.21,68.35c-.86.26-1.18.59-1.18,1.54q.06,25.64,0,51.28v1.29l6.57-1.93,50.21-14.91c1.51-.44,2.35-.11,2.59,1s-.22,1.67-1.43,2c-4,1.19-7.94,2.36-11.9,3.54L52.81,125.93a7.35,7.35,0,0,0-.76.34Zm-1-4.6c0-.55.06-.86.06-1.17q0-25.54,0-51.08a1.67,1.67,0,0,0-.95-1.62Q34.3,58.61,19.73,49.36c-.29-.18-.6-.34-1-.55,0,.33,0,.54,0,.75q0,25.82,0,51.62a1.41,1.41,0,0,0,.81,1.35q10.8,6.81,21.57,13.64Zm67.73-75.46V46c-.28-.07-.56-.16-.84-.21-8.72-1.75-17.44-3.48-26.16-5.25a6.44,6.44,0,0,1-2.08-.81c-4.58-2.86-9.13-5.78-13.72-8.63A2.34,2.34,0,0,0,73,30.89c-3.57,1-7.12,2.09-10.67,3.15-.25.07-.49.19-.84.32l1.2.79,18,11.39c2.09,1.33,2.09,2.38,0,3.75L63.33,61.66c-.3.2-.59.41-.88.62l.12.23ZM64.08,20.43c.42.32.61.48.82.61Q77.44,29,90,36.92a4.4,4.4,0,0,0,1.4.53l23.19,4.63c.39.08.78.13,1.16.2a1,1,0,0,0-.46-.52q-12.51-7.93-25-15.84a3.82,3.82,0,0,0-1.3-.5c-4.55-.93-9.1-1.83-13.66-2.75Z"/></svg>