<svg id="Layer_1" data-name="Layer 1" xmlns="http://www.w3.org/2000/svg" xmlns:xlink="http://www.w3.org/1999/xlink" viewBox="0 0 1920 1080"><defs><style>.cls-1,.cls-15,.cls-17,.cls-21,.cls-25,.cls-27,.cls-29,.cls-31,.cls-6,.cls-9{fill:none;}.cls-2{clip-path:url(#clip-path);}.cls-3{opacity:0.4;}.cls-4{fill:#e8e8f0;}.cls-5{fill:#c5c1d2;}.cls-29,.cls-6{stroke:#c5c1d2;}.cls-13,.cls-14,.cls-23,.cls-30,.cls-31,.cls-6{stroke-miterlimit:10;}.cls-6{stroke-width:2.85px;}.cls-12,.cls-13,.cls-19,.cls-7{fill:#1c1d3e;}.cls-8{fill:#ffde00;}.cls-10,.cls-12,.cls-13,.cls-14,.cls-15,.cls-16,.cls-17,.cls-19,.cls-21,.cls-23,.cls-24,.cls-25,.cls-26,.cls-27,.cls-30,.cls-9{stroke:#1c1d3e;}.cls-10,.cls-12,.cls-15,.cls-16,.cls-17,.cls-19,.cls-21,.cls-24,.cls-25,.cls-26,.cls-27,.cls-29,.cls-9{stroke-linecap:round;stroke-linejoin:round;}.cls-10,.cls-12,.cls-13,.cls-14,.cls-9{stroke-width:1.08px;}.cls-10,.cls-11,.cls-14,.cls-16,.cls-23,.cls-24,.cls-26,.cls-30{fill:#fff;}.cls-15{stroke-width:2.16px;}.cls-16,.cls-17,.cls-19{stroke-width:1.35px;}.cls-18{fill:#505ea8;}.cls-20{fill:#951b81;}.cls-21,.cls-23,.cls-24{stroke-width:1.5px;}.cls-22{fill:#00a19a;}.cls-25{stroke-width:2.01px;}.cls-26,.cls-27,.cls-30{stroke-width:1.3px;}.cls-28{fill:#82368c;}.cls-29{stroke-width:7.82px;}.cls-31{stroke:#1d1d1b;stroke-width:1.08px;}</style><clipPath id="clip-path"><rect class="cls-1" x="-0.11" y="-0.15" width="1920.12" height="1080.16"/></clipPath></defs><g class="cls-2"><g class="cls-3"><path class="cls-4" d="M937.45,1201.16S630.22,1093.35,608,872.64s155-304.77,281.2-285.46c87.27,13.36,243.69-87.32,291.45-188.19,132.34-279.56,532.12-187.44,612.71,6,71.38,171.33,60.55,124.59,159.09,163.25s109.63,354.92,41,508.37S1059.11,1208.58,937.45,1201.16Z"/><path class="cls-4" d="M1831.9,287s-34.2,51.89,3.67,126.35,137.41,90.52,184,26.27,28.69-158.64-6.52-172.7S1870.68,216.68,1831.9,287Z"/><path class="cls-4" d="M888.89,478.41c-18.58,3.42-51.76.23-65.5-50.38s45.59-76.84,83.22-71.28S992.08,459.43,888.89,478.41Z"/><path class="cls-4" d="M552.2,793.61s30.46,9.46,22.88,58.49-61.7,46.8-80.69,23.89S493.8,782.69,552.2,793.61Z"/></g><path class="cls-5" d="M1880.66,1078.25q23.88-14.6,48.14-28.55,29.43-17,59.33-33.11,18.42-9.95,37-19.57c1.22-.64.14-2.48-1.08-1.85q-32.4,16.77-64.28,34.53-27.6,15.36-54.78,31.43-12.76,7.55-25.41,15.28c-1.17.71-.1,2.56,1.07,1.84Z"/><path class="cls-6" d="M1886.34,1013.76a52.51,52.51,0,0,1,13.12-.65c26.77,1.45,22.35-24.92,50.5-46.66s36.88-1,54.44-6.47,30.86-42,61.9-22.62,33.8,54.61,11,80.3-43.13,3.77-49.72,26.24-9.87,32.39-38.58,38.6-49.47-1.57-64,37.49c-13,34.79-36.37,43-59.82,40.42l-49.66-29.13"/><path class="cls-6" d="M1891.6,789.61c.55-49.57,53-115.46,107.65-81.94,55,33.73,37,91.36,6.77,123.19-25.66,27-86.52,39-71.7,61s19.52,53.9-30.28,74.51,8.38,56.07-25.3,113.45c-22.58,38.46-49.66,53.08-74.34,52.13l-64.55-51.2a98.42,98.42,0,0,1-5.92-52.2c8.3-52.52,63.73-54.39,71.87-78.84s-9.09-66.8,12.83-103.75C1847.6,797.1,1891.33,814.23,1891.6,789.61Z"/><path class="cls-5" d="M1945.8,766.56q-3.88,7.14-7.73,14.28-9.72,18-19.33,36.13-12.51,23.53-24.77,47.2c-8.28,16-16.46,32.05-24.4,48.23-5.44,11.08-10.73,22.23-16,33.39q-9.48,20.15-18.78,40.37-9.7,21-19.32,42.14-8.67,19-17.3,38.1-6.53,14.43-13,28.87-3.23,7.14-6.42,14.28c-.09.2-.18.41-.28.62-.55,1.24,1.29,2.33,1.85,1.08q2.19-4.89,4.39-9.78,5.82-12.95,11.66-25.89,8.22-18.18,16.48-36.34,9.5-20.87,19.06-41.7,9.49-20.65,19.1-41.25c5.57-11.9,11.17-23.77,16.89-35.6,7-14.56,14.33-29,21.71-43.4q12.45-24.25,25.2-48.36,10.51-19.87,21.16-39.69,5.57-10.35,11.17-20.67l.51-.93c.66-1.21-1.19-2.29-1.85-1.08Z"/><path class="cls-5" d="M1849.46,839.78l1,9.46,2.27,22.59,2.76,27.45,2.38,23.65c.39,3.85.63,7.75,1.16,11.58,0,.06,0,.11,0,.17.14,1.35,2.27,1.37,2.14,0l-1-9.46-2.28-22.59-2.76-27.45-2.37-23.65c-.39-3.85-.63-7.75-1.17-11.58a1,1,0,0,1,0-.17c-.14-1.35-2.28-1.37-2.14,0Z"/><path class="cls-5" d="M1868.31,1016.75l-21.25,12-33.61,18.94-7.75,4.36a1.07,1.07,0,0,0,1.08,1.85l21.25-12,33.61-18.94,7.75-4.37c1.2-.67.12-2.52-1.08-1.84Z"/><path class="cls-5" d="M1829.48,863c-10.51,2.68-8.93,16.38,1.91,16.59C1841.9,876.93,1840.32,863.23,1829.48,863Z"/><path class="cls-6" d="M1745.15,1106.18a89,89,0,0,1-29.06-37.55c-18.21-44.46,23.73-71.88,18.55-94.59s-38.35-47.33-38.74-86.15c-.52-51.29,41.29-58.56,30-77.7-22.82-38.55-13.24-114,44.72-113.77,58.33.25,71.42,53.22,63,92-7.16,32.88-46.64,71.61-24.91,81.6"/><path class="cls-5" d="M1756.81,767q1.2,25.83,2.73,51.63c1.86,32.27,3.89,64.55,6.77,96.76,2.2,24.52,5,49,7.76,73.47q4.52,39.57,9.35,79.11,2.55,21.12,5.19,42.24c0,.22.05.43.08.64.16,1.35,2.3,1.36,2.13,0q-2.19-17.54-4.32-35.08-4.7-38.46-9.15-77c-2.93-25.43-5.82-50.88-8.25-76.37-2.94-30.93-4.94-61.95-6.79-92.95q-1.83-30.75-3.31-61.5c0-.33,0-.66,0-1-.07-1.36-2.2-1.37-2.14,0Z"/><path class="cls-5" d="M1716.74,868.73l5.14,6.83L1734.25,892l15,19.86,13,17.26c2.09,2.78,4.11,5.64,6.29,8.35l.09.11c.82,1.09,2.67,0,1.85-1.07l-5.15-6.83-12.36-16.41-15-19.86-13-17.26c-2.09-2.78-4.11-5.64-6.29-8.35l-.09-.11c-.82-1.09-2.67,0-1.84,1.07Z"/><path class="cls-5" d="M1814.3,996.46l-10.73,19.09L1786.44,1046l-4,7a1.07,1.07,0,0,0,1.85,1.08l10.73-19.09,17.13-30.47,4-7a1.07,1.07,0,0,0-1.85-1.08Z"/><path class="cls-5" d="M1763.13,845.76l12.55-21.22,20-33.79,4.57-7.72a1.07,1.07,0,0,0-1.85-1.08l-12.55,21.22-20,33.8-4.57,7.72a1.06,1.06,0,0,0,1.84,1.07Z"/><path class="cls-5" d="M1712.3,896c-6.87,7,.78,16.83,9.25,11.91C1728.41,900.93,1720.77,891.09,1712.3,896Z"/><path class="cls-6" d="M689.57,808.08c-38.52-27.22-61.78-103.88-6-128.58,56.17-24.87,91.55,20.4,100.12,61.28,7.28,34.69-16.2,88.85,9,89.1s52.77,13.85,42,64,48.44,23.74,75.17,81.14c17.91,38.46,14.71,67.57.63,86.38l-75,22.87a93.65,93.65,0,0,1-44.08-23.58c-36.63-34.89-8.13-79.3-22.88-98.89s-57.23-29-74.31-66.13C671.65,846.58,708.7,821.6,689.57,808.08Z"/><path class="cls-5" d="M700.82,753.29q3.48,6.9,7,13.78,8.86,17.35,17.84,34.66,11.67,22.51,23.58,44.91c8,15.13,16.19,30.22,24.57,45.17,5.73,10.25,11.6,20.42,17.51,30.57q10.65,18.3,21.45,36.52,11.24,19,22.55,37.88,10.21,17.09,20.49,34.14,7.79,13,15.62,25.91l7.66,12.66.35.56a1.07,1.07,0,0,0,1.84-1.08l-5.28-8.72q-7-11.55-14-23.11-9.79-16.26-19.55-32.54-11.21-18.71-22.34-37.45t-22-37.26c-6.31-10.78-12.59-21.59-18.75-32.46-7.59-13.38-15-26.89-22.24-40.44q-12.27-22.86-24.25-45.88-9.93-19.05-19.72-38.18-5.07-9.9-10.1-19.81c-.15-.3-.3-.61-.46-.91-.62-1.23-2.46-.15-1.84,1.08Z"/><path class="cls-5" d="M706.12,868.29l7.91,4.36,18.91,10.43,23,12.67,19.88,11c3.19,1.76,6.34,3.78,9.65,5.33l.13.07c1.21.66,2.29-1.18,1.08-1.84l-7.92-4.37-18.9-10.43-23-12.67-19.88-11c-3.19-1.76-6.35-3.78-9.65-5.32l-.14-.08c-1.2-.66-2.28,1.18-1.07,1.85Z"/><path class="cls-5" d="M854.79,949.17l-2.1,23-3.36,36.69-.76,8.37c-.13,1.36,2,1.36,2.13,0l2.11-23,3.35-36.68.77-8.37c.12-1.37-2-1.36-2.14,0Z"/><path class="cls-5" d="M713.47,896.4c-3.59,9.68,8,15.85,14,7.47C731.08,894.2,719.5,888,713.47,896.4Z"/><path class="cls-5" d="M753.74,744c-3.65,9.85,8.15,16.13,14.29,7.61C771.68,741.77,759.88,735.49,753.74,744Z"/><path class="cls-5" d="M721.78,722.91c-4.74,12.77,10.55,20.91,18.5,9.86C745,720,729.73,711.86,721.78,722.91Z"/><path class="cls-6" d="M905.48,1041.06l-47.18,52.82a84.73,84.73,0,0,1-45.11,2.46c-44.66-9.78-43.47-57.44-64-65.66s-57.79,4.45-88.4-16.23c-40.45-27.32-23.54-64-44.66-65.46-42.51-3-96.43-51.26-64.91-96.51,31.73-45.54,80.28-27.17,106.07.39,21.88,23.38,31,75.16,50.58,63.54"/><path class="cls-5" d="M599,901.47l11.92,7.39q15,9.24,30,18.38,19.62,11.94,39.36,23.68c13.28,7.89,26.62,15.71,40.06,23.32,9.25,5.23,18.57,10.34,27.91,15.42q16.83,9.15,33.75,18.17,17.5,9.36,35.07,18.63,15.91,8.43,31.87,16.79l24.14,12.65,11.89,6.2.53.27c1.22.64,2.3-1.21,1.08-1.84l-8.19-4.27q-10.78-5.62-21.56-11.28-15.2-8-30.39-16-17.37-9.16-34.71-18.39t-34.49-18.5c-10-5.39-19.88-10.8-29.76-16.31-12.09-6.76-24.08-13.72-36-20.75q-20.25-11.92-40.34-24.12-16.58-10-33.08-20.2-8.6-5.29-17.16-10.62l-.78-.48c-1.17-.73-2.25,1.11-1.08,1.84Z"/><path class="cls-5" d="M657.08,987.84l27.7-1.16,44.12-1.84,10.11-.42c1.37,0,1.38-2.19,0-2.13l-27.69,1.15-44.13,1.84-10.11.42c-1.36.06-1.37,2.19,0,2.14Z"/><path class="cls-5" d="M809.76,980.53,819,999.34l14.58,29.84,3.35,6.86c.61,1.24,2.45.15,1.85-1.08l-9.19-18.81L815,986.31l-3.36-6.86c-.6-1.23-2.44-.15-1.84,1.08Z"/><path class="cls-5" d="M664.1,938.92l-9.85-21.34-15.63-33.86L635,876c-.58-1.25-2.42-.16-1.84,1.08L643,898.38l15.63,33.86,3.59,7.76c.57,1.25,2.42.17,1.84-1.08Z"/><path class="cls-5" d="M676,1006c1.76,9.15,13.6,8.49,14.33-.81C688.53,996,676.69,996.71,676,1006Z"/><rect class="cls-1" x="418.66" y="114.56" width="1501.34" height="965.44"/><polygon class="cls-7" points="1446.2 1070.87 1561.76 1070.87 1554.51 903.83 1446.68 909.48 1446.2 1070.87"/><polygon class="cls-8" points="1474.86 875.8 1481.17 1076.93 1373.89 1076.93 1388.88 892.35 1474.86 875.8"/><polyline class="cls-9" points="1383.32 960.75 1388.88 892.35 1474.86 875.8 1481.17 1076.93"/><polyline class="cls-9" points="1388.88 941 1420.71 941 1420.71 913.11"/><polygon class="cls-8" points="1526.49 865.28 1526.49 1076.93 1615.64 1074.45 1597.26 882.45 1526.49 865.28"/><polyline class="cls-9" points="1604.76 960.79 1597.26 882.45 1526.49 865.28 1526.49 1076.93"/><polyline class="cls-9" points="1562.72 918.03 1562.72 943.01 1598.32 945.38"/><path class="cls-10" d="M1474.86,853.52h54l2.41-157.61a56.53,56.53,0,0,0-24-8.09c-13.66-1.15-21.85,1.47-28.81,3.6-2.08.64-8.44,2.75-8.44,2.75Z"/><polygon class="cls-8" points="1526.49 853.52 1531.3 695.9 1583.54 741.03 1571.36 860.83 1526.49 853.52"/><path class="cls-8" d="M1470.06,695.91l4.8,157.61-47.21,3-22.76-95.57s12.1-33.27,31.77-46.15S1470.06,695.91,1470.06,695.91Z"/><path class="cls-8" d="M1531.28,694.17c38.45,14.06,80.6,50.14,103.38,113.11,16.28,45,2.31,108.62-59.08,122.84-67.67,15.66-151.28-2.56-151.28-2.56l8.4-68.61,88.27,2.38,44.24-9.2,6.24-63-41.59-49.76Z"/><path class="cls-9" d="M1627.18,893.59c-10.21,17.2-26.9,30.81-51.6,36.53-67.67,15.66-151.28-2.56-151.28-2.56l8.4-68.61,88.27,2.38,44.24-9.2,6.24-63"/><path class="cls-11" d="M1627.35,856.26a26.46,26.46,0,0,0-2.24-4h0s4.13-3.43-2.55-11.15c-4-4.6-15.09-9.63-21.07-9.33-8.19.42-19.11,7.17-26.18,10.85s-40.64,13.31-40.64,13.31l4.64,33.95s27.76-.46,40.51-7.28,22-6.08,29.64-1,11.6,3.34,13.6-.29c.8-1.45-.48-3.77-2.71-6.26h0c4.63,2.35,7.31-1.8,7.14-4.54a13.83,13.83,0,0,0-2.11-5.25l0,0C1627.71,866.16,1629.85,861.78,1627.35,856.26Z"/><path class="cls-9" d="M1593.86,851.93s13.71-2.2,21.67,3.13,11.81,12.77,12,15.51-2.51,6.89-7.14,4.54"/><path class="cls-9" d="M1592.72,843.28s14.41-3.59,21.23-.24,10.9,7.7,13.4,13.22.36,9.9-1.92,9.08"/><path class="cls-9" d="M1625.11,852.26s4.13-3.43-2.55-11.15c-4-4.6-15.09-9.63-21.07-9.33-8.19.42-19.11,7.17-26.18,10.85s-40.64,13.31-40.64,13.31l4.64,33.95s27.76-.46,40.51-7.28,22-6.08,29.64-1,11.6,3.34,13.6-.29-8.92-12.65-15.44-16.4-14.73-2.85-14.73-2.85"/><path class="cls-8" d="M1470,694.17s-30.79,6.22-68.3,44c-30.77,31-69.65,100.28-31.1,161.92s172.28,19.09,172.28,19.09l-3-72.8-107.45,4.34-11.54-30.62-8.56-47.25,58.83-42.63Z"/><path class="cls-7" d="M1528.24,909.38a3.63,3.63,0,1,1-4.31-2.79A3.62,3.62,0,0,1,1528.24,909.38Z"/><path class="cls-7" d="M1514.38,912.35a3.63,3.63,0,1,1-4.31-2.79A3.63,3.63,0,0,1,1514.38,912.35Z"/><path class="cls-7" d="M1501.38,914.51a3.63,3.63,0,1,1-4.31-2.79A3.63,3.63,0,0,1,1501.38,914.51Z"/><path class="cls-9" d="M1431.94,850.72l107.92-4.31,3,72.8s-133.73,42.55-172.28-19.09"/><path class="cls-9" d="M1383.83,856.49s14.28-8.43,40.56-7.37c0,0-21.64,17.67-28.32,32.5"/><line class="cls-9" x1="1420.71" y1="817.48" x2="1413.46" y2="779.38"/><path class="cls-10" d="M1418.48,826.13s-10.06-9.57-7.4-14.36,11.05.18,14.61,5.82,1.57,13.71-.5,12.88S1418.48,826.13,1418.48,826.13Z"/><path class="cls-11" d="M1441.22,845.11l-1.42-1c-1.22-3-1.34-3.28-2.82-5.16l.73.22c0-11.84-13.32-18.93-22.59-20.46s-16.5.72-14.73,7.61c1.39,5.36,13.71,5.65,13.71,5.65l.14,0c-7.32.74-15.46,2.93-15.82,8.32-.58,8.58,6.76,6.69,6.76,6.69-1.12,5.52.54,8.87,14,5.52a97.87,97.87,0,0,1,27-2.37A25.4,25.4,0,0,0,1441.22,845.11Z"/><path class="cls-9" d="M1446.2,850.2a97.87,97.87,0,0,0-27,2.37c-13.43,3.35-15.09,0-14-5.52s21-8.17,25.41-6.8S1441.25,843.4,1446.2,850.2Z"/><path class="cls-9" d="M1405.18,847.05s-7.34,1.89-6.76-6.69,20.82-9.06,26.17-8.48,10.75,1.47,15.21,12.25"/><path class="cls-9" d="M1414.1,832s-12.32-.29-13.71-5.65c-1.77-6.89,5.45-9.15,14.73-7.61s22.63,8.62,22.59,20.46"/><line class="cls-9" x1="1470.01" y1="694.17" x2="1474.86" y2="849.01"/><polyline class="cls-9" points="1463.18 849.51 1442.17 777.68 1457.53 771.36 1437.71 765.74 1431.28 722.87"/><line class="cls-9" x1="1531.28" y1="694.17" x2="1526.49" y2="846.9"/><polyline class="cls-9" points="1539 846.44 1559.12 777.68 1543.76 771.36 1563.58 765.74 1570.01 722.87"/><path class="cls-12" d="M1476.82,675.7S1460,667.85,1454,653s-4.79-46.08,4.3-58.07,30.2-17,42.43-11.55c0,0,18.73-2.4,29.6,3,19.35,9.69,16.33,45.52,11,66.77-5,19.85-37.64,28.27-37.64,28.27Z"/><circle class="cls-13" cx="1545.2" cy="681.49" r="28.09"/><path class="cls-9" d="M1547.77,653.42s22.37-1.25,28,17.88"/><path class="cls-14" d="M1500.22,707.22h0c-10,.2-18.2-6.68-18.38-15.37l-.35-17.33c-.14-6.92,6.24-12.59,14.17-12.61l7.12,0c8,0,14.69,5.68,14.84,12.67l.34,16.55C1518.14,699.8,1510.2,707,1500.22,707.22Z"/><path class="cls-14" d="M1446.69,650.29a10.58,10.58,0,1,0,10.68-10.39A10.53,10.53,0,0,0,1446.69,650.29Z"/><path class="cls-7" d="M1462.16,651.86a5,5,0,0,0,0-.67c0-.25,0-.49-.06-.73s0-.27,0,0a1.7,1.7,0,0,0,0-.22c0-.16-.07-.32-.11-.47a6.36,6.36,0,0,0-.32-1c-.08-.21.07.14,0-.07l-.11-.22a3.3,3.3,0,0,0-.31-.51l-.15-.21c-.13-.19.09.09-.06-.08s-.29-.31-.45-.45l-.21-.18c-.15-.12.11.08,0,0l-.12-.08a5,5,0,0,0-.59-.34l-.14-.06-.12-.05c.1,0,.11,0,0,0l-.37-.13a5.84,5.84,0,0,0-.83-.18h-.08l-.23,0-.49,0c-.39,0-.78,0-1.17,0a.82.82,0,1,1,0-1.63,6.75,6.75,0,0,1,6.16,2.19,7.49,7.49,0,0,1,1.45,4.1,5.53,5.53,0,0,1,0,.91.84.84,0,0,1-.8.84.82.82,0,0,1-.83-.8Z"/><path class="cls-14" d="M1550.49,649.65a10.59,10.59,0,1,1-10.48-10.6A10.54,10.54,0,0,1,1550.49,649.65Z"/><path class="cls-7" d="M1533.35,650.89a6.78,6.78,0,0,1,3.74-6.65,8.21,8.21,0,0,1,4.2-.42.81.81,0,0,1,.59,1,.84.84,0,0,1-1,.59,6.4,6.4,0,0,0-3.05.3s-.35.15-.17.06l-.29.15a4.73,4.73,0,0,0-.56.35c-.19.14.06-.06-.11.09l-.21.2a5.39,5.39,0,0,0-.39.43l-.08.11c.12-.16,0-.08,0,0l-.15.22c-.1.16-.19.33-.28.5l-.11.23c0,.06-.13.33,0,.08-.06.16-.11.32-.16.48a9.08,9.08,0,0,0-.22.9l-.06.39c0,.09-.09.26,0,0a.55.55,0,0,0,0,.18,7.77,7.77,0,0,0,0,.83c.06,1-1.57,1.08-1.63,0Z"/><path class="cls-14" d="M1532.1,652.43a28.85,28.85,0,0,1-28.47,29.06l-9.34.1a28.84,28.84,0,0,1-29.06-28.46l-.33-31A28.85,28.85,0,0,1,1493.37,593l9.34-.1a28.85,28.85,0,0,1,29.06,28.47Z"/><path class="cls-9" d="M1506.51,657.08a6.61,6.61,0,0,1-13.13.13"/><path class="cls-7" d="M1480.69,636.77a3.87,3.87,0,1,1-3.79-4A3.87,3.87,0,0,1,1480.69,636.77Z"/><path class="cls-7" d="M1521.68,635.93a3.87,3.87,0,1,1-3.79-4A3.88,3.88,0,0,1,1521.68,635.93Z"/><path class="cls-15" d="M1513.76,627.49s5.46-1.33,9.67,1.61"/><path class="cls-15" d="M1480.46,628.18s-5.51-1.11-9.59,2"/><polyline class="cls-9" points="1498.1 630.43 1495.05 645.78 1500.68 645.67"/><path class="cls-7" d="M1462.47,636.69s23.16-5.27,30.91-16.43a23.85,23.85,0,0,1-5.92,7.72c-1.5,1.31-6.35,4.83-6.35,4.83s11.39-.9,19.57-12.55l.55-1.16s-4.87,8.88-11.33,12.18c0,0,6.83-.08,15.88-8.69,11.47-10.89,9-32.61,9-32.61l-28.59-1.91-15.32,8.69-6,13.34Z"/><path class="cls-7" d="M1534.55,632.81s-.34-25.73-3.52-30.69a10.38,10.38,0,0,0-2.54-2.81c-3.52-3.55-10.24-9.16-17.24-8.72-10.19.65,3.36,14.12,3.36,14.13C1516.45,608.18,1526.45,626.6,1534.55,632.81Z"/><polygon class="cls-7" points="1827.21 977.34 1837.97 1082.33 1665.35 1082.33 1668.65 975.61 1827.21 977.34"/><path class="cls-16" d="M1740,735.69s-46.75,28.73-61.78,85.61-9.54,154.31-9.54,154.31,184.85,8.19,184.85,5.63,12-89.48-6.28-136.16-66.79-89.72-66.79-89.72Z"/><path class="cls-17" d="M1735.87,756.06S1708.71,880.24,1709,945.27v32"/><path class="cls-18" d="M1767.68,844.86a14.49,14.49,0,0,0-12.81,3,14.38,14.38,0,0,0-5.46-5.54s-3.92,6.64-5.09,8.93c-2.09,4.08-6.48,15.08-6.48,15.08l-1.19,3.27a15.37,15.37,0,0,0,1.78.57,14.48,14.48,0,0,0,12.81-3,14.71,14.71,0,0,0,27.45-3.86A15.36,15.36,0,0,0,1767.68,844.86Z"/><path class="cls-5" d="M1757.85,978.58c-1.83-30.75-6.52-108.19-8.45-140.07-.46-7.62-6.35-13.23-12.87-12.27l-94.73,13.92c-6.26.92-10.71,7.54-9.94,14.82l14.3,136.27c.75,7.19,6.3,12.36,12.5,11.65l88.87-10.17C1753.7,992,1758.28,985.77,1757.85,978.58Z"/><path class="cls-11" d="M1628.26,917.29c-2.51,6.61,1.06,14.83,16,20.28s77,13.94,77,13.94l8.26-43.26s-62.78-25.13-67.57-21.12,8.87,16.8,8.87,16.8-24.27-6.87-30.71-8.18-7,2.88-6.29,5.35c0,0-6.17.58-4.42,7.16A9.17,9.17,0,0,0,1628.26,917.29Z"/><path class="cls-17" d="M1633.8,901.1s-6.17.58-4.42,7.16c1.94,7.26,23.6,13.29,23.6,13.29"/><path class="cls-17" d="M1629.38,908.26a9.17,9.17,0,0,0-1.12,9c2.3,6,21.44,12.5,21.44,12.5"/><path class="cls-17" d="M1628.26,917.29c-2.51,6.61,1.06,14.83,16,20.28s77,13.94,77,13.94l8.26-43.26s-62.78-25.13-67.57-21.12,8.87,16.8,8.87,16.8-24.27-6.87-30.71-8.18-7,2.88-6.29,5.35c1,3.46,7.13,7.62,21.83,11.68"/><path class="cls-11" d="M1712.18,958.9l4-62.38,107.12-7.43-12.77-.25-14.81-57.32-50.62-90.69S1824.89,745,1885,836c59.59,90.26,28.67,179.11-81,154.1C1711.05,968.88,1712.18,958.9,1712.18,958.9Z"/><path class="cls-17" d="M1745.05,740.83S1824.89,745,1885,836c59.59,90.26,28.67,179.11-81,154.1-93-21.21-91.83-31.19-91.83-31.19l4-62.38,107.12-7.43"/><line class="cls-17" x1="1730.84" y1="903.85" x2="1730.84" y2="961.39"/><line class="cls-17" x1="1810.48" y1="888.84" x2="1795.67" y2="831.52"/><path class="cls-18" d="M1801.74,781.72a15.9,15.9,0,0,0-29.69,4.18,16.62,16.62,0,0,0,11.91,20,15.66,15.66,0,0,0,13.86-3.27,15.91,15.91,0,0,0,29.7-4.17,16.62,16.62,0,0,0-11.91-20A15.71,15.71,0,0,0,1801.74,781.72Z"/><path class="cls-18" d="M1846.4,835.12a15.9,15.9,0,0,0-29.69,4.17,16.6,16.6,0,0,0,11.91,20,15.69,15.69,0,0,0,13.86-3.26,15.9,15.9,0,0,0,29.69-4.18,16.61,16.61,0,0,0-11.91-20A15.67,15.67,0,0,0,1846.4,835.12Z"/><path class="cls-18" d="M1857.08,900.92a15.91,15.91,0,0,0-29.7,4.17,16.63,16.63,0,0,0,11.91,20,15.68,15.68,0,0,0,13.87-3.27,15.9,15.9,0,0,0,29.69-4.17,16.61,16.61,0,0,0-11.91-20A15.64,15.64,0,0,0,1857.08,900.92Z"/><path class="cls-18" d="M1784.59,914.26a15.9,15.9,0,0,0-29.69,4.17,16.63,16.63,0,0,0,11.91,20,15.66,15.66,0,0,0,13.86-3.27,15.91,15.91,0,0,0,29.7-4.17,16.63,16.63,0,0,0-11.91-20A15.68,15.68,0,0,0,1784.59,914.26Z"/><path class="cls-18" d="M1822.13,961a15.9,15.9,0,0,0-29.69,4.17,16.61,16.61,0,0,0,11.91,20,15.69,15.69,0,0,0,13.86-3.26,15.9,15.9,0,0,0,29.69-4.18,16.61,16.61,0,0,0-11.91-20A15.67,15.67,0,0,0,1822.13,961Z"/><path class="cls-16" d="M1718.14,650.1l18.43.23c12.26.15,22.15,11.68,22,25.64l-.35,28.57c0,.8-.06,1.6-.14,2.38a10.85,10.85,0,0,1,.28,2.62l-.21,17.4v1l-.21,17.39a11.52,11.52,0,0,1-11.62,11.34l-7.31-.09a11.51,11.51,0,0,1-11.33-11.62l.18-15.39-10.65-.13c-12.26-.15-22.15-11.69-22-25.64l.35-28.57C1695.72,661.25,1705.89,650,1718.14,650.1Z"/><path class="cls-7" d="M1732.32,685a4.16,4.16,0,1,1-4.1-4.2A4.15,4.15,0,0,1,1732.32,685Z"/><path class="cls-7" d="M1705.13,684a3.55,3.55,0,1,1-3.5-3.59A3.55,3.55,0,0,1,1705.13,684Z"/><path class="cls-16" d="M1708.89,701.09s2,6.11,6.42,6.58,7.93-4.38,8.22-8.19Z"/><polyline class="cls-17" points="1715.72 694.79 1709.02 690.6 1715.05 680.64"/><line class="cls-17" x1="1735.87" y1="677.58" x2="1728.29" y2="674.82"/><line class="cls-17" x1="1705.04" y1="675.87" x2="1698.14" y2="675.79"/><path class="cls-19" d="M1758.12,700.48a11.42,11.42,0,0,1,7.3,1,13.83,13.83,0,0,1,1-9.29,14.25,14.25,0,0,1-21.91-9.6,14,14,0,0,1-9.14-14.69,14.79,14.79,0,0,1-2.69-2.08,15.23,15.23,0,0,1-1.77-2.2,14.2,14.2,0,0,1-18.35-.36,15,15,0,0,1-1.14,1.39,14.29,14.29,0,0,1-20.21-.1,14.13,14.13,0,0,1-4-8.13,14,14,0,0,1-4.9-3.21,14.28,14.28,0,0,1,.1-20.21,14,14,0,0,1,2.46-1.93,14.27,14.27,0,0,1,14.21-14.22,14.43,14.43,0,0,1,3.07-4.53,14.26,14.26,0,0,1,17.28-2.11,14,14,0,0,1,3.3-5.17,14.19,14.19,0,0,1,23.09,4.39c.22-.24.39-.52.62-.75a12.83,12.83,0,0,1,20.88,4.14,14.17,14.17,0,0,1,19.78,12.27,11,11,0,0,1,10.05,16.09,14.46,14.46,0,0,1,7.73,4.08,14.65,14.65,0,0,1-.1,20.71,14.5,14.5,0,0,1-6.69,3.72,12.18,12.18,0,0,1-8.62,19.83,13.76,13.76,0,0,1-18,20.38A11.35,11.35,0,0,1,1758,722.76Z"/><path class="cls-11" d="M1781.52,696.05A14.68,14.68,0,1,1,1767,681.31,14.61,14.61,0,0,1,1781.52,696.05Z"/><path class="cls-17" d="M1758.89,697.69s-.53-9.89,9.61-8.67"/><path class="cls-17" d="M1752.17,695.69a14.48,14.48,0,0,1,4.56-10.37"/><path class="cls-17" d="M1756.73,685.32a14.56,14.56,0,1,1,3,23.3,21.94,21.94,0,0,1-3.3-2.35"/><polygon class="cls-16" points="1768.5 745.43 1760.08 732.65 1735.87 749.96 1750.22 774.98 1768.5 745.43"/><polygon class="cls-16" points="1735.87 749.96 1721.52 772.7 1720.08 750.66 1727.73 738.03 1735.87 749.96"/><path class="cls-18" d="M1712,789.51a14.49,14.49,0,0,0-12.81,3,14.31,14.31,0,0,0-5.46-5.54s-3.92,6.65-5.09,8.94c-2.09,4.08-6.48,15.08-6.48,15.08l-1.18,3.26a14.32,14.32,0,0,0,14.59-2.45A14.69,14.69,0,0,0,1723,808,15.35,15.35,0,0,0,1712,789.51Z"/><polygon class="cls-20" points="838.18 1009.86 829.54 1215.92 1014.93 1215.92 1012.31 999.39 838.18 1009.86"/><path class="cls-11" d="M1070.76,1077s-.43-153.49-5.85-202.33C1055.6,790.81,992.26,728,921.73,728S792.06,789.56,776.14,872.42c0,0-27.23,154.17,54.06,193l.08,7.49Z"/><polyline class="cls-21" points="1015.4 821.7 1015.4 872.42 1017.28 1076.09"/><path class="cls-22" d="M854.48,802h0a4.89,4.89,0,0,1-6.84-1L837,786.57a4.89,4.89,0,0,1,1-6.84h0a4.89,4.89,0,0,1,6.84,1l10.67,14.4A4.9,4.9,0,0,1,854.48,802Z"/><path class="cls-22" d="M864,840.05h0a4.89,4.89,0,0,1-1,6.84l-14.4,10.67a4.89,4.89,0,0,1-6.84-1h0a4.89,4.89,0,0,1,1-6.84L857.2,839A4.9,4.9,0,0,1,864,840.05Z"/><path class="cls-22" d="M815.07,861.29h0a4.9,4.9,0,0,1-1,6.84L799.64,878.8a4.89,4.89,0,0,1-6.84-1h0a4.9,4.9,0,0,1,1-6.84l14.41-10.67A4.9,4.9,0,0,1,815.07,861.29Z"/><path class="cls-22" d="M813,941.72h0a4.89,4.89,0,0,1-1,6.84l-14.4,10.67a4.9,4.9,0,0,1-6.84-1h0a4.89,4.89,0,0,1,1-6.84l14.41-10.67A4.88,4.88,0,0,1,813,941.72Z"/><path class="cls-22" d="M877.51,865.24h0a4.88,4.88,0,0,1,6.3,2.84l6.34,16.77a4.89,4.89,0,0,1-2.84,6.3h0a4.89,4.89,0,0,1-6.3-2.84l-6.35-16.77A4.89,4.89,0,0,1,877.51,865.24Z"/><path class="cls-22" d="M862.87,926.88h0A4.88,4.88,0,0,1,856,927l-12.89-12.46a4.88,4.88,0,0,1-.12-6.91h0a4.89,4.89,0,0,1,6.91-.12L862.75,920A4.87,4.87,0,0,1,862.87,926.88Z"/><path class="cls-22" d="M870,978.84h0a4.88,4.88,0,0,1,2.41,6.48L865,1001.63a4.88,4.88,0,0,1-6.48,2.41h0a4.88,4.88,0,0,1-2.41-6.47l7.44-16.31A4.89,4.89,0,0,1,870,978.84Z"/><path class="cls-22" d="M848.19,1039h0a4.88,4.88,0,0,1-6.84-1l-10.82-14.3a4.9,4.9,0,0,1,1-6.85h0a4.88,4.88,0,0,1,6.84,1l10.81,14.29A4.88,4.88,0,0,1,848.19,1039Z"/><path class="cls-22" d="M886.58,1062h0a4.89,4.89,0,0,1-6.85-1l-10.81-14.3a4.9,4.9,0,0,1,1-6.85h0a4.89,4.89,0,0,1,6.85.95l10.81,14.3A4.88,4.88,0,0,1,886.58,1062Z"/><path class="cls-22" d="M807.62,1009.65h0a4.89,4.89,0,0,1-6.88.69L786.87,999a4.89,4.89,0,0,1-.68-6.88h0a4.89,4.89,0,0,1,6.88-.68l13.87,11.35A4.89,4.89,0,0,1,807.62,1009.65Z"/><path class="cls-22" d="M905.46,1019.51h0a4.89,4.89,0,0,1-6.91-.25l-12.21-13.12a4.89,4.89,0,0,1,.24-6.91h0a4.89,4.89,0,0,1,6.91.25l12.22,13.12A4.89,4.89,0,0,1,905.46,1019.51Z"/><path class="cls-22" d="M884.6,931.3h0a4.89,4.89,0,0,1,4.47,5.27l-1.47,17.87a4.89,4.89,0,0,1-5.27,4.47h0a4.89,4.89,0,0,1-4.47-5.27l1.47-17.87A4.89,4.89,0,0,1,884.6,931.3Z"/><path class="cls-22" d="M954,820.87h0a4.88,4.88,0,0,1,.62,6.88l-11.49,13.76a4.9,4.9,0,0,1-6.89.62h0a4.88,4.88,0,0,1-.62-6.88l11.49-13.76A4.89,4.89,0,0,1,954,820.87Z"/><path class="cls-22" d="M917.59,934.74h0a4.9,4.9,0,0,1-6.73-1.58l-9.44-15.24a4.89,4.89,0,0,1,1.58-6.73h0a4.89,4.89,0,0,1,6.73,1.58L919.17,928A4.88,4.88,0,0,1,917.59,934.74Z"/><path class="cls-22" d="M954.93,1045h0a4.89,4.89,0,0,1-6.73-1.58l-9.44-15.24a4.88,4.88,0,0,1,1.58-6.73h0a4.89,4.89,0,0,1,6.73,1.58l9.44,15.24A4.89,4.89,0,0,1,954.93,1045Z"/><path class="cls-22" d="M984.56,982.9h0a4.89,4.89,0,0,1-6.73-1.58l-9.44-15.24a4.88,4.88,0,0,1,1.58-6.73h0a4.89,4.89,0,0,1,6.73,1.58l9.44,15.24A4.89,4.89,0,0,1,984.56,982.9Z"/><path class="cls-22" d="M1001.37,889h0a4.9,4.9,0,0,1-6.73-1.58l-9.44-15.24a4.89,4.89,0,0,1,1.58-6.73h0a4.89,4.89,0,0,1,6.73,1.58l9.44,15.24A4.88,4.88,0,0,1,1001.37,889Z"/><path class="cls-22" d="M959.49,921.32h0a4.89,4.89,0,0,1-6.73-1.58l-9.44-15.24a4.88,4.88,0,0,1,1.58-6.73h0a4.89,4.89,0,0,1,6.73,1.58l9.44,15.24A4.89,4.89,0,0,1,959.49,921.32Z"/><path class="cls-22" d="M919.31,981.44h0a4.89,4.89,0,0,1-.37-6.91l12-13.34a4.9,4.9,0,0,1,6.91-.38h0a4.88,4.88,0,0,1,.37,6.9l-12,13.35A4.9,4.9,0,0,1,919.31,981.44Z"/><path class="cls-22" d="M972.93,938h0a4.89,4.89,0,0,1-.38-6.9l12-13.35a4.88,4.88,0,0,1,6.9-.37h0a4.89,4.89,0,0,1,.38,6.9l-12,13.35A4.89,4.89,0,0,1,972.93,938Z"/><path class="cls-22" d="M975.48,1046.29h0a4.9,4.9,0,0,1-.37-6.91l12-13.34a4.9,4.9,0,0,1,6.91-.38h0a4.88,4.88,0,0,1,.37,6.9l-12,13.35A4.9,4.9,0,0,1,975.48,1046.29Z"/><path class="cls-22" d="M909.1,1064.42h0a4.9,4.9,0,0,1-.38-6.91l12-13.34a4.88,4.88,0,0,1,6.9-.38h0a4.89,4.89,0,0,1,.38,6.9L916,1064A4.89,4.89,0,0,1,909.1,1064.42Z"/><path class="cls-22" d="M930.57,877.24h0a4.89,4.89,0,0,1-6.73-1.58l-9.44-15.24a4.88,4.88,0,0,1,1.58-6.73h0a4.89,4.89,0,0,1,6.73,1.58l9.44,15.24A4.89,4.89,0,0,1,930.57,877.24Z"/><path class="cls-22" d="M982.66,811.32h0a4.88,4.88,0,0,1,6.9.43l11.87,13.43a4.89,4.89,0,0,1-.42,6.9h0a4.89,4.89,0,0,1-6.9-.43l-11.87-13.43A4.89,4.89,0,0,1,982.66,811.32Z"/><path class="cls-22" d="M1024,897.62h0a4.89,4.89,0,0,1,6.9.42l11.88,13.43a4.91,4.91,0,0,1-.43,6.91h0a4.9,4.9,0,0,1-6.9-.43l-11.87-13.43A4.89,4.89,0,0,1,1024,897.62Z"/><path class="cls-22" d="M974.6,787h0a4.88,4.88,0,0,1,1-6.83L990,769.45a4.89,4.89,0,0,1,6.84,1h0a4.88,4.88,0,0,1-1,6.83L981.44,788A4.89,4.89,0,0,1,974.6,787Z"/><path class="cls-22" d="M956,867.64h0a4.88,4.88,0,0,1,1-6.83l14.4-10.67a4.89,4.89,0,0,1,6.84,1h0a4.88,4.88,0,0,1-1,6.83l-14.4,10.67A4.9,4.9,0,0,1,956,867.64Z"/><path class="cls-22" d="M1045.89,836.93h0a4.89,4.89,0,0,1-2,6.6L1028,851.9a4.89,4.89,0,0,1-6.6-2h0a4.88,4.88,0,0,1,2-6.6l15.85-8.37A4.9,4.9,0,0,1,1045.89,836.93Z"/><path class="cls-22" d="M880.93,777.21h0a4.9,4.9,0,0,1-2.19-6.56l8-16a4.89,4.89,0,0,1,6.56-2.18h0a4.89,4.89,0,0,1,2.19,6.55l-8,16A4.9,4.9,0,0,1,880.93,777.21Z"/><path class="cls-22" d="M900.11,833.58h0a4.89,4.89,0,0,1-6.89.62l-13.76-11.48a4.9,4.9,0,0,1-.62-6.89h0a4.9,4.9,0,0,1,6.89-.62l13.76,11.49A4.88,4.88,0,0,1,900.11,833.58Z"/><path class="cls-22" d="M811.77,916.56h0a4.89,4.89,0,0,1-6.89.62L791.12,905.7a4.9,4.9,0,0,1-.62-6.89h0a4.9,4.9,0,0,1,6.89-.62l13.76,11.49A4.88,4.88,0,0,1,811.77,916.56Z"/><path class="cls-22" d="M909.36,804.84h0a4.89,4.89,0,0,1,0-6.92L922,785.25a4.88,4.88,0,0,1,6.91,0h0a4.88,4.88,0,0,1,0,6.91l-12.67,12.68A4.88,4.88,0,0,1,909.36,804.84Z"/><path class="cls-22" d="M932,755.12h0a4.89,4.89,0,0,1,6.56-2.18l16,8a4.89,4.89,0,0,1,2.19,6.56h0a4.9,4.9,0,0,1-6.56,2.19l-16-8A4.89,4.89,0,0,1,932,755.12Z"/><path class="cls-22" d="M1028.63,801.24l12.5,1.72c-2.24-3.73-4.59-7.33-7-10.84l-4.13-.56a4.89,4.89,0,1,0-1.33,9.68Z"/><path class="cls-22" d="M975.45,749l6.67-4.94c-3.19-1.78-6.44-3.44-9.75-4.94l-2.74,2a4.89,4.89,0,1,0,5.82,7.86Z"/><path class="cls-22" d="M854.81,757.5a4.89,4.89,0,0,0,6.26-7.51l-4.07-3.4c-2.91,1.76-5.77,3.61-8.56,5.59Z"/><path class="cls-22" d="M804.4,830.08a4.89,4.89,0,0,0,4.38-8.75l-13-6.52c-1.47,2.89-2.86,5.84-4.21,8.83Z"/><path class="cls-22" d="M814.14,1029.32a4.89,4.89,0,0,0-6.43,2.55l-5.07,11.79,7.37,7.62,6.69-15.54A4.89,4.89,0,0,0,814.14,1029.32Z"/><path class="cls-22" d="M863,1073.27l1.5-3.48a4.89,4.89,0,0,0-9-3.86l-3.16,7.34Z"/><path class="cls-22" d="M846.59,966.93A4.88,4.88,0,0,0,840,965l-10.8,6,.12,11.1,15.41-8.51A4.88,4.88,0,0,0,846.59,966.93Z"/><path class="cls-21" d="M828.05,821.7v50.72l2.23,200.51,240.48,4.07s-.43-153.48-5.85-202.33C1055.6,790.81,992.26,728,921.73,728S792.06,789.56,776.14,872.42c0,0-27.23,154.17,54.06,193"/><path class="cls-23" d="M926.69,697.43h3.37a16.28,16.28,0,0,1,16.28,16.28v8.92a16.28,16.28,0,0,1-16.28,16.28h-3.37a16.27,16.27,0,0,1-16.27-16.27v-8.92a16.28,16.28,0,0,1,16.28-16.28Z"/><path class="cls-24" d="M986.62,655.39a13.44,13.44,0,0,0-6.83-11.71,9.79,9.79,0,0,0-5.63-15.13,11.64,11.64,0,0,0,.69-3.93A11.86,11.86,0,0,0,963,612.76h-.07a11.08,11.08,0,0,0-18.52-6.95,17,17,0,0,0-24-.82,17.37,17.37,0,0,0-27.25,9.43,10.37,10.37,0,0,0-8.27,12.22,12.38,12.38,0,0,0-6.49,17.74,13.43,13.43,0,0,0-.92,21.29A13.47,13.47,0,0,0,882,681.91a13.43,13.43,0,0,0,11.48,18.46A13.46,13.46,0,1,0,907,681.91a13.49,13.49,0,0,0-4.67-5.9,13.43,13.43,0,0,0-3.81-15.35,13.47,13.47,0,0,0-1.32-12.92,12.37,12.37,0,0,0,3.48-14.11,17.35,17.35,0,0,0,21.49-2.31,17,17,0,0,0,25.46-7.11,10.9,10.9,0,0,0,3.56.83A11.85,11.85,0,0,0,962,636.43a9.68,9.68,0,0,0-.17,1.63,9.81,9.81,0,0,0,2.82,6.88,13.43,13.43,0,0,0-3.91,15.72A13.43,13.43,0,0,0,957,676a13.49,13.49,0,0,0-4.67,5.9,13.45,13.45,0,1,0,13.47,18.46A13.45,13.45,0,0,0,978.23,687a13.25,13.25,0,0,0-1-5.05,13.46,13.46,0,0,0,4.59-16.23A13.42,13.42,0,0,0,986.62,655.39Z"/><path class="cls-23" d="M871.14,679.38a11.44,11.44,0,1,0,12-10.78A11.4,11.4,0,0,0,871.14,679.38Z"/><path class="cls-21" d="M888.88,680.24a6.29,6.29,0,0,0-6-6.57"/><path class="cls-23" d="M983.53,681.36A11.44,11.44,0,1,1,972,670.17,11.38,11.38,0,0,1,983.53,681.36Z"/><path class="cls-21" d="M965.77,681.59a6.3,6.3,0,0,1,6.24-6.35"/><path class="cls-23" d="M962.08,684.74a30,30,0,0,1-30.75,29.1l-9.72-.27a30,30,0,0,1-29.1-30.76l.9-32.28a30,30,0,0,1,30.75-29.1l9.72.27A30,30,0,0,1,963,652.46Z"/><path class="cls-21" d="M937.35,687.72a8.93,8.93,0,0,1-17.72-.49"/><path class="cls-7" d="M909.25,666.42a4,4,0,1,1-3.79-4.27A4,4,0,0,1,909.25,666.42Z"/><path class="cls-7" d="M951.91,667.17a4,4,0,1,1-3.79-4.27A4,4,0,0,1,951.91,667.17Z"/><path class="cls-25" d="M944,658.08s5.73-1.17,10,2"/><path class="cls-25" d="M909.35,657.47s-5.69-1.37-10.05,1.7"/><polyline class="cls-21" points="930.84 676.48 923.82 676.35 927.6 660.51"/><rect class="cls-22" x="898.29" y="719.16" width="60.4" height="21.57" rx="9.63"/><path class="cls-11" d="M884.35,637.29s-2.86,11.81,3.65,17.89,18.52-2.52,18.52-2.52,7.78,4,16.38,2.73c12.46-1.81,14.62-12,14.88-12.64s1.32,8.17,9,9.73a15.06,15.06,0,0,0,9.39-1.56s-1.07,12.6,11.44,12.81c16.68.28,8.14-25.21,8.14-25.21s2.84-17.21-18.52-27.52-32.08-5-48.79,1.07S884.35,637.29,884.35,637.29Z"/><path class="cls-21" d="M888,655.18c6.51,6.08,18.52-2.52,18.52-2.52s7.78,4,16.38,2.73c12.46-1.81,14.62-12,14.88-12.64s1.32,8.17,9,9.73a15.06,15.06,0,0,0,9.39-1.56s-1.07,12.6,11.44,12.81"/><polygon class="cls-22" points="1117.77 963.41 1104.9 1074.7 1311.34 1074.7 1307.4 961.57 1117.77 963.41"/><path class="cls-26" d="M1366.57,913l12.85,41.3s-95.57,51.23-96.52,49.42-26.23-81.39-26.23-81.39Z"/><line class="cls-27" x1="1349.69" y1="922.87" x2="1360.15" y2="957.97"/><path class="cls-26" d="M1220.66,700.74s58.49,26.1,81,62.6c38.19,61.93,43.17,151.23,43.17,151.23L1311.29,917s5.6,75.66,4.5,83.62-203.57,13.3-203.57,13.3-12.54-167.6-4.78-198.51S1150.78,701.93,1220.66,700.74Z"/><line class="cls-27" x1="1297.01" y1="811.09" x2="1307.49" y2="917.04"/><path class="cls-28" d="M1226.72,718a4.47,4.47,0,0,0-3.74-1.76l-12.17.46-12.16-.46a4.47,4.47,0,0,0-4.52,5.59l5.26,20a4.48,4.48,0,0,0,4.34,3.34h14.17a4.48,4.48,0,0,0,4.34-3.34l5.25-20A4.42,4.42,0,0,0,1226.72,718Z"/><polygon class="cls-28" points="1203.49 740.04 1190.36 882.35 1213.22 914.55 1231.36 879.22 1217.39 737 1203.49 740.04"/><line class="cls-27" x1="1202.26" y1="744.94" x2="1218.8" y2="744.94"/><path class="cls-26" d="M1439,916a43.63,43.63,0,0,0,12-2.93c6.67-2.6,10.36-7.85,9.53-12.45s-16.56,1.67-19.42,4.87S1434.05,913.86,1439,916Z"/><line class="cls-29" x1="1260.91" y1="920.45" x2="1358.14" y2="913.63"/><path class="cls-5" d="M1362.62,917.4l108.43-12.52a7.39,7.39,0,0,0,6.11-4.88l38.23-110.13a7.33,7.33,0,0,0-7.16-9.71l-110.38,3.18a7.34,7.34,0,0,0-6.83,5.19L1354.73,908A7.33,7.33,0,0,0,1362.62,917.4Z"/><path class="cls-27" d="M1457.42,852c-3.85,6.63-11.51,9.39-17.11,6.17s-7-11.21-3.19-17.83,11.51-9.4,17.11-6.17S1461.26,845.39,1457.42,852Z"/><polyline class="cls-27" points="1475.65 904.35 1355.77 918.19 1259.78 924.41"/><path class="cls-11" d="M1447.76,878.88c-6.25-2-6.57,7.41-6.57,7.41v0c-1.15-3.94-3.69-4.31-5.44-3.92-4.23.92-6,8-6,8l-.25.8c-.55-2.45-2-3.74-4.93-3.46-7.5.71-15.72,24.64-15.72,24.64l.36-1.68-40.43,5.95c-.62,3,2.34,9.78,3.65,11.76.6.9,9.08-1.66,9.55-.82,3.2,5.65,12.78,6.46,17.76,6,6.87-.62,15.65-7.08,19.54-10.36h0c4.13,1.13,8.68-1.19,8.68-1.19a17.15,17.15,0,0,0,3.54-2.67h0c10.86-2.13,18.26-11.74,19.15-16.36C1450.62,903.06,1454,880.83,1447.76,878.88Z"/><path class="cls-27" d="M1409.15,911.46l-41.25,5.33,4.14,11.86,9-1.48s2.46,1.94,3.24,2.6c4.17,3.49,11.19,4.25,15.45,3.86,7.86-.71,18.22-9.06,20.9-11.55s5.72-11.38,5.72-11.38c3.93-13.87,5.71-23.64-1.79-22.93s-15.72,24.64-15.72,24.64"/><path class="cls-27" d="M1429.72,890.43s1.79-7.11,6-8c2.94-.64,8.09.75,5.23,17.66s-13,22-13,22-4.55,2.32-8.68,1.19"/><path class="cls-27" d="M1441.19,886.29s.32-9.37,6.57-7.41,2.86,24.18,2.86,24.18c-.89,4.62-8.29,14.23-19.15,16.36"/><path class="cls-26" d="M1311.6,864.76s15-4.9,20.13-1.64.27,8.13-5.44,9.49S1309.52,868.45,1311.6,864.76Z"/><path class="cls-11" d="M1339.24,875.21c-10.2-8.94-35.91-21.93-51-16.34s-61.62,26.49-65.7,33.57-2.85,41.25,17.8,35.29,45.05-29.78,48.72-29.37,29.88,2.73,30.2-5.4h0c5.71,3,13.66,2.75,15.29,0a4.44,4.44,0,0,0,.68-1.74l0,0c3.8,1.31,6.41-.44,6.69-3.22l.43,0C1345.56,886.85,1349.45,884.14,1339.24,875.21Z"/><path class="cls-27" d="M1284.15,883.47s34.28.22,35.1,9-26.53,6.32-30.2,5.92-28.07,23.42-48.72,29.37-21.88-28.2-17.8-35.29,50.61-28,65.7-33.57,40.81,7.4,51,16.34,6.32,11.64,3.15,12.86"/><path class="cls-27" d="M1287.42,874.6s19.79.93,34.28,7.06,14.48,8.56,12.85,11.31-9.58,3-15.29,0"/><path class="cls-27" d="M1297,863.83s31.22,10.52,39.79,16.15,5.51,13.71-1.53,11.27"/><path class="cls-11" d="M1229.17,863.31l-122,25.62,20.73-4.36,6-62.41,48.58-110.9s-90.5,19.33-132.31,144.19c-42.83,127.88,29.26,144.49,66.89,148.17S1255,944,1255,944Z"/><path class="cls-27" d="M1182.42,711.26s-90.5,19.33-132.31,144.19c-42.83,127.88,29.26,144.49,66.89,148.17S1255,944,1255,944l-25.81-80.7-122,25.62"/><line class="cls-27" x1="1211.87" y1="875.36" x2="1233.56" y2="947.57"/><line class="cls-27" x1="1127.88" y1="884.57" x2="1133.84" y2="822.16"/><polygon class="cls-26" points="1242.52 711.96 1228.96 696.33 1212.48 696.33 1207.11 696.33 1190.63 696.33 1177.08 711.96 1187.72 742.78 1209.8 724.02 1231.87 742.78 1242.52 711.96"/><path class="cls-30" d="M1191.39,682.77h36.82a0,0,0,0,1,0,0v20.16a11.71,11.71,0,0,1-11.71,11.71h-13.4a11.71,11.71,0,0,1-11.71-11.71V682.77A0,0,0,0,1,1191.39,682.77Z"/><path class="cls-7" d="M1168,653.6s-8.8-14.85-6.43-36.17c3.89-35.06,43.15-37.84,48-37.84,3.55,0,10.79,3.1,10.79,3.1a36.48,36.48,0,0,1,12.09,1c12.61,3.67,22.27,12.91,24,26.33,2.75,20.85-4.9,49.42-5.6,52.75S1181.14,676.76,1168,653.6Z"/><path class="cls-30" d="M1153.79,659.41a11.24,11.24,0,1,0,11.58-10.8A11.19,11.19,0,0,0,1153.79,659.41Z"/><path class="cls-7" d="M1170.19,661.41c0-.24,0-.48,0-.71s0-.52-.06-.77,0-.29,0,0a.91.91,0,0,0,0-.23c0-.17-.06-.34-.1-.5a7.66,7.66,0,0,0-.32-1c-.09-.23.07.15,0-.07l-.12-.24a6,6,0,0,0-.31-.55c0-.08-.11-.15-.16-.22s.1.09-.06-.09a5.44,5.44,0,0,0-.47-.49l-.22-.19c-.15-.13.11.08,0,0a1.48,1.48,0,0,0-.13-.08,4.72,4.72,0,0,0-.61-.37l-.15-.07-.12-.06c.1,0,.11,0,0,0l-.4-.14a6.48,6.48,0,0,0-.87-.21s-.28,0-.09,0l-.25,0-.52,0a10.1,10.1,0,0,0-1.23,0,.87.87,0,1,1,0-1.74,7.18,7.18,0,0,1,6.49,2.47,7.88,7.88,0,0,1,1.45,4.38,6.28,6.28,0,0,1,0,1,.9.9,0,0,1-.87.87.88.88,0,0,1-.87-.87Z"/><path class="cls-30" d="M1264.06,661a11.25,11.25,0,1,1-10.9-11.49A11.2,11.2,0,0,1,1264.06,661Z"/><path class="cls-7" d="M1245.83,661.94a7.18,7.18,0,0,1,4.11-7,8.6,8.6,0,0,1,4.47-.36.86.86,0,0,1,.61,1.06.89.89,0,0,1-1.07.61,6.84,6.84,0,0,0-3.25.25c-.06,0-.38.15-.19.06l-.3.15a5.51,5.51,0,0,0-.61.37c-.2.14.07-.07-.11.09l-.23.2a4.47,4.47,0,0,0-.42.45l-.09.11c.13-.16,0-.08,0,0l-.16.24a4,4,0,0,0-.31.52,1.34,1.34,0,0,0-.12.24c0,.06-.15.35,0,.09-.06.17-.13.34-.18.51a6.21,6.21,0,0,0-.25.94c0,.14-.06.28-.08.42s-.1.28,0,0a.58.58,0,0,0,0,.19,6.49,6.49,0,0,0,0,.88c0,1.12-1.7,1.12-1.73,0Z"/><rect class="cls-30" x="1162.06" y="611.18" width="94.09" height="71.05" rx="30.56" transform="translate(550.19 1849.19) rotate(-89.42)"/><path class="cls-7" d="M1190.2,645.79a4.11,4.11,0,1,1-3.93-4.29A4.11,4.11,0,0,1,1190.2,645.79Z"/><path class="cls-7" d="M1233.76,645.79a4.11,4.11,0,1,1-3.94-4.29A4.13,4.13,0,0,1,1233.76,645.79Z"/><path class="cls-7" d="M1182.2,640.09c.58-.31,1.17-.6,1.78-.86l-.62.27a18.44,18.44,0,0,1,4.31-1.22,2.68,2.68,0,0,0,1.56-1.2,2.61,2.61,0,0,0-.94-3.57l-.62-.26a2.73,2.73,0,0,0-1.39,0,20.78,20.78,0,0,0-6.71,2.34,2.66,2.66,0,0,0-1.19,1.56,2.61,2.61,0,0,0,.26,2,2.65,2.65,0,0,0,3.56.93Z"/><path class="cls-7" d="M1236.59,635.59a20.78,20.78,0,0,0-6.71-2.34,2.83,2.83,0,0,0-2,.26,2.61,2.61,0,0,0-.94,3.57,2.54,2.54,0,0,0,1.56,1.2,18.44,18.44,0,0,1,4.31,1.22l-.62-.27c.6.26,1.2.55,1.77.86a2.77,2.77,0,0,0,2,.27,2.61,2.61,0,0,0,.62-4.77Z"/><polyline class="cls-27" points="1207.33 637.84 1204.46 656.21 1211.54 656.21"/><path class="cls-27" d="M1196.84,664.88c1.53,5.89,6.41,10.23,12.27,10.23s10.73-4.34,12.26-10.23Z"/><path class="cls-7" d="M1224.33,594.2s-41-6.2-50.12,14.82c-1.43,3.27-6,21-2.26,19.93,7.15-2,14.52-11.72,18.53-20.38,6.73,5.44,15.57,11.61,17.35,10.18,3-2.38-4.57-13.21-4.57-13.21s20.17,19.2,23.33,17.05-9.16-18.6-9.16-18.6,26.7,27.57,28.64,19.13S1224.33,594.2,1224.33,594.2Z"/><ellipse class="cls-4" cx="1360.74" cy="1069.57" rx="573.7" ry="144.21"/><ellipse class="cls-31" cx="1360.74" cy="1063.57" rx="573.7" ry="139.23"/></g></svg>