<svg id="Layer_1" data-name="Layer 1" xmlns="http://www.w3.org/2000/svg" xmlns:xlink="http://www.w3.org/1999/xlink" viewBox="0 0 830.3 240.9"><defs><style>.cls-1,.cls-6{fill:none;}.cls-2{fill:#183c6c;}.cls-3{fill:#646363;}.cls-4{clip-path:url(#clip-path);}.cls-5{fill:#a8182f;}.cls-6{stroke:#fff;stroke-linecap:round;stroke-miterlimit:10;stroke-width:1.7px;}</style><clipPath id="clip-path"><path class="cls-1" d="M681.85,197.55a25.13,25.13,0,1,0-25.13,25.13,25.13,25.13,0,0,0,25.13-25.13"/></clipPath></defs><path class="cls-2" d="M733.67,140.86H652a20.56,20.56,0,0,1,0-41.12h81.72a20.42,20.42,0,1,0,0-40.84H652a20.56,20.56,0,1,1,0-41.11h81.72a61.54,61.54,0,1,1,0,123.07"/><path class="cls-3" d="M17.09,166.38a17.63,17.63,0,0,0,5.68-7.66q1.41-4.12,1.42-11.93V99.64H44.63v47.15q0,11.93-3,19.59a33.86,33.86,0,0,1-10.22,13.71q-7.24,6-21,12.85L2.74,175.76A111.68,111.68,0,0,0,17.09,166.38Z"/><path class="cls-3" d="M85.46,166.1q6.18-3.4,8.45-6.39a11.42,11.42,0,0,0,2.27-7.1H87a32.4,32.4,0,0,1-15.62-3.83A29.62,29.62,0,0,1,60,138.2a28.13,28.13,0,0,1-4.19-15.13A30.22,30.22,0,0,1,60,107.45,31.49,31.49,0,0,1,71.33,96.16,30.19,30.19,0,0,1,87,92a28.19,28.19,0,0,1,15,4.18,29.41,29.41,0,0,1,10.65,11.29,32.32,32.32,0,0,1,3.84,15.62v20.74q0,13.2-4,21.37t-13.07,14.2q-9,6-26.34,13.56l-6.39-18Q79.29,169.5,85.46,166.1Zm10.72-43.17a9.4,9.4,0,0,0-2.63-6.82,8.85,8.85,0,0,0-6.6-2.69,9.51,9.51,0,0,0-6.89,2.69,9.78,9.78,0,0,0,0,13.64A9.47,9.47,0,0,0,87,132.44h9.23Z"/><path class="cls-3" d="M168.31,132.59v18.6a1.25,1.25,0,0,1-1.42,1.42h-6.1a24.6,24.6,0,0,1-6.68-.85A54.75,54.75,0,0,1,151.27,168a37,37,0,0,1-7.52,12.21,106.21,106.21,0,0,1-14.63,12.71L117.76,178a66.91,66.91,0,0,0,10.86-10.23,22,22,0,0,0,4.34-8.66,59.38,59.38,0,0,0,1-12.35V99.64h20.31v24.85a6.59,6.59,0,0,0,1.84,4.76,6.22,6.22,0,0,0,4.69,1.92h6.1A1.25,1.25,0,0,1,168.31,132.59Z"/><path class="cls-3" d="M265.3,95.38v57.23H239.74q-10.23,0-16.47-7.38-6.12,7.67-16.9,7.66t-16.76-7.52q-6.11,7.23-16.75,7.24h-6a1.26,1.26,0,0,1-1.42-1.42v-18.6a1.26,1.26,0,0,1,1.42-1.42h6a6.56,6.56,0,0,0,6.67-6.68V99.64h20.31v25.14a6.56,6.56,0,0,0,1.84,4.75,6.68,6.68,0,0,0,9.37,0,6.57,6.57,0,0,0,1.85-4.75V99.64h20.45v24.85a6.59,6.59,0,0,0,1.84,4.76,6.07,6.07,0,0,0,4.55,1.92h5.11V95.38Z"/><path class="cls-3" d="M406.59,132.59v18.6a1.26,1.26,0,0,1-1.42,1.42h-6.11a17.79,17.79,0,0,1-10.79-3.12,45.31,45.31,0,0,1-16.54,20.37,43.82,43.82,0,0,1-25.35,7.74,44.27,44.27,0,0,1-22.86-6.18,46.18,46.18,0,0,1-16.69-16.68,44.32,44.32,0,0,1-6.18-22.86V105.32H321.1v25.42a24.62,24.62,0,0,0,3.41,12.64,25.37,25.37,0,0,0,9.23,9.23A24.59,24.59,0,0,0,346.38,156a25.56,25.56,0,0,0,22.15-12.64,24.62,24.62,0,0,0,3.41-12.64V56.9h20.59v67.59a6.45,6.45,0,0,0,1.92,4.76,6.26,6.26,0,0,0,4.61,1.92h6.11A1.26,1.26,0,0,1,406.59,132.59Z"/><path class="cls-3" d="M403.75,151.19v-18.6a1.25,1.25,0,0,1,1.42-1.42H420.5a6.18,6.18,0,0,0,4.62-2,6.53,6.53,0,0,0,1.91-4.69V95.38h20.31v30.39a26.44,26.44,0,0,1-3.55,13.42,26.71,26.71,0,0,1-9.66,9.8,26,26,0,0,1-13.49,3.62H405.17A1.25,1.25,0,0,1,403.75,151.19Zm1.56,13.63h18.17V183H405.31Zm25.56,0h18.32V183H430.87Z"/><path class="cls-3" d="M472.33,149a26.92,26.92,0,0,1-13.2-23.22V56.9h20.44v67.59a6.6,6.6,0,0,0,1.85,4.76,6.06,6.06,0,0,0,4.54,1.92h7.81a1.25,1.25,0,0,1,1.42,1.42v18.6a1.25,1.25,0,0,1-1.42,1.42h-7.95A26,26,0,0,1,472.33,149Z"/><path class="cls-3" d="M492.35,151.19v-18.6a1.26,1.26,0,0,1,1.42-1.42h34.65a6.31,6.31,0,0,0,6.53-6.53v-1.42h-6.81a29.47,29.47,0,0,1-14.42-3.63,28,28,0,0,1-10.5-9.86A25.45,25.45,0,0,1,499.31,96a27.67,27.67,0,0,1,4-14.55,29.84,29.84,0,0,1,10.58-10.51A27.49,27.49,0,0,1,528.14,67,25.68,25.68,0,0,1,542,70.82a27.08,27.08,0,0,1,9.73,10.5A30.78,30.78,0,0,1,555.26,96v29.82A26.9,26.9,0,0,1,542.05,149a26,26,0,0,1-13.49,3.62H493.77A1.26,1.26,0,0,1,492.35,151.19Zm43.88-55.95a8.71,8.71,0,0,0-8.8-8.8A8.67,8.67,0,0,0,521,89a8.5,8.5,0,0,0-2.56,6.25A8.88,8.88,0,0,0,521,101.7a8.54,8.54,0,0,0,6.39,2.63h8.8ZM519.05,37.73h18.32V55.91H519.05Z"/><g class="cls-4"><path class="cls-5" d="M681.85,197.55a25.13,25.13,0,1,0-25.13,25.13,25.13,25.13,0,0,0,25.13-25.13"/><polyline class="cls-6" points="662.53 214.71 655.96 208.13 649.38 214.71"/><line class="cls-6" x1="655.96" y1="208.13" x2="655.96" y2="222.94"/><path class="cls-6" d="M667.68,213.89a7,7,0,0,0-3.34-13.12h-1.76a11.18,11.18,0,1,0-19.2,10.2"/><polyline class="cls-6" points="662.53 214.71 655.96 208.13 649.38 214.71"/></g></svg>