<svg xmlns="http://www.w3.org/2000/svg" viewBox="0 0 800 800"><defs><style>.cls-1{isolation:isolate;}.cls-17,.cls-2,.cls-8{fill:#1c1d3e;}.cls-11,.cls-13,.cls-15,.cls-18,.cls-3,.cls-7{fill:#fff;}.cls-11,.cls-12,.cls-13,.cls-14,.cls-15,.cls-16,.cls-17,.cls-18,.cls-20,.cls-3,.cls-4{stroke:#1c1d3e;}.cls-11,.cls-12,.cls-14,.cls-15,.cls-16,.cls-17,.cls-20,.cls-3,.cls-4,.cls-8{stroke-linecap:round;stroke-linejoin:round;}.cls-3,.cls-4,.cls-8{stroke-width:1.45px;}.cls-12,.cls-14,.cls-16,.cls-20,.cls-4{fill:none;}.cls-5{fill:#505ea8;}.cls-6{fill:#c5c1d2;}.cls-8{stroke:#fff;}.cls-9{fill:#f6cb40;}.cls-10{fill:#e6007e;}.cls-11,.cls-12,.cls-13{stroke-width:1.58px;}.cls-13,.cls-18{stroke-miterlimit:10;}.cls-14{stroke-width:3.17px;}.cls-15,.cls-16,.cls-17,.cls-18{stroke-width:1.56px;}.cls-19{fill:#662483;}.cls-20{stroke-width:2.07px;}.cls-21{mix-blend-mode:multiply;opacity:0.75;}.cls-22{fill:#b2b2b2;}</style></defs><g class="cls-1"><g id="Layer_1" data-name="Layer 1"><polygon class="cls-2" points="695 687.79 706.57 800.75 520.85 800.75 524.4 685.92 695 687.79"/><path class="cls-3" d="M601.13,427.8s-50.3,30.92-66.46,92.11-10.27,166-10.27,166,198.88,8.81,198.88,6.06,13-96.26-6.76-146.48S644.66,449,644.66,449Z"/><path class="cls-4" d="M596.72,449.73S567.5,583.32,567.83,653.28v34.48"/><path class="cls-5" d="M631,545.26a15.61,15.61,0,0,0-13.79,3.25,15.49,15.49,0,0,0-5.87-6s-4.22,7.15-5.48,9.62c-2.24,4.39-7,16.22-7,16.22l-1.27,3.51a14.7,14.7,0,0,0,1.91.62,15.59,15.59,0,0,0,13.78-3.25,15.82,15.82,0,0,0,29.53-4.15A16.53,16.53,0,0,0,631,545.26Z"/><path class="cls-6" d="M620.37,689.13c-2-33.08-7-116.4-9.09-150.7-.5-8.21-6.83-14.24-13.85-13.21l-101.92,15c-6.73,1-11.51,8.12-10.69,15.95L500.2,702.76c.81,7.73,6.79,13.29,13.45,12.53l95.62-10.94C615.91,703.59,620.83,696.86,620.37,689.13Z"/><path class="cls-7" d="M480.94,623.18c-2.69,7.11,1.15,16,17.25,21.82S581,660,581,660l8.89-46.54s-67.54-27-72.7-22.72,9.54,18.07,9.54,18.07-26.1-7.39-33-8.8-7.5,3.1-6.77,5.76c0,0-6.64.62-4.75,7.7A9.86,9.86,0,0,0,480.94,623.18Z"/><path class="cls-4" d="M486.91,605.77s-6.64.62-4.75,7.7c2.08,7.81,25.39,14.3,25.39,14.3"/><path class="cls-4" d="M482.16,613.47a9.86,9.86,0,0,0-1.22,9.71c2.48,6.46,23.08,13.45,23.08,13.45"/><path class="cls-4" d="M480.94,623.18c-2.69,7.11,1.15,16,17.25,21.82S581,660,581,660l8.89-46.54s-67.54-27-72.7-22.72,9.54,18.07,9.54,18.07-26.1-7.39-33-8.8-7.5,3.1-6.77,5.76c1,3.71,7.67,8.2,23.48,12.56"/><path class="cls-7" d="M571.24,668l4.24-67.11,115.25-8L677,592.58l-15.93-61.67L606.6,433.34s85.89,4.43,150.55,102.37C821.27,632.83,788,728.42,670,701.5,570,678.69,571.24,668,571.24,668Z"/><path class="cls-4" d="M606.6,433.34s85.89,4.43,150.55,102.37C821.27,632.83,788,728.42,670,701.5,570,678.69,571.24,668,571.24,668l4.24-67.11,115.25-8"/><line class="cls-4" x1="591.31" y1="608.73" x2="591.31" y2="670.63"/><line class="cls-4" x1="676.99" y1="592.58" x2="661.06" y2="530.91"/><path class="cls-5" d="M667.59,477.33a17.11,17.11,0,0,0-31.94,4.49c-2.21,9.57,3.53,19.2,12.81,21.48a16.89,16.89,0,0,0,14.92-3.51,17.11,17.11,0,0,0,31.94-4.49c2.21-9.57-3.54-19.2-12.81-21.48A16.89,16.89,0,0,0,667.59,477.33Z"/><path class="cls-5" d="M715.64,534.78a17.11,17.11,0,0,0-31.95,4.49c-2.21,9.56,3.54,19.19,12.81,21.47a16.86,16.86,0,0,0,14.92-3.51,17.12,17.12,0,0,0,32-4.49c2.21-9.56-3.54-19.2-12.82-21.48A16.85,16.85,0,0,0,715.64,534.78Z"/><path class="cls-5" d="M727.13,605.57a17.12,17.12,0,0,0-32,4.49c-2.21,9.57,3.54,19.2,12.81,21.48A16.89,16.89,0,0,0,722.91,628a17.12,17.12,0,0,0,32-4.49c2.21-9.57-3.54-19.2-12.82-21.48A16.87,16.87,0,0,0,727.13,605.57Z"/><path class="cls-5" d="M649.14,619.92a17.12,17.12,0,0,0-31.95,4.49C615,634,620.73,643.61,630,645.89a16.86,16.86,0,0,0,14.91-3.51,17.12,17.12,0,0,0,32-4.49c2.21-9.57-3.54-19.2-12.81-21.48A16.89,16.89,0,0,0,649.14,619.92Z"/><path class="cls-5" d="M689.53,670.2a17.11,17.11,0,0,0-31.95,4.49c-2.21,9.56,3.54,19.19,12.81,21.47a16.89,16.89,0,0,0,14.92-3.51,17.12,17.12,0,0,0,32-4.49c2.21-9.56-3.54-19.2-12.82-21.48A16.85,16.85,0,0,0,689.53,670.2Z"/><path class="cls-3" d="M577.65,335.72l19.83.25c13.18.16,23.82,12.57,23.64,27.58l-.38,30.74c0,.87-.06,1.72-.14,2.57a12.5,12.5,0,0,1,.3,2.82l-.23,18.71v1l-.23,18.71a12.38,12.38,0,0,1-12.49,12.2l-7.87-.1a12.38,12.38,0,0,1-12.2-12.49l.21-16.56-11.47-.14c-13.18-.16-23.82-12.58-23.64-27.59l.38-30.74C553.53,347.71,564.46,335.56,577.65,335.72Z"/><path class="cls-2" d="M592.91,373.25a4.47,4.47,0,1,1-4.42-4.52A4.48,4.48,0,0,1,592.91,373.25Z"/><path class="cls-2" d="M563.65,372.24a3.82,3.82,0,1,1-3.77-3.86A3.82,3.82,0,0,1,563.65,372.24Z"/><path class="cls-3" d="M567.69,390.58s2.17,6.57,6.91,7.08,8.53-4.71,8.84-8.81Z"/><polyline class="cls-4" points="575.05 383.81 567.83 379.29 574.32 368.57"/><line class="cls-4" x1="596.72" y1="365.29" x2="588.57" y2="362.31"/><line class="cls-4" x1="563.55" y1="363.45" x2="556.13" y2="363.36"/><path class="cls-8" d="M620.66,389.92a12.32,12.32,0,0,1,7.86,1.09,14.82,14.82,0,0,1,1-10A15.32,15.32,0,0,1,606,370.68a15.09,15.09,0,0,1-9.84-15.8,15.35,15.35,0,0,1-2.89-2.24,15.67,15.67,0,0,1-1.91-2.36,15.27,15.27,0,0,1-19.74-.39,13.32,13.32,0,0,1-1.23,1.49,15.3,15.3,0,0,1-26-8.84,15.15,15.15,0,0,1-5.27-3.47,15.37,15.37,0,0,1,.1-21.74,15.18,15.18,0,0,1,2.65-2.07A15.36,15.36,0,0,1,557.16,300a15.28,15.28,0,0,1,21.89-7.15,15.29,15.29,0,0,1,28.4-.83,10.28,10.28,0,0,1,.67-.81,13.79,13.79,0,0,1,22.46,4.45,15.26,15.26,0,0,1,21.28,13.2,11.82,11.82,0,0,1,10.81,17.31,15.69,15.69,0,0,1,1,30.68,13.1,13.1,0,0,1-9.27,21.34,14.81,14.81,0,0,1-19.32,21.92,12.23,12.23,0,0,1-14.55,13.83Z"/><path class="cls-7" d="M645.84,385.15a15.79,15.79,0,1,1-15.6-15.85A15.73,15.73,0,0,1,645.84,385.15Z"/><path class="cls-4" d="M621.49,386.92s-.57-10.64,10.34-9.33"/><path class="cls-4" d="M614.26,384.77a15.56,15.56,0,0,1,4.9-11.15"/><path class="cls-4" d="M619.16,373.62a15.67,15.67,0,1,1,3.28,25.06,22.85,22.85,0,0,1-3.55-2.53"/><polygon class="cls-3" points="631.83 438.28 622.77 424.53 596.72 443.15 612.16 470.08 631.83 438.28"/><polygon class="cls-3" points="596.72 443.15 581.28 467.62 579.74 443.91 587.96 430.32 596.72 443.15"/><path class="cls-5" d="M571,485.7A15.59,15.59,0,0,0,557.24,489a15.4,15.4,0,0,0-5.88-6s-4.22,7.15-5.47,9.61c-2.25,4.39-7,16.22-7,16.22l-1.27,3.52a15.18,15.18,0,0,0,1.91.61,15.58,15.58,0,0,0,13.79-3.25,15.81,15.81,0,0,0,29.53-4.14A16.54,16.54,0,0,0,571,485.7Z"/><path class="cls-9" d="M230.13,407s71.1,9,104.82,67.63c28.5,49.56,53.47,203.49,50.6,269.92l-76.07,7.81-15.43-213.1Z"/><path class="cls-10" d="M213.69,407c-29.54,1.43-71.35,23.24-108.56,57.59s-73.73,84.54-82,122.83c-7,32.64-5.48,84.1,55.31,84.1l83.88-188.27Z"/><path class="cls-11" d="M136.5,467.94s-16.84-21.68-10.65-43.88,21.08-20.78,16.47-46.78-1.51-55.92,12.43-71.92,26.54-34.16,59.72-27.92c0,0,35-11,50.2,5.72s15.61,37.68,15.56,48,6.14,18.82,13.88,33.67,17.89,46.33,10.75,67.49-.78,54.71-17.12,61.93S164.7,499.44,136.5,467.94Z"/><path class="cls-2" d="M83.24,756.86l263.2,4.61L321.15,649.82l12-166.91c-1.15-2.34,3-6.23,1.79-8.26C301.23,416,230.13,407,230.13,407H213.69c-28.6,1.38-68.69,21.91-105,54.38l4.34,132.53-2.72,59.28Z"/><polygon class="cls-5" points="326.67 856.24 113.26 856.24 124.56 625.98 298.36 625.98 326.67 856.24"/><path class="cls-10" d="M83.24,756.86,205.35,759c3.36-32.31,7.14-81.38,4.29-120-4.49-60.91-31-211.75-32.92-222.38-21.72,9.24-45.58,24.72-68,44.79l4.34,132.53-2.72,59.28Z"/><path class="cls-10" d="M321.15,649.82l17.27-168.57c-1.15-2.33-2.3-4.57-3.47-6.6-16.78-29.18-42.8-46.06-64.72-55.66-3.89,22.16-28.22,161.94-32.5,220-2.87,38.89,1,88.36,4.36,120.65l104.35,1.83Z"/><polyline class="cls-12" points="157.71 434.04 162.63 522.74 170.98 527.39 163.12 534.42 197.59 657.51"/><polyline class="cls-12" points="290.1 434.04 285.19 522.74 276.83 527.39 284.69 534.42 250.23 657.51"/><polyline class="cls-12" points="242.09 759.64 346.44 761.47 319.51 642.59 319.27 508.11"/><polyline class="cls-12" points="116.99 508.11 110.33 653.21 83.24 756.86 205.35 759"/><path class="cls-6" d="M91.68,631.47,68.65,476a20.56,20.56,0,0,1,19.5-23.56L156,449.67a20.56,20.56,0,0,1,21.24,17.87L196.16,612a20.57,20.57,0,0,1-16,22.77l-63.75,13.82A20.56,20.56,0,0,1,91.68,631.47Z"/><path class="cls-12" d="M138.45,531.41a10.83,10.83,0,1,1-10.83-10.83A10.83,10.83,0,0,1,138.45,531.41Z"/><path class="cls-7" d="M206.64,579.2l-.07,0a12.34,12.34,0,0,0,1.75-3.51c1.05-4.51,0-7.74-3.68-9l-.3.12a8.12,8.12,0,0,0,.93-2.2c.81-4.32.1-7.47-4.59-8.06l-1.14.42c2.46-4.52,1.7-7.85.38-9.91-2.27-3.53-13.79-6.36-13.29-1.41a9.23,9.23,0,0,1-7.41,9.34,39.47,39.47,0,0,1-6.69.79l-.08-.06s22.17-14.72,16.32-21.45c-6.15-7.07-19.13,4.19-29.49,11.32s-16.42,24.87-16.42,24.87L115.07,581,128,626l12.25-2.78s45.7-10,55-15.62c10.06-6.1,15.93-15.61,15.91-20.57S209.22,579,206.64,579.2Z"/><path class="cls-12" d="M196.82,590.67s10.45-10.51,11.5-15,0-7.74-3.68-9"/><path class="cls-12" d="M191.68,582.59s12.77-13.65,13.59-18,.1-7.47-4.59-8.06"/><path class="cls-12" d="M172.45,555.72s22.17-14.72,16.32-21.45c-6.15-7.07-19.13,4.19-29.49,11.32s-16.42,24.87-16.42,24.87L115.07,581,128,626l12.25-2.78s45.7-10,55-15.62c10.06-6.1,15.93-15.61,15.91-20.57s-1.95-8-4.53-7.81"/><path class="cls-12" d="M166.13,555.79s7.76.4,13.09-.8a9.23,9.23,0,0,0,7.41-9.34c-.5-4.95,11-2.12,13.29,1.41s3,10.73-11.45,21.35"/><path class="cls-10" d="M138.82,566.18l-78.67,8.28-37,13c-7,32.64-5.48,84.1,55.31,84.1,32.39,0,82.21-42.69,82.21-42.69Z"/><line class="cls-12" x1="124.56" y1="573.5" x2="146.03" y2="632.66"/><path class="cls-12" d="M60.15,574.46l78.67-8.28,21.87,62.67s-49.82,42.69-82.21,42.69c-60.79,0-62.33-51.46-55.31-84.1"/><path class="cls-13" d="M219.47,427.61h0c-12.06.25-22-8.07-22.22-18.58l-.43-20.94c-.17-8.36,7.54-15.23,17.14-15.25l8.59,0c9.7,0,17.77,6.86,17.94,15.31l.41,20C241.12,418.64,231.52,427.36,219.47,427.61Z"/><path class="cls-13" d="M154.75,362a12.79,12.79,0,1,0,12.92-12.56A12.74,12.74,0,0,0,154.75,362Z"/><path class="cls-2" d="M173.46,363.86a7.3,7.3,0,0,0,0-.81c0-.3,0-.59-.08-.88,0-.12,0-.32,0,0a1.19,1.19,0,0,0,0-.26,5.43,5.43,0,0,0-.13-.58,9.82,9.82,0,0,0-.38-1.16c-.11-.25.09.17,0-.08l-.13-.27c-.12-.21-.24-.42-.38-.62s-.12-.16-.18-.25.11.11-.08-.09a4.68,4.68,0,0,0-.54-.55,2.65,2.65,0,0,0-.26-.21c-.17-.15.14.09,0,0l-.14-.09a5.13,5.13,0,0,0-.72-.41l-.17-.08-.14-.06h0l-.45-.15c-.33-.09-.67-.16-1-.22h-.1l-.29,0-.59,0q-.71,0-1.41.06a1,1,0,0,1,0-2c2.79-.26,5.65.38,7.45,2.65a9,9,0,0,1,1.75,5,6.72,6.72,0,0,1,0,1.1,1,1,0,0,1-1,1,1,1,0,0,1-1-1Z"/><path class="cls-13" d="M280.23,361.2a12.8,12.8,0,1,1-12.67-12.82A12.75,12.75,0,0,1,280.23,361.2Z"/><path class="cls-2" d="M259.51,362.7c-.18-3.26,1.44-6.72,4.52-8a9.94,9.94,0,0,1,5.07-.52,1,1,0,0,1,.72,1.2,1,1,0,0,1-1.2.72,7.83,7.83,0,0,0-3.7.35c-.06,0-.42.18-.2.08l-.35.17a7.15,7.15,0,0,0-.68.44c-.22.16.08-.08-.13.11l-.25.23a5.8,5.8,0,0,0-.47.52,1.13,1.13,0,0,0-.1.13l0,0c0,.09-.12.17-.18.26s-.23.4-.34.61l-.13.28c0,.07-.15.39,0,.1-.07.19-.14.38-.2.58a9.47,9.47,0,0,0-.27,1.08c0,.15-.05.31-.07.47s-.11.32,0,0a.9.9,0,0,0,0,.23,6.65,6.65,0,0,0,0,1c.06,1.27-1.91,1.3-2,0Z"/><path class="cls-13" d="M258,364.55a34.87,34.87,0,0,1-34.4,35.14l-11.3.11a34.87,34.87,0,0,1-35.13-34.4l-.39-37.52a34.87,34.87,0,0,1,34.41-35.13l11.29-.12A34.88,34.88,0,0,1,257.6,327Z"/><path class="cls-12" d="M227.07,370.17a8,8,0,0,1-15.87.16Z"/><path class="cls-2" d="M195.86,345.62a4.69,4.69,0,1,1-4.58-4.78A4.68,4.68,0,0,1,195.86,345.62Z"/><path class="cls-2" d="M245.4,344.6a4.68,4.68,0,1,1-4.57-4.78A4.67,4.67,0,0,1,245.4,344.6Z"/><path class="cls-14" d="M235.83,334.41s6.6-1.61,11.69,1.94"/><path class="cls-14" d="M195.58,335.23s-6.66-1.34-11.59,2.42"/><polyline class="cls-12" points="216.9 337.96 213.22 356.51 220.02 356.38"/><path class="cls-7" d="M165.25,344.5s15.56-4.37,22.92-16.32,30-10.16,34.55-28.54c0,0,8.53,22.07,17,23.17s9.85,4,13,8.8,12.73,15.12,14.74,11.85,3.89-38.65-11.38-50.38S208.41,277.77,193.63,282,153.79,316.46,165.25,344.5Z"/><path class="cls-12" d="M165.25,344.5s15.56-4.37,22.92-16.32,30-10.16,34.55-28.54c0,0,8.53,22.07,17,23.17s9.85,4,13,8.8,12.73,15.12,14.74,11.85"/><path class="cls-15" d="M495.47,665.74H312.53c-6.3,36.09-26.48,151.63-30.68,173.25H520.38S506.63,724,495.47,665.74Z"/><line class="cls-16" x1="329.04" y1="670.62" x2="317.03" y2="796.39"/><line class="cls-16" x1="363.26" y1="670.23" x2="358.41" y2="819.53"/><line class="cls-16" x1="397.35" y1="667.83" x2="397.35" y2="756.91"/><line class="cls-16" x1="433.3" y1="667.83" x2="441.55" y2="819.53"/><line class="cls-16" x1="467.97" y1="670.23" x2="478.09" y2="780.36"/><path class="cls-15" d="M454.53,412.69c-1.57-12.5-6.95-17.26-9.32-21.22a16.44,16.44,0,0,1,.87-18c4.81-6.65,27-.34,34.29,12.31s12.62,52,12.62,52L473.38,445S456.73,430.11,454.53,412.69Z"/><path class="cls-17" d="M473.06,375.08l-12.9,23.06a3.49,3.49,0,0,1-6,.11L433.81,364.8a3.5,3.5,0,0,1-.34-2.89l8.33-25.65a3.49,3.49,0,0,1,6.2-.91l24.88,36A3.49,3.49,0,0,1,473.06,375.08Z"/><path class="cls-15" d="M469.3,373.86l-10.74,19.2a2.49,2.49,0,0,1-4.31.08l-16.7-27.5a2.47,2.47,0,0,1-.24-2.07l6.94-21.39a2.49,2.49,0,0,1,4.42-.65l20.51,29.7A2.47,2.47,0,0,1,469.3,373.86Z"/><path class="cls-7" d="M464.36,345.46c6.85.88,12.82,12.42,12.82,12.42,7.12,6.37,10.6,17.39,10.62,17.46a48.42,48.42,0,0,1,6.4,10.47c3,7.72,0,30.9,0,30.9L501,436.62l-13,3.65-14.67-33.9c-.76-6.69,3.52-13,2.43-19.27-1-5.83-11.56-17.92-8.39-22.38h0c-4.42-2.64-6.5-6.27-6.67-9l-.47-.06C455.3,349.35,457.51,344.57,464.36,345.46Z"/><path class="cls-16" d="M473.38,406.37c-.76-6.69,3.52-13,2.43-19.27s-13.22-19.79-7.44-23.26c8.27-5,22.79,14.26,25.83,22s0,30.9,0,30.9L501,436.62l-13,3.65"/><path class="cls-16" d="M487.8,375.34s-3.47-11.07-10.62-17.46-12.11-8.25-15.35-5.38c-2.42,2.13-1,8.27,5.58,12.21"/><path class="cls-16" d="M477.18,357.88s-6-11.54-12.82-12.42-9.06,3.89-4.09,10.17"/><path class="cls-7" d="M446.77,451.13,509,425.25s68.55,100.08,77.24,150.61c9,52.62-62.46,90.87-105.2,38.46C432,554.19,446.77,451.13,446.77,451.13Z"/><path class="cls-2" d="M444.86,476.15c.52-15.26,1.91-25,1.91-25L509,425.25s4.53,6.62,11.4,17.29C503.68,449.86,471.19,464.37,444.86,476.15Z"/><path class="cls-16" d="M446.77,451.13,509,425.25s68.55,100.08,77.24,150.61c9,52.62-62.46,90.87-105.2,38.46C432,554.19,446.77,451.13,446.77,451.13Z"/><path class="cls-2" d="M513.34,499h.88v-.88a5.31,5.31,0,1,1,10.61,0V499h.88a5.31,5.31,0,1,1,0,10.61h-.88v.88a5.31,5.31,0,1,1-10.61,0v-.88h-.88a5.31,5.31,0,1,1,0-10.61Z"/><path class="cls-7" d="M515.73,504.26a3.8,3.8,0,1,0,3.79-3.79A3.8,3.8,0,0,0,515.73,504.26Z"/><path class="cls-2" d="M490.71,555.5h.87v-.88a5.31,5.31,0,1,1,10.62,0v.88h.87a5.31,5.31,0,1,1,0,10.61h-.87V567a5.31,5.31,0,0,1-10.62,0v-.88h-.87a5.31,5.31,0,1,1,0-10.61Z"/><path class="cls-7" d="M493.1,560.8a3.79,3.79,0,1,0,3.79-3.79A3.79,3.79,0,0,0,493.1,560.8Z"/><path class="cls-2" d="M555.59,541.88h.88V541a5.31,5.31,0,0,1,10.62,0v.87H568a5.31,5.31,0,0,1,0,10.62h-.87v.87a5.31,5.31,0,1,1-10.62,0v-.87h-.88a5.31,5.31,0,0,1,0-10.62Z"/><path class="cls-7" d="M558,547.19a3.79,3.79,0,1,0,3.79-3.79A3.79,3.79,0,0,0,558,547.19Z"/><path class="cls-2" d="M530.41,585.67h.88v-.87a5.31,5.31,0,1,1,10.61,0v.87h.88a5.31,5.31,0,0,1,0,10.62h-.88v.87a5.31,5.31,0,1,1-10.61,0v-.87h-.88a5.31,5.31,0,0,1,0-10.62Z"/><path class="cls-7" d="M532.8,591a3.79,3.79,0,1,0,3.79-3.79A3.79,3.79,0,0,0,532.8,591Z"/><path class="cls-2" d="M582.06,605v-.88a5.31,5.31,0,1,0-10.62,0V605h-.87a5.31,5.31,0,1,0,0,10.61h.87v.88a5.33,5.33,0,0,0,1.6,3.79A54.2,54.2,0,0,0,582.91,605Z"/><path class="cls-7" d="M573,610.26a3.79,3.79,0,1,0,3.79-3.79A3.8,3.8,0,0,0,573,610.26Z"/><path class="cls-2" d="M517.78,627.85a5.3,5.3,0,0,0-5.31,5.3V634h-.87a5.29,5.29,0,0,0-3.22,1.11,57,57,0,0,0,20.89,4.18A5.31,5.31,0,0,0,524,634h-.87v-.88A5.3,5.3,0,0,0,517.78,627.85Z"/><path class="cls-7" d="M514.61,637.27a58.49,58.49,0,0,0,6.9,1.46,3.78,3.78,0,0,0-6.9-1.46Z"/><path class="cls-2" d="M475.11,470.85H476V470a5.31,5.31,0,0,1,10.62,0v.88h.87a5.31,5.31,0,1,1,0,10.61h-.87v.88a5.31,5.31,0,0,1-10.62,0v-.88h-.88a5.31,5.31,0,0,1,0-10.61Z"/><circle class="cls-7" cx="481.3" cy="476.15" r="3.79"/><path class="cls-2" d="M526.31,451.86a5.3,5.3,0,0,0-4.28,5.2v.88h-.88a5.31,5.31,0,1,0,0,10.62H522v.87a5.31,5.31,0,1,0,10.61,0v-.87h.88a5.16,5.16,0,0,0,2.64-.74C532.7,462.1,529.38,456.73,526.31,451.86Z"/><path class="cls-7" d="M523.54,463.25a3.79,3.79,0,1,0,3.79-3.79A3.79,3.79,0,0,0,523.54,463.25Z"/><path class="cls-7" d="M299.48,676.53V605.85l29.57-136.5,79.85-55.09c75.55,43.38,93.6,186.29,97.79,262.27Z"/><path class="cls-16" d="M299.48,676.53V605.85l29.57-136.5,79.85-55.09c75.55,43.38,93.6,186.29,97.79,262.27Z"/><path class="cls-2" d="M395.77,492.49h.88v-.88a5.31,5.31,0,1,1,10.61,0v.88h.88a5.31,5.31,0,1,1,0,10.61h-.88V504a5.31,5.31,0,0,1-10.61,0v-.88h-.88a5.31,5.31,0,1,1,0-10.61Z"/><path class="cls-7" d="M398.17,497.79A3.79,3.79,0,1,0,402,494,3.78,3.78,0,0,0,398.17,497.79Z"/><path class="cls-2" d="M434,561.6h.87v-.88a5.31,5.31,0,0,1,10.62,0v.88h.88a5.31,5.31,0,0,1,0,10.62h-.88v.87a5.31,5.31,0,0,1-10.62,0v-.87H434a5.31,5.31,0,0,1,0-10.62Z"/><path class="cls-7" d="M436.37,566.91a3.79,3.79,0,1,0,3.79-3.79A3.79,3.79,0,0,0,436.37,566.91Z"/><path class="cls-2" d="M476.44,589.21h.88v-.87a5.31,5.31,0,1,1,10.61,0v.87h.88a5.31,5.31,0,1,1,0,10.62h-.88v.87a5.31,5.31,0,1,1-10.61,0v-.87h-.88a5.31,5.31,0,1,1,0-10.62Z"/><path class="cls-7" d="M478.83,594.52a3.8,3.8,0,1,0,3.79-3.79A3.79,3.79,0,0,0,478.83,594.52Z"/><path class="cls-2" d="M408.81,610.12h.87v-.87a5.31,5.31,0,0,1,10.62,0v.87h.88a5.31,5.31,0,0,1,0,10.62h-.88v.87a5.31,5.31,0,0,1-10.62,0v-.87h-.87a5.31,5.31,0,0,1,0-10.62Z"/><path class="cls-7" d="M411.2,615.43a3.79,3.79,0,1,0,3.79-3.79A3.79,3.79,0,0,0,411.2,615.43Z"/><path class="cls-2" d="M447.65,642.32h.88v-.87a5.31,5.31,0,1,1,10.61,0v.87H460a5.31,5.31,0,0,1,0,10.62h-.88v.88a5.31,5.31,0,0,1-10.61,0v-.88h-.88a5.31,5.31,0,0,1,0-10.62Z"/><path class="cls-7" d="M450,647.63a3.8,3.8,0,1,0,3.8-3.79A3.79,3.79,0,0,0,450,647.63Z"/><path class="cls-2" d="M499,660.25v.88h-.87a5.31,5.31,0,1,0,0,10.61H499v.88a5.27,5.27,0,0,0,1.75,3.91h5.9c-.37-6.68-.84-13.89-1.46-21.5a5.15,5.15,0,0,0-.88-.09A5.31,5.31,0,0,0,499,660.25Z"/><path class="cls-7" d="M505.83,663a3.63,3.63,0,0,0-1.48-.31,3.8,3.8,0,1,0,1.94,7C506.15,667.48,506,665.23,505.83,663Z"/><path class="cls-2" d="M402.66,674v-.88h.87a5.31,5.31,0,1,0,0-10.61h-.87v-.88a5.31,5.31,0,0,0-10.62,0v.88h-.88a5.31,5.31,0,0,0,0,10.61H392V674a5.22,5.22,0,0,0,.66,2.51H402A5.33,5.33,0,0,0,402.66,674Z"/><path class="cls-7" d="M393.56,667.83a3.79,3.79,0,1,0,3.79-3.79A3.78,3.78,0,0,0,393.56,667.83Z"/><path class="cls-2" d="M340.74,638h.87v-.87a5.31,5.31,0,0,1,10.62,0V638h.87a5.31,5.31,0,0,1,0,10.62h-.87v.87a5.31,5.31,0,0,1-10.62,0v-.87h-.87a5.31,5.31,0,0,1,0-10.62Z"/><path class="cls-7" d="M343.13,643.31a3.79,3.79,0,1,0,3.79-3.79A3.79,3.79,0,0,0,343.13,643.31Z"/><path class="cls-2" d="M312.73,676.53v-.61h.88a5.31,5.31,0,1,0,0-10.61h-.88v-.88a5.31,5.31,0,1,0-10.61,0v.88h-.88a5.13,5.13,0,0,0-1.76.32v10a5.13,5.13,0,0,0,1.76.32h.88v.61Z"/><path class="cls-7" d="M303.63,670.62a3.8,3.8,0,1,0,3.79-3.8A3.79,3.79,0,0,0,303.63,670.62Z"/><path class="cls-2" d="M422.49,449.26h.87v-.87a5.31,5.31,0,0,1,10.62,0v.87h.87a5.31,5.31,0,0,1,0,10.62H434v.88a5.31,5.31,0,0,1-10.62,0v-.88h-.87a5.31,5.31,0,0,1,0-10.62Z"/><path class="cls-7" d="M424.88,454.57a3.79,3.79,0,1,0,3.79-3.79A3.79,3.79,0,0,0,424.88,454.57Z"/><path class="cls-18" d="M481.7,483.38,484.05,555a4.41,4.41,0,0,1-3.93,4.53l-4.8.5-24.48,2.57-4.79.51a4.4,4.4,0,0,1-4.79-3.6L428.67,489Z"/><path class="cls-19" d="M427.55,474.44H482.2a0,0,0,0,1,0,0v5.5a3.88,3.88,0,0,1-3.88,3.88H431.42a3.88,3.88,0,0,1-3.88-3.88v-5.5A0,0,0,0,1,427.55,474.44Z" transform="translate(957.37 908.05) rotate(174)"/><rect class="cls-19" x="423.44" y="482.8" width="63.97" height="7" rx="3.2" transform="translate(-48.37 50.3) rotate(-6)"/><path class="cls-7" d="M395.12,538l8.93,28.88s32.79-1.29,41.42-10.9c5.62-6.25,16.38-8.63,30.78-13.35,10.24-3.35,11-10.49,6.5-13.22l.51,0c2-1.12,4.32-3,4.64-5.67.38-3.11-.6-5.07-2.79-5.86l.48,0s1.61-4.24.1-6.67c-1-1.59-2.44-3.1-6.43-3.62l.73-.87s.79-9.2-8.14-9.61-22.79,3.1-31.82,7.13-13.71,9.52-19.35,16.15S395.12,538,395.12,538Z"/><path class="cls-16" d="M480,506.81s.79-9.2-8.14-9.61-22.79,3.1-31.82,7.13-13.71,9.52-19.35,16.15S395.12,538,395.12,538l8.93,28.88s32.79-1.29,41.42-10.9c5.62-6.25,16.38-8.63,30.78-13.35s10-17-1.24-13.82c0,0-12.52,3-18.94,6.63"/><path class="cls-16" d="M445.67,517s13.55-7.95,24.73-9.18,13.78,1,15.29,3.47-.1,6.67-.1,6.67"/><path class="cls-16" d="M451.63,527.17s10.16-6,27.95-9.32c6-1.13,8.93.89,8.32,6-.32,2.67-2.68,4.55-4.64,5.67"/><path class="cls-7" d="M259.5,502c52-65.67,136.63-89.36,136.63-89.36l20.7,5.68-7.75,40.09-43,47.77-27.89,27.19-46.83,6.5,101.38-14.07L415,584.51C347.49,660,271.71,654.22,250.43,636S208.12,566.91,259.5,502Z"/><path class="cls-2" d="M372.61,528.61l20.1-2.79L415,584.51a236.39,236.39,0,0,1-16.74,17Z"/><path class="cls-2" d="M275.67,621.61h.87v-.87a5.31,5.31,0,0,1,10.62,0v.87H288a5.31,5.31,0,0,1,0,10.62h-.88v.87a5.31,5.31,0,0,1-10.62,0v-.87h-.87a5.31,5.31,0,0,1,0-10.62Z"/><path class="cls-7" d="M278.06,626.92a3.79,3.79,0,1,0,3.79-3.79A3.79,3.79,0,0,0,278.06,626.92Z"/><path class="cls-2" d="M306.16,569.83H307V569a5.31,5.31,0,0,1,10.62,0v.87h.87a5.31,5.31,0,0,1,0,10.62h-.87v.87a5.31,5.31,0,0,1-10.62,0v-.87h-.88a5.31,5.31,0,0,1,0-10.62Z"/><path class="cls-7" d="M308.56,575.14a3.79,3.79,0,1,0,3.79-3.79A3.79,3.79,0,0,0,308.56,575.14Z"/><path class="cls-2" d="M248.65,550.11h.87v-.88a5.31,5.31,0,1,1,10.62,0v.88H261a5.31,5.31,0,0,1,0,10.61h-.88v.88a5.31,5.31,0,1,1-10.62,0v-.88h-.87a5.31,5.31,0,1,1,0-10.61Z"/><path class="cls-7" d="M251,555.42a3.79,3.79,0,1,0,3.79-3.8A3.79,3.79,0,0,0,251,555.42Z"/><path class="cls-2" d="M237.25,596.17h-.88v-.88a5.3,5.3,0,0,0-8.25-4.41,78.45,78.45,0,0,0,5.59,21.36,5.3,5.3,0,0,0,2.66-4.58v-.88h.88a5.31,5.31,0,1,0,0-10.61Z"/><path class="cls-7" d="M227.27,601.48a3.8,3.8,0,1,0,3.8-3.79A3.8,3.8,0,0,0,227.27,601.48Z"/><path class="cls-2" d="M265.72,500.18h.88v.88a5.31,5.31,0,0,0,10.61,0v-.88h.88a5.31,5.31,0,1,0,0-10.62h-.88v-.87a5.3,5.3,0,0,0-2.14-4.24c-4.46,4.52-8.79,9.29-12.94,14.31A5.25,5.25,0,0,0,265.72,500.18Z"/><path class="cls-7" d="M268.11,494.87a3.8,3.8,0,1,0,3.79-3.79A3.79,3.79,0,0,0,268.11,494.87Z"/><path class="cls-2" d="M309.1,534.79v.88a5.13,5.13,0,0,0,.31,1.71L319.69,536c0-.09,0-.19,0-.28v-.88h.87a5.31,5.31,0,1,0,0-10.62h-.87v-.87a5.31,5.31,0,0,0-10.62,0v.87h-.87a5.31,5.31,0,0,0,0,10.62Z"/><path class="cls-7" d="M310.62,529.48a3.79,3.79,0,1,0,3.79-3.79A3.79,3.79,0,0,0,310.62,529.48Z"/><path class="cls-2" d="M345.93,489.56h.87v-.87a5.31,5.31,0,1,1,10.62,0v.87h.87a5.31,5.31,0,1,1,0,10.62h-.87v.88a5.31,5.31,0,0,1-10.62,0v-.88h-.87a5.31,5.31,0,1,1,0-10.62Z"/><path class="cls-7" d="M348.32,494.87a3.79,3.79,0,1,0,3.79-3.79A3.78,3.78,0,0,0,348.32,494.87Z"/><path class="cls-2" d="M374.68,446.45h.87v-.88a5.31,5.31,0,0,1,10.62,0v.88H387a5.31,5.31,0,1,1,0,10.61h-.87v.88a5.31,5.31,0,1,1-10.62,0v-.88h-.87a5.31,5.31,0,1,1,0-10.61Z"/><path class="cls-7" d="M377.07,451.76a3.79,3.79,0,1,0,3.79-3.79A3.79,3.79,0,0,0,377.07,451.76Z"/><path class="cls-2" d="M326.57,450.34h.88v.87a5.31,5.31,0,1,0,10.61,0v-.87h.88a5.31,5.31,0,1,0,0-10.62h-.88v-.87a4.83,4.83,0,0,0-.13-1.15c-5.25,2.91-10.67,6.09-16.16,9.56A5.31,5.31,0,0,0,326.57,450.34Z"/><path class="cls-7" d="M329,445a3.79,3.79,0,1,0,3.79-3.79A3.79,3.79,0,0,0,329,445Z"/><path class="cls-2" d="M377.07,617.5a5.31,5.31,0,0,0-5.31-5.31h-.87v-.87a5.31,5.31,0,1,0-10.62,0v.87h-.87a5.31,5.31,0,0,0,0,10.62h.87v.88a5.27,5.27,0,0,0,2,4.13q7.27-4.12,14.67-9.24A5.49,5.49,0,0,0,377.07,617.5Z"/><path class="cls-7" d="M361.79,617.5a3.79,3.79,0,1,0,3.79-3.79A3.78,3.78,0,0,0,361.79,617.5Z"/><path class="cls-2" d="M350.94,544.26h.88v.88a5.31,5.31,0,1,0,10.61,0v-.88h.88a5.31,5.31,0,1,0,0-10.61h-.88v-.88a5.32,5.32,0,0,0-.73-2.65l-9.7,1.35a5.1,5.1,0,0,0-.18,1.3v.88h-.88a5.31,5.31,0,1,0,0,10.61Z"/><path class="cls-7" d="M353.33,539a3.8,3.8,0,1,0,3.8-3.79A3.8,3.8,0,0,0,353.33,539Z"/><path class="cls-16" d="M396.13,412.66S311.49,436.35,259.5,502c-51.38,64.89-30.35,115.74-9.07,134S347.49,660,415,584.51l-22.28-58.69L291.33,539.89"/><line class="cls-16" x1="366.05" y1="506.2" x2="338.16" y2="533.39"/><path class="cls-19" d="M381.6,412.47c4.74-1.29,9.62-2.4,14.52-2,7.78.59,15.2,4.87,22.94,3.93,4.77-.57,9.08-3.09,13.77-4.11,4.22-.92,8.7-.62,12.79-2,8.36-2.87,13-12.57,12.16-21.37s-6.16-16.61-12.52-22.75a5.88,5.88,0,0,0-1.68-1.26,7.55,7.55,0,0,0-2.64-.39c-4.45-.25-8.62-2.22-12.55-4.32-4.26-2.29-8.49-4.87-11.57-8.6-3.54-4.28-5.28-9.72-7.42-14.85-3.74-9-9.08-17.57-16.85-23.44s-18.25-8.69-27.53-5.72L358.25,301c-4.65,5.44-8.4,11.85-14.29,15.92-2.88,2-6.15,3.32-9.17,5.1a36.07,36.07,0,0,0-1,61.56c1.71,1.09,3.56,2.07,4.81,3.66,2.08,2.65,2,6.32,2.57,9.65A24.55,24.55,0,0,0,380.86,412"/><ellipse class="cls-2" cx="397.35" cy="421.17" rx="27.98" ry="15.81"/><path class="cls-15" d="M373,348.33a15.34,15.34,0,0,1,9,2.77l-.1-9.22c-.17-14.62,10.21-26.7,23-26.85l19.31-.21c12.85-.15,23.49,11.7,23.65,26.32l.33,29.94c.17,14.62-10.2,26.7-23.05,26.84l-11.16.13.18,16.13a12.07,12.07,0,0,1-11.89,12.16l-7.67.08a12.06,12.06,0,0,1-12.16-11.89l-.2-18.23v-1L382,377.06c0-.36,0-.72.06-1.08A15.3,15.3,0,1,1,373,348.33Z"/><path class="cls-16" d="M381.48,365.5s.56-10.36-10.07-9.09"/><path class="cls-2" d="M409.32,351.35a4.35,4.35,0,1,0,4.3-4.4A4.35,4.35,0,0,0,409.32,351.35Z"/><path class="cls-2" d="M437.81,350.39a3.72,3.72,0,1,0,3.68-3.75A3.73,3.73,0,0,0,437.81,350.39Z"/><polyline class="cls-16" points="427.37 362.98 435.04 358.18 428.16 346.79"/><line class="cls-20" x1="406.51" y1="345.35" x2="413.95" y2="342.28"/><line class="cls-20" x1="438.39" y1="342.45" x2="445.56" y2="343.42"/><path class="cls-16" d="M435.76,373.67a6.7,6.7,0,1,1-13.4.15"/><path class="cls-19" d="M453.24,309.84a58.34,58.34,0,0,0-95-8.83s-8.61,19-9.45,29.39c-.68,8.36,7.38,16.83,11,20.9,2.78-3.46,9-5.11,13.79-5.16,3.34,0,5.06,1.72,7.6,3.49,0,0,3.62,2.6,7,2.18a25,25,0,0,0,15.1-8.61c4.85-5.83,6.25-13.94,6.69-21.51l1,.11c4.63,6.44,9.74,13.26,17.26,15.81a38.52,38.52,0,0,0,9.75,1.53l10.49.73a9.6,9.6,0,0,0,4.53-.4,7.8,7.8,0,0,0,3.73-4.4C460.21,326.94,457.62,317.47,453.24,309.84Z"/><rect class="cls-21" x="-0.85" y="-0.94" width="801.7" height="801.87"/><path class="cls-22" d="M609.7,405.74c-4.82,14.07-16,23.46-25.65,33.74-27.2,28.83-57.6,53.67-92.86,72.16-21.37,11.21-43.85,19.15-67.81,22.37-31.17,4.2-61.34-.16-90.52-11.62-37.47-14.72-69.65-37.62-98.58-65.15C221.56,445.14,209.75,432.05,198,419c-9.92-11-10.2-25.72-.87-37,29.31-35.33,62.89-65.76,103-88.57,24.34-13.84,50.13-23.76,78-27.56,30.64-4.18,60.21.59,88.87,11.71,34.75,13.48,65.26,33.86,92.46,59,15,13.85,28.7,29.09,42.56,44.1,3.44,3.73,5.21,9,7.74,13.56ZM400,490.16a90,90,0,0,0,90.26-90c.06-49.74-40-90.15-89.59-90.27A90.13,90.13,0,1,0,400,490.16Z"/><path class="cls-22" d="M400,464.64a64.64,64.64,0,0,1-64.49-64.95c.06-35.4,29.2-64.33,64.76-64.3a64.73,64.73,0,0,1,64.49,65C464.7,435.83,435.64,464.67,400,464.64Z"/></g></g></svg>