<svg id="Layer_1" data-name="Layer 1" xmlns="http://www.w3.org/2000/svg" xmlns:xlink="http://www.w3.org/1999/xlink" viewBox="0 0 830.3 240.9"><defs><style>.cls-1{fill:none;}.cls-2{fill:#183c6c;}.cls-3{fill:#646363;}.cls-4{clip-path:url(#clip-path);}.cls-5{fill:#a8182f;}.cls-6{fill:#fff;}</style><clipPath id="clip-path"><path class="cls-1" d="M681.85,197.55a25.13,25.13,0,1,0-25.13,25.13,25.13,25.13,0,0,0,25.13-25.13"/></clipPath></defs><path class="cls-2" d="M733.67,140.86H652a20.56,20.56,0,0,1,0-41.12h81.72a20.42,20.42,0,1,0,0-40.84H652a20.56,20.56,0,1,1,0-41.11h81.72a61.54,61.54,0,1,1,0,123.07"/><path class="cls-3" d="M84.32,151.87A36,36,0,0,1,71.26,138.8a35,35,0,0,1-4.83-18v-16.9H86.88v15.76a15.15,15.15,0,0,0,4.54,11,14.77,14.77,0,0,0,10.93,4.61H259.13a9.42,9.42,0,0,0,6.6-2.55,8.87,8.87,0,0,0,2.77-6.82q0-5.11-5-8.09L231.58,96.63V81.15l28.26-30.1,13.91,13.2-21,22,23.57,15.48a26.51,26.51,0,0,1,9.3,10.3A30.66,30.66,0,0,1,289,126.31a29.66,29.66,0,0,1-4.05,15.19A30.92,30.92,0,0,1,274,152.58,28.64,28.64,0,0,1,259,156.69H102.35A35,35,0,0,1,84.32,151.87ZM216.24,68.8l25-26.42,9.8,9.94L226,78.74Z"/><path class="cls-3" d="M337.93,135.25a6.33,6.33,0,0,0,4.62-1.91,6.47,6.47,0,0,0,1.92-4.76v-66h20.3v66a6.61,6.61,0,0,0,1.85,4.76,6.24,6.24,0,0,0,4.68,1.91h6.11a1.26,1.26,0,0,1,1.42,1.42v18.6a1.25,1.25,0,0,1-1.42,1.42H371.3a21.29,21.29,0,0,1-9.65-2.13,18.81,18.81,0,0,1-7-5.82,20,20,0,0,1-7.1,5.82,21.31,21.31,0,0,1-9.66,2.13H299.17V135.25ZM299.31,67.94l19.74-5.11,15.33,62.91-19.73,5.11Z"/><path class="cls-3" d="M376,155.27v-18.6a1.26,1.26,0,0,1,1.42-1.42h19.17a1.26,1.26,0,0,1,1.42,1.42v18.6a1.26,1.26,0,0,1-1.42,1.42H377.41A1.25,1.25,0,0,1,376,155.27Z"/><path class="cls-3" d="M395.16,155.27v-18.6a1.26,1.26,0,0,1,1.42-1.42h19.17a1.26,1.26,0,0,1,1.42,1.42v18.6a1.26,1.26,0,0,1-1.42,1.42H396.58A1.25,1.25,0,0,1,395.16,155.27Z"/><path class="cls-3" d="M414.33,155.27v-18.6a1.26,1.26,0,0,1,1.42-1.42h19.17a1.26,1.26,0,0,1,1.42,1.42v18.6a1.26,1.26,0,0,1-1.42,1.42H415.75A1.25,1.25,0,0,1,414.33,155.27Z"/><path class="cls-3" d="M433.5,155.27v-18.6a1.26,1.26,0,0,1,1.42-1.42h7.66a6.2,6.2,0,0,0,4.62-2,6.54,6.54,0,0,0,1.92-4.69V99.47h20.3v30.39a26.89,26.89,0,0,1-13.2,23.21,25.9,25.9,0,0,1-13.49,3.62h-7.81A1.25,1.25,0,0,1,433.5,155.27Zm1.27,13.5h18.32v18.17H434.77Z"/><path class="cls-3" d="M509.68,170.19q6.18-3.42,8.45-6.4a11.38,11.38,0,0,0,2.27-7.1h-9.23a32.29,32.29,0,0,1-15.62-3.83,29.47,29.47,0,0,1-11.29-10.58,28.07,28.07,0,0,1-4.19-15.12,30.19,30.19,0,0,1,4.19-15.62,31.41,31.41,0,0,1,11.29-11.29,30.19,30.19,0,0,1,15.62-4.19,28.2,28.2,0,0,1,15.05,4.19,29.42,29.42,0,0,1,10.65,11.29,32.29,32.29,0,0,1,3.83,15.62v20.73q0,13.2-4,21.37t-13.07,14.2q-9,6-26.34,13.56l-6.39-18Q503.51,173.59,509.68,170.19ZM520.4,127a9.38,9.38,0,0,0-2.63-6.82,8.82,8.82,0,0,0-6.6-2.7,9.48,9.48,0,0,0-6.89,2.7,9.77,9.77,0,0,0,0,13.63,9.48,9.48,0,0,0,6.89,2.7h9.23Z"/><g class="cls-4"><path class="cls-5" d="M681.89,197.55a25.13,25.13,0,1,0-25.13,25.13,25.13,25.13,0,0,0,25.13-25.13"/><path class="cls-6" d="M655.67,210.61a8.61,8.61,0,0,1,2.57-5.86c2.7-2.72,6.65-6.66,9.36-9.36,1-1,3-1.9,4.24-1.33a3.34,3.34,0,0,1,2,3.23,5.58,5.58,0,0,1-1.42,2.77c-2.78,2.78-6.78,6.81-9.58,9.57a8.38,8.38,0,0,1-5.89,2.42,1.12,1.12,0,0,1-1.25-1.28Zm1.61-.19a7.13,7.13,0,0,0,3.73-1.95l10.37-10.36a1.25,1.25,0,1,0-1.77-1.77l-10.36,10.37a6.89,6.89,0,0,0-1.58,2.44C657.52,209.54,657.42,210,657.28,210.42Z"/><path class="cls-6" d="M647.91,207.59h-1.62a1.12,1.12,0,1,1,0-2.23c1.09,0,5,0,6.13,0a1.12,1.12,0,1,1,0,2.23Z"/><path class="cls-6" d="M647.9,212.05h-1.61a1.11,1.11,0,0,1-1.16-1.1,1.12,1.12,0,0,1,1.16-1.13h6.12a1.12,1.12,0,0,1,1.16,1.13,1.11,1.11,0,0,1-1.16,1.1Z"/></g></svg>