<svg id="Layer_1" data-name="Layer 1" xmlns="http://www.w3.org/2000/svg" viewBox="0 0 141.73 141.73"><path d="M54.21,104a26.84,26.84,0,0,1,8-18.15c8.38-8.42,36-34.85,44.44-43.23,4.69-4.46,9.21-5.87,13.15-4.1a10.34,10.34,0,0,1,6.1,10c-.13,2.57-1.49,5.17-4.41,8.58C112.86,65.71,85,92.41,76.33,101a25.84,25.84,0,0,1-18.23,7.51,3.48,3.48,0,0,1-3.89-4C54.22,104.27,54.21,104,54.21,104Zm5-.57c6.73-.21,9.68-2.52,12.82-5.65,9.45-9.42,37.92-36.68,47.35-46.12,1.72-1.73,2.63-5.1.27-7.45-2.09-2.32-6.42-1.2-8.09.47C102.1,54.09,73.63,81.35,64.2,90.79,62,93,58.52,97.13,59.19,103.41Z"/><path d="M28.43,96.58c-1.34,0-2.67,0-4,0a2.76,2.76,0,1,1,0-5.52c2.69,0,20.5,0,23.2,0a2.76,2.76,0,1,1,0,5.52C46.22,96.59,29.76,96.58,28.43,96.58Z"/><path d="M28.42,107.65c-1.34,0-2.67,0-4,0a2.74,2.74,0,0,1-2.87-2.72,2.78,2.78,0,0,1,2.88-2.8c2.69,0,20.5,0,23.2,0a2.76,2.76,0,1,1,0,5.52C46.26,107.66,29.78,107.65,28.42,107.65Z"/></svg>