<svg id="Layer_1" data-name="Layer 1" xmlns="http://www.w3.org/2000/svg" xmlns:xlink="http://www.w3.org/1999/xlink" viewBox="0 0 1920 1080"><defs><style>.cls-1,.cls-14,.cls-16,.cls-22,.cls-24,.cls-6,.cls-9{fill:none;}.cls-2{clip-path:url(#clip-path);}.cls-3{opacity:0.4;}.cls-4{fill:#e8e8f0;}.cls-5{fill:#c5c1d2;}.cls-6{stroke:#c5c1d2;stroke-width:2.85px;}.cls-11,.cls-23,.cls-6{stroke-miterlimit:10;}.cls-7{fill:#951b81;}.cls-11,.cls-12,.cls-15,.cls-19,.cls-21,.cls-23,.cls-8{fill:#fff;}.cls-11,.cls-12,.cls-14,.cls-15,.cls-16,.cls-18,.cls-19,.cls-21,.cls-22,.cls-23,.cls-24,.cls-9{stroke:#1c1d3e;}.cls-12,.cls-14,.cls-15,.cls-16,.cls-18,.cls-19,.cls-21,.cls-22,.cls-24,.cls-9{stroke-linecap:round;stroke-linejoin:round;}.cls-11,.cls-12,.cls-9{stroke-width:2.33px;}.cls-10{fill:#00a19a;}.cls-13,.cls-18{fill:#1c1d3e;}.cls-14{stroke-width:3.1px;}.cls-15,.cls-16,.cls-18{stroke-width:2.13px;}.cls-17{fill:#505ea8;}.cls-19{stroke-width:2.14px;}.cls-20{fill:#f6cb40;}.cls-21,.cls-22,.cls-23{stroke-width:2.03px;}.cls-24{stroke-width:4.05px;}</style><clipPath id="clip-path"><rect class="cls-1" x="-0.11" y="-0.15" width="1920.12" height="1080.16"/></clipPath></defs><g class="cls-2"><g class="cls-3"><path class="cls-4" d="M937.45,1201.16S630.22,1093.35,608,872.64s155-304.77,281.2-285.46c87.27,13.36,243.69-87.32,291.45-188.19,132.34-279.56,532.12-187.44,612.71,6,71.38,171.33,60.55,124.59,159.09,163.25s109.63,354.92,41,508.37S1059.11,1208.58,937.45,1201.16Z"/><path class="cls-4" d="M1831.9,287s-34.2,51.89,3.67,126.35,137.41,90.52,184,26.27,28.69-158.64-6.52-172.7S1870.68,216.68,1831.9,287Z"/><path class="cls-4" d="M888.89,478.41c-18.58,3.42-51.76.23-65.5-50.38s45.59-76.84,83.22-71.28S992.08,459.43,888.89,478.41Z"/><path class="cls-4" d="M552.2,793.61s30.46,9.46,22.88,58.49-61.7,46.8-80.69,23.89S493.8,782.69,552.2,793.61Z"/></g><path class="cls-5" d="M1880.66,1078.25q23.88-14.6,48.14-28.55,29.43-17,59.33-33.11,18.42-9.95,37-19.57c1.22-.64.14-2.48-1.08-1.85q-32.4,16.77-64.28,34.53-27.6,15.36-54.78,31.43-12.76,7.55-25.41,15.28c-1.17.71-.1,2.56,1.07,1.84Z"/><path class="cls-6" d="M1886.34,1013.76a52.51,52.51,0,0,1,13.12-.65c26.77,1.45,22.35-24.92,50.5-46.66s36.88-1,54.44-6.47,30.86-42,61.9-22.62,33.8,54.61,11,80.3-43.13,3.77-49.72,26.24-9.87,32.39-38.58,38.6-49.47-1.57-64,37.49c-13,34.79-36.37,43-59.82,40.42l-49.66-29.13"/><path class="cls-6" d="M1891.6,789.61c.55-49.57,53-115.46,107.65-81.94,55,33.73,37,91.36,6.77,123.19-25.66,27-86.52,39-71.7,61s19.52,53.9-30.28,74.51,8.38,56.07-25.3,113.45c-22.58,38.46-49.66,53.08-74.34,52.13l-64.55-51.2a98.42,98.42,0,0,1-5.92-52.2c8.3-52.52,63.73-54.39,71.87-78.84s-9.09-66.8,12.83-103.75C1847.6,797.1,1891.33,814.23,1891.6,789.61Z"/><path class="cls-5" d="M1945.8,766.56q-3.88,7.14-7.73,14.28-9.72,18-19.33,36.13-12.51,23.53-24.77,47.2c-8.28,16-16.46,32.05-24.4,48.23-5.44,11.08-10.73,22.23-16,33.39q-9.48,20.15-18.78,40.37-9.7,21-19.32,42.14-8.67,19-17.3,38.1-6.53,14.43-13,28.87-3.23,7.14-6.42,14.28c-.09.2-.18.41-.28.62-.55,1.24,1.29,2.33,1.85,1.08q2.19-4.89,4.39-9.78,5.82-12.95,11.66-25.89,8.22-18.18,16.48-36.34,9.5-20.87,19.06-41.7,9.49-20.65,19.1-41.25c5.57-11.9,11.17-23.77,16.89-35.6,7-14.56,14.33-29,21.71-43.4q12.45-24.25,25.2-48.36,10.51-19.87,21.16-39.69,5.57-10.35,11.17-20.67l.51-.93c.66-1.21-1.19-2.29-1.85-1.08Z"/><path class="cls-5" d="M1849.46,839.78l1,9.46,2.27,22.59,2.76,27.45,2.38,23.65c.39,3.85.63,7.75,1.16,11.58,0,.06,0,.11,0,.17.14,1.35,2.27,1.37,2.14,0l-1-9.46-2.28-22.59-2.76-27.45-2.37-23.65c-.39-3.85-.63-7.75-1.17-11.58a1,1,0,0,1,0-.17c-.14-1.35-2.28-1.37-2.14,0Z"/><path class="cls-5" d="M1868.31,1016.75l-21.25,12-33.61,18.94-7.75,4.36a1.07,1.07,0,0,0,1.08,1.85l21.25-12,33.61-18.94,7.75-4.37c1.2-.67.12-2.52-1.08-1.84Z"/><path class="cls-5" d="M1829.48,863c-10.51,2.68-8.93,16.38,1.91,16.59C1841.9,876.93,1840.32,863.23,1829.48,863Z"/><path class="cls-6" d="M1745.15,1106.18a89,89,0,0,1-29.06-37.55c-18.21-44.46,23.73-71.88,18.55-94.59s-38.35-47.33-38.74-86.15c-.52-51.29,41.29-58.56,30-77.7-22.82-38.55-13.24-114,44.72-113.77,58.33.25,71.42,53.22,63,92-7.16,32.88-46.64,71.61-24.91,81.6"/><path class="cls-5" d="M1756.81,767q1.2,25.83,2.73,51.63c1.86,32.27,3.89,64.55,6.77,96.76,2.2,24.52,5,49,7.76,73.47q4.52,39.57,9.35,79.11,2.55,21.12,5.19,42.24c0,.22.05.43.08.64.16,1.35,2.3,1.36,2.13,0q-2.19-17.54-4.32-35.08-4.7-38.46-9.15-77c-2.93-25.43-5.82-50.88-8.25-76.37-2.94-30.93-4.94-61.95-6.79-92.95q-1.83-30.75-3.31-61.5c0-.33,0-.66,0-1-.07-1.36-2.2-1.37-2.14,0Z"/><path class="cls-5" d="M1716.74,868.73l5.14,6.83L1734.25,892l15,19.86,13,17.26c2.09,2.78,4.11,5.64,6.29,8.35l.09.11c.82,1.09,2.67,0,1.85-1.07l-5.15-6.83-12.36-16.41-15-19.86-13-17.26c-2.09-2.78-4.11-5.64-6.29-8.35l-.09-.11c-.82-1.09-2.67,0-1.84,1.07Z"/><path class="cls-5" d="M1814.3,996.46l-10.73,19.09L1786.44,1046l-4,7a1.07,1.07,0,0,0,1.85,1.08l10.73-19.09,17.13-30.47,4-7a1.07,1.07,0,0,0-1.85-1.08Z"/><path class="cls-5" d="M1763.13,845.76l12.55-21.22,20-33.79,4.57-7.72a1.07,1.07,0,0,0-1.85-1.08l-12.55,21.22-20,33.8-4.57,7.72a1.06,1.06,0,0,0,1.84,1.07Z"/><path class="cls-5" d="M1712.3,896c-6.87,7,.78,16.83,9.25,11.91C1728.41,900.93,1720.77,891.09,1712.3,896Z"/><path class="cls-6" d="M853,869.36c-38.51-27.22-61.78-103.88-6-128.59,56.17-24.86,91.55,20.41,100.12,61.29,7.27,34.69-16.21,88.85,9,89.09s52.76,13.86,42,64,48.44,23.74,75.16,81.13c17.92,38.47,14.72,67.58.63,86.39l-75,22.87A93.69,93.69,0,0,1,954.82,1122c-36.64-34.89-8.14-79.3-22.88-98.9s-57.23-29-74.32-66.13C835.05,907.86,872.1,882.88,853,869.36Z"/><path class="cls-5" d="M864.22,814.57q3.49,6.88,7,13.77,8.87,17.37,17.83,34.67,11.69,22.51,23.58,44.91c8.06,15.13,16.2,30.21,24.57,45.17,5.74,10.24,11.61,20.41,17.51,30.56q10.65,18.32,21.46,36.52,11.22,19,22.55,37.89,10.21,17.09,20.48,34.14,7.8,13,15.62,25.9l7.67,12.67.34.56c.71,1.17,2.56.1,1.84-1.08l-5.28-8.72q-7-11.55-14-23.12-9.8-16.26-19.55-32.54-11.21-18.7-22.34-37.45-11-18.59-22-37.25Q952.12,975,942.83,958.7c-7.59-13.38-15-26.88-22.23-40.43q-12.29-22.86-24.25-45.88-9.95-19.07-19.73-38.18-5.07-9.9-10.09-19.81l-.46-.91c-.62-1.23-2.47-.15-1.85,1.08Z"/><path class="cls-5" d="M869.52,929.56l7.92,4.37,18.9,10.43,23,12.67,19.88,11c3.19,1.76,6.35,3.78,9.65,5.32l.14.08c1.2.66,2.28-1.18,1.07-1.85l-7.91-4.36-18.91-10.43-23-12.67-19.88-11c-3.19-1.76-6.34-3.78-9.65-5.33l-.13-.07c-1.21-.67-2.29,1.18-1.08,1.84Z"/><path class="cls-5" d="M1018.2,1010.45l-2.11,23-3.35,36.69-.77,8.36c-.12,1.37,2,1.36,2.14,0l2.1-23,3.36-36.69.76-8.36c.13-1.37-2-1.36-2.13,0Z"/><path class="cls-5" d="M876.87,957.68c-3.58,9.67,8,15.84,14,7.47C894.48,955.48,882.9,949.31,876.87,957.68Z"/><path class="cls-5" d="M917.15,805.29c-3.66,9.86,8.14,16.14,14.28,7.61C935.08,803.05,923.29,796.77,917.15,805.29Z"/><path class="cls-5" d="M885.18,784.19c-4.73,12.77,10.55,20.91,18.51,9.86C908.42,781.28,893.14,773.14,885.18,784.19Z"/><path class="cls-6" d="M1068.88,1102.34l-47.18,52.82a84.69,84.69,0,0,1-45.1,2.45c-44.66-9.77-43.47-57.43-64.05-65.65s-57.79,4.44-88.4-16.23c-40.44-27.32-23.54-64-44.65-65.46-42.52-3-96.43-51.26-64.91-96.51,31.72-45.55,80.27-27.17,106.06.39,21.89,23.38,31,75.16,50.58,63.54"/><path class="cls-5" d="M762.41,962.75l11.92,7.39q15,9.23,30,18.37,19.62,11.94,39.36,23.69c13.29,7.89,26.62,15.7,40.07,23.31,9.25,5.23,18.57,10.34,27.9,15.42q16.83,9.16,33.75,18.18,17.52,9.36,35.07,18.63,15.93,8.41,31.87,16.79,12.07,6.33,24.15,12.64,5.94,3.11,11.89,6.2c.17.1.35.19.53.28,1.21.63,2.29-1.21,1.07-1.85l-8.19-4.27q-10.79-5.62-21.55-11.27-15.21-8-30.4-16-17.37-9.16-34.7-18.4t-34.5-18.5c-9.94-5.38-19.88-10.79-29.75-16.31-12.1-6.75-24.09-13.71-36-20.74q-20.25-11.93-40.33-24.12Q797.93,982.16,781.43,972q-8.58-5.28-17.15-10.61l-.79-.49c-1.17-.73-2.24,1.12-1.08,1.85Z"/><path class="cls-5" d="M820.49,1049.11l27.69-1.15,44.12-1.84,10.11-.42c1.37-.06,1.38-2.19,0-2.14l-27.69,1.16-44.12,1.84-10.11.42c-1.37,0-1.38,2.19,0,2.13Z"/><path class="cls-5" d="M973.16,1041.81l9.19,18.81,14.58,29.84,3.36,6.86c.6,1.23,2.44.15,1.84-1.08l-9.19-18.81-14.58-29.84-3.35-6.86c-.6-1.24-2.45-.16-1.85,1.08Z"/><path class="cls-5" d="M827.51,1000.2l-9.86-21.34L802,945l-3.59-7.76c-.57-1.25-2.41-.17-1.84,1.07l9.85,21.34,15.64,33.86,3.58,7.77c.58,1.25,2.42.16,1.85-1.08Z"/><path class="cls-5" d="M839.37,1067.28c1.77,9.15,13.6,8.49,14.33-.81C851.94,1057.32,840.1,1058,839.37,1067.28Z"/><rect class="cls-1" x="418.66" y="114.56" width="1501.34" height="965.44"/><polygon class="cls-7" points="1266.46 938.24 1253.1 1257.14 1540 1257.14 1535.95 922.03 1266.46 938.24"/><path class="cls-8" d="M1626.4,1042.13s-.67-237.53-9.05-313.11c-14.4-129.79-112.43-227-221.59-227s-200.68,95.24-225.31,223.47c0,0-42.14,238.59,83.66,298.73l.13,11.59Z"/><polyline class="cls-9" points="1540.73 647.03 1540.73 725.53 1543.64 1040.73"/><path class="cls-10" d="M1291.69,616.54h0A7.58,7.58,0,0,1,1281.1,615l-16.51-22.29a7.58,7.58,0,0,1,1.58-10.59h0a7.57,7.57,0,0,1,10.58,1.58L1293.26,606A7.58,7.58,0,0,1,1291.69,616.54Z"/><path class="cls-10" d="M1306.49,675.44h0a7.56,7.56,0,0,1-1.58,10.58l-22.29,16.51A7.56,7.56,0,0,1,1272,701h0a7.58,7.58,0,0,1,1.57-10.59l22.3-16.51A7.56,7.56,0,0,1,1306.49,675.44Z"/><path class="cls-10" d="M1230.69,708.31h0a7.57,7.57,0,0,1-1.57,10.58l-22.3,16.51a7.56,7.56,0,0,1-10.58-1.57h0a7.56,7.56,0,0,1,1.58-10.58l22.29-16.52A7.57,7.57,0,0,1,1230.69,708.31Z"/><path class="cls-10" d="M1327.33,714.41h0a7.56,7.56,0,0,1,9.75,4.4l9.81,26a7.56,7.56,0,0,1-4.39,9.75h0a7.57,7.57,0,0,1-9.76-4.4l-9.81-25.94A7.57,7.57,0,0,1,1327.33,714.41Z"/><path class="cls-10" d="M1304.68,809.82h0a7.58,7.58,0,0,1-10.7.18l-20-19.28a7.57,7.57,0,0,1-.18-10.7h0a7.58,7.58,0,0,1,10.7-.18l20,19.28A7.58,7.58,0,0,1,1304.68,809.82Z"/><path class="cls-10" d="M1315.71,890.23h0a7.58,7.58,0,0,1,3.74,10l-11.53,25.23a7.56,7.56,0,0,1-10,3.74h0a7.56,7.56,0,0,1-3.74-10L1305.68,894A7.58,7.58,0,0,1,1315.71,890.23Z"/><path class="cls-10" d="M1282,983.35h0a7.57,7.57,0,0,1-10.6-1.47l-16.73-22.13a7.56,7.56,0,0,1,1.48-10.6h0a7.56,7.56,0,0,1,10.59,1.47l16.73,22.13A7.57,7.57,0,0,1,1282,983.35Z"/><path class="cls-10" d="M1341.37,1018.91h0a7.56,7.56,0,0,1-10.6-1.48L1314,995.3a7.55,7.55,0,0,1,1.48-10.59h0a7.56,7.56,0,0,1,10.59,1.47l16.73,22.13A7.57,7.57,0,0,1,1341.37,1018.91Z"/><path class="cls-10" d="M1219.17,937.91h0a7.55,7.55,0,0,1-10.64,1.06l-21.47-17.57a7.57,7.57,0,0,1-1.06-10.65h0a7.57,7.57,0,0,1,10.65-1.06l21.46,17.58A7.55,7.55,0,0,1,1219.17,937.91Z"/><path class="cls-10" d="M1370.59,953.17h0a7.58,7.58,0,0,1-10.7-.39L1341,932.47a7.57,7.57,0,0,1,.39-10.69h0a7.56,7.56,0,0,1,10.69.39l18.9,20.3A7.58,7.58,0,0,1,1370.59,953.17Z"/><path class="cls-10" d="M1338.31,816.66h0a7.57,7.57,0,0,1,6.92,8.16L1343,852.47a7.57,7.57,0,0,1-8.16,6.92h0a7.58,7.58,0,0,1-6.92-8.17l2.28-27.64A7.55,7.55,0,0,1,1338.31,816.66Z"/><path class="cls-10" d="M1445.76,645.74h0a7.57,7.57,0,0,1,1,10.66L1429,677.7a7.58,7.58,0,0,1-10.66,1h0a7.57,7.57,0,0,1-1-10.66l17.78-21.3A7.57,7.57,0,0,1,1445.76,645.74Z"/><path class="cls-10" d="M1389.37,822h0a7.56,7.56,0,0,1-10.42-2.44L1364.34,796a7.57,7.57,0,0,1,2.44-10.42h0A7.57,7.57,0,0,1,1377.2,788l14.61,23.58A7.56,7.56,0,0,1,1389.37,822Z"/><path class="cls-10" d="M1447.15,992.64h0a7.57,7.57,0,0,1-10.42-2.44l-14.61-23.58a7.57,7.57,0,0,1,2.44-10.42h0a7.57,7.57,0,0,1,10.42,2.45l14.61,23.58A7.56,7.56,0,0,1,1447.15,992.64Z"/><path class="cls-10" d="M1493,896.5h0a7.56,7.56,0,0,1-10.42-2.44L1468,870.48a7.57,7.57,0,0,1,2.45-10.42h0a7.58,7.58,0,0,1,10.42,2.45l14.61,23.58A7.56,7.56,0,0,1,1493,896.5Z"/><path class="cls-10" d="M1519,751.2h0a7.57,7.57,0,0,1-10.42-2.44L1494,725.18a7.57,7.57,0,0,1,2.45-10.42h0a7.55,7.55,0,0,1,10.41,2.45l14.62,23.58A7.56,7.56,0,0,1,1519,751.2Z"/><path class="cls-10" d="M1454.21,801.2h0a7.57,7.57,0,0,1-10.42-2.44l-14.61-23.58a7.56,7.56,0,0,1,2.44-10.42h0a7.57,7.57,0,0,1,10.42,2.45l14.61,23.58A7.56,7.56,0,0,1,1454.21,801.2Z"/><path class="cls-10" d="M1392,894.24h0a7.56,7.56,0,0,1-.58-10.68L1410,862.91a7.55,7.55,0,0,1,10.68-.59h0a7.57,7.57,0,0,1,.58,10.69l-18.52,20.65A7.56,7.56,0,0,1,1392,894.24Z"/><path class="cls-10" d="M1409.45,733h0a7.56,7.56,0,0,1-10.42-2.44L1384.42,707a7.57,7.57,0,0,1,2.44-10.42h0a7.57,7.57,0,0,1,10.42,2.45l14.61,23.58A7.56,7.56,0,0,1,1409.45,733Z"/><path class="cls-10" d="M1490.07,631h0a7.57,7.57,0,0,1,10.68.66l18.37,20.79a7.57,7.57,0,0,1-.66,10.68h0a7.57,7.57,0,0,1-10.68-.66l-18.37-20.79A7.57,7.57,0,0,1,1490.07,631Z"/><path class="cls-10" d="M1477.59,593.26h0a7.57,7.57,0,0,1,1.57-10.58l22.3-16.51a7.57,7.57,0,0,1,10.58,1.57h0a7.57,7.57,0,0,1-1.58,10.59l-22.29,16.51A7.56,7.56,0,0,1,1477.59,593.26Z"/><path class="cls-10" d="M1587.92,670.6h0a7.56,7.56,0,0,1-3.17,10.22l-24.53,12.95A7.58,7.58,0,0,1,1550,690.6h0a7.57,7.57,0,0,1,3.17-10.22l24.54-12.94A7.57,7.57,0,0,1,1587.92,670.6Z"/><path class="cls-10" d="M1332.63,578.18h0a7.58,7.58,0,0,1-3.39-10.15l12.41-24.82a7.56,7.56,0,0,1,10.15-3.38h0a7.57,7.57,0,0,1,3.38,10.15l-12.4,24.81A7.57,7.57,0,0,1,1332.63,578.18Z"/><path class="cls-10" d="M1362.31,665.43h0a7.57,7.57,0,0,1-10.66,1l-21.3-17.78a7.57,7.57,0,0,1-1-10.66h0a7.58,7.58,0,0,1,10.66-1l21.3,17.78A7.58,7.58,0,0,1,1362.31,665.43Z"/><path class="cls-10" d="M1376.62,620.94h0a7.56,7.56,0,0,1,0-10.7l19.61-19.62a7.57,7.57,0,0,1,10.7,0h0a7.56,7.56,0,0,1,0,10.7l-19.61,19.62A7.57,7.57,0,0,1,1376.62,620.94Z"/><path class="cls-10" d="M1411.58,544h0a7.56,7.56,0,0,1,10.15-3.38l24.81,12.4a7.56,7.56,0,0,1,3.39,10.15h0a7.56,7.56,0,0,1-10.15,3.38L1415,554.15A7.57,7.57,0,0,1,1411.58,544Z"/><path class="cls-10" d="M1561.21,615.38l19.35,2.65q-5.2-8.64-10.9-16.77l-6.39-.87a7.57,7.57,0,1,0-2.06,15Z"/><path class="cls-10" d="M1478.91,534.52l10.32-7.64c-5-2.76-10-5.33-15.09-7.65l-4.24,3.13a7.57,7.57,0,1,0,9,12.16Z"/><path class="cls-10" d="M1292.2,547.68a7.57,7.57,0,0,0,9.7-11.62l-6.31-5.27c-4.5,2.72-8.92,5.58-13.25,8.65Z"/><path class="cls-10" d="M1214.19,660a7.56,7.56,0,1,0,6.77-13.53l-20.19-10.09c-2.28,4.46-4.43,9-6.52,13.65Z"/><path class="cls-10" d="M1229.26,968.34a7.56,7.56,0,0,0-9.94,4l-7.86,18.25,11.4,11.78,10.36-24.05A7.57,7.57,0,0,0,1229.26,968.34Z"/><path class="cls-10" d="M1304.87,1036.36l2.31-5.37a7.56,7.56,0,0,0-13.89-6l-4.9,11.36Z"/><path class="cls-10" d="M1279.49,871.8a7.56,7.56,0,0,0-10.28-3l-16.72,9.23.19,17.18,23.84-13.16A7.56,7.56,0,0,0,1279.49,871.8Z"/><path class="cls-9" d="M1250.79,647v78.5l3.45,310.32,372.16,6.28s-.67-237.52-9.05-313.11c-14.4-129.79-112.43-227-221.59-227s-200.68,95.24-225.31,223.47c0,0-42.14,238.59,83.66,298.73"/><rect class="cls-11" x="1378.26" y="454.72" width="55.6" height="64.18" rx="25.19"/><path class="cls-12" d="M1496.2,389.65a20.83,20.83,0,0,0-10.57-18.12,15.16,15.16,0,0,0-8.71-23.41,18.32,18.32,0,0,0-17.3-24.43h-.11a17.14,17.14,0,0,0-28.65-10.75,26.28,26.28,0,0,0-37.22-1.27,26.89,26.89,0,0,0-42.17,14.59A16.06,16.06,0,0,0,1338.36,342a16.31,16.31,0,0,0,.32,3.14,19.16,19.16,0,0,0-10,27.45,20.79,20.79,0,0,0-1.42,32.95,20.79,20.79,0,0,0,7.09,25.12,20.79,20.79,0,0,0,17.76,28.56,20.83,20.83,0,1,0,20.84-28.56,20.82,20.82,0,0,0-7.22-9.14,20.78,20.78,0,0,0-5.9-23.75,20.83,20.83,0,0,0-2-20,19.14,19.14,0,0,0,5.38-21.83,26.85,26.85,0,0,0,33.27-3.58,26.31,26.31,0,0,0,39.4-11,16.88,16.88,0,0,0,5.51,1.29,18.33,18.33,0,0,0,16.85,17.62,15,15,0,0,0-.25,2.52,15.13,15.13,0,0,0,4.35,10.64,20.85,20.85,0,0,0-6,24.34,20.78,20.78,0,0,0-5.9,23.75,20.89,20.89,0,0,0-7.22,9.14,20.82,20.82,0,1,0,20.84,28.56,20.79,20.79,0,0,0,17.76-28.56,20.79,20.79,0,0,0,7.09-25.12A20.77,20.77,0,0,0,1496.2,389.65Z"/><path class="cls-11" d="M1317.48,426.79A17.7,17.7,0,1,0,1336,410.1,17.62,17.62,0,0,0,1317.48,426.79Z"/><path class="cls-9" d="M1344.94,428.11a9.76,9.76,0,0,0-9.32-10.17"/><path class="cls-11" d="M1491.41,429.85a17.7,17.7,0,1,1-17.92-17.33A17.62,17.62,0,0,1,1491.41,429.85Z"/><path class="cls-9" d="M1463.92,430.2a9.76,9.76,0,0,1,9.67-9.83"/><path class="cls-11" d="M1458.22,435.08a46.47,46.47,0,0,1-47.6,45l-15-.42a46.47,46.47,0,0,1-45-47.6l1.39-50a46.46,46.46,0,0,1,47.59-45l15,.42a46.46,46.46,0,0,1,45,47.59Z"/><path class="cls-9" d="M1419.93,439.68a13.81,13.81,0,0,1-27.41-.76"/><path class="cls-13" d="M1376.45,406.72a6.24,6.24,0,1,1-5.86-6.6A6.23,6.23,0,0,1,1376.45,406.72Z"/><path class="cls-13" d="M1442.47,407.88a6.24,6.24,0,1,1-5.86-6.6A6.23,6.23,0,0,1,1442.47,407.88Z"/><path class="cls-14" d="M1430.24,393.82s8.87-1.82,15.46,3.17"/><path class="cls-14" d="M1376.61,392.87s-8.8-2.12-15.56,2.63"/><polyline class="cls-9" points="1409.86 422.3 1399.01 422.1 1404.85 397.58"/><rect class="cls-10" x="1359.49" y="488.35" width="93.47" height="33.39" rx="14.9"/><path class="cls-8" d="M1337.91,361.64s-4.42,18.27,5.65,27.69,28.67-3.91,28.67-3.91,12,6.16,25.35,4.23c19.28-2.8,22.63-18.64,23-19.56s2.05,12.65,14,15.06c7.62,1.54,14.53-2.41,14.53-2.41s-1.64,19.5,17.72,19.82c25.81.43,12.58-39,12.58-39s4.41-26.63-28.65-42.59-49.64-7.7-75.51,1.67S1337.91,361.64,1337.91,361.64Z"/><path class="cls-9" d="M1343.56,389.33c10.08,9.41,28.67-3.91,28.67-3.91s12,6.16,25.35,4.23c19.28-2.8,22.63-18.64,23-19.56s2.05,12.65,14,15.06c7.62,1.54,14.53-2.41,14.53-2.41s-1.64,19.5,17.72,19.82"/><polygon class="cls-13" points="1761.93 914.33 1778.91 1080 1506.51 1080 1511.71 911.59 1761.93 914.33"/><path class="cls-15" d="M1624.25,533s-73.76,45.35-97.48,135.09-15.06,243.5-15.06,243.5,291.7,12.93,291.7,8.89,19-141.19-9.91-214.85S1688.11,564,1688.11,564Z"/><path class="cls-16" d="M1617.79,565.15s-42.86,196-42.37,298.56v50.56"/><path class="cls-17" d="M1668,705.27a22.88,22.88,0,0,0-20.22,4.76,22.63,22.63,0,0,0-8.61-8.74s-6.19,10.48-8,14.1c-3.29,6.44-10.23,23.79-10.23,23.79l-1.86,5.15a23.48,23.48,0,0,0,2.8.91,22.85,22.85,0,0,0,20.22-4.77,23.41,23.41,0,0,0,15.07,11.83c12.58,3.09,25.24-4.95,28.24-17.91S1680.56,708.36,1668,705.27Z"/><path class="cls-5" d="M1652.47,916.28c-2.89-48.52-10.29-170.72-13.33-221-.73-12-10-20.89-20.32-19.38l-149.47,22c-9.88,1.45-16.89,11.91-15.69,23.39l22.56,215c1.19,11.34,10,19.5,19.73,18.38l140.24-16C1645.93,937.5,1653.15,927.63,1652.47,916.28Z"/><path class="cls-8" d="M1448,819.56c-4,10.43,1.68,23.41,25.3,32s121.43,22,121.43,22l13-68.26s-99.07-39.65-106.63-33.33,14,26.5,14,26.5-38.29-10.83-48.46-12.89-11,4.54-9.92,8.44c0,0-9.74.91-7,11.29A14.45,14.45,0,0,0,1448,819.56Z"/><path class="cls-16" d="M1456.73,794s-9.74.91-7,11.29c3,11.46,37.24,21,37.24,21"/><path class="cls-16" d="M1449.76,805.31a14.45,14.45,0,0,0-1.78,14.25c3.63,9.48,33.84,19.73,33.84,19.73"/><path class="cls-16" d="M1448,819.56c-4,10.43,1.68,23.41,25.3,32s121.43,22,121.43,22l13-68.26s-99.07-39.65-106.63-33.33,14,26.5,14,26.5-38.29-10.83-48.46-12.89-11,4.54-9.92,8.44c1.5,5.45,11.25,12,34.44,18.43"/><path class="cls-8" d="M1580.41,885.22l6.22-98.43,169-11.73-20.16-.38-23.36-90.46-79.88-143.11s126,6.51,220.82,150.16c94,142.44,45.23,282.64-127.79,243.16C1578.62,901,1580.41,885.22,1580.41,885.22Z"/><path class="cls-16" d="M1632.28,541.11s126,6.51,220.82,150.16c94,142.44,45.23,282.64-127.79,243.16-146.69-33.46-144.9-49.21-144.9-49.21l6.22-98.43,169-11.73"/><line class="cls-16" x1="1609.86" y1="798.36" x2="1609.86" y2="889.16"/><line class="cls-16" x1="1735.52" y1="774.68" x2="1712.16" y2="684.22"/><path class="cls-17" d="M1721.74,605.64a25.34,25.34,0,0,0-16.31-12.79c-13.6-3.35-27.31,5.35-30.55,19.38s5.19,28.15,18.79,31.5a24.77,24.77,0,0,0,21.88-5.16,25.36,25.36,0,0,0,16.31,12.8c13.6,3.34,27.31-5.35,30.55-19.38s-5.19-28.16-18.79-31.5A24.73,24.73,0,0,0,1721.74,605.64Z"/><path class="cls-17" d="M1792.2,689.9a25.32,25.32,0,0,0-16.3-12.8c-13.61-3.34-27.31,5.35-30.55,19.38s5.19,28.16,18.79,31.5a24.74,24.74,0,0,0,21.88-5.15,25.35,25.35,0,0,0,16.31,12.79c13.6,3.34,27.31-5.35,30.55-19.38s-5.19-28.16-18.8-31.5A24.75,24.75,0,0,0,1792.2,689.9Z"/><path class="cls-17" d="M1809.06,793.73a25.38,25.38,0,0,0-16.31-12.79c-13.6-3.34-27.31,5.35-30.55,19.38s5.19,28.16,18.79,31.5a24.76,24.76,0,0,0,21.88-5.15,25.38,25.38,0,0,0,16.31,12.79c13.6,3.34,27.31-5.35,30.55-19.38s-5.19-28.16-18.8-31.5A24.72,24.72,0,0,0,1809.06,793.73Z"/><path class="cls-17" d="M1694.67,814.78a25.3,25.3,0,0,0-16.3-12.79c-13.61-3.34-27.31,5.35-30.55,19.38s5.19,28.15,18.79,31.5a24.75,24.75,0,0,0,21.88-5.16,25.31,25.31,0,0,0,16.31,12.8c13.6,3.34,27.3-5.35,30.54-19.38s-5.18-28.16-18.79-31.5A24.74,24.74,0,0,0,1694.67,814.78Z"/><path class="cls-17" d="M1753.91,888.52a25.36,25.36,0,0,0-16.31-12.8c-13.6-3.34-27.31,5.35-30.55,19.38s5.19,28.16,18.79,31.5a24.73,24.73,0,0,0,21.88-5.15A25.38,25.38,0,0,0,1764,934.24c13.6,3.34,27.31-5.35,30.55-19.38s-5.19-28.16-18.79-31.5A24.74,24.74,0,0,0,1753.91,888.52Z"/><path class="cls-15" d="M1589.82,397.94l29.08.36c19.34.23,34.94,18.44,34.67,40.45l-.55,45.09c0,1.27-.09,2.53-.21,3.77a18.15,18.15,0,0,1,.44,4.13l-.33,27.45,0,1.53-.33,27.44a18.17,18.17,0,0,1-18.33,17.89l-11.54-.14a18.17,18.17,0,0,1-17.89-18.33l.3-24.29-16.82-.2c-19.34-.24-34.94-18.44-34.67-40.46l.55-45.09C1554.44,415.53,1570.48,397.71,1589.82,397.94Z"/><path class="cls-13" d="M1612.19,453a6.56,6.56,0,1,1-6.47-6.63A6.56,6.56,0,0,1,1612.19,453Z"/><path class="cls-13" d="M1569.28,451.5a5.6,5.6,0,1,1-5.53-5.66A5.6,5.6,0,0,1,1569.28,451.5Z"/><path class="cls-15" d="M1575.22,478.4s3.17,9.64,10.13,10.39,12.51-6.91,13-12.93Z"/><polyline class="cls-16" points="1586 468.46 1575.42 461.84 1584.93 446.12"/><line class="cls-16" x1="1617.79" y1="441.31" x2="1605.83" y2="436.94"/><line class="cls-16" x1="1569.14" y1="438.61" x2="1558.25" y2="438.47"/><path class="cls-18" d="M1652.9,477.43a18.07,18.07,0,0,1,11.52,1.61,21.78,21.78,0,0,1,1.54-14.67,22.48,22.48,0,0,1-34.58-15.15A22.16,22.16,0,0,1,1617,426a22.37,22.37,0,0,1-4.24-3.29,22.81,22.81,0,0,1-2.8-3.46,22.4,22.4,0,0,1-29-.57,23.24,23.24,0,0,1-1.8,2.19,22.45,22.45,0,0,1-38.13-13,22.49,22.49,0,0,1-7.58-37,23.3,23.3,0,0,1,3.89-3.05,22.53,22.53,0,0,1,22.43-22.43,22.39,22.39,0,0,1,32.1-10.48,22.42,22.42,0,0,1,41.65-1.23c.34-.39.61-.82,1-1.19a20.28,20.28,0,0,1,28.68.14,20,20,0,0,1,4.25,6.39,22.39,22.39,0,0,1,31.23,19.37,17.34,17.34,0,0,1,15.85,25.39,23,23,0,0,1,1.48,45,19.22,19.22,0,0,1-13.59,31.3,21.72,21.72,0,0,1-28.35,32.15,17.91,17.91,0,0,1-21.34,20.28Z"/><path class="cls-8" d="M1689.83,470.44A23.16,23.16,0,1,1,1667,447.19,23.07,23.07,0,0,1,1689.83,470.44Z"/><path class="cls-16" d="M1654.11,473s-.83-15.61,15.17-13.69"/><path class="cls-16" d="M1643.52,469.88a22.82,22.82,0,0,1,7.18-16.36"/><path class="cls-16" d="M1650.7,453.52a23,23,0,1,1,4.81,36.77,35.62,35.62,0,0,1-5.21-3.71"/><polygon class="cls-15" points="1669.28 548.36 1655.99 528.2 1617.79 555.51 1640.44 595 1669.28 548.36"/><polygon class="cls-15" points="1617.79 555.51 1595.14 591.4 1592.88 556.62 1604.94 536.68 1617.79 555.51"/><path class="cls-17" d="M1580.1,617.92a22.88,22.88,0,0,0-20.22,4.76,22.69,22.69,0,0,0-8.62-8.74s-6.19,10.48-8,14.1c-3.29,6.44-10.23,23.79-10.23,23.79l-1.86,5.15a21.28,21.28,0,0,0,2.8.9,22.83,22.83,0,0,0,20.22-4.76A23.41,23.41,0,0,0,1569.23,665c12.57,3.09,25.24-5,28.24-17.91S1592.67,621,1580.1,617.92Z"/><path class="cls-19" d="M1310.58,857.36s48.25,80.72,0,128-87.22-3.71-95.57-39S1222.43,797,1222.43,797,1305.73,848.14,1310.58,857.36Z"/><path class="cls-20" d="M1143.48,506.37s91,11.48,134.14,86.56c36.46,63.41,68.42,260.4,64.75,345.41l-97.35,10-19.75-272.71Z"/><path class="cls-20" d="M1122.44,506.37c-37.8,1.83-91.31,29.74-138.93,73.7s-94.35,108.2-104.89,157.19c-9,41.77-7,107.63,70.78,107.63L1056.75,604Z"/><path class="cls-21" d="M1023.66,584.34s-21.55-27.76-13.63-56.16,27-26.59,21.08-59.86-1.94-71.57,15.9-92.05,34-43.71,76.43-35.73c0,0,44.75-14,64.24,7.32s20,48.23,19.91,61.44,7.85,24.07,17.76,43.08,22.9,59.29,13.76,86.37-1,70-21.91,79.26S1059.74,624.64,1023.66,584.34Z"/><path class="cls-13" d="M955.49,954.07,1292.32,960,1260,817.09l15.37-213.6c-1.47-3,3.78-8,2.29-10.56-43.16-75.08-134.14-86.56-134.14-86.56h-21c-36.6,1.77-87.9,28-134.35,69.6l5.56,169.6-3.48,75.86Z"/><polygon class="cls-17" points="1267.02 1081.25 993.91 1081.25 1008.38 786.58 1230.79 786.58 1267.02 1081.25"/><path class="cls-20" d="M955.49,954.07l156.27,2.74c4.31-41.35,9.14-104.14,5.5-153.57-5.76-78-39.73-271-42.13-284.6-27.79,11.83-58.34,31.65-87,57.33l5.56,169.6-3.48,75.86Z"/><path class="cls-20" d="M1260,817.09l22.1-215.72c-1.47-3-3-5.85-4.44-8.44-21.47-37.35-54.78-58.95-82.83-71.24-5,28.36-36.1,207.24-41.59,281.55-3.67,49.76,1.26,113.06,5.58,154.39L1292.32,960Z"/><polyline class="cls-22" points="1050.8 540.95 1057.09 654.46 1067.78 660.41 1057.72 669.41 1101.83 826.93"/><polyline class="cls-22" points="1220.22 540.95 1213.93 654.46 1203.24 660.41 1213.3 669.41 1169.2 826.93"/><polyline class="cls-22" points="1158.79 957.63 1292.32 959.98 1257.86 807.83 1257.55 635.74"/><polyline class="cls-22" points="998.69 635.74 990.17 821.43 955.5 954.07 1111.76 956.81"/><path class="cls-5" d="M966.3,793.61l-29.47-199a26.32,26.32,0,0,1,24.95-30.15l86.81-3.56a26.31,26.31,0,0,1,27.17,22.87L1100,768.63a26.32,26.32,0,0,1-20.51,29.14l-81.58,17.7A26.32,26.32,0,0,1,966.3,793.61Z"/><path class="cls-22" d="M1026.16,665.56a13.87,13.87,0,1,1-13.87-13.86A13.87,13.87,0,0,1,1026.16,665.56Z"/><path class="cls-8" d="M1113.42,726.72l-.09-.06a15.76,15.76,0,0,0,2.24-4.49c1.34-5.78,0-9.9-4.72-11.47l-.38.16a10.18,10.18,0,0,0,1.19-2.81c1-5.53.13-9.57-5.87-10.33l-1.46.55c3.15-5.79,2.18-10,.48-12.68-2.9-4.52-17.64-8.15-17-1.8.43,4.22-2.65,10.39-9.48,11.94a51.09,51.09,0,0,1-8.57,1l-.1-.07s28.37-18.83,20.88-27.45c-7.86-9.05-24.47,5.36-37.73,14.48s-21,31.83-21,31.83L996.23,729l16.56,57.58,15.68-3.56s58.49-12.78,70.39-20c12.86-7.8,20.37-20,20.35-26.32S1116.72,726.5,1113.42,726.72Z"/><path class="cls-22" d="M1100.85,741.39s13.37-13.44,14.72-19.22,0-9.9-4.72-11.47"/><path class="cls-22" d="M1094.27,731.05s16.35-17.47,17.39-23,.13-9.57-5.87-10.33"/><path class="cls-22" d="M1069.66,696.67s28.37-18.83,20.88-27.45c-7.86-9.05-24.47,5.36-37.73,14.48s-21,31.83-21,31.83L996.23,729l16.56,57.58,15.68-3.56s58.49-12.78,70.39-20c12.86-7.8,20.37-20,20.35-26.32s-2.49-10.21-5.79-10"/><path class="cls-22" d="M1061.58,696.76s9.92.52,16.75-1,9.91-7.72,9.48-11.94c-.64-6.35,14.1-2.72,17,1.8s3.82,13.73-14.65,27.32"/><path class="cls-20" d="M1026.62,710.06,926,720.65l-47.33,16.61c-9,41.77-7,107.63,70.78,107.63,41.46,0,105.21-54.64,105.21-54.64Z"/><line class="cls-22" x1="1008.38" y1="719.42" x2="1035.85" y2="795.13"/><path class="cls-22" d="M926,720.65l100.67-10.59,28,80.19s-63.75,54.64-105.21,54.64c-77.79,0-79.76-65.86-70.78-107.63"/><path class="cls-23" d="M1129.83,532.72h0c-15.43.32-28.16-10.33-28.43-23.77l-.55-26.8c-.22-10.7,9.65-19.49,21.93-19.52l11,0c12.4,0,22.74,8.79,23,19.6l.52,25.6C1157.54,521.25,1145.26,532.4,1129.83,532.72Z"/><path class="cls-23" d="M1047,448.72a16.37,16.37,0,1,0,16.53-16.08A16.3,16.3,0,0,0,1047,448.72Z"/><path class="cls-13" d="M1071,451.14a7.22,7.22,0,0,0,0-1c0-.37,0-.75-.1-1.12,0-.15,0-.41,0,0a1.91,1.91,0,0,0-.06-.33c0-.25-.1-.5-.16-.74a11.2,11.2,0,0,0-.5-1.48c-.13-.33.11.21,0-.11l-.17-.34c-.15-.27-.31-.54-.48-.79l-.23-.32c-.21-.29.13.14-.1-.13s-.45-.48-.7-.7l-.33-.27c-.22-.19.17.12,0,0l-.18-.12a6.4,6.4,0,0,0-.92-.52l-.21-.1-.18-.08c.15.06.16.07,0,0l-.58-.2a11.23,11.23,0,0,0-1.28-.28s-.41-.05-.13,0l-.36,0-.76,0a15.49,15.49,0,0,0-1.8.08,1.28,1.28,0,0,1-1.29-1.24,1.3,1.3,0,0,1,1.24-1.29c3.57-.33,7.23.49,9.53,3.4a11.58,11.58,0,0,1,2.25,6.34,11,11,0,0,1,0,1.41,1.3,1.3,0,0,1-1.24,1.29,1.28,1.28,0,0,1-1.29-1.24Z"/><path class="cls-23" d="M1207.58,447.73a16.37,16.37,0,1,1-16.2-16.4A16.3,16.3,0,0,1,1207.58,447.73Z"/><path class="cls-13" d="M1181.07,449.65c-.22-4.17,1.84-8.59,5.78-10.29a12.72,12.72,0,0,1,6.5-.66,1.28,1.28,0,0,1,.92,1.54,1.3,1.3,0,0,1-1.54.91,10.06,10.06,0,0,0-4.73.46c-.08,0-.54.23-.26.1l-.44.22a9.9,9.9,0,0,0-.87.56c-.29.21.09-.11-.17.13l-.32.3a7.56,7.56,0,0,0-.6.67l-.13.17c.19-.25.08-.12,0-.06a4,4,0,0,1-.23.34,7.37,7.37,0,0,0-.43.78c-.06.12-.12.24-.17.36s-.2.5-.06.12c-.09.25-.18.49-.26.75a10.66,10.66,0,0,0-.33,1.38c0,.2-.07.4-.1.6s-.13.41,0,0a1.43,1.43,0,0,0,0,.29,10.88,10.88,0,0,0,0,1.28c.09,1.63-2.44,1.67-2.53,0Z"/><path class="cls-23" d="M1179.14,452a44.64,44.64,0,0,1-44,45l-14.45.15a44.64,44.64,0,0,1-45-44l-.5-48a44.63,44.63,0,0,1,44-45l14.45-.15a44.62,44.62,0,0,1,45,44Z"/><path class="cls-22" d="M1139.56,459.21a10.23,10.23,0,0,1-20.31.22Z"/><path class="cls-13" d="M1099.62,427.8a6,6,0,1,1-5.86-6.12A6,6,0,0,1,1099.62,427.8Z"/><path class="cls-13" d="M1163,426.5a6,6,0,1,1-5.86-6.12A6,6,0,0,1,1163,426.5Z"/><path class="cls-24" d="M1150.77,413.45s8.45-2.06,15,2.48"/><path class="cls-24" d="M1099.27,414.51s-8.53-1.72-14.84,3.09"/><polyline class="cls-22" points="1126.55 418 1121.83 441.74 1130.54 441.56"/><path class="cls-8" d="M1060.44,426.37s19.92-5.59,29.34-20.88,38.34-13,44.21-36.54c0,0,10.93,28.25,21.77,29.65s12.61,5.08,16.59,11.26,16.29,19.36,18.86,15.17,5-49.46-14.57-64.47-61-19.59-79.87-14.16S1045.78,390.48,1060.44,426.37Z"/><path class="cls-22" d="M1060.44,426.37s19.92-5.59,29.34-20.88,38.34-13,44.21-36.54c0,0,10.93,28.25,21.77,29.65s12.61,5.08,16.59,11.26,16.29,19.36,18.86,15.17"/></g></svg>