<svg version="1.1"
	 xmlns="http://www.w3.org/2000/svg" xmlns:xlink="http://www.w3.org/1999/xlink" xmlns:a="http://ns.adobe.com/AdobeSVGViewerExtensions/3.0/"
	 x="0px" y="0px" width="16px" height="21.8px" viewBox="0 0 16 21.8" style="enable-background:new 0 0 16 21.8;"
	 xml:space="preserve">
<style type="text/css">
	.st0{fill:#231F20;}
</style>
<defs>
</defs>
<path class="st0" d="M14.5,8.9c-0.4-0.1-0.6-0.3-0.6-0.7V6.1c0-3.2-2.5-6-5.7-6.1c-3.3-0.1-6,2.6-6,5.9l0,2.3c0,0.4-0.3,0.6-0.7,0.7
	C0.6,9,0,9.7,0,10.6v9.5c0,0.9,0.8,1.7,1.7,1.7h12.6c0.9,0,1.7-0.8,1.7-1.7v-9.5C16,9.7,15.3,9,14.5,8.9z M4.9,5.8
	c0-1.7,1.4-3.1,3.2-3C9.8,2.9,11,4.3,11,6v2.2c0,0.4-0.3,0.7-0.7,0.7H5.7c-0.4,0-0.7-0.3-0.7-0.7V5.8z"/>
</svg>