<?xml version="1.0" encoding="utf-8"?>
<!-- Generator: Adobe Illustrator 25.3.1, SVG Export Plug-In . SVG Version: 6.00 Build 0)  -->
<svg version="1.1" id="Layer_1" xmlns="http://www.w3.org/2000/svg" xmlns:xlink="http://www.w3.org/1999/xlink" x="0px" y="0px"
	 viewBox="0 0 150 150" style="enable-background:new 0 0 150 150;" xml:space="preserve">
<style type="text/css">
	.st0{fill:#BB2649;}
	.st1{fill:#333333;}
	.st2{fill:#D1D1D1;}
</style>
<path class="st0" d="M53.2,130.3c0-10-8.1-18-18-18s-18,8.1-18,18c0,10,8.1,18,18,18S53.2,140.3,53.2,130.3"/>
<path class="st2" d="M90.4,89.7H31.7C23.6,89.7,17,83,17,74.9c0-8.1,6.6-14.8,14.8-14.8h58.7c8.2,0,14.8-6.6,14.8-14.7
	s-6.7-14.7-14.8-14.7H31.7c-8.1,0-14.8-6.6-14.8-14.8c0-8.1,6.6-14.8,14.8-14.8h58.7c24.4,0,44.3,19.8,44.3,44.2
	S114.8,89.7,90.4,89.7"/>
</svg>
