<svg id="Layer_1" data-name="Layer 1" xmlns="http://www.w3.org/2000/svg" viewBox="0 0 141.73 141.73"><path d="M9.31,42.6c0-.35-.07-.71-.07-1.07q0-5.19,0-10.36c0-3.78,2.48-6.23,6.31-6.26,2,0,3.91,0,5.87,0,1.54,0,2.37-.69,2.39-1.87s-.81-1.91-2.44-1.91c-2.17,0-4.34,0-6.51,0a9.71,9.71,0,0,0-9.44,9.29c0,.8,0,1.6,0,2.4q0,38.32,0,76.65c0,5.12,3,10.09,7.79,11.14a11,11,0,0,0,2.15.21h87c.22,0,.43,0,.64,0a1.86,1.86,0,0,0,.18-3.67,7,7,0,0,0-1.52-.09c-5,0-80.86,0-85.89,0-4.16,0-6.55-3.51-6.55-7.64q0-30.81,0-61.63V46.56"/><path d="M5.52,29.24c.12-.36.26-.71.36-1.06A9.7,9.7,0,0,1,15.11,21C19.06,21,23,21,27,21H109.6c.47,0,.94,0,1.4,0a1.73,1.73,0,0,1,1.77,1.67,1.77,1.77,0,0,1-1.5,2.05,8.23,8.23,0,0,1-1.65.08q-46.74,0-93.48,0a6.75,6.75,0,0,0-4.54,1.31,5.26,5.26,0,0,0-2.17,3.91c-.11,4.2,0,8.4,0,12.67h123c0-.35.07-.71.07-1.08,0-3.49,0-7,0-10.47a6,6,0,0,0-6.31-6.33c-2,0-3.92,0-5.88,0-1.53,0-2.36-.69-2.39-1.89s.81-1.93,2.44-1.93c2.17,0,4.34,0,6.51,0a9.77,9.77,0,0,1,9.45,9.4c0,.81,0,1.62,0,2.43v77.51c0,5.17-3,9.07-7.79,10.13a11.11,11.11,0,0,1-2.15.21h-15c-.22,0-.43,0-.64,0a1.88,1.88,0,0,1-.18-3.71,7,7,0,0,1,1.52-.09c5,0,8.8,0,13.82,0,4.17,0,6.56-2.42,6.56-6.6V46.73H9.35v3.41c0,3.37,0,6.73,0,10.09,0,1.08-.09,2.06-1.27,2.52s-1.9-.27-2.57-1.08Z"/><path d="M43.62,37.37a3.55,3.55,0,1,1,3.51-3.61A3.6,3.6,0,0,1,43.62,37.37Z"/><path d="M36.19,33.79a3.52,3.52,0,1,1-3.49-3.51A3.54,3.54,0,0,1,36.19,33.79Z"/><path d="M18.25,33.82a3.51,3.51,0,1,1,3.45,3.55A3.53,3.53,0,0,1,18.25,33.82Z"/><path d="M9,102l.27-14.88c0-.32,0-.63,0-1V46.56a3.08,3.08,0,0,0,0-1.26C9,44.72,8.58,44,8.07,43.79a4,4,0,0,0-2,.32c-.24.07-.42.38-.62.58V99.17c.84,3.11,1,3.19,3,4.51Z"/><path d="M80,96.61l-4.33-4.18-.1,0a25.33,25.33,0,0,1-2.38-2c2.28-2.27,4.34-4.29,6.36-6.35,1.85-1.88,1.38-4.24-1.09-5.17Q61.78,72.6,45.1,66.45a4.05,4.05,0,0,0-2.46,0c-1.76.61-2.36,2.43-1.6,4.48Q44.79,81,48.56,91.12c.18.5.35,1,.57,1.64l1.59,4.36a2,2,0,0,1,.34.66c.62,1.93,1.39,3.83,2.11,5.73,1.13,3,3.37,3.47,5.65,1.19,2-1.94,3.89-3.9,5.86-5.87.35.31.6.53.84.77,1.87,1.86,3.71,3.75,5.6,5.59,1.46,1.42,3.18,1.55,4.57.27s2.94-2.83,4.33-4.33a3.17,3.17,0,0,0,.59-3.68A5.2,5.2,0,0,0,80,96.61ZM73.37,102l-6.7-6.71c-1.55-1.55-2.32-1.55-3.85,0l-6,5.94a1.6,1.6,0,0,1-.38.17L45,70.43,76.09,82c-2.19,2.19-4.27,4.26-6.33,6.33-1.44,1.44-1.44,2.29,0,3.75q3.42,3.42,6.85,6.81Z"/></svg>