<svg id="Layer_1" data-name="Layer 1" xmlns="http://www.w3.org/2000/svg" viewBox="0 0 141.73 141.73"><path d="M133,104.71a9.14,9.14,0,0,1-1.37,5,5.09,5.09,0,0,1-.34.47,6.37,6.37,0,0,1-5.32,2.14q-19.65,0-39.31,0H15.92A6.71,6.71,0,0,1,10.26,110a6.92,6.92,0,0,1-1.52-4.42q0-12.14,0-24.26,0-22.26,0-44.52c0-4.82,2.5-7.34,7.3-7.34H125.11c4.62,0,6.16,1,7.88,5.27Zm-4.54,2.7V37.2c-.55.4-.91.65-1.26.92L78.38,74.72a11.3,11.3,0,0,1-14.33,0L15,38c-.33-.25-.68-.48-1.09-.77V107.3m4-73.15c.39.33.57.49.76.63Q42.95,53,67.2,71.16a6.47,6.47,0,0,0,8,0Q99.4,53,123.59,34.84a6.68,6.68,0,0,1,.8-.41l-.28-.28Z"/></svg>