<svg id="Layer_1" data-name="Layer 1" xmlns="http://www.w3.org/2000/svg" viewBox="0 0 141.73 141.73"><path d="M77.63,58.5c6.9-4.88,14.37-5.39,22.07-4.27,10.07,1.47,15.82,7.08,17.46,17.15a77.31,77.31,0,0,1,1,11.77c.13,10.6,0,21.19,0,31.79,0,2.6-.61,3.21-3.17,3.22-5.3,0-10.6,0-15.9,0-2.54,0-3.14-.63-3.14-3.23,0-9.86,0-19.73-.07-29.59a29.77,29.77,0,0,0-1-7.33c-1-3.61-3.16-5.12-6.92-5.28-4.2-.17-7.19,1.3-8.22,4.78a33.82,33.82,0,0,0-1.31,9c-.16,9.46-.06,18.93-.06,28.4,0,2.77-.5,3.29-3.21,3.29-5.13,0-10.26,0-15.39,0-2.38,0-3-.65-3-3q0-29.26,0-58.51c0-2.28.64-2.92,2.93-2.93,4.79,0,9.58,0,14.37,0,3.18,0,3.55.38,3.59,3.6ZM114,114c0-.58.1-1,.1-1.46,0-10.37.09-20.75-.08-31.12a59.63,59.63,0,0,0-1.28-11.22A14.1,14.1,0,0,0,102,58.82a31,31,0,0,0-13.24-.59c-4.59.76-8.63,2.47-11.24,6.68a2.7,2.7,0,0,1-2.44.8,2.88,2.88,0,0,1-1.45-2.09,51.68,51.68,0,0,1-.07-5.71H60.91V114h13.4v-2.09c.08-10.08.13-20.17.27-30.26a15.92,15.92,0,0,1,.8-4.3c1.83-6.07,6.55-9.09,13.2-8.66,5.08.33,8.56,2.85,10,7.67A33.19,33.19,0,0,1,99.93,85c.17,9,.07,18,.08,27.06v2Z"/><path d="M48.78,85.9v28.91c0,2.8-.55,3.35-3.37,3.35q-9.39,0-18.77,0c-2.47,0-3.09-.63-3.09-3.11V56.89c0-2.59.58-3.17,3.2-3.17H45.68c2.49,0,3.1.61,3.1,3.11ZM27.7,114H44.62V57.91H27.7Z"/><path d="M48.77,36.21A12.61,12.61,0,1,1,36.2,23.57,12.7,12.7,0,0,1,48.77,36.21Zm-4.07-.13a8.54,8.54,0,1,0-8.57,8.62A8.62,8.62,0,0,0,44.7,36.08Z"/></svg>