<svg id="Layer_1" data-name="Layer 1" xmlns="http://www.w3.org/2000/svg" viewBox="0 0 141.73 141.73"><path d="M91.21,95.29a2.61,2.61,0,0,1-1.85-.77L70.89,76.06,52.42,94.52a2.62,2.62,0,0,1-3.71-3.71L70.89,68.63,93.07,90.81a2.63,2.63,0,0,1-1.86,4.48Z"/><path d="M70.89,120.69a2.62,2.62,0,0,1-2.63-2.62V72.34a2.63,2.63,0,0,1,5.26,0v45.73A2.62,2.62,0,0,1,70.89,120.69Z"/><path d="M107.12,92.76a2.62,2.62,0,0,1-1.26-4.93A19,19,0,0,0,96.8,52.21H89.32l-.51-2A31.92,31.92,0,1,0,27,66.22a32.16,32.16,0,0,0,7,13.15,2.63,2.63,0,0,1-3.94,3.47,37.34,37.34,0,0,1-8.13-15.31A37.17,37.17,0,0,1,93.33,47H96.8a24.22,24.22,0,0,1,11.57,45.48A2.64,2.64,0,0,1,107.12,92.76Z"/><path d="M91.21,95.29a2.61,2.61,0,0,1-1.85-.77L70.89,76.06,52.42,94.52a2.62,2.62,0,0,1-3.71-3.71L70.89,68.63,93.07,90.81a2.63,2.63,0,0,1-1.86,4.48Z"/></svg>