<svg id="Layer_1" data-name="Layer 1" xmlns="http://www.w3.org/2000/svg" viewBox="0 0 141.73 141.73"><path d="M119.85,46.76V95c-.06.31-.11.62-.18.93a45.06,45.06,0,0,1-1.12,5.21,26.72,26.72,0,0,1-25.68,18.71c-14.66.06-29.32,0-44,0a25.45,25.45,0,0,1-13.08-3.37c-9.1-5.33-13.81-13.34-13.87-23.9-.1-14.46,0-28.93,0-43.4a25.7,25.7,0,0,1,.5-5.41c2.44-11,9.12-18,20-21,1.43-.4,2.93-.55,4.4-.81H95c1,.16,2,.27,3,.49q16.47,3.72,21.06,20C119.44,43.79,119.58,45.29,119.85,46.76ZM114.08,71c0-7.21,0-14.41,0-21.62a23.49,23.49,0,0,0-.5-5A21,21,0,0,0,92.66,27.67q-21.79-.06-43.6,0a19.93,19.93,0,0,0-8.9,1.88c-8.21,4-12.4,10.65-12.45,19.74-.09,14.38,0,28.75,0,43.13a23.3,23.3,0,0,0,.5,4.93A20.94,20.94,0,0,0,49.05,114q21.86.08,43.7,0a20.7,20.7,0,0,0,17.42-8.92,21,21,0,0,0,3.91-12.65Z"/><path d="M97.72,70.9A26.84,26.84,0,1,1,71,44,26.88,26.88,0,0,1,97.72,70.9Zm-26.89,21a21.06,21.06,0,1,0-21-21.15A21.07,21.07,0,0,0,70.83,91.91Z"/><path d="M107.48,42.39a8.15,8.15,0,1,1-8.13-8.14A8.21,8.21,0,0,1,107.48,42.39Zm-5.78,0A2.35,2.35,0,0,0,99.3,40,2.41,2.41,0,0,0,97,42.37a2.45,2.45,0,0,0,2.37,2.39A2.4,2.4,0,0,0,101.7,42.36Z"/></svg>