<svg id="Layer_1" data-name="Layer 1" xmlns="http://www.w3.org/2000/svg" viewBox="0 0 141.73 141.73"><path d="M67.77,120.77c-3-.82-6.25-1.26-9.1-2.51-12.4-5.46-19.2-15.05-19.93-28.62-.31-5.76-.09-11.55-.07-17.32C38.7,66,43.79,62.21,49.88,64l.72.2V62.47c0-7.39,0-14.77,0-22.16A8.29,8.29,0,0,1,67,38.58a13,13,0,0,1,.21,2.79c0,2.7,0,5.4,0,8.3,5.34-1.6,9.27-.06,11.62,4.95,8.21-1.8,11.66.72,12.41,8.85a27.47,27.47,0,0,1,5-.16,7.84,7.84,0,0,1,6.79,7.76c.07,6.66.19,13.32-.08,20-.57,13.83-12,26.56-25.8,29.1l-3.18.63ZM55.28,61.29q0,10.23,0,20.45c0,1.85-.84,2.87-2.32,2.88s-2.34-1-2.35-2.85c0-3.12,0-6.24,0-9.36,0-2.56-1.41-4.17-3.6-4.19s-3.64,1.57-3.65,4.13q0,7,0,14a39.48,39.48,0,0,0,.23,5.76c2.4,15.58,15.63,25.54,31.29,23.63,12.26-1.49,22.88-12.65,23.42-24.93.29-6.44.13-12.9.11-19.34a3.59,3.59,0,0,0-3.59-3.74,3.68,3.68,0,0,0-3.63,3.72c0,1.19,0,2.4,0,3.59a2.25,2.25,0,0,1-2.38,2.18,2.28,2.28,0,0,1-2.25-2.18c0-.41,0-.83,0-1.25,0-3.74,0-7.49,0-11.23,0-2.43-1.45-4-3.57-4.08s-3.64,1.57-3.68,4.1c0,1.46,0,2.91,0,4.37,0,2.6,0,5.2,0,7.8a2.33,2.33,0,1,1-4.65-.06c0-.47,0-.93,0-1.4,0-5.15,0-10.3,0-15.45,0-2.51-1.53-4.18-3.67-4.18s-3.63,1.67-3.65,4.19c0,3.54,0,7.08,0,10.61,0,2.14,0,4.27,0,6.4A2.29,2.29,0,0,1,65,77.27a2.37,2.37,0,0,1-2.42-2.18,10.91,10.91,0,0,1,0-1.4V50.75c0-3.33,0-6.66,0-10a3.59,3.59,0,0,0-1.68-3.31,3.38,3.38,0,0,0-3.69-.11,3.73,3.73,0,0,0-1.89,3.51Q55.3,51.08,55.28,61.29Z"/><path d="M59.4,21c9,0,16.78,7.49,17.25,17,.09,1.82-.7,3-2.13,3.07S72,40.21,72,38.35a13.06,13.06,0,0,0-26.09-.41c0,.31,0,.63-.06.93a2.39,2.39,0,0,1-2.42,2.19,2.28,2.28,0,0,1-2.21-2.5A17.17,17.17,0,0,1,47.74,25,17.86,17.86,0,0,1,59.4,21Z"/></svg>