<svg id="Layer_1" data-name="Layer 1" xmlns="http://www.w3.org/2000/svg" viewBox="0 0 141.73 141.73"><path d="M118,80.3c0,7.82-.13,15.65,0,23.47.16,8.12-6.33,12.08-13.33,10-2.25-.68-4.49-1.4-6.73-2.14-1.38-.46-2.45-1.26-1.92-2.91s1.74-2,3.35-1.47q3.56,1.18,7.16,2.24a5.19,5.19,0,0,0,6.73-4.21,14,14,0,0,0,.14-2.42q0-22.82,0-45.61c0-4.64-1-6-5.4-7.3L38.74,29c-4.48-1.36-7.45.81-7.46,5.49,0,10.48,0,21,0,31.44,0,.59,0,1.19,0,1.77-.15,1.42-1.06,2.31-2.36,2a3.24,3.24,0,0,1-2-2,23.74,23.74,0,0,1-.12-4.85c0-9.45.25-18.91-.09-28.34a10.11,10.11,0,0,1,13.23-9.9c23.64,7.26,47.32,14.39,71,21.6,4.52,1.38,7.15,5.08,7.17,10C118.06,64.21,118,72.26,118,80.3Z"/><path d="M76.82,90.38q0-13,0-26.1c0-4,2.49-6.65,6.1-6.63s6,2.58,6,6.47q0,25.77,0,51.54a11.36,11.36,0,0,1-.45,2.82c-.89,3.39-3.35,4.83-7.31,4.34-2.26-.28-4.32-2.87-4.33-5.67C76.8,108.23,76.82,99.3,76.82,90.38Z"/><path d="M59.17,90.67c0-6.5,0-13,0-19.48,0-4,2.48-6.77,6-6.88,3.67-.11,6.28,2.58,6.3,6.73q.06,19,0,38.07c0,4.55-2.63,7.5-6.37,7.54-3.54,0-5.85-2.35-5.88-6.29C59.13,103.8,59.17,97.23,59.17,90.67Z"/><path d="M41.37,90.46c0-4.28,0-8.55,0-12.83,0-3.77,2.55-6.49,6-6.55s6.07,2.52,6.09,6.38q0,12.95,0,25.88a5.91,5.91,0,0,1-6.22,6.27c-3.51,0-5.85-2.51-5.88-6.32C41.34,99,41.37,94.74,41.37,90.46Z"/><path d="M23.71,90.6V83.3a5.77,5.77,0,0,1,5.64-6.08,6,6,0,0,1,6.26,5.62c.18,5.08.17,10.18,0,15.27a5.59,5.59,0,0,1-4.22,5.37c-2.47.77-4.82.34-6.38-1.76a8,8,0,0,1-1.24-4C23.57,95.33,23.71,93,23.71,90.6Z"/></svg>