<svg id="Layer_1" data-name="Layer 1" xmlns="http://www.w3.org/2000/svg" viewBox="0 0 830.3 240.9"><defs><style>.cls-1{fill:#686868;}.cls-2{fill:#818286;}.cls-3{fill:#ee1c25;}.cls-4{fill:#790102;}.cls-5{fill:#a8a9ad;}.cls-6{fill:#dcdddf;}.cls-7{fill:#9d0b0e;}</style></defs><path class="cls-1" d="M67.39,210.41Q41.44,216.13,23.93,206T1.87,173.76q-4.54-22.08,5.84-50.15L30,131.75q-7.41,19.92-5.84,33.61t11.4,19.15q9.83,5.44,26.69,1.81c.86-.11,1.73-.26,2.59-.43a22.86,22.86,0,0,0,2.41-.61q11.31-2.42,16.59-4.67t7.32-6.07q2-3.81,1.11-10.91-.93-6.06-7.6-47.65l23.17-3.46q6.3,39.67,7.41,47.64,2,14.21-1.94,23.65a32.55,32.55,0,0,1-13.44,15.25q-9.45,5.81-25.39,9.79l-3.43.69C69.83,209.77,68.62,210.06,67.39,210.41ZM55.53,127.77c-1.74-1.74-4.54-4.42-8.44-8.06s-6.76-6.26-8.61-7.88l8.61-8.06c3.9-3.64,6.7-6.32,8.44-8.06l8.61,8.06,8.62,8.06q-2.78,2.43-8.62,7.88Z"/><path class="cls-1" d="M125.87,50.49l23.54-1,4.82,119.71-23.36,1Z"/><path class="cls-1" d="M152.25,190.14c1.11-.35,2.25-.67,3.43-1s2.32-.6,3.43-1a149,149,0,0,0,18.34-5.54q5.94-2.43,8.25-6.33t1.39-10.65L179.68,116l23.17-3.29,7.41,50.07q1.85,14.2-2.5,23.39t-14.37,15q-10,5.81-27,10.48c-1.37.46-2.69.87-4,1.21s-2.62.7-4,1Z"/><path class="cls-1" d="M264,169.52q-13.33,0-21.22-3.9a24,24,0,0,1-11.58-12.39q-3.71-8.49-4.45-23l-3.33-79.7,23.35-1,3.33,80.73a7.12,7.12,0,0,0,.09,1.21,5.31,5.31,0,0,1,.1,1c0,4.05.3,6.88.92,8.49a5.18,5.18,0,0,0,3.62,3.21,37.12,37.12,0,0,0,9.17.78h1.85v24.6Z"/><path class="cls-1" d="M264,144.92h40.59a12.59,12.59,0,0,0,3.05-.35,6.48,6.48,0,0,0,2.14-.87,5.94,5.94,0,0,0,1.85-2.42,6.48,6.48,0,0,0,.37-3.12,6.15,6.15,0,0,0-1.48-3.29L269.77,80.81,275,62.28l67.09-23.05,8.34,22.87L294.05,81.51l1.86-6.24,32.43,44.87a42.45,42.45,0,0,1,6.76,14.3,30.85,30.85,0,0,1,.47,13.59,23.69,23.69,0,0,1-5.38,11.09,26.17,26.17,0,0,1-10.56,7.71,39.9,39.9,0,0,1-15.38,2.69H264Zm.56,0h.74v24.6h-.74Zm93.59,24.6a37.64,37.64,0,0,1-15.76-3.29,44.72,44.72,0,0,1-13.34-9.53,93.34,93.34,0,0,1-11.86-15.25,84.92,84.92,0,0,1-4.82-8.14l17.79-10.57q1.31,2.08,2.5,3.9c.81,1.21,1.64,2.4,2.51,3.55a52.86,52.86,0,0,0,7.69,8.92,22.89,22.89,0,0,0,7.13,4.51,23.68,23.68,0,0,0,8.16,1.3h2.59v24.6Z"/><path class="cls-1" d="M386.72,153.58a35.21,35.21,0,0,1-14.37-11.52,33.19,33.19,0,0,1-6.3-16.72,32.09,32.09,0,0,1,3.62-17.85,34.75,34.75,0,0,1,11.95-13.6,36.38,36.38,0,0,1,17-6A35.6,35.6,0,0,1,416.74,91a31.65,31.65,0,0,1,14.36,11.52A36.18,36.18,0,0,1,437.5,120a32.48,32.48,0,0,1-3.34,18q-7.05,14.55-24.37,23t-39.57,8.49h-11.3v-24.6h11.3q14.08,0,22.7-1.91t13-5.54a27.44,27.44,0,0,0,7.13-9.53,10.35,10.35,0,0,0,.37-8.15,10.82,10.82,0,0,0-5.74-6.23,14.09,14.09,0,0,0-6.3-1.56,11.54,11.54,0,0,0-5.66,1.38,9.36,9.36,0,0,0-3.79,3.82,9.82,9.82,0,0,0-1,8.31q1.38,4,6.2,6.24l39.29,18.19a12.09,12.09,0,0,0,8.62.61,10.29,10.29,0,0,0,6.4-5.11,9.18,9.18,0,0,0,.37-7.63,11.43,11.43,0,0,0-6.12-6.23l-66-31.88,10.94-21.83L456,110.09a33.26,33.26,0,0,1,13.44,11.52A34.8,34.8,0,0,1,475.4,138a30,30,0,0,1-3.25,16.8A34,34,0,0,1,460.57,168a35.39,35.39,0,0,1-33.64,2.94Z"/><path class="cls-1" d="M488.38,50.49l23.53-1,4.82,119.71-23.35,1Z"/><path class="cls-1" d="M511,190.14c1.11-.35,2.25-.67,3.43-1s2.32-.6,3.43-1a149.23,149.23,0,0,0,18.35-5.54q5.93-2.43,8.24-6.33t1.39-10.65L538.4,116l23.17-3.29L569,162.76q1.85,14.2-2.5,23.39t-14.36,15q-10,5.81-27.06,10.48c-1.37.46-2.69.87-4,1.21s-2.62.7-4,1Z"/><polygon class="cls-2" points="763.91 35.49 703.73 0.75 703.73 70.24 763.91 35.49"/><polygon class="cls-3" points="763.71 104.51 703.52 69.76 703.52 139.25 763.71 104.51"/><polygon class="cls-4" points="703.73 70.07 763.91 104.82 763.91 35.33 703.73 70.07"/><polygon class="cls-5" points="763.48 173.86 703.51 139.24 703.51 208.49 763.48 173.86"/><polygon class="cls-6" points="703.51 208.49 763.48 243.11 763.48 173.86 703.51 208.49"/><polygon class="cls-7" points="643.34 104.5 703.52 139.25 703.52 69.76 643.34 104.5"/><polygon class="cls-4" points="703.52 139.25 643.55 104.63 643.55 173.88 703.52 139.25"/><polygon class="cls-2" points="643.55 173.88 703.52 208.5 703.52 139.25 643.55 173.88"/></svg>