<svg id="Layer_1" data-name="Layer 1" xmlns="http://www.w3.org/2000/svg" viewBox="0 0 830.3 240.9"><defs><style>.cls-1{fill:none;}.cls-2{fill:#d32e2f;}.cls-2,.cls-3{fill-rule:evenodd;}.cls-3{fill:#686868;}</style></defs><path class="cls-1" d="M650.39,129.39a14,14,0,0,0-1.21.89q-22,22-44,44c-.68.68-1.71,1.33-1.85,2.12s.72,1.61,1.13,2.43c.21.43.41.86.65,1.27a127.06,127.06,0,0,0,11.52,16.7,112.55,112.55,0,0,0,16.21,16.38A123,123,0,0,0,672,234.78a139.83,139.83,0,0,0,18.24,4.47c3,.56,6.18.8,9.31,1.08a110.32,110.32,0,0,0,24.9-.45,126.87,126.87,0,0,0,17.73-3.59,120.5,120.5,0,0,0,79-70.75,107.59,107.59,0,0,0,7.34-27.4c.6-4.83,1.13-9.72,1.3-14.57.15-4.29-.17-8.57-.43-12.85a108.32,108.32,0,0,0-3.08-18.79,121.75,121.75,0,0,0-9.38-25.28A128.14,128.14,0,0,0,796.7,37.78a78.34,78.34,0,0,0-7.87-7.46,127.24,127.24,0,0,0-31-19.53,111,111,0,0,0-27-8.2c-5.44-.87-10.94-1.28-16.41-1.78a46.26,46.26,0,0,0-6.23-.17c-2.62.07-5.24.38-7.84.53A109.67,109.67,0,0,0,676,5.5,115.34,115.34,0,0,0,642.83,21q-38.61,26.34-50,71.74a92.16,92.16,0,0,0-3,21.6c-.05,5.8-.1,11.62.28,17.39.32,4.57,1.28,9.1,2,13.64.36,2.17,1,4.31,1.52,6.64.5-.48.79-.74,1.08-1Q630,115.8,665.23,80.6c1.88-1.88,3.75-3.73,5.8-5.44a59.48,59.48,0,0,1,30.26-13.61,57.76,57.76,0,0,1,28.94,3,59.61,59.61,0,0,1,39.16,51.58A56.2,56.2,0,0,1,766.48,140C760,158,747.81,170.5,729.75,177.19a56.74,56.74,0,0,1-16.14,3.32,57.84,57.84,0,0,1-34.69-8.45C662.87,162.32,653.56,148,650.39,129.39Z"/><path class="cls-1" d="M216.74,84.12V86c0,10.58,0,21.19,0,31.77a50.84,50.84,0,0,1-.43,6.51c-1,7.63-5,11.55-12.77,11.7-9.12.21-18.23.15-27.35.06a51.44,51.44,0,0,1-8.15-.73c-4.23-.67-8.15-2.1-10.88-5.68A16.8,16.8,0,0,1,154,119.2c0-9.73,0-19.46,0-29.18V88.31H126.6v29.4a42.4,42.4,0,0,1-.21,4.38c-.73,6.2-3.8,10.67-10,12.37a37,37,0,0,1-9.09,1.43c-9.67.21-19.36.12-29,.15-.46,0-.88-.06-1.49-.09v-1.7c0-4.2,0-8.42,0-12.62a57.36,57.36,0,0,0-2.13-15.75C71,93.54,63.44,85,50.67,81.72a51.4,51.4,0,0,0-22.28-.67c-13,2.31-22.1,9.48-26.45,22.07C-2.14,114.94-2.14,127,1,139c4,15,13.89,23.35,29.39,24.62,5.69.46,11.43.22,17.15.28h1.76c0,7.63-3.5,14-8.57,17.45s-10.82,4.77-16.78,5.1c-6.87.37-13.77.25-20.64.37H1.73v27.69c.33,0,.57.09.85.09,5.41,0,10.85.06,16.26,0a83.11,83.11,0,0,0,19.55-2.34C59,207,71.7,194.22,75.53,173.07c.55-3,.86-6,1.28-9.12h1.83c10.67-.09,21.37.06,32-.37a44.14,44.14,0,0,0,22.76-7.14c2.56-1.67,4.93-3.68,7.18-5.41,2.7,2,5.32,4.19,8.18,6,7.47,4.62,15.77,6.56,24.44,6.81,9.82.27,19.67.15,29.48.09a65.76,65.76,0,0,0,9.09-.58c11.86-1.64,20.74-7.66,26.18-18.42,4.13-8.15,5.41-16.94,5.5-25.9.12-11,0-22.1,0-33.14,0-.55-.06-1.09-.09-1.7C234.55,84.12,225.8,84.12,216.74,84.12Z"/><path class="cls-1" d="M460.54,156.68c2.77,1.58,5.2,3.22,7.84,4.47,8.64,4,17.79,5,27.15,3.71,12.8-1.73,22-8.33,27.14-20.34a56.62,56.62,0,0,0,4.08-18.72c.58-8.7.06-17.3-2.56-25.69C521,89.8,515,81.78,504.8,77.52c-6.87-2.86-14.07-3.43-21.46-2.92-19.64,1.4-30,14.93-32.92,29-1.95,9.37-2.16,18.88-2.22,28.43,0,2.92-.92,3.95-3.89,4-3.86.12-7.7.21-11.56.06a61.69,61.69,0,0,1-9.78-1c-5.87-1.19-10.22-4.38-11.77-10.46a23.25,23.25,0,0,1-.7-5.41c-.06-9.73,0-19.46,0-29.18V88.41H383.11v1.85c0,9.73,0,19.46,0,29.18,0,3.86-.76,7.57-3.25,10.7-3.07,3.86-7.45,5.32-12,5.57-8,.42-16,.39-24,.45a52.65,52.65,0,0,1-6.51-.39c-6.44-.79-9.91-3.8-10.88-9.4a19,19,0,0,1-.25-3.46c0-9.49,0-18.94,0-28.42V92.81H298.79V95q0,33,0,66a40.81,40.81,0,0,1-.42,6.35c-1.19,7.84-5.26,13.56-12.74,16.63a40.46,40.46,0,0,1-13.89,2.92c-6.17.21-12.34.18-18.54.27H251.3V214.8c.52,0,1,.07,1.43.07,5.17,0,10.34.06,15.5,0,9.15-.1,18.18-1.19,26.85-4.32,11.58-4.2,20.55-11.37,25.93-22.65a54.49,54.49,0,0,0,4.92-19.45c.21-2.65.28-5.29.43-8.09a12.23,12.23,0,0,0,1.79.76c3.47.91,6.9,2.34,10.4,2.55,10.52.64,21.06.92,31.55-.27,10-1.12,18.88-4.8,26.24-11.79.27-.28.6-.49.94-.8,6.75,6.84,15,10.49,24.2,12.19,6.47,1.22,13,1.07,19.54,1a39.76,39.76,0,0,0,6.78-.76A26.46,26.46,0,0,0,460.54,156.68Z"/><path class="cls-1" d="M745.79,121.06a36,36,0,0,0-36.3-36.32,34.42,34.42,0,0,0-25,10.32,35.09,35.09,0,0,0-10.85,28.19,36.11,36.11,0,0,0,72.14-2.19Z"/><path class="cls-1" d="M143.57,67.61a15,15,0,1,0-15-15A14.9,14.9,0,0,0,143.57,67.61Z"/><path class="cls-1" d="M226.34,213.53a15,15,0,1,0-14.92-15.9A15,15,0,0,0,226.34,213.53Z"/><path class="cls-1" d="M408.4,198.48a15,15,0,1,0-14.92,15.05A14.85,14.85,0,0,0,408.4,198.48Z"/><path class="cls-1" d="M359.86,213.53A15,15,0,1,0,345,198.36,15,15,0,0,0,359.86,213.53Z"/><path class="cls-1" d="M109.92,67.61A15,15,0,1,0,95,52.32,15,15,0,0,0,109.92,67.61Z"/><path class="cls-1" d="M308,69.13a15,15,0,0,0,.51-30.06,15,15,0,0,0-15.35,14.22C292.68,62,299.7,69.25,308,69.13Z"/><path class="cls-1" d="M178,198.36a14.94,14.94,0,1,0,29.88.06,14.94,14.94,0,0,0-29.88-.06Z"/><path class="cls-2" d="M650.39,129.39c3.15,18.59,12.48,32.93,28.43,42.7a59.78,59.78,0,0,0,50.83,5.12c18.07-6.69,30.29-19.15,36.74-37.24a56.36,56.36,0,0,0,2.91-23.79A59.68,59.68,0,0,0,730.13,64.6a58.15,58.15,0,0,0-28.94-3,59.74,59.74,0,0,0-30.26,13.62c-2,1.71-3.92,3.56-5.8,5.43Q629.88,115.81,594.67,151c-.29.29-.58.56-1.08,1-.55-2.34-1.16-4.48-1.52-6.64a137.22,137.22,0,0,1-2-13.64c-.41-5.78-.36-11.6-.29-17.39a93.85,93.85,0,0,1,3-21.61q11.37-45.31,50-71.73A114.79,114.79,0,0,1,675.86,5.52a109.49,109.49,0,0,1,24.4-4.33c2.62-.14,5.22-.46,7.84-.53a49.86,49.86,0,0,1,6.23.17c5.48.53,11,.91,16.4,1.78a110.83,110.83,0,0,1,27,8.2,127.58,127.58,0,0,1,31,19.54,78.37,78.37,0,0,1,7.87,7.45,128.49,128.49,0,0,1,20.16,28.87A120.65,120.65,0,0,1,826.14,92a107.72,107.72,0,0,1,3.08,18.78c.27,4.29.58,8.57.43,12.85-.16,4.86-.69,9.74-1.29,14.58a108.45,108.45,0,0,1-7.34,27.4,119.54,119.54,0,0,1-29.71,43.08A118.39,118.39,0,0,1,742,236.32a134.15,134.15,0,0,1-17.73,3.58,112.05,112.05,0,0,1-24.9.46c-3.1-.29-6.23-.53-9.31-1.08a140.92,140.92,0,0,1-18.23-4.48,122.9,122.9,0,0,1-39.09-21.62,112.2,112.2,0,0,1-16.22-16.39A128.91,128.91,0,0,1,605,180.1c-.24-.41-.43-.87-.65-1.28-.41-.82-1.25-1.71-1.13-2.43s1.18-1.44,1.85-2.11q22-22,44-44C649.54,129.94,650,129.7,650.39,129.39Z"/><path class="cls-3" d="M216.74,84.12h26.69c0,.61.09,1.15.09,1.7,0,11,.09,22.1,0,33.14-.09,9-1.4,17.75-5.5,25.9-5.44,10.76-14.32,16.78-26.18,18.42a70.78,70.78,0,0,1-9.09.58c-9.81.06-19.66.15-29.48-.1-8.67-.24-17-2.18-24.44-6.8-2.86-1.77-5.48-4-8.18-6-2.28,1.73-4.62,3.74-7.18,5.41a44.42,44.42,0,0,1-22.76,7.14c-10.67.43-21.37.28-32,.37H76.81c-.42,3.13-.73,6.14-1.28,9.12C71.7,194.19,59,207,38.39,212.25a83.11,83.11,0,0,1-19.55,2.34c-5.41.06-10.85,0-16.26,0-.25,0-.49-.06-.85-.09V186.81H3.34c6.87-.09,13.77,0,20.64-.37,6-.3,11.7-1.64,16.78-5.1s8.57-9.82,8.57-17.45H47.57c-5.72-.06-11.46.18-17.15-.28C14.89,162.34,5,154.07,1,139c-3.17-12-3.17-24.08.91-35.9C6.29,90.53,15.37,83.33,28.39,81a51.87,51.87,0,0,1,22.28.67C63.41,85,71,93.54,74.59,106a57.24,57.24,0,0,1,2.13,15.74c0,4.2,0,8.42,0,12.62V136c.61,0,1.06.09,1.49.09,9.67,0,19.36.06,29-.15a38.53,38.53,0,0,0,9.09-1.43c6.2-1.7,9.24-6.17,10-12.37a35.68,35.68,0,0,0,.21-4.38c0-9.18,0-18.33,0-27.51V88.37H153.9v1.71c0,9.73,0,19.45,0,29.18a16.85,16.85,0,0,0,3.16,10.43c2.74,3.58,6.66,5,10.89,5.68a55.59,55.59,0,0,0,8.14.73c9.12.06,18.24.12,27.36-.06,7.73-.18,11.83-4.07,12.77-11.7a50.84,50.84,0,0,0,.43-6.51c0-10.58,0-21.19,0-31.77C216.74,85.43,216.74,84.82,216.74,84.12ZM50.42,136c0-4,.1-7.81,0-11.58a63.38,63.38,0,0,0-.69-8.6c-1-5.35-4-8.39-9.28-8.91a31.41,31.41,0,0,0-8.42.48,8.93,8.93,0,0,0-7.35,7,28.54,28.54,0,0,0-.09,14.68c1,3.83,3.43,6.23,7.5,6.69.92.09,1.83.21,2.71.21Z"/><path class="cls-3" d="M460.54,156.68a25.24,25.24,0,0,1-12.71,6.42,39.43,39.43,0,0,1-6.78.76c-6.53.09-13.07.21-19.54-1-9.24-1.7-17.48-5.38-24.2-12.19-.34.28-.67.52-.94.79-7.36,7-16.3,10.67-26.24,11.8-10.49,1.18-21,.88-31.55.27-3.5-.21-6.93-1.64-10.4-2.55a13.78,13.78,0,0,1-1.79-.76c-.15,2.8-.22,5.44-.43,8.08A54.86,54.86,0,0,1,321,187.78c-5.38,11.28-14.35,18.48-25.93,22.65-8.67,3.13-17.7,4.22-26.85,4.31-5.16.06-10.33,0-15.5,0-.45,0-.88,0-1.43-.06V187h1.86c6.17-.06,12.37,0,18.54-.27a40.84,40.84,0,0,0,13.89-2.92c7.48-3.07,11.55-8.76,12.74-16.63a45,45,0,0,0,.43-6.35q0-33,0-66V92.69h27.39v30.1a19,19,0,0,0,.24,3.46c1,5.6,4.47,8.61,10.88,9.4a47.4,47.4,0,0,0,6.51.39c8-.06,16,0,24-.46,4.59-.24,9-1.7,12-5.56,2.49-3.13,3.22-6.84,3.25-10.7.06-9.73,0-19.45,0-29.18V88.28H410.5v1.65c0,9.72,0,19.45,0,29.18a22.12,22.12,0,0,0,.7,5.41c1.55,6.08,5.9,9.3,11.77,10.46a61.32,61.32,0,0,0,9.78,1c3.83.15,7.7,0,11.56-.06,3-.09,3.86-1.09,3.89-4,.06-9.52.27-19,2.22-28.43,2.94-14.1,13.28-27.63,32.92-29,7.39-.51,14.59.06,21.46,2.92C515,81.66,521,89.68,524.22,100c2.62,8.36,3.11,17,2.56,25.68a56.46,56.46,0,0,1-4.08,18.73c-5.1,12-14.34,18.64-27.14,20.34-9.36,1.24-18.51.36-27.15-3.71A78,78,0,0,1,460.54,156.68Zm40.4-36.78c-.46-3.65-.7-7-1.37-10.25s-2.16-6.2-5.38-7.84c-7.87-4-16.29-.12-18.33,8.39-1.25,5.14-1.16,10.34-.82,15.54.06.69.18,1.39.3,2.09,1.52,7.63,5.48,10.79,13.38,10.7,5.44-.06,9.24-2.73,10.55-8A99.83,99.83,0,0,0,500.94,119.9Z"/><path class="cls-2" d="M745.79,121.06a36.1,36.1,0,0,1-72.12,2.22,35,35,0,0,1,10.85-28.2,34.43,34.43,0,0,1,25-10.32A36,36,0,0,1,745.79,121.06Z"/><path class="cls-3" d="M143.57,67.61a15,15,0,1,1,15-15.08A14.92,14.92,0,0,1,143.57,67.61Z"/><path class="cls-3" d="M226.34,213.53a15,15,0,1,1,15-15A15,15,0,0,1,226.34,213.53Z"/><path class="cls-3" d="M408.4,198.48a15,15,0,1,1-15-15A14.8,14.8,0,0,1,408.4,198.48Z"/><path class="cls-3" d="M359.86,213.53a15,15,0,1,1,15.08-14.78A14.92,14.92,0,0,1,359.86,213.53Z"/><path class="cls-3" d="M109.92,67.61a15,15,0,1,1,.39-30.06,15,15,0,0,1-.39,30.06Z"/><path class="cls-3" d="M308,69.13c-8.24.12-15.26-7.14-14.84-15.81A15,15,0,1,1,308,69.13Z"/><path class="cls-3" d="M178,198.36a14.93,14.93,0,1,1,14.92,15.17A14.78,14.78,0,0,1,178,198.36Z"/><path class="cls-1" d="M50.42,136H34.77a20.34,20.34,0,0,1-2.71-.21c-4.07-.46-6.53-2.86-7.5-6.69a28.87,28.87,0,0,1,.09-14.68,8.93,8.93,0,0,1,7.35-7,31.41,31.41,0,0,1,8.42-.48c5.29.55,8.33,3.56,9.28,8.91a63,63,0,0,1,.69,8.6C50.52,128.2,50.42,132,50.42,136Z"/><path class="cls-1" d="M500.94,119.9c-.52,3.37-.79,7.08-1.64,10.64-1.31,5.29-5.08,8-10.55,8-7.9.1-11.86-3.07-13.38-10.7a12.53,12.53,0,0,1-.3-2.09,50.06,50.06,0,0,1,.82-15.54c2-8.51,10.46-12.37,18.33-8.39,3.25,1.64,4.71,4.56,5.38,7.84S500.48,116.22,500.94,119.9Z"/></svg>