<svg id="Layer_1" data-name="Layer 1" xmlns="http://www.w3.org/2000/svg" xmlns:xlink="http://www.w3.org/1999/xlink" viewBox="0 0 830.3 240.9"><defs><style>.cls-1{fill:none;}.cls-2{fill:#183c6c;}.cls-3{fill:#646363;}.cls-4{clip-path:url(#clip-path);}.cls-5{fill:#a8182f;}.cls-6{fill:#fff;}</style><clipPath id="clip-path"><path class="cls-1" d="M681.85,197.55a25.13,25.13,0,1,0-25.13,25.13,25.13,25.13,0,0,0,25.13-25.13"/></clipPath></defs><path class="cls-2" d="M733.67,140.86H652a20.56,20.56,0,0,1,0-41.12h81.72a20.42,20.42,0,1,0,0-40.84H652a20.56,20.56,0,1,1,0-41.11h81.72a61.54,61.54,0,1,1,0,123.07"/><path class="cls-3" d="M76.34,99.64v15.91a15.11,15.11,0,0,0,4.54,11,14.8,14.8,0,0,0,10.94,4.62H196.36a8.92,8.92,0,0,0,6.75-2.77,9.62,9.62,0,0,0,2.62-6.89V99.64h20.45v24.85a6.6,6.6,0,0,0,1.85,4.76,6.21,6.21,0,0,0,4.68,1.92h6a1.26,1.26,0,0,1,1.42,1.42v18.6a1.26,1.26,0,0,1-1.42,1.42h-6q-10.94,0-17.46-7.81a25.14,25.14,0,0,1-18.89,7.81H91.82a35,35,0,0,1-18-4.83,36,36,0,0,1-13.06-13.06,35,35,0,0,1-4.83-18v-17Zm40.05-18.31h18.18V99.64H116.39Zm25.56,0h18.18V99.64H142Z"/><path class="cls-3" d="M237.26,151.19v-18.6a1.25,1.25,0,0,1,1.42-1.42h19.17a1.26,1.26,0,0,1,1.42,1.42v18.6a1.26,1.26,0,0,1-1.42,1.42H238.68A1.25,1.25,0,0,1,237.26,151.19Z"/><path class="cls-3" d="M256.43,151.19v-18.6a1.25,1.25,0,0,1,1.42-1.42h15.33a6.18,6.18,0,0,0,4.62-2,6.57,6.57,0,0,0,1.91-4.69V95.38H300v30.39A26.9,26.9,0,0,1,286.81,149a26,26,0,0,1-13.49,3.62H257.85A1.25,1.25,0,0,1,256.43,151.19ZM258,164.82h18.17V183H258Zm25.56,0h18.32V183H283.55Z"/><path class="cls-3" d="M325,149a26.92,26.92,0,0,1-13.2-23.22V56.9h20.44v67.59a6.6,6.6,0,0,0,1.85,4.76,6,6,0,0,0,4.54,1.92h7.81a1.25,1.25,0,0,1,1.42,1.42v18.6a1.25,1.25,0,0,1-1.42,1.42H338.5A26,26,0,0,1,325,149Z"/><path class="cls-3" d="M345,151.19v-18.6a1.26,1.26,0,0,1,1.42-1.42h19.17a1.25,1.25,0,0,1,1.42,1.42v18.6a1.25,1.25,0,0,1-1.42,1.42H346.45A1.26,1.26,0,0,1,345,151.19Z"/><path class="cls-3" d="M364.2,151.19v-18.6a1.26,1.26,0,0,1,1.42-1.42h19.17a1.25,1.25,0,0,1,1.42,1.42v18.6a1.25,1.25,0,0,1-1.42,1.42H365.62A1.26,1.26,0,0,1,364.2,151.19Z"/><path class="cls-3" d="M383.37,151.19v-18.6a1.26,1.26,0,0,1,1.42-1.42H404a1.25,1.25,0,0,1,1.42,1.42v18.6a1.25,1.25,0,0,1-1.42,1.42H384.79A1.26,1.26,0,0,1,383.37,151.19Z"/><path class="cls-3" d="M402.54,151.19v-18.6a1.25,1.25,0,0,1,1.42-1.42h19.17a1.25,1.25,0,0,1,1.42,1.42v18.6a1.25,1.25,0,0,1-1.42,1.42H404A1.25,1.25,0,0,1,402.54,151.19Z"/><path class="cls-3" d="M421.71,151.19v-18.6a1.25,1.25,0,0,1,1.42-1.42H442.3a1.26,1.26,0,0,1,1.42,1.42v18.6a1.26,1.26,0,0,1-1.42,1.42H423.13A1.25,1.25,0,0,1,421.71,151.19Z"/><path class="cls-3" d="M540.7,95.38v57.23H515.14a20.53,20.53,0,0,1-16.47-7.38q-6.1,7.67-16.9,7.66T465,145.37q-6.11,7.24-16.76,7.24h-6a1.25,1.25,0,0,1-1.42-1.42v-18.6a1.25,1.25,0,0,1,1.42-1.42h6a6.56,6.56,0,0,0,6.68-6.68V99.64h20.3v25.14a6.57,6.57,0,0,0,1.85,4.75,6.68,6.68,0,0,0,9.37,0,6.57,6.57,0,0,0,1.85-4.75V99.64h20.44v24.85a6.6,6.6,0,0,0,1.85,4.76,6,6,0,0,0,4.54,1.92h5.12V95.38Z"/><g class="cls-4"><path class="cls-5" d="M681.89,197.55a25.13,25.13,0,1,0-25.13,25.13,25.13,25.13,0,0,0,25.13-25.13"/><path class="cls-6" d="M639.27,193l.12-.36a3.35,3.35,0,0,1,3.17-2.46c1.36,0,2.73,0,4.09,0h28.91a.65.65,0,0,1,.09,1.28,2.69,2.69,0,0,1-.57,0H642.92a2.33,2.33,0,0,0-1.56.45,1.8,1.8,0,0,0-.75,1.35c0,1.44,0,2.89,0,4.36h42.31l0-.38v-3.6a2.06,2.06,0,0,0-2.18-2.18h-2c-.52,0-.81-.24-.82-.65s.28-.66.84-.66c.75,0,1.49,0,2.24,0a3.36,3.36,0,0,1,3.25,3.24c0,.28,0,.55,0,.83q0,13.34,0,26.67a3.37,3.37,0,0,1-2.68,3.48,3.05,3.05,0,0,1-.74.08H675a.65.65,0,0,1-.06-1.28,3.08,3.08,0,0,1,.53,0h5.18a2.07,2.07,0,0,0,2.26-2.27V199H640.58v1.18c0,1.15,0,2.31,0,3.47,0,.37,0,.71-.44.86s-.65-.09-.88-.37Z"/><path class="cls-6" d="M652.38,195.75a1.22,1.22,0,1,1,1.2-1.24A1.24,1.24,0,0,1,652.38,195.75Z"/><path class="cls-6" d="M649.82,194.52a1.22,1.22,0,1,1-2.43,0,1.22,1.22,0,1,1,2.43,0Z"/><path class="cls-6" d="M643.65,194.53a1.21,1.21,0,1,1,1.18,1.22A1.21,1.21,0,0,1,643.65,194.53Z"/><path class="cls-6" d="M640.6,218v-5.11a3.11,3.11,0,0,1,0-.33V198.92c0-.15,0-.32,0-.44s-.23-.46-.4-.52a1.45,1.45,0,0,0-.69.11c-.08,0-.14.13-.21.2V217c.28,1.08.8.91,1.51,1.36Z"/><path class="cls-6" d="M664.88,216.13l-1.49-1.43,0,0c-.28-.2-.52-.45-.81-.7l2.19-2.19a1,1,0,0,0-.38-1.78q-5.73-2.14-11.47-4.25a1.27,1.27,0,0,0-.84,0,1.09,1.09,0,0,0-.55,1.54l2.58,6.95c.07.16.12.34.2.56l.55,1.5a.9.9,0,0,1,.11.22c.22.67.48,1.32.73,2,.39,1,1.16,1.19,1.94.41l2-2,.29.27,1.93,1.93a1.07,1.07,0,0,0,1.57.09c.51-.48,1-1,1.49-1.49a1.11,1.11,0,0,0,.2-1.27A2,2,0,0,0,664.88,216.13ZM662.61,218l-2.31-2.31c-.53-.53-.79-.53-1.32,0l-2.05,2-.13.05c-1.31-3.52-2.62-7-4-10.65l10.71,4-2.17,2.17c-.5.5-.5.79,0,1.29.78.79,1.57,1.57,2.35,2.35Z"/></g></svg>