<svg id="Layer_1" data-name="Layer 1" xmlns="http://www.w3.org/2000/svg" xmlns:xlink="http://www.w3.org/1999/xlink" viewBox="0 0 830.3 240.9"><defs><style>.cls-1{fill:none;}.cls-2{fill:#183c6c;}.cls-3{fill:#646363;}.cls-4{clip-path:url(#clip-path);}.cls-5{fill:#a8182f;}.cls-6{fill:#fff;}</style><clipPath id="clip-path"><path class="cls-1" d="M681.85,197.55a25.13,25.13,0,1,0-25.13,25.13,25.13,25.13,0,0,0,25.13-25.13"/></clipPath></defs><path class="cls-2" d="M733.67,140.86H652a20.56,20.56,0,0,1,0-41.12h81.72a20.42,20.42,0,1,0,0-40.84H652a20.56,20.56,0,1,1,0-41.11h81.72a61.54,61.54,0,1,1,0,123.07"/><path class="cls-3" d="M30,164.79A46.2,46.2,0,0,1,13.33,148.1a44.38,44.38,0,0,1-6.17-22.86V98.68H27.6V124.1A24.59,24.59,0,0,0,31,136.74,25.37,25.37,0,0,0,40.24,146a24.62,24.62,0,0,0,12.64,3.41A25.56,25.56,0,0,0,75,136.74a24.59,24.59,0,0,0,3.41-12.64V93H98.89v32.24a44.29,44.29,0,0,1-6.18,22.86A46.06,46.06,0,0,1,76,164.79,45.06,45.06,0,0,1,52.88,171,44.35,44.35,0,0,1,30,164.79Zm13.35-85H61.68V98H43.37Z"/><path class="cls-3" d="M178.27,126v18.6a1.26,1.26,0,0,1-1.42,1.42h-6.39a35.73,35.73,0,0,1-5.76,16.47,43.65,43.65,0,0,1-13.2,12,184.25,184.25,0,0,1-23.93,11.86l-6.39-18q12.65-5.38,18.82-8.8t8.45-6.39a11.4,11.4,0,0,0,2.27-7.1h-9.23a32.4,32.4,0,0,1-15.62-3.83,29.62,29.62,0,0,1-11.29-10.58,28,28,0,0,1-4.19-15.13,30.12,30.12,0,0,1,4.19-15.62,31.38,31.38,0,0,1,11.29-11.28,30.1,30.1,0,0,1,15.62-4.19,28.11,28.11,0,0,1,15,4.19,29.46,29.46,0,0,1,10.65,11.28A32.31,32.31,0,0,1,171,116.43v8.1h5.83A1.26,1.26,0,0,1,178.27,126Zm-27.55-9.66a9.38,9.38,0,0,0-2.63-6.81,8.82,8.82,0,0,0-6.6-2.7,9.48,9.48,0,0,0-6.89,2.7,9.77,9.77,0,0,0,0,13.63,9.48,9.48,0,0,0,6.89,2.7h9.23Z"/><path class="cls-3" d="M176.84,124.53h9.23a6.22,6.22,0,0,0,4.69-1.92,6.6,6.6,0,0,0,1.85-4.76V93h20.44v24.85a6.6,6.6,0,0,0,1.85,4.76,6.22,6.22,0,0,0,4.69,1.92h9.23a1.26,1.26,0,0,1,1.42,1.42v18.6a1.26,1.26,0,0,1-1.42,1.42h-9.23q-10.51,0-16.76-7a22,22,0,0,1-16.76,7h-9.23a1.26,1.26,0,0,1-1.42-1.42V126A1.26,1.26,0,0,1,176.84,124.53Zm4,33.65H199v18.18H180.82Zm25.56,0H224.7v18.18H206.38Z"/><path class="cls-3" d="M327.22,88.74V146H301.66q-10.21,0-16.47-7.38-6.1,7.66-16.9,7.67t-16.75-7.53Q245.42,146,234.78,146h-6a1.25,1.25,0,0,1-1.42-1.42V126a1.25,1.25,0,0,1,1.42-1.42h6a6.54,6.54,0,0,0,6.67-6.68V93h20.31v25.14a6.57,6.57,0,0,0,1.85,4.76,6.7,6.7,0,0,0,9.37,0,6.6,6.6,0,0,0,1.84-4.76V93h20.45v24.85a6.6,6.6,0,0,0,1.85,4.76,6,6,0,0,0,4.54,1.92h5.11V88.74Z"/><path class="cls-3" d="M338.16,50.26H358.6V146H338.16Z"/><path class="cls-3" d="M400.14,159.46q6.18-3.41,8.45-6.39a11.4,11.4,0,0,0,2.27-7.1h-9.23A32.4,32.4,0,0,1,386,142.14a29.62,29.62,0,0,1-11.29-10.58,28.13,28.13,0,0,1-4.19-15.13,30.22,30.22,0,0,1,4.19-15.62A31.38,31.38,0,0,1,386,89.53a30.1,30.1,0,0,1,15.62-4.19,28.11,28.11,0,0,1,15.05,4.19,29.32,29.32,0,0,1,10.65,11.28,32.32,32.32,0,0,1,3.84,15.62v20.74q0,13.2-4.05,21.37t-13.07,14.2q-9,6-26.34,13.56l-6.39-18Q394,162.88,400.14,159.46Zm10.72-43.17a9.38,9.38,0,0,0-2.63-6.81,8.82,8.82,0,0,0-6.6-2.7,9.48,9.48,0,0,0-6.89,2.7,9.77,9.77,0,0,0,0,13.63,9.48,9.48,0,0,0,6.89,2.7h9.23Z"/><path class="cls-3" d="M443.3,161.17a22.05,22.05,0,0,0,4.34-8.67,59.38,59.38,0,0,0,1-12.35V93h20.31v47.15q0,11.5-2.21,18.89a36.4,36.4,0,0,1-7.45,13.48A99,99,0,0,1,443.8,186.3l-11.36-14.91A66.93,66.93,0,0,0,443.3,161.17Z"/><path class="cls-3" d="M480.79,161.17a22,22,0,0,0,4.33-8.67,59.26,59.26,0,0,0,1-12.35V93h20.3v47.15q0,11.5-2.2,18.89a36.55,36.55,0,0,1-7.45,13.48,100,100,0,0,1-15.48,13.78l-11.36-14.91A66.93,66.93,0,0,0,480.79,161.17Zm6.46-98.55h18.18V80.93H487.25Z"/><path class="cls-3" d="M518.71,161.17A22.16,22.16,0,0,0,523,152.5a59.38,59.38,0,0,0,1-12.35V93h20.31v47.15q0,11.5-2.21,18.89a36.4,36.4,0,0,1-7.45,13.48A99,99,0,0,1,519.2,186.3l-11.36-14.91A67.51,67.51,0,0,0,518.71,161.17Z"/><g class="cls-4"><path class="cls-5" d="M681.85,197.55a25.13,25.13,0,1,0-25.13,25.13,25.13,25.13,0,0,0,25.13-25.13"/><path class="cls-6" d="M655.83,229.17a24.86,24.86,0,0,1-3.46-.95,11.87,11.87,0,0,1-7.57-10.88c-.11-2.18,0-4.38,0-6.57a3.13,3.13,0,0,1,4.25-3.15l.28.07V207c0-2.81,0-5.61,0-8.42a3.15,3.15,0,0,1,6.22-.65,4.65,4.65,0,0,1,.08,1.06c0,1,0,2.05,0,3.15A3.31,3.31,0,0,1,660,204c3.12-.68,4.43.27,4.71,3.36a11.22,11.22,0,0,1,1.91-.06,3,3,0,0,1,2.58,2.95c0,2.53.07,5.06,0,7.59a12.22,12.22,0,0,1-9.8,11.05l-1.21.24Zm-4.74-22.59v7.76c0,.71-.32,1.09-.88,1.1s-.9-.39-.9-1.08V210.8c0-1-.54-1.59-1.37-1.59s-1.38.59-1.38,1.56c0,1.78,0,3.56,0,5.34a14.54,14.54,0,0,0,.08,2.19,10.46,10.46,0,0,0,20.79-.49c.11-2.45.05-4.9,0-7.35a1.35,1.35,0,0,0-1.36-1.42,1.4,1.4,0,0,0-1.38,1.41c0,.45,0,.91,0,1.36a.88.88,0,0,1-1.76,0c0-.15,0-.31,0-.47,0-1.42,0-2.85,0-4.27a1.39,1.39,0,1,0-2.75,0c0,.55,0,1.11,0,1.66,0,1,0,2,0,3a.89.89,0,1,1-1.77,0v-.53c0-2,0-3.92,0-5.87a1.4,1.4,0,1,0-2.78,0c0,1.35,0,2.69,0,4,0,.81,0,1.63,0,2.43a.87.87,0,0,1-.83.91.91.91,0,0,1-.92-.83,4.87,4.87,0,0,1,0-.54c0-2.9,0-5.81,0-8.71,0-1.27,0-2.53,0-3.8a1.36,1.36,0,0,0-.64-1.25,1.27,1.27,0,0,0-1.4-.05,1.43,1.43,0,0,0-.72,1.34Z"/><path class="cls-6" d="M652.65,191.25a6.75,6.75,0,0,1,6.56,6.47c0,.69-.27,1.12-.81,1.16s-.95-.32-1-1a5,5,0,0,0-3.78-4.67,5,5,0,0,0-6.14,4.51,2.17,2.17,0,0,1,0,.36.91.91,0,0,1-.91.83.88.88,0,0,1-.85-.95,6.56,6.56,0,0,1,2.48-5.16A6.81,6.81,0,0,1,652.65,191.25Z"/></g></svg>