<svg id="Layer_1" data-name="Layer 1" xmlns="http://www.w3.org/2000/svg" xmlns:xlink="http://www.w3.org/1999/xlink" viewBox="0 0 830.3 240.9"><defs><style>.cls-1{fill:none;}.cls-2{fill:#183c6c;}.cls-3{fill:#646363;}.cls-4{clip-path:url(#clip-path);}.cls-5{fill:#a8182f;}.cls-6{fill:#fff;}</style><clipPath id="clip-path"><path class="cls-1" d="M681.85,197.55a25.13,25.13,0,1,0-25.13,25.13,25.13,25.13,0,0,0,25.13-25.13"/></clipPath></defs><path class="cls-2" d="M733.67,140.86H652a20.56,20.56,0,0,1,0-41.12h81.72a20.42,20.42,0,1,0,0-40.84H652a20.56,20.56,0,1,1,0-41.11h81.72a61.54,61.54,0,1,1,0,123.07"/><path class="cls-3" d="M108.91,132.6v18.61a1.26,1.26,0,0,1-1.42,1.42h-6.11a17.73,17.73,0,0,1-10.79-3.13,45.22,45.22,0,0,1-16.54,20.38,43.82,43.82,0,0,1-25.35,7.74,44.32,44.32,0,0,1-22.86-6.18A46.15,46.15,0,0,1,9.16,154.76,44.33,44.33,0,0,1,3,131.89V105.34H23.43v25.42a24.52,24.52,0,0,0,3.41,12.64,25.37,25.37,0,0,0,9.23,9.23A24.57,24.57,0,0,0,48.7,156,25.56,25.56,0,0,0,70.86,143.4a24.61,24.61,0,0,0,3.4-12.64V99.66H94.85v24.85a6.45,6.45,0,0,0,1.92,4.76,6.28,6.28,0,0,0,4.61,1.91h6.11A1.26,1.26,0,0,1,108.91,132.6ZM57.51,86.45v18.18H39.19V86.45Z"/><path class="cls-3" d="M106.07,151.21V132.6a1.26,1.26,0,0,1,1.42-1.42h19.17a1.26,1.26,0,0,1,1.42,1.42v18.61a1.26,1.26,0,0,1-1.42,1.42H107.49A1.26,1.26,0,0,1,106.07,151.21Z"/><path class="cls-3" d="M125.24,151.21V132.6a1.26,1.26,0,0,1,1.42-1.42H142a6.2,6.2,0,0,0,4.61-2,6.54,6.54,0,0,0,1.92-4.69V95.4h20.3v30.39A26.92,26.92,0,0,1,155.63,149a26,26,0,0,1-13.49,3.62H126.66A1.26,1.26,0,0,1,125.24,151.21Zm1.56,13.63H145V183H126.8Zm25.56,0h18.32V183H152.36Z"/><path class="cls-3" d="M214.13,131.18a8,8,0,0,0,5.26-1.77,6,6,0,0,0,2.13-4.9,17.32,17.32,0,0,0-.86-3.69L207.17,84.18l19.32-7.24L244,125.36c1.61,3.89,4.17,5.82,7.67,5.82h.85a1.26,1.26,0,0,1,1.42,1.42v18.61a1.26,1.26,0,0,1-1.42,1.42h-1.84a22.8,22.8,0,0,1-10.37-2.28,17.09,17.09,0,0,1-6.82-5.68,27.47,27.47,0,0,1-8.66,6.25,28,28,0,0,1-10.65,1.71H180.34V131.18Z"/><path class="cls-3" d="M251.05,151.21V132.6a1.26,1.26,0,0,1,1.42-1.42h19.17a1.26,1.26,0,0,1,1.42,1.42v18.61a1.26,1.26,0,0,1-1.42,1.42H252.47A1.26,1.26,0,0,1,251.05,151.21Z"/><path class="cls-3" d="M270.22,151.21V132.6a1.26,1.26,0,0,1,1.42-1.42h19.17a1.26,1.26,0,0,1,1.42,1.42v18.61a1.26,1.26,0,0,1-1.42,1.42H271.64A1.26,1.26,0,0,1,270.22,151.21Z"/><path class="cls-3" d="M289.39,151.21V132.6a1.26,1.26,0,0,1,1.42-1.42H310a1.26,1.26,0,0,1,1.42,1.42v18.61a1.26,1.26,0,0,1-1.42,1.42H290.81A1.26,1.26,0,0,1,289.39,151.21Z"/><path class="cls-3" d="M308.56,151.21V132.6a1.26,1.26,0,0,1,1.42-1.42h19.17a1.26,1.26,0,0,1,1.42,1.42v18.61a1.26,1.26,0,0,1-1.42,1.42H310A1.26,1.26,0,0,1,308.56,151.21Z"/><path class="cls-3" d="M404.83,132.6v18.61a1.26,1.26,0,0,1-1.42,1.42h-6.1q-10.65,0-16.76-7.53a29.67,29.67,0,0,1-9.09,5.54,29,29,0,0,1-10.65,2H329.15a1.26,1.26,0,0,1-1.42-1.42V132.6a1.26,1.26,0,0,1,1.42-1.42h32a9.17,9.17,0,0,0,6.53-2.55,9,9,0,0,0,2.7-6.82q0-5.11-4.83-8.09L333.41,92.56V77.08L361.67,47l14.05,13.21-21.15,22,23.57,15.47a26.51,26.51,0,0,1,9.3,10.3,30.68,30.68,0,0,1,3.34,14.27v2.27a6.59,6.59,0,0,0,1.84,4.76,6.21,6.21,0,0,0,4.69,1.91h6.1A1.26,1.26,0,0,1,404.83,132.6Z"/><path class="cls-3" d="M402,151.21V132.6a1.26,1.26,0,0,1,1.42-1.42h19.17A1.26,1.26,0,0,1,424,132.6v18.61a1.26,1.26,0,0,1-1.42,1.42H403.41A1.26,1.26,0,0,1,402,151.21Z"/><path class="cls-3" d="M422.58,131.18h7.1a6.23,6.23,0,0,0,4.69-1.91,6.59,6.59,0,0,0,1.84-4.76V99.66h20.45v24.85a6.6,6.6,0,0,0,1.85,4.76,6.2,6.2,0,0,0,4.68,1.91h7.1a1.26,1.26,0,0,1,1.42,1.42v18.61a1.26,1.26,0,0,1-1.42,1.42h-7.1q-10.5,0-16.75-7a22,22,0,0,1-16.76,7h-7.1a1.26,1.26,0,0,1-1.42-1.42V132.6A1.26,1.26,0,0,1,422.58,131.18Zm14.77-61.91h18.18V87.45H437.35Z"/><path class="cls-3" d="M470.29,131.18h9.23a6.21,6.21,0,0,0,4.69-1.91,6.6,6.6,0,0,0,1.85-4.76V99.66H506.5v24.85a6.6,6.6,0,0,0,1.85,4.76,6.21,6.21,0,0,0,4.69,1.91h9.23a1.26,1.26,0,0,1,1.42,1.42v18.61a1.26,1.26,0,0,1-1.42,1.42H513q-10.51,0-16.76-7a22,22,0,0,1-16.76,7h-9.23a1.26,1.26,0,0,1-1.42-1.42V132.6A1.26,1.26,0,0,1,470.29,131.18Zm4,33.66h18.18V183H474.27Zm25.56,0h18.32V183H499.83Z"/><path class="cls-3" d="M520.84,151.21V132.6a1.26,1.26,0,0,1,1.42-1.42h19.17a1.26,1.26,0,0,1,1.42,1.42v18.61a1.26,1.26,0,0,1-1.42,1.42H522.26A1.26,1.26,0,0,1,520.84,151.21Z"/><path class="cls-3" d="M540,151.21V132.6a1.26,1.26,0,0,1,1.42-1.42h5.4a6.2,6.2,0,0,0,4.62-2,6.57,6.57,0,0,0,1.91-4.69V56.92h20.31v68.87A26.9,26.9,0,0,1,560.46,149,26,26,0,0,1,547,152.63h-5.54A1.26,1.26,0,0,1,540,151.21Z"/><g class="cls-4"><path class="cls-5" d="M681.85,197.55a25.13,25.13,0,1,0-25.13,25.13,25.13,25.13,0,0,0,25.13-25.13"/><path class="cls-6" d="M659.35,206.82a8.42,8.42,0,0,1,6.39-1.24,5.47,5.47,0,0,1,5.07,5,24.25,24.25,0,0,1,.28,3.41c0,3.07,0,6.15,0,9.22,0,.75-.18.93-.92.93h-4.61c-.74,0-.91-.18-.91-.93,0-2.86,0-5.72,0-8.58a9,9,0,0,0-.29-2.13,1.89,1.89,0,0,0-2-1.53c-1.22,0-2.08.37-2.38,1.38a9.56,9.56,0,0,0-.38,2.6c-.05,2.75,0,5.49,0,8.24,0,.8-.15,1-.93,1h-4.47c-.69,0-.88-.18-.88-.87v-17c0-.65.19-.84.85-.84h4.17c.92,0,1,.11,1,1A2.84,2.84,0,0,1,659.35,206.82Zm10.54,16.11c0-.17,0-.3,0-.42,0-3,0-6,0-9a17.68,17.68,0,0,0-.37-3.25,4.11,4.11,0,0,0-3.11-3.32,9.06,9.06,0,0,0-3.84-.17,4.39,4.39,0,0,0-3.27,1.94.75.75,0,0,1-.7.23.82.82,0,0,1-.42-.6,15.29,15.29,0,0,1,0-1.66H654.5v16.27h3.88v-.61c0-2.92,0-5.85.08-8.77a4.84,4.84,0,0,1,.23-1.25,3.42,3.42,0,0,1,3.83-2.51,3,3,0,0,1,2.9,2.22,9.19,9.19,0,0,1,.39,2.5c.05,2.62,0,5.23,0,7.85v.58Z"/><path class="cls-6" d="M651,214.77v8.38c0,.82-.16,1-1,1h-5.44c-.72,0-.9-.18-.9-.9V206.36c0-.76.17-.92.93-.93h5.49c.72,0,.9.17.9.9Zm-6.11,8.14h4.9V206.65h-4.9Z"/><path class="cls-6" d="M651,200.36a3.66,3.66,0,1,1-3.64-3.67A3.68,3.68,0,0,1,651,200.36Zm-1.18,0a2.48,2.48,0,1,0-2.48,2.5A2.49,2.49,0,0,0,649.79,200.32Z"/></g></svg>