<svg id="Layer_1" data-name="Layer 1" xmlns="http://www.w3.org/2000/svg" viewBox="0 0 830.3 240.9"><defs><style>.cls-1{fill:#b61918;}.cls-2,.cls-3{fill:#646363;}.cls-3{fill-rule:evenodd;}</style></defs><path class="cls-1" d="M731.9,213.9a96,96,0,0,0,10.2-14,74.76,74.76,0,0,0,7.4-16.7,63.52,63.52,0,0,0,2.4-12.6H663.7a59.53,59.53,0,0,1-15.1-1.9,39.55,39.55,0,0,1-3.9-1.1,85.27,85.27,0,0,1-18.4-8.1c-14.2-8.4-27.1-21.2-37-37.1v69.7A48.89,48.89,0,0,0,638,240.8h10.5l32.2.1c2.7,0,5-.1,7.1-.2,8.1-.4,13.2-2.2,22-7.8A114.34,114.34,0,0,0,731.9,213.9Z"/><path class="cls-1" d="M630.4,152.7A71.21,71.21,0,0,0,647,160a9.83,9.83,0,0,0,1.6.5,53.56,53.56,0,0,0,11.2,1.9V79.9c0-9.2.1-15.1,2.9-24.6a83.17,83.17,0,0,1,8.1-18.4,103.57,103.57,0,0,1,17.1-21.5,123.88,123.88,0,0,1,20-15.5H638.2a48.89,48.89,0,0,0-48.7,48.7V90.1c0,12.5.2,17.6,7,28.4C605.5,133.2,617.4,145,630.4,152.7Z"/><path class="cls-1" d="M781.6,0h-41c-3.1,0-6,.1-8.6.3a40.15,40.15,0,0,0-19.4,6.2A110,110,0,0,0,688,27a96,96,0,0,0-10.2,14,73.64,73.64,0,0,0-7.3,16.6,63.13,63.13,0,0,0-2.4,12.7h80.8c10,0,16.1-.1,26.1,3a83.17,83.17,0,0,1,18.4,8.1c14.2,8.4,27.1,21.1,36.9,37V48.7A48.76,48.76,0,0,0,781.6,0Z"/><path class="cls-1" d="M789.3,88.2a71.21,71.21,0,0,0-16.6-7.3A56.85,56.85,0,0,0,760,78.5V159c0,10.3.2,16.1-2.9,26.5a83.17,83.17,0,0,1-8.1,18.4,100.51,100.51,0,0,1-17.1,21.4A123.54,123.54,0,0,1,712,240.9h69.6a49,49,0,0,0,48.7-48.7V152.3c0-14.8-.7-20.7-9.2-33.3A100,100,0,0,0,789.3,88.2Z"/><rect class="cls-2" x="267.2" y="55.5" width="122.2" height="14.9"/><rect class="cls-2" x="267.2" y="32.2" width="122.2" height="14.7"/><path class="cls-3" d="M537.7,85.4c-14.7-7.8-76-8.2-90.3.2-6.9,3.9-10.3,8.5-10.3,13.9v44.9h25.6V101c0-7,60.1-7,60.1,0v48.5c0,3.3-2.8,4.9-8.3,4.9H434.6c-5.2,0-8-1.6-8-4.9V32.2H401.1V149.6c0,4.9,3.3,9.5,9.6,13.4,6.4,4.1,14.4,6,23.8,6h81c9.1,0,16.8-2.1,23.2-6.2s9.6-8.8,9.6-13.7V98.8C548.5,93.6,544.9,89.2,537.7,85.4Z"/><path class="cls-3" d="M364.9,169.1c0,9.6-5.1,17.2-15.4,22.7l19.3,9.6c14.4-7.8,21.7-17.6,21.7-29.2V80.6H364.9Z"/><path class="cls-3" d="M329.6,94.3c-14.5-8.7-31.9-13.1-51.9-13.1H267.2V96.1h10.5c13.4,0,25,2.9,34.5,8.8s14.5,12.7,14.5,20.6-4.9,14.9-14.9,20.7c-9.8,5.7-21.1,8.7-34.1,8.7H258V81.2H233.4a114.54,114.54,0,0,0-24.8,2.5,93.51,93.51,0,0,0-27.3,10.6c-14.5,8.7-21.7,19.1-21.7,31.2s7.3,22.5,21.9,31.2a90.07,90.07,0,0,0,27.1,10.6,113.53,113.53,0,0,0,23.8,2.5c0,9-5.2,16.3-15.4,21.9l19.1,10c14.5-8.2,21.7-18.1,21.7-29.9v-2h19.7q30.9,0,52.4-13.1c14.2-8.8,21.4-19.1,21.4-31.2C351.5,113.4,344.3,102.9,329.6,94.3Zm-97.2,60.6a69.9,69.9,0,0,1-23.8-3.8,49.69,49.69,0,0,1-10.1-4.9c-9.1-5.7-13.7-12.7-13.7-20.7,0-7.7,5.2-14.5,15.8-20.6a60.32,60.32,0,0,1,8-4.1,59.12,59.12,0,0,1,23.8-4.7Z"/><path class="cls-3" d="M123.5,144.6c0,9.8-4.6,17.5-13.7,23.2s-20.9,8.7-35.3,8.7c-13.6,0-25-2.9-34.6-9-9.5-5.9-14.2-12.7-14.2-20.6V81H0v65.8c0,12.2,7.5,22.9,22.4,31.7s32.3,13.2,52.1,13.2c19.1,0,36.1-3.9,50.6-11.8,15.8-9,23.8-19.8,23.8-32.3V81H123.4v63.6Z"/><path class="cls-3" d="M514.4,176.6a15.65,15.65,0,0,0-15.3,12.9,15.52,15.52,0,0,0-30.6,0,15.51,15.51,0,0,0-30.8,2.6,15.52,15.52,0,0,0,30.8,2.7,15.54,15.54,0,0,0,30.6,0,15.52,15.52,0,0,0,30.8-2.7A15.64,15.64,0,0,0,514.4,176.6Z"/><path class="cls-3" d="M74.5,138.2A15.5,15.5,0,1,0,59,122.7,15.45,15.45,0,0,0,74.5,138.2Z"/></svg>