<svg id="Layer_1" data-name="Layer 1" xmlns="http://www.w3.org/2000/svg" xmlns:xlink="http://www.w3.org/1999/xlink" viewBox="0 0 830.3 240.9"><defs><style>.cls-1{fill:none;}.cls-2{fill:#183c6c;}.cls-3{clip-path:url(#clip-path);}.cls-4{fill:#a8182f;}.cls-5{fill:#646363;}.cls-6{fill:#fff;}</style><clipPath id="clip-path"><path class="cls-1" d="M681.85,197.55a25.13,25.13,0,1,0-25.13,25.13,25.13,25.13,0,0,0,25.13-25.13"/></clipPath></defs><path class="cls-2" d="M733.67,140.86H652a20.56,20.56,0,0,1,0-41.12h81.72a20.42,20.42,0,1,0,0-40.84H652a20.56,20.56,0,1,1,0-41.11h81.72a61.54,61.54,0,1,1,0,123.07"/><g class="cls-3"><path class="cls-4" d="M681.89,197.55a25.13,25.13,0,1,0-25.13,25.13,25.13,25.13,0,0,0,25.13-25.13"/></g><path class="cls-5" d="M67.41,189.93A38.22,38.22,0,0,1,53.52,176a37.17,37.17,0,0,1-5.14-19.17v-36.7H70.13v35.49A16.1,16.1,0,0,0,75,167.36a15.74,15.74,0,0,0,11.63,4.91h34.57a7.83,7.83,0,0,0,5.89-2.34,8.67,8.67,0,0,0,.61-11,7.27,7.27,0,0,0-4.53-2.87l-39-8.91V127.42a30.85,30.85,0,0,1,4.45-16.08A32.93,32.93,0,0,1,100.7,99.49a32.39,32.39,0,0,1,16.39-4.38h28.08V116.7H116.79a11.1,11.1,0,0,0-10.88,10.87V130q13.89,3,18.12,4.07l6,1.36a29.57,29.57,0,0,1,15.56,11,30,30,0,0,1,6,18.27A29.58,29.58,0,0,1,147.59,180a30.32,30.32,0,0,1-11.1,11,30,30,0,0,1-15.33,4.08H86.59A37.18,37.18,0,0,1,67.41,189.93Z"/><path class="cls-5" d="M147.51,41a15.49,15.49,0,0,1,11-4.15h38.2V53.28H161.33a4.06,4.06,0,0,0-2.87,1,3.87,3.87,0,0,0-1.06,3v7.24H143.06V52.07A14.49,14.49,0,0,1,147.51,41Zm16.54,24.39h21.74v95.73H164.05Z"/><path class="cls-5" d="M321.39,139.8v19.78a1.34,1.34,0,0,1-1.51,1.51h-6.8a23.29,23.29,0,0,1,1.06,7.4,29.55,29.55,0,0,1-4.08,15.25,30.51,30.51,0,0,1-11,11,30,30,0,0,1-15.4,4.07H249.06a37.27,37.27,0,0,1-19.18-5.13A38.22,38.22,0,0,1,216,179.82a37.27,37.27,0,0,1-5.13-19.18V124H232.6v35.48a16.1,16.1,0,0,0,4.83,11.7A15.71,15.71,0,0,0,249.06,176h35a7.17,7.17,0,0,0,5.36-2.26,7.37,7.37,0,0,0,2.19-5.29,7.12,7.12,0,0,0-2.19-5.21,7.3,7.3,0,0,0-5.36-2.19H252.83v-22.8h67A1.34,1.34,0,0,1,321.39,139.8Z"/><path class="cls-5" d="M318.37,159.58V139.8a1.34,1.34,0,0,1,1.51-1.51H328a6.58,6.58,0,0,0,4.91-2.11,6.94,6.94,0,0,0,2-5v-31h21.59v32.31a28.65,28.65,0,0,1-14,24.69,27.6,27.6,0,0,1-14.35,3.85h-8.3A1.33,1.33,0,0,1,318.37,159.58Zm1.36,14.35H339.2v19.33H319.73Z"/><path class="cls-5" d="M395.83,175.74a18.78,18.78,0,0,0,6-8.15q1.5-4.38,1.51-12.69V104.77h21.74V154.9q0,12.69-3.17,20.84a35.91,35.91,0,0,1-10.87,14.57q-7.71,6.42-22.35,13.67l-8.15-18.27Q391.29,179.52,395.83,175.74Z"/><path class="cls-5" d="M468.53,175.44q6.57-3.63,9-6.8a12.09,12.09,0,0,0,2.41-7.55h-9.81A34.47,34.47,0,0,1,453.51,157a31.48,31.48,0,0,1-12-11.25,29.84,29.84,0,0,1-4.45-16.08,32.07,32.07,0,0,1,4.45-16.61,33.4,33.4,0,0,1,12-12,32.07,32.07,0,0,1,16.61-4.45,29.94,29.94,0,0,1,16,4.45,31.23,31.23,0,0,1,11.33,12,34.36,34.36,0,0,1,4.08,16.61v22q0,14-4.31,22.73t-13.89,15.1q-9.58,6.42-28,14.42l-6.79-19.18Q462,179.06,468.53,175.44Zm11.4-45.9a10,10,0,0,0-2.79-7.25,9.39,9.39,0,0,0-7-2.87,10.08,10.08,0,0,0-7.32,2.87,10.37,10.37,0,0,0,0,14.49,10,10,0,0,0,7.32,2.87h9.81Z"/><path class="cls-5" d="M528.25,157.24a28.59,28.59,0,0,1-14-24.69V59.32H536V131.2a7,7,0,0,0,2,5.05,6.41,6.41,0,0,0,4.83,2h8.3a1.34,1.34,0,0,1,1.51,1.51v19.78a1.33,1.33,0,0,1-1.51,1.51H542.6A27.58,27.58,0,0,1,528.25,157.24Z"/><path class="cls-5" d="M549.54,159.58V139.8a1.34,1.34,0,0,1,1.51-1.51h16.31a6.58,6.58,0,0,0,4.91-2.11,6.94,6.94,0,0,0,2-5v-31H595.9v32.31a28.65,28.65,0,0,1-14,24.69,27.6,27.6,0,0,1-14.35,3.85H551.05A1.34,1.34,0,0,1,549.54,159.58Zm1.36,14.35h19.48v19.33H550.9Zm13.89,27h19.33v19.33H564.79Zm13.29-27h19.33v19.33H578.08Z"/><path class="cls-6" d="M678.58,213c0,2.89-.05,5.79,0,8.69s-2.34,4.47-4.93,3.69c-.84-.25-1.67-.51-2.5-.79-.51-.17-.9-.46-.71-1.08s.65-.74,1.24-.54c.88.29,1.77.57,2.65.83a1.93,1.93,0,0,0,2.5-1.56,5.37,5.37,0,0,0,0-.9V204.45c0-1.71-.36-2.2-2-2.7L649.22,194c-1.66-.5-2.76.3-2.77,2,0,3.88,0,7.76,0,11.64,0,.22,0,.44,0,.66-.05.53-.39.86-.87.73a1.17,1.17,0,0,1-.76-.74,9,9,0,0,1,0-1.8c0-3.5.09-7,0-10.49a3.75,3.75,0,0,1,4.9-3.67c8.76,2.69,17.53,5.33,26.29,8a3.66,3.66,0,0,1,2.65,3.71C678.59,207,678.58,210,678.58,213Z"/><path class="cls-6" d="M663.32,216.73c0-3.22,0-6.44,0-9.66a2.24,2.24,0,0,1,2.26-2.46,2.19,2.19,0,0,1,2.22,2.4q0,9.54,0,19.08a4.19,4.19,0,0,1-.17,1c-.32,1.25-1.24,1.78-2.7,1.6a2.12,2.12,0,0,1-1.61-2.1C663.31,223.34,663.32,220,663.32,216.73Z"/><path class="cls-6" d="M656.78,216.84v-7.22a2.34,2.34,0,0,1,2.21-2.54,2.26,2.26,0,0,1,2.34,2.49c0,4.7,0,9.4,0,14.09,0,1.69-1,2.78-2.37,2.8a2.09,2.09,0,0,1-2.17-2.33C656.77,221.7,656.78,219.27,656.78,216.84Z"/><path class="cls-6" d="M650.19,216.76c0-1.58,0-3.17,0-4.75a2.28,2.28,0,0,1,2.23-2.43,2.19,2.19,0,0,1,2.25,2.37c0,3.19,0,6.39,0,9.58a2.19,2.19,0,0,1-2.3,2.32,2.15,2.15,0,0,1-2.18-2.34C650.18,219.93,650.19,218.34,650.19,216.76Z"/><path class="cls-6" d="M643.65,216.81v-2.7a2.13,2.13,0,0,1,2.09-2.25,2.23,2.23,0,0,1,2.32,2.08c.06,1.88.06,3.77,0,5.65a2.08,2.08,0,0,1-1.57,2,2,2,0,0,1-2.36-.65,2.94,2.94,0,0,1-.46-1.5C643.6,218.56,643.65,217.69,643.65,216.81Z"/></svg>